<?xml version="1.0" standalone="no"?><!DOCTYPE svg PUBLIC "-//W3C//DTD SVG 1.1//EN" "http://www.w3.org/Graphics/SVG/1.1/DTD/svg11.dtd"><svg width="500" height="500" style="background: rgb(17, 17, 17);" version="1.1" xmlns="http://www.w3.org/2000/svg" xmlns:xlink="http://www.w3.org/1999/xlink"><defs xmlns="http://www.w3.org/1999/xhtml"><style type="text/css"><![CDATA[
html, body { height: 100%; margin: 0px; background: rgb(34, 34, 34); }
body, #prev, #next { height: 100%; display: -webkit-flex; flex-direction: column; justify-content: center; }
#prev, #next { position: absolute; top: 0px; color: rgb(209, 209, 209); font-size: 70px; text-decoration: none; padding: 20px; }
#prev { left: 0px; }
#next { right: 0px; }
svg { margin: auto; }]]></style></defs><g transform="translate(250,250)"><path fill="#d1d1d1" d="M100.20155963062781,-489.8567621739948A500,500 0 0,1 137.8186779084997,-480.6308479691594L0,0Z"/><path fill="#d1d1d1" d="M3.8350325396236498,499.9852923091039A500,500 0 0,1 -34.87823687206344,498.78202512991203L0,0Z"/><path fill="#d1d1d1" d="M167.40128955832733,-471.14414806321116A500,500 0 0,1 203.3683215379001,-456.77272882130046L0,0Z"/><path fill="#d1d1d1" d="M231.3427438009184,-443.2612490289024A500,500 0 0,1 264.95963211660245,-424.024048078213L0,0Z"/><path fill="#d1d1d1" d="M290.78137468389554,-406.75077398444364A500,500 0 0,1 321.39380484326966,-383.022221559489L0,0Z"/><path fill="#d1d1d1" d="M344.5602768675619,-362.32335779652556A500,500 0 0,1 371.5724127386971,-334.5653031794291L0,0Z"/><path fill="#d1d1d1" d="M391.63270519350704,-310.84372958580906A500,500 0 0,1 414.5187862775208,-279.5964517353734L0,0Z"/><path fill="#d1d1d1" d="M431.0824483884601,-253.31388175820652A500,500 0 0,1 449.3970231495835,-219.1855733945387L0,0Z"/><path fill="#d1d1d1" d="M462.141662074549,-190.85356736245032A500,500 0 0,1 475.52825814757676,-154.50849718747372L0,0Z"/><path fill="#d1d1d1" d="M484.205813986706,-124.67850537069923A500,500 0 0,1 492.403876506104,-86.8240888334652L0,0Z"/><path fill="#d1d1d1" d="M496.84545050556176,-56.07671809160534A500,500 0 0,1 499.6954135095479,-17.44974835125053L0,0Z"/><path fill="#d1d1d1" d="M499.8145554836502,13.616538718820228A500,500 0 0,1 497.2609476841367,52.264231633826675L0,0Z"/><path fill="#d1d1d1" d="M493.05533866987975,83.04476509166719A500,500 0 0,1 485.14786313799823,120.96094779983379L0,0Z"/><path fill="#d1d1d1" d="M476.69936053103515,150.85661957402507A500,500 0 0,1 463.5919272833937,187.30329670795592L0,0Z"/><path fill="#d1d1d1" d="M451.0649715769398,215.73222155323595A500,500 0 0,1 433.0127018922193,250L0,0Z"/><path fill="#d1d1d1" d="M416.65111602989975,276.4088412316781A500,500 0 0,1 394.0053768033609,307.8307376628293L0,0Z"/><path fill="#d1d1d1" d="M374.1276204429576,331.70547722594245A500,500 0 0,1 347.32918522949853,359.6699001693258L0,0Z"/><path fill="#d1d1d1" d="M324.32215628795404,380.5458434153918A500,500 0 0,1 293.8926261462363,404.5084971874739L0,0Z"/><path fill="#d1d1d1" d="M268.20413027179035,421.97931762724164A500,500 0 0,1 234.735781392945,441.4737964294637L0,0Z"/><path fill="#d1d1d1" d="M206.86581593756262,455.19944441583675A500,500 0 0,1 171.0100716628339,469.84631039295436L0,0Z"/><path fill="#d1d1d1" d="M141.50109380248827,479.5596318005712A500,500 0 0,1 103.95584540887907,489.07380036690296L0,0Z"/><path fill="#d1d1d1" d="M73.38221383165704,494.58573644330363A500,500 0 0,1 34.87823687206195,498.78202512991214L0,0Z"/><path fill="#d1d1d1" d="M31.051520322302963,-499.03487161286995A500,500 0 0,1 69.58655048003273,-495.1340343707852L0,0Z"/><path fill="#d1d1d1" d="M-65.78679329850864,495.6532031849479A500,500 0 0,1 -103.95584540888055,489.0738003669026L0,0Z"/><path fill="#d1d1d1" d="M-134.12815403645374,481.67378825795925A500,500 0 0,1 -171.0100716628353,469.84631039295385L0,0Z"/><path fill="#d1d1d1" d="M-199.8588628245931,458.31914093834274A500,500 0 0,1 -234.73578139294622,441.473796429463L0,0Z"/><path fill="#d1d1d1" d="M-261.6995461839389,426.0438328706572A500,500 0 0,1 -293.89262614623743,404.50849718747304L0,0Z"/><path fill="#d1d1d1" d="M-318.44654555563585,385.4760662138213A500,500 0 0,1 -347.32918522949944,359.66990016932476L0,0Z"/><path fill="#d1d1d1" d="M-368.99534514566903,337.40544640065986A500,500 0 0,1 -394.00537680336157,307.8307376628283L0,0Z"/><path fill="#d1d1d1" d="M-412.3620700684258,282.76761336631654A500,500 0 0,1 -433.01270189221987,249.99999999999903L0,0Z"/><path fill="#d1d1d1" d="M-447.7026363522033,222.62603038119067A500,500 0 0,1 -463.59192728339417,187.30329670795487L0,0Z"/><path fill="#d1d1d1" d="M-474.3291800735859,158.15128494805109A500,500 0 0,1 -485.14786313799857,120.96094779983258L0,0Z"/><path fill="#d1d1d1" d="M-491.7234458462817,90.598304647818A500,500 0 0,1 -497.2609476841368,52.26423163382532L0,0Z"/><path fill="#d1d1d1" d="M-499.5468740727091,21.281931401659236A500,500 0 0,1 -499.69541350954785,-17.449748351252L0,0Z"/><path fill="#d1d1d1" d="M-497.6471906214583,-48.44867043139467A500,500 0 0,1 -492.40387650610376,-86.82408883346676L0,0Z"/><path fill="#d1d1d1" d="M-486.0613706700502,-117.23627400404726A500,500 0 0,1 -475.52825814757625,-154.50849718747534L0,0Z"/><path fill="#d1d1d1" d="M-465.014919025164,-183.74200685749622A500,500 0 0,1 -449.3970231495827,-219.18557339454034L0,0Z"/><path fill="#d1d1d1" d="M-434.9174809280834,-246.67141055089905A500,500 0 0,1 -414.5187862775198,-279.596451735375L0,0Z"/><path fill="#d1d1d1" d="M-396.35486877603984,-304.79963582249934A500,500 0 0,1 -371.5724127386958,-334.56530317943054L0,0Z"/><path fill="#d1d1d1" d="M-350.07765995025153,-356.9952828872618A500,500 0 0,1 -321.3938048432681,-383.0222215594904L0,0Z"/><path fill="#d1d1d1" d="M-296.9865876809677,-402.24242284673915A500,500 0 0,1 -264.95963211660063,-424.02404807821415L0,0Z"/><path fill="#d1d1d1" d="M-238.11500929971024,-439.66037158947915A500,500 0 0,1 -203.36832153789803,-456.77272882130137L0,0Z"/><path fill="#d1d1d1" d="M-174.60879311424256,-468.5208313054902A500,500 0 0,1 -137.8186779084973,-480.63084796916013L0,0Z"/><path fill="#d1d1d1" d="M-107.70401538536451,-488.26206597468655A500,500 0 0,1 -69.58655048003028,-495.1340343707855L0,0Z"/><path fill="#d1d1d1" d="M-38.70290150851201,-498.49983491955385A500,500 0 0,1 2.5726867491643244e-12,-500L0,0Z"/></g></svg>