<?xml version="1.0" standalone="no"?><!DOCTYPE svg PUBLIC "-//W3C//DTD SVG 1.1//EN" "http://www.w3.org/Graphics/SVG/1.1/DTD/svg11.dtd"><svg width="500" height="500" style="background: rgb(209, 209, 209);" version="1.1" xmlns:xlink="http://www.w3.org/1999/xlink" xmlns="http://www.w3.org/2000/svg"><defs xmlns="http://www.w3.org/1999/xhtml"><style type="text/css"><![CDATA[
html, body { height: 100%; margin: 0px; background: rgb(34, 34, 34); }
body, #prev, #next { height: 100%; display: -webkit-flex; flex-direction: column; justify-content: center; }
#prev, #next { position: absolute; top: 0px; color: rgb(209, 209, 209); font-size: 70px; text-decoration: none; padding: 20px; }
#prev { left: 0px; }
#next { right: 0px; }
svg { margin: auto; }]]></style></defs><defs xmlns="http://www.w3.org/1999/xhtml"><style type="text/css"></style></defs><defs xmlns="http://www.w3.org/1999/xhtml"><style type="text/css"></style></defs><g transform="translate(0,-290.9444515897393)"><path stroke="black" fill="none" d="M0,0 Q250,-89.8308272169977 500,-181.37192273961" stroke-width="1.206644914864217"/></g><g transform="translate(0,-470.4897493710827)"><path stroke="black" fill="none" d="M0,0 Q250,-69.8077766347042 500,-144.76528660977607" stroke-width="1.4651669165885117"/></g><g transform="translate(0,-375.90238794146376)"><path stroke="black" fill="none" d="M0,0 Q250,-34.17352546287955 500,-98.98659285720947" stroke-width="1.5021590929663406"/></g><g transform="translate(0,258.24314018973996)"><path stroke="black" fill="none" d="M0,0 Q250,100.57680062370444 500,183.65677521336963" stroke-width="1.4639373413586834"/></g><g transform="translate(0,-70.68752886191044)"><path stroke="black" fill="none" d="M0,0 Q250,-132.34493199385497 500,-288.4998320997465" stroke-width="2.1807855374868095"/></g><g transform="translate(0,427.6411097404752)"><path stroke="black" fill="none" d="M0,0 Q250,-68.1084788973502 500,-145.2175017466886" stroke-width="1.8227887646421297"/></g><g transform="translate(0,271.1567167709934)"><path stroke="black" fill="none" d="M0,0 Q250,47.794844468824394 500,82.10846970370378" stroke-width="1.5868187664159523"/></g><g transform="translate(0,189.93480902416889)"><path stroke="black" fill="none" d="M0,0 Q250,-32.03355946162552 500,-75.2348032324356" stroke-width="1.3096076185032097"/></g><g transform="translate(0,1000)"><path stroke="black" fill="none" d="M0,0 Q250,-61.18549800104677 500,-140.02531215733347" stroke-width="1.8331923810804827"/></g><g transform="translate(0,1000)"><path stroke="black" fill="none" d="M0,0 Q250,2.1948711040871007 500,-20.955641031735805" stroke-width="1.410963542705955"/></g><g transform="translate(0,926.0028930162927)"><path stroke="black" fill="none" d="M0,0 Q250,63.26363122090883 500,90.02178049646689" stroke-width="1.7858876977924742"/></g><g transform="translate(0,1000)"><path stroke="black" fill="none" d="M0,0 Q250,40.11434510208259 500,73.66248003854533" stroke-width="1.6681934721089682"/></g><g transform="translate(0,999.225312024599)"><path stroke="black" fill="none" d="M0,0 Q250,56.869490212703276 500,94.49127908039496" stroke-width="0.9869007907576534"/></g></svg>