<?xml version="1.0" standalone="no"?><!DOCTYPE svg PUBLIC "-//W3C//DTD SVG 1.1//EN" "http://www.w3.org/Graphics/SVG/1.1/DTD/svg11.dtd"><svg width="500" height="500" style="background: rgb(209, 209, 209);" version="1.1" xmlns="http://www.w3.org/2000/svg" xmlns:xlink="http://www.w3.org/1999/xlink"><defs xmlns="http://www.w3.org/1999/xhtml"><style type="text/css"><![CDATA[
html, body { height: 100%; margin: 0px; background: rgb(34, 34, 34); }
body, #prev, #next { height: 100%; box-sizing: border-box; display: -webkit-flex; flex-direction: column; justify-content: center; }
#prev, #next { position: absolute; top: 0px; color: rgb(209, 209, 209); font-size: 70px; text-decoration: none; padding: 20px; }
#prev { left: 0px; }
#next { right: 0px; }
svg { margin: auto; }
.fa { display: inline-block; font-style: normal; font-variant: normal; font-weight: normal; font-stretch: normal; line-height: 1; font-family: FontAwesome; font-size: inherit; text-rendering: auto; -webkit-font-smoothing: antialiased; }
.fa-twitter::before { content: ''; }
.fa-github::before { content: ''; }
.fa-th::before { content: ''; }
footer { text-align: center; margin-bottom: 25px; }
a { color: rgb(209, 209, 209); text-decoration: none; padding: 10px; }]]></style></defs><g transform="translate(250,250)rotate(0.9100000000000819)"><circle cx="-0.737277336810124" cy="0.6755902076156604" fill="#000" fill-opacity="0.3" r="0.12"/><circle cx="-0.9099612708765431" cy="0.4146932426562392" fill="#000" fill-opacity="0.3" r="0.21964448543447332"/><circle cx="-0.9935718556765875" cy="0.11320321376790689" fill="#000" fill-opacity="0.3" r="0.008953924903958414"/><circle cx="-0.9799247046208297" cy="-0.199367934417197" fill="#000" fill-opacity="0.3" r="0.14410777983608974"/><circle cx="-0.8703556959398998" cy="-0.49242356010346694" fill="#000" fill-opacity="0.3" r="0.20417981833928686"/><circle cx="-0.6755902076156604" cy="-0.737277336810124" fill="#000" fill-opacity="0.3" r="0.0020803209091062726"/><circle cx="-0.41469324265623925" cy="-0.9099612708765431" fill="#000" fill-opacity="0.3" r="0.16723254715724145"/><circle cx="-0.11320321376790694" cy="-0.9935718556765875" fill="#000" fill-opacity="0.3" r="0.18528265702458482"/><circle cx="0.19936793441719694" cy="-0.9799247046208297" fill="#000" fill-opacity="0.3" r="0.000014978856745471169"/><circle cx="0.4924235601034669" cy="-0.8703556959398998" fill="#000" fill-opacity="0.3" r="0.18843137250930048"/><circle cx="0.7372773368101239" cy="-0.6755902076156605" fill="#000" fill-opacity="0.3" r="0.16372354718953372"/><circle cx="0.9099612708765431" cy="-0.4146932426562393" fill="#000" fill-opacity="0.3" r="0.0028421145933331094"/><circle cx="0.9935718556765875" cy="-0.11320321376790701" fill="#000" fill-opacity="0.3" r="0.20683985814329353"/><circle cx="0.9799247046208297" cy="0.19936793441719688" fill="#000" fill-opacity="0.3" r="0.14038157744879978"/><circle cx="0.8703556959398998" cy="0.49242356010346683" fill="#000" fill-opacity="0.3" r="0.01044644957271565"/><circle cx="0.6755902076156605" cy="0.7372773368101238" fill="#000" fill-opacity="0.3" r="0.22170738447158947"/><circle cx="0.41469324265623936" cy="0.9099612708765431" fill="#000" fill-opacity="0.3" r="0.11620853384549652"/><circle cx="0.11320321376790707" cy="0.9935718556765875" fill="#000" fill-opacity="0.3" r="0.0225179114239266"/><circle cx="-0.19936793441719683" cy="0.9799247046208297" fill="#000" fill-opacity="0.3" r="0.23242771713555926"/><circle cx="-0.4924235601034668" cy="0.8703556959398998" fill="#000" fill-opacity="0.3" r="0.09219009007283682"/><circle cx="0.34862297099063155" cy="-3.984778792366982" fill="#000" fill-opacity="0.3" r="0.14392697236482652"/><circle cx="1.562924513957094" cy="-3.682019413809762" fill="#000" fill-opacity="0.3" r="0.8903513102271402"/><circle cx="2.624236115962028" cy="-3.0188383208910885" fill="#000" fill-opacity="0.3" r="0.25865770454077497"/><circle cx="3.4286692028084484" cy="-2.060152299640218" fill="#000" fill-opacity="0.3" r="0.21620705141253838"/><circle cx="3.8974802591409405" cy="-0.8998042173754613" fill="#000" fill-opacity="0.3" r="0.8952086279775741"/><circle cx="3.984778792366982" cy="0.34862297099063133" fill="#000" fill-opacity="0.3" r="0.18096452039920705"/><circle cx="3.682019413809762" cy="1.5629245139570938" fill="#000" fill-opacity="0.3" r="0.2979327806116411"/><circle cx="3.018838320891089" cy="2.624236115962028" fill="#000" fill-opacity="0.3" r="0.8818248054754574"/><circle cx="2.060152299640218" cy="3.4286692028084484" fill="#000" fill-opacity="0.3" r="0.11415402662092929"/><circle cx="0.8998042173754616" cy="3.8974802591409405" fill="#000" fill-opacity="0.3" r="0.3857717330384813"/><circle cx="-0.34862297099063105" cy="3.984778792366982" fill="#000" fill-opacity="0.3" r="0.8507455779608967"/><circle cx="-1.5629245139570935" cy="3.682019413809762" fill="#000" fill-opacity="0.3" r="0.06095047039750713"/><circle cx="-2.6242361159620278" cy="3.0188383208910894" fill="#000" fill-opacity="0.3" r="0.47614221058060047"/><circle cx="-3.4286692028084484" cy="2.0601522996402184" fill="#000" fill-opacity="0.3" r="0.8032382238730198"/><circle cx="-3.8974802591409405" cy="0.8998042173754618" fill="#000" fill-opacity="0.3" r="0.02352326599945148"/><circle cx="-3.984778792366982" cy="-0.34862297099063083" fill="#000" fill-opacity="0.3" r="0.565359290320629"/><circle cx="-3.682019413809762" cy="-1.5629245139570933" fill="#000" fill-opacity="0.3" r="0.7412398906363233"/><circle cx="-3.0188383208910894" cy="-2.6242361159620278" fill="#000" fill-opacity="0.3" r="0.003398535308272594"/><circle cx="-2.0601522996402184" cy="-3.4286692028084484" fill="#000" fill-opacity="0.3" r="0.6497850799878102"/><circle cx="-0.899804217375462" cy="-3.8974802591409405" fill="#000" fill-opacity="0.3" r="0.6672786060447979"/><circle cx="5.478852861078489" cy="7.1401800626211145" fill="#000" fill-opacity="0.3" r="0.0030180901122942093"/><circle cx="3.004261733103942" cy="8.483773419829603" fill="#000" fill-opacity="0.3" r="1.5685424887017798"/><circle cx="0.23559253477086245" cy="8.996915924780016" fill="#000" fill-opacity="0.3" r="1.2625873978503672"/><circle cx="-2.556138102335299" cy="8.62937761381374" fill="#000" fill-opacity="0.3" r="0.03802629338160027"/><circle cx="-5.0976561323234915" cy="7.417135697598143" fill="#000" fill-opacity="0.3" r="1.708660059361035"/><circle cx="-7.1401800626211145" cy="5.478852861078489" fill="#000" fill-opacity="0.3" r="1.071428995140938"/><circle cx="-8.483773419829603" cy="3.0042617331039425" fill="#000" fill-opacity="0.3" r="0.11093998330797274"/><circle cx="-8.996915924780016" cy="0.235592534770863" fill="#000" fill-opacity="0.3" r="1.8185617919016301"/><circle cx="-8.62937761381374" cy="-2.5561381023352987" fill="#000" fill-opacity="0.3" r="0.8760383212482667"/><circle cx="-7.417135697598143" cy="-5.0976561323234915" fill="#000" fill-opacity="0.3" r="0.21878605037260532"/><circle cx="-5.47885286107849" cy="-7.140180062621113" fill="#000" fill-opacity="0.3" r="1.8937663620690948"/><circle cx="-3.004261733103943" cy="-8.483773419829603" fill="#000" fill-opacity="0.3" r="0.6843825751033586"/><circle cx="-0.23559253477086356" cy="-8.996915924780016" fill="#000" fill-opacity="0.3" r="0.35716699159794535"/><circle cx="2.5561381023352983" cy="-8.62937761381374" fill="#000" fill-opacity="0.3" r="1.9312072480120797"/><circle cx="5.0976561323234915" cy="-7.417135697598145" fill="#000" fill-opacity="0.3" r="0.504276661201824"/><circle cx="7.140180062621113" cy="-5.47885286107849" fill="#000" fill-opacity="0.3" r="0.5204402219770533"/><circle cx="8.483773419829603" cy="-3.0042617331039434" fill="#000" fill-opacity="0.3" r="1.9293577699739781"/><circle cx="8.996915924780016" cy="-0.23559253477086411" fill="#000" fill-opacity="0.3" r="0.34306453110549595"/><circle cx="8.62937761381374" cy="2.556138102335298" fill="#000" fill-opacity="0.3" r="0.7019481550416716"/><circle cx="7.417135697598145" cy="5.097656132323491" fill="#000" fill-opacity="0.3" r="1.8882933417867531"/><circle cx="-15.75692404819533" cy="-2.7783708426708764" fill="#000" fill-opacity="0.3" r="0.3581164170806261"/><circle cx="-14.127161485742835" cy="-7.511545004574244" fill="#000" fill-opacity="0.3" r="1.5447628416141657"/><circle cx="-11.114533927343963" cy="-11.509436805418412" fill="#000" fill-opacity="0.3" r="3.125988681113774"/><circle cx="-7.013938348625247" cy="-14.380704740786667" fill="#000" fill-opacity="0.3" r="0.17718830946249267"/><circle cx="-2.2267696153610568" cy="-15.844289099865124" fill="#000" fill-opacity="0.3" r="1.88217250041119"/><circle cx="2.7783708426708755" cy="-15.75692404819533" fill="#000" fill-opacity="0.3" r="2.9308998105164825"/><circle cx="7.511545004574243" cy="-14.127161485742835" fill="#000" fill-opacity="0.3" r="0.05719011383165017"/><circle cx="11.50943680541841" cy="-11.114533927343963" fill="#000" fill-opacity="0.3" r="2.2109900824901803"/><circle cx="14.380704740786667" cy="-7.013938348625248" fill="#000" fill-opacity="0.3" r="2.684456233145703"/><circle cx="15.844289099865124" cy="-2.226769615361058" fill="#000" fill-opacity="0.3" r="0.0030148451764980856"/><circle cx="15.75692404819533" cy="2.7783708426708746" fill="#000" fill-opacity="0.3" r="2.517807808266668"/><circle cx="14.127161485742837" cy="7.511545004574242" fill="#000" fill-opacity="0.3" r="2.396706867749995"/><circle cx="11.114533927343965" cy="11.50943680541841" fill="#000" fill-opacity="0.3" r="0.01687154005911681"/><circle cx="7.013938348625249" cy="14.380704740786665" fill="#000" fill-opacity="0.3" r="2.79011495853317"/><circle cx="2.226769615361059" cy="15.844289099865124" fill="#000" fill-opacity="0.3" r="2.079384907069273"/><circle cx="-2.7783708426708738" cy="15.756924048195332" fill="#000" fill-opacity="0.3" r="0.09819518151909684"/><circle cx="-7.511545004574241" cy="14.127161485742837" fill="#000" fill-opacity="0.3" r="3.0168080082683884"/><circle cx="-11.50943680541841" cy="11.114533927343965" fill="#000" fill-opacity="0.3" r="1.7454293882416245"/><circle cx="-14.380704740786665" cy="7.01393834862525" fill="#000" fill-opacity="0.3" r="0.24366973805708161"/><circle cx="-15.844289099865124" cy="2.22676961536106" fill="#000" fill-opacity="0.3" r="3.1886433810644643"/><circle cx="21.08478614532213" cy="-13.432490208670611" fill="#000" fill-opacity="0.3" r="2.1521513035777766"/><circle cx="24.20369100945269" cy="-6.259500101361053" fill="#000" fill-opacity="0.3" r="0.683580165742128"/><circle cx="24.953369960546677" cy="1.5262134883714034" fill="#000" fill-opacity="0.3" r="5.04034855647802"/><circle cx="23.26043919955062" cy="9.162530668107415" fill="#000" fill-opacity="0.3" r="1.6536381623329994"/><circle cx="19.29061458469301" cy="15.901955506944084" fill="#000" fill-opacity="0.3" r="1.0710966655087464"/><circle cx="13.432490208670611" cy="21.08478614532213" fill="#000" fill-opacity="0.3" r="5.107004519210591"/><circle cx="6.259500101361054" cy="24.203691009452687" fill="#000" fill-opacity="0.3" r="1.1918387455447315"/><circle cx="-1.5262134883714018" cy="24.953369960546677" fill="#000" fill-opacity="0.3" r="1.5190804491944705"/><circle cx="-9.162530668107413" cy="23.26043919955062" fill="#000" fill-opacity="0.3" r="5.069560644530532"/><circle cx="-15.901955506944082" cy="19.29061458469301" fill="#000" fill-opacity="0.3" r="0.7855832652515397"/><circle cx="-21.08478614532213" cy="13.432490208670615" fill="#000" fill-opacity="0.3" r="2.0092646473967566"/><circle cx="-24.203691009452687" cy="6.259500101361056" fill="#000" fill-opacity="0.3" r="4.9295437340624195"/><circle cx="-24.953369960546677" cy="-1.5262134883714003" fill="#000" fill-opacity="0.3" r="0.4514370884888097"/><circle cx="-23.26043919955062" cy="-9.162530668107411" fill="#000" fill-opacity="0.3" r="2.5216616376662495"/><circle cx="-19.290614584692985" cy="-15.901955506944116" fill="#000" fill-opacity="0.3" r="4.6926630806663985"/><circle cx="-13.432490208670615" cy="-21.08478614532213" fill="#000" fill-opacity="0.3" r="0.2030252722218963"/><circle cx="-6.2595001013611" cy="-24.203691009452676" fill="#000" fill-opacity="0.3" r="3.0353780545632634"/><circle cx="1.5262134883713987" cy="-24.953369960546677" fill="#000" fill-opacity="0.3" r="4.368577667808379"/><circle cx="9.162530668107452" cy="-23.260439199550607" fill="#000" fill-opacity="0.3" r="0.05047699159296394"/><circle cx="15.901955506944079" cy="-19.290614584693014" fill="#000" fill-opacity="0.3" r="3.5294667320538884"/><circle cx="-9.317485623690716" cy="34.77332974640647" fill="#000" fill-opacity="0.3" r="5.614225097681542"/><circle cx="-19.607005260540948" cy="30.192140446035282" fill="#000" fill-opacity="0.3" r="0.000017696469757985045"/><circle cx="-27.97725461245093" cy="22.655534077794172" fill="#000" fill-opacity="0.3" r="5.633000710212472"/><circle cx="-33.60889535389925" cy="12.901246183630839" fill="#000" fill-opacity="0.3" r="4.969684051448547"/><circle cx="-35.950663251164656" cy="1.8840944247460105" fill="#000" fill-opacity="0.3" r="0.0759161701879324"/><circle cx="-34.77332974640647" cy="-9.317485623690715" fill="#000" fill-opacity="0.3" r="6.192958775506367"/><circle cx="-30.192140446035282" cy="-19.607005260540948" fill="#000" fill-opacity="0.3" r="4.2697556065971565"/><circle cx="-22.655534077794126" cy="-27.97725461245097" fill="#000" fill-opacity="0.3" r="0.29597424236444025"/><circle cx="-12.901246183630843" cy="-33.60889535389925" fill="#000" fill-opacity="0.3" r="6.64764951250221"/><circle cx="-1.8840944247460767" cy="-35.950663251164656" fill="#000" fill-opacity="0.3" r="3.542979862030029"/><circle cx="9.317485623690713" cy="-34.77332974640647" fill="#000" fill-opacity="0.3" r="0.6512188826981342"/><circle cx="19.607005260540998" cy="-30.19214044603525" fill="#000" fill-opacity="0.3" r="6.9785325708261645"/><circle cx="27.977254612450928" cy="-22.65553407779418" fill="#000" fill-opacity="0.3" r="2.8189916351100726"/><circle cx="33.60889535389923" cy="-12.901246183630903" fill="#000" fill-opacity="0.3" r="1.1271647288003925"/><circle cx="35.950663251164656" cy="-1.884094424746015" fill="#000" fill-opacity="0.3" r="7.17211594957551"/><circle cx="34.77332974640645" cy="9.317485623690773" fill="#000" fill-opacity="0.3" r="2.127312080110575"/><circle cx="30.192140446035285" cy="19.607005260540944" fill="#000" fill-opacity="0.3" r="1.7044047375367792"/><circle cx="22.655534077794226" cy="27.97725461245089" fill="#000" fill-opacity="0.3" r="7.220506143612491"/><circle cx="12.901246183630846" cy="33.60889535389925" fill="#000" fill-opacity="0.3" r="1.4961449413627057"/><circle cx="1.8840944247459532" cy="35.95066325116466" fill="#000" fill-opacity="0.3" r="2.3594015215341164"/><circle cx="-22.62568204851663" cy="-43.46353082573288" fill="#000" fill-opacity="0.3" r="9.545186214490535"/><circle cx="-8.087332687173083" cy="-48.32799447532436" fill="#000" fill-opacity="0.3" r="1.2749197599525455"/><circle cx="7.242661145350956" cy="-48.46177730473392" fill="#000" fill-opacity="0.3" r="4.108589261986654"/><circle cx="21.863692842380587" cy="-43.85178371849925" fill="#000" fill-opacity="0.3" r="9.22095013902863"/><circle cx="34.34455395069272" cy="-34.94927200855488" fill="#000" fill-opacity="0.3" r="0.6899496969557806"/><circle cx="43.463530825732924" cy="-22.625682048516556" fill="#000" fill-opacity="0.3" r="5.08472924624256"/><circle cx="48.327994475324346" cy="-8.087332687173172" fill="#000" fill-opacity="0.3" r="8.718087658927136"/><circle cx="48.46177730473393" cy="7.242661145350867" fill="#000" fill-opacity="0.3" r="0.27421106842847465"/><circle cx="43.85178371849921" cy="21.863692842380658" fill="#000" fill-opacity="0.3" r="6.050900285392466"/><circle cx="34.949272008554814" cy="34.344553950692784" fill="#000" fill-opacity="0.3" r="8.057103362936793"/><circle cx="22.625682048516634" cy="43.46353082573288" fill="#000" fill-opacity="0.3" r="0.0446559237739005"/><circle cx="8.087332687173259" cy="48.32799447532433" fill="#000" fill-opacity="0.3" r="6.967706042257838"/><circle cx="-7.242661145350951" cy="48.46177730473392" fill="#000" fill-opacity="0.3" r="7.26494937354892"/><circle cx="-21.863692842380736" cy="43.85178371849918" fill="#000" fill-opacity="0.3" r="0.010644543432695"/><circle cx="-34.34455395069271" cy="34.94927200855488" fill="#000" fill-opacity="0.3" r="7.79776308547779"/><circle cx="-43.46353082573284" cy="22.625682048516712" fill="#000" fill-opacity="0.3" r="6.373926354309242"/><circle cx="-48.327994475324346" cy="8.087332687173177" fill="#000" fill-opacity="0.3" r="0.17356376653939623"/><circle cx="-48.46177730473391" cy="-7.2426611453510334" fill="#000" fill-opacity="0.3" r="8.507225226512967"/><circle cx="-43.85178371849921" cy="-21.863692842380654" fill="#000" fill-opacity="0.3" r="5.420366426424182"/><circle cx="-34.94927200855494" cy="-34.34455395069265" fill="#000" fill-opacity="0.3" r="0.5267704415335237"/><circle cx="60.14032773029816" cy="21.88928917284273" fill="#000" fill-opacity="0.3" r="11.685738193788582"/><circle cx="50.43268823083018" cy="39.40233442084216" fill="#000" fill-opacity="0.3" r="5.726322991075886"/><circle cx="35.78834582212786" cy="53.05840464352263" fill="#000" fill-opacity="0.3" r="1.3607927445249262"/><circle cx="17.64079077228813" cy="61.52074854005235" fill="#000" fill-opacity="0.3" r="12.185253890109427"/><circle cx="-2.233567788959986" cy="63.96101292922213" fill="#000" fill-opacity="0.3" r="4.487759073048583"/><circle cx="-21.889289172842833" cy="60.140327730298125" fill="#000" fill-opacity="0.3" r="2.2415607764288126"/><circle cx="-39.40233442084207" cy="50.43268823083025" fill="#000" fill-opacity="0.3" r="12.442269932341008"/><circle cx="-53.058404643522564" cy="35.78834582212796" fill="#000" fill-opacity="0.3" r="3.3205665330340017"/><circle cx="-61.52074854005239" cy="17.640790772288025" fill="#000" fill-opacity="0.3" r="3.2852905796382426"/><circle cx="-63.96101292922213" cy="-2.233567788960096" fill="#000" fill-opacity="0.3" r="12.446306301677307"/><circle cx="-60.14032773029816" cy="-21.889289172842723" fill="#000" fill-opacity="0.3" r="2.272338508267132"/><circle cx="-50.43268823083032" cy="-39.402334420841974" fill="#000" fill-opacity="0.3" r="4.4494233011298725"/><circle cx="-35.788345822127866" cy="-53.05840464352262" fill="#000" fill-opacity="0.3" r="12.1971984121797"/><circle cx="-17.640790772287918" cy="-61.520748540052416" fill="#000" fill-opacity="0.3" r="1.3858172700759266"/><circle cx="2.233567788959978" cy="-63.96101292922213" fill="#000" fill-opacity="0.3" r="5.6864905700269315"/><circle cx="21.889289172842613" cy="-60.1403277302982" fill="#000" fill-opacity="0.3" r="11.705103821889898"/><circle cx="39.40233442084206" cy="-50.43268823083026" fill="#000" fill-opacity="0.3" r="0.6971513762213177"/><circle cx="53.05840464352268" cy="-35.78834582212777" fill="#000" fill-opacity="0.3" r="6.946050055454737"/><circle cx="61.52074854005238" cy="-17.64079077228803" fill="#000" fill-opacity="0.3" r="10.990088050904886"/><circle cx="63.961012929222136" cy="2.2335677889598604" fill="#000" fill-opacity="0.3" r="0.23442168677722072"/><circle cx="-74.83424213341414" cy="30.997358021572502" fill="#000" fill-opacity="0.3" r="10.22751447332494"/><circle cx="-80.75030403238335" cy="6.355186753955545" fill="#000" fill-opacity="0.3" r="12.609753788281605"/><circle cx="-78.76196355221187" cy="-18.909074472328097" fill="#000" fill-opacity="0.3" r="0.020633721222002948"/><circle cx="-69.06385331268167" cy="-42.32238374199152" fill="#000" fill-opacity="0.3" r="11.667995404898512"/><circle cx="-52.60529191474507" cy="-61.59288321360234" fill="#000" fill-opacity="0.3" r="11.277031380432222"/><circle cx="-30.99735802157237" cy="-74.8342421334142" fill="#000" fill-opacity="0.3" r="0.06536887500361727"/><circle cx="-6.355186753955693" cy="-80.75030403238334" fill="#000" fill-opacity="0.3" r="12.950863942515088"/><circle cx="18.90907447232795" cy="-78.7619635522119" fill="#000" fill-opacity="0.3" r="9.802638425264313"/><circle cx="42.322383741991636" cy="-69.0638533126816" fill="#000" fill-opacity="0.3" r="0.42559729460220197"/><circle cx="61.592883213602434" cy="-52.60529191474497" fill="#000" fill-opacity="0.3" r="14.023810174765517"/><circle cx="74.83424213341412" cy="-30.99735802157251" fill="#000" fill-opacity="0.3" r="8.246694383661868"/><circle cx="80.75030403238334" cy="-6.3551867539558415" fill="#000" fill-opacity="0.3" r="1.086630400351352"/><circle cx="78.76196355221187" cy="18.909074472328086" fill="#000" fill-opacity="0.3" r="14.843083927169651"/><circle cx="69.06385331268153" cy="42.322383741991764" fill="#000" fill-opacity="0.3" r="6.67264402224623"/><circle cx="52.605291914745074" cy="61.592883213602335" fill="#000" fill-opacity="0.3" r="2.021514079505815"/><circle cx="30.997358021572644" cy="74.83424213341408" fill="#000" fill-opacity="0.3" r="15.375278707829484"/><circle cx="6.355186753955704" cy="80.75030403238334" fill="#000" fill-opacity="0.3" r="5.144670406190722"/><circle cx="-18.90907447232822" cy="78.76196355221184" fill="#000" fill-opacity="0.3" r="3.1921277600814246"/><circle cx="-42.32238374199163" cy="69.06385331268162" fill="#000" fill-opacity="0.3" r="15.598693881791073"/><circle cx="-61.592883213602235" cy="52.605291914745195" fill="#000" fill-opacity="0.3" r="3.72507778737129"/><circle cx="42.26182617406982" cy="-90.63077870366506" fill="#000" fill-opacity="0.3" r="5.559313193731141"/><circle cx="68.19983600624961" cy="-73.13537016191727" fill="#000" fill-opacity="0.3" r="18.940399763996822"/><circle cx="87.46197071393951" cy="-48.480962024633826" fill="#000" fill-opacity="0.3" r="3.019562120283757"/><circle cx="98.1627183447664" cy="-19.08089953765445" fill="#000" fill-opacity="0.3" r="7.381018199187545"/><circle cx="99.25461516413222" cy="12.186934340514602" fill="#000" fill-opacity="0.3" r="18.441350244881075"/><circle cx="90.63077870366514" cy="42.26182617406965" fill="#000" fill-opacity="0.3" r="1.754009220333092"/><circle cx="73.13537016191715" cy="68.19983600624974" fill="#000" fill-opacity="0.3" r="9.290428580253328"/><circle cx="48.480962024633676" cy="87.46197071393959" fill="#000" fill-opacity="0.3" r="17.57901289942095"/><circle cx="19.08089953765463" cy="98.16271834476636" fill="#000" fill-opacity="0.3" r="0.8056071399728517"/><circle cx="-12.18693434051442" cy="99.25461516413225" fill="#000" fill-opacity="0.3" r="11.209686719450238"/><circle cx="-42.2618261740698" cy="90.63077870366506" fill="#000" fill-opacity="0.3" r="16.388550169303286"/><circle cx="-68.19983600624987" cy="73.13537016191704" fill="#000" fill-opacity="0.3" r="0.2130276739738031"/><circle cx="-87.46197071393951" cy="48.48096202463384" fill="#000" fill-opacity="0.3" r="13.060533449693844"/><circle cx="-98.16271834476633" cy="19.080899537654812" fill="#000" fill-opacity="0.3" r="14.918504050938317"/><circle cx="-99.25461516413222" cy="-12.18693434051459" fill="#000" fill-opacity="0.3" r="0.0004336873996440666"/><circle cx="-90.63077870366499" cy="-42.26182617406996" fill="#000" fill-opacity="0.3" r="14.76749912958906"/><circle cx="-73.13537016191715" cy="-68.19983600624973" fill="#000" fill-opacity="0.3" r="13.228816759732595"/><circle cx="-48.480962024634" cy="-87.46197071393942" fill="#000" fill-opacity="0.3" r="0.1764938569524112"/><circle cx="-19.080899537654645" cy="-98.16271834476636" fill="#000" fill-opacity="0.3" r="16.26098097375681"/><circle cx="12.18693434051476" cy="-99.2546151641322" fill="#000" fill-opacity="0.3" r="11.388386542014521"/><circle cx="36.38540174001703" cy="115.39975104053546" fill="#000" fill-opacity="0.3" r="0.8797503292798211"/><circle cx="-1.0559107953034843" cy="120.99539269076473" fill="#000" fill-opacity="0.3" r="20.95026624204275"/><circle cx="-38.39386342501617" cy="114.74716227995012" fill="#000" fill-opacity="0.3" r="11.352712351240077"/><circle cx="-71.97355719691214" cy="97.26668013468341" fill="#000" fill-opacity="0.3" r="1.9779282238277864"/><circle cx="-98.50797772111464" cy="70.2650576410237" fill="#000" fill-opacity="0.3" r="22.022954221919182"/><circle cx="-115.39975104053552" cy="36.385401740016825" fill="#000" fill-opacity="0.3" r="9.059106636993222"/><circle cx="-120.99539269076473" cy="-1.055910795303262" fill="#000" fill-opacity="0.3" r="3.4612864844877382"/><circle cx="-114.74716227995019" cy="-38.39386342501596" fill="#000" fill-opacity="0.3" r="22.663471839124316"/><circle cx="-97.2666801346833" cy="-71.97355719691231" fill="#000" fill-opacity="0.3" r="6.86194101298119"/><circle cx="-70.26505764102352" cy="-98.50797772111474" fill="#000" fill-opacity="0.3" r="5.269340083427441"/><circle cx="-36.38540174001704" cy="-115.39975104053546" fill="#000" fill-opacity="0.3" r="22.845701515099215"/><circle cx="1.0559107953030396" cy="-120.99539269076473" fill="#000" fill-opacity="0.3" r="4.850806529085379"/><circle cx="38.39386342501616" cy="-114.74716227995012" fill="#000" fill-opacity="0.3" r="7.328364300763079"/><circle cx="71.97355719691247" cy="-97.26668013468317" fill="#000" fill-opacity="0.3" r="22.56221270031597"/><circle cx="98.50797772111463" cy="-70.26505764102372" fill="#000" fill-opacity="0.3" r="3.1077086781516323"/><circle cx="115.39975104053539" cy="-36.38540174001725" fill="#000" fill-opacity="0.3" r="9.554400904423392"/><circle cx="120.99539269076473" cy="1.0559107953032472" fill="#000" fill-opacity="0.3" r="21.824564860419095"/><circle cx="114.74716227995005" cy="38.39386342501635" fill="#000" fill-opacity="0.3" r="1.703723561499917"/><circle cx="97.26668013468354" cy="71.97355719691194" fill="#000" fill-opacity="0.3" r="11.856681609026223"/><circle cx="70.26505764102389" cy="98.5079777211145" fill="#000" fill-opacity="0.3" r="20.662836130482212"/><circle cx="-124.70765814495928" cy="-71.99999999999979" fill="#000" fill-opacity="0.3" r="0.8212392875231675"/><circle cx="-96.35480731567557" cy="-107.01285486874477" fill="#000" fill-opacity="0.3" r="16.683551210074647"/><circle cx="-58.570076602915464" cy="-131.55054590053442" fill="#000" fill-opacity="0.3" r="22.56243733287603"/><circle cx="-15.052098710542605" cy="-143.21115293303131" fill="#000" fill-opacity="0.3" r="0.14856134707293372"/><circle cx="29.939283477757098" cy="-140.85325450566808" fill="#000" fill-opacity="0.3" r="19.248207102481686"/><circle cx="72" cy="-124.70765814495915" fill="#000" fill-opacity="0.3" r="20.37700456522253"/><circle cx="107.0128548687446" cy="-96.35480731567577" fill="#000" fill-opacity="0.3" r="0.019401309514753093"/><circle cx="131.5505459005343" cy="-58.570076602915705" fill="#000" fill-opacity="0.3" r="21.577578746105733"/><circle cx="143.21115293303134" cy="-15.05209871054236" fill="#000" fill-opacity="0.3" r="17.910259999162385"/><circle cx="140.85325450566802" cy="29.939283477757336" fill="#000" fill-opacity="0.3" r="0.43902577070301063"/><circle cx="124.7076581449593" cy="71.99999999999977" fill="#000" fill-opacity="0.3" r="23.57668429304571"/><circle cx="96.35480731567597" cy="107.01285486874443" fill="#000" fill-opacity="0.3" r="15.26278696489489"/><circle cx="58.57007660291548" cy="131.55054590053442" fill="#000" fill-opacity="0.3" r="1.390324233539811"/><circle cx="15.052098710542113" cy="143.21115293303134" fill="#000" fill-opacity="0.3" r="25.16400873923755"/><circle cx="-29.93928347775758" cy="140.85325450566796" fill="#000" fill-opacity="0.3" r="12.54253812929043"/><circle cx="-71.99999999999955" cy="124.70765814495942" fill="#000" fill-opacity="0.3" r="2.8345068011218335"/><circle cx="-107.01285486874458" cy="96.3548073156758" fill="#000" fill-opacity="0.3" r="26.274827758903253"/><circle cx="-131.55054590053453" cy="58.57007660291524" fill="#000" fill-opacity="0.3" r="9.860433646229113"/><circle cx="-143.2111529330313" cy="15.052098710542886" fill="#000" fill-opacity="0.3" r="4.71268586341445"/><circle cx="-140.85325450566813" cy="-29.93928347775682" fill="#000" fill-opacity="0.3" r="26.86384688670531"/><circle cx="164.99402520326862" cy="-36.578294755539986" fill="#000" fill-opacity="0.3" r="8.529141719296874"/><circle cx="168.22195752405324" cy="16.19793217591754" fill="#000" fill-opacity="0.3" r="8.089564522267723"/><circle cx="154.9831525710862" cy="67.38859264836604" fill="#000" fill-opacity="0.3" r="31.326657750794144"/><circle cx="126.57351681334197" cy="111.98278814845894" fill="#000" fill-opacity="0.3" r="5.870291098873291"/><circle cx="85.77398334035954" cy="145.6153281146175" fill="#000" fill-opacity="0.3" r="11.002350368610132"/><circle cx="36.5782947555397" cy="164.99402520326868" fill="#000" fill-opacity="0.3" r="30.7394337447967"/><circle cx="-16.197932175917828" cy="168.22195752405324" fill="#000" fill-opacity="0.3" r="3.611921006537414"/><circle cx="-67.38859264836576" cy="154.98315257108635" fill="#000" fill-opacity="0.3" r="14.106353238735315"/><circle cx="-111.98278814845916" cy="126.57351681334178" fill="#000" fill-opacity="0.3" r="29.538632621473962"/><circle cx="-145.61532811461768" cy="85.7739833403593" fill="#000" fill-opacity="0.3" r="1.846118149535684"/><circle cx="-164.99402520326848" cy="36.57829475554059" fill="#000" fill-opacity="0.3" r="17.27500512478165"/><circle cx="-168.2219575240533" cy="-16.19793217591692" fill="#000" fill-opacity="0.3" r="27.77321793284952"/><circle cx="-154.98315257108624" cy="-67.38859264836603" fill="#000" fill-opacity="0.3" r="0.6448844425673345"/><circle cx="-126.57351681334157" cy="-111.98278814845938" fill="#000" fill-opacity="0.3" r="20.379101907556"/><circle cx="-85.77398334035905" cy="-145.61532811461782" fill="#000" fill-opacity="0.3" r="25.51517576577054"/><circle cx="-36.57829475554031" cy="-164.99402520326854" fill="#000" fill-opacity="0.3" r="0.05720107657336932"/><circle cx="16.19793217591721" cy="-168.2219575240533" fill="#000" fill-opacity="0.3" r="23.29207174984264"/><circle cx="67.38859264836628" cy="-154.9831525710861" fill="#000" fill-opacity="0.3" r="22.856579456087523"/><circle cx="111.9827881484587" cy="-126.5735168133422" fill="#000" fill-opacity="0.3" r="0.10703127452665255"/><circle cx="145.61532811461737" cy="-85.77398334035983" fill="#000" fill-opacity="0.3" r="25.89513615648053"/><circle cx="-112.42098152480528" cy="160.5538006806422" fill="#000" fill-opacity="0.3" r="22.91560371597518"/><circle cx="-156.53255996926978" cy="117.95574453780094" fill="#000" fill-opacity="0.3" r="0.9121457078735492"/><circle cx="-185.32164081746643" cy="63.81135827360177" fill="#000" fill-opacity="0.3" r="32.32818357215222"/><circle cx="-195.9701482506527" cy="3.42067166170762" fill="#000" fill-opacity="0.3" r="19.320896282252452"/><circle cx="-187.43573216875487" cy="-57.30485412565668" fill="#000" fill-opacity="0.3" r="2.4004744562523688"/><circle cx="-160.553800680642" cy="-112.42098152480557" fill="#000" fill-opacity="0.3" r="34.26426368455898"/><circle cx="-117.95574453780179" cy="-156.53255996926913" fill="#000" fill-opacity="0.3" r="15.674955934828674"/><circle cx="-63.81135827360277" cy="-185.3216408174661" fill="#000" fill-opacity="0.3" r="4.527512978564964"/><circle cx="-3.420671661707283" cy="-195.9701482506527" fill="#000" fill-opacity="0.3" r="35.53978404887107"/><circle cx="57.304854125657" cy="-187.43573216875478" fill="#000" fill-opacity="0.3" r="12.12644858216173"/><circle cx="112.42098152480582" cy="-160.5538006806418" fill="#000" fill-opacity="0.3" r="7.206529709256065"/><circle cx="156.53255996926936" cy="-117.95574453780152" fill="#000" fill-opacity="0.3" r="36.10273438086893"/><circle cx="185.32164081746618" cy="-63.811358273602444" fill="#000" fill-opacity="0.3" r="8.820067230440396"/><circle cx="195.9701482506527" cy="-3.4206716617069475" fill="#000" fill-opacity="0.3" r="10.328285763953977"/><circle cx="187.43573216875507" cy="57.30485412565599" fill="#000" fill-opacity="0.3" r="35.930159965294465"/><circle cx="160.55380068064244" cy="112.42098152480496" fill="#000" fill-opacity="0.3" r="5.890632019470078"/><circle cx="117.95574453780124" cy="156.53255996926956" fill="#000" fill-opacity="0.3" r="13.765489235597329"/><circle cx="63.811358273602124" cy="185.3216408174663" fill="#000" fill-opacity="0.3" r="35.029097651306095"/><circle cx="3.4206716617066113" cy="195.9701482506527" fill="#000" fill-opacity="0.3" r="3.45759283197174"/><circle cx="-57.304854125656306" cy="187.43573216875498" fill="#000" fill-opacity="0.3" r="17.37798561589103"/><circle cx="-29.36839324951169" cy="-223.07509380910733" fill="#000" fill-opacity="0.3" r="38.11958761311257"/><circle cx="41.002993235733484" cy="-221.2323542018897" fill="#000" fill-opacity="0.3" r="1.8470883308183699"/><circle cx="107.36072105841252" cy="-197.73385034894187" fill="#000" fill-opacity="0.3" r="23.962453293160806"/><circle cx="163.2092334777644" cy="-154.879779531095" fill="#000" fill-opacity="0.3" r="35.589088153789554"/><circle cx="203.0816889787186" cy="-96.8649967818665" fill="#000" fill-opacity="0.3" r="0.5167375417326936"/><circle cx="223.0750938091074" cy="-29.36839324951131" fill="#000" fill-opacity="0.3" r="27.975525852086058"/><circle cx="221.23235420188993" cy="41.0029932357323" fill="#000" fill-opacity="0.3" r="32.447179842923816"/><circle cx="197.73385034894247" cy="107.36072105841146" fill="#000" fill-opacity="0.3" r="0.005078881549298628"/><circle cx="154.87977953109473" cy="163.20923347776466" fill="#000" fill-opacity="0.3" r="31.68763818131266"/><circle cx="96.86499678186614" cy="203.08168897871877" fill="#000" fill-opacity="0.3" r="28.821976310694815"/><circle cx="29.368393249510923" cy="223.07509380910744" fill="#000" fill-opacity="0.3" r="0.3329756097539813"/><circle cx="-41.002993235732674" cy="221.23235420188988" fill="#000" fill-opacity="0.3" r="34.947426160988215"/><circle cx="-107.3607210584118" cy="197.73385034894227" fill="#000" fill-opacity="0.3" r="24.861297906616596"/><circle cx="-163.2092334777649" cy="154.87977953109444" fill="#000" fill-opacity="0.3" r="1.4870574952581577"/><circle cx="-203.08168897871823" cy="96.86499678186725" fill="#000" fill-opacity="0.3" r="37.6219695304395"/><circle cx="-223.07509380910727" cy="29.368393249512128" fill="#000" fill-opacity="0.3" r="20.726644215691387"/><circle cx="-221.23235420188982" cy="-41.00299323573306" fill="#000" fill-opacity="0.3" r="3.4202659974401466"/><circle cx="-197.7338503489421" cy="-107.36072105841212" fill="#000" fill-opacity="0.3" r="39.60221180989982"/><circle cx="-154.87977953109416" cy="-163.20923347776517" fill="#000" fill-opacity="0.3" r="16.58660879364054"/><circle cx="-96.86499678186689" cy="-203.0816889787184" fill="#000" fill-opacity="0.3" r="6.053773112869105"/><circle cx="196.10737743845874" cy="164.55362807975362" fill="#000" fill-opacity="0.3" r="46.13107509697761"/><circle cx="135.65933164370057" cy="217.100312616045" fill="#000" fill-opacity="0.3" r="14.255085327189864"/><circle cx="61.932005273514626" cy="248.39570592665518" fill="#000" fill-opacity="0.3" r="10.490874868902477"/><circle cx="-17.85765727849503" cy="255.37639686651508" fill="#000" fill-opacity="0.3" r="46.56178616802198"/><circle cx="-95.89928791447292" cy="237.3590667690978" fill="#000" fill-opacity="0.3" r="10.127754772386373"/><circle cx="-164.55362807975396" cy="196.10737743845846" fill="#000" fill-opacity="0.3" r="14.659754600464654"/><circle cx="-217.10031261604425" cy="135.65933164370176" fill="#000" fill-opacity="0.3" r="46.043222575056774"/><circle cx="-248.39570592665484" cy="61.93200527351597" fill="#000" fill-opacity="0.3" r="6.536774072921899"/><circle cx="-255.37639686651505" cy="-17.85765727849547" fill="#000" fill-opacity="0.3" r="19.180188549651074"/><circle cx="-237.35906676909764" cy="-95.89928791447333" fill="#000" fill-opacity="0.3" r="44.59652913129755"/><circle cx="-196.10737743845817" cy="-164.5536280797543" fill="#000" fill-opacity="0.3" r="3.628568117045823"/><circle cx="-135.6593316437014" cy="-217.10031261604448" fill="#000" fill-opacity="0.3" r="23.867852685994666"/><circle cx="-61.93200527351554" cy="-248.39570592665495" fill="#000" fill-opacity="0.3" r="42.280695829608156"/><circle cx="17.857657278495907" cy="-255.37639686651502" fill="#000" fill-opacity="0.3" r="1.5217211489381997"/><circle cx="95.89928791447205" cy="-237.35906676909815" fill="#000" fill-opacity="0.3" r="28.53160404472714"/><circle cx="164.55362807975322" cy="-196.10737743845908" fill="#000" fill-opacity="0.3" r="39.19015248200565"/><circle cx="217.1003126160447" cy="-135.659331643701" fill="#000" fill-opacity="0.3" r="0.30214140862551775"/><circle cx="248.39570592665504" cy="-61.93200527351512" fill="#000" fill-opacity="0.3" r="32.981274722235476"/><circle cx="255.376396866515" cy="17.857657278496344" fill="#000" fill-opacity="0.3" r="35.45091827438385"/><circle cx="237.35906676909798" cy="95.89928791447247" fill="#000" fill-opacity="0.3" r="0.01955816009821328"/><circle cx="-288.72493603715685" cy="12.606002948583317" fill="#000" fill-opacity="0.3" r="41.55682212366344"/><circle cx="-278.4892009772922" cy="-77.23189068661556" fill="#000" fill-opacity="0.3" r="35.026340711609166"/><circle cx="-240.99300257741172" cy="-159.50978875518464" fill="#000" fill-opacity="0.3" r="0.7691811025882865"/><circle cx="-179.9067299882734" cy="-226.17375733034652" fill="#000" fill-opacity="0.3" r="45.476618338474665"/><circle cx="-101.20993318398725" cy="-270.6982626927865" fill="#000" fill-opacity="0.3" r="29.91079566201322"/><circle cx="-12.606002948582823" cy="-288.72493603715685" fill="#000" fill-opacity="0.3" r="2.5502643419457742"/><circle cx="77.23189068661407" cy="-278.4892009772926" fill="#000" fill-opacity="0.3" r="48.60728382060006"/><circle cx="159.50978875518337" cy="-240.99300257741257" fill="#000" fill-opacity="0.3" r="24.64082778731572"/><circle cx="226.17375733034686" cy="-179.90672998827304" fill="#000" fill-opacity="0.3" r="5.292570613507687"/><circle cx="270.6982626927866" cy="-101.20993318398678" fill="#000" fill-opacity="0.3" r="50.82116337449951"/><circle cx="288.72493603715685" cy="-12.60600294858233" fill="#000" fill-opacity="0.3" r="19.431323916967617"/><circle cx="278.4892009772925" cy="77.23189068661453" fill="#000" fill-opacity="0.3" r="8.884280355163096"/><circle cx="240.99300257741228" cy="159.5097887551838" fill="#000" fill-opacity="0.3" r="52.02798442746642"/><circle cx="179.90672998827262" cy="226.17375733034714" fill="#000" fill-opacity="0.3" r="14.494705416027372"/><circle cx="101.20993318398824" cy="270.6982626927861" fill="#000" fill-opacity="0.3" r="13.17893895142782"/><circle cx="12.606002948583885" cy="288.7249360371568" fill="#000" fill-opacity="0.3" r="52.17853796040309"/><circle cx="-77.231890686615" cy="278.4892009772924" fill="#000" fill-opacity="0.3" r="10.032266547211046"/><circle cx="-159.50978875518416" cy="240.99300257741203" fill="#000" fill-opacity="0.3" r="18.001428528477813"/><circle cx="-226.17375733034746" cy="179.90672998827225" fill="#000" fill-opacity="0.3" r="51.26668504189188"/><circle cx="-270.6982626927863" cy="101.20993318398777" fill="#000" fill-opacity="0.3" r="6.225966548781857"/><circle cx="229.10259710444" cy="-229.1025971044428" fill="#000" fill-opacity="0.3" r="25.811404074699528"/><circle cx="288.6861138370306" cy="-147.09292191561443" fill="#000" fill-opacity="0.3" r="54.98857507517386"/><circle cx="320.0110223528245" cy="-50.68476667303563" fill="#000" fill-opacity="0.3" r="3.6016634310095204"/><circle cx="320.011022352825" cy="50.684766673032264" fill="#000" fill-opacity="0.3" r="31.691232526694233"/><circle cx="288.6861138370321" cy="147.09292191561138" fill="#000" fill-opacity="0.3" r="51.77449113261765"/><circle cx="229.10259710444242" cy="229.10259710444038" fill="#000" fill-opacity="0.3" r="1.303683039084376"/><circle cx="147.09292191561596" cy="288.6861138370298" fill="#000" fill-opacity="0.3" r="37.466237949835275"/><circle cx="50.68476667303736" cy="320.0110223528242" fill="#000" fill-opacity="0.3" r="47.636674469623294"/><circle cx="-50.68476667303281" cy="320.0110223528249" fill="#000" fill-opacity="0.3" r="0.13995437540531525"/><circle cx="-147.09292191561187" cy="288.6861138370318" fill="#000" fill-opacity="0.3" r="42.90094023590115"/><circle cx="-229.1025971044408" cy="229.10259710444203" fill="#000" fill-opacity="0.3" r="42.743847614432624"/><circle cx="-288.68611383703" cy="147.09292191561548" fill="#000" fill-opacity="0.3" r="0.15792933509359647"/><circle cx="-320.01102235282434" cy="50.684766673036805" fill="#000" fill-opacity="0.3" r="47.77373538823651"/><circle cx="-320.01102235282485" cy="-50.684766673033366" fill="#000" fill-opacity="0.3" r="37.295519193086776"/><circle cx="-288.6861138370326" cy="-147.09292191561033" fill="#000" fill-opacity="0.3" r="1.356874975901979"/><circle cx="-229.10259710444325" cy="-229.10259710443955" fill="#000" fill-opacity="0.3" r="51.88593158826485"/><circle cx="-147.092921915615" cy="-288.6861138370303" fill="#000" fill-opacity="0.3" r="31.51384881796966"/><circle cx="-50.68476667303626" cy="-320.0110223528244" fill="#000" fill-opacity="0.3" r="3.687903404475778"/><circle cx="50.68476667303391" cy="-320.0110223528248" fill="#000" fill-opacity="0.3" r="55.06985100103031"/><circle cx="147.09292191561082" cy="-288.6861138370324" fill="#000" fill-opacity="0.3" r="25.634588365635558"/><circle cx="-15.746598838885959" cy="360.6564079910507" fill="#000" fill-opacity="0.3" r="7.819347486416213"/><circle cx="-126.42486463466803" cy="338.13866031867144" fill="#000" fill-opacity="0.3" r="63.38364504210505"/><circle cx="-224.72778382617938" cy="282.52154462372243" fill="#000" fill-opacity="0.3" r="22.05016884281097"/><circle cx="-301.0327817662472" cy="199.24925169765385" fill="#000" fill-opacity="0.3" r="12.54883485198338"/><circle cx="-347.8705936083128" cy="96.47305376425108" fill="#000" fill-opacity="0.3" r="64.47081319725795"/><circle cx="-360.6564079910506" cy="-15.746598838886577" fill="#000" fill-opacity="0.3" r="16.109116621723118"/><circle cx="-338.1386603186712" cy="-126.42486463466861" fill="#000" fill-opacity="0.3" r="18.082510070308498"/><circle cx="-282.5215446237221" cy="-224.7277838261799" fill="#000" fill-opacity="0.3" r="64.24501221847368"/><circle cx="-199.2492516976533" cy="-301.0327817662475" fill="#000" fill-opacity="0.3" r="10.827079136660888"/><circle cx="-96.47305376425048" cy="-347.87059360831296" fill="#000" fill-opacity="0.3" r="24.194733450381346"/><circle cx="15.746598838884633" cy="-360.6564079910507" fill="#000" fill-opacity="0.3" r="62.71544930730871"/><circle cx="126.42486463466678" cy="-338.1386603186719" fill="#000" fill-opacity="0.3" r="6.41943536434842"/><circle cx="224.72778382618037" cy="-282.52154462372164" fill="#000" fill-opacity="0.3" r="30.636274572911564"/><circle cx="301.03278176624787" cy="-199.2492516976528" fill="#000" fill-opacity="0.3" r="59.94449352031814"/><circle cx="347.87059360831313" cy="-96.47305376424988" fill="#000" fill-opacity="0.3" r="3.0659102325488736"/><circle cx="360.6564079910507" cy="15.746598838885252" fill="#000" fill-opacity="0.3" r="37.144474844615694"/><circle cx="338.13866031867167" cy="126.42486463466736" fill="#000" fill-opacity="0.3" r="56.04513262475163"/><circle cx="282.52154462372124" cy="224.72778382618085" fill="#000" fill-opacity="0.3" r="0.9032462034935873"/><circle cx="199.24925169765444" cy="301.0327817662468" fill="#000" fill-opacity="0.3" r="43.453957596206656"/><circle cx="96.47305376425176" cy="347.8705936083126" fill="#000" fill-opacity="0.3" r="51.17636593894683"/><circle cx="-257.1150438746166" cy="-306.41777724759044" fill="#000" fill-opacity="0.3" r="0.021636654754190958"/><circle cx="-149.84263736636524" cy="-370.8735418267148" fill="#000" fill-opacity="0.3" r="54.354772736354185"/><circle cx="-27.902589497652684" cy="-399.0256201039295" fill="#000" fill-opacity="0.3" r="50.198056717173756"/><circle cx="96.76875823986528" cy="-388.11829051039905" fill="#000" fill-opacity="0.3" r="0.4972592663191069"/><circle cx="211.96770569328098" cy="-339.219238462571" fill="#000" fill-opacity="0.3" r="60.04167147356524"/><circle cx="306.4177772475909" cy="-257.1150438746161" fill="#000" fill-opacity="0.3" r="43.38482514027208"/><circle cx="370.87354182671504" cy="-149.84263736636458" fill="#000" fill-opacity="0.3" r="2.40318036290525"/><circle cx="399.02562010392955" cy="-27.902589497652002" fill="#000" fill-opacity="0.3" r="64.73090134283842"/><circle cx="388.1182905103989" cy="96.76875823986593" fill="#000" fill-opacity="0.3" r="36.253119897825805"/><circle cx="339.2192384625707" cy="211.96770569328157" fill="#000" fill-opacity="0.3" r="5.661684605183573"/><circle cx="257.11504387461775" cy="306.4177772475896" fill="#000" fill-opacity="0.3" r="68.2312555354897"/><circle cx="149.84263736636657" cy="370.87354182671424" fill="#000" fill-opacity="0.3" r="29.09374153446573"/><circle cx="27.90258949765132" cy="399.0256201039296" fill="#000" fill-opacity="0.3" r="10.139904077820665"/><circle cx="-96.7687582398666" cy="388.1182905103987" fill="#000" fill-opacity="0.3" r="70.40000452596894"/><circle cx="-211.96770569328214" cy="339.2192384625703" fill="#000" fill-opacity="0.3" r="22.198618986751296"/><circle cx="-306.41777724759" cy="257.1150438746172" fill="#000" fill-opacity="0.3" r="15.655236076786052"/><circle cx="-370.8735418267145" cy="149.84263736636595" fill="#000" fill-opacity="0.3" r="71.14871597359799"/><circle cx="-399.02562010392967" cy="27.902589497650638" fill="#000" fill-opacity="0.3" r="15.848905965331847"/><circle cx="-388.1182905103992" cy="-96.76875823986451" fill="#000" fill-opacity="0.3" r="21.982788869374243"/><circle cx="-339.2192384625714" cy="-211.96770569328032" fill="#000" fill-opacity="0.3" r="70.44686061653434"/></g></svg>