<?xml version="1.0" standalone="no"?><!DOCTYPE svg PUBLIC "-//W3C//DTD SVG 1.1//EN" "http://www.w3.org/Graphics/SVG/1.1/DTD/svg11.dtd"><svg width="500" height="500" style="background: rgb(255, 255, 255);" version="1.1" xmlns="http://www.w3.org/2000/svg" xmlns:xlink="http://www.w3.org/1999/xlink"><defs xmlns="http://www.w3.org/1999/xhtml"><style type="text/css"><![CDATA[
html, body { height: 100%; margin: 0px; background: rgb(34, 34, 34); }
body, #prev, #next { height: 100%; box-sizing: border-box; display: -webkit-flex; flex-direction: column; justify-content: center; }
#prev, #next { position: absolute; top: 0px; color: rgb(209, 209, 209); font-size: 70px; text-decoration: none; padding: 20px; }
#prev { left: 0px; }
#next { right: 0px; }
svg { margin: auto; }
.fa { display: inline-block; font-style: normal; font-variant: normal; font-weight: normal; font-stretch: normal; line-height: 1; font-family: FontAwesome; font-size: inherit; text-rendering: auto; -webkit-font-smoothing: antialiased; }
.fa-twitter::before { content: ''; }
.fa-github::before { content: ''; }
.fa-th::before { content: ''; }
footer { text-align: center; margin-bottom: 25px; }
a { color: rgb(209, 209, 209); text-decoration: none; padding: 10px; }]]></style></defs><clipPath id="clip"><rect x="0" y="0" width="50" height="50"/></clipPath><g clip-path="url(#clip)" transform="translate(0,0)skewX(-19.979448925101504)skewY(0.9064329259577488)"><rect x="0" y="0" width="50" height="25" fill-opacity="0.9" fill="#d1d1d1"/><rect x="0" y="25" width="50" height="25" fill-opacity="0.9" fill="#111"/></g><g clip-path="url(#clip)" transform="translate(50,0)skewX(-11.55767933107504)skewY(-16.322378762914454)"><rect x="0" y="0" width="50" height="25" fill-opacity="0.9" fill="#d1d1d1"/><rect x="0" y="25" width="50" height="25" fill-opacity="0.9" fill="#111"/></g><g clip-path="url(#clip)" transform="translate(100,0)skewX(7.490167338972741)skewY(-18.544470691669417)"><rect x="0" y="0" width="50" height="25" fill-opacity="0.9" fill="#d1d1d1"/><rect x="0" y="25" width="50" height="25" fill-opacity="0.9" fill="#111"/></g><g clip-path="url(#clip)" transform="translate(150,0)skewX(19.65158870024544)skewY(-3.716861788711788)"><rect x="0" y="0" width="50" height="25" fill-opacity="0.9" fill="#d1d1d1"/><rect x="0" y="25" width="50" height="25" fill-opacity="0.9" fill="#111"/></g><g clip-path="url(#clip)" transform="translate(200,0)skewX(13.745430038457037)skewY(14.528012701601103)"><rect x="0" y="0" width="50" height="25" fill-opacity="0.9" fill="#d1d1d1"/><rect x="0" y="25" width="50" height="25" fill-opacity="0.9" fill="#111"/></g><g clip-path="url(#clip)" transform="translate(250,0)skewX(-4.798213610390379)skewY(19.415899313425186)"><rect x="0" y="0" width="50" height="25" fill-opacity="0.9" fill="#d1d1d1"/><rect x="0" y="25" width="50" height="25" fill-opacity="0.9" fill="#111"/></g><g clip-path="url(#clip)" transform="translate(300,0)skewX(-18.930401793940664)skewY(6.452897637493412)"><rect x="0" y="0" width="50" height="25" fill-opacity="0.9" fill="#d1d1d1"/><rect x="0" y="25" width="50" height="25" fill-opacity="0.9" fill="#111"/></g><g clip-path="url(#clip)" transform="translate(350,0)skewX(-15.658065870162641)skewY(-12.44286836728766)"><rect x="0" y="0" width="50" height="25" fill-opacity="0.9" fill="#d1d1d1"/><rect x="0" y="25" width="50" height="25" fill-opacity="0.9" fill="#111"/></g><g clip-path="url(#clip)" transform="translate(400,0)skewX(2.010223603772476)skewY(-19.898718578411927)"><rect x="0" y="0" width="50" height="25" fill-opacity="0.9" fill="#d1d1d1"/><rect x="0" y="25" width="50" height="25" fill-opacity="0.9" fill="#111"/></g><g clip-path="url(#clip)" transform="translate(450,0)skewX(17.830322767020302)skewY(-9.059778696186651)"><rect x="0" y="0" width="50" height="25" fill-opacity="0.9" fill="#d1d1d1"/><rect x="0" y="25" width="50" height="25" fill-opacity="0.9" fill="#111"/></g><g clip-path="url(#clip)" transform="translate(0,50)skewX(-11.55767933107504)skewY(-16.322378762914454)"><rect x="0" y="0" width="50" height="25" fill-opacity="0.9" fill="#d1d1d1"/><rect x="0" y="25" width="50" height="25" fill-opacity="0.9" fill="#111"/></g><g clip-path="url(#clip)" transform="translate(50,50)skewX(7.490167338972741)skewY(-18.544470691669417)"><rect x="0" y="0" width="50" height="25" fill-opacity="0.9" fill="#d1d1d1"/><rect x="0" y="25" width="50" height="25" fill-opacity="0.9" fill="#111"/></g><g clip-path="url(#clip)" transform="translate(100,50)skewX(19.65158870024544)skewY(-3.716861788711788)"><rect x="0" y="0" width="50" height="25" fill-opacity="0.9" fill="#d1d1d1"/><rect x="0" y="25" width="50" height="25" fill-opacity="0.9" fill="#111"/></g><g clip-path="url(#clip)" transform="translate(150,50)skewX(13.745430038457037)skewY(14.528012701601103)"><rect x="0" y="0" width="50" height="25" fill-opacity="0.9" fill="#d1d1d1"/><rect x="0" y="25" width="50" height="25" fill-opacity="0.9" fill="#111"/></g><g clip-path="url(#clip)" transform="translate(200,50)skewX(-4.798213610390379)skewY(19.415899313425186)"><rect x="0" y="0" width="50" height="25" fill-opacity="0.9" fill="#d1d1d1"/><rect x="0" y="25" width="50" height="25" fill-opacity="0.9" fill="#111"/></g><g clip-path="url(#clip)" transform="translate(250,50)skewX(-18.930401793940664)skewY(6.452897637493412)"><rect x="0" y="0" width="50" height="25" fill-opacity="0.9" fill="#d1d1d1"/><rect x="0" y="25" width="50" height="25" fill-opacity="0.9" fill="#111"/></g><g clip-path="url(#clip)" transform="translate(300,50)skewX(-15.658065870162641)skewY(-12.44286836728766)"><rect x="0" y="0" width="50" height="25" fill-opacity="0.9" fill="#d1d1d1"/><rect x="0" y="25" width="50" height="25" fill-opacity="0.9" fill="#111"/></g><g clip-path="url(#clip)" transform="translate(350,50)skewX(2.010223603772476)skewY(-19.898718578411927)"><rect x="0" y="0" width="50" height="25" fill-opacity="0.9" fill="#d1d1d1"/><rect x="0" y="25" width="50" height="25" fill-opacity="0.9" fill="#111"/></g><g clip-path="url(#clip)" transform="translate(400,50)skewX(17.830322767020302)skewY(-9.059778696186651)"><rect x="0" y="0" width="50" height="25" fill-opacity="0.9" fill="#d1d1d1"/><rect x="0" y="25" width="50" height="25" fill-opacity="0.9" fill="#111"/></g><g clip-path="url(#clip)" transform="translate(450,50)skewX(17.25730540701604)skewY(10.108679938002537)"><rect x="0" y="0" width="50" height="25" fill-opacity="0.9" fill="#d1d1d1"/><rect x="0" y="25" width="50" height="25" fill-opacity="0.9" fill="#111"/></g><g clip-path="url(#clip)" transform="translate(0,100)skewX(7.490167338972741)skewY(-18.544470691669417)"><rect x="0" y="0" width="50" height="25" fill-opacity="0.9" fill="#d1d1d1"/><rect x="0" y="25" width="50" height="25" fill-opacity="0.9" fill="#111"/></g><g clip-path="url(#clip)" transform="translate(50,100)skewX(19.65158870024544)skewY(-3.716861788711788)"><rect x="0" y="0" width="50" height="25" fill-opacity="0.9" fill="#d1d1d1"/><rect x="0" y="25" width="50" height="25" fill-opacity="0.9" fill="#111"/></g><g clip-path="url(#clip)" transform="translate(100,100)skewX(13.745430038457037)skewY(14.528012701601103)"><rect x="0" y="0" width="50" height="25" fill-opacity="0.9" fill="#d1d1d1"/><rect x="0" y="25" width="50" height="25" fill-opacity="0.9" fill="#111"/></g><g clip-path="url(#clip)" transform="translate(150,100)skewX(-4.798213610390379)skewY(19.415899313425186)"><rect x="0" y="0" width="50" height="25" fill-opacity="0.9" fill="#d1d1d1"/><rect x="0" y="25" width="50" height="25" fill-opacity="0.9" fill="#111"/></g><g clip-path="url(#clip)" transform="translate(200,100)skewX(-18.930401793940664)skewY(6.452897637493412)"><rect x="0" y="0" width="50" height="25" fill-opacity="0.9" fill="#d1d1d1"/><rect x="0" y="25" width="50" height="25" fill-opacity="0.9" fill="#111"/></g><g clip-path="url(#clip)" transform="translate(250,100)skewX(-15.658065870162641)skewY(-12.44286836728766)"><rect x="0" y="0" width="50" height="25" fill-opacity="0.9" fill="#d1d1d1"/><rect x="0" y="25" width="50" height="25" fill-opacity="0.9" fill="#111"/></g><g clip-path="url(#clip)" transform="translate(300,100)skewX(2.010223603772476)skewY(-19.898718578411927)"><rect x="0" y="0" width="50" height="25" fill-opacity="0.9" fill="#d1d1d1"/><rect x="0" y="25" width="50" height="25" fill-opacity="0.9" fill="#111"/></g><g clip-path="url(#clip)" transform="translate(350,100)skewX(17.830322767020302)skewY(-9.059778696186651)"><rect x="0" y="0" width="50" height="25" fill-opacity="0.9" fill="#d1d1d1"/><rect x="0" y="25" width="50" height="25" fill-opacity="0.9" fill="#111"/></g><g clip-path="url(#clip)" transform="translate(400,100)skewX(17.25730540701604)skewY(10.108679938002537)"><rect x="0" y="0" width="50" height="25" fill-opacity="0.9" fill="#d1d1d1"/><rect x="0" y="25" width="50" height="25" fill-opacity="0.9" fill="#111"/></g><g clip-path="url(#clip)" transform="translate(450,100)skewX(0.8180010419426627)skewY(19.983264855758197)"><rect x="0" y="0" width="50" height="25" fill-opacity="0.9" fill="#d1d1d1"/><rect x="0" y="25" width="50" height="25" fill-opacity="0.9" fill="#111"/></g><g clip-path="url(#clip)" transform="translate(0,150)skewX(19.65158870024544)skewY(-3.716861788711788)"><rect x="0" y="0" width="50" height="25" fill-opacity="0.9" fill="#d1d1d1"/><rect x="0" y="25" width="50" height="25" fill-opacity="0.9" fill="#111"/></g><g clip-path="url(#clip)" transform="translate(50,150)skewX(13.745430038457037)skewY(14.528012701601103)"><rect x="0" y="0" width="50" height="25" fill-opacity="0.9" fill="#d1d1d1"/><rect x="0" y="25" width="50" height="25" fill-opacity="0.9" fill="#111"/></g><g clip-path="url(#clip)" transform="translate(100,150)skewX(-4.798213610390379)skewY(19.415899313425186)"><rect x="0" y="0" width="50" height="25" fill-opacity="0.9" fill="#d1d1d1"/><rect x="0" y="25" width="50" height="25" fill-opacity="0.9" fill="#111"/></g><g clip-path="url(#clip)" transform="translate(150,150)skewX(-18.930401793940664)skewY(6.452897637493412)"><rect x="0" y="0" width="50" height="25" fill-opacity="0.9" fill="#d1d1d1"/><rect x="0" y="25" width="50" height="25" fill-opacity="0.9" fill="#111"/></g><g clip-path="url(#clip)" transform="translate(200,150)skewX(-15.658065870162641)skewY(-12.44286836728766)"><rect x="0" y="0" width="50" height="25" fill-opacity="0.9" fill="#d1d1d1"/><rect x="0" y="25" width="50" height="25" fill-opacity="0.9" fill="#111"/></g><g clip-path="url(#clip)" transform="translate(250,150)skewX(2.010223603772476)skewY(-19.898718578411927)"><rect x="0" y="0" width="50" height="25" fill-opacity="0.9" fill="#d1d1d1"/><rect x="0" y="25" width="50" height="25" fill-opacity="0.9" fill="#111"/></g><g clip-path="url(#clip)" transform="translate(300,150)skewX(17.830322767020302)skewY(-9.059778696186651)"><rect x="0" y="0" width="50" height="25" fill-opacity="0.9" fill="#d1d1d1"/><rect x="0" y="25" width="50" height="25" fill-opacity="0.9" fill="#111"/></g><g clip-path="url(#clip)" transform="translate(350,150)skewX(17.25730540701604)skewY(10.108679938002537)"><rect x="0" y="0" width="50" height="25" fill-opacity="0.9" fill="#d1d1d1"/><rect x="0" y="25" width="50" height="25" fill-opacity="0.9" fill="#111"/></g><g clip-path="url(#clip)" transform="translate(400,150)skewX(0.8180010419426627)skewY(19.983264855758197)"><rect x="0" y="0" width="50" height="25" fill-opacity="0.9" fill="#d1d1d1"/><rect x="0" y="25" width="50" height="25" fill-opacity="0.9" fill="#111"/></g><g clip-path="url(#clip)" transform="translate(450,150)skewX(-16.37336970868772)skewY(11.48532822267729)"><rect x="0" y="0" width="50" height="25" fill-opacity="0.9" fill="#d1d1d1"/><rect x="0" y="25" width="50" height="25" fill-opacity="0.9" fill="#111"/></g><g clip-path="url(#clip)" transform="translate(0,200)skewX(13.745430038457037)skewY(14.528012701601103)"><rect x="0" y="0" width="50" height="25" fill-opacity="0.9" fill="#d1d1d1"/><rect x="0" y="25" width="50" height="25" fill-opacity="0.9" fill="#111"/></g><g clip-path="url(#clip)" transform="translate(50,200)skewX(-4.798213610390379)skewY(19.415899313425186)"><rect x="0" y="0" width="50" height="25" fill-opacity="0.9" fill="#d1d1d1"/><rect x="0" y="25" width="50" height="25" fill-opacity="0.9" fill="#111"/></g><g clip-path="url(#clip)" transform="translate(100,200)skewX(-18.930401793940664)skewY(6.452897637493412)"><rect x="0" y="0" width="50" height="25" fill-opacity="0.9" fill="#d1d1d1"/><rect x="0" y="25" width="50" height="25" fill-opacity="0.9" fill="#111"/></g><g clip-path="url(#clip)" transform="translate(150,200)skewX(-15.658065870162641)skewY(-12.44286836728766)"><rect x="0" y="0" width="50" height="25" fill-opacity="0.9" fill="#d1d1d1"/><rect x="0" y="25" width="50" height="25" fill-opacity="0.9" fill="#111"/></g><g clip-path="url(#clip)" transform="translate(200,200)skewX(2.010223603772476)skewY(-19.898718578411927)"><rect x="0" y="0" width="50" height="25" fill-opacity="0.9" fill="#d1d1d1"/><rect x="0" y="25" width="50" height="25" fill-opacity="0.9" fill="#111"/></g><g clip-path="url(#clip)" transform="translate(250,200)skewX(17.830322767020302)skewY(-9.059778696186651)"><rect x="0" y="0" width="50" height="25" fill-opacity="0.9" fill="#d1d1d1"/><rect x="0" y="25" width="50" height="25" fill-opacity="0.9" fill="#111"/></g><g clip-path="url(#clip)" transform="translate(300,200)skewX(17.25730540701604)skewY(10.108679938002537)"><rect x="0" y="0" width="50" height="25" fill-opacity="0.9" fill="#d1d1d1"/><rect x="0" y="25" width="50" height="25" fill-opacity="0.9" fill="#111"/></g><g clip-path="url(#clip)" transform="translate(350,200)skewX(0.8180010419426627)skewY(19.983264855758197)"><rect x="0" y="0" width="50" height="25" fill-opacity="0.9" fill="#d1d1d1"/><rect x="0" y="25" width="50" height="25" fill-opacity="0.9" fill="#111"/></g><g clip-path="url(#clip)" transform="translate(400,200)skewX(-16.37336970868772)skewY(11.48532822267729)"><rect x="0" y="0" width="50" height="25" fill-opacity="0.9" fill="#d1d1d1"/><rect x="0" y="25" width="50" height="25" fill-opacity="0.9" fill="#111"/></g><g clip-path="url(#clip)" transform="translate(450,200)skewX(-18.511139858813713)skewY(-7.5721662110282715)"><rect x="0" y="0" width="50" height="25" fill-opacity="0.9" fill="#d1d1d1"/><rect x="0" y="25" width="50" height="25" fill-opacity="0.9" fill="#111"/></g><g clip-path="url(#clip)" transform="translate(0,250)skewX(-4.798213610390379)skewY(19.415899313425186)"><rect x="0" y="0" width="50" height="25" fill-opacity="0.9" fill="#d1d1d1"/><rect x="0" y="25" width="50" height="25" fill-opacity="0.9" fill="#111"/></g><g clip-path="url(#clip)" transform="translate(50,250)skewX(-18.930401793940664)skewY(6.452897637493412)"><rect x="0" y="0" width="50" height="25" fill-opacity="0.9" fill="#d1d1d1"/><rect x="0" y="25" width="50" height="25" fill-opacity="0.9" fill="#111"/></g><g clip-path="url(#clip)" transform="translate(100,250)skewX(-15.658065870162641)skewY(-12.44286836728766)"><rect x="0" y="0" width="50" height="25" fill-opacity="0.9" fill="#d1d1d1"/><rect x="0" y="25" width="50" height="25" fill-opacity="0.9" fill="#111"/></g><g clip-path="url(#clip)" transform="translate(150,250)skewX(2.010223603772476)skewY(-19.898718578411927)"><rect x="0" y="0" width="50" height="25" fill-opacity="0.9" fill="#d1d1d1"/><rect x="0" y="25" width="50" height="25" fill-opacity="0.9" fill="#111"/></g><g clip-path="url(#clip)" transform="translate(200,250)skewX(17.830322767020302)skewY(-9.059778696186651)"><rect x="0" y="0" width="50" height="25" fill-opacity="0.9" fill="#d1d1d1"/><rect x="0" y="25" width="50" height="25" fill-opacity="0.9" fill="#111"/></g><g clip-path="url(#clip)" transform="translate(250,250)skewX(17.25730540701604)skewY(10.108679938002537)"><rect x="0" y="0" width="50" height="25" fill-opacity="0.9" fill="#d1d1d1"/><rect x="0" y="25" width="50" height="25" fill-opacity="0.9" fill="#111"/></g><g clip-path="url(#clip)" transform="translate(300,250)skewX(0.8180010419426627)skewY(19.983264855758197)"><rect x="0" y="0" width="50" height="25" fill-opacity="0.9" fill="#d1d1d1"/><rect x="0" y="25" width="50" height="25" fill-opacity="0.9" fill="#111"/></g><g clip-path="url(#clip)" transform="translate(350,250)skewX(-16.37336970868772)skewY(11.48532822267729)"><rect x="0" y="0" width="50" height="25" fill-opacity="0.9" fill="#d1d1d1"/><rect x="0" y="25" width="50" height="25" fill-opacity="0.9" fill="#111"/></g><g clip-path="url(#clip)" transform="translate(400,250)skewX(-18.511139858813713)skewY(-7.5721662110282715)"><rect x="0" y="0" width="50" height="25" fill-opacity="0.9" fill="#d1d1d1"/><rect x="0" y="25" width="50" height="25" fill-opacity="0.9" fill="#111"/></g><g clip-path="url(#clip)" transform="translate(450,250)skewX(-3.6298533912416406)skewY(-19.66784595114807)"><rect x="0" y="0" width="50" height="25" fill-opacity="0.9" fill="#d1d1d1"/><rect x="0" y="25" width="50" height="25" fill-opacity="0.9" fill="#111"/></g><g clip-path="url(#clip)" transform="translate(0,300)skewX(-18.930401793940664)skewY(6.452897637493412)"><rect x="0" y="0" width="50" height="25" fill-opacity="0.9" fill="#d1d1d1"/><rect x="0" y="25" width="50" height="25" fill-opacity="0.9" fill="#111"/></g><g clip-path="url(#clip)" transform="translate(50,300)skewX(-15.658065870162641)skewY(-12.44286836728766)"><rect x="0" y="0" width="50" height="25" fill-opacity="0.9" fill="#d1d1d1"/><rect x="0" y="25" width="50" height="25" fill-opacity="0.9" fill="#111"/></g><g clip-path="url(#clip)" transform="translate(100,300)skewX(2.010223603772476)skewY(-19.898718578411927)"><rect x="0" y="0" width="50" height="25" fill-opacity="0.9" fill="#d1d1d1"/><rect x="0" y="25" width="50" height="25" fill-opacity="0.9" fill="#111"/></g><g clip-path="url(#clip)" transform="translate(150,300)skewX(17.830322767020302)skewY(-9.059778696186651)"><rect x="0" y="0" width="50" height="25" fill-opacity="0.9" fill="#d1d1d1"/><rect x="0" y="25" width="50" height="25" fill-opacity="0.9" fill="#111"/></g><g clip-path="url(#clip)" transform="translate(200,300)skewX(17.25730540701604)skewY(10.108679938002537)"><rect x="0" y="0" width="50" height="25" fill-opacity="0.9" fill="#d1d1d1"/><rect x="0" y="25" width="50" height="25" fill-opacity="0.9" fill="#111"/></g><g clip-path="url(#clip)" transform="translate(250,300)skewX(0.8180010419426627)skewY(19.983264855758197)"><rect x="0" y="0" width="50" height="25" fill-opacity="0.9" fill="#d1d1d1"/><rect x="0" y="25" width="50" height="25" fill-opacity="0.9" fill="#111"/></g><g clip-path="url(#clip)" transform="translate(300,300)skewX(-16.37336970868772)skewY(11.48532822267729)"><rect x="0" y="0" width="50" height="25" fill-opacity="0.9" fill="#d1d1d1"/><rect x="0" y="25" width="50" height="25" fill-opacity="0.9" fill="#111"/></g><g clip-path="url(#clip)" transform="translate(350,300)skewX(-18.511139858813713)skewY(-7.5721662110282715)"><rect x="0" y="0" width="50" height="25" fill-opacity="0.9" fill="#d1d1d1"/><rect x="0" y="25" width="50" height="25" fill-opacity="0.9" fill="#111"/></g><g clip-path="url(#clip)" transform="translate(400,300)skewX(-3.6298533912416406)skewY(-19.66784595114807)"><rect x="0" y="0" width="50" height="25" fill-opacity="0.9" fill="#d1d1d1"/><rect x="0" y="25" width="50" height="25" fill-opacity="0.9" fill="#111"/></g><g clip-path="url(#clip)" transform="translate(450,300)skewX(14.588703544311423)skewY(-13.680998826701046)"><rect x="0" y="0" width="50" height="25" fill-opacity="0.9" fill="#d1d1d1"/><rect x="0" y="25" width="50" height="25" fill-opacity="0.9" fill="#111"/></g><g clip-path="url(#clip)" transform="translate(0,350)skewX(-15.658065870162641)skewY(-12.44286836728766)"><rect x="0" y="0" width="50" height="25" fill-opacity="0.9" fill="#d1d1d1"/><rect x="0" y="25" width="50" height="25" fill-opacity="0.9" fill="#111"/></g><g clip-path="url(#clip)" transform="translate(50,350)skewX(2.010223603772476)skewY(-19.898718578411927)"><rect x="0" y="0" width="50" height="25" fill-opacity="0.9" fill="#d1d1d1"/><rect x="0" y="25" width="50" height="25" fill-opacity="0.9" fill="#111"/></g><g clip-path="url(#clip)" transform="translate(100,350)skewX(17.830322767020302)skewY(-9.059778696186651)"><rect x="0" y="0" width="50" height="25" fill-opacity="0.9" fill="#d1d1d1"/><rect x="0" y="25" width="50" height="25" fill-opacity="0.9" fill="#111"/></g><g clip-path="url(#clip)" transform="translate(150,350)skewX(17.25730540701604)skewY(10.108679938002537)"><rect x="0" y="0" width="50" height="25" fill-opacity="0.9" fill="#d1d1d1"/><rect x="0" y="25" width="50" height="25" fill-opacity="0.9" fill="#111"/></g><g clip-path="url(#clip)" transform="translate(200,350)skewX(0.8180010419426627)skewY(19.983264855758197)"><rect x="0" y="0" width="50" height="25" fill-opacity="0.9" fill="#d1d1d1"/><rect x="0" y="25" width="50" height="25" fill-opacity="0.9" fill="#111"/></g><g clip-path="url(#clip)" transform="translate(250,350)skewX(-16.37336970868772)skewY(11.48532822267729)"><rect x="0" y="0" width="50" height="25" fill-opacity="0.9" fill="#d1d1d1"/><rect x="0" y="25" width="50" height="25" fill-opacity="0.9" fill="#111"/></g><g clip-path="url(#clip)" transform="translate(300,350)skewX(-18.511139858813713)skewY(-7.5721662110282715)"><rect x="0" y="0" width="50" height="25" fill-opacity="0.9" fill="#d1d1d1"/><rect x="0" y="25" width="50" height="25" fill-opacity="0.9" fill="#111"/></g><g clip-path="url(#clip)" transform="translate(350,350)skewX(-3.6298533912416406)skewY(-19.66784595114807)"><rect x="0" y="0" width="50" height="25" fill-opacity="0.9" fill="#d1d1d1"/><rect x="0" y="25" width="50" height="25" fill-opacity="0.9" fill="#111"/></g><g clip-path="url(#clip)" transform="translate(400,350)skewX(14.588703544311423)skewY(-13.680998826701046)"><rect x="0" y="0" width="50" height="25" fill-opacity="0.9" fill="#d1d1d1"/><rect x="0" y="25" width="50" height="25" fill-opacity="0.9" fill="#111"/></g><g clip-path="url(#clip)" transform="translate(450,350)skewX(19.39447372047797)skewY(4.884095525856294)"><rect x="0" y="0" width="50" height="25" fill-opacity="0.9" fill="#d1d1d1"/><rect x="0" y="25" width="50" height="25" fill-opacity="0.9" fill="#111"/></g><g clip-path="url(#clip)" transform="translate(0,400)skewX(2.010223603772476)skewY(-19.898718578411927)"><rect x="0" y="0" width="50" height="25" fill-opacity="0.9" fill="#d1d1d1"/><rect x="0" y="25" width="50" height="25" fill-opacity="0.9" fill="#111"/></g><g clip-path="url(#clip)" transform="translate(50,400)skewX(17.830322767020302)skewY(-9.059778696186651)"><rect x="0" y="0" width="50" height="25" fill-opacity="0.9" fill="#d1d1d1"/><rect x="0" y="25" width="50" height="25" fill-opacity="0.9" fill="#111"/></g><g clip-path="url(#clip)" transform="translate(100,400)skewX(17.25730540701604)skewY(10.108679938002537)"><rect x="0" y="0" width="50" height="25" fill-opacity="0.9" fill="#d1d1d1"/><rect x="0" y="25" width="50" height="25" fill-opacity="0.9" fill="#111"/></g><g clip-path="url(#clip)" transform="translate(150,400)skewX(0.8180010419426627)skewY(19.983264855758197)"><rect x="0" y="0" width="50" height="25" fill-opacity="0.9" fill="#d1d1d1"/><rect x="0" y="25" width="50" height="25" fill-opacity="0.9" fill="#111"/></g><g clip-path="url(#clip)" transform="translate(200,400)skewX(-16.37336970868772)skewY(11.48532822267729)"><rect x="0" y="0" width="50" height="25" fill-opacity="0.9" fill="#d1d1d1"/><rect x="0" y="25" width="50" height="25" fill-opacity="0.9" fill="#111"/></g><g clip-path="url(#clip)" transform="translate(250,400)skewX(-18.511139858813713)skewY(-7.5721662110282715)"><rect x="0" y="0" width="50" height="25" fill-opacity="0.9" fill="#d1d1d1"/><rect x="0" y="25" width="50" height="25" fill-opacity="0.9" fill="#111"/></g><g clip-path="url(#clip)" transform="translate(300,400)skewX(-3.6298533912416406)skewY(-19.66784595114807)"><rect x="0" y="0" width="50" height="25" fill-opacity="0.9" fill="#d1d1d1"/><rect x="0" y="25" width="50" height="25" fill-opacity="0.9" fill="#111"/></g><g clip-path="url(#clip)" transform="translate(350,400)skewX(14.588703544311423)skewY(-13.680998826701046)"><rect x="0" y="0" width="50" height="25" fill-opacity="0.9" fill="#d1d1d1"/><rect x="0" y="25" width="50" height="25" fill-opacity="0.9" fill="#111"/></g><g clip-path="url(#clip)" transform="translate(400,400)skewX(19.39447372047797)skewY(4.884095525856294)"><rect x="0" y="0" width="50" height="25" fill-opacity="0.9" fill="#d1d1d1"/><rect x="0" y="25" width="50" height="25" fill-opacity="0.9" fill="#111"/></g><g clip-path="url(#clip)" transform="translate(450,400)skewX(6.369054200235148)skewY(18.958774976101886)"><rect x="0" y="0" width="50" height="25" fill-opacity="0.9" fill="#d1d1d1"/><rect x="0" y="25" width="50" height="25" fill-opacity="0.9" fill="#111"/></g><g clip-path="url(#clip)" transform="translate(0,450)skewX(17.830322767020302)skewY(-9.059778696186651)"><rect x="0" y="0" width="50" height="25" fill-opacity="0.9" fill="#d1d1d1"/><rect x="0" y="25" width="50" height="25" fill-opacity="0.9" fill="#111"/></g><g clip-path="url(#clip)" transform="translate(50,450)skewX(17.25730540701604)skewY(10.108679938002537)"><rect x="0" y="0" width="50" height="25" fill-opacity="0.9" fill="#d1d1d1"/><rect x="0" y="25" width="50" height="25" fill-opacity="0.9" fill="#111"/></g><g clip-path="url(#clip)" transform="translate(100,450)skewX(0.8180010419426627)skewY(19.983264855758197)"><rect x="0" y="0" width="50" height="25" fill-opacity="0.9" fill="#d1d1d1"/><rect x="0" y="25" width="50" height="25" fill-opacity="0.9" fill="#111"/></g><g clip-path="url(#clip)" transform="translate(150,450)skewX(-16.37336970868772)skewY(11.48532822267729)"><rect x="0" y="0" width="50" height="25" fill-opacity="0.9" fill="#d1d1d1"/><rect x="0" y="25" width="50" height="25" fill-opacity="0.9" fill="#111"/></g><g clip-path="url(#clip)" transform="translate(200,450)skewX(-18.511139858813713)skewY(-7.5721662110282715)"><rect x="0" y="0" width="50" height="25" fill-opacity="0.9" fill="#d1d1d1"/><rect x="0" y="25" width="50" height="25" fill-opacity="0.9" fill="#111"/></g><g clip-path="url(#clip)" transform="translate(250,450)skewX(-3.6298533912416406)skewY(-19.66784595114807)"><rect x="0" y="0" width="50" height="25" fill-opacity="0.9" fill="#d1d1d1"/><rect x="0" y="25" width="50" height="25" fill-opacity="0.9" fill="#111"/></g><g clip-path="url(#clip)" transform="translate(300,450)skewX(14.588703544311423)skewY(-13.680998826701046)"><rect x="0" y="0" width="50" height="25" fill-opacity="0.9" fill="#d1d1d1"/><rect x="0" y="25" width="50" height="25" fill-opacity="0.9" fill="#111"/></g><g clip-path="url(#clip)" transform="translate(350,450)skewX(19.39447372047797)skewY(4.884095525856294)"><rect x="0" y="0" width="50" height="25" fill-opacity="0.9" fill="#d1d1d1"/><rect x="0" y="25" width="50" height="25" fill-opacity="0.9" fill="#111"/></g><g clip-path="url(#clip)" transform="translate(400,450)skewX(6.369054200235148)skewY(18.958774976101886)"><rect x="0" y="0" width="50" height="25" fill-opacity="0.9" fill="#d1d1d1"/><rect x="0" y="25" width="50" height="25" fill-opacity="0.9" fill="#111"/></g><g clip-path="url(#clip)" transform="translate(450,450)skewX(-12.512044379305546)skewY(15.602844146189774)"><rect x="0" y="0" width="50" height="25" fill-opacity="0.9" fill="#d1d1d1"/><rect x="0" y="25" width="50" height="25" fill-opacity="0.9" fill="#111"/></g></svg>