<?xml version="1.0" standalone="no"?><!DOCTYPE svg PUBLIC "-//W3C//DTD SVG 1.1//EN" "http://www.w3.org/Graphics/SVG/1.1/DTD/svg11.dtd"><svg width="500" height="500" style="background: rgb(17, 17, 17);" version="1.1" xmlns="http://www.w3.org/2000/svg" xmlns:xlink="http://www.w3.org/1999/xlink"><defs xmlns="http://www.w3.org/1999/xhtml"><style type="text/css"><![CDATA[
html, body { height: 100%; margin: 0px; background: rgb(34, 34, 34); }
body, #prev, #next { height: 100%; display: -webkit-flex; flex-direction: column; justify-content: center; }
#prev, #next { position: absolute; top: 0px; color: rgb(209, 209, 209); font-size: 70px; text-decoration: none; padding: 20px; }
#prev { left: 0px; }
#next { right: 0px; }
svg { margin: auto; }]]></style></defs><g transform="translate(250,250)rotate(13.524)"><path d="M6.706199272222265e-15,-109.5205454648864A109.5205454648864,109.5205454648864 0 0,1 70.93183298451508,-83.4471386470687L6.437770091616523,-7.573658691864818A9.940079966145731,9.940079966145731 0 0,0 6.086543556904551e-16,-9.940079966145731Z" fill="#d1d1d1" fill-opacity="0.8731386035683479"/><path d="M85.79786455978163,-100.93615233523583A132.47407448727682,132.47407448727682 0 0,1 99.4417018624295,-87.52558678446121L28.0437725027013,-24.68328274735846A37.35930437480481,37.35930437480481 0 0,0 24.19604401240796,-28.465225759142093Z" fill="#d1d1d1" fill-opacity="0.4634339382370134"/><path d="M122.99309595230906,-108.25481354448318A163.84872995383495,163.84872995383495 0 0,1 156.35262030113648,48.992493633753455L118.31011656689489,37.07202106078228A123.98233111053906,123.98233111053906 0 0,0 93.06737227054457,-81.91509412958769Z" fill="#d1d1d1" fill-opacity="0.17690681683809747"/><path d="M75.20876262620271,23.566377186835854A78.8145424999519,78.8145424999519 0 0,1 71.34838827953955,33.48342275498114L47.55892362155579,22.31915231432174A52.535661945680964,52.535661945680964 0 0,0 50.132145710108794,15.708715497178355Z" fill="#d1d1d1" fill-opacity="0.49624867306940673"/><path d="M164.67067352870487,77.27907959891887A181.90241027554674,181.90241027554674 0 0,1 92.66864387022495,156.5279825057065L53.3816983031628,90.1678193308181A104.78473818550556,104.78473818550556 0 0,0 94.85840999246945,44.51655209363728Z" fill="#d1d1d1" fill-opacity="0.878748092672014"/><path d="M89.58683751122726,151.3224576193953A175.8530285074349,175.8530285074349 0 0,1 1.5779284923093788,175.84594899203643L0.8720661150499432,97.18393091458864A97.18784351615462,97.18784351615462 0 0,0 49.51152458986631,83.63065143897673Z" fill="#d1d1d1" fill-opacity="0.6118642844535498"/><path d="M0.45094137616150476,50.25336358230063A50.25538677057051,50.25538677057051 0 0,1 -39.192542146864085,31.457090449148595L-13.012898267646058,10.444536010881455A16.686037690437633,16.686037690437633 0 0,0 0.1497237466932595,16.685365941638242Z" fill="#d1d1d1" fill-opacity="0.31092941983559896"/><path d="M-80.09714481601617,64.2883311767409A102.70609589098487,102.70609589098487 0 0,1 -102.17443977645247,10.43676144866155L-35.72753377312819,3.649442541157668A35.913438993936886,35.913438993936886 0 0,0 -28.007723387634073,22.47982497736586Z" fill="#d1d1d1" fill-opacity="0.8461209591241846"/><path d="M-82.91096472574307,8.469064887600183A83.34238496601711,83.34238496601711 0 0,1 -58.470420437233244,-59.38992394099332L-23.804572519666923,-24.178922279317465A33.930487108695566,33.930487108695566 0 0,0 -33.75484659988343,3.4479394501200704Z" fill="#d1d1d1" fill-opacity="0.4020914764143882"/><path d="M-86.18391153511779,-87.53923629645345A122.84455420920914,122.84455420920914 0 0,1 -2.256617851574872e-14,-122.84455420920914L-7.974220635304352e-15,-43.40963528344834A43.40963528344834,43.40963528344834 0 0,0 -30.45484751948391,-30.933779238996774Z" fill="#d1d1d1" fill-opacity="0.8726507170817928"/></g></svg>