<?xml version="1.0" standalone="no"?><!DOCTYPE svg PUBLIC "-//W3C//DTD SVG 1.1//EN" "http://www.w3.org/Graphics/SVG/1.1/DTD/svg11.dtd"><svg width="500" height="500" style="background: rgb(17, 17, 17);" version="1.1" xmlns="http://www.w3.org/2000/svg" xmlns:xlink="http://www.w3.org/1999/xlink"><defs xmlns="http://www.w3.org/1999/xhtml"><style type="text/css"><![CDATA[
html, body { height: 100%; margin: 0px; background: rgb(34, 34, 34); }
body, #prev, #next { height: 100%; box-sizing: border-box; display: -webkit-flex; flex-direction: column; justify-content: center; }
#prev, #next { position: absolute; top: 0px; color: rgb(209, 209, 209); font-size: 70px; text-decoration: none; padding: 20px; }
#prev { left: 0px; }
#next { right: 0px; }
svg { margin: auto; }
.fa { display: inline-block; font-style: normal; font-variant: normal; font-weight: normal; font-stretch: normal; line-height: 1; font-family: FontAwesome; font-size: inherit; text-rendering: auto; -webkit-font-smoothing: antialiased; }
.fa-twitter::before { content: ''; }
.fa-github::before { content: ''; }
.fa-th::before { content: ''; }
footer { text-align: center; margin-bottom: 25px; }
a { color: rgb(209, 209, 209); text-decoration: none; padding: 10px; }]]></style></defs><g transform="translate(-20,-15)"><path fill="#fff" fill-opacity="0.8" fill-rule="evenodd" d="M0,-62.5m0,-49.01703610965673l42.44999848918187,24.508518054828357l7.105427357601002e-15,49.01703610965673l-42.44999848918185,24.508518054828375l-42.449998489181894,-24.508518054828343l-3.552713678800501e-14,-49.017036109656715l42.449998489181844,-24.508518054828397zM108.25317547305482,-62.5m0,-49.01703610965673l42.44999848918187,24.508518054828357l7.105427357601002e-15,49.01703610965673l-42.44999848918185,24.508518054828375l-42.449998489181894,-24.508518054828343l-3.552713678800501e-14,-49.017036109656715l42.449998489181844,-24.508518054828397zM216.50635094610965,-62.5m0,-49.01703610965673l42.44999848918187,24.508518054828357l7.105427357601002e-15,49.01703610965673l-42.44999848918185,24.508518054828375l-42.449998489181894,-24.508518054828343l-3.552713678800501e-14,-49.017036109656715l42.449998489181844,-24.508518054828397zM324.75952641916444,-62.5m0,-49.01703610965673l42.44999848918187,24.508518054828357l7.105427357601002e-15,49.01703610965673l-42.44999848918185,24.508518054828375l-42.449998489181894,-24.508518054828343l-3.552713678800501e-14,-49.017036109656715l42.449998489181844,-24.508518054828397zM433.0127018922193,-62.5m0,-49.01703610965673l42.44999848918187,24.508518054828357l7.105427357601002e-15,49.01703610965673l-42.44999848918185,24.508518054828375l-42.449998489181894,-24.508518054828343l-3.552713678800501e-14,-49.017036109656715l42.449998489181844,-24.508518054828397zM541.2658773652742,-62.5m0,-49.01703610965673l42.44999848918187,24.508518054828357l7.105427357601002e-15,49.01703610965673l-42.44999848918185,24.508518054828375l-42.449998489181894,-24.508518054828343l-3.552713678800501e-14,-49.017036109656715l42.449998489181844,-24.508518054828397zM-54.12658773652741,31.25m0,-49.01703610965673l42.44999848918187,24.508518054828357l7.105427357601002e-15,49.01703610965673l-42.44999848918185,24.508518054828375l-42.449998489181894,-24.508518054828343l-3.552713678800501e-14,-49.017036109656715l42.449998489181844,-24.508518054828397zM54.12658773652741,31.25m0,-49.01703610965673l42.44999848918187,24.508518054828357l7.105427357601002e-15,49.01703610965673l-42.44999848918185,24.508518054828375l-42.449998489181894,-24.508518054828343l-3.552713678800501e-14,-49.017036109656715l42.449998489181844,-24.508518054828397zM162.37976320958222,31.25m0,-49.01703610965673l42.44999848918187,24.508518054828357l7.105427357601002e-15,49.01703610965673l-42.44999848918185,24.508518054828375l-42.449998489181894,-24.508518054828343l-3.552713678800501e-14,-49.017036109656715l42.449998489181844,-24.508518054828397zM270.632938682637,31.25m0,-49.01703610965673l42.44999848918187,24.508518054828357l7.105427357601002e-15,49.01703610965673l-42.44999848918185,24.508518054828375l-42.449998489181894,-24.508518054828343l-3.552713678800501e-14,-49.017036109656715l42.449998489181844,-24.508518054828397zM378.88611415569187,31.25m0,-49.01703610965673l42.44999848918187,24.508518054828357l7.105427357601002e-15,49.01703610965673l-42.44999848918185,24.508518054828375l-42.449998489181894,-24.508518054828343l-3.552713678800501e-14,-49.017036109656715l42.449998489181844,-24.508518054828397zM487.1392896287467,31.25m0,-49.01703610965673l42.44999848918187,24.508518054828357l7.105427357601002e-15,49.01703610965673l-42.44999848918185,24.508518054828375l-42.449998489181894,-24.508518054828343l-3.552713678800501e-14,-49.017036109656715l42.449998489181844,-24.508518054828397zM595.3924651018016,31.25m0,-49.01703610965673l42.44999848918187,24.508518054828357l7.105427357601002e-15,49.01703610965673l-42.44999848918185,24.508518054828375l-42.449998489181894,-24.508518054828343l-3.552713678800501e-14,-49.017036109656715l42.449998489181844,-24.508518054828397zM0,125m0,-49.01703610965673l42.44999848918187,24.508518054828357l7.105427357601002e-15,49.01703610965673l-42.44999848918185,24.508518054828375l-42.449998489181894,-24.508518054828343l-3.552713678800501e-14,-49.017036109656715l42.449998489181844,-24.508518054828397zM108.25317547305482,125m0,-49.01703610965673l42.44999848918187,24.508518054828357l7.105427357601002e-15,49.01703610965673l-42.44999848918185,24.508518054828375l-42.449998489181894,-24.508518054828343l-3.552713678800501e-14,-49.017036109656715l42.449998489181844,-24.508518054828397zM216.50635094610965,125m0,-49.01703610965673l42.44999848918187,24.508518054828357l7.105427357601002e-15,49.01703610965673l-42.44999848918185,24.508518054828375l-42.449998489181894,-24.508518054828343l-3.552713678800501e-14,-49.017036109656715l42.449998489181844,-24.508518054828397zM324.75952641916444,125m0,-49.01703610965673l42.44999848918187,24.508518054828357l7.105427357601002e-15,49.01703610965673l-42.44999848918185,24.508518054828375l-42.449998489181894,-24.508518054828343l-3.552713678800501e-14,-49.017036109656715l42.449998489181844,-24.508518054828397zM433.0127018922193,125m0,-49.01703610965673l42.44999848918187,24.508518054828357l7.105427357601002e-15,49.01703610965673l-42.44999848918185,24.508518054828375l-42.449998489181894,-24.508518054828343l-3.552713678800501e-14,-49.017036109656715l42.449998489181844,-24.508518054828397zM541.2658773652742,125m0,-49.01703610965673l42.44999848918187,24.508518054828357l7.105427357601002e-15,49.01703610965673l-42.44999848918185,24.508518054828375l-42.449998489181894,-24.508518054828343l-3.552713678800501e-14,-49.017036109656715l42.449998489181844,-24.508518054828397zM-54.12658773652741,218.75m0,-49.01703610965673l42.44999848918187,24.508518054828357l7.105427357601002e-15,49.01703610965673l-42.44999848918185,24.508518054828375l-42.449998489181894,-24.508518054828343l-3.552713678800501e-14,-49.017036109656715l42.449998489181844,-24.508518054828397zM54.12658773652741,218.75m0,-49.01703610965673l42.44999848918187,24.508518054828357l7.105427357601002e-15,49.01703610965673l-42.44999848918185,24.508518054828375l-42.449998489181894,-24.508518054828343l-3.552713678800501e-14,-49.017036109656715l42.449998489181844,-24.508518054828397zM162.37976320958222,218.75m0,-49.01703610965673l42.44999848918187,24.508518054828357l7.105427357601002e-15,49.01703610965673l-42.44999848918185,24.508518054828375l-42.449998489181894,-24.508518054828343l-3.552713678800501e-14,-49.017036109656715l42.449998489181844,-24.508518054828397zM270.632938682637,218.75m0,-49.01703610965673l42.44999848918187,24.508518054828357l7.105427357601002e-15,49.01703610965673l-42.44999848918185,24.508518054828375l-42.449998489181894,-24.508518054828343l-3.552713678800501e-14,-49.017036109656715l42.449998489181844,-24.508518054828397zM378.88611415569187,218.75m0,-49.01703610965673l42.44999848918187,24.508518054828357l7.105427357601002e-15,49.01703610965673l-42.44999848918185,24.508518054828375l-42.449998489181894,-24.508518054828343l-3.552713678800501e-14,-49.017036109656715l42.449998489181844,-24.508518054828397zM487.1392896287467,218.75m0,-49.01703610965673l42.44999848918187,24.508518054828357l7.105427357601002e-15,49.01703610965673l-42.44999848918185,24.508518054828375l-42.449998489181894,-24.508518054828343l-3.552713678800501e-14,-49.017036109656715l42.449998489181844,-24.508518054828397zM595.3924651018016,218.75m0,-49.01703610965673l42.44999848918187,24.508518054828357l7.105427357601002e-15,49.01703610965673l-42.44999848918185,24.508518054828375l-42.449998489181894,-24.508518054828343l-3.552713678800501e-14,-49.017036109656715l42.449998489181844,-24.508518054828397zM0,312.5m0,-49.01703610965673l42.44999848918187,24.508518054828357l7.105427357601002e-15,49.01703610965673l-42.44999848918185,24.508518054828375l-42.449998489181894,-24.508518054828343l-3.552713678800501e-14,-49.017036109656715l42.449998489181844,-24.508518054828397zM108.25317547305482,312.5m0,-49.01703610965673l42.44999848918187,24.508518054828357l7.105427357601002e-15,49.01703610965673l-42.44999848918185,24.508518054828375l-42.449998489181894,-24.508518054828343l-3.552713678800501e-14,-49.017036109656715l42.449998489181844,-24.508518054828397zM216.50635094610965,312.5m0,-49.01703610965673l42.44999848918187,24.508518054828357l7.105427357601002e-15,49.01703610965673l-42.44999848918185,24.508518054828375l-42.449998489181894,-24.508518054828343l-3.552713678800501e-14,-49.017036109656715l42.449998489181844,-24.508518054828397zM324.75952641916444,312.5m0,-49.01703610965673l42.44999848918187,24.508518054828357l7.105427357601002e-15,49.01703610965673l-42.44999848918185,24.508518054828375l-42.449998489181894,-24.508518054828343l-3.552713678800501e-14,-49.017036109656715l42.449998489181844,-24.508518054828397zM433.0127018922193,312.5m0,-49.01703610965673l42.44999848918187,24.508518054828357l7.105427357601002e-15,49.01703610965673l-42.44999848918185,24.508518054828375l-42.449998489181894,-24.508518054828343l-3.552713678800501e-14,-49.017036109656715l42.449998489181844,-24.508518054828397zM541.2658773652742,312.5m0,-49.01703610965673l42.44999848918187,24.508518054828357l7.105427357601002e-15,49.01703610965673l-42.44999848918185,24.508518054828375l-42.449998489181894,-24.508518054828343l-3.552713678800501e-14,-49.017036109656715l42.449998489181844,-24.508518054828397zM-54.12658773652741,406.25m0,-49.01703610965673l42.44999848918187,24.508518054828357l7.105427357601002e-15,49.01703610965673l-42.44999848918185,24.508518054828375l-42.449998489181894,-24.508518054828343l-3.552713678800501e-14,-49.017036109656715l42.449998489181844,-24.508518054828397zM54.12658773652741,406.25m0,-49.01703610965673l42.44999848918187,24.508518054828357l7.105427357601002e-15,49.01703610965673l-42.44999848918185,24.508518054828375l-42.449998489181894,-24.508518054828343l-3.552713678800501e-14,-49.017036109656715l42.449998489181844,-24.508518054828397zM162.37976320958222,406.25m0,-49.01703610965673l42.44999848918187,24.508518054828357l7.105427357601002e-15,49.01703610965673l-42.44999848918185,24.508518054828375l-42.449998489181894,-24.508518054828343l-3.552713678800501e-14,-49.017036109656715l42.449998489181844,-24.508518054828397zM270.632938682637,406.25m0,-49.01703610965673l42.44999848918187,24.508518054828357l7.105427357601002e-15,49.01703610965673l-42.44999848918185,24.508518054828375l-42.449998489181894,-24.508518054828343l-3.552713678800501e-14,-49.017036109656715l42.449998489181844,-24.508518054828397zM378.88611415569187,406.25m0,-49.01703610965673l42.44999848918187,24.508518054828357l7.105427357601002e-15,49.01703610965673l-42.44999848918185,24.508518054828375l-42.449998489181894,-24.508518054828343l-3.552713678800501e-14,-49.017036109656715l42.449998489181844,-24.508518054828397zM487.1392896287467,406.25m0,-49.01703610965673l42.44999848918187,24.508518054828357l7.105427357601002e-15,49.01703610965673l-42.44999848918185,24.508518054828375l-42.449998489181894,-24.508518054828343l-3.552713678800501e-14,-49.017036109656715l42.449998489181844,-24.508518054828397zM595.3924651018016,406.25m0,-49.01703610965673l42.44999848918187,24.508518054828357l7.105427357601002e-15,49.01703610965673l-42.44999848918185,24.508518054828375l-42.449998489181894,-24.508518054828343l-3.552713678800501e-14,-49.017036109656715l42.449998489181844,-24.508518054828397zM0,500m0,-49.01703610965673l42.44999848918187,24.508518054828357l7.105427357601002e-15,49.01703610965673l-42.44999848918185,24.508518054828375l-42.449998489181894,-24.508518054828343l-3.552713678800501e-14,-49.017036109656715l42.449998489181844,-24.508518054828397zM108.25317547305482,500m0,-49.01703610965673l42.44999848918187,24.508518054828357l7.105427357601002e-15,49.01703610965673l-42.44999848918185,24.508518054828375l-42.449998489181894,-24.508518054828343l-3.552713678800501e-14,-49.017036109656715l42.449998489181844,-24.508518054828397zM216.50635094610965,500m0,-49.01703610965673l42.44999848918187,24.508518054828357l7.105427357601002e-15,49.01703610965673l-42.44999848918185,24.508518054828375l-42.449998489181894,-24.508518054828343l-3.552713678800501e-14,-49.017036109656715l42.449998489181844,-24.508518054828397zM324.75952641916444,500m0,-49.01703610965673l42.44999848918187,24.508518054828357l7.105427357601002e-15,49.01703610965673l-42.44999848918185,24.508518054828375l-42.449998489181894,-24.508518054828343l-3.552713678800501e-14,-49.017036109656715l42.449998489181844,-24.508518054828397zM433.0127018922193,500m0,-49.01703610965673l42.44999848918187,24.508518054828357l7.105427357601002e-15,49.01703610965673l-42.44999848918185,24.508518054828375l-42.449998489181894,-24.508518054828343l-3.552713678800501e-14,-49.017036109656715l42.449998489181844,-24.508518054828397zM541.2658773652742,500m0,-49.01703610965673l42.44999848918187,24.508518054828357l7.105427357601002e-15,49.01703610965673l-42.44999848918185,24.508518054828375l-42.449998489181894,-24.508518054828343l-3.552713678800501e-14,-49.017036109656715l42.449998489181844,-24.508518054828397zM-54.12658773652741,593.75m0,-49.01703610965673l42.44999848918187,24.508518054828357l7.105427357601002e-15,49.01703610965673l-42.44999848918185,24.508518054828375l-42.449998489181894,-24.508518054828343l-3.552713678800501e-14,-49.017036109656715l42.449998489181844,-24.508518054828397zM54.12658773652741,593.75m0,-49.01703610965673l42.44999848918187,24.508518054828357l7.105427357601002e-15,49.01703610965673l-42.44999848918185,24.508518054828375l-42.449998489181894,-24.508518054828343l-3.552713678800501e-14,-49.017036109656715l42.449998489181844,-24.508518054828397zM162.37976320958222,593.75m0,-49.01703610965673l42.44999848918187,24.508518054828357l7.105427357601002e-15,49.01703610965673l-42.44999848918185,24.508518054828375l-42.449998489181894,-24.508518054828343l-3.552713678800501e-14,-49.017036109656715l42.449998489181844,-24.508518054828397zM270.632938682637,593.75m0,-49.01703610965673l42.44999848918187,24.508518054828357l7.105427357601002e-15,49.01703610965673l-42.44999848918185,24.508518054828375l-42.449998489181894,-24.508518054828343l-3.552713678800501e-14,-49.017036109656715l42.449998489181844,-24.508518054828397zM378.88611415569187,593.75m0,-49.01703610965673l42.44999848918187,24.508518054828357l7.105427357601002e-15,49.01703610965673l-42.44999848918185,24.508518054828375l-42.449998489181894,-24.508518054828343l-3.552713678800501e-14,-49.017036109656715l42.449998489181844,-24.508518054828397zM487.1392896287467,593.75m0,-49.01703610965673l42.44999848918187,24.508518054828357l7.105427357601002e-15,49.01703610965673l-42.44999848918185,24.508518054828375l-42.449998489181894,-24.508518054828343l-3.552713678800501e-14,-49.017036109656715l42.449998489181844,-24.508518054828397zM595.3924651018016,593.75m0,-49.01703610965673l42.44999848918187,24.508518054828357l7.105427357601002e-15,49.01703610965673l-42.44999848918185,24.508518054828375l-42.449998489181894,-24.508518054828343l-3.552713678800501e-14,-49.017036109656715l42.449998489181844,-24.508518054828397z"/></g></svg>