<?xml version="1.0" standalone="no"?><!DOCTYPE svg PUBLIC "-//W3C//DTD SVG 1.1//EN" "http://www.w3.org/Graphics/SVG/1.1/DTD/svg11.dtd"><svg width="500" height="500" style="background: rgb(209, 209, 209);" version="1.1" xmlns="http://www.w3.org/2000/svg" xmlns:xlink="http://www.w3.org/1999/xlink"><defs xmlns="http://www.w3.org/1999/xhtml"><style type="text/css"><![CDATA[
html, body { height: 100%; margin: 0px; background: rgb(34, 34, 34); }
body, #prev, #next { height: 100%; box-sizing: border-box; display: -webkit-flex; flex-direction: column; justify-content: center; }
#prev, #next { position: absolute; top: 0px; color: rgb(209, 209, 209); font-size: 70px; text-decoration: none; padding: 20px; }
#prev { left: 0px; }
#next { right: 0px; }
svg { margin: auto; }
.fa { display: inline-block; font-style: normal; font-variant: normal; font-weight: normal; font-stretch: normal; line-height: 1; font-family: FontAwesome; font-size: inherit; text-rendering: auto; -webkit-font-smoothing: antialiased; }
.fa-twitter::before { content: ''; }
.fa-github::before { content: ''; }
.fa-th::before { content: ''; }
footer { text-align: center; margin-bottom: 25px; }
a { color: rgb(209, 209, 209); text-decoration: none; padding: 10px; }]]></style></defs><filter id="blur" x="-100" y="-100" width="700" height="300" filterUnits="userSpaceOnUse"><feGaussianBlur stdDeviation="20"/></filter><g transform="translate(0,0)"><path fill="#d1d1d1" d="M0,0L39.026230115753904,0C78.05246023150781,0,156.10492046301562,0,203.46448391210285,-16.666666666666664C250.82404736119008,-33.33333333333333,267.49071402785677,-66.66666666666666,284.15738069452345,-66.66666666666666C300.8240473611901,-66.66666666666666,317.49071402785677,-33.33333333333333,353.4644839121029,-16.666666666666664C389.43825379634893,0,444.71912689817447,0,472.3595634490872,0L500,0L500,500L472.3595634490872,499.99999999999994C444.71912689817447,500,389.43825379634893,500,353.4644839121029,499.99999999999994C317.49071402785677,500,300.8240473611901,500,284.15738069452345,499.99999999999994C267.49071402785677,500,250.82404736119008,500,203.46448391210285,499.99999999999994C156.10492046301562,500,78.05246023150781,500,39.026230115753904,499.99999999999994L0,500Z"/><g filter="url(#blur)"><ellipse cy="20" ry="20" rx="60" fill-opacity="0.2" style="fill: rgb(255, 255, 255);" cx="465.8035535365343"/><ellipse cy="20" ry="20" rx="60" fill-opacity="0.2" style="fill: rgb(255, 255, 255);" cx="-97"/><ellipse cy="20" ry="20" rx="60" fill-opacity="0.2" style="fill: rgb(255, 255, 255);" cx="490.73343396931887"/><ellipse cy="20" ry="20" rx="60" fill-opacity="0.2" style="fill: rgb(255, 255, 255);" cx="245.86166477575898"/><ellipse cy="20" ry="20" rx="60" fill-opacity="0.2" style="fill: rgb(255, 255, 255);" cx="162.5888238782063"/><ellipse cy="20" ry="20" rx="60" fill-opacity="0.2" style="fill: rgb(255, 255, 255);" cx="101.60496482905"/><ellipse cy="20" ry="20" rx="60" fill-opacity="0.2" style="fill: rgb(255, 255, 255);" cx="214.6203685440123"/></g></g><g transform="translate(0,50)"><path fill="#c0c0c0" d="M0,0L63.94163450070967,0C127.88326900141934,0,255.76653800283867,0,328.0415058368817,-16.666666666666664C400.31647367092467,-33.33333333333333,416.9831403375913,-66.66666666666666,433.649807004258,-66.66666666666666C450.31647367092467,-66.66666666666666,466.98314033759135,-33.33333333333333,478.04150583688164,-16.666666666666664C489.099871336172,0,494.549935668086,0,497.27496783404297,0L500,0L500,500L497.27496783404297,499.99999999999994C494.549935668086,500,489.099871336172,500,478.0415058368817,499.99999999999994C466.98314033759135,500,450.31647367092467,500,433.649807004258,499.99999999999994C416.9831403375913,500,400.31647367092467,500,328.0415058368817,499.99999999999994C255.76653800283867,500,127.88326900141934,500,63.94163450070967,499.99999999999994L0,500Z"/><g filter="url(#blur)"><ellipse cy="20" ry="20" rx="60" fill-opacity="0.2" style="fill: rgb(255, 255, 255);" cx="237.57833200910616"/><ellipse cy="20" ry="20" rx="60" fill-opacity="0.2" style="fill: rgb(255, 255, 255);" cx="99.71392124270392"/><ellipse cy="20" ry="20" rx="60" fill-opacity="0.2" style="fill: rgb(255, 255, 255);" cx="511.9542607500493"/><ellipse cy="20" ry="20" rx="60" fill-opacity="0.2" style="fill: rgb(255, 255, 255);" cx="14.666666666666584"/><ellipse cy="20" ry="20" rx="60" fill-opacity="0.2" style="fill: rgb(255, 255, 255);" cx="1.3333333333332502"/><ellipse cy="20" ry="20" rx="60" fill-opacity="0.2" style="fill: rgb(255, 255, 255);" cx="57.33333333333328"/><ellipse cy="20" ry="20" rx="60" fill-opacity="0.2" style="fill: rgb(255, 255, 255);" cx="53.33333333333327"/></g></g><g transform="translate(0,100)"><path fill="#aeaeae" d="M0,0L10.617962987938274,0C21.235925975876548,0,42.471851951753095,0,61.4231482730247,-16.666666666666664C80.3744445942963,-33.33333333333333,97.04111126096296,-66.66666666666666,113.70777792762964,-66.66666666666666C130.3744445942963,-66.66666666666666,147.04111126096296,-33.33333333333333,211.4231482730247,-16.666666666666664C275.8051852850864,0,387.9025926425432,0,443.95129632127157,0L500,0L500,500L443.95129632127157,499.99999999999994C387.9025926425432,500,275.8051852850864,500,211.42314827302468,499.99999999999994C147.04111126096296,500,130.3744445942963,500,113.70777792762964,499.99999999999994C97.04111126096296,500,80.3744445942963,500,61.4231482730247,499.99999999999994C42.471851951753095,500,21.235925975876548,500,10.617962987938274,499.99999999999994L0,500Z"/><g filter="url(#blur)"><ellipse cy="20" ry="20" rx="60" fill-opacity="0.2" style="fill: rgb(255, 255, 255);" cx="401.4639866386265"/><ellipse cy="20" ry="20" rx="60" fill-opacity="0.2" style="fill: rgb(255, 255, 255);" cx="139.82474080069622"/><ellipse cy="20" ry="20" rx="60" fill-opacity="0.2" style="fill: rgb(255, 255, 255);" cx="439.9009344136977"/><ellipse cy="20" ry="20" rx="60" fill-opacity="0.2" style="fill: rgb(255, 255, 255);" cx="-43.333333333333265"/><ellipse cy="20" ry="20" rx="60" fill-opacity="0.2" style="fill: rgb(255, 255, 255);" cx="241.9322905798127"/><ellipse cy="20" ry="20" rx="60" fill-opacity="0.2" style="fill: rgb(255, 255, 255);" cx="271.7558097063249"/><ellipse cy="20" ry="20" rx="60" fill-opacity="0.2" style="fill: rgb(255, 255, 255);" cx="489.0294831447946"/></g></g><g transform="translate(0,150)"><path fill="#9d9d9d" d="M0,0L37.80829074870174,0C75.61658149740347,0,151.23316299480695,0,197.374787076842,-16.666666666666664C243.51641115887708,-33.33333333333333,260.18307782554376,-66.66666666666666,276.84974449221045,-66.66666666666666C293.5164111588771,-66.66666666666666,310.18307782554376,-33.33333333333333,347.37478707684204,-16.666666666666664C384.56649632814026,0,442.28324816407013,0,471.14162408203504,0L500,0L500,500L471.14162408203504,499.99999999999994C442.28324816407013,500,384.56649632814026,500,347.37478707684204,499.99999999999994C310.18307782554376,500,293.5164111588771,500,276.84974449221045,499.99999999999994C260.18307782554376,500,243.51641115887708,500,197.374787076842,499.99999999999994C151.23316299480695,500,75.61658149740347,500,37.80829074870174,499.99999999999994L0,500Z"/><g filter="url(#blur)"><ellipse cy="20" ry="20" rx="60" fill-opacity="0.2" style="fill: rgb(244, 244, 244);" cx="257.0401877751574"/><ellipse cy="20" ry="20" rx="60" fill-opacity="0.2" style="fill: rgb(244, 244, 244);" cx="-25"/><ellipse cy="20" ry="20" rx="60" fill-opacity="0.2" style="fill: rgb(244, 244, 244);" cx="317.8922384753823"/><ellipse cy="20" ry="20" rx="60" fill-opacity="0.2" style="fill: rgb(244, 244, 244);" cx="192"/><ellipse cy="20" ry="20" rx="60" fill-opacity="0.2" style="fill: rgb(244, 244, 244);" cx="-88"/><ellipse cy="20" ry="20" rx="60" fill-opacity="0.2" style="fill: rgb(244, 244, 244);" cx="516.396335862577"/><ellipse cy="20" ry="20" rx="60" fill-opacity="0.2" style="fill: rgb(244, 244, 244);" cx="-88"/></g></g><g transform="translate(0,200)"><path fill="#8b8b8b" d="M0,0L53.71150088030845,0C107.4230017606169,0,214.8460035212338,0,276.89083773487556,-16.666666666666664C338.9356719485173,-33.33333333333333,355.602338615184,-66.66666666666666,372.2690052818507,-66.66666666666666C388.9356719485173,-66.66666666666666,405.60233861518395,-33.33333333333333,426.8908377348755,-16.666666666666664C448.17933685456705,0,474.0896684272835,0,487.04483421364176,0L500,0L500,500L487.0448342136417,499.99999999999994C474.0896684272835,500,448.17933685456705,500,426.8908377348755,499.99999999999994C405.60233861518395,500,388.9356719485173,500,372.2690052818507,499.99999999999994C355.602338615184,500,338.9356719485173,500,276.89083773487556,499.99999999999994C214.8460035212338,500,107.4230017606169,500,53.71150088030845,499.99999999999994L0,500Z"/><g filter="url(#blur)"><ellipse cy="20" ry="20" rx="60" fill-opacity="0.2" style="fill: rgb(227, 227, 227);" cx="185.39449255199509"/><ellipse cy="20" ry="20" rx="60" fill-opacity="0.2" style="fill: rgb(227, 227, 227);" cx="553.9836742787917"/><ellipse cy="20" ry="20" rx="60" fill-opacity="0.2" style="fill: rgb(227, 227, 227);" cx="443.57031952155023"/><ellipse cy="20" ry="20" rx="60" fill-opacity="0.2" style="fill: rgb(227, 227, 227);" cx="501.9449873411391"/><ellipse cy="20" ry="20" rx="60" fill-opacity="0.2" style="fill: rgb(227, 227, 227);" cx="480.92033800699915"/><ellipse cy="20" ry="20" rx="60" fill-opacity="0.2" style="fill: rgb(227, 227, 227);" cx="494.2840638154481"/><ellipse cy="20" ry="20" rx="60" fill-opacity="0.2" style="fill: rgb(227, 227, 227);" cx="354.4656760341794"/></g></g><g transform="translate(0,250)"><path fill="#7a7a7a" d="M0,0L-1.213789366496106,0C-2.427578732992212,0,-4.855157465984424,0,2.2643865008528037,-16.666666666666664C9.383930467690032,-33.33333333333333,26.050597134356696,-66.66666666666666,42.717263801023364,-66.66666666666666C59.38393046769003,-66.66666666666666,76.05059713435669,-33.33333333333333,152.2643865008528,-16.666666666666664C228.4781758673489,0,364.23908793367445,0,432.11954396683717,0L500,0L500,500L432.11954396683717,499.99999999999994C364.23908793367445,500,228.4781758673489,500,152.2643865008528,499.99999999999994C76.05059713435669,500,59.38393046769003,500,42.71726380102336,499.99999999999994C26.050597134356696,500,9.383930467690032,500,2.2643865008528037,499.99999999999994C-4.855157465984424,500,-2.427578732992212,500,-1.213789366496106,499.99999999999994L0,500Z"/><g filter="url(#blur)"><ellipse cy="20" ry="20" rx="60" fill-opacity="0.2" style="fill: rgb(209, 209, 209);" cx="370.56824445879784"/><ellipse cy="20" ry="20" rx="60" fill-opacity="0.2" style="fill: rgb(209, 209, 209);" cx="157.83333333333337"/><ellipse cy="20" ry="20" rx="60" fill-opacity="0.2" style="fill: rgb(209, 209, 209);" cx="555.9832141591866"/><ellipse cy="20" ry="20" rx="60" fill-opacity="0.2" style="fill: rgb(209, 209, 209);" cx="214.6666666666665"/><ellipse cy="20" ry="20" rx="60" fill-opacity="0.2" style="fill: rgb(209, 209, 209);" cx="595.9415559979778"/><ellipse cy="20" ry="20" rx="60" fill-opacity="0.2" style="fill: rgb(209, 209, 209);" cx="259.9999999999997"/><ellipse cy="20" ry="20" rx="60" fill-opacity="0.2" style="fill: rgb(209, 209, 209);" cx="46.66666666666671"/></g></g><g transform="translate(0,300)"><path fill="#686868" d="M0,0L20.19590427322934,0C40.39180854645868,0,80.78361709291735,0,109.31285469948003,-16.666666666666664C137.8420923060427,-33.33333333333333,154.50875897270936,-66.66666666666666,171.17542563937604,-66.66666666666666C187.8420923060427,-66.66666666666666,204.50875897270936,-33.33333333333333,259.31285469948,-16.666666666666664C314.1169504262507,0,407.05847521312535,0,453.5292376065626,0L500,0L500,500L453.5292376065626,499.99999999999994C407.05847521312535,500,314.1169504262507,500,259.31285469948,499.99999999999994C204.50875897270936,500,187.8420923060427,500,171.17542563937602,499.99999999999994C154.50875897270936,500,137.8420923060427,500,109.31285469948003,499.99999999999994C80.78361709291735,500,40.39180854645868,500,20.19590427322934,499.99999999999994L0,500Z"/><g filter="url(#blur)"><ellipse cy="20" ry="20" rx="60" fill-opacity="0.2" style="fill: rgb(192, 192, 192);" cx="289.19787814468145"/><ellipse cy="20" ry="20" rx="60" fill-opacity="0.2" style="fill: rgb(192, 192, 192);" cx="105"/><ellipse cy="20" ry="20" rx="60" fill-opacity="0.2" style="fill: rgb(192, 192, 192);" cx="65"/><ellipse cy="20" ry="20" rx="60" fill-opacity="0.2" style="fill: rgb(192, 192, 192);" cx="29"/><ellipse cy="20" ry="20" rx="60" fill-opacity="0.2" style="fill: rgb(192, 192, 192);" cx="347"/><ellipse cy="20" ry="20" rx="60" fill-opacity="0.2" style="fill: rgb(192, 192, 192);" cx="512.1567982845008"/><ellipse cy="20" ry="20" rx="60" fill-opacity="0.2" style="fill: rgb(192, 192, 192);" cx="125"/></g></g><g transform="translate(0,350)"><path fill="#575757" d="M0,0L51.31576775650804,0C102.63153551301608,0,205.26307102603215,0,264.91217211587355,-16.666666666666664C324.5612732057149,-33.33333333333333,341.22793987238157,-66.66666666666666,357.89460653904825,-66.66666666666666C374.5612732057149,-66.66666666666666,391.22793987238157,-33.33333333333333,414.91217211587355,-16.666666666666664C438.59640435936547,0,469.29820217968273,0,484.64910108984134,0L500,0L500,500L484.64910108984134,499.99999999999994C469.29820217968273,500,438.59640435936547,500,414.91217211587355,499.99999999999994C391.22793987238157,500,374.5612732057149,500,357.8946065390482,499.99999999999994C341.22793987238157,500,324.5612732057149,500,264.91217211587355,499.99999999999994C205.26307102603215,500,102.63153551301608,500,51.31576775650804,499.99999999999994L0,500Z"/><g filter="url(#blur)"><ellipse cy="20" ry="20" rx="60" fill-opacity="0.2" style="fill: rgb(174, 174, 174);" cx="443.1543303936088"/><ellipse cy="20" ry="20" rx="60" fill-opacity="0.2" style="fill: rgb(174, 174, 174);" cx="-3.6666666666666985"/><ellipse cy="20" ry="20" rx="60" fill-opacity="0.2" style="fill: rgb(174, 174, 174);" cx="503.3333333333322"/><ellipse cy="20" ry="20" rx="60" fill-opacity="0.2" style="fill: rgb(174, 174, 174);" cx="296.6666666666667"/><ellipse cy="20" ry="20" rx="60" fill-opacity="0.2" style="fill: rgb(174, 174, 174);" cx="106.6666666666666"/><ellipse cy="20" ry="20" rx="60" fill-opacity="0.2" style="fill: rgb(174, 174, 174);" cx="366.6666666666663"/><ellipse cy="20" ry="20" rx="60" fill-opacity="0.2" style="fill: rgb(174, 174, 174);" cx="574.6629886034251"/></g></g><g transform="translate(0,400)"><path fill="#454545" d="M0,0L28.629151568748057,0C57.258303137496114,0,114.51660627499223,0,151.4790911770736,-16.666666666666664C188.441576079155,-33.33333333333333,205.10824274582166,-66.66666666666666,221.7749094124883,-66.66666666666666C238.44157607915497,-66.66666666666666,255.10824274582166,-33.33333333333333,301.4790911770736,-16.666666666666664C347.84993960832554,0,423.92496980416274,0,461.96248490208137,0L500,0L500,500L461.96248490208137,499.99999999999994C423.92496980416274,500,347.84993960832554,500,301.4790911770736,499.99999999999994C255.10824274582166,500,238.44157607915497,500,221.7749094124883,499.99999999999994C205.10824274582166,500,188.441576079155,500,151.4790911770736,499.99999999999994C114.51660627499223,500,57.258303137496114,500,28.629151568748057,499.99999999999994L0,500Z"/><g filter="url(#blur)"><ellipse cy="20" ry="20" rx="60" fill-opacity="0.2" style="fill: rgb(157, 157, 157);" cx="372.0000000000005"/><ellipse cy="20" ry="20" rx="60" fill-opacity="0.2" style="fill: rgb(157, 157, 157);" cx="555.3732437581452"/><ellipse cy="20" ry="20" rx="60" fill-opacity="0.2" style="fill: rgb(157, 157, 157);" cx="-66.99999999999996"/><ellipse cy="20" ry="20" rx="60" fill-opacity="0.2" style="fill: rgb(157, 157, 157);" cx="105.3333333333334"/><ellipse cy="20" ry="20" rx="60" fill-opacity="0.2" style="fill: rgb(157, 157, 157);" cx="-85.33333333333331"/><ellipse cy="20" ry="20" rx="60" fill-opacity="0.2" style="fill: rgb(157, 157, 157);" cx="142.00000000000006"/><ellipse cy="20" ry="20" rx="60" fill-opacity="0.2" style="fill: rgb(157, 157, 157);" cx="358.3333333333336"/></g></g><g transform="translate(0,450)"><path fill="#343434" d="M0,0L-4.055894379659245,0C-8.11178875931849,0,-16.22357751863698,0,-11.946138564962892,-16.666666666666664C-7.668699611288805,-33.33333333333333,8.99796705537786,-66.66666666666666,25.664633722044528,-66.66666666666666C42.33130038871119,-66.66666666666666,58.997967055377856,-33.33333333333333,138.0538614350371,-16.666666666666664C217.10975581469634,0,358.55487790734816,0,429.27743895367405,0L500,0L500,500L429.27743895367405,499.99999999999994C358.55487790734816,500,217.10975581469634,500,138.05386143503708,499.99999999999994C58.997967055377856,500,42.33130038871119,500,25.664633722044528,499.99999999999994C8.99796705537786,500,-7.668699611288805,500,-11.946138564962892,499.99999999999994C-16.22357751863698,500,-8.11178875931849,500,-4.055894379659245,499.99999999999994L0,500Z"/></g></svg>