<?xml version="1.0" standalone="no"?><!DOCTYPE svg PUBLIC "-//W3C//DTD SVG 1.1//EN" "http://www.w3.org/Graphics/SVG/1.1/DTD/svg11.dtd"><svg width="500" height="500" style="background: rgb(209, 209, 209);" version="1.1" xmlns="http://www.w3.org/2000/svg" xmlns:xlink="http://www.w3.org/1999/xlink"><defs xmlns="http://www.w3.org/1999/xhtml"><style type="text/css"><![CDATA[
html, body { height: 100%; margin: 0px; background: rgb(34, 34, 34); }
body, #prev, #next { height: 100%; box-sizing: border-box; display: -webkit-flex; flex-direction: column; justify-content: center; }
#prev, #next { position: absolute; top: 0px; color: rgb(209, 209, 209); font-size: 70px; text-decoration: none; padding: 20px; }
#prev { left: 0px; }
#next { right: 0px; }
svg { margin: auto; }
.fa { display: inline-block; font-style: normal; font-variant: normal; font-weight: normal; font-stretch: normal; line-height: 1; font-family: FontAwesome; font-size: inherit; text-rendering: auto; -webkit-font-smoothing: antialiased; }
.fa-twitter::before { content: ''; }
.fa-github::before { content: ''; }
.fa-th::before { content: ''; }
footer { text-align: center; margin-bottom: 25px; }
a { color: rgb(209, 209, 209); text-decoration: none; padding: 10px; }]]></style></defs><filter id="blur" x="-100" y="-100" width="700" height="200" filterUnits="userSpaceOnUse"><feGaussianBlur stdDeviation="20" in="SourceAlpha"/></filter><g transform="translate(0,0)"><path fill="#d1d1d1" d="M0,0L42.26671643167113,0C84.53343286334226,0,169.0668657266845,0,219.66691549168897,-16.666666666666664C270.2669652566934,-33.33333333333333,286.9336319233601,-66.66666666666666,303.6002985900268,-66.66666666666666C320.2669652566934,-66.66666666666666,336.9336319233601,-33.33333333333333,369.666915491689,-16.666666666666664C402.4001990600178,0,451.2000995300089,0,475.6000497650044,0L500,0L500,500L475.6000497650044,499.99999999999994C451.2000995300089,500,402.4001990600178,500,369.666915491689,499.99999999999994C336.9336319233601,500,320.2669652566934,500,303.60029859002674,499.99999999999994C286.9336319233601,500,270.2669652566934,500,219.66691549168897,499.99999999999994C169.0668657266845,500,84.53343286334226,500,42.26671643167113,499.99999999999994L0,500Z"/><g filter="url(#blur)"><ellipse cy="20" ry="20" rx="60" fill="#d1d1d1" fill-opacity="0.2" cx="239.66870119329542"/><ellipse cy="20" ry="20" rx="60" fill="#d1d1d1" fill-opacity="0.2" cx="426.95020376704633"/><ellipse cy="20" ry="20" rx="60" fill="#d1d1d1" fill-opacity="0.2" cx="341.86147341970354"/><ellipse cy="20" ry="20" rx="60" fill="#d1d1d1" fill-opacity="0.2" cx="316.51468705385923"/><ellipse cy="20" ry="20" rx="60" fill="#d1d1d1" fill-opacity="0.2" cx="538.4943765355274"/><ellipse cy="20" ry="20" rx="60" fill="#d1d1d1" fill-opacity="0.2" cx="193.52979455143213"/><ellipse cy="20" ry="20" rx="60" fill="#d1d1d1" fill-opacity="0.2" cx="328.8287101313472"/></g></g><g transform="translate(0,50)"><path fill="#bebebe" d="M0,0L17.239674118657906,0C34.47934823731581,0,68.95869647463162,0,94.53170392662287,-16.666666666666664C120.1047113786141,-33.33333333333333,136.77137804528076,-66.66666666666666,153.43804471194744,-66.66666666666666C170.1047113786141,-66.66666666666666,186.77137804528076,-33.33333333333333,244.53170392662287,-16.666666666666664C302.2920298079649,0,401.14601490398246,0,450.5730074519912,0L500,0L500,500L450.5730074519912,499.99999999999994C401.14601490398246,500,302.2920298079649,500,244.53170392662284,499.99999999999994C186.77137804528076,500,170.1047113786141,500,153.43804471194744,499.99999999999994C136.77137804528076,500,120.1047113786141,500,94.53170392662287,499.99999999999994C68.95869647463162,500,34.47934823731581,500,17.239674118657906,499.99999999999994L0,500Z"/><g filter="url(#blur)"><ellipse cy="20" ry="20" rx="60" fill="#bebebe" fill-opacity="0.2" cx="202.86448915302944"/><ellipse cy="20" ry="20" rx="60" fill="#bebebe" fill-opacity="0.2" cx="78.38700372539458"/><ellipse cy="20" ry="20" rx="60" fill="#bebebe" fill-opacity="0.2" cx="435.3642557589299"/><ellipse cy="20" ry="20" rx="60" fill="#bebebe" fill-opacity="0.2" cx="101.03244833461909"/><ellipse cy="20" ry="20" rx="60" fill="#bebebe" fill-opacity="0.2" cx="574.7793948352406"/><ellipse cy="20" ry="20" rx="60" fill="#bebebe" fill-opacity="0.2" cx="448.77172595169014"/><ellipse cy="20" ry="20" rx="60" fill="#bebebe" fill-opacity="0.2" cx="186.19179169926946"/></g></g><g transform="translate(0,100)"><path fill="#ababab" d="M0,0L41.31695778341964,0C82.63391556683928,0,165.26783113367856,0,214.9181222504315,-16.666666666666664C264.56841336718446,-33.33333333333333,281.23508003385115,-66.66666666666666,297.90174670051783,-66.66666666666666C314.56841336718446,-66.66666666666666,331.23508003385115,-33.33333333333333,364.9181222504315,-16.666666666666664C398.60116446701187,0,449.3005822335059,0,474.65029111675295,0L500,0L500,500L474.65029111675295,499.99999999999994C449.3005822335059,500,398.60116446701187,500,364.9181222504315,499.99999999999994C331.23508003385115,500,314.56841336718446,500,297.90174670051783,499.99999999999994C281.23508003385115,500,264.56841336718446,500,214.9181222504315,499.99999999999994C165.26783113367856,500,82.63391556683928,500,41.31695778341964,499.99999999999994L0,500Z"/><g filter="url(#blur)"><ellipse cy="20" ry="20" rx="60" fill="#ababab" fill-opacity="0.2" cx="-11.333333333333172"/><ellipse cy="20" ry="20" rx="60" fill="#ababab" fill-opacity="0.2" cx="570.989745730533"/><ellipse cy="20" ry="20" rx="60" fill="#ababab" fill-opacity="0.2" cx="-70.66666666666646"/><ellipse cy="20" ry="20" rx="60" fill="#ababab" fill-opacity="0.2" cx="362.69505370036035"/><ellipse cy="20" ry="20" rx="60" fill="#ababab" fill-opacity="0.2" cx="372.65771568380603"/><ellipse cy="20" ry="20" rx="60" fill="#ababab" fill-opacity="0.2" cx="397.9991670148485"/><ellipse cy="20" ry="20" rx="60" fill="#ababab" fill-opacity="0.2" cx="-40.6666666666665"/></g></g><g transform="translate(0,150)"><path fill="#979797" d="M0,0L-4.857071027314911,0C-9.714142054629821,0,-19.428284109259643,0,-15.952021803241221,-16.666666666666664C-12.4757594972228,-33.33333333333333,4.190907169443866,-66.66666666666666,20.857573836110532,-66.66666666666666C37.5242405027772,-66.66666666666666,54.19090716944387,-33.33333333333333,134.04797819675878,-16.666666666666664C213.90504922407368,0,356.9525246120368,0,428.4762623060184,0L500,0L500,500L428.4762623060184,499.99999999999994C356.9525246120368,500,213.90504922407368,500,134.04797819675875,499.99999999999994C54.19090716944387,500,37.5242405027772,500,20.857573836110532,499.99999999999994C4.190907169443866,500,-12.4757594972228,500,-15.952021803241221,499.99999999999994C-19.428284109259643,500,-9.714142054629821,500,-4.857071027314911,499.99999999999994L0,500Z"/><g filter="url(#blur)"><ellipse cy="20" ry="20" rx="60" fill="#979797" fill-opacity="0.2" cx="566.5630754772574"/><ellipse cy="20" ry="20" rx="60" fill="#979797" fill-opacity="0.2" cx="342.19113073684275"/><ellipse cy="20" ry="20" rx="60" fill="#979797" fill-opacity="0.2" cx="315.8071742616594"/><ellipse cy="20" ry="20" rx="60" fill="#979797" fill-opacity="0.2" cx="271.6281767692417"/><ellipse cy="20" ry="20" rx="60" fill="#979797" fill-opacity="0.2" cx="113.44717207737267"/><ellipse cy="20" ry="20" rx="60" fill="#979797" fill-opacity="0.2" cx="29"/><ellipse cy="20" ry="20" rx="60" fill="#979797" fill-opacity="0.2" cx="525.422305659391"/></g></g><g transform="translate(0,200)"><path fill="#848484" d="M0,0L7.642777469785263,0C15.285554939570526,0,30.57110987914105,0,46.54722068225965,-16.666666666666664C62.52333148537824,-33.33333333333333,79.18999815204491,-66.66666666666666,95.85666481871158,-66.66666666666666C112.52333148537824,-66.66666666666666,129.18999815204492,-33.33333333333333,196.54722068225965,-16.666666666666664C263.90444321247435,0,381.9522216062372,0,440.97611080311856,0L500,0L500,500L440.97611080311856,499.99999999999994C381.9522216062372,500,263.90444321247435,500,196.54722068225962,499.99999999999994C129.18999815204492,500,112.52333148537824,500,95.85666481871156,499.99999999999994C79.18999815204491,500,62.52333148537824,500,46.54722068225965,499.99999999999994C30.57110987914105,500,15.285554939570526,500,7.642777469785263,499.99999999999994L0,500Z"/><g filter="url(#blur)"><ellipse cy="20" ry="20" rx="60" fill="#848484" fill-opacity="0.2" cx="389.2601377861564"/><ellipse cy="20" ry="20" rx="60" fill="#848484" fill-opacity="0.2" cx="171.61237383913254"/><ellipse cy="20" ry="20" rx="60" fill="#848484" fill-opacity="0.2" cx="399.42741515766716"/><ellipse cy="20" ry="20" rx="60" fill="#848484" fill-opacity="0.2" cx="166.66666666666666"/><ellipse cy="20" ry="20" rx="60" fill="#848484" fill-opacity="0.2" cx="341.2145276153455"/><ellipse cy="20" ry="20" rx="60" fill="#848484" fill-opacity="0.2" cx="-52.00000000000011"/><ellipse cy="20" ry="20" rx="60" fill="#848484" fill-opacity="0.2" cx="126.6666666666664"/></g></g><g transform="translate(0,250)"><path fill="#717171" d="M0,0L4.542718920856714,0C9.085437841713428,0,18.170875683426857,0,31.046927937616903,-16.666666666666664C43.92298019180695,-33.33333333333333,60.589646858473614,-66.66666666666666,77.25631352514029,-66.66666666666666C93.92298019180694,-66.66666666666666,110.5896468584736,-33.33333333333333,181.04692793761689,-16.666666666666664C251.50420901676017,0,375.75210450838006,0,437.87605225419003,0L500,0L500,500L437.87605225419003,499.99999999999994C375.75210450838006,500,251.50420901676017,500,181.0469279376169,499.99999999999994C110.5896468584736,500,93.92298019180694,500,77.25631352514029,499.99999999999994C60.589646858473614,500,43.92298019180695,500,31.046927937616903,499.99999999999994C18.170875683426857,500,9.085437841713428,500,4.542718920856714,499.99999999999994L0,500Z"/><g filter="url(#blur)"><ellipse cy="20" ry="20" rx="60" fill="#717171" fill-opacity="0.2" cx="267.5726530747483"/><ellipse cy="20" ry="20" rx="60" fill="#717171" fill-opacity="0.2" cx="512.4511617142731"/><ellipse cy="20" ry="20" rx="60" fill="#717171" fill-opacity="0.2" cx="558.7786517478542"/><ellipse cy="20" ry="20" rx="60" fill="#717171" fill-opacity="0.2" cx="303.5713186860084"/><ellipse cy="20" ry="20" rx="60" fill="#717171" fill-opacity="0.2" cx="163.33333333333334"/><ellipse cy="20" ry="20" rx="60" fill="#717171" fill-opacity="0.2" cx="592.7378110028814"/><ellipse cy="20" ry="20" rx="60" fill="#717171" fill-opacity="0.2" cx="-31.66666666666661"/></g></g><g transform="translate(0,300)"><path fill="#5e5e5e" d="M0,0L26.982142966395863,0C53.964285932791725,0,107.92857186558345,0,143.24404816531265,-16.666666666666664C178.55952446504185,-33.33333333333333,195.2261911317085,-66.66666666666666,211.8928577983752,-66.66666666666666C228.55952446504185,-66.66666666666666,245.2261911317085,-33.33333333333333,293.2440481653126,-16.666666666666664C341.2619051989168,0,420.6309525994584,0,460.31547629972914,0L500,0L500,500L460.31547629972914,499.99999999999994C420.6309525994584,500,341.2619051989168,500,293.2440481653126,499.99999999999994C245.2261911317085,500,228.55952446504185,500,211.89285779837516,499.99999999999994C195.2261911317085,500,178.55952446504185,500,143.24404816531265,499.99999999999994C107.92857186558345,500,53.964285932791725,500,26.982142966395863,499.99999999999994L0,500Z"/><g filter="url(#blur)"><ellipse cy="20" ry="20" rx="60" fill="#5e5e5e" fill-opacity="0.2" cx="172"/><ellipse cy="20" ry="20" rx="60" fill="#5e5e5e" fill-opacity="0.2" cx="383.8707932950929"/><ellipse cy="20" ry="20" rx="60" fill="#5e5e5e" fill-opacity="0.2" cx="395.1654671439901"/><ellipse cy="20" ry="20" rx="60" fill="#5e5e5e" fill-opacity="0.2" cx="254"/><ellipse cy="20" ry="20" rx="60" fill="#5e5e5e" fill-opacity="0.2" cx="10"/><ellipse cy="20" ry="20" rx="60" fill="#5e5e5e" fill-opacity="0.2" cx="329.9555642744526"/><ellipse cy="20" ry="20" rx="60" fill="#5e5e5e" fill-opacity="0.2" cx="192"/></g></g><g transform="translate(0,350)"><path fill="#4b4b4b" d="M0,0L59.82838977361098,0C119.65677954722196,0,239.31355909444392,0,307.4752822013882,-16.666666666666664C375.6370053083325,-33.33333333333333,392.3036719749992,-66.66666666666666,408.9703386416659,-66.66666666666666C425.6370053083325,-66.66666666666666,442.30367197499913,-33.33333333333333,457.47528220138815,-16.666666666666664C472.6468924277772,0,486.3234462138886,0,493.1617231069443,0L500,0L500,500L493.16172310694424,499.99999999999994C486.3234462138886,500,472.6468924277772,500,457.47528220138815,499.99999999999994C442.30367197499913,500,425.6370053083325,500,408.9703386416659,499.99999999999994C392.3036719749992,500,375.6370053083325,500,307.4752822013882,499.99999999999994C239.31355909444392,500,119.65677954722196,500,59.82838977361098,499.99999999999994L0,500Z"/><g filter="url(#blur)"><ellipse cy="20" ry="20" rx="60" fill="#4b4b4b" fill-opacity="0.2" cx="217.33333333333354"/><ellipse cy="20" ry="20" rx="60" fill="#4b4b4b" fill-opacity="0.2" cx="37.66666666666662"/><ellipse cy="20" ry="20" rx="60" fill="#4b4b4b" fill-opacity="0.2" cx="11.99999999999996"/><ellipse cy="20" ry="20" rx="60" fill="#4b4b4b" fill-opacity="0.2" cx="466.56034947931636"/><ellipse cy="20" ry="20" rx="60" fill="#4b4b4b" fill-opacity="0.2" cx="112.33333333333321"/><ellipse cy="20" ry="20" rx="60" fill="#4b4b4b" fill-opacity="0.2" cx="486.32424781657613"/><ellipse cy="20" ry="20" rx="60" fill="#4b4b4b" fill-opacity="0.2" cx="212.66666666666686"/></g></g><g transform="translate(0,400)"><path fill="#373737" d="M0,0L7.661864906549454,0C15.323729813098907,0,30.647459626197815,0,46.6426578660806,-16.666666666666664C62.63785610596339,-33.33333333333333,79.30452277263005,-66.66666666666666,95.97118943929672,-66.66666666666666C112.63785610596338,-66.66666666666666,129.30452277263004,-33.33333333333333,196.64265786608058,-16.666666666666664C263.98079295953113,0,381.99039647976554,0,440.99519823988277,0L500,0L500,500L440.99519823988277,499.99999999999994C381.99039647976554,500,263.98079295953113,500,196.6426578660806,499.99999999999994C129.30452277263004,500,112.63785610596338,500,95.97118943929672,499.99999999999994C79.30452277263005,500,62.63785610596339,500,46.6426578660806,499.99999999999994C30.647459626197815,500,15.323729813098907,500,7.661864906549454,499.99999999999994L0,500Z"/><g filter="url(#blur)"><ellipse cy="20" ry="20" rx="60" fill="#373737" fill-opacity="0.2" cx="412.0000000000008"/><ellipse cy="20" ry="20" rx="60" fill="#373737" fill-opacity="0.2" cx="1.3333333333333708"/><ellipse cy="20" ry="20" rx="60" fill="#373737" fill-opacity="0.2" cx="281.3333333333332"/><ellipse cy="20" ry="20" rx="60" fill="#373737" fill-opacity="0.2" cx="60.000000000000014"/><ellipse cy="20" ry="20" rx="60" fill="#373737" fill-opacity="0.2" cx="97.3333333333334"/><ellipse cy="20" ry="20" rx="60" fill="#373737" fill-opacity="0.2" cx="278.6666666666665"/><ellipse cy="20" ry="20" rx="60" fill="#373737" fill-opacity="0.2" cx="22.666666666666703"/></g></g><g transform="translate(0,450)"><path fill="#242424" d="M0,0L37.77563597929353,0C75.55127195858707,0,151.10254391717413,0,197.211513229801,-16.666666666666664C243.32048254242787,-33.33333333333333,259.9871492090945,-66.66666666666666,276.6538158757612,-66.66666666666666C293.32048254242784,-66.66666666666666,309.9871492090945,-33.33333333333333,347.21151322980097,-16.666666666666664C384.4358772505075,0,442.21793862525374,0,471.1089693126268,0L500,0L500,500L471.1089693126268,499.99999999999994C442.21793862525374,500,384.4358772505075,500,347.21151322980097,499.99999999999994C309.9871492090945,500,293.32048254242784,500,276.6538158757612,499.99999999999994C259.9871492090945,500,243.32048254242787,500,197.211513229801,499.99999999999994C151.10254391717413,500,75.55127195858707,500,37.77563597929353,499.99999999999994L0,500Z"/><g filter="url(#blur)"><ellipse cy="20" ry="20" rx="60" fill="#242424" fill-opacity="0.2" cx="260"/><ellipse cy="20" ry="20" rx="60" fill="#242424" fill-opacity="0.2" cx="308"/><ellipse cy="20" ry="20" rx="60" fill="#242424" fill-opacity="0.2" cx="-97"/><ellipse cy="20" ry="20" rx="60" fill="#242424" fill-opacity="0.2" cx="323"/><ellipse cy="20" ry="20" rx="60" fill="#242424" fill-opacity="0.2" cx="50"/><ellipse cy="20" ry="20" rx="60" fill="#242424" fill-opacity="0.2" cx="523.0692554935813"/><ellipse cy="20" ry="20" rx="60" fill="#242424" fill-opacity="0.2" cx="311"/></g></g></svg>