<?xml version="1.0" standalone="no"?><!DOCTYPE svg PUBLIC "-//W3C//DTD SVG 1.1//EN" "http://www.w3.org/Graphics/SVG/1.1/DTD/svg11.dtd"><svg width="500" height="500" style="background: rgb(136, 136, 136);" version="1.1" xmlns="http://www.w3.org/2000/svg" xmlns:xlink="http://www.w3.org/1999/xlink"><defs xmlns="http://www.w3.org/1999/xhtml"><style type="text/css"><![CDATA[
html, body { height: 100%; margin: 0px; background: rgb(34, 34, 34); }
body, #prev, #next { height: 100%; box-sizing: border-box; display: -webkit-flex; flex-direction: column; justify-content: center; }
#prev, #next { position: absolute; top: 0px; color: rgb(209, 209, 209); font-size: 70px; text-decoration: none; padding: 20px; }
#prev { left: 0px; }
#next { right: 0px; }
svg { margin: auto; }
.fa { display: inline-block; font-style: normal; font-variant: normal; font-weight: normal; font-stretch: normal; line-height: 1; font-family: FontAwesome; font-size: inherit; text-rendering: auto; -webkit-font-smoothing: antialiased; }
.fa-twitter::before { content: ''; }
.fa-github::before { content: ''; }
.fa-th::before { content: ''; }
footer { text-align: center; margin-bottom: 25px; }
a { color: rgb(209, 209, 209); text-decoration: none; padding: 10px; }]]></style></defs><g transform="rotate(-25,250,250)"><linearGradient id="gradient0" x1="0%" x2="100%" y1="5%" y2="0%"><stop offset="0.9" stop-color="#d1d1d1"/><stop offset="1" stop-color="#444"/></linearGradient><linearGradient id="gradient1" x1="0%" x2="100%" y1="5%" y2="0%"><stop offset="0.9" stop-color="#333"/><stop offset="1" stop-color="#111"/></linearGradient><g transform="translate(-191.7848549326277,-83)"><path fill="#d1d1d1" transform="translate(500)scale(-1 1)" d="M-300,0 L180,0 Q220,0 250,12.5 L250,12.5 Q220,25 180,25 L-300,25 Z"/><path fill="url(#gradient1)" transform="" d="M-300,0 L180,0 Q220,0 250,12.5 L250,12.5 Q220,25 180,25 L-300,25 Z"/></g><g transform="translate(-126.25332757446432,-63)"><path fill="#333" transform="translate(500)scale(-1 1)" d="M-300,0 L180,0 Q220,0 250,12.5 L250,12.5 Q220,25 180,25 L-300,25 Z"/><path fill="url(#gradient0)" transform="" d="M-300,0 L180,0 Q220,0 250,12.5 L250,12.5 Q220,25 180,25 L-300,25 Z"/></g><g transform="translate(-16.61788056349928,-43)"><path fill="#d1d1d1" transform="translate(500)scale(-1 1)" d="M-300,0 L180,0 Q220,0 250,12.5 L250,12.5 Q220,25 180,25 L-300,25 Z"/><path fill="url(#gradient1)" transform="" d="M-300,0 L180,0 Q220,0 250,12.5 L250,12.5 Q220,25 180,25 L-300,25 Z"/></g><g transform="translate(98.82267022772163,-23)"><path fill="#333" transform="translate(500)scale(-1 1)" d="M-300,0 L180,0 Q220,0 250,12.5 L250,12.5 Q220,25 180,25 L-300,25 Z"/><path fill="url(#gradient0)" transform="" d="M-300,0 L180,0 Q220,0 250,12.5 L250,12.5 Q220,25 180,25 L-300,25 Z"/></g><g transform="translate(179.74161916232538,-3)"><path fill="#d1d1d1" transform="translate(500)scale(-1 1)" d="M-300,0 L180,0 Q220,0 250,12.5 L250,12.5 Q220,25 180,25 L-300,25 Z"/><path fill="url(#gradient1)" transform="" d="M-300,0 L180,0 Q220,0 250,12.5 L250,12.5 Q220,25 180,25 L-300,25 Z"/></g><g transform="translate(197.87164932467635,17)"><path fill="#333" transform="translate(500)scale(-1 1)" d="M-300,0 L180,0 Q220,0 250,12.5 L250,12.5 Q220,25 180,25 L-300,25 Z"/><path fill="url(#gradient0)" transform="" d="M-300,0 L180,0 Q220,0 250,12.5 L250,12.5 Q220,25 180,25 L-300,25 Z"/></g><g transform="translate(146.8794195748227,37)"><path fill="#d1d1d1" transform="translate(500)scale(-1 1)" d="M-300,0 L180,0 Q220,0 250,12.5 L250,12.5 Q220,25 180,25 L-300,25 Z"/><path fill="url(#gradient1)" transform="" d="M-300,0 L180,0 Q220,0 250,12.5 L250,12.5 Q220,25 180,25 L-300,25 Z"/></g><g transform="translate(44.57798282004953,57)"><path fill="#333" transform="translate(500)scale(-1 1)" d="M-300,0 L180,0 Q220,0 250,12.5 L250,12.5 Q220,25 180,25 L-300,25 Z"/><path fill="url(#gradient0)" transform="" d="M-300,0 L180,0 Q220,0 250,12.5 L250,12.5 Q220,25 180,25 L-300,25 Z"/></g><g transform="translate(-73.29582585038568,77)"><path fill="#d1d1d1" transform="translate(500)scale(-1 1)" d="M-300,0 L180,0 Q220,0 250,12.5 L250,12.5 Q220,25 180,25 L-300,25 Z"/><path fill="url(#gradient1)" transform="" d="M-300,0 L180,0 Q220,0 250,12.5 L250,12.5 Q220,25 180,25 L-300,25 Z"/></g><g transform="translate(-165.56529381713054,97)"><path fill="#333" transform="translate(500)scale(-1 1)" d="M-300,0 L180,0 Q220,0 250,12.5 L250,12.5 Q220,25 180,25 L-300,25 Z"/><path fill="url(#gradient0)" transform="" d="M-300,0 L180,0 Q220,0 250,12.5 L250,12.5 Q220,25 180,25 L-300,25 Z"/></g><g transform="translate(-199.9980413101407,117)"><path fill="#d1d1d1" transform="translate(500)scale(-1 1)" d="M-300,0 L180,0 Q220,0 250,12.5 L250,12.5 Q220,25 180,25 L-300,25 Z"/><path fill="url(#gradient1)" transform="" d="M-300,0 L180,0 Q220,0 250,12.5 L250,12.5 Q220,25 180,25 L-300,25 Z"/></g><g transform="translate(-164.56571899374177,137)"><path fill="#333" transform="translate(500)scale(-1 1)" d="M-300,0 L180,0 Q220,0 250,12.5 L250,12.5 Q220,25 180,25 L-300,25 Z"/><path fill="url(#gradient0)" transform="" d="M-300,0 L180,0 Q220,0 250,12.5 L250,12.5 Q220,25 180,25 L-300,25 Z"/></g><g transform="translate(-71.64585644736574,157)"><path fill="#d1d1d1" transform="translate(500)scale(-1 1)" d="M-300,0 L180,0 Q220,0 250,12.5 L250,12.5 Q220,25 180,25 L-300,25 Z"/><path fill="url(#gradient1)" transform="" d="M-300,0 L180,0 Q220,0 250,12.5 L250,12.5 Q220,25 180,25 L-300,25 Z"/></g><g transform="translate(46.30196502030779,177)"><path fill="#333" transform="translate(500)scale(-1 1)" d="M-300,0 L180,0 Q220,0 250,12.5 L250,12.5 Q220,25 180,25 L-300,25 Z"/><path fill="url(#gradient0)" transform="" d="M-300,0 L180,0 Q220,0 250,12.5 L250,12.5 Q220,25 180,25 L-300,25 Z"/></g><g transform="translate(148.07517799048972,197)"><path fill="#d1d1d1" transform="translate(500)scale(-1 1)" d="M-300,0 L180,0 Q220,0 250,12.5 L250,12.5 Q220,25 180,25 L-300,25 Z"/><path fill="url(#gradient1)" transform="" d="M-300,0 L180,0 Q220,0 250,12.5 L250,12.5 Q220,25 180,25 L-300,25 Z"/></g><g transform="translate(198.12147113897407,217)"><path fill="#333" transform="translate(500)scale(-1 1)" d="M-300,0 L180,0 Q220,0 250,12.5 L250,12.5 Q220,25 180,25 L-300,25 Z"/><path fill="url(#gradient0)" transform="" d="M-300,0 L180,0 Q220,0 250,12.5 L250,12.5 Q220,25 180,25 L-300,25 Z"/></g><g transform="translate(178.95823442810084,237)"><path fill="#d1d1d1" transform="translate(500)scale(-1 1)" d="M-300,0 L180,0 Q220,0 250,12.5 L250,12.5 Q220,25 180,25 L-300,25 Z"/><path fill="url(#gradient1)" transform="" d="M-300,0 L180,0 Q220,0 250,12.5 L250,12.5 Q220,25 180,25 L-300,25 Z"/></g><g transform="translate(97.27973777075995,257)"><path fill="#333" transform="translate(500)scale(-1 1)" d="M-300,0 L180,0 Q220,0 250,12.5 L250,12.5 Q220,25 180,25 L-300,25 Z"/><path fill="url(#gradient0)" transform="" d="M-300,0 L180,0 Q220,0 250,12.5 L250,12.5 Q220,25 180,25 L-300,25 Z"/></g><g transform="translate(-18.381370045535974,277)"><path fill="#d1d1d1" transform="translate(500)scale(-1 1)" d="M-300,0 L180,0 Q220,0 250,12.5 L250,12.5 Q220,25 180,25 L-300,25 Z"/><path fill="url(#gradient1)" transform="" d="M-300,0 L180,0 Q220,0 250,12.5 L250,12.5 Q220,25 180,25 L-300,25 Z"/></g><g transform="translate(-127.62133646958948,297)"><path fill="#333" transform="translate(500)scale(-1 1)" d="M-300,0 L180,0 Q220,0 250,12.5 L250,12.5 Q220,25 180,25 L-300,25 Z"/><path fill="url(#gradient0)" transform="" d="M-300,0 L180,0 Q220,0 250,12.5 L250,12.5 Q220,25 180,25 L-300,25 Z"/></g><g transform="translate(-192.27949837591137,317)"><path fill="#d1d1d1" transform="translate(500)scale(-1 1)" d="M-300,0 L180,0 Q220,0 250,12.5 L250,12.5 Q220,25 180,25 L-300,25 Z"/><path fill="url(#gradient1)" transform="" d="M-300,0 L180,0 Q220,0 250,12.5 L250,12.5 Q220,25 180,25 L-300,25 Z"/></g><g transform="translate(-189.7688995836248,337)"><path fill="#333" transform="translate(500)scale(-1 1)" d="M-300,0 L180,0 Q220,0 250,12.5 L250,12.5 Q220,25 180,25 L-300,25 Z"/><path fill="url(#gradient0)" transform="" d="M-300,0 L180,0 Q220,0 250,12.5 L250,12.5 Q220,25 180,25 L-300,25 Z"/></g><g transform="translate(-120.96656448125682,357)"><path fill="#d1d1d1" transform="translate(500)scale(-1 1)" d="M-300,0 L180,0 Q220,0 250,12.5 L250,12.5 Q220,25 180,25 L-300,25 Z"/><path fill="url(#gradient1)" transform="" d="M-300,0 L180,0 Q220,0 250,12.5 L250,12.5 Q220,25 180,25 L-300,25 Z"/></g><g transform="translate(-9.907128175674194,377)"><path fill="#333" transform="translate(500)scale(-1 1)" d="M-300,0 L180,0 Q220,0 250,12.5 L250,12.5 Q220,25 180,25 L-300,25 Z"/><path fill="url(#gradient0)" transform="" d="M-300,0 L180,0 Q220,0 250,12.5 L250,12.5 Q220,25 180,25 L-300,25 Z"/></g><g transform="translate(104.61315303153928,397)"><path fill="#d1d1d1" transform="translate(500)scale(-1 1)" d="M-300,0 L180,0 Q220,0 250,12.5 L250,12.5 Q220,25 180,25 L-300,25 Z"/><path fill="url(#gradient1)" transform="" d="M-300,0 L180,0 Q220,0 250,12.5 L250,12.5 Q220,25 180,25 L-300,25 Z"/></g><g transform="translate(182.58905014552553,417)"><path fill="#333" transform="translate(500)scale(-1 1)" d="M-300,0 L180,0 Q220,0 250,12.5 L250,12.5 Q220,25 180,25 L-300,25 Z"/><path fill="url(#gradient0)" transform="" d="M-300,0 L180,0 Q220,0 250,12.5 L250,12.5 Q220,25 180,25 L-300,25 Z"/></g><g transform="translate(196.78133892372324,437)"><path fill="#d1d1d1" transform="translate(500)scale(-1 1)" d="M-300,0 L180,0 Q220,0 250,12.5 L250,12.5 Q220,25 180,25 L-300,25 Z"/><path fill="url(#gradient1)" transform="" d="M-300,0 L180,0 Q220,0 250,12.5 L250,12.5 Q220,25 180,25 L-300,25 Z"/></g><g transform="translate(142.2322445811965,457)"><path fill="#333" transform="translate(500)scale(-1 1)" d="M-300,0 L180,0 Q220,0 250,12.5 L250,12.5 Q220,25 180,25 L-300,25 Z"/><path fill="url(#gradient0)" transform="" d="M-300,0 L180,0 Q220,0 250,12.5 L250,12.5 Q220,25 180,25 L-300,25 Z"/></g><g transform="translate(37.99733515908755,477)"><path fill="#d1d1d1" transform="translate(500)scale(-1 1)" d="M-300,0 L180,0 Q220,0 250,12.5 L250,12.5 Q220,25 180,25 L-300,25 Z"/><path fill="url(#gradient1)" transform="" d="M-300,0 L180,0 Q220,0 250,12.5 L250,12.5 Q220,25 180,25 L-300,25 Z"/></g><g transform="translate(-79.51113662428658,497)"><path fill="#333" transform="translate(500)scale(-1 1)" d="M-300,0 L180,0 Q220,0 250,12.5 L250,12.5 Q220,25 180,25 L-300,25 Z"/><path fill="url(#gradient0)" transform="" d="M-300,0 L180,0 Q220,0 250,12.5 L250,12.5 Q220,25 180,25 L-300,25 Z"/></g><g transform="translate(-169.24408083503414,517)"><path fill="#d1d1d1" transform="translate(500)scale(-1 1)" d="M-300,0 L180,0 Q220,0 250,12.5 L250,12.5 Q220,25 180,25 L-300,25 Z"/><path fill="url(#gradient1)" transform="" d="M-300,0 L180,0 Q220,0 250,12.5 L250,12.5 Q220,25 180,25 L-300,25 Z"/></g><g transform="translate(-199.85519842732555,537)"><path fill="#333" transform="translate(500)scale(-1 1)" d="M-300,0 L180,0 Q220,0 250,12.5 L250,12.5 Q220,25 180,25 L-300,25 Z"/><path fill="url(#gradient0)" transform="" d="M-300,0 L180,0 Q220,0 250,12.5 L250,12.5 Q220,25 180,25 L-300,25 Z"/></g><g transform="translate(-160.65114533879094,557)"><path fill="#d1d1d1" transform="translate(500)scale(-1 1)" d="M-300,0 L180,0 Q220,0 250,12.5 L250,12.5 Q220,25 180,25 L-300,25 Z"/><path fill="url(#gradient1)" transform="" d="M-300,0 L180,0 Q220,0 250,12.5 L250,12.5 Q220,25 180,25 L-300,25 Z"/></g></g></svg>