<?xml version="1.0" standalone="no"?><!DOCTYPE svg PUBLIC "-//W3C//DTD SVG 1.1//EN" "http://www.w3.org/Graphics/SVG/1.1/DTD/svg11.dtd"><svg width="500" height="500" style="background: rgb(17, 17, 17);" version="1.1" xmlns="http://www.w3.org/2000/svg" xmlns:xlink="http://www.w3.org/1999/xlink"><defs xmlns="http://www.w3.org/1999/xhtml"><style type="text/css"><![CDATA[
html, body { height: 100%; margin: 0px; background: rgb(34, 34, 34); }
body, #prev, #next { height: 100%; box-sizing: border-box; display: -webkit-flex; flex-direction: column; justify-content: center; }
#prev, #next { position: absolute; top: 0px; color: rgb(209, 209, 209); font-size: 70px; text-decoration: none; padding: 20px; }
#prev { left: 0px; }
#next { right: 0px; }
svg { margin: auto; }
.fa { display: inline-block; font-style: normal; font-variant: normal; font-weight: normal; font-stretch: normal; line-height: 1; font-family: FontAwesome; font-size: inherit; text-rendering: auto; -webkit-font-smoothing: antialiased; }
.fa-twitter::before { content: ''; }
.fa-github::before { content: ''; }
.fa-th::before { content: ''; }
footer { text-align: center; margin-bottom: 25px; }
a { color: rgb(209, 209, 209); text-decoration: none; padding: 10px; }]]></style></defs><clipPath id="clip"><rect x="0" y="0" width="50" height="50"/></clipPath><g clip-path="url(#clip)" transform="translate(0,0)"><circle r="36" fill="#d1d1d1" cx="-40" cy="-40"/><circle r="24" fill="#888" cx="-40" cy="-40"/><circle r="12" fill="#111" cx="-40" cy="-40"/></g><g clip-path="url(#clip)" transform="translate(50,0)"><circle r="36" fill="#d1d1d1" cx="-7.079999999999998" cy="-18.053333333333335"/><circle r="24" fill="#888" cx="-7.079999999999998" cy="-18.053333333333335"/><circle r="12" fill="#111" cx="-7.079999999999998" cy="-18.053333333333335"/></g><g clip-path="url(#clip)" transform="translate(100,0)"><circle r="36" fill="#d1d1d1" cx="25.840000000000003" cy="3.893333333333331"/><circle r="24" fill="#888" cx="25.840000000000003" cy="3.893333333333331"/><circle r="12" fill="#111" cx="25.840000000000003" cy="3.893333333333331"/></g><g clip-path="url(#clip)" transform="translate(150,0)"><circle r="36" fill="#d1d1d1" cx="58.760000000000005" cy="25.840000000000003"/><circle r="24" fill="#888" cx="58.760000000000005" cy="25.840000000000003"/><circle r="12" fill="#111" cx="58.760000000000005" cy="25.840000000000003"/></g><g clip-path="url(#clip)" transform="translate(200,0)"><circle r="36" fill="#d1d1d1" cx="-38.31999999999999" cy="47.78666666666666"/><circle r="24" fill="#888" cx="-38.31999999999999" cy="47.78666666666666"/><circle r="12" fill="#111" cx="-38.31999999999999" cy="47.78666666666666"/></g><g clip-path="url(#clip)" transform="translate(250,0)"><circle r="36" fill="#d1d1d1" cx="-5.400000000000006" cy="69.73333333333333"/><circle r="24" fill="#888" cx="-5.400000000000006" cy="69.73333333333333"/><circle r="12" fill="#111" cx="-5.400000000000006" cy="69.73333333333333"/></g><g clip-path="url(#clip)" transform="translate(300,0)"><circle r="36" fill="#d1d1d1" cx="27.52000000000001" cy="-38.31999999999999"/><circle r="24" fill="#888" cx="27.52000000000001" cy="-38.31999999999999"/><circle r="12" fill="#111" cx="27.52000000000001" cy="-38.31999999999999"/></g><g clip-path="url(#clip)" transform="translate(350,0)"><circle r="36" fill="#d1d1d1" cx="60.44" cy="-16.373333333333335"/><circle r="24" fill="#888" cx="60.44" cy="-16.373333333333335"/><circle r="12" fill="#111" cx="60.44" cy="-16.373333333333335"/></g><g clip-path="url(#clip)" transform="translate(400,0)"><circle r="36" fill="#d1d1d1" cx="-36.639999999999986" cy="5.5733333333333235"/><circle r="24" fill="#888" cx="-36.639999999999986" cy="5.5733333333333235"/><circle r="12" fill="#111" cx="-36.639999999999986" cy="5.5733333333333235"/></g><g clip-path="url(#clip)" transform="translate(450,0)"><circle r="36" fill="#d1d1d1" cx="-3.7200000000000273" cy="27.52000000000001"/><circle r="24" fill="#888" cx="-3.7200000000000273" cy="27.52000000000001"/><circle r="12" fill="#111" cx="-3.7200000000000273" cy="27.52000000000001"/></g><g clip-path="url(#clip)" transform="translate(0,50)"><circle r="36" fill="#d1d1d1" cx="29.19999999999999" cy="49.46666666666667"/><circle r="24" fill="#888" cx="29.19999999999999" cy="49.46666666666667"/><circle r="12" fill="#111" cx="29.19999999999999" cy="49.46666666666667"/></g><g clip-path="url(#clip)" transform="translate(50,50)"><circle r="36" fill="#d1d1d1" cx="62.120000000000005" cy="71.41333333333333"/><circle r="24" fill="#888" cx="62.120000000000005" cy="71.41333333333333"/><circle r="12" fill="#111" cx="62.120000000000005" cy="71.41333333333333"/></g><g clip-path="url(#clip)" transform="translate(100,50)"><circle r="36" fill="#d1d1d1" cx="-34.95999999999998" cy="-36.639999999999986"/><circle r="24" fill="#888" cx="-34.95999999999998" cy="-36.639999999999986"/><circle r="12" fill="#111" cx="-34.95999999999998" cy="-36.639999999999986"/></g><g clip-path="url(#clip)" transform="translate(150,50)"><circle r="36" fill="#d1d1d1" cx="-2.0400000000000205" cy="-14.693333333333328"/><circle r="24" fill="#888" cx="-2.0400000000000205" cy="-14.693333333333328"/><circle r="12" fill="#111" cx="-2.0400000000000205" cy="-14.693333333333328"/></g><g clip-path="url(#clip)" transform="translate(200,50)"><circle r="36" fill="#d1d1d1" cx="30.879999999999995" cy="7.25333333333333"/><circle r="24" fill="#888" cx="30.879999999999995" cy="7.25333333333333"/><circle r="12" fill="#111" cx="30.879999999999995" cy="7.25333333333333"/></g><g clip-path="url(#clip)" transform="translate(250,50)"><circle r="36" fill="#d1d1d1" cx="63.80000000000001" cy="29.19999999999999"/><circle r="24" fill="#888" cx="63.80000000000001" cy="29.19999999999999"/><circle r="12" fill="#111" cx="63.80000000000001" cy="29.19999999999999"/></g><g clip-path="url(#clip)" transform="translate(300,50)"><circle r="36" fill="#d1d1d1" cx="-33.27999999999997" cy="51.14666666666665"/><circle r="24" fill="#888" cx="-33.27999999999997" cy="51.14666666666665"/><circle r="12" fill="#111" cx="-33.27999999999997" cy="51.14666666666665"/></g><g clip-path="url(#clip)" transform="translate(350,50)"><circle r="36" fill="#d1d1d1" cx="-0.36000000000001364" cy="73.0933333333333"/><circle r="24" fill="#888" cx="-0.36000000000001364" cy="73.0933333333333"/><circle r="12" fill="#111" cx="-0.36000000000001364" cy="73.0933333333333"/></g><g clip-path="url(#clip)" transform="translate(400,50)"><circle r="36" fill="#d1d1d1" cx="32.559999999999945" cy="-34.95999999999998"/><circle r="24" fill="#888" cx="32.559999999999945" cy="-34.95999999999998"/><circle r="12" fill="#111" cx="32.559999999999945" cy="-34.95999999999998"/></g><g clip-path="url(#clip)" transform="translate(450,50)"><circle r="36" fill="#d1d1d1" cx="65.48000000000002" cy="-13.013333333333321"/><circle r="24" fill="#888" cx="65.48000000000002" cy="-13.013333333333321"/><circle r="12" fill="#111" cx="65.48000000000002" cy="-13.013333333333321"/></g><g clip-path="url(#clip)" transform="translate(0,100)"><circle r="36" fill="#d1d1d1" cx="-31.600000000000023" cy="8.933333333333337"/><circle r="24" fill="#888" cx="-31.600000000000023" cy="8.933333333333337"/><circle r="12" fill="#111" cx="-31.600000000000023" cy="8.933333333333337"/></g><g clip-path="url(#clip)" transform="translate(50,100)"><circle r="36" fill="#d1d1d1" cx="1.32000000000005" cy="30.879999999999995"/><circle r="24" fill="#888" cx="1.32000000000005" cy="30.879999999999995"/><circle r="12" fill="#111" cx="1.32000000000005" cy="30.879999999999995"/></g><g clip-path="url(#clip)" transform="translate(100,100)"><circle r="36" fill="#d1d1d1" cx="34.24000000000001" cy="52.826666666666654"/><circle r="24" fill="#888" cx="34.24000000000001" cy="52.826666666666654"/><circle r="12" fill="#111" cx="34.24000000000001" cy="52.826666666666654"/></g><g clip-path="url(#clip)" transform="translate(150,100)"><circle r="36" fill="#d1d1d1" cx="67.15999999999997" cy="74.77333333333331"/><circle r="24" fill="#888" cx="67.15999999999997" cy="74.77333333333331"/><circle r="12" fill="#111" cx="67.15999999999997" cy="74.77333333333331"/></g><g clip-path="url(#clip)" transform="translate(200,100)"><circle r="36" fill="#d1d1d1" cx="-29.91999999999996" cy="-33.27999999999997"/><circle r="24" fill="#888" cx="-29.91999999999996" cy="-33.27999999999997"/><circle r="12" fill="#111" cx="-29.91999999999996" cy="-33.27999999999997"/></g><g clip-path="url(#clip)" transform="translate(250,100)"><circle r="36" fill="#d1d1d1" cx="3" cy="-11.333333333333371"/><circle r="24" fill="#888" cx="3" cy="-11.333333333333371"/><circle r="12" fill="#111" cx="3" cy="-11.333333333333371"/></g><g clip-path="url(#clip)" transform="translate(300,100)"><circle r="36" fill="#d1d1d1" cx="35.91999999999996" cy="10.613333333333344"/><circle r="24" fill="#888" cx="35.91999999999996" cy="10.613333333333344"/><circle r="12" fill="#111" cx="35.91999999999996" cy="10.613333333333344"/></g><g clip-path="url(#clip)" transform="translate(350,100)"><circle r="36" fill="#d1d1d1" cx="68.84000000000003" cy="32.559999999999945"/><circle r="24" fill="#888" cx="68.84000000000003" cy="32.559999999999945"/><circle r="12" fill="#111" cx="68.84000000000003" cy="32.559999999999945"/></g><g clip-path="url(#clip)" transform="translate(400,100)"><circle r="36" fill="#d1d1d1" cx="-28.24000000000001" cy="54.50666666666666"/><circle r="24" fill="#888" cx="-28.24000000000001" cy="54.50666666666666"/><circle r="12" fill="#111" cx="-28.24000000000001" cy="54.50666666666666"/></g><g clip-path="url(#clip)" transform="translate(450,100)"><circle r="36" fill="#d1d1d1" cx="4.67999999999995" cy="76.45333333333338"/><circle r="24" fill="#888" cx="4.67999999999995" cy="76.45333333333338"/><circle r="12" fill="#111" cx="4.67999999999995" cy="76.45333333333338"/></g><g clip-path="url(#clip)" transform="translate(0,150)"><circle r="36" fill="#d1d1d1" cx="37.60000000000002" cy="-31.600000000000023"/><circle r="24" fill="#888" cx="37.60000000000002" cy="-31.600000000000023"/><circle r="12" fill="#111" cx="37.60000000000002" cy="-31.600000000000023"/></g><g clip-path="url(#clip)" transform="translate(50,150)"><circle r="36" fill="#d1d1d1" cx="70.51999999999998" cy="-9.653333333333308"/><circle r="24" fill="#888" cx="70.51999999999998" cy="-9.653333333333308"/><circle r="12" fill="#111" cx="70.51999999999998" cy="-9.653333333333308"/></g><g clip-path="url(#clip)" transform="translate(100,150)"><circle r="36" fill="#d1d1d1" cx="-26.559999999999945" cy="12.293333333333294"/><circle r="24" fill="#888" cx="-26.559999999999945" cy="12.293333333333294"/><circle r="12" fill="#111" cx="-26.559999999999945" cy="12.293333333333294"/></g><g clip-path="url(#clip)" transform="translate(150,150)"><circle r="36" fill="#d1d1d1" cx="6.3599999999999" cy="34.24000000000001"/><circle r="24" fill="#888" cx="6.3599999999999" cy="34.24000000000001"/><circle r="12" fill="#111" cx="6.3599999999999" cy="34.24000000000001"/></g><g clip-path="url(#clip)" transform="translate(200,150)"><circle r="36" fill="#d1d1d1" cx="39.27999999999997" cy="56.18666666666661"/><circle r="24" fill="#888" cx="39.27999999999997" cy="56.18666666666661"/><circle r="12" fill="#111" cx="39.27999999999997" cy="56.18666666666661"/></g><g clip-path="url(#clip)" transform="translate(250,150)"><circle r="36" fill="#d1d1d1" cx="72.20000000000005" cy="78.13333333333333"/><circle r="24" fill="#888" cx="72.20000000000005" cy="78.13333333333333"/><circle r="12" fill="#111" cx="72.20000000000005" cy="78.13333333333333"/></g><g clip-path="url(#clip)" transform="translate(300,150)"><circle r="36" fill="#d1d1d1" cx="-24.88000000000011" cy="-29.91999999999996"/><circle r="24" fill="#888" cx="-24.88000000000011" cy="-29.91999999999996"/><circle r="12" fill="#111" cx="-24.88000000000011" cy="-29.91999999999996"/></g><g clip-path="url(#clip)" transform="translate(350,150)"><circle r="36" fill="#d1d1d1" cx="8.039999999999964" cy="-7.973333333333358"/><circle r="24" fill="#888" cx="8.039999999999964" cy="-7.973333333333358"/><circle r="12" fill="#111" cx="8.039999999999964" cy="-7.973333333333358"/></g><g clip-path="url(#clip)" transform="translate(400,150)"><circle r="36" fill="#d1d1d1" cx="40.960000000000036" cy="13.973333333333358"/><circle r="24" fill="#888" cx="40.960000000000036" cy="13.973333333333358"/><circle r="12" fill="#111" cx="40.960000000000036" cy="13.973333333333358"/></g><g clip-path="url(#clip)" transform="translate(450,150)"><circle r="36" fill="#d1d1d1" cx="73.88000000000011" cy="35.91999999999996"/><circle r="24" fill="#888" cx="73.88000000000011" cy="35.91999999999996"/><circle r="12" fill="#111" cx="73.88000000000011" cy="35.91999999999996"/></g><g clip-path="url(#clip)" transform="translate(0,200)"><circle r="36" fill="#d1d1d1" cx="-23.200000000000045" cy="57.866666666666674"/><circle r="24" fill="#888" cx="-23.200000000000045" cy="57.866666666666674"/><circle r="12" fill="#111" cx="-23.200000000000045" cy="57.866666666666674"/></g><g clip-path="url(#clip)" transform="translate(50,200)"><circle r="36" fill="#d1d1d1" cx="9.720000000000027" cy="79.81333333333339"/><circle r="24" fill="#888" cx="9.720000000000027" cy="79.81333333333339"/><circle r="12" fill="#111" cx="9.720000000000027" cy="79.81333333333339"/></g><g clip-path="url(#clip)" transform="translate(100,200)"><circle r="36" fill="#d1d1d1" cx="42.6400000000001" cy="-28.24000000000001"/><circle r="24" fill="#888" cx="42.6400000000001" cy="-28.24000000000001"/><circle r="12" fill="#111" cx="42.6400000000001" cy="-28.24000000000001"/></g><g clip-path="url(#clip)" transform="translate(150,200)"><circle r="36" fill="#d1d1d1" cx="75.55999999999995" cy="-6.293333333333294"/><circle r="24" fill="#888" cx="75.55999999999995" cy="-6.293333333333294"/><circle r="12" fill="#111" cx="75.55999999999995" cy="-6.293333333333294"/></g><g clip-path="url(#clip)" transform="translate(200,200)"><circle r="36" fill="#d1d1d1" cx="-21.519999999999982" cy="15.653333333333308"/><circle r="24" fill="#888" cx="-21.519999999999982" cy="15.653333333333308"/><circle r="12" fill="#111" cx="-21.519999999999982" cy="15.653333333333308"/></g><g clip-path="url(#clip)" transform="translate(250,200)"><circle r="36" fill="#d1d1d1" cx="11.400000000000091" cy="37.60000000000002"/><circle r="24" fill="#888" cx="11.400000000000091" cy="37.60000000000002"/><circle r="12" fill="#111" cx="11.400000000000091" cy="37.60000000000002"/></g><g clip-path="url(#clip)" transform="translate(300,200)"><circle r="36" fill="#d1d1d1" cx="44.319999999999936" cy="59.546666666666624"/><circle r="24" fill="#888" cx="44.319999999999936" cy="59.546666666666624"/><circle r="12" fill="#111" cx="44.319999999999936" cy="59.546666666666624"/></g><g clip-path="url(#clip)" transform="translate(350,200)"><circle r="36" fill="#d1d1d1" cx="77.24000000000001" cy="81.49333333333334"/><circle r="24" fill="#888" cx="77.24000000000001" cy="81.49333333333334"/><circle r="12" fill="#111" cx="77.24000000000001" cy="81.49333333333334"/></g><g clip-path="url(#clip)" transform="translate(400,200)"><circle r="36" fill="#d1d1d1" cx="-19.839999999999918" cy="-26.559999999999945"/><circle r="24" fill="#888" cx="-19.839999999999918" cy="-26.559999999999945"/><circle r="12" fill="#111" cx="-19.839999999999918" cy="-26.559999999999945"/></g><g clip-path="url(#clip)" transform="translate(450,200)"><circle r="36" fill="#d1d1d1" cx="13.079999999999927" cy="-4.61333333333323"/><circle r="24" fill="#888" cx="13.079999999999927" cy="-4.61333333333323"/><circle r="12" fill="#111" cx="13.079999999999927" cy="-4.61333333333323"/></g><g clip-path="url(#clip)" transform="translate(0,250)"><circle r="36" fill="#d1d1d1" cx="46" cy="17.333333333333258"/><circle r="24" fill="#888" cx="46" cy="17.333333333333258"/><circle r="12" fill="#111" cx="46" cy="17.333333333333258"/></g><g clip-path="url(#clip)" transform="translate(50,250)"><circle r="36" fill="#d1d1d1" cx="78.92000000000007" cy="39.27999999999997"/><circle r="24" fill="#888" cx="78.92000000000007" cy="39.27999999999997"/><circle r="12" fill="#111" cx="78.92000000000007" cy="39.27999999999997"/></g><g clip-path="url(#clip)" transform="translate(100,250)"><circle r="36" fill="#d1d1d1" cx="-18.160000000000082" cy="61.22666666666669"/><circle r="24" fill="#888" cx="-18.160000000000082" cy="61.22666666666669"/><circle r="12" fill="#111" cx="-18.160000000000082" cy="61.22666666666669"/></g><g clip-path="url(#clip)" transform="translate(150,250)"><circle r="36" fill="#d1d1d1" cx="14.759999999999991" cy="83.1733333333334"/><circle r="24" fill="#888" cx="14.759999999999991" cy="83.1733333333334"/><circle r="12" fill="#111" cx="14.759999999999991" cy="83.1733333333334"/></g><g clip-path="url(#clip)" transform="translate(200,250)"><circle r="36" fill="#d1d1d1" cx="47.680000000000064" cy="-24.88000000000011"/><circle r="24" fill="#888" cx="47.680000000000064" cy="-24.88000000000011"/><circle r="12" fill="#111" cx="47.680000000000064" cy="-24.88000000000011"/></g><g clip-path="url(#clip)" transform="translate(250,250)"><circle r="36" fill="#d1d1d1" cx="80.59999999999991" cy="-2.933333333333394"/><circle r="24" fill="#888" cx="80.59999999999991" cy="-2.933333333333394"/><circle r="12" fill="#111" cx="80.59999999999991" cy="-2.933333333333394"/></g><g clip-path="url(#clip)" transform="translate(300,250)"><circle r="36" fill="#d1d1d1" cx="-16.480000000000018" cy="19.01333333333332"/><circle r="24" fill="#888" cx="-16.480000000000018" cy="19.01333333333332"/><circle r="12" fill="#111" cx="-16.480000000000018" cy="19.01333333333332"/></g><g clip-path="url(#clip)" transform="translate(350,250)"><circle r="36" fill="#d1d1d1" cx="16.440000000000055" cy="40.960000000000036"/><circle r="24" fill="#888" cx="16.440000000000055" cy="40.960000000000036"/><circle r="12" fill="#111" cx="16.440000000000055" cy="40.960000000000036"/></g><g clip-path="url(#clip)" transform="translate(400,250)"><circle r="36" fill="#d1d1d1" cx="49.3599999999999" cy="62.90666666666675"/><circle r="24" fill="#888" cx="49.3599999999999" cy="62.90666666666675"/><circle r="12" fill="#111" cx="49.3599999999999" cy="62.90666666666675"/></g><g clip-path="url(#clip)" transform="translate(450,250)"><circle r="36" fill="#d1d1d1" cx="82.27999999999997" cy="84.85333333333324"/><circle r="24" fill="#888" cx="82.27999999999997" cy="84.85333333333324"/><circle r="12" fill="#111" cx="82.27999999999997" cy="84.85333333333324"/></g><g clip-path="url(#clip)" transform="translate(0,300)"><circle r="36" fill="#d1d1d1" cx="-14.799999999999955" cy="-23.200000000000045"/><circle r="24" fill="#888" cx="-14.799999999999955" cy="-23.200000000000045"/><circle r="12" fill="#111" cx="-14.799999999999955" cy="-23.200000000000045"/></g><g clip-path="url(#clip)" transform="translate(50,300)"><circle r="36" fill="#d1d1d1" cx="18.11999999999989" cy="-1.2533333333333303"/><circle r="24" fill="#888" cx="18.11999999999989" cy="-1.2533333333333303"/><circle r="12" fill="#111" cx="18.11999999999989" cy="-1.2533333333333303"/></g><g clip-path="url(#clip)" transform="translate(100,300)"><circle r="36" fill="#d1d1d1" cx="51.039999999999964" cy="20.693333333333385"/><circle r="24" fill="#888" cx="51.039999999999964" cy="20.693333333333385"/><circle r="12" fill="#111" cx="51.039999999999964" cy="20.693333333333385"/></g><g clip-path="url(#clip)" transform="translate(150,300)"><circle r="36" fill="#d1d1d1" cx="83.96000000000004" cy="42.6400000000001"/><circle r="24" fill="#888" cx="83.96000000000004" cy="42.6400000000001"/><circle r="12" fill="#111" cx="83.96000000000004" cy="42.6400000000001"/></g><g clip-path="url(#clip)" transform="translate(200,300)"><circle r="36" fill="#d1d1d1" cx="-13.11999999999989" cy="64.58666666666659"/><circle r="24" fill="#888" cx="-13.11999999999989" cy="64.58666666666659"/><circle r="12" fill="#111" cx="-13.11999999999989" cy="64.58666666666659"/></g><g clip-path="url(#clip)" transform="translate(250,300)"><circle r="36" fill="#d1d1d1" cx="19.800000000000182" cy="86.5333333333333"/><circle r="24" fill="#888" cx="19.800000000000182" cy="86.5333333333333"/><circle r="12" fill="#111" cx="19.800000000000182" cy="86.5333333333333"/></g><g clip-path="url(#clip)" transform="translate(300,300)"><circle r="36" fill="#d1d1d1" cx="52.7199999999998" cy="-21.519999999999982"/><circle r="24" fill="#888" cx="52.7199999999998" cy="-21.519999999999982"/><circle r="12" fill="#111" cx="52.7199999999998" cy="-21.519999999999982"/></g><g clip-path="url(#clip)" transform="translate(350,300)"><circle r="36" fill="#d1d1d1" cx="85.63999999999987" cy="0.42666666666673336"/><circle r="24" fill="#888" cx="85.63999999999987" cy="0.42666666666673336"/><circle r="12" fill="#111" cx="85.63999999999987" cy="0.42666666666673336"/></g><g clip-path="url(#clip)" transform="translate(400,300)"><circle r="36" fill="#d1d1d1" cx="-11.440000000000055" cy="22.37333333333322"/><circle r="24" fill="#888" cx="-11.440000000000055" cy="22.37333333333322"/><circle r="12" fill="#111" cx="-11.440000000000055" cy="22.37333333333322"/></g><g clip-path="url(#clip)" transform="translate(450,300)"><circle r="36" fill="#d1d1d1" cx="21.480000000000018" cy="44.319999999999936"/><circle r="24" fill="#888" cx="21.480000000000018" cy="44.319999999999936"/><circle r="12" fill="#111" cx="21.480000000000018" cy="44.319999999999936"/></g><g clip-path="url(#clip)" transform="translate(0,350)"><circle r="36" fill="#d1d1d1" cx="54.40000000000009" cy="66.26666666666665"/><circle r="24" fill="#888" cx="54.40000000000009" cy="66.26666666666665"/><circle r="12" fill="#111" cx="54.40000000000009" cy="66.26666666666665"/></g><g clip-path="url(#clip)" transform="translate(50,350)"><circle r="36" fill="#d1d1d1" cx="87.32000000000016" cy="88.21333333333337"/><circle r="24" fill="#888" cx="87.32000000000016" cy="88.21333333333337"/><circle r="12" fill="#111" cx="87.32000000000016" cy="88.21333333333337"/></g><g clip-path="url(#clip)" transform="translate(100,350)"><circle r="36" fill="#d1d1d1" cx="-9.760000000000218" cy="-19.839999999999918"/><circle r="24" fill="#888" cx="-9.760000000000218" cy="-19.839999999999918"/><circle r="12" fill="#111" cx="-9.760000000000218" cy="-19.839999999999918"/></g><g clip-path="url(#clip)" transform="translate(150,350)"><circle r="36" fill="#d1d1d1" cx="23.159999999999854" cy="2.1066666666665697"/><circle r="24" fill="#888" cx="23.159999999999854" cy="2.1066666666665697"/><circle r="12" fill="#111" cx="23.159999999999854" cy="2.1066666666665697"/></g><g clip-path="url(#clip)" transform="translate(200,350)"><circle r="36" fill="#d1d1d1" cx="56.07999999999993" cy="24.053333333333285"/><circle r="24" fill="#888" cx="56.07999999999993" cy="24.053333333333285"/><circle r="12" fill="#111" cx="56.07999999999993" cy="24.053333333333285"/></g><g clip-path="url(#clip)" transform="translate(250,350)"><circle r="36" fill="#d1d1d1" cx="89" cy="46"/><circle r="24" fill="#888" cx="89" cy="46"/><circle r="12" fill="#111" cx="89" cy="46"/></g><g clip-path="url(#clip)" transform="translate(300,350)"><circle r="36" fill="#d1d1d1" cx="-8.079999999999927" cy="67.94666666666672"/><circle r="24" fill="#888" cx="-8.079999999999927" cy="67.94666666666672"/><circle r="12" fill="#111" cx="-8.079999999999927" cy="67.94666666666672"/></g><g clip-path="url(#clip)" transform="translate(350,350)"><circle r="36" fill="#d1d1d1" cx="24.840000000000146" cy="89.89333333333343"/><circle r="24" fill="#888" cx="24.840000000000146" cy="89.89333333333343"/><circle r="12" fill="#111" cx="24.840000000000146" cy="89.89333333333343"/></g><g clip-path="url(#clip)" transform="translate(400,350)"><circle r="36" fill="#d1d1d1" cx="57.76000000000022" cy="-18.160000000000082"/><circle r="24" fill="#888" cx="57.76000000000022" cy="-18.160000000000082"/><circle r="12" fill="#111" cx="57.76000000000022" cy="-18.160000000000082"/></g><g clip-path="url(#clip)" transform="translate(450,350)"><circle r="36" fill="#d1d1d1" cx="-39.320000000000164" cy="3.7866666666666333"/><circle r="24" fill="#888" cx="-39.320000000000164" cy="3.7866666666666333"/><circle r="12" fill="#111" cx="-39.320000000000164" cy="3.7866666666666333"/></g><g clip-path="url(#clip)" transform="translate(0,400)"><circle r="36" fill="#d1d1d1" cx="-6.400000000000091" cy="25.73333333333335"/><circle r="24" fill="#888" cx="-6.400000000000091" cy="25.73333333333335"/><circle r="12" fill="#111" cx="-6.400000000000091" cy="25.73333333333335"/></g><g clip-path="url(#clip)" transform="translate(50,400)"><circle r="36" fill="#d1d1d1" cx="26.519999999999982" cy="47.680000000000064"/><circle r="24" fill="#888" cx="26.519999999999982" cy="47.680000000000064"/><circle r="12" fill="#111" cx="26.519999999999982" cy="47.680000000000064"/></g><g clip-path="url(#clip)" transform="translate(100,400)"><circle r="36" fill="#d1d1d1" cx="59.440000000000055" cy="69.62666666666678"/><circle r="24" fill="#888" cx="59.440000000000055" cy="69.62666666666678"/><circle r="12" fill="#111" cx="59.440000000000055" cy="69.62666666666678"/></g><g clip-path="url(#clip)" transform="translate(150,400)"><circle r="36" fill="#d1d1d1" cx="-37.63999999999987" cy="-38.42666666666673"/><circle r="24" fill="#888" cx="-37.63999999999987" cy="-38.42666666666673"/><circle r="12" fill="#111" cx="-37.63999999999987" cy="-38.42666666666673"/></g><g clip-path="url(#clip)" transform="translate(200,400)"><circle r="36" fill="#d1d1d1" cx="-4.7199999999998" cy="-16.480000000000018"/><circle r="24" fill="#888" cx="-4.7199999999998" cy="-16.480000000000018"/><circle r="12" fill="#111" cx="-4.7199999999998" cy="-16.480000000000018"/></g><g clip-path="url(#clip)" transform="translate(250,400)"><circle r="36" fill="#d1d1d1" cx="28.199999999999818" cy="5.466666666666697"/><circle r="24" fill="#888" cx="28.199999999999818" cy="5.466666666666697"/><circle r="12" fill="#111" cx="28.199999999999818" cy="5.466666666666697"/></g><g clip-path="url(#clip)" transform="translate(300,400)"><circle r="36" fill="#d1d1d1" cx="61.11999999999989" cy="27.413333333333412"/><circle r="24" fill="#888" cx="61.11999999999989" cy="27.413333333333412"/><circle r="12" fill="#111" cx="61.11999999999989" cy="27.413333333333412"/></g><g clip-path="url(#clip)" transform="translate(350,400)"><circle r="36" fill="#d1d1d1" cx="-35.960000000000036" cy="49.3599999999999"/><circle r="24" fill="#888" cx="-35.960000000000036" cy="49.3599999999999"/><circle r="12" fill="#111" cx="-35.960000000000036" cy="49.3599999999999"/></g><g clip-path="url(#clip)" transform="translate(400,400)"><circle r="36" fill="#d1d1d1" cx="-3.0399999999999636" cy="71.30666666666662"/><circle r="24" fill="#888" cx="-3.0399999999999636" cy="71.30666666666662"/><circle r="12" fill="#111" cx="-3.0399999999999636" cy="71.30666666666662"/></g><g clip-path="url(#clip)" transform="translate(450,400)"><circle r="36" fill="#d1d1d1" cx="29.88000000000011" cy="-36.74666666666667"/><circle r="24" fill="#888" cx="29.88000000000011" cy="-36.74666666666667"/><circle r="12" fill="#111" cx="29.88000000000011" cy="-36.74666666666667"/></g><g clip-path="url(#clip)" transform="translate(0,450)"><circle r="36" fill="#d1d1d1" cx="62.80000000000018" cy="-14.799999999999955"/><circle r="24" fill="#888" cx="62.80000000000018" cy="-14.799999999999955"/><circle r="12" fill="#111" cx="62.80000000000018" cy="-14.799999999999955"/></g><g clip-path="url(#clip)" transform="translate(50,450)"><circle r="36" fill="#d1d1d1" cx="-34.2800000000002" cy="7.146666666666761"/><circle r="24" fill="#888" cx="-34.2800000000002" cy="7.146666666666761"/><circle r="12" fill="#111" cx="-34.2800000000002" cy="7.146666666666761"/></g><g clip-path="url(#clip)" transform="translate(100,450)"><circle r="36" fill="#d1d1d1" cx="-1.3600000000001273" cy="29.09333333333325"/><circle r="24" fill="#888" cx="-1.3600000000001273" cy="29.09333333333325"/><circle r="12" fill="#111" cx="-1.3600000000001273" cy="29.09333333333325"/></g><g clip-path="url(#clip)" transform="translate(150,450)"><circle r="36" fill="#d1d1d1" cx="31.559999999999945" cy="51.039999999999964"/><circle r="24" fill="#888" cx="31.559999999999945" cy="51.039999999999964"/><circle r="12" fill="#111" cx="31.559999999999945" cy="51.039999999999964"/></g><g clip-path="url(#clip)" transform="translate(200,450)"><circle r="36" fill="#d1d1d1" cx="64.48000000000002" cy="72.98666666666668"/><circle r="24" fill="#888" cx="64.48000000000002" cy="72.98666666666668"/><circle r="12" fill="#111" cx="64.48000000000002" cy="72.98666666666668"/></g><g clip-path="url(#clip)" transform="translate(250,450)"><circle r="36" fill="#d1d1d1" cx="-32.59999999999991" cy="-35.066666666666606"/><circle r="24" fill="#888" cx="-32.59999999999991" cy="-35.066666666666606"/><circle r="12" fill="#111" cx="-32.59999999999991" cy="-35.066666666666606"/></g><g clip-path="url(#clip)" transform="translate(300,450)"><circle r="36" fill="#d1d1d1" cx="0.3200000000001637" cy="-13.11999999999989"/><circle r="24" fill="#888" cx="0.3200000000001637" cy="-13.11999999999989"/><circle r="12" fill="#111" cx="0.3200000000001637" cy="-13.11999999999989"/></g><g clip-path="url(#clip)" transform="translate(350,450)"><circle r="36" fill="#d1d1d1" cx="33.23999999999978" cy="8.826666666666824"/><circle r="24" fill="#888" cx="33.23999999999978" cy="8.826666666666824"/><circle r="12" fill="#111" cx="33.23999999999978" cy="8.826666666666824"/></g><g clip-path="url(#clip)" transform="translate(400,450)"><circle r="36" fill="#d1d1d1" cx="66.15999999999985" cy="30.77333333333354"/><circle r="24" fill="#888" cx="66.15999999999985" cy="30.77333333333354"/><circle r="12" fill="#111" cx="66.15999999999985" cy="30.77333333333354"/></g><g clip-path="url(#clip)" transform="translate(450,450)"><circle r="36" fill="#d1d1d1" cx="-30.920000000000073" cy="52.7199999999998"/><circle r="24" fill="#888" cx="-30.920000000000073" cy="52.7199999999998"/><circle r="12" fill="#111" cx="-30.920000000000073" cy="52.7199999999998"/></g></svg>