<?xml version="1.0" standalone="no"?><!DOCTYPE svg PUBLIC "-//W3C//DTD SVG 1.1//EN" "http://www.w3.org/Graphics/SVG/1.1/DTD/svg11.dtd"><svg width="500" height="500" style="background: rgb(209, 209, 209);" version="1.1" xmlns="http://www.w3.org/2000/svg" xmlns:xlink="http://www.w3.org/1999/xlink"><defs xmlns="http://www.w3.org/1999/xhtml"><style type="text/css"><![CDATA[
html, body { height: 100%; margin: 0px; background: rgb(34, 34, 34); }
body, #prev, #next { height: 100%; box-sizing: border-box; display: -webkit-flex; flex-direction: column; justify-content: center; }
#prev, #next { position: absolute; top: 0px; color: rgb(209, 209, 209); font-size: 70px; text-decoration: none; padding: 20px; }
#prev { left: 0px; }
#next { right: 0px; }
svg { margin: auto; }
.fa { display: inline-block; font-style: normal; font-variant: normal; font-weight: normal; font-stretch: normal; line-height: 1; font-family: FontAwesome; font-size: inherit; text-rendering: auto; -webkit-font-smoothing: antialiased; }
.fa-twitter::before { content: ''; }
.fa-github::before { content: ''; }
.fa-th::before { content: ''; }
footer { text-align: center; margin-bottom: 25px; }
a { color: rgb(209, 209, 209); text-decoration: none; padding: 10px; }]]></style></defs><g transform="translate(250,250)"><path fill="none" stroke="#111" stroke-opacity="0.8" stroke-width="1" d="M-159.89646677056876,0L-152.43743063732583,19.62807696165254L-144.43438313465722,39.06664799820412L-135.91588515350224,58.12803683377097L-126.91233709967203,76.62820882593499L-117.45587040234362,94.38854779060682L-107.58023284496123,111.23758051254578L-97.32066812777016,127.0126322916645L-86.71379009179468,141.56139754108577L-75.79745205312369,154.743410273079L-64.61061171381695,166.43140027557254L-53.19319213153221,176.51252188557453L-41.585939244037505,184.88944349589332L-29.83027645706853,191.48128727614525L-17.968156814470927,196.22441003519455L-6.041913278195558,199.07301768592427L5.905892347539599,199.99960737977943L17.832621308768935,198.995233042345L29.695710068913378,196.069591746255L41.45282220748186,191.25093008751637L53.0619995082525,184.58577146916915L64.48181169773608,176.13846692531524L75.67150429954316,165.9905738222377L86.59114407699863,154.24006843515093L97.20176154495634,141.00040000302695L107.46549004222234,126.39939539444589L117.34570086827438,110.57802495974629L126.80713400200591,93.6890414849727L135.81602393599331,75.89550538830362L144.34022017721475,57.36921039794778L152.3493019841826,38.289024911339375L159.81468693102264,18.83916504953797L166.70973291106043,-0.7925839197810665L173.0098332158899,-20.41668061887337L178.69250435061085,-39.84365755143296L183.73746627184363,-58.88595038078449L188.1267147621727,-77.35970883337767L191.84458568273132,-95.08657174359783L194.87781087462727,-111.89538910212416L197.2155655097095,-127.6238744817328L198.84950672169458,-142.12017188664174L199.77380337978613,-155.24432189771753L199.98515689853429,-166.8696129581496L199.48281300966855,-176.88380475314372L198.26856445389413,-185.19021187210416L196.34674458304525,-191.70863729071604L193.7242118954274,-196.376146660313L190.41032555953873,-199.14767592888776L186.4169120135196,-199.99646642726395L181.75822275952908,-198.91432321974173L176.45088350366973,-195.91169422488358L170.51383482296717,-191.01756934254146L163.96826457115014,-184.27920056103807L156.83753226445745,-175.7616457468218L149.14708571731992,-165.54714052123336L140.92437022542455,-153.7343042888129L132.19873062026346,-140.43718808281577L123.00130654471081,-125.78417342083581L113.36492132336362,-109.91673280190939L103.32396482423958,-92.98806381229748L92.91427072987068,-75.16161002743952L82.17298865578042,-56.609482990527425L71.13845157272323,-37.51080050324852L59.850039005822595,-18.04995727222837L48.34803649881596,1.5851553921954147L36.673491844944316,21.20496363634305L24.868068597562022,40.62004136825126L12.973897383252023,59.64293913611277L1.0334255480726684,78.08999392257499L-10.910734326489685,95.78310238162375L-22.815956497250518,112.55144039773344L-34.639754180030074,128.23311236521852L-46.339931174444345,142.67671426425923L-57.87473245167466,155.74279544235304L-69.20299316780691,167.30520498792902L-80.28428557094574,177.2523096971022L-91.07906327783027,185.48807187429642L-101.54880240506527,191.93297656074378L-111.65613905130232,196.52479923861796L-121.36500263973393,199.21920659874323L-130.64074464503219,199.990184571561L-139.45026224534013,198.8302894887865L-147.76211645802942,195.75071995082823L-155.54664433762937,190.78120870610277L-162.77606483551904,183.9697355861328L-169.42457794359873,175.38206426799297L-175.46845676811617,165.10110733658811L-180.88613220506429,153.22612577698655L-185.65826991496235,139.87177062557876L-189.7678393223157,125.16697603276812L-193.20017439351494,109.25371442449175L-195.94302597627143,92.28562578129088L-197.98660551380175,74.42653426901768L-199.3236199777594,55.84886654287129L-199.94929789524255,36.731986995785384L-199.8614063769978,17.260466024068872L-199.06025908604732,-2.3777019700714543L-197.54871511830373,-21.992913634239514L-195.33216879916603,-41.395787255712L-192.41853043251055,-60.3989912114037L-188.81819807077903,-78.81905262455065L-184.5440204069094,-96.47812876581492L-179.61125092053814,-113.20572409622362L-174.03749344211644,-128.84033637416658L-167.84263932920678,-143.23101593355503L-161.04879647916226,-156.2388230785613L-153.68021043152717,-167.7381695240281L-145.76317784172124,-177.6180309301558L-137.32595263480007,-185.78301882464046L-128.39864517420799,-192.1543015630265L-119.0131148053607,-196.6703654355515L-109.20285615754521,-199.28760857211623L-99.00287960990002,-199.9807619113258L-88.44958634805585,-198.74313316921166L-77.58063845733759,-195.58667145215668L-66.43482451612475,-190.54185189019546L-55.05192116903951,-183.65738140453715L-43.47255117396942,-174.99972845007736L-31.738038429525357,-164.65248127316042L-19.89026050029898,-152.71554088050982L-7.971499166223703,-139.3041565110809L3.975710470605092,-124.54781292320067L15.908731783159086,-108.58898024006037L27.784978779018033,-91.58173842359675L39.562068079211976,-73.6902896572511L51.197970173986306,-55.08737300030474L62.65115941569219,-35.95259662005486L73.88076221352146,-16.47070370385618L84.84670290121214,3.1702112066299795L95.50984675715642,22.780518237971105L105.83213966651354,42.170883030885435L115.77674392690518,61.154094733015285L125.30816971303338,79.54687348958794L134.39240173106427,97.17163998092548L142.99702061077048,113.85822992220433L151.09131860222095,129.44553697224933L158.6464091641214,143.78306818933615L165.63533005271407,156.73239701633096L172.03313954333498,168.16849976682838L177.8170054412417,177.98096270872824L182.96628656405213,186.07504809105504L187.46260640500225,192.37260882170077L191.28991871413987,196.81284296502636L194.43456476341,199.35288077476793L196.88532209126575,199.9681985945393L198.6334445528495,198.65285562978926L199.67269353281432,195.4195513052167L199.99936020939367,190.29950265386876L199.61227879026657,183.3421429217086L198.51283067298095,174.61464429758007L196.70493951508865,164.20126937653066L194.19505723158503,152.20255761801388L190.99214096962496,138.73435465358398L187.1076211426872,123.92669381596137L182.55536063826477,107.92254068812737L177.35160534465814,90.87641279362076L171.51492617343175,72.95288775470965L165.06615278443695,54.32501432192585L158.028299249925,35.17264161622195L150.42648192303278,15.68068271464454L142.28782980374913,-3.9626706556757365L133.64138772224607,-23.5677650783704L124.51801268508558,-42.94531652105341L114.9502637542179,-61.908237842203405L104.9722858517697,-80.27344508741118L94.619687905286,-97.86362513550475L83.92941576830474,-114.50894762820664L72.93962036977103,-130.04870465491615L61.689521562836255,-144.3328623617361L50.21926815893502,-157.22350950418505L38.56979464663568,-168.59618895808194L26.78267510660868,-178.34109933305106L14.8999748440478,-186.36415508728103L2.9641002680293758,-192.58789490829636L-8.982352446436607,-196.95222958946255L-20.896749373589945,-199.4150221816119L-32.736570986821086,-199.95249481850584L-44.459563900313334,-198.55945828830934L-56.02389166089462,-195.24936213459566L-67.38828405195657,-190.05416480316728L-78.512184376621,-183.02402508840257L-89.3558941945263,-174.22681785816815L-99.88071499571286,-163.7474787328879L-110.04908630600461,-151.68718404579425L-119.8247197310203,-138.1623740017087L-129.17272846045208,-123.30362846559856L-138.05975177043385,-107.25440623498888L-146.45407407968878,-90.16965996835657L-154.32573813457057,-72.21434014213719L-161.64665191906772,-53.56180248041983L-168.3906889082407,-34.39213423331921L-174.53378130730516,-14.890415463550022L-180.0540059436221,4.755067871797504L-184.93166250506118,24.35464179188771L-189.14934384552632,43.71907556389724L-192.69199810674235,62.66140869530633L-195.54698243460174,80.99875600736354L-197.70410809837477,98.55407336206916L-199.15567685176168,115.15786699484258L-199.89650840602326,130.64982994954346L-199.9239589171466,144.8803898163503L-199.237930421068,157.712152829304L-197.84087118328287,169.02123038101902L-195.73776696159308,178.69843514725247L-192.93612321317488,186.65033527295313L-189.44593830946386,192.80015644178948L-185.27966785444838,197.08852311982199L-180.45218023370919,199.4740318167301L-174.98070355283969,199.9336508298499L-168.88476415461238,198.46294261155796L-162.18611693430495,195.07610661307945L-154.9086677018774,189.8058421910709L-147.07838786806795,182.70303290059405L-138.7232217588697,173.83625522257552L-129.87298688916673,163.29111646892085L-120.55926755141917,151.16942825768683L-110.81530209916157,137.5882235382928L-100.67586432756481,122.67862665722431L-90.17713937438793,106.58458737355897L-79.35659458420122,89.46149104721093L-68.25284579672679,71.47465841827142L-56.90551953648965,52.79774946187099L-45.35511159558232,33.6110867290528L-33.64284251422896,14.099914361557605L-21.81051047490677,-5.547390410560706L-9.900342135000312,-25.141136020786814L2.045158069659619,-44.49214800769207L13.98335961258293,-63.413595463930406L25.87165801439349,-81.72279485858589L37.667626887643166,-99.24297381727256L49.32916934606556,-115.8049778309681L60.81466823791484,-131.24890341558321L72.08313466725797,-145.4256419543736L83.09435427317439,-158.19831931764443L93.80903074483075,-169.44361736045107L104.18892606026728,-179.05296453944763L114.19699694840885,-186.93358415367024L123.79752708730982,-193.00939008865674L132.95625456684644,-197.22172141564286L141.64049416097157,-199.52990875338844L149.81925397317931,-199.9116669245125L157.46334603889247,-198.36331011529376L164.54549049006727,-194.89978746161012L171.0404129102747,-189.55453871743583L176.9249345328207,-182.37917139939893L182.1780549600152,-173.44296252450823L186.7810271083798,-162.83218975170394L190.71742411233816,-150.64929838493862L193.973197947624,-137.0119122802514L196.53672956519338,-122.0516982063623L198.39887035672888,-105.91309462320397L199.55297480375225,-88.75191715182983L199.9949241938313,-70.73385419966198L199.72314131924287,-52.03286726557514L198.7385961056356,-32.8295113696138L197.04480215060605,-13.309191823323077L194.64780418454063,6.33962582870498L191.5561564984727,25.92723541333868L187.78089241593975,45.264521711493494L183.33548491778996,64.16478633513847L178.23579856045524,82.44555027019831L172.50003285928634,99.93031568207502L166.14865733899765,116.45026997384123L159.2043384830114,131.84591564470986L151.6918588424035,145.9686102127338L143.63802859312545,158.68200133406302L135.07158985714008,169.86334326287866L126.02311412891842,179.40468194182571L116.52489317336006,187.2138972810671L106.61082378449795,193.21559256292693L96.31628681624792,197.35182238507326L85.67802091692275,199.58265211405126L74.73399141810742,199.88654344774628L63.52325484581197,198.26056236422463L52.085819537422196,194.72040744924337L40.46250286186594,189.30025832893074L28.694785552552275,182.05244567099484L16.82466367292771,173.04694594054652L4.894498742940975,162.37070578858734L-7.053133438708733,150.12680259608274L-18.97559473703547,136.43344927843327L-30.83033684568941,121.42285295879493L-42.575053131307214,105.23993852957875L-54.16782961539137,88.04094942592535L-65.5672945548983,69.9919391204854L-76.73276608772606,51.267167903848495L-87.62439741618422,32.04742042948037L-98.20331901033248,12.51826026698054L-108.43177732368741,-7.131761684333912L-118.27326952626105,-26.71292762401475L-127.69267377410847,-46.03618454533344L-136.65637455047275,-64.9149695116338L-145.13238263122275,-83.167010891477L-153.09044924646042,-100.61608816191392L-160.5021740308738,-117.09373328928217L-167.34110637759503,-132.44085726096915L-173.58283983385257,-146.50928606422718L-179.20509920154802,-159.16319128243273L-184.18782003191004,-170.2804014965924L-188.51322023053342,-179.75358183073786L-192.16586351726414,-187.49127025288414L-195.13271451445115,-193.4187606262332L-197.40318526697692,-197.47882398490452L-198.9691730280413,-199.63226107039483L-199.8250891758546,-199.85828079411027L-199.96787915804262,-198.1547009719827L-199.39703339258583,-194.53796939310544L-198.11458908639142,-189.04300501897663L-196.12512296500705,-181.72286084654215L-193.4357349394231,-172.64821169004904L-190.0560227682515,-161.90667182708046L-185.99804780570736,-149.60194909680672L-181.27629195762717,-135.8528436174804L-175.9076059991402,-120.79210079040747L-169.91114943843405,-104.56512966446073L-163.30832214122157,-87.32859903509936L-156.12268795993026,-69.24892483236408L-148.3798906401608,-50.50066340184064L-140.10756230451875,-31.264826191230554L-131.33522484042643,-11.727132113945984L-122.09418454383002,7.9237855371189605L-112.41742039479851,27.49820031368188L-102.33946636372491,46.80712439040583L-91.89628816815338,65.66413321194254L-81.12515492005522,83.88716539203068L-70.06450612162001,101.30028048687478L-58.753814484205556,117.73535767183307L-47.23344506002308,133.03371892092696L-35.544511189286,147.04766101765014L-23.72872777689096,159.6418816057657L-11.828262422281602,170.6947855117793L0.11441506626019607,180.09965872678308L12.056684235816775,187.76569871303658L23.955926090661755,193.61889108786195L35.769675188878956,197.60272422060277L47.455771190990085,199.67873484332088L58.972509319743395,199.82687940746357L70.27878919412132,198.0457276010992L81.33426150639703,194.35247615834857L92.09947201881076,188.7827828276833L102.53600236594647,181.39042210210303L112.60660716035389,172.2467660350544L122.27534691209054,161.44009515474121L131.50771628784602,149.07474612982722L140.27076725191924,135.27010441568464L148.53322664957636,120.15945160703185L156.26560781318722,103.88867862558246L163.44031579282193,86.61487716666697L170.03174583578397,68.50482300418594L176.01637476361816,49.73336579734781L181.3728449204988,30.481740945343777L186.0820403934035,10.935819788725023L190.12715523206586,-8.715684948489853L193.4937534252401,-28.283041149793302L196.16982041924604,-47.57732913925898L198.14580599492768,-66.41226567060625L199.41465835001796,-84.60600246198298L199.97184926527027,-101.98288191185969L199.81539026455013,-118.37513304491382L198.9458397112128,-133.62449131381183L197.36630081544305,-147.58372661793624L195.08241055966806,-160.11806478632886L192.10231958156587,-171.10648880062436L188.43666308646138,-180.44290719489464L184.0985228929165,-188.03717835168104L179.10338074696725,-193.8159808048069L173.46906307161208,-197.72352114634046L167.21567734873025,-199.72207270296835L160.36554036047033,-199.79233978095857L152.94309854618723,-197.93364396297866L144.974840759171,-194.16393065810507L136.48920373449636,-188.51959584178675L127.51647060537475,-181.0551346585575L118.08866283016175,-171.84261528018482L108.239425915719,-160.97098309906076L98.00390934494668,-148.545201974757L87.41864113700217,-134.68524082484433L76.52139748785832,-119.5249153442922L65.35106795643813,-103.21059603647083L53.94751667741973,-85.89979502948201L42.35144009603891,-67.75964532191374L30.604221732568455,-48.965287140618976L18.74778449480025,-29.698176990012758L6.824441065594308,-10.144335718714249L-5.123257100596856,9.507447481827805L-17.052671633301998,29.067437806587236L-28.921229411805065,48.346786695987795L-40.686574498044045,67.15935513835787L-52.30671929445013,85.32351081214429L-63.740194387263294,102.66388171675122L-74.94619654058253,119.0130493609878L-85.8847343129887,134.2131651616675L-96.51677077708146,148.11747444628548L-106.80436283258213,160.5917333457629L-116.7107966158521,171.51550489741138L-126.20071852255485,180.78332184442746L-135.2402613759054,188.30570490528703L-143.79716529021712,194.01002668181462L-151.8408927984313,197.84121286502653L-159.34273783276316,199.762273968725L-166.2759281695318,199.75466245703285L-172.61572097258545,197.8184518178711L-178.33949109434525,193.97233585344338L-183.42681181934378,188.2534481945847L-187.85952776210516,180.717003781528L-191.6218196592089,171.43576577254288L-194.7002608243182,160.49934302734522L-197.08386506469245,148.0133249479781L-198.76412588818195,134.0982620301218L-199.73504686078957,118.88850196745113L-199.99316300645432,102.53089254626974L-199.53755317269233,85.18336385376236L-198.3698433179612,67.01340348841039L-196.49420070901752,48.196439494172836L-193.91731904897603,28.914146630948935L-190.64839458914338,9.352692334003915L-186.69909330987997,-10.299060702668642L-182.08350928760885,-29.85137796527553L-176.818114396556,-49.115484976418266L-170.92169952471454,-67.90538988231032L-164.41530751383183,-86.03967917419679L-157.32215806272424,-103.34326920659123L-149.66756486193594,-119.64909660170761L-141.4788452554572,-134.79973121949067L-132.78522275189766,-148.64889612029754L-123.6177227330411,-161.06287984520262L-114.00906173194936,-171.9218273786293L-103.99353067577768,-181.12089732923917L-93.6068725099597,-188.57127415669953L-82.88615464050532,-194.20102567143357L-71.86963664962416,-197.95579752833729L-60.59663375677158,-199.79933800923843L-49.10737651238021,-199.71384802740107L-37.442867225012925,-197.70015297484554L-25.644733634288166,-193.7776947533207L-13.75508035181505,-187.9843440658701L-1.816338600272531,-180.37603478128827L10.128885213091312,-171.02622390161685L22.037961548157288,-160.0251823466063L33.868389866191414,-147.47912340251028L45.57795030371739,-133.50917724989776L57.12485434473575,-118.25022147124702L68.46789395357038,-101.84957882958334L79.56658863612446,-84.46559489091293L90.38132990472177,-66.26610922324971L100.87352263096685,-47.42683493260009L111.0057227821867,-28.12966218118431L120.74177104989434,-8.560902067194093L130.04692189338482,11.090512178887431L138.88796753795623,30.634849314238544L147.23335648521083,49.88341190830545L155.0533061125313,68.6503581861461L162.31990895986686,86.75449630086301L169.00723232453785,104.02103371173703L175.09141080861542,120.28326477808278L180.55073148860657,135.3841802753847L185.36571140348954,149.17798329410675L189.51916708457026,161.53149688538875L192.9962758790162,172.3254498630645L195.78462884822957,181.45562834777596L197.8742750522677,188.83388193520926L199.25775706228038,194.38897477406522L199.93013757422307,198.06727333674402L199.88901702886977,199.8332642424254L199.13454217524452,199.66989713304545L197.66940554691095,197.57874929176086L195.49883585298736,193.5800104145346L192.63057931818196,187.71228768186802L189.074872038438,180.03223301268727L184.8444034508475,170.6139960991772L179.95427104819797,159.54850850343774L174.42192649976775,146.94260572787655L168.26711337064614,132.91799573562704L161.51179666185098,117.61008387974545L154.18008442268513,101.166665586304L146.29814171509557,83.7464994133444L137.89409723705376,65.51777426253378L128.99794293821517,46.65648554238275L119.64142698609139,27.34473596088791L109.85794046471365,7.768977353187342L99.68239821014282,-11.88178948090509L89.15111420808111,-31.41783954922341L78.30167199826624,-50.65055543151414L67.17279054814209,-69.39424835028653L55.80418607446879,-87.46795096608635L44.23643030600432,-104.6971645880396L32.51080569306673,-120.91554393063535L20.669158080709764,-135.96650315069792L8.753747371289714,-149.70472765850644L-3.192903290649656,-161.99757710678665L-15.128159272919895,-172.72636601191147L-27.00942660812074,-181.7875096431575L-38.79430400093563,-189.09352411661487L-50.44073414783967,-194.57387103800698L-61.90715382917842,-198.1756385395422L-73.15264223798815,-199.8640521354816L-84.13706701620065,-199.6228104642056L-94.82122747707662,-197.45424267523686L-105.16699450272509,-193.37928594167707L-115.13744661747256,-187.43728331516834L-124.6970017514407,-179.68560387505948L-133.8115442241328,-170.19908883917634L-142.44854649482858,-159.06932898390468L-150.57718524530824,-146.40378034997806L-158.1684513806307,-132.3247267716942L-165.19525355539017,-116.96809924617159L-171.632514856012,-100.48216354144068L-177.4572622940314,-83.02608871430397L-182.64870879099263,-64.76841035870987L-187.18832736237292,-45.885403421700225L-191.05991723579416,-26.559380297161063L-194.24966166755925,-6.976930628994853L-196.74617725118375,12.672880181875055L-198.54055454194784,32.20033637352744L-199.6263898524955,51.41690349821244L-199.99980810600454,70.13704869209427L-199.65947666537528,88.18003196521128L-198.60661008908122,105.37165121700195L-196.84496579671173,121.54592412954959L-194.38083065967297,136.5466907001667L-191.22299856490415,150.22912094108705L-187.38273903167703,162.4611131897044L-182.8737569934777,173.1245695288642L-177.71214388849873,182.11653600325604L-171.91632023328768,189.35019662328912L-165.50696988449673,194.75571155950192L-158.50696622332788,198.28089143487873L-150.94129052610978,199.89170120488936L-142.83694281232377,199.57258876036806L-134.22284548822756,197.3266350806244L-125.12974012997005,193.17552448708454L-115.59007777452707,187.15933528465686L-105.63790311000653,179.3361528121445L-95.30873297859925,169.78150863764787L-84.63942962578345,158.58765131342332L-73.66806914811502,145.86265573095412L-62.43380560908851,131.72937967526363L-50.97673130799419,116.32427765276499L-39.33773370045505,99.79608344495904L-27.5583494812338,82.30437410769414L-15.680616350083776,64.01802928038059L-3.746922989622724,45.11360068023378L8.200142209355803,25.77360752385361L20.11794313528705,6.184774333549636L31.96394811353614,-13.463771857877049L43.69588169138968,-32.98232749820248L55.27187550866203,-52.182444073065014L66.65061771548356,-70.8787475460421L77.79150040404193,-88.89072811515152L88.65476452813519,-106.04448300594973L99.20164179333419,-122.174395474837L109.39449301141701,-137.1247338120686L119.19694242528385,-150.75115490635946L128.5740075250153,-162.92209785440198L137.49222389177072,-173.520054160218L145.9197646239918,-182.44270226078052L153.826553919721,-189.60389542424414L161.18437440967926,-194.93449348278187L167.9669678580497,-198.38303036977842L174.15012887161342,-199.91621101642582L179.71179128278646,-199.51923281025415L184.63210689830078,-197.19592851197402L188.8935163324805,-192.96872925078856L192.4808116723324,-186.87844795545095L195.38119075081605,-178.98388531199976L197.58430283459882,-169.3612620526011L199.08228556325773,-158.10348305663936L199.86979300809122,-145.31924036905605L199.9440147504134,-131.13196379614064L199.30468591124068,-115.6786292106107L197.9540880965793,-99.10843607160277L195.8970412549397,-81.58136692789112L193.14088647613517,-63.26664281212713L189.6954597927556,-44.341089438991546L185.57305707780486,-24.98742998136604L180.7883901637835,-5.392520907499819L175.35853433980688,14.254452088124946L169.30286741413533,33.76380064223945L162.64300055958498,52.94716513341255L155.40270118861145,71.61933326390142L147.6078081333128,89.60002825457087L139.2861394330508,106.71564938820109L130.46739305876744,122.80094809648378L121.18304092829682,137.7006234083539L111.46621659089435,151.27082135588816L101.3515969818267,163.380523861212L90.8752786689902,173.91281369496988L80.07464903321183,182.7660032933573L68.9882528419719,189.8546165351918L57.65565469268178,195.11021400011336L46.11729781646109,198.48205374017078L34.41435974627475,199.93758118516948L22.588605364536896,199.4627434518081L10.682237854602011,197.06212502200574L-1.26225191191579,192.75890348046596L-13.202237014532644,186.59462573882658L-25.095106608788253,178.6288069069123L-36.89841799378349,168.93835568392254L-48.570048079646824,157.6168318173187L-60.06834371439669,144.77354279851085L-71.35227033369816,130.53248851661604L-82.38155840304651,115.03116405948184L-93.11684712974856,98.41923222073181L-103.51982493181711,80.85707852957592L-113.55336616251188,62.51426275432005L-123.18166360255303,43.56788183009883L-132.37035624720767,24.20086001645142L-141.08665193218843,4.600182793023203L-149.29944436075596,-15.044908455146247L-156.97942411436725,-34.544743532759895L-164.09918325072636,-53.71105466947152L-170.63331311592398,-72.35879421492916L-176.55849502162272,-90.30792124405718L-181.85358346366905,-107.38513982322546L-186.4996815851535,-123.42557215460931L-190.4802086146005,-138.2743504447975L-193.78095903863232,-151.78811212841885L-196.39015329791846,-163.836384010648L-198.29847982550191,-174.30284196491104L-199.49912827747204,-183.08643402360988L-199.9878138373905,-190.10235601861024L-199.76279250773942,-195.28287035184263L-198.82486733381555,-198.57795999091402L-197.1773855378605,-199.9558113755062L-194.82622657365485,-199.40312157218375L-191.77978114420736,-196.92522671207533L-188.04892125741668,-192.54605047138637L-183.6469614265731,-186.3078730921545L-178.58961115416443,-178.27092317331633L-172.89491886855674,-168.51279617327012L-166.583207513636,-157.12770523821595L-159.67700202125806,-144.22557158938412L-152.2009489253604,-129.93096325132632L-144.18172840459567,-114.38189236768714L-135.64795906739025,-97.72848271615399L-126.63009581923701,-80.13152028754556L-117.16032117669104,-61.76090092293004L-107.272430415949,-42.79398999662276L-97.00171096590128,-23.413909982029953L-86.38481647604372,-3.807772433627606L-75.45963600870515,15.835128544989841L-64.26515882238076,35.32514390521983L-52.841335228736554,54.47410068451322L-41.22893401987365,73.09711878604122L-29.46939697460527,91.01439596629729L-17.604690963046508,108.05294379681388L-5.677158177255985,124.048257839623L6.270634977539551,138.84590591113383L18.19604979187454,152.3030191000059L30.056527419038286,164.28967114352045L41.809740757024166,174.6901328447295L53.41374550346085,183.4039894192404L64.82712984442497,190.3471099838002L76.0091622429209,195.45245982643667L86.91993679964268,198.67074761582035L97.52051566721211,199.97090130113463L107.77306800971216,199.34036810773023L117.64100501154631,196.7852357321424L127.08911045383675,192.33017356636267L136.0836663923875,186.01819451882585L144.5925734886478,177.91023973170076L152.58546556429627,168.08459020396725L160.0338179705947,156.63611100096384L166.91104938577644,143.67533534745152L173.19261667720014,129.32739744710037L178.8561024896913,113.73082433190093L183.8812952475249,97.03619840594631L188.25026128452583,79.40470359654364L191.9474088448702,61.00656914935172L194.95954372619786,42.019426092374715L197.27591636644223,22.626592236989357L198.88826020635523,3.0153022739511766L199.79082119080306,-16.62509994741247L199.98037830356213,-36.10498950359266L199.4562550623271,-55.23629119505758L198.22032193290846,-73.83429538200538L196.2769896540036,-91.7194413262491L193.63319349636436,-108.71905082124287L190.2983685125391,-124.66899537237697L186.2844158655066,-139.41528083120335L181.60566035638251,-152.8155341841427L176.2787993027543,-164.740378141047L170.3228429501009,-175.07468025210127L163.75904662894203,-183.71866449310753L156.61083489983352,-190.58887458695304L148.90371795693142,-195.61897976052873L140.66520058842752,-198.7604151576791L131.92468401879003,-199.9828507250706L122.71336098308929,-199.2744840439779L113.06410440786262,-196.6421542807372L103.01135009579745,-192.11127615569748L92.59097383289188,-185.72559456818223L81.84016335667607,-177.54676224652445L70.79728564241279,-167.65374450089874L59.50174998086501,-156.14205682594917L47.99386733633034,-143.12284271406048L36.31470648679889,-128.72180058281998L24.5059474596835,-113.07797017701687L12.60973278613886,-96.3423901622859L0.6685171048179053,-78.67663987107485L-11.27508434818474,-60.25127928020571L-23.178447822555757,-41.244202281722174L-34.99909316734287,-21.838919145993575L-46.694835432071294,-2.222784759576894L-58.22393541437678,17.41481025607221L-69.54524861684666,36.88426808056714L-80.61837208154074,55.997614231058776L-91.40378857811555,74.57031242561548L-101.86300763100758,92.42304625132721L-111.95870288240745,109.38345043543806L-121.65484530075503,125.28777500431205L-130.91683175942484,139.98246626308548L-139.71160852669166,153.3256493318875L-148.0077892263021,165.18849792497136L-155.77576684766754,175.4564781477895L-162.98781940592932,184.03045430330425L-169.61820887485666,190.82764603120302L-175.6432730394697,195.78242753895648L-181.0415099406133,198.8469612082802L-185.7936546101197,199.99165945965092L-189.8827478226929,199.205470415622L-193.2941966191838,196.49598460492376L-196.01582638523644,191.88936167712822L-198.03792429946498,185.43007783544545L-199.35327399610742,177.18049642612817L-199.95718131844114,167.2202658304104L-199.84749107106558,155.64555047218985L-199.02459471125852,142.56810236599077L-197.49142895196374,128.11418216925L-195.25346528138928,112.42334015596988L-192.3186904366252,95.64706888129409L-188.69757790095997,77.94734054523613L-184.4030505266157,59.495043177168775L-179.45043441629792,40.468330739393544L-173.8574042281326,21.05090307928154L-167.64392009920417,1.4302323368243313L-160.8321564127698,-18.204247068734652L-153.44642266339048,-37.66296739773142L-145.51307670238242,-56.758057836097166L-137.0604306731733,-75.30515835787199L-128.11864997229802,-93.12519969155534L-118.71964559657467,-110.04613220514199L-108.89696026067601,-125.90458701762641L-98.68564869151126,-140.54745329925836L-88.1221525265877,-153.83335653198546L-77.2441702628608,-165.63402345766093L-66.09052272014728,-175.83552053573368L-54.70101449924641,-184.33935395323434L-43.11629192920517,-191.06342056669732L-31.377698010641947,-195.9428005948075L-19.52712487285152,-198.93038440843608L-7.606864271171081,-199.99732736653618L4.340543341792018,-199.13332830650785L16.272460632479625,-196.34672900026675L28.146305548451977,-191.6644336157775L39.91970328316521,-185.13164896164363L51.550637501146745,-176.81144802263972L62.99760028387055,-166.78416100019206L74.21974026121059,-155.14659973721376L85.17700839986307,-142.01112301532888L95.83030092839493,-127.50455174891869L106.14159888890794,-111.76694454959626L116.07410381727006,-94.95024548284296L125.59236906769571,-77.21681707251224L134.66242631304053,-58.73787271676725L143.25190676931993,-39.69182365028832L151.3301567118824,-20.26255641249125L158.86834687093963,-0.6376574525712357L165.83957531607712,18.99339798745774L172.2189634625721,38.441075225770824L177.98374485688856,57.51761006756575L183.11334642450313,76.03882163817394L187.58946189010283,93.8258906197638L191.3961171081363,110.70708572307669L194.51972707058283,126.51942172541042L196.94914438846956,141.11023306671117L198.67569907414057,154.33864781099626L199.69322948228964,166.07694774223245L199.99810429934456,176.21180146315686L199.58923550272434,184.64535859169482L198.46808224372185,191.29619449064387L196.63864564015446,196.10009640945432L194.10745449736729,199.0106834480021L190.88354200854778,199.99985435671312L186.9784135174979,199.0580588496118L182.40600545892133,196.19438981079398L177.18263562274007,191.43649550409333L171.3269449199528,184.8303126335417L164.85983085785324,176.439622831888L157.8043729620022,166.3454368591831L150.1857504111359,154.64521245694272L142.03115217891667,141.45191340931845L133.369680003238,126.89291889594143L124.2322445293397,111.108793666444L114.65145499737956,94.25193091040252L104.66150286815805,76.48508092563127L94.29803980226302,57.97977979021495L83.59805042814634,38.914693209295486L72.59972035316375,19.473891526432947L61.34229988860604,-0.15492744596325933L49.86596397509205,-19.782250618792155L38.211668808155856,-39.218579344665436L26.421005675754216,-58.276258996848206L14.536052529287463,-76.77129074449114L2.59922381781246,-94.52510803174128L-9.346880878585957,-111.366300609099L-21.25962887613844,-127.13226947181417L-33.09650653285922,-141.67079672710804L-44.815270969176744,-154.841515233432L-56.374100822308336,-166.51726382264832L-67.73174549631256,-176.58531502064076L-78.84767237523724,-184.94846341294274L-89.68221147397337,-191.52596414737548L-100.1966970105805,-196.25431251260096L-110.35360539488062,-199.08785706589893L-120.11668914082716,-199.9992403904958L-129.4511062248051,-198.97966322702572L-138.3235444281612,-196.03896942896205L-146.70234022024147,-191.20555092179657L-154.5575917576899,-184.5260735835655L-161.86126559669611,-176.06502669330942L-168.5872967374092,-165.90410029745405L-174.71168164345258,-154.14139650555677L-180.21256390458544,-140.89048233022885L-185.07031223681736,-126.27929321589025L-189.26759054158248,-110.4488978426438L-192.78941977397727,-93.5521361308639L-195.62323139925635,-75.75214359635297L-197.7589122468118,-57.2207763031938L-199.1888406015728,-38.136951621082495L-199.90791340401327,-18.684920806931373L-199.91356446170732,0.9475099113885381L-199.2057736074321,20.570792573964642L-197.78706677113976,39.99546754387371L-195.66250696554056,59.033992709525265L-192.83967621746672,77.50255417355018L-189.3286485094989,95.2228409464253L-185.14195382842155,112.02376651038004L-180.2945334488127,127.74312063219044L-174.8036866113354,142.2291354769084L-168.68900878604626,155.34195090185833L-161.97232174101887,166.95496478383708L-154.67759566587273,176.95605534223478L-146.83086362811153,185.24866365678395L-138.46012866756013,191.75272592840878L-129.59526386047384,196.40544648231372L-120.26790570992823,199.1619040501301L-110.51134124299531,199.99548547752653L-100.36038921760434,198.89814266993636L-89.85127586302994,195.88047029561488L-79.02150559747028,190.9716034958234L-67.90972718407957,184.21893658972536L-56.555595803122515,175.68766548986034L-44.999631532484116,165.46015824610433L-33.2830747415474,153.63515979538496L-21.44773891456336,140.32683859522317L-9.535861428687342,125.66368434562747L2.410047180730872,109.78726744171854L14.347354929704872,92.85087213434949L26.233460528590918,75.0180165953093L38.02594541550553,56.4608741757049L49.682725137666935,37.35861109992869L61.16219954035576,17.89565664461152L72.42340122754332,-1.7400774963720913L83.42614176437473,-21.359011469092348L94.1311550997059,-40.77172762252975L104.50023769691516,-59.79079930554009L114.49638487283869,-78.23260044100475L124.08392285829694,-95.91907840606459L133.22863610894132,-112.67947310154895L141.89788941202897,-128.35196561325014L150.06074435341012,-142.78524054751955L157.6880697290446,-155.83994695703996L164.752645507045,-167.39004375179712L171.2292599692201,-177.32401660553612L177.09479968543297,-185.54595460863231L182.32833199970898,-191.97647627249447L186.91117973368557,-196.55349594506592L190.82698784082746,-199.232823237804L194.06178177353382,-199.98858967677538L196.60401735482648,-198.8134984586069L198.44462197665854,-195.7188948999503L199.57702697779848,-190.73465690027146L199.9971910857522,-183.9089064755443L199.70361483906362,-175.30754514792184L198.69734593851945,-165.0136176771506L196.98197550816516,-153.1265102767684L194.56362527947374,-139.7609910562058L191.45092574440727,-125.046101953161L187.6549853553285,-109.1239128544417L183.1893508816938,-92.148149934073L178.0699590649931,-74.28271145181844L172.3150797444713,-55.70008534184875L165.94525065660918,-36.57968386949997L158.9832041410313,-17.106111434698345L151.45378601443514,2.5326177537980508L143.3838669020251,22.146894925351894L134.80224634292236,41.54734738962384L125.73955001176186,60.546666899404144L116.22812042324426,78.96141808163428L106.30190150973813,96.61380947639616L95.9963174837981,113.33341008487152L85.34814641794125,128.95879485320646L74.39538899284007,143.33910320542626L63.177132882304875,156.33549557804824L51.73341325908778,167.8224938937L40.10506991927912,177.68919303179047L28.333601535203478,185.840331599597L16.461017556963927,192.19721166568274L4.529688291124764,196.69845857577073L-7.417806308383379,199.30061351514868L-19.33882859757321,199.97855309653954L-31.190835405563615,198.72573192235785L-42.93152986059995,195.5542457794742L-54.51901233709952,190.49471485633634L-65.91192998501697,183.59598810998017L-77.06962430791037,174.92467163720406L-87.95227626302584,164.5644856034234L-98.52104836557292,152.6154559379428L-108.73822329008875,139.1929485996995L-118.56733847420064,124.42655573749914L-127.97331624446997,108.45884449865764L-136.92258899990887,91.4439805661364L-145.38321900641216,73.5462397136852L-153.3250123746158,54.93842174966224L-160.71962681438515,35.80018216269597L-167.5406727814289,16.316297576844743L-173.76380765502833,-3.3251182369825645L-179.3668226108108,-22.93443056920767L-184.3297218785363,-42.32231466421331L-188.63479410203894,-61.30158362037575L-192.2666755466645,-79.68899564950306L-195.2124049286263,-97.30702324680709L-197.46146967060955,-113.98556719040256L-199.0058434185557,-129.5635988219293L-199.84001468572515,-143.89071475233192L-199.9610065218277,-156.8285889823962L-199.36838713701897,-168.25230841800868L-198.0642714428515,-178.0515788859788L-196.05331350467935,-186.13179000654608L-193.3426899324557,-192.41492864136757L-189.94207426918956,-196.84033209781904L-185.86360246847227,-199.3652738175324L-181.12182958427144,-199.9653758944413L-175.73367782755048,-198.63484443954388L-169.71837617510326,-195.38652551996813L-163.0973917460985,-190.251781132261L-155.89435319126093,-183.28018640735343L-148.13496636808486,-174.5390509706563L-139.84692260299533,-164.112769078446L-131.05979986788518,-152.10200480490906L-121.8049572236631,-138.62272014669165L-112.11542290755277,-123.80505542848279L-102.02577646350575,-107.79207281912753L-91.57202533638352,-90.73837508937919L-80.7914763703337,-72.808612947054L-69.72260266990345,-54.175895360912016L-58.40490629908316,-35.020118221424354L-46.878777308243635,-15.526227474902857L-35.18534959205655,4.117566499874953L-23.36635409284633,23.721606032566616L-11.463969873192664,43.096617275588905L0.47932641067074644,62.05553761263833L12.42091209749501,80.41532171815831L24.318170630737587,97.99870883052331L36.1286436464622,114.63593417615176L47.8101824967169,130.16636802109954L59.32109866759835,144.44006652528913L70.62031255520536,157.3192194261538L81.6675000685708,168.67948057457176L92.42323653632278,178.41116847690358L102.84913740356076,186.42032525218656L112.9079952168123,192.6296237803503L122.56391240819437,196.97911428311846L131.78242940493757,199.42680312947815L140.53064760703816,199.94905827742605L148.77734679421346,198.54083743753512L156.49309654311512,195.2157367554448L163.65036125720334,190.00585954326576L170.22359843447072,182.96150632726233L176.18934982228436,174.1506892043701L181.5263251340759,163.6584751963363L186.21547802908992,151.5861649413148L190.2400740840451,138.0503146525023L193.585750514146,123.18161078665035L196.24056743029288,107.12360828736045L198.19505044958564,90.03134458518704L199.44222450704626,72.06984273619553L199.9776387478938,53.41251815091476L199.79938241154176,34.239504296433765L198.90809165062834,14.735913536768914L197.30694726074543,-4.9099500972304355L195.0016633289679,-24.50840895300634L192.00046684169558,-43.87024306349917L188.314068324579,-62.808517035505616L183.95562361931178,-81.14038488080179L178.94068693369374,-98.68885536476068L173.28715533252262,-115.28450082823534L167.0152048674151,-130.7670929843514L160.14721857347544,-144.98714989683978L152.70770658980535,-157.80737920407307L144.72321868889114,-169.10400365474035L136.22224952705906,-178.7679561572871L127.23513695411417,-186.705932805133L117.79395374507666,-192.84129371088662L107.93239314041747,-197.114802952122L97.68564860322797,-199.4852004846804L87.09028822248952,-199.92960050175847L76.18412421063819,-198.44371239269077L65.0060779611563,-195.0418821681052L53.59604114777823,-189.75695395150018L41.99473336100018,-182.6399528745151L30.24355678996557,-173.7595924374896L18.38444846833402,-163.20161109168424L6.459730611394806,-151.06794444831485L-5.488040421402316,-137.47574110663942L-17.416225999548228,-122.55623160306892L-29.28225738815795,-106.45346140145611L-41.0437876652282,-89.32290015732801L-52.65884284730109,-71.32994068334862L-64.08597168418184,-52.648302108357306L-75.28439358818449,-33.458352647101826L-86.2141441699216,-13.945368174154368L-96.83621786129233,5.702256584839683L-107.11270711668755,25.294826973946716L-117.00693769560031,44.64317987830262L-126.483599543907,63.56051006358323L-135.50887280668215,81.8641737504611L-144.05054852286386,99.37745201091292L-152.07814357105835,115.93125696105263L-159.56300945622476,131.36576427742563L-166.47843454905484,145.5319562751546L-172.7997394131443,158.29306064970194L-178.5043648797811,169.52587099146717L-183.57195255602397,179.12193632385L-187.98441747874892,186.98860817997573L-191.72601265540342,193.04993510874482L-194.78338526111156,197.2473959738681L-197.1456242915929,199.5404649660216L-198.8042995018321,199.90700287301894L-199.75349149152905,198.34347083034064L-199.98981282997235,194.86496448830158L-199.51242014493755,189.50506826597606L-198.32301713247412,182.31553109903774L-196.42584847683617,173.36576681210587L-193.82768470225875,162.7421839394446L-190.53779801063519,150.5473514644587L-186.56792919132883,136.89900853266602L-181.93224572121264,121.92892769918937L-176.64729120445273,105.78164268593537L-170.73192633249522,88.61305293177288L-164.20726157493624,70.58891840851952L-157.09658184149066,51.88325923508923L-149.42526338393228,32.67667554125101L-141.22068323453925,13.154603802416492L-132.51212150426971,-6.494473519684468L-123.33065688929767,-26.080847744849546L-113.70905575886252,-45.41541558119179L-103.68165522023406,-64.3115048869868L-93.28424057808104,-82.58667696018678L-82.55391762561106,-100.06448795471444L-71.52898022319143,-116.57619241742523L-60.248773637064346,-131.96237249830884L-48.75355412586319,-146.0744771041619L-37.08434527599566,-158.77625613551726L-25.282791598656924,-169.94507595941434L-13.39100991089601,-179.4731034174082L-1.4514390311408585,-187.26834693735847L10.493311674405446,-193.25554469725478L22.400614354033802,-197.37689126600978L34.22797479873864,-199.59259570558388L45.93318409352528,-199.88126574609873L57.47446925054523,-198.240114324757L68.81064228652455,-194.68498649448705L79.9012472124613,-189.2502064425042L90.7067044110115,-181.9882460958095L101.18845188632119,-172.96921851317327L111.309082882232,-162.28020095482913L121.03247937769814,-150.02439416554975L130.32394098305252,-136.32012598804383L139.15030877708554,-121.29970892668764L147.48008364300608,-105.10816269156993L155.28353868098392,-87.90181405652827L162.5328252960588,-69.84678754930995L169.20207258289264,-51.11740154595631L175.2674796525918,-31.894485254964366L180.70740057218234,-12.363632840343541L185.50242161357906,7.2865884601671755L189.63543053634922,26.86645892143229L193.0916776570722,46.18693804436174L195.85882848728596,65.06148971148971L197.927007752222,83.3078831632074L199.28883463320975,100.74995240640273L199.93944910798723,117.21929706878431L199.87652929491503,132.55690827739656L199.10029973919526,146.61470386368615L197.61353061152548,159.2569580730302L195.42152782204727,170.36161197505143L192.532114084869,179.82145192295502L188.95560100074002,187.5451446840398L184.7047522575073,193.45811924736114L179.79473807967565,197.5032867948507L174.24308108964672,199.6415918846651L168.06959377382293,199.8523895251938L161.2963077767602,198.13364449913317L153.9473952756945,194.50195101318073L146.04908271604074,188.9923724836397L137.6295572157082,181.6581030047749L128.71886597228132,172.56995376839518L119.34880903201905,161.81566939318185L109.55282580338137,149.49908076452246L99.36587572007942,135.7391025640078L88.82431347952036,120.6685851673191L77.96575930192677,104.433031995224L66.82896467309472,87.18919470145629L55.45367404995789,69.10355976072908L43.88048302248431,50.350741068592576L32.150693438073866,31.11179407237315L20.306166005542693,11.57246770996823L8.389170904600261,-8.07858896628063L-3.55776306590378,-27.65164816582526L-15.492000262725119,-46.957735151206045L-27.370950354254585,-65.81045275874061L-39.152220314841976,-84.02778103313891L-50.793765715000625,-101.43383460090509L-62.25404076751424,-117.86056081529954L-73.49214659408244,-133.1493622776208L-84.46797718323992,-147.15262806957378L-95.14236251877462,-159.73515891291788L-105.47720836779449,-170.7754724967694L-115.435632229591,-180.16697636975042L-124.98209496014287,-187.81899707296927L-134.0825276024894,-193.6576555776717L-142.70445297039467,-197.62658057537521L-150.8171015513651,-199.68745273379005L-158.39152131540385,-199.82037466379944L-165.40068103762945,-198.02406302555542L-171.81956676600046,-194.31586091891572L-177.62527108991122,-188.73157043860792L-182.7970748910551,-181.32510701076058L-187.3165212848172,-172.1679788481463L-191.16748148831553,-161.34859654988003L-194.33621238002885,-148.97141951131906L-196.81140554558226,-135.15594738540864L-198.5842276346762,-120.03556633274744L-199.64835188512103,-103.75626119968322L-199.99998070148172,-86.47520605809414L-199.63785920775356,-68.3592467150211L-198.56327972570384,-49.583289843242454L-196.78007716289468,-30.3286142854863L-194.2946153268511,-10.781120836381154L-191.11576421421,8.870462599823346L-187.25486835590283,28.43640314679923L-182.72570633134075,47.727794796526446L-177.5444415960773,66.55838226642688L-171.72956479845888,84.74635926412621L-165.3018277910711,102.11612379798565L-158.28416957253967,118.499973586054L-150.70163442393087,133.7397251946224L-142.58128253191816,147.68824127384005L-133.95209341771033,160.21085114513667L-124.84486251630334,171.18665102497124L-115.29209127523494,180.50967133140182L-105.32787116497235,188.08989980335173L-94.98776201491428,193.85415055450895L-84.30866510918504,197.7467706712804L-73.32869149509665,199.73017753272376L-62.08702597429176,199.78522166470228L-50.62378726189849,197.91137162497773L-38.97988481279226,194.12671913419985L-27.196872825901185,188.4678044032538L-15.316801947582828,180.98926334340345L-3.382069203288908,171.76330006535673L8.564733306882603,160.87898976019943L20.4809704088367,148.4414186927467L32.324116008836874,134.57066961057592L44.05190485857993,119.40066236440951L55.622483389394816,103.077860933498L66.99455907721476,85.75985933948601L78.12754780538917,67.6138601014633L88.98171869929683,48.81505992256612L99.51833591599117,29.54495819397776L109.69979688282268,9.989604647515804L119.48976649166445,-9.662196924583503L128.85330676993198,-29.220711539933703L137.7570015655128,-48.49710488668701L146.16907580073442,-67.30526648846474L154.05950886973068,-85.46360657105181L161.4001417745341,-102.79680928244326L168.16477761756167,-119.13752533920675L174.32927509182448,-134.3279877568694L179.8716346352854,-148.22153506478463L184.7720769418205,-160.68402729903482L189.0131135486629,-171.59514110218458L192.57960924838605,-180.8495314259581L195.45883610270315,-188.35784862071668L197.64051886532366,-194.0476010919605L199.11687165175385,-197.86385519500516L199.88262572518974,-199.76976561048207L199.93504829933082,-199.7469310799731L199.2739522910163,-197.79557206719608L197.9016969878789,-193.93452862946506L195.82317962863118,-188.20107851996667L193.0458179260376,-180.65057727705417L189.5795235949368,-171.35592377542466L185.4366669797909,-160.40685639922273L180.6320329079963,-147.90908663236445L175.1827679264982,-133.98327843118037L169.10831911002575,-118.7638832333319L162.43036465930257,-102.39784185079948L155.17273653692806,-85.0431657800017L147.36133541701767,-66.8674116262038L139.0240382521134,-48.04606337146128L130.19059878727793,-28.760838105004556L120.89254137633286,-9.19793157397608L111.16304847928353,10.453779506539936L101.03684224234179,30.004561027830228L90.55006058320286,49.265653339837215L79.74012822378577,68.05109369520251L68.64562313067307,86.17951168968978L57.30613883994824,103.47588036424571L45.76214315765186,119.77320606213242L34.05483374025141,134.91414072581773L22.225991070416086,148.7525010671463L10.317829352828719,161.1546799434821L-1.6271541378061354,172.00093631315866L-13.566330719031397,181.1865513159843L-25.457092431797605,188.6228393169814L-37.25700409771168,194.2380041519257L-48.92395475965739,197.97783230776085L-60.41630796535065,199.80621634534253L-71.69305035751835,199.70550351095758L-82.71393804037852,197.67666617081778L-93.43964020013054,193.73929242302293L-103.8318794668687,187.93139697762322L-113.8535685170186,180.309054130711L-123.46894242879114,170.94585637611343L-132.64368631832406,159.93220388170343L-141.3450578009749,147.37443169032974L-149.54200384077757,133.39378307207488L-157.205271571021,118.12523894000381L-164.3075126904708,101.71621463115422L-170.82338106267946,84.3251366351707L-176.7296231700412,66.11991301205902L-182.0051610998487,47.27631226685439L-186.6311677661173,27.976266333007864L-190.59113409879055,8.406114048821212L-193.87092796051797,-11.24519791404889L-196.45884458073783,-30.787939300294525L-198.34564832711024,-50.033428086076896L-199.52460566518948,-68.79585217357L-199.99150918874142,-86.8940633769007L-199.74469263493168,-104.15332637872679L-198.78503683080467,-120.40700577160568L-197.11596654982876,-135.4981748960603L-194.74343828973332,-149.2811309422079L-191.67591901524062,-161.62280168697083L-187.92435594157433,-172.40403028496064L-183.50213746656206,-181.52072570865386L-178.42504539076575,-188.88486773052367L-172.71119859615237,-194.42535674416453L-166.38098838429417,-198.08870021956088L-159.45700570488043,-199.83952916485364L-151.9639605342179,-199.66093960826703L-143.92859369145725,-197.55465580323622L-135.379581407244,-193.54101358101903L-126.3474329853683,-187.6587640115155L-116.86438192262058,-179.96469926792196L-106.96427087545163,-170.53310430744105L-96.68243088391976,-159.45503966196296L-86.05555528397684,-146.8374622632937L-75.12156875805857,-132.80219279116864L-63.91949199129192,-117.48473951420426L-52.489302416366556,-101.03298997936707L-40.87179154398592,-83.60578318148717L-29.108419388088734,-65.37137599833757L-17.241166505348442,-46.50581869753304L-5.312384176967927,-27.191255199530918L6.635356732504384,-7.614164507381846L18.559417700067723,12.036439718044937L30.41724471054752,31.570834054535478L42.166520121331885,50.800417067664995L53.7653136835333,69.53953022729178L65.17223218065743,87.60725041080306L76.3465671506956,104.82913668673197L87.24844016455054,121.03891451392619L97.83894514225233,136.08008109545486L108.08028719908987,149.8074163879485L117.93591752619965,162.08838517775413L127.37066382417017,172.80441668708573L136.35085582427388,181.85204935582817L144.84444544929903,189.14392974623854L152.82112118517358,194.60965592634113L160.25241625525638,198.196457189248L167.11181021117977,199.86970354584466L173.3748235777668,199.61324007176825L179.0191052142012,197.42954288059855L184.02451207969662,193.33969521738098L188.37318111901757,187.38318390328683L192.0495930112901,179.6175180967115L195.04062755460762,170.11767405159785L197.33561048877576,158.97537123377023L198.92635158910076,146.29818678424834L199.80717389526615,132.20851687925415L199.9749339709975,116.84239501484208L199.42903312220704,100.34817862534497L198.1714195335835,82.88511671625628L196.20658131600365,64.621812340664L193.5415304895789,45.73459476393403L190.18577795949798,26.40581703300857L186.15129957395894,6.822095387059081L181.45249338534546,-12.827492492239017L176.10612826714777,-32.35323299534709L170.13128407000775,-51.56660823920078L163.54928353047907,-70.28211617706303L156.38361617545925,-88.31906159092905L148.6598544938956,-105.5033006748048L140.40556267492784,-121.6689223651L131.65019823811912,-136.6598501852931L122.42500690689906,-150.33134913916751L112.76291110031119,-162.55142310392947L102.69839244106839,-173.20208923154544L92.26736869921092,-182.18051705413424L81.5070656104747,-189.40002129561614L70.45588402690383,-194.79089880407827L59.153262873714716,-198.3011015245201L47.63953840155864,-199.89673901443294L35.95580023646449,-199.56240565057308L24.143744741147334,-197.3013293677765L12.245526211037582,-193.13534049377134L0.30360643605934035,-187.10466098086692L-11.639396834960024,-179.26751606948702L-23.540861986473114,-169.69957213283018L-35.358315642169494,-158.49320613021024L-47.04958424191529,-145.75661372240168L-58.57294454875088,-131.61276465989963L-69.88727254874132,-116.19821552980498L-80.95219021240358,-99.66179132391119L-91.72820959385948,-82.16314855738305L-102.17687375351542,-63.87123381077798L-112.26089400136108,-44.96265257797544L-121.9442829710249,-25.619964168584968L-131.19248304977796,-6.029919127140496L-139.97248970606535,13.61834381332208L-148.25296927448997,33.13512383532406L-156.00437077790826,52.331989567804705L-163.19903138751542,71.02359836070882L-169.81127514462702,89.02948573844137L-175.81750459181043,106.17580775533433L-181.1962849863409,122.29701943098847L-185.92842079549425,137.237473060415L-189.99702420063727,150.85292096760188L-193.38757536565677,163.01190819358854L-196.0879742546603,173.59704167297602L-198.0885838139939,182.50612364506063L-199.38226436450236,189.65313835678336L-199.96439908127041,194.96908253099073L-199.83291046992423,198.40263158196066L-198.98826778069468,199.92063514603237L-197.43348533377934,199.50843714302468L-195.17411176198226,197.17001727833957L-192.21821020901785,192.9279526195403L-188.57632955415454,186.82319961840378L-184.26146676587996,178.9146986829554L-179.2890205189456,169.27880511733633L-173.67673624031704,158.0085519235949L-167.4446427801493,145.21275158305068L-160.61498093378407,131.01494548927062L-153.2121240698759,115.55221117579401L-145.26249114789036,98.97383885463404L-136.79445243537526,81.43989004324118L-127.83822826153516,63.1196521963603L-118.4257811683565,44.19000426284707L-108.59070184423744,24.833708947911347L-98.36808924715861,5.237648168587756L-87.79442534518853,-14.408981261123325L-76.90744492141472,-33.91649429501545L-65.74600090785592,-53.09654903332387L-54.34992572897617,-71.76396513342593L-42.75988914967146,-89.73851169627807L-31.01725313494514,-106.84664736673817L-19.163924239319144,-122.92319584744342L-7.242204052755073,-137.81294064937472L4.705361763250482,-151.37212368207753L16.636135310544866,-163.4698332149097L28.507538618424743,-173.989267808731L40.2772055938468,-182.82886401501725L51.90313321548574,-189.9032769545954L63.34383143212122,-195.1442043087412L74.55847123030654,-198.50104576706144L85.50703034301257,-199.9413915653586L96.15043607916571,-199.45133539668828L106.45070476437526,-197.03560867451418L116.37107729525394,-192.7175348516693L125.87615032353496,-186.53880423618284L134.9320026018385,-178.55907147804595L143.50631604018525,-168.85537961318286L151.56849104124964,-157.5214162253185L159.08975570271994,-144.66660890743202L166.04326849707914,-130.41506875598083L172.40421406237192,-114.9043920981834L178.14989176205646,-98.28433202166494L183.25979669795777,-80.71535253245105L187.71569288715318,-62.367079300839514L191.50167834167146,-43.41666195283107L194.60424181875112,-24.047063718974798L197.01231103910303,-4.445294953852588L198.71729220113545,15.199392418850655L199.71310065009524,34.697332103182035L199.9961825926929,53.860274628515285L199.56552777970978,72.50320486789121L198.42267311132565,90.44612832931773L196.5716971523043,107.51580897361886L194.0192055766051,123.54744178051158L190.7743075933769,138.3862439145768L186.84858343844627,151.8889491286231L182.25604304732772,163.92519097626862L177.0130760572462,174.3787614789799L171.13839331657795,183.14873309543555L164.6529601104891,190.15043316067727L157.57992134102287,195.31626138707833L149.94451892868648,198.59634253424656L141.77400173030813,199.95900794643683L133.09752829462104,199.3911013083342L123.94606280263905,196.89810566715965L114.35226456417686,192.50409049473055L104.35037146487875,186.2514793005809L93.97607777968973,178.20064003981048L83.26640678885576,168.42930227017374L72.25957865102586,157.03180668573603L60.99487400496491,144.11819427261142L49.51249378672828,129.81314388098332L37.853415762471165,114.25476847083793L26.059248288984175,97.59328165356126L14.172081823794386,79.9895474037246L2.234338714739816,61.61352694322827L-9.711378194833772,42.64263779310866L-21.62243760507625,23.260040835870484L-33.456331900148164,3.6528719266728493L-45.17082884735271,-15.989564873260125L-56.72412231352128,-35.47762499691054L-68.07498146070246,-54.623154359209835L-79.18289788880455,-73.24130595450265L-90.00823020003523,-91.15232452460761L-100.51234546918913,-108.18328206693633L-110.65775711499649,-124.16974742652607L-120.4082586804276,-138.9573738523995L-129.72905304454093,-152.40338919060173L-138.58687660479495,-164.37797432636896L-146.95011798656873,-174.7655165668079L-154.7889308563348,-183.46572586283776L-162.07534043581475,-190.3946030934882L-168.7833433370122,-195.48525106388126L-174.8890003618677,-198.6885203869007L-180.37052193530013,-199.9734840126054L-185.20834586680846,-199.3277358239277L-189.38520716307266,-196.7575104157343L-192.88619964242613,-192.28762290081892L-195.6988291313245,-185.96122932397265L-197.81305805294983,-177.83940999733295L-199.22134124883212,-168.00057977977485L-199.91865290564752,-156.53973099407466L-199.90250449109982,-143.56751629132745L-199.17295363487355,-129.2091803173752L-197.73260392296996,-113.60335049594848L-195.58659560615186,-96.90069860313623L-192.74258725566716,-79.2624860556814L-189.2107284317041,-60.859006957905294L-185.00362346213242,-41.8679439395638L-180.13628646078712,-22.472652658630192L-174.6260877458112,-2.860391531899842L-168.4926918493105,16.77948621485659L-161.7579873395139,36.25736072186789L-154.44600870589667,55.38517624456085L-146.58285058606734,73.97825680154048L-138.19657464046554,91.85708919146714L-129.3171094072584,108.84905616414923L-119.9761434948261,124.79010301230974L-110.20701249296101,139.52632149338166L-100.04458000644345,152.91543578884216L-89.52511323546575,164.82817615434175L-78.68615354699413,175.14952699830064L-67.56638249895965,183.77983733891793L-56.20548379535175,190.63578291839167L-44.64400166495358,195.6511706852032L-32.92319616902485,198.77757787738972L-21.084895954382198,199.9848195365205L-9.171348977350641,199.2612399386092L2.7749282687217303,196.6138251282554L14.71130248427716,192.06813546951324L26.595175711216818,185.6680588646802L38.384137354441684,177.47538702366427L50.03611553475535,167.56921887497512L61.50952723294852,156.0451968782744L72.76342668927532,143.0145836118522L83.75765152873518,128.6031875502882L94.45296609059515,112.95014840391373L104.81120145075222,96.20659374726358L114.79539163713774,78.53417990666453L124.36990555209904,60.103531194451044L133.5005741309672,41.09259255861453L142.15481228294632,21.68491155302258L150.30173517923754,2.0678662152687615L157.9122684733175,-17.569144038094226L164.95925206006737,-37.0365270324656L171.41753700346442,-56.146328317155636L177.264075286878,-74.71404583532802L182.47800206573007,-92.56041126171792L187.04071012895264,-109.51312080943205L190.93591630349619,-125.40849879531075L194.14971956494514,-140.0930779023057L196.67065064682222,-153.42508088174742L198.48971297155117,-165.27578938986034L199.6004147570148,-175.5307867426565L199.99879218411067,-184.09106259062247L199.68342354264152,-190.8739688477083L198.65543430504397,-195.81401764530838L196.91849310985756,-198.86351360708412L194.4787986692637,-199.9930143401601L191.3450576474201,-199.19161469668288L187.5284535885362,-196.46705206127393L183.04260700558004,-191.8456316478214L177.9035267720422,-185.37197252687886L172.1295529902446,-177.10857683570484L165.74129154006164,-167.13522633020835L158.76154054164812,-155.54821210490203L151.2152089946067,-142.45940491789102L143.12922788394116,-127.99517509671354L134.5324540700611,-112.29517245312827L125.45556730581033,-95.51097798670172L115.93096074802136,-77.80464039458201L105.99262535439907,-59.34711151745633L95.67602857820589,-40.31659582699411L85.01798779373449,-20.896829890353317L74.05653890423707,-1.275308423225976L62.83080060120011,18.358525941548734L51.38083475946566,37.815111692057734L39.74750346632963,56.90659862326362L27.972323194878918,75.44866150047163L16.097316642027252,93.26227968983211L4.1648627599109584,110.17546557377236L-7.78245448407419,126.0249250637378L-19.701998078870258,140.6576341783835L-31.551230130696617,153.93231646546118L-43.287863670207884,165.72080700325444L-54.87001356422142,175.9092898122699L-66.2563459933626,184.39939673021863L-77.40622596219467,191.10915714077734L-88.2798623154599,195.97378938672017L-98.83844974281132,198.94632622638164L-109.04430726536141,199.99806829482657L-118.86101270974329,199.1188611915997L-128.2535326897992,196.3171935198274L-137.18834763205328,191.62011493011678L-145.6335713987507,185.0729749605433L-153.559065081572,176.7389851941408L-160.93654455991768,166.69860896124408L-167.73968143992408,155.04878447899014L-173.94419701395964,141.90198892840266L-179.52794890530896,127.3851525053481L-184.4710100888339,111.63843292986346L-188.7557400055673,94.81386224596741L-192.36684751750218,77.07387897670118L-195.29144547786242,58.58975980633046L-197.51909672213364,39.53996593155421L-199.04185131571873,20.1084200472934L-199.85427492527583,0.4827306027278729L-199.95346821250928,-19.147619528146063L-199.33907718118684,-38.59310247313864L-198.01329444046638,-57.66597522299669L-195.98085138001525,-76.18209225996823L-193.24900128485675,-93.96268345311107L-189.82749345019513,-110.83608005518725L-185.7285383885958,-126.63937213676132L-180.96676425370424,-141.21998145537935L-175.5591646359874,-154.43713457394247L-169.52503791682477,-166.16322200560495L-162.8859183973817,-176.28503026282834L-155.6654994480181,-184.70483491538465L-147.88954895254568,-191.34134410401685L-139.58581734902944,-196.13048340025637L-130.78393859535944,-199.026014434726L-121.51532441301755,-199.99998132114857L-111.81305218642919,-199.042980565938L-101.7117469179869,-196.16425185741323L-91.2474576600074,-191.39158885809772L-80.45752886461047,-184.77107086137278L-69.38046711062432,-176.3666179033246L-58.05580368317216,-166.2593736250616L-46.523953496326826,-154.54692184394628L-34.82607086228507,-141.34234439750207L-23.00390262186785,-126.77312935648375L-11.099639160378189,-110.9799401480779L0.8442361593995356,-94.11525747310935L12.785098609778068,-76.34190712946344L24.680334215270562,-57.83148795513648L36.48749183126517,-38.76271506912357L48.16443464165318,-19.319694405656552L59.66949053465442,0.3098547989603019L70.96160082024284,19.93641240533446L82.00046675844851,39.37048715751267L92.7466933755353,58.42444619050225L103.16193005489909,76.91432659544454L113.20900740091284,94.6616115518634L122.85206988725348,111.49495387886279L132.0567038164015,127.25183036460379L140.79006013358563,141.7801109017334L149.0209716568968,154.93952727913089L156.72006430524593,166.60302744888818L163.8598619271503,176.65800219340835L170.41488435631865,185.00737234927698L176.3617383440395,191.5705260909736L181.67920104387326,196.28409722506984L186.3482957507379,199.1025769806309L190.35235962404778,199.99875338908242L193.67710315326852,198.96397401138728L196.3106611536321,196.00822947595077L198.24363511003384,191.1600570207141L199.4691267180041,184.46626497070673L199.98276250204498,175.9914808112075L199.78270942347888,165.8175272197706L198.86968142210932,154.0426320814267L197.24693686834576,140.78048011427896L194.92026693488873,126.15911526180881L191.89797492947375,110.31970444925045L188.19084666241983,93.4151746395812L183.8121119547561,75.60873634835113L178.77739742426527,57.07230787237716L173.10467071796737,37.98485544625528L166.81417639004846,18.53066535219905L159.92836365405623,-1.1024353344371882L152.471806267241,-20.72489218528474L144.4711148329076,-40.14725353651954L135.95484183376612,-59.18199961415587L126.95337973522487,-77.64535300731158L117.49885252220425,-95.35905300955766L107.62500105660575,-112.15207669732168L97.36706266456086,-127.86229012873966L86.76164538313556,-142.33801372074444L75.8465973153555,-155.43948669105623L64.66087155969467,-167.04021642604113L53.24438719613297,-177.02819974655478L41.637886824880276,-185.3070042806077L29.88279116612018,-191.79669950239838L18.021051239766795,-196.43462844868827L6.094998652658001,-199.17601266169746L-5.852805472444111,-199.99438451791252L-17.77972238692653,-198.8818427687292L-29.64318788345155,-195.84912882573823L-41.40086419704952,-190.9255230541255L-53.01079109809782,-184.15856207545863L-64.43153563796713,-175.61357980924552L-75.62234001294617,-165.3730766844681L-86.5432670187172,-153.5359231111907L-97.15534257632767,-140.2164049026958L-107.42069482103129,-125.54311986430105L-117.30268925754908,-109.65773620226061L-126.766059499516,-92.71362474003924L-135.77703312644948,-74.8743781476494L-144.3034522091382,-56.312231480802524L-152.31488807333108,-37.206399279085176L-159.782749892104,-17.741345278476146L-166.68038671944458,1.8949985563892182L-172.98318260085523,21.513046485090513L-178.6686444215873,40.92338941120374L-183.7164821789995,59.93862359672667L-188.10868139252904,78.37516001495061L-191.82956739290938,96.05499687302488L-194.86586126117885,112.80743819059052L-197.2067272178394,128.47074184202444L-198.8438112930732,142.893681150652L-199.77127113998566,155.9370049579486L-199.98579688449024,167.47478207110439L-199.48662293742976,177.3956171084022L-198.2755307267736,185.60372600372133L-196.35684234014394,192.0198607862796L-193.73740510035512,196.58207470704673L-190.42656712902036,199.24632032463342L-186.4361439854232,199.9868747762511L-181.78037649971844,198.7965881278173L-176.4758799509438,195.68695240541845L-170.54158477120615,190.6879906416428L-163.9986689876737,183.84796700803895L-156.87048264344642,175.2329208322931L-149.18246446704683,164.92602899915792L-140.96205108790917,153.02680289100888L-132.2385791218585,139.65012762144536L-123.0431804759987,124.92515283802767L-113.40867124667035,108.9940458031734L-103.36943460694812,92.0106187921646L-92.96129810160537,74.13884406031788L-82.22140578752183,55.551270717271606L-71.18808567573825,36.42735879310655L-59.900712948309334,16.951746580585212L-48.399569438051536,-2.6875320177917805L-36.725699872651376,-22.300862926940017L-24.920765396242754,-41.6988825925117L-13.026894891109203,-60.694306255596764L-1.0865346301439558,-79.10373615689853L10.857703203338549,-96.74943221261044L22.763192587938118,-113.46102806634303L34.587445785860574,-129.07717594884969L46.2882649710956,-143.44710446481784L57.823892823013445,-156.43207426640063L69.15316154785155,-167.90671755931731L80.23563979638159,-177.7602485087289L91.0317769533603,-185.89753285865822L101.50304428384705,-192.24000643791706L111.61207243272251,-196.7264336845364L121.32278478661844,-199.31349886527198L130.60052622242227,-199.97622428203715L139.41218678280995,-198.70821142755935L147.72631983745796,-195.5217027619386L155.51325430827387,-190.4474635136618L162.74520055811027,-183.53448464627675L169.39634956508493,-174.84950985852078L175.4429650285753,-164.47639118463798L180.86346807819166,-152.51527941649826L185.6385142834046,-139.0816571637872L189.75106268901823,-124.30522388803314L193.18643663012074,-108.32864367512374L195.93237610944885,-91.30616783653556L197.979081550284,-73.40214563775166L199.31924876870562,-54.78943753250509L199.94809504041288,-35.64774622297251L199.86337616908284,-16.161881659021994L199.06539449534804,3.480023272053544L197.55699781781834,23.0883291383388L195.34356922999424,42.47372090148879L192.4330079093444,61.44903572292609L188.835700927095,79.83106999100713L184.5644861793557,97.44234812235082L179.6346065718519,114.11283606008998L174.0636556217702,129.68158292529736L167.8715146708734,143.99827497184313L161.0802819339133,156.9246868414405L153.7141936355847,168.33601610721308L145.79953751746308,178.1220882210767L137.36455902356082,186.18842023125077L128.43936049936653,192.4571329999703L119.0557937640252,196.8677031140262L109.24734643909915,199.3775472285866L99.04902243956644,199.9624332025344L88.49721705352422,198.61671405589257L77.62958705643753,195.35338249050898L66.48491632345046,190.20394544761132L55.10297741936103,183.2181199133523L43.52438966019434,174.46335290931876L31.79047415295491,164.02417030237407L19.94310633085107,152.00136072102916L8.024566510237952,138.51100245744473L-3.9226109973107013,123.6833427501824L-15.855789679432968,107.66154026810028L-27.73238298209599,90.60028293639878L-39.51000629043866,72.66429444964724L-51.14662818897149,54.026743890952154L-62.600720461239476,34.867573812354195L-73.83140629374819,15.371762918451912L-84.79860615515274,-4.272459873274449L-95.46318083015937,-23.875432752309635L-105.7870710976971,-43.247892169448306L-115.73343355480934,-62.202800145844314L-125.26677210162869,-80.5571500946488L-134.35306461815898,-98.13373372014975L-142.95988438075855,-114.76285193532145L-151.0565157850917,-130.2839532792721L-158.61406396249657,-144.54718401570895L-165.60555789859143,-157.41483494669293L-172.00604668614906,-168.762670972759L-177.79268856867648,-178.48113056282767L-182.94483245699132,-186.47638355316664L-187.44409162783228,-192.67123706250686L-191.2744093415061,-197.00588077691L-194.42211614441692,-199.43846440871278L-196.87597865194505,-199.94550175432883L-198.6272396376177,-198.52209744976426L-199.66964928547472,-195.18199423456707L-199.99948749410973,-189.9574402678923L-199.61557715279068,-182.89887777770605L-198.51928834227556,-174.07445604919928L-196.71453344533415,-163.56937345440173L-194.20775318442526,-151.485054875596L-191.00789363635363,-137.93817246441986L-187.12637430594413,-123.05951919098135L-182.5770473726648,-106.99274605882418L-177.37614825562585,-89.89297517754594L-171.54223767340838,-71.92530208381567L-165.09613540545405,-53.26320177054246L-158.0608459914452,-34.08685381368692L-150.46147663381385,-14.58140276750955L-142.32514759634907,5.064829376390019L-133.6808954187218,24.662161407535933L-124.55956929227237,44.02138423819045L-114.99372096689093,62.95558768664227L-105.01748858192077,81.28196506490117L-94.66647483558901,98.82357814792934L-83.97761992781109,115.41106548367242L-72.98906972979744,130.88427755067627L-61.740039650880455,145.09382297591614L-50.270674688476866,157.9025108844833L-38.62190616052858,169.1866754554193L-26.835305631786287,178.837369895296L-14.95293655522579,186.76141830200345L-3.017204157995317,192.88231526307285L8.929295892288174,197.1409645031371L20.843929500933985,199.49624944895749L32.68417629668105,199.92543020332573L44.40778137633929,198.42436309510867L55.97290610206676,195.00754068572886L67.33827741308488,189.70795184581587L78.46333511899233,182.57676325296987L89.30837664901887,173.68282538571285L99.83469874066009,163.11200778321148L110.00473556200596,150.9663699886717L119.78219277487297,137.36317618088933L129.13217706031344,122.43376300746354L138.02132064418794,106.32227155057994L146.41790037849253,89.1842556680841L154.29195095339026,71.1851801459688L161.61537183596676,52.49882316254725L168.36202755407623,33.30559848803381L174.507840967338,13.790813618654804L180.03087919249126,-5.857119337400906L184.9114318764045,-25.44850274861798L189.13208153743602,-44.794184960198706L192.67776572411407,-63.707386522936346L195.5358307692779,-82.00550351867922L197.69607694788175,-99.51187057182538L199.1507948772837,-116.05746652508766L199.89479303011555,-131.48254631154126L199.92541626156017,-145.6381832676048L199.24255528490232,-158.38770699596165L197.84864706154664,-169.60802289629427L195.74866610410518,-179.19080062381914L192.9501067236001,-187.0435200013493L189.4629562841238,-193.09036428672417L185.29965956041298,-197.2729521712426L180.47507432553968,-199.550901441819L175.00641832720257,-199.90221886474407L168.91320784185768,-198.32351252682295L162.21718802597007,-194.83002458375128L154.94225531294708,-189.45548409955154L147.11437213268943,-182.2517813978858L138.76147425813056,-173.2884670693353L129.91337110938747,-162.65208047163344L120.60163937133761,-150.44531420609522L110.85951030426742,-136.7860226370592L100.72175114973973,-121.8060840269871L90.22454105494609,-105.65012727302636L79.40534195831,-88.47413553830668L68.30276489710025,-70.44394025958468L56.956432214246455,-51.73362007138561L45.406836156004225,-32.52382010483152L33.69519436519048,-13.000007887915583L21.863302785645832,6.649317313574002L9.953386502855473,26.234444426216193L-1.9920509468766536,45.56628219878076L-13.930379261014735,64.45818484788118L-25.818993507775417,82.72775409297142L-37.6154661725305,100.1986001823624L-49.27769857110575,116.7020449079631L-60.764071089536664,132.0787501661797L-72.03359171412825,146.18025634171306L-83.04604232180591,158.87041566122682L-93.76212220858916,170.02670667820942L-104.1435883440774,179.54141719783541L-114.15339185133371,187.32268422085534L-123.75581022512026,193.2953808660954L-132.91657481667758,197.40184170839123L-141.60299313000502,199.60241952899946L-149.7840654932882,199.8758681031136L-157.43059568903303,198.21954732874661L-164.5152951481128,194.64944871648805L-171.01288033590882,189.20004099404585L-176.90016298297044,181.92393731622437L-182.1561328381958,172.89138729338254L-186.76203264920395,162.1895987427376L-190.70142510231932,149.92189571094002L-193.96025148326,136.2067208970025L-196.5268818492021,121.17649210712074L-198.392156533166,104.97632378205049L-199.54941883258803,87.76262594051381L-199.994538765445,69.70159406566665L-199.7259278091325,50.96760451440304L-198.7445445695103,31.741530941748053L-197.05389135987397,12.208997994749529L-194.66000170206954,-7.441410863586703L-191.5714187943482,-27.019974097278897L-187.79916502281358,-46.33766382832007L-183.35670262526347,-65.20797087036033L-178.2598856477938,-83.44870544497134L-172.52690336565132,-100.88375619457885L-166.1782153702199,-117.34479050932842L-159.236478553808,-132.67287975133752L-151.72646625283716,-146.72003368509516L-143.67497983793683,-159.350629299432L-135.11075306650233,-170.44272022582246L-126.06434953905581,-179.88921411098653L-116.56805362532037,-187.59890657630712L-106.65575524933837,-193.4973617814435L-96.36282894472123,-197.52763109039662L-85.7260076117167,-199.65080290141688L-74.78325142661402,-199.84637833226742L-63.57361237128315,-198.11246913362862L-52.137094866342835,-194.46581591984452L-40.51451300530878,-188.9416265409855L-28.747344899222853,-181.59323615671624L-16.877584651554507,-172.49159229391037L-4.9475924916784,-161.7245698597006L7.00005639827142,-149.39612272338167L18.92272382368903,-135.62528005853343L30.77786074260322,-120.5449971354845L42.523159112677114,-104.30087165959694L54.11670287809741,-87.04973804881166L65.51711755757557,-68.95815322260833L76.68371789963089,-50.2007885217321L87.57665307812888,-30.958743284484314L98.15704891001648,-11.417796361786584L108.38714658762065,8.233387547784812L118.23043743046328,27.80507942524179L127.65179317570505,47.10831773441091L136.6175913421761,65.95673281512305L145.09583522067948,84.16834625228697L153.0562680623151,101.56732784825104L160.47048105729,117.98569323501053L167.3120147189303,133.26492573632382L173.55645331102093,147.25750682065956L179.18151198150144,159.82834036892467L184.16711629158698,170.85605700572947L188.4954738564454,180.23418590119377L192.15113784181617,187.87218272968565L195.1210620899265,193.69630386069989L197.39464767798717,197.65031834176352L198.96378074312412,199.69605079922178L199.82286143873654,199.81375001533607L199.96882391896474,198.0022796231122L199.40114727993085,194.27912907773978L198.121857418716,188.68024479871428L196.13551980343638,181.25968311294528L193.4492231802202,172.08908834961383L190.07255427523162,161.2570011257051L186.01756358202442,148.86800350058377L181.29872235631652,135.0417092530602L175.93287097167294,119.91160902957193L169.93915882039389,103.6237815134969L163.33897597407216,86.33548305895728L156.15587684774962,68.21362940600521L148.41549614004057,49.43318413604302L140.1454573492617,30.175469426547526L131.37527419202377,10.626415414684933L122.13624527608087,-9.025234928321082L112.46134240338492,-28.589748080171006L102.38509290189735,-47.87823181410949L91.94345640611174,-66.70445892302843L81.1736965260646,-84.88666521312356L70.11424786273463,-102.2493044080175L58.8045788444893,-118.62474301975077L47.28505087407241,-133.85487882317872L35.59677428874734,-147.79266730750544L23.78146164773322,-160.30354136735122L11.881278870405422,-171.2667105265558L-0.06130524340663067,-180.57632715074647L-12.003670574012277,-188.1425083892474L-23.903197782518003,-193.89220397952178L-35.71742040864269,-197.76990153571393L-47.40417642300383,-199.73816251180423L-58.921758692936635,-199.7779836647412L-70.22906382488894,-197.88898052770008L-81.285738852246,-194.0893911220468L-92.0523252450537,-188.41589987217648L-102.49039972772214,-180.92328342330032L-112.56271140216091,-171.68388178174285L-122.23331468700158,-160.78689988382138L-131.46769759844722,-148.33754633654596L-140.2329049149788,-134.45601764543753L-148.4976557863836,-119.27633773661239L-156.2324553673253,-102.94506397732093L-163.4097000771471,-85.61987218817771L-170.00377611019104,-67.4680343084447L-175.99115084511524,-48.6648034124041L-181.35045682699396,-29.39172166910865L-186.0625680224471,-9.834867581930204L-190.11066807571956,9.816940569413028L-193.48031032207538,29.37396773901867L-196.15946934436093,48.64739397607423L-198.13858388874112,67.45113745117634L-199.41059098643495,85.60365104641477L-199.97095115970225,102.9296751635773L-199.81766462211309,119.26192982741344L-198.9512784152887,134.44272974682357L-197.37488445664692,148.32550674104027L-195.0941085051138,160.77622483177808L-192.11709008418913,171.67467433907575L-188.45445343400104,180.91563248638943L-184.1192695960372,188.40987930958374L-179.1270097658342,194.08505906133544L-173.495490080118,197.88637879421847L-167.24480803543872,199.77713737780886L-160.39727076518716,199.73907984218502L-152.97731543097123,197.77257362673035L-145.01142201245122,193.89660503256502L-136.52801880685448,188.14859591286032L-127.55738097544717,180.5840423708666L-118.13152249898775,171.27597895397128L-108.28408192777417,160.31427351688896L-98.05020233400394,147.80475956198836L-87.46640589487106,133.86821443383957L-76.57046355396682,118.63919323341032L-65.4012602261658,102.26472971018288L-53.998656027015556,84.90291667498873L-42.403344021849456,66.72137963934375"/></g></svg>