<?xml version="1.0" standalone="no"?><!DOCTYPE svg PUBLIC "-//W3C//DTD SVG 1.1//EN" "http://www.w3.org/Graphics/SVG/1.1/DTD/svg11.dtd"><svg width="500" height="500" style="background: rgb(209, 209, 209);" version="1.1" xmlns="http://www.w3.org/2000/svg" xmlns:xlink="http://www.w3.org/1999/xlink"><defs xmlns="http://www.w3.org/1999/xhtml"><style type="text/css"><![CDATA[
html, body { height: 100%; margin: 0px; background: rgb(34, 34, 34); }
body, #prev, #next { height: 100%; box-sizing: border-box; display: -webkit-flex; flex-direction: column; justify-content: center; }
#prev, #next { position: absolute; top: 0px; color: rgb(209, 209, 209); font-size: 70px; text-decoration: none; padding: 20px; }
#prev { left: 0px; }
#next { right: 0px; }
svg { margin: auto; }
.fa { display: inline-block; font-style: normal; font-variant: normal; font-weight: normal; font-stretch: normal; line-height: 1; font-family: FontAwesome; font-size: inherit; text-rendering: auto; -webkit-font-smoothing: antialiased; }
.fa-twitter::before { content: ''; }
.fa-github::before { content: ''; }
.fa-th::before { content: ''; }
footer { text-align: center; margin-bottom: 25px; }
a { color: rgb(209, 209, 209); text-decoration: none; padding: 10px; }]]></style></defs><g transform="translate(0,-25)"><path transform="scale(0.20863532206080002)" fill="#111" fill-opacity="1" d="M-21.650635094610966,-18.75l43.30127018922193,0l0,37.5l-43.30127018922193,0Z"/></g><g transform="translate(43.30127018922193,-25)"><path transform="scale(0.17501884078080002)" fill="#111" fill-opacity="1" d="M-21.650635094610966,-18.75l43.30127018922193,0l0,37.5l-43.30127018922193,0Z"/></g><g transform="translate(86.60254037844386,-25)"><path transform="scale(0.1452223915008)" fill="#111" fill-opacity="1" d="M-21.650635094610966,-18.75l43.30127018922193,0l0,37.5l-43.30127018922193,0Z"/></g><g transform="translate(129.9038105676658,-25)"><path transform="scale(0.11901557422080003)" fill="#111" fill-opacity="1" d="M-21.650635094610966,-18.75l43.30127018922193,0l0,37.5l-43.30127018922193,0Z"/></g><g transform="translate(173.20508075688772,-25)"><path transform="scale(0.09616798894080002)" fill="#111" fill-opacity="1" d="M-21.650635094610966,-18.75l43.30127018922193,0l0,37.5l-43.30127018922193,0Z"/></g><g transform="translate(216.50635094610965,-25)"><path transform="scale(0.07644923566079999)" fill="#111" fill-opacity="1" d="M-21.650635094610966,-18.75l43.30127018922193,0l0,37.5l-43.30127018922193,0Z"/></g><g transform="translate(259.8076211353316,-25)"><path transform="scale(0.059628914380799994)" fill="#111" fill-opacity="1" d="M-21.650635094610966,-18.75l43.30127018922193,0l0,37.5l-43.30127018922193,0Z"/></g><g transform="translate(303.10889132455355,-25)"><path transform="scale(0.04547662510080001)" fill="#111" fill-opacity="1" d="M-21.650635094610966,-18.75l43.30127018922193,0l0,37.5l-43.30127018922193,0Z"/></g><g transform="translate(346.4101615137755,-25)"><path transform="scale(0.033761967820799994)" fill="#111" fill-opacity="1" d="M-21.650635094610966,-18.75l43.30127018922193,0l0,37.5l-43.30127018922193,0Z"/></g><g transform="translate(389.71143170299746,-25)"><path transform="scale(0.024254542540800002)" fill="#111" fill-opacity="1" d="M-21.650635094610966,-18.75l43.30127018922193,0l0,37.5l-43.30127018922193,0Z"/></g><g transform="translate(433.0127018922194,-25)"><path transform="scale(0.016723949260800005)" fill="#111" fill-opacity="1" d="M-21.650635094610966,-18.75l43.30127018922193,0l0,37.5l-43.30127018922193,0Z"/></g><g transform="translate(476.31397208144136,-25)"><path transform="scale(0.0109397879808)" fill="#111" fill-opacity="1" d="M-21.650635094610966,-18.75l43.30127018922193,0l0,37.5l-43.30127018922193,0Z"/></g><g transform="translate(519.6152422706633,-25)"><path transform="scale(0.006671658700800001)" fill="#111" fill-opacity="1" d="M-21.650635094610966,-18.75l43.30127018922193,0l0,37.5l-43.30127018922193,0Z"/></g><g transform="translate(-21.650635094610966,12.5)"><path transform="scale(0.0036891614207999997)" fill="#111" fill-opacity="1" d="M-21.650635094610966,-18.75l43.30127018922193,0l0,37.5l-43.30127018922193,0Z"/></g><g transform="translate(21.650635094610966,12.5)"><path transform="scale(0.0017618961407999997)" fill="#111" fill-opacity="1" d="M-21.650635094610966,-18.75l43.30127018922193,0l0,37.5l-43.30127018922193,0Z"/></g><g transform="translate(64.9519052838329,12.5)"><path transform="scale(0.0006594628608)" fill="#111" fill-opacity="1" d="M-21.650635094610966,-18.75l43.30127018922193,0l0,37.5l-43.30127018922193,0Z"/></g><g transform="translate(108.25317547305482,12.5)"><path transform="scale(0.00015146158080000003)" fill="#111" fill-opacity="1" d="M-21.650635094610966,-18.75l43.30127018922193,0l0,37.5l-43.30127018922193,0Z"/></g><g transform="translate(151.55444566227675,12.5)"><path transform="scale(0.000007492300799999998)" fill="#111" fill-opacity="1" d="M-21.650635094610966,-18.75l43.30127018922193,0l0,37.5l-43.30127018922193,0Z"/></g><g transform="translate(194.85571585149867,12.5)"><path transform="scale(0.000002844979200489206)" fill="#111" fill-opacity="1" d="M0,-25l21.650635094610966,12.499999999999996l3.552713678800501e-15,25l-21.650635094610955,12.500000000000005l-21.650635094610973,-12.49999999999999l-1.7763568394002505e-14,-24.999999999999993l21.650635094610948,-12.500000000000016Z"/></g><g transform="translate(238.1569860407206,12.5)"><path transform="scale(0.00010995025920017553)" fill="#111" fill-opacity="1" d="M0,-25l21.650635094610966,12.499999999999996l3.552713678800501e-15,25l-21.650635094610955,12.500000000000005l-21.650635094610973,-12.49999999999999l-1.7763568394002505e-14,-24.999999999999993l21.650635094610948,-12.500000000000016Z"/></g><g transform="translate(281.45825622994255,12.5)"><path transform="scale(0.000544223539199784)" fill="#111" fill-opacity="1" d="M0,-25l21.650635094610966,12.499999999999996l3.552713678800501e-15,25l-21.650635094610955,12.500000000000005l-21.650635094610973,-12.49999999999999l-1.7763568394002505e-14,-24.999999999999993l21.650635094610948,-12.500000000000016Z"/></g><g transform="translate(324.7595264191645,12.5)"><path transform="scale(0.001536064819200078)" fill="#111" fill-opacity="1" d="M0,-25l21.650635094610966,12.499999999999996l3.552713678800501e-15,25l-21.650635094610955,12.500000000000005l-21.650635094610973,-12.49999999999999l-1.7763568394002505e-14,-24.999999999999993l21.650635094610948,-12.500000000000016Z"/></g><g transform="translate(368.06079660838645,12.5)"><path transform="scale(0.003315874099200222)" fill="#111" fill-opacity="1" d="M0,-25l21.650635094610966,12.499999999999996l3.552713678800501e-15,25l-21.650635094610955,12.500000000000005l-21.650635094610973,-12.49999999999999l-1.7763568394002505e-14,-24.999999999999993l21.650635094610948,-12.500000000000016Z"/></g><g transform="translate(411.3620667976084,12.5)"><path transform="scale(0.006114051379199381)" fill="#111" fill-opacity="1" d="M0,-25l21.650635094610966,12.499999999999996l3.552713678800501e-15,25l-21.650635094610955,12.500000000000005l-21.650635094610973,-12.49999999999999l-1.7763568394002505e-14,-24.999999999999993l21.650635094610948,-12.500000000000016Z"/></g><g transform="translate(454.66333698683036,12.5)"><path transform="scale(0.01016099665920045)" fill="#111" fill-opacity="1" d="M0,-25l21.650635094610966,12.499999999999996l3.552713678800501e-15,25l-21.650635094610955,12.500000000000005l-21.650635094610973,-12.49999999999999l-1.7763568394002505e-14,-24.999999999999993l21.650635094610948,-12.500000000000016Z"/></g><g transform="translate(497.9646071760523,12.5)"><path transform="scale(0.01568710993920046)" fill="#111" fill-opacity="1" d="M0,-25l21.650635094610966,12.499999999999996l3.552713678800501e-15,25l-21.650635094610955,12.500000000000005l-21.650635094610973,-12.49999999999999l-1.7763568394002505e-14,-24.999999999999993l21.650635094610948,-12.500000000000016Z"/></g><g transform="translate(541.2658773652743,12.5)"><path transform="scale(0.022922791219200177)" fill="#111" fill-opacity="1" d="M0,-25l21.650635094610966,12.499999999999996l3.552713678800501e-15,25l-21.650635094610955,12.500000000000005l-21.650635094610973,-12.49999999999999l-1.7763568394002505e-14,-24.999999999999993l21.650635094610948,-12.500000000000016Z"/></g><g transform="translate(0,50)"><path transform="scale(0.0320984404991993)" fill="#111" fill-opacity="1" d="M0,-25l21.650635094610966,12.499999999999996l3.552713678800501e-15,25l-21.650635094610955,12.500000000000005l-21.650635094610973,-12.49999999999999l-1.7763568394002505e-14,-24.999999999999993l21.650635094610948,-12.500000000000016Z"/></g><g transform="translate(43.30127018922193,50)"><path transform="scale(0.04344445777919965)" fill="#111" fill-opacity="1" d="M0,-25l21.650635094610966,12.499999999999996l3.552713678800501e-15,25l-21.650635094610955,12.500000000000005l-21.650635094610973,-12.49999999999999l-1.7763568394002505e-14,-24.999999999999993l21.650635094610948,-12.500000000000016Z"/></g><g transform="translate(86.60254037844386,50)"><path transform="scale(0.057191243059199336)" fill="#111" fill-opacity="1" d="M0,-25l21.650635094610966,12.499999999999996l3.552713678800501e-15,25l-21.650635094610955,12.500000000000005l-21.650635094610973,-12.49999999999999l-1.7763568394002505e-14,-24.999999999999993l21.650635094610948,-12.500000000000016Z"/></g><g transform="translate(129.9038105676658,50)"><path transform="scale(0.07356919633919964)" fill="#111" fill-opacity="1" d="M0,-25l21.650635094610966,12.499999999999996l3.552713678800501e-15,25l-21.650635094610955,12.500000000000005l-21.650635094610973,-12.49999999999999l-1.7763568394002505e-14,-24.999999999999993l21.650635094610948,-12.500000000000016Z"/></g><g transform="translate(173.20508075688772,50)"><path transform="scale(0.09280871761919975)" fill="#111" fill-opacity="1" d="M0,-25l21.650635094610966,12.499999999999996l3.552713678800501e-15,25l-21.650635094610955,12.500000000000005l-21.650635094610973,-12.49999999999999l-1.7763568394002505e-14,-24.999999999999993l21.650635094610948,-12.500000000000016Z"/></g><g transform="translate(216.50635094610965,50)"><path transform="scale(0.11514020689919988)" fill="#111" fill-opacity="1" d="M0,-25l21.650635094610966,12.499999999999996l3.552713678800501e-15,25l-21.650635094610955,12.500000000000005l-21.650635094610973,-12.49999999999999l-1.7763568394002505e-14,-24.999999999999993l21.650635094610948,-12.500000000000016Z"/></g><g transform="translate(259.8076211353316,50)"><path transform="scale(0.14079406417920026)" fill="#111" fill-opacity="1" d="M0,-25l21.650635094610966,12.499999999999996l3.552713678800501e-15,25l-21.650635094610955,12.500000000000005l-21.650635094610973,-12.49999999999999l-1.7763568394002505e-14,-24.999999999999993l21.650635094610948,-12.500000000000016Z"/></g><g transform="translate(303.10889132455355,50)"><path transform="scale(0.17000068945920005)" fill="#111" fill-opacity="1" d="M0,-25l21.650635094610966,12.499999999999996l3.552713678800501e-15,25l-21.650635094610955,12.500000000000005l-21.650635094610973,-12.49999999999999l-1.7763568394002505e-14,-24.999999999999993l21.650635094610948,-12.500000000000016Z"/></g><g transform="translate(346.4101615137755,50)"><path transform="scale(0.20299048273920003)" fill="#111" fill-opacity="1" d="M0,-25l21.650635094610966,12.499999999999996l3.552713678800501e-15,25l-21.650635094610955,12.500000000000005l-21.650635094610973,-12.49999999999999l-1.7763568394002505e-14,-24.999999999999993l21.650635094610948,-12.500000000000016Z"/></g><g transform="translate(389.71143170299746,50)"><path transform="scale(0.23999384401919988)" fill="#111" fill-opacity="1" d="M0,-25l21.650635094610966,12.499999999999996l3.552713678800501e-15,25l-21.650635094610955,12.500000000000005l-21.650635094610973,-12.49999999999999l-1.7763568394002505e-14,-24.999999999999993l21.650635094610948,-12.500000000000016Z"/></g><g transform="translate(433.0127018922194,50)"><path transform="scale(0.28124117329919984)" fill="#111" fill-opacity="1" d="M0,-25l21.650635094610966,12.499999999999996l3.552713678800501e-15,25l-21.650635094610955,12.500000000000005l-21.650635094610973,-12.49999999999999l-1.7763568394002505e-14,-24.999999999999993l21.650635094610948,-12.500000000000016Z"/></g><g transform="translate(476.31397208144136,50)"><path transform="scale(0.32696287057919965)" fill="#111" fill-opacity="1" d="M0,-25l21.650635094610966,12.499999999999996l3.552713678800501e-15,25l-21.650635094610955,12.500000000000005l-21.650635094610973,-12.49999999999999l-1.7763568394002505e-14,-24.999999999999993l21.650635094610948,-12.500000000000016Z"/></g><g transform="translate(519.6152422706633,50)"><path transform="scale(0.3773893358592)" fill="#111" fill-opacity="1" d="M0,-25l21.650635094610966,12.499999999999996l3.552713678800501e-15,25l-21.650635094610955,12.500000000000005l-21.650635094610973,-12.49999999999999l-1.7763568394002505e-14,-24.999999999999993l21.650635094610948,-12.500000000000016Z"/></g><g transform="translate(-21.650635094610966,87.5)"><path transform="scale(0.4327509691391995)" fill="#111" fill-opacity="1" d="M0,-25l21.650635094610966,12.499999999999996l3.552713678800501e-15,25l-21.650635094610955,12.500000000000005l-21.650635094610973,-12.49999999999999l-1.7763568394002505e-14,-24.999999999999993l21.650635094610948,-12.500000000000016Z"/></g><g transform="translate(21.650635094610966,87.5)"><path transform="scale(0.4932781704192001)" fill="#111" fill-opacity="1" d="M0,-25l21.650635094610966,12.499999999999996l3.552713678800501e-15,25l-21.650635094610955,12.500000000000005l-21.650635094610973,-12.49999999999999l-1.7763568394002505e-14,-24.999999999999993l21.650635094610948,-12.500000000000016Z"/></g><g transform="translate(64.9519052838329,87.5)"><path transform="scale(0.5592013396991998)" fill="#111" fill-opacity="1" d="M0,-25l21.650635094610966,12.499999999999996l3.552713678800501e-15,25l-21.650635094610955,12.500000000000005l-21.650635094610973,-12.49999999999999l-1.7763568394002505e-14,-24.999999999999993l21.650635094610948,-12.500000000000016Z"/></g><g transform="translate(108.25317547305482,87.5)"><path transform="scale(0.6297348129792)" fill="#111" fill-opacity="1" d="M0,-25l21.650635094610966,12.499999999999996l3.552713678800501e-15,25l-21.650635094610955,12.500000000000005l-21.650635094610973,-12.49999999999999l-1.7763568394002505e-14,-24.999999999999993l21.650635094610948,-12.500000000000016Z"/></g><g transform="translate(151.55444566227675,87.5)"><path transform="scale(0.6965427182591999)" fill="#111" fill-opacity="1" d="M0,-25l21.650635094610966,12.499999999999996l3.552713678800501e-15,25l-21.650635094610955,12.500000000000005l-21.650635094610973,-12.49999999999999l-1.7763568394002505e-14,-24.999999999999993l21.650635094610948,-12.500000000000016Z"/></g><g transform="translate(194.85571585149867,87.5)"><path transform="scale(0.7579177915392)" fill="#111" fill-opacity="1" d="M0,-25l21.650635094610966,12.499999999999996l3.552713678800501e-15,25l-21.650635094610955,12.500000000000005l-21.650635094610973,-12.49999999999999l-1.7763568394002505e-14,-24.999999999999993l21.650635094610948,-12.500000000000016Z"/></g><g transform="translate(238.1569860407206,87.5)"><path transform="scale(0.8140904328192001)" fill="#111" fill-opacity="1" d="M0,-25l21.650635094610966,12.499999999999996l3.552713678800501e-15,25l-21.650635094610955,12.500000000000005l-21.650635094610973,-12.49999999999999l-1.7763568394002505e-14,-24.999999999999993l21.650635094610948,-12.500000000000016Z"/></g><g transform="translate(281.45825622994255,87.5)"><path transform="scale(0.8652910420991998)" fill="#111" fill-opacity="1" d="M0,-25l21.650635094610966,12.499999999999996l3.552713678800501e-15,25l-21.650635094610955,12.500000000000005l-21.650635094610973,-12.49999999999999l-1.7763568394002505e-14,-24.999999999999993l21.650635094610948,-12.500000000000016Z"/></g><g transform="translate(324.7595264191645,87.5)"><path transform="scale(0.9117500193792001)" fill="#111" fill-opacity="1" d="M0,-25l21.650635094610966,12.499999999999996l3.552713678800501e-15,25l-21.650635094610955,12.500000000000005l-21.650635094610973,-12.49999999999999l-1.7763568394002505e-14,-24.999999999999993l21.650635094610948,-12.500000000000016Z"/></g><g transform="translate(368.06079660838645,87.5)"><path transform="scale(0.9536977646592)" fill="#111" fill-opacity="1" d="M0,-25l21.650635094610966,12.499999999999996l3.552713678800501e-15,25l-21.650635094610955,12.500000000000005l-21.650635094610973,-12.49999999999999l-1.7763568394002505e-14,-24.999999999999993l21.650635094610948,-12.500000000000016Z"/></g><g transform="translate(411.3620667976084,87.5)"><path transform="scale(0.9913646779391999)" fill="#111" fill-opacity="1" d="M0,-25l21.650635094610966,12.499999999999996l3.552713678800501e-15,25l-21.650635094610955,12.500000000000005l-21.650635094610973,-12.49999999999999l-1.7763568394002505e-14,-24.999999999999993l21.650635094610948,-12.500000000000016Z"/></g><g transform="translate(454.66333698683036,87.5)"><path transform="scale(1.0249811592192)" fill="#111" fill-opacity="1" d="M0,-25l21.650635094610966,12.499999999999996l3.552713678800501e-15,25l-21.650635094610955,12.500000000000005l-21.650635094610973,-12.49999999999999l-1.7763568394002505e-14,-24.999999999999993l21.650635094610948,-12.500000000000016Z"/></g><g transform="translate(497.9646071760523,87.5)"><path transform="scale(1.0547776084992)" fill="#111" fill-opacity="1" d="M0,-25l21.650635094610966,12.499999999999996l3.552713678800501e-15,25l-21.650635094610955,12.500000000000005l-21.650635094610973,-12.49999999999999l-1.7763568394002505e-14,-24.999999999999993l21.650635094610948,-12.500000000000016Z"/></g><g transform="translate(541.2658773652743,87.5)"><path transform="scale(1.0809844257791998)" fill="#111" fill-opacity="1" d="M0,-25l21.650635094610966,12.499999999999996l3.552713678800501e-15,25l-21.650635094610955,12.500000000000005l-21.650635094610973,-12.49999999999999l-1.7763568394002505e-14,-24.999999999999993l21.650635094610948,-12.500000000000016Z"/></g><g transform="translate(0,125)"><path transform="scale(1.1038320110592)" fill="#111" fill-opacity="1" d="M0,-25l21.650635094610966,12.499999999999996l3.552713678800501e-15,25l-21.650635094610955,12.500000000000005l-21.650635094610973,-12.49999999999999l-1.7763568394002505e-14,-24.999999999999993l21.650635094610948,-12.500000000000016Z"/></g><g transform="translate(43.30127018922193,125)"><path transform="scale(1.1235507643392)" fill="#111" fill-opacity="1" d="M0,-25l21.650635094610966,12.499999999999996l3.552713678800501e-15,25l-21.650635094610955,12.500000000000005l-21.650635094610973,-12.49999999999999l-1.7763568394002505e-14,-24.999999999999993l21.650635094610948,-12.500000000000016Z"/></g><g transform="translate(86.60254037844386,125)"><path transform="scale(1.1403710856192)" fill="#111" fill-opacity="1" d="M0,-25l21.650635094610966,12.499999999999996l3.552713678800501e-15,25l-21.650635094610955,12.500000000000005l-21.650635094610973,-12.49999999999999l-1.7763568394002505e-14,-24.999999999999993l21.650635094610948,-12.500000000000016Z"/></g><g transform="translate(129.9038105676658,125)"><path transform="scale(1.1545233748992)" fill="#111" fill-opacity="1" d="M0,-25l21.650635094610966,12.499999999999996l3.552713678800501e-15,25l-21.650635094610955,12.500000000000005l-21.650635094610973,-12.49999999999999l-1.7763568394002505e-14,-24.999999999999993l21.650635094610948,-12.500000000000016Z"/></g><g transform="translate(173.20508075688772,125)"><path transform="scale(1.1662380321791999)" fill="#111" fill-opacity="1" d="M0,-25l21.650635094610966,12.499999999999996l3.552713678800501e-15,25l-21.650635094610955,12.500000000000005l-21.650635094610973,-12.49999999999999l-1.7763568394002505e-14,-24.999999999999993l21.650635094610948,-12.500000000000016Z"/></g><g transform="translate(216.50635094610965,125)"><path transform="scale(1.1757454574592)" fill="#111" fill-opacity="1" d="M0,-25l21.650635094610966,12.499999999999996l3.552713678800501e-15,25l-21.650635094610955,12.500000000000005l-21.650635094610973,-12.49999999999999l-1.7763568394002505e-14,-24.999999999999993l21.650635094610948,-12.500000000000016Z"/></g><g transform="translate(259.8076211353316,125)"><path transform="scale(1.1832760507392)" fill="#111" fill-opacity="1" d="M0,-25l21.650635094610966,12.499999999999996l3.552713678800501e-15,25l-21.650635094610955,12.500000000000005l-21.650635094610973,-12.49999999999999l-1.7763568394002505e-14,-24.999999999999993l21.650635094610948,-12.500000000000016Z"/></g><g transform="translate(303.10889132455355,125)"><path transform="scale(1.1890602120192)" fill="#111" fill-opacity="1" d="M0,-25l21.650635094610966,12.499999999999996l3.552713678800501e-15,25l-21.650635094610955,12.500000000000005l-21.650635094610973,-12.49999999999999l-1.7763568394002505e-14,-24.999999999999993l21.650635094610948,-12.500000000000016Z"/></g><g transform="translate(346.4101615137755,125)"><path transform="scale(1.1933283412992)" fill="#111" fill-opacity="1" d="M0,-25l21.650635094610966,12.499999999999996l3.552713678800501e-15,25l-21.650635094610955,12.500000000000005l-21.650635094610973,-12.49999999999999l-1.7763568394002505e-14,-24.999999999999993l21.650635094610948,-12.500000000000016Z"/></g><g transform="translate(389.71143170299746,125)"><path transform="scale(1.1963108385792)" fill="#111" fill-opacity="1" d="M0,-25l21.650635094610966,12.499999999999996l3.552713678800501e-15,25l-21.650635094610955,12.500000000000005l-21.650635094610973,-12.49999999999999l-1.7763568394002505e-14,-24.999999999999993l21.650635094610948,-12.500000000000016Z"/></g><g transform="translate(433.0127018922194,125)"><path transform="scale(1.1982381038591998)" fill="#111" fill-opacity="1" d="M0,-25l21.650635094610966,12.499999999999996l3.552713678800501e-15,25l-21.650635094610955,12.500000000000005l-21.650635094610973,-12.49999999999999l-1.7763568394002505e-14,-24.999999999999993l21.650635094610948,-12.500000000000016Z"/></g><g transform="translate(476.31397208144136,125)"><path transform="scale(1.1993405371391999)" fill="#111" fill-opacity="1" d="M0,-25l21.650635094610966,12.499999999999996l3.552713678800501e-15,25l-21.650635094610955,12.500000000000005l-21.650635094610973,-12.49999999999999l-1.7763568394002505e-14,-24.999999999999993l21.650635094610948,-12.500000000000016Z"/></g><g transform="translate(519.6152422706633,125)"><path transform="scale(1.1998485384192)" fill="#111" fill-opacity="1" d="M0,-25l21.650635094610966,12.499999999999996l3.552713678800501e-15,25l-21.650635094610955,12.500000000000005l-21.650635094610973,-12.49999999999999l-1.7763568394002505e-14,-24.999999999999993l21.650635094610948,-12.500000000000016Z"/></g><g transform="translate(-21.650635094610966,162.5)"><path transform="scale(1.1999925076992)" fill="#111" fill-opacity="1" d="M0,-25l21.650635094610966,12.499999999999996l3.552713678800501e-15,25l-21.650635094610955,12.500000000000005l-21.650635094610973,-12.49999999999999l-1.7763568394002505e-14,-24.999999999999993l21.650635094610948,-12.500000000000016Z"/></g><g transform="translate(21.650635094610966,162.5)"><path transform="scale(1.1999971550207995)" fill="#111" fill-opacity="1" d="M-21.650635094610966,-18.75l43.30127018922193,0l0,37.5l-43.30127018922193,0Z"/></g><g transform="translate(64.9519052838329,162.5)"><path transform="scale(1.1998900497407998)" fill="#111" fill-opacity="1" d="M-21.650635094610966,-18.75l43.30127018922193,0l0,37.5l-43.30127018922193,0Z"/></g><g transform="translate(108.25317547305482,162.5)"><path transform="scale(1.1994557764608003)" fill="#111" fill-opacity="1" d="M-21.650635094610966,-18.75l43.30127018922193,0l0,37.5l-43.30127018922193,0Z"/></g><g transform="translate(151.55444566227675,162.5)"><path transform="scale(1.1984639351808)" fill="#111" fill-opacity="1" d="M-21.650635094610966,-18.75l43.30127018922193,0l0,37.5l-43.30127018922193,0Z"/></g><g transform="translate(194.85571585149867,162.5)"><path transform="scale(1.1966841259007996)" fill="#111" fill-opacity="1" d="M-21.650635094610966,-18.75l43.30127018922193,0l0,37.5l-43.30127018922193,0Z"/></g><g transform="translate(238.1569860407206,162.5)"><path transform="scale(1.1938859486208007)" fill="#111" fill-opacity="1" d="M-21.650635094610966,-18.75l43.30127018922193,0l0,37.5l-43.30127018922193,0Z"/></g><g transform="translate(281.45825622994255,162.5)"><path transform="scale(1.1898390033407995)" fill="#111" fill-opacity="1" d="M-21.650635094610966,-18.75l43.30127018922193,0l0,37.5l-43.30127018922193,0Z"/></g><g transform="translate(324.7595264191645,162.5)"><path transform="scale(1.1843128900607995)" fill="#111" fill-opacity="1" d="M-21.650635094610966,-18.75l43.30127018922193,0l0,37.5l-43.30127018922193,0Z"/></g><g transform="translate(368.06079660838645,162.5)"><path transform="scale(1.1770772087807997)" fill="#111" fill-opacity="1" d="M-21.650635094610966,-18.75l43.30127018922193,0l0,37.5l-43.30127018922193,0Z"/></g><g transform="translate(411.3620667976084,162.5)"><path transform="scale(1.1679015595008007)" fill="#111" fill-opacity="1" d="M-21.650635094610966,-18.75l43.30127018922193,0l0,37.5l-43.30127018922193,0Z"/></g><g transform="translate(454.66333698683036,162.5)"><path transform="scale(1.1565555422208003)" fill="#111" fill-opacity="1" d="M-21.650635094610966,-18.75l43.30127018922193,0l0,37.5l-43.30127018922193,0Z"/></g><g transform="translate(497.9646071760523,162.5)"><path transform="scale(1.1428087569408005)" fill="#111" fill-opacity="1" d="M-21.650635094610966,-18.75l43.30127018922193,0l0,37.5l-43.30127018922193,0Z"/></g><g transform="translate(541.2658773652743,162.5)"><path transform="scale(1.1264308036608004)" fill="#111" fill-opacity="1" d="M-21.650635094610966,-18.75l43.30127018922193,0l0,37.5l-43.30127018922193,0Z"/></g><g transform="translate(0,200)"><path transform="scale(1.1071912823808001)" fill="#111" fill-opacity="1" d="M-21.650635094610966,-18.75l43.30127018922193,0l0,37.5l-43.30127018922193,0Z"/></g><g transform="translate(43.30127018922193,200)"><path transform="scale(1.0848597931008002)" fill="#111" fill-opacity="1" d="M-21.650635094610966,-18.75l43.30127018922193,0l0,37.5l-43.30127018922193,0Z"/></g><g transform="translate(86.60254037844386,200)"><path transform="scale(1.0592059358207997)" fill="#111" fill-opacity="1" d="M-21.650635094610966,-18.75l43.30127018922193,0l0,37.5l-43.30127018922193,0Z"/></g><g transform="translate(129.9038105676658,200)"><path transform="scale(1.0299993105407999)" fill="#111" fill-opacity="1" d="M-21.650635094610966,-18.75l43.30127018922193,0l0,37.5l-43.30127018922193,0Z"/></g><g transform="translate(173.20508075688772,200)"><path transform="scale(0.9970095172607999)" fill="#111" fill-opacity="1" d="M-21.650635094610966,-18.75l43.30127018922193,0l0,37.5l-43.30127018922193,0Z"/></g><g transform="translate(216.50635094610965,200)"><path transform="scale(0.9600061559808001)" fill="#111" fill-opacity="1" d="M-21.650635094610966,-18.75l43.30127018922193,0l0,37.5l-43.30127018922193,0Z"/></g><g transform="translate(259.8076211353316,200)"><path transform="scale(0.9187588267008001)" fill="#111" fill-opacity="1" d="M-21.650635094610966,-18.75l43.30127018922193,0l0,37.5l-43.30127018922193,0Z"/></g><g transform="translate(303.10889132455355,200)"><path transform="scale(0.8730371294208004)" fill="#111" fill-opacity="1" d="M-21.650635094610966,-18.75l43.30127018922193,0l0,37.5l-43.30127018922193,0Z"/></g><g transform="translate(346.4101615137755,200)"><path transform="scale(0.8226106641408)" fill="#111" fill-opacity="1" d="M-21.650635094610966,-18.75l43.30127018922193,0l0,37.5l-43.30127018922193,0Z"/></g><g transform="translate(389.71143170299746,200)"><path transform="scale(0.7672490308608004)" fill="#111" fill-opacity="1" d="M-21.650635094610966,-18.75l43.30127018922193,0l0,37.5l-43.30127018922193,0Z"/></g><g transform="translate(433.0127018922194,200)"><path transform="scale(0.7067218295807999)" fill="#111" fill-opacity="1" d="M-21.650635094610966,-18.75l43.30127018922193,0l0,37.5l-43.30127018922193,0Z"/></g><g transform="translate(476.31397208144136,200)"><path transform="scale(0.6407986603008001)" fill="#111" fill-opacity="1" d="M-21.650635094610966,-18.75l43.30127018922193,0l0,37.5l-43.30127018922193,0Z"/></g><g transform="translate(519.6152422706633,200)"><path transform="scale(0.5702651870208)" fill="#111" fill-opacity="1" d="M-21.650635094610966,-18.75l43.30127018922193,0l0,37.5l-43.30127018922193,0Z"/></g><g transform="translate(-21.650635094610966,237.5)"><path transform="scale(0.5034572817408001)" fill="#111" fill-opacity="1" d="M-21.650635094610966,-18.75l43.30127018922193,0l0,37.5l-43.30127018922193,0Z"/></g><g transform="translate(21.650635094610966,237.5)"><path transform="scale(0.4420822084608)" fill="#111" fill-opacity="1" d="M-21.650635094610966,-18.75l43.30127018922193,0l0,37.5l-43.30127018922193,0Z"/></g><g transform="translate(64.9519052838329,237.5)"><path transform="scale(0.3859095671807999)" fill="#111" fill-opacity="1" d="M-21.650635094610966,-18.75l43.30127018922193,0l0,37.5l-43.30127018922193,0Z"/></g><g transform="translate(108.25317547305482,237.5)"><path transform="scale(0.3347089579008)" fill="#111" fill-opacity="1" d="M-21.650635094610966,-18.75l43.30127018922193,0l0,37.5l-43.30127018922193,0Z"/></g><g transform="translate(151.55444566227675,237.5)"><path transform="scale(0.2882499806208)" fill="#111" fill-opacity="1" d="M-21.650635094610966,-18.75l43.30127018922193,0l0,37.5l-43.30127018922193,0Z"/></g><g transform="translate(194.85571585149867,237.5)"><path transform="scale(0.24630223534079998)" fill="#111" fill-opacity="1" d="M-21.650635094610966,-18.75l43.30127018922193,0l0,37.5l-43.30127018922193,0Z"/></g><g transform="translate(238.1569860407206,237.5)"><path transform="scale(0.20863532206080002)" fill="#111" fill-opacity="1" d="M-21.650635094610966,-18.75l43.30127018922193,0l0,37.5l-43.30127018922193,0Z"/></g><g transform="translate(281.45825622994255,237.5)"><path transform="scale(0.17501884078080002)" fill="#111" fill-opacity="1" d="M-21.650635094610966,-18.75l43.30127018922193,0l0,37.5l-43.30127018922193,0Z"/></g><g transform="translate(324.7595264191645,237.5)"><path transform="scale(0.1452223915008)" fill="#111" fill-opacity="1" d="M-21.650635094610966,-18.75l43.30127018922193,0l0,37.5l-43.30127018922193,0Z"/></g><g transform="translate(368.06079660838645,237.5)"><path transform="scale(0.11901557422080003)" fill="#111" fill-opacity="1" d="M-21.650635094610966,-18.75l43.30127018922193,0l0,37.5l-43.30127018922193,0Z"/></g><g transform="translate(411.3620667976084,237.5)"><path transform="scale(0.09616798894080002)" fill="#111" fill-opacity="1" d="M-21.650635094610966,-18.75l43.30127018922193,0l0,37.5l-43.30127018922193,0Z"/></g><g transform="translate(454.66333698683036,237.5)"><path transform="scale(0.07644923566079999)" fill="#111" fill-opacity="1" d="M-21.650635094610966,-18.75l43.30127018922193,0l0,37.5l-43.30127018922193,0Z"/></g><g transform="translate(497.9646071760523,237.5)"><path transform="scale(0.059628914380799994)" fill="#111" fill-opacity="1" d="M-21.650635094610966,-18.75l43.30127018922193,0l0,37.5l-43.30127018922193,0Z"/></g><g transform="translate(541.2658773652743,237.5)"><path transform="scale(0.04547662510080001)" fill="#111" fill-opacity="1" d="M-21.650635094610966,-18.75l43.30127018922193,0l0,37.5l-43.30127018922193,0Z"/></g><g transform="translate(0,275)"><path transform="scale(0.033761967820799994)" fill="#111" fill-opacity="1" d="M-21.650635094610966,-18.75l43.30127018922193,0l0,37.5l-43.30127018922193,0Z"/></g><g transform="translate(43.30127018922193,275)"><path transform="scale(0.024254542540800002)" fill="#111" fill-opacity="1" d="M-21.650635094610966,-18.75l43.30127018922193,0l0,37.5l-43.30127018922193,0Z"/></g><g transform="translate(86.60254037844386,275)"><path transform="scale(0.016723949260800005)" fill="#111" fill-opacity="1" d="M-21.650635094610966,-18.75l43.30127018922193,0l0,37.5l-43.30127018922193,0Z"/></g><g transform="translate(129.9038105676658,275)"><path transform="scale(0.0109397879808)" fill="#111" fill-opacity="1" d="M-21.650635094610966,-18.75l43.30127018922193,0l0,37.5l-43.30127018922193,0Z"/></g><g transform="translate(173.20508075688772,275)"><path transform="scale(0.006671658700800001)" fill="#111" fill-opacity="1" d="M-21.650635094610966,-18.75l43.30127018922193,0l0,37.5l-43.30127018922193,0Z"/></g><g transform="translate(216.50635094610965,275)"><path transform="scale(0.0036891614207999997)" fill="#111" fill-opacity="1" d="M-21.650635094610966,-18.75l43.30127018922193,0l0,37.5l-43.30127018922193,0Z"/></g><g transform="translate(259.8076211353316,275)"><path transform="scale(0.0017618961407999997)" fill="#111" fill-opacity="1" d="M-21.650635094610966,-18.75l43.30127018922193,0l0,37.5l-43.30127018922193,0Z"/></g><g transform="translate(303.10889132455355,275)"><path transform="scale(0.0006594628608)" fill="#111" fill-opacity="1" d="M-21.650635094610966,-18.75l43.30127018922193,0l0,37.5l-43.30127018922193,0Z"/></g><g transform="translate(346.4101615137755,275)"><path transform="scale(0.00015146158080000003)" fill="#111" fill-opacity="1" d="M-21.650635094610966,-18.75l43.30127018922193,0l0,37.5l-43.30127018922193,0Z"/></g><g transform="translate(389.71143170299746,275)"><path transform="scale(0.000007492300799999998)" fill="#111" fill-opacity="1" d="M-21.650635094610966,-18.75l43.30127018922193,0l0,37.5l-43.30127018922193,0Z"/></g><g transform="translate(433.0127018922194,275)"><path transform="scale(0.000002844979200489206)" fill="#111" fill-opacity="1" d="M0,-25l21.650635094610966,12.499999999999996l3.552713678800501e-15,25l-21.650635094610955,12.500000000000005l-21.650635094610973,-12.49999999999999l-1.7763568394002505e-14,-24.999999999999993l21.650635094610948,-12.500000000000016Z"/></g><g transform="translate(476.31397208144136,275)"><path transform="scale(0.00010995025920017553)" fill="#111" fill-opacity="1" d="M0,-25l21.650635094610966,12.499999999999996l3.552713678800501e-15,25l-21.650635094610955,12.500000000000005l-21.650635094610973,-12.49999999999999l-1.7763568394002505e-14,-24.999999999999993l21.650635094610948,-12.500000000000016Z"/></g><g transform="translate(519.6152422706633,275)"><path transform="scale(0.000544223539199784)" fill="#111" fill-opacity="1" d="M0,-25l21.650635094610966,12.499999999999996l3.552713678800501e-15,25l-21.650635094610955,12.500000000000005l-21.650635094610973,-12.49999999999999l-1.7763568394002505e-14,-24.999999999999993l21.650635094610948,-12.500000000000016Z"/></g><g transform="translate(-21.650635094610966,312.5)"><path transform="scale(0.001536064819200078)" fill="#111" fill-opacity="1" d="M0,-25l21.650635094610966,12.499999999999996l3.552713678800501e-15,25l-21.650635094610955,12.500000000000005l-21.650635094610973,-12.49999999999999l-1.7763568394002505e-14,-24.999999999999993l21.650635094610948,-12.500000000000016Z"/></g><g transform="translate(21.650635094610966,312.5)"><path transform="scale(0.003315874099200222)" fill="#111" fill-opacity="1" d="M0,-25l21.650635094610966,12.499999999999996l3.552713678800501e-15,25l-21.650635094610955,12.500000000000005l-21.650635094610973,-12.49999999999999l-1.7763568394002505e-14,-24.999999999999993l21.650635094610948,-12.500000000000016Z"/></g><g transform="translate(64.9519052838329,312.5)"><path transform="scale(0.006114051379199381)" fill="#111" fill-opacity="1" d="M0,-25l21.650635094610966,12.499999999999996l3.552713678800501e-15,25l-21.650635094610955,12.500000000000005l-21.650635094610973,-12.49999999999999l-1.7763568394002505e-14,-24.999999999999993l21.650635094610948,-12.500000000000016Z"/></g><g transform="translate(108.25317547305482,312.5)"><path transform="scale(0.01016099665920045)" fill="#111" fill-opacity="1" d="M0,-25l21.650635094610966,12.499999999999996l3.552713678800501e-15,25l-21.650635094610955,12.500000000000005l-21.650635094610973,-12.49999999999999l-1.7763568394002505e-14,-24.999999999999993l21.650635094610948,-12.500000000000016Z"/></g><g transform="translate(151.55444566227675,312.5)"><path transform="scale(0.01568710993920046)" fill="#111" fill-opacity="1" d="M0,-25l21.650635094610966,12.499999999999996l3.552713678800501e-15,25l-21.650635094610955,12.500000000000005l-21.650635094610973,-12.49999999999999l-1.7763568394002505e-14,-24.999999999999993l21.650635094610948,-12.500000000000016Z"/></g><g transform="translate(194.85571585149867,312.5)"><path transform="scale(0.022922791219200177)" fill="#111" fill-opacity="1" d="M0,-25l21.650635094610966,12.499999999999996l3.552713678800501e-15,25l-21.650635094610955,12.500000000000005l-21.650635094610973,-12.49999999999999l-1.7763568394002505e-14,-24.999999999999993l21.650635094610948,-12.500000000000016Z"/></g><g transform="translate(238.1569860407206,312.5)"><path transform="scale(0.0320984404991993)" fill="#111" fill-opacity="1" d="M0,-25l21.650635094610966,12.499999999999996l3.552713678800501e-15,25l-21.650635094610955,12.500000000000005l-21.650635094610973,-12.49999999999999l-1.7763568394002505e-14,-24.999999999999993l21.650635094610948,-12.500000000000016Z"/></g><g transform="translate(281.45825622994255,312.5)"><path transform="scale(0.04344445777919965)" fill="#111" fill-opacity="1" d="M0,-25l21.650635094610966,12.499999999999996l3.552713678800501e-15,25l-21.650635094610955,12.500000000000005l-21.650635094610973,-12.49999999999999l-1.7763568394002505e-14,-24.999999999999993l21.650635094610948,-12.500000000000016Z"/></g><g transform="translate(324.7595264191645,312.5)"><path transform="scale(0.057191243059199336)" fill="#111" fill-opacity="1" d="M0,-25l21.650635094610966,12.499999999999996l3.552713678800501e-15,25l-21.650635094610955,12.500000000000005l-21.650635094610973,-12.49999999999999l-1.7763568394002505e-14,-24.999999999999993l21.650635094610948,-12.500000000000016Z"/></g><g transform="translate(368.06079660838645,312.5)"><path transform="scale(0.07356919633919964)" fill="#111" fill-opacity="1" d="M0,-25l21.650635094610966,12.499999999999996l3.552713678800501e-15,25l-21.650635094610955,12.500000000000005l-21.650635094610973,-12.49999999999999l-1.7763568394002505e-14,-24.999999999999993l21.650635094610948,-12.500000000000016Z"/></g><g transform="translate(411.3620667976084,312.5)"><path transform="scale(0.09280871761919975)" fill="#111" fill-opacity="1" d="M0,-25l21.650635094610966,12.499999999999996l3.552713678800501e-15,25l-21.650635094610955,12.500000000000005l-21.650635094610973,-12.49999999999999l-1.7763568394002505e-14,-24.999999999999993l21.650635094610948,-12.500000000000016Z"/></g><g transform="translate(454.66333698683036,312.5)"><path transform="scale(0.11514020689919988)" fill="#111" fill-opacity="1" d="M0,-25l21.650635094610966,12.499999999999996l3.552713678800501e-15,25l-21.650635094610955,12.500000000000005l-21.650635094610973,-12.49999999999999l-1.7763568394002505e-14,-24.999999999999993l21.650635094610948,-12.500000000000016Z"/></g><g transform="translate(497.9646071760523,312.5)"><path transform="scale(0.14079406417920026)" fill="#111" fill-opacity="1" d="M0,-25l21.650635094610966,12.499999999999996l3.552713678800501e-15,25l-21.650635094610955,12.500000000000005l-21.650635094610973,-12.49999999999999l-1.7763568394002505e-14,-24.999999999999993l21.650635094610948,-12.500000000000016Z"/></g><g transform="translate(541.2658773652743,312.5)"><path transform="scale(0.17000068945920005)" fill="#111" fill-opacity="1" d="M0,-25l21.650635094610966,12.499999999999996l3.552713678800501e-15,25l-21.650635094610955,12.500000000000005l-21.650635094610973,-12.49999999999999l-1.7763568394002505e-14,-24.999999999999993l21.650635094610948,-12.500000000000016Z"/></g><g transform="translate(0,350)"><path transform="scale(0.20299048273920003)" fill="#111" fill-opacity="1" d="M0,-25l21.650635094610966,12.499999999999996l3.552713678800501e-15,25l-21.650635094610955,12.500000000000005l-21.650635094610973,-12.49999999999999l-1.7763568394002505e-14,-24.999999999999993l21.650635094610948,-12.500000000000016Z"/></g><g transform="translate(43.30127018922193,350)"><path transform="scale(0.23999384401919988)" fill="#111" fill-opacity="1" d="M0,-25l21.650635094610966,12.499999999999996l3.552713678800501e-15,25l-21.650635094610955,12.500000000000005l-21.650635094610973,-12.49999999999999l-1.7763568394002505e-14,-24.999999999999993l21.650635094610948,-12.500000000000016Z"/></g><g transform="translate(86.60254037844386,350)"><path transform="scale(0.28124117329919984)" fill="#111" fill-opacity="1" d="M0,-25l21.650635094610966,12.499999999999996l3.552713678800501e-15,25l-21.650635094610955,12.500000000000005l-21.650635094610973,-12.49999999999999l-1.7763568394002505e-14,-24.999999999999993l21.650635094610948,-12.500000000000016Z"/></g><g transform="translate(129.9038105676658,350)"><path transform="scale(0.32696287057919965)" fill="#111" fill-opacity="1" d="M0,-25l21.650635094610966,12.499999999999996l3.552713678800501e-15,25l-21.650635094610955,12.500000000000005l-21.650635094610973,-12.49999999999999l-1.7763568394002505e-14,-24.999999999999993l21.650635094610948,-12.500000000000016Z"/></g><g transform="translate(173.20508075688772,350)"><path transform="scale(0.3773893358592)" fill="#111" fill-opacity="1" d="M0,-25l21.650635094610966,12.499999999999996l3.552713678800501e-15,25l-21.650635094610955,12.500000000000005l-21.650635094610973,-12.49999999999999l-1.7763568394002505e-14,-24.999999999999993l21.650635094610948,-12.500000000000016Z"/></g><g transform="translate(216.50635094610965,350)"><path transform="scale(0.4327509691391995)" fill="#111" fill-opacity="1" d="M0,-25l21.650635094610966,12.499999999999996l3.552713678800501e-15,25l-21.650635094610955,12.500000000000005l-21.650635094610973,-12.49999999999999l-1.7763568394002505e-14,-24.999999999999993l21.650635094610948,-12.500000000000016Z"/></g><g transform="translate(259.8076211353316,350)"><path transform="scale(0.4932781704192001)" fill="#111" fill-opacity="1" d="M0,-25l21.650635094610966,12.499999999999996l3.552713678800501e-15,25l-21.650635094610955,12.500000000000005l-21.650635094610973,-12.49999999999999l-1.7763568394002505e-14,-24.999999999999993l21.650635094610948,-12.500000000000016Z"/></g><g transform="translate(303.10889132455355,350)"><path transform="scale(0.5592013396991998)" fill="#111" fill-opacity="1" d="M0,-25l21.650635094610966,12.499999999999996l3.552713678800501e-15,25l-21.650635094610955,12.500000000000005l-21.650635094610973,-12.49999999999999l-1.7763568394002505e-14,-24.999999999999993l21.650635094610948,-12.500000000000016Z"/></g><g transform="translate(346.4101615137755,350)"><path transform="scale(0.6297348129792)" fill="#111" fill-opacity="1" d="M0,-25l21.650635094610966,12.499999999999996l3.552713678800501e-15,25l-21.650635094610955,12.500000000000005l-21.650635094610973,-12.49999999999999l-1.7763568394002505e-14,-24.999999999999993l21.650635094610948,-12.500000000000016Z"/></g><g transform="translate(389.71143170299746,350)"><path transform="scale(0.6965427182591999)" fill="#111" fill-opacity="1" d="M0,-25l21.650635094610966,12.499999999999996l3.552713678800501e-15,25l-21.650635094610955,12.500000000000005l-21.650635094610973,-12.49999999999999l-1.7763568394002505e-14,-24.999999999999993l21.650635094610948,-12.500000000000016Z"/></g><g transform="translate(433.0127018922194,350)"><path transform="scale(0.7579177915392)" fill="#111" fill-opacity="1" d="M0,-25l21.650635094610966,12.499999999999996l3.552713678800501e-15,25l-21.650635094610955,12.500000000000005l-21.650635094610973,-12.49999999999999l-1.7763568394002505e-14,-24.999999999999993l21.650635094610948,-12.500000000000016Z"/></g><g transform="translate(476.31397208144136,350)"><path transform="scale(0.8140904328192001)" fill="#111" fill-opacity="1" d="M0,-25l21.650635094610966,12.499999999999996l3.552713678800501e-15,25l-21.650635094610955,12.500000000000005l-21.650635094610973,-12.49999999999999l-1.7763568394002505e-14,-24.999999999999993l21.650635094610948,-12.500000000000016Z"/></g><g transform="translate(519.6152422706633,350)"><path transform="scale(0.8652910420991998)" fill="#111" fill-opacity="1" d="M0,-25l21.650635094610966,12.499999999999996l3.552713678800501e-15,25l-21.650635094610955,12.500000000000005l-21.650635094610973,-12.49999999999999l-1.7763568394002505e-14,-24.999999999999993l21.650635094610948,-12.500000000000016Z"/></g><g transform="translate(-21.650635094610966,387.5)"><path transform="scale(0.9117500193792001)" fill="#111" fill-opacity="1" d="M0,-25l21.650635094610966,12.499999999999996l3.552713678800501e-15,25l-21.650635094610955,12.500000000000005l-21.650635094610973,-12.49999999999999l-1.7763568394002505e-14,-24.999999999999993l21.650635094610948,-12.500000000000016Z"/></g><g transform="translate(21.650635094610966,387.5)"><path transform="scale(0.9536977646592)" fill="#111" fill-opacity="1" d="M0,-25l21.650635094610966,12.499999999999996l3.552713678800501e-15,25l-21.650635094610955,12.500000000000005l-21.650635094610973,-12.49999999999999l-1.7763568394002505e-14,-24.999999999999993l21.650635094610948,-12.500000000000016Z"/></g><g transform="translate(64.9519052838329,387.5)"><path transform="scale(0.9913646779391999)" fill="#111" fill-opacity="1" d="M0,-25l21.650635094610966,12.499999999999996l3.552713678800501e-15,25l-21.650635094610955,12.500000000000005l-21.650635094610973,-12.49999999999999l-1.7763568394002505e-14,-24.999999999999993l21.650635094610948,-12.500000000000016Z"/></g><g transform="translate(108.25317547305482,387.5)"><path transform="scale(1.0249811592192)" fill="#111" fill-opacity="1" d="M0,-25l21.650635094610966,12.499999999999996l3.552713678800501e-15,25l-21.650635094610955,12.500000000000005l-21.650635094610973,-12.49999999999999l-1.7763568394002505e-14,-24.999999999999993l21.650635094610948,-12.500000000000016Z"/></g><g transform="translate(151.55444566227675,387.5)"><path transform="scale(1.0547776084992)" fill="#111" fill-opacity="1" d="M0,-25l21.650635094610966,12.499999999999996l3.552713678800501e-15,25l-21.650635094610955,12.500000000000005l-21.650635094610973,-12.49999999999999l-1.7763568394002505e-14,-24.999999999999993l21.650635094610948,-12.500000000000016Z"/></g><g transform="translate(194.85571585149867,387.5)"><path transform="scale(1.0809844257791998)" fill="#111" fill-opacity="1" d="M0,-25l21.650635094610966,12.499999999999996l3.552713678800501e-15,25l-21.650635094610955,12.500000000000005l-21.650635094610973,-12.49999999999999l-1.7763568394002505e-14,-24.999999999999993l21.650635094610948,-12.500000000000016Z"/></g><g transform="translate(238.1569860407206,387.5)"><path transform="scale(1.1038320110592)" fill="#111" fill-opacity="1" d="M0,-25l21.650635094610966,12.499999999999996l3.552713678800501e-15,25l-21.650635094610955,12.500000000000005l-21.650635094610973,-12.49999999999999l-1.7763568394002505e-14,-24.999999999999993l21.650635094610948,-12.500000000000016Z"/></g><g transform="translate(281.45825622994255,387.5)"><path transform="scale(1.1235507643392)" fill="#111" fill-opacity="1" d="M0,-25l21.650635094610966,12.499999999999996l3.552713678800501e-15,25l-21.650635094610955,12.500000000000005l-21.650635094610973,-12.49999999999999l-1.7763568394002505e-14,-24.999999999999993l21.650635094610948,-12.500000000000016Z"/></g><g transform="translate(324.7595264191645,387.5)"><path transform="scale(1.1403710856192)" fill="#111" fill-opacity="1" d="M0,-25l21.650635094610966,12.499999999999996l3.552713678800501e-15,25l-21.650635094610955,12.500000000000005l-21.650635094610973,-12.49999999999999l-1.7763568394002505e-14,-24.999999999999993l21.650635094610948,-12.500000000000016Z"/></g><g transform="translate(368.06079660838645,387.5)"><path transform="scale(1.1545233748992)" fill="#111" fill-opacity="1" d="M0,-25l21.650635094610966,12.499999999999996l3.552713678800501e-15,25l-21.650635094610955,12.500000000000005l-21.650635094610973,-12.49999999999999l-1.7763568394002505e-14,-24.999999999999993l21.650635094610948,-12.500000000000016Z"/></g><g transform="translate(411.3620667976084,387.5)"><path transform="scale(1.1662380321791999)" fill="#111" fill-opacity="1" d="M0,-25l21.650635094610966,12.499999999999996l3.552713678800501e-15,25l-21.650635094610955,12.500000000000005l-21.650635094610973,-12.49999999999999l-1.7763568394002505e-14,-24.999999999999993l21.650635094610948,-12.500000000000016Z"/></g><g transform="translate(454.66333698683036,387.5)"><path transform="scale(1.1757454574592)" fill="#111" fill-opacity="1" d="M0,-25l21.650635094610966,12.499999999999996l3.552713678800501e-15,25l-21.650635094610955,12.500000000000005l-21.650635094610973,-12.49999999999999l-1.7763568394002505e-14,-24.999999999999993l21.650635094610948,-12.500000000000016Z"/></g><g transform="translate(497.9646071760523,387.5)"><path transform="scale(1.1832760507392)" fill="#111" fill-opacity="1" d="M0,-25l21.650635094610966,12.499999999999996l3.552713678800501e-15,25l-21.650635094610955,12.500000000000005l-21.650635094610973,-12.49999999999999l-1.7763568394002505e-14,-24.999999999999993l21.650635094610948,-12.500000000000016Z"/></g><g transform="translate(541.2658773652743,387.5)"><path transform="scale(1.1890602120192)" fill="#111" fill-opacity="1" d="M0,-25l21.650635094610966,12.499999999999996l3.552713678800501e-15,25l-21.650635094610955,12.500000000000005l-21.650635094610973,-12.49999999999999l-1.7763568394002505e-14,-24.999999999999993l21.650635094610948,-12.500000000000016Z"/></g><g transform="translate(0,425)"><path transform="scale(1.1933283412992)" fill="#111" fill-opacity="1" d="M0,-25l21.650635094610966,12.499999999999996l3.552713678800501e-15,25l-21.650635094610955,12.500000000000005l-21.650635094610973,-12.49999999999999l-1.7763568394002505e-14,-24.999999999999993l21.650635094610948,-12.500000000000016Z"/></g><g transform="translate(43.30127018922193,425)"><path transform="scale(1.1963108385792)" fill="#111" fill-opacity="1" d="M0,-25l21.650635094610966,12.499999999999996l3.552713678800501e-15,25l-21.650635094610955,12.500000000000005l-21.650635094610973,-12.49999999999999l-1.7763568394002505e-14,-24.999999999999993l21.650635094610948,-12.500000000000016Z"/></g><g transform="translate(86.60254037844386,425)"><path transform="scale(1.1982381038591998)" fill="#111" fill-opacity="1" d="M0,-25l21.650635094610966,12.499999999999996l3.552713678800501e-15,25l-21.650635094610955,12.500000000000005l-21.650635094610973,-12.49999999999999l-1.7763568394002505e-14,-24.999999999999993l21.650635094610948,-12.500000000000016Z"/></g><g transform="translate(129.9038105676658,425)"><path transform="scale(1.1993405371391999)" fill="#111" fill-opacity="1" d="M0,-25l21.650635094610966,12.499999999999996l3.552713678800501e-15,25l-21.650635094610955,12.500000000000005l-21.650635094610973,-12.49999999999999l-1.7763568394002505e-14,-24.999999999999993l21.650635094610948,-12.500000000000016Z"/></g><g transform="translate(173.20508075688772,425)"><path transform="scale(1.1998485384192)" fill="#111" fill-opacity="1" d="M0,-25l21.650635094610966,12.499999999999996l3.552713678800501e-15,25l-21.650635094610955,12.500000000000005l-21.650635094610973,-12.49999999999999l-1.7763568394002505e-14,-24.999999999999993l21.650635094610948,-12.500000000000016Z"/></g><g transform="translate(216.50635094610965,425)"><path transform="scale(1.1999925076992)" fill="#111" fill-opacity="1" d="M0,-25l21.650635094610966,12.499999999999996l3.552713678800501e-15,25l-21.650635094610955,12.500000000000005l-21.650635094610973,-12.49999999999999l-1.7763568394002505e-14,-24.999999999999993l21.650635094610948,-12.500000000000016Z"/></g><g transform="translate(259.8076211353316,425)"><path transform="scale(1.1999971550207995)" fill="#111" fill-opacity="1" d="M-21.650635094610966,-18.75l43.30127018922193,0l0,37.5l-43.30127018922193,0Z"/></g><g transform="translate(303.10889132455355,425)"><path transform="scale(1.1998900497407998)" fill="#111" fill-opacity="1" d="M-21.650635094610966,-18.75l43.30127018922193,0l0,37.5l-43.30127018922193,0Z"/></g><g transform="translate(346.4101615137755,425)"><path transform="scale(1.1994557764608003)" fill="#111" fill-opacity="1" d="M-21.650635094610966,-18.75l43.30127018922193,0l0,37.5l-43.30127018922193,0Z"/></g><g transform="translate(389.71143170299746,425)"><path transform="scale(1.1984639351808)" fill="#111" fill-opacity="1" d="M-21.650635094610966,-18.75l43.30127018922193,0l0,37.5l-43.30127018922193,0Z"/></g><g transform="translate(433.0127018922194,425)"><path transform="scale(1.1966841259007996)" fill="#111" fill-opacity="1" d="M-21.650635094610966,-18.75l43.30127018922193,0l0,37.5l-43.30127018922193,0Z"/></g><g transform="translate(476.31397208144136,425)"><path transform="scale(1.1938859486208007)" fill="#111" fill-opacity="1" d="M-21.650635094610966,-18.75l43.30127018922193,0l0,37.5l-43.30127018922193,0Z"/></g><g transform="translate(519.6152422706633,425)"><path transform="scale(1.1898390033407995)" fill="#111" fill-opacity="1" d="M-21.650635094610966,-18.75l43.30127018922193,0l0,37.5l-43.30127018922193,0Z"/></g><g transform="translate(-21.650635094610966,462.5)"><path transform="scale(1.1843128900607995)" fill="#111" fill-opacity="1" d="M-21.650635094610966,-18.75l43.30127018922193,0l0,37.5l-43.30127018922193,0Z"/></g><g transform="translate(21.650635094610966,462.5)"><path transform="scale(1.1770772087807997)" fill="#111" fill-opacity="1" d="M-21.650635094610966,-18.75l43.30127018922193,0l0,37.5l-43.30127018922193,0Z"/></g><g transform="translate(64.9519052838329,462.5)"><path transform="scale(1.1679015595008007)" fill="#111" fill-opacity="1" d="M-21.650635094610966,-18.75l43.30127018922193,0l0,37.5l-43.30127018922193,0Z"/></g><g transform="translate(108.25317547305482,462.5)"><path transform="scale(1.1565555422208003)" fill="#111" fill-opacity="1" d="M-21.650635094610966,-18.75l43.30127018922193,0l0,37.5l-43.30127018922193,0Z"/></g><g transform="translate(151.55444566227675,462.5)"><path transform="scale(1.1428087569408005)" fill="#111" fill-opacity="1" d="M-21.650635094610966,-18.75l43.30127018922193,0l0,37.5l-43.30127018922193,0Z"/></g><g transform="translate(194.85571585149867,462.5)"><path transform="scale(1.1264308036608004)" fill="#111" fill-opacity="1" d="M-21.650635094610966,-18.75l43.30127018922193,0l0,37.5l-43.30127018922193,0Z"/></g><g transform="translate(238.1569860407206,462.5)"><path transform="scale(1.1071912823808001)" fill="#111" fill-opacity="1" d="M-21.650635094610966,-18.75l43.30127018922193,0l0,37.5l-43.30127018922193,0Z"/></g><g transform="translate(281.45825622994255,462.5)"><path transform="scale(1.0848597931008002)" fill="#111" fill-opacity="1" d="M-21.650635094610966,-18.75l43.30127018922193,0l0,37.5l-43.30127018922193,0Z"/></g><g transform="translate(324.7595264191645,462.5)"><path transform="scale(1.0592059358207997)" fill="#111" fill-opacity="1" d="M-21.650635094610966,-18.75l43.30127018922193,0l0,37.5l-43.30127018922193,0Z"/></g><g transform="translate(368.06079660838645,462.5)"><path transform="scale(1.0299993105407999)" fill="#111" fill-opacity="1" d="M-21.650635094610966,-18.75l43.30127018922193,0l0,37.5l-43.30127018922193,0Z"/></g><g transform="translate(411.3620667976084,462.5)"><path transform="scale(0.9970095172607999)" fill="#111" fill-opacity="1" d="M-21.650635094610966,-18.75l43.30127018922193,0l0,37.5l-43.30127018922193,0Z"/></g><g transform="translate(454.66333698683036,462.5)"><path transform="scale(0.9600061559808001)" fill="#111" fill-opacity="1" d="M-21.650635094610966,-18.75l43.30127018922193,0l0,37.5l-43.30127018922193,0Z"/></g><g transform="translate(497.9646071760523,462.5)"><path transform="scale(0.9187588267008001)" fill="#111" fill-opacity="1" d="M-21.650635094610966,-18.75l43.30127018922193,0l0,37.5l-43.30127018922193,0Z"/></g><g transform="translate(541.2658773652743,462.5)"><path transform="scale(0.8730371294208004)" fill="#111" fill-opacity="1" d="M-21.650635094610966,-18.75l43.30127018922193,0l0,37.5l-43.30127018922193,0Z"/></g><g transform="translate(0,500)"><path transform="scale(0.8226106641408)" fill="#111" fill-opacity="1" d="M-21.650635094610966,-18.75l43.30127018922193,0l0,37.5l-43.30127018922193,0Z"/></g><g transform="translate(43.30127018922193,500)"><path transform="scale(0.7672490308608004)" fill="#111" fill-opacity="1" d="M-21.650635094610966,-18.75l43.30127018922193,0l0,37.5l-43.30127018922193,0Z"/></g><g transform="translate(86.60254037844386,500)"><path transform="scale(0.7067218295807999)" fill="#111" fill-opacity="1" d="M-21.650635094610966,-18.75l43.30127018922193,0l0,37.5l-43.30127018922193,0Z"/></g><g transform="translate(129.9038105676658,500)"><path transform="scale(0.6407986603008001)" fill="#111" fill-opacity="1" d="M-21.650635094610966,-18.75l43.30127018922193,0l0,37.5l-43.30127018922193,0Z"/></g><g transform="translate(173.20508075688772,500)"><path transform="scale(0.5702651870208)" fill="#111" fill-opacity="1" d="M-21.650635094610966,-18.75l43.30127018922193,0l0,37.5l-43.30127018922193,0Z"/></g><g transform="translate(216.50635094610965,500)"><path transform="scale(0.5034572817408001)" fill="#111" fill-opacity="1" d="M-21.650635094610966,-18.75l43.30127018922193,0l0,37.5l-43.30127018922193,0Z"/></g><g transform="translate(259.8076211353316,500)"><path transform="scale(0.4420822084608)" fill="#111" fill-opacity="1" d="M-21.650635094610966,-18.75l43.30127018922193,0l0,37.5l-43.30127018922193,0Z"/></g><g transform="translate(303.10889132455355,500)"><path transform="scale(0.3859095671807999)" fill="#111" fill-opacity="1" d="M-21.650635094610966,-18.75l43.30127018922193,0l0,37.5l-43.30127018922193,0Z"/></g><g transform="translate(346.4101615137755,500)"><path transform="scale(0.3347089579008)" fill="#111" fill-opacity="1" d="M-21.650635094610966,-18.75l43.30127018922193,0l0,37.5l-43.30127018922193,0Z"/></g><g transform="translate(389.71143170299746,500)"><path transform="scale(0.2882499806208)" fill="#111" fill-opacity="1" d="M-21.650635094610966,-18.75l43.30127018922193,0l0,37.5l-43.30127018922193,0Z"/></g><g transform="translate(433.0127018922194,500)"><path transform="scale(0.24630223534079998)" fill="#111" fill-opacity="1" d="M-21.650635094610966,-18.75l43.30127018922193,0l0,37.5l-43.30127018922193,0Z"/></g><g transform="translate(476.31397208144136,500)"><path transform="scale(0.20863532206080002)" fill="#111" fill-opacity="1" d="M-21.650635094610966,-18.75l43.30127018922193,0l0,37.5l-43.30127018922193,0Z"/></g><g transform="translate(519.6152422706633,500)"><path transform="scale(0.17501884078080002)" fill="#111" fill-opacity="1" d="M-21.650635094610966,-18.75l43.30127018922193,0l0,37.5l-43.30127018922193,0Z"/></g><g transform="translate(-21.650635094610966,537.5)"><path transform="scale(0.1452223915008)" fill="#111" fill-opacity="1" d="M-21.650635094610966,-18.75l43.30127018922193,0l0,37.5l-43.30127018922193,0Z"/></g><g transform="translate(21.650635094610966,537.5)"><path transform="scale(0.11901557422080003)" fill="#111" fill-opacity="1" d="M-21.650635094610966,-18.75l43.30127018922193,0l0,37.5l-43.30127018922193,0Z"/></g><g transform="translate(64.9519052838329,537.5)"><path transform="scale(0.09616798894080002)" fill="#111" fill-opacity="1" d="M-21.650635094610966,-18.75l43.30127018922193,0l0,37.5l-43.30127018922193,0Z"/></g><g transform="translate(108.25317547305482,537.5)"><path transform="scale(0.07644923566079999)" fill="#111" fill-opacity="1" d="M-21.650635094610966,-18.75l43.30127018922193,0l0,37.5l-43.30127018922193,0Z"/></g><g transform="translate(151.55444566227675,537.5)"><path transform="scale(0.059628914380799994)" fill="#111" fill-opacity="1" d="M-21.650635094610966,-18.75l43.30127018922193,0l0,37.5l-43.30127018922193,0Z"/></g><g transform="translate(194.85571585149867,537.5)"><path transform="scale(0.04547662510080001)" fill="#111" fill-opacity="1" d="M-21.650635094610966,-18.75l43.30127018922193,0l0,37.5l-43.30127018922193,0Z"/></g><g transform="translate(238.1569860407206,537.5)"><path transform="scale(0.033761967820799994)" fill="#111" fill-opacity="1" d="M-21.650635094610966,-18.75l43.30127018922193,0l0,37.5l-43.30127018922193,0Z"/></g><g transform="translate(281.45825622994255,537.5)"><path transform="scale(0.024254542540800002)" fill="#111" fill-opacity="1" d="M-21.650635094610966,-18.75l43.30127018922193,0l0,37.5l-43.30127018922193,0Z"/></g><g transform="translate(324.7595264191645,537.5)"><path transform="scale(0.016723949260800005)" fill="#111" fill-opacity="1" d="M-21.650635094610966,-18.75l43.30127018922193,0l0,37.5l-43.30127018922193,0Z"/></g><g transform="translate(368.06079660838645,537.5)"><path transform="scale(0.0109397879808)" fill="#111" fill-opacity="1" d="M-21.650635094610966,-18.75l43.30127018922193,0l0,37.5l-43.30127018922193,0Z"/></g><g transform="translate(411.3620667976084,537.5)"><path transform="scale(0.006671658700800001)" fill="#111" fill-opacity="1" d="M-21.650635094610966,-18.75l43.30127018922193,0l0,37.5l-43.30127018922193,0Z"/></g><g transform="translate(454.66333698683036,537.5)"><path transform="scale(0.0036891614207999997)" fill="#111" fill-opacity="1" d="M-21.650635094610966,-18.75l43.30127018922193,0l0,37.5l-43.30127018922193,0Z"/></g><g transform="translate(497.9646071760523,537.5)"><path transform="scale(0.0017618961407999997)" fill="#111" fill-opacity="1" d="M-21.650635094610966,-18.75l43.30127018922193,0l0,37.5l-43.30127018922193,0Z"/></g><g transform="translate(541.2658773652743,537.5)"><path transform="scale(0.0006594628608)" fill="#111" fill-opacity="1" d="M-21.650635094610966,-18.75l43.30127018922193,0l0,37.5l-43.30127018922193,0Z"/></g></svg>