<?xml version="1.0" standalone="no"?><!DOCTYPE svg PUBLIC "-//W3C//DTD SVG 1.1//EN" "http://www.w3.org/Graphics/SVG/1.1/DTD/svg11.dtd"><svg width="500" height="500" style="background: rgb(209, 209, 209);" version="1.1" xmlns="http://www.w3.org/2000/svg" xmlns:xlink="http://www.w3.org/1999/xlink"><defs xmlns="http://www.w3.org/1999/xhtml"><style type="text/css"><![CDATA[
html, body { height: 100%; margin: 0px; background: rgb(34, 34, 34); }
body, #prev, #next { height: 100%; box-sizing: border-box; display: -webkit-flex; flex-direction: column; justify-content: center; }
#prev, #next { position: absolute; top: 0px; color: rgb(209, 209, 209); font-size: 70px; text-decoration: none; padding: 20px; }
#prev { left: 0px; }
#next { right: 0px; }
svg { margin: auto; }
.fa { display: inline-block; font-style: normal; font-variant: normal; font-weight: normal; font-stretch: normal; line-height: 1; font-family: FontAwesome; font-size: inherit; text-rendering: auto; -webkit-font-smoothing: antialiased; }
.fa-twitter::before { content: ''; }
.fa-github::before { content: ''; }
.fa-th::before { content: ''; }
footer { text-align: center; margin-bottom: 25px; }
a { color: rgb(209, 209, 209); text-decoration: none; padding: 10px; }]]></style></defs><g transform="translate(250,250)"><path fill="none" stroke="#111" stroke-width="2" d="M-99.3943509044532,0L-98.81522030704876,1.2028116930168355L-98.23037864805636,2.4055120122557585L-97.63985972861236,3.6079895942514577L-97.04369767797243,4.810133096162872L-96.44192695153902,6.011831206082929L-95.8345823288701,7.21297265334541L-95.22169891166895,8.413446218828021L-94.60331212175558,9.613140745250652L-93.9794576990193,10.811945147467958L-93.35017169935334,12.009748422755216L-92.71549049257086,13.20643966108657L-92.075450760303,14.401908055404709L-91.4300894938788,15.596042911880977L-90.7794439921873,16.788733660165025L-90.12355185952185,17.97986986362301L-89.46245100340678,19.16934122956344L-88.79617963240644,20.35703761944966L-88.12477625391696,21.542849059098064L-87.44827967194074,22.72666574886115L-86.76672898484374,23.908378073794303L-86.08016358309571,25.087876613805584L-85.3886231469937,26.265052153787437L-84.69214764436865,27.43979569372936L-83.99077732827551,28.611998458810756L-83.28455273466672,29.781551909472867L-82.57351468004941,30.948347751468955L-81.85770425912656,32.112277945891734L-81.13716284242166,33.27323471917721L-80.41193207388794,34.431110573083885L-79.68205386850134,35.58579829464656L-78.94757040983814,36.73719096610362L-78.20852414763688,37.885181974797035L-77.46495779534503,39.029665023044174L-76.71691432765027,40.17053413798028L-75.96443697799685,41.30768368137106L-75.20756923608678,42.4410083593942L-74.4463548453664,43.57040323238897L-73.68083780049821,44.695763724573055L-72.91106234481819,45.81698563372573L-72.13707296777868,46.93396514083639L-71.35891440237714,48.04659881971766L-70.57663162257083,49.154783646582054L-69.79026984067747,50.258417009581414L-68.99987450476216,51.35739671830823L-68.20549129601072,52.451621013257906L-67.40716612608955,53.54098857525111L-66.60494513449216,54.625398534815425L-65.7988746858724,55.70475048152525L-64.98900136736499,56.77894447329929L-64.17537198589282,57.84788104565465L-63.35803356546185,58.91146122091667L-62.5370333444433,59.96958651738377L-61.71241877284345,61.02215895844624L-60.8842375095613,62.069081081658425L-60.052537419634106,63.110255947763136L-59.21736657147098,64.14558714966776L-58.378773234074785,65.17497882137097L-57.53680587425233,66.19833564683941L-56.691513153813375,67.2155628688335L-55.84294392675803,68.22656629768133L-54.99114723645333,69.2312523200002L-54.136172312798706,70.22952790736463L-53.27806856938076,71.22130062492036L-52.41688560061734,72.20647863994328L-51.55267317889128,73.18497073034258L-50.68548125167374,74.15668629310753L-49.81535993863744,75.12153535269668L-48.94235952876007,76.07942856936928L-48.06653047741778,77.03027724745746L-47.187923403469014,77.97399334357917L-46.30658908632908,78.9104894747903L-45.42257846303532,79.83967892667599L-44.53594262530316,80.76147566137989L-43.646732816573184,81.67579432557085L-42.75500042904966,82.58255025834599L-41.86079700073014,83.48165949907006L-40.964174212426904,84.37303879514958L-40.065183884780055,85.25660560974164L-39.16387797526242,86.13227812939635L-38.2603085751768,86.99997527163231L-37.35452790664522,87.85961669244438L-36.446588319590745,88.71112279374319L-35.53654228871195,89.55441473072534L-34.624442410450094,90.38941441917414L-33.71034139994932,91.21604454268972L-32.79429208800987,92.034228559848L-31.876347418034836,92.84389071128824L-30.956560442970172,93.64495602672773L-30.03498432223856,94.43735033190376L-29.111672318667008,95.22100025544168L-28.186677795408453,95.9958332356487L-27.260054212857735,96.7617775272327L-26.331855125561734,97.51876220794551L-25.4021341791242,98.26671718514984L-24.470945107105276,99.00557320230953L-23.538341727915995,99.73526184540229L-22.604377941707735,100.4557155492545L-21.669107727257128,101.16686760379736L-20.732585138846314,101.86865216024383L-19.79486430313879,102.56100423718595L-18.855999416051237,103.24385972661173L-17.916044739621192,103.91715539984118L-16.97505459887094,104.58082891338094L-16.03308337866783,105.234818814697L-15.090185520581056,105.87906454790478L-14.146415519735147,106.51350645937634L-13.201827921660495,107.13808580326399L-12.25647731914077,107.75274474693974L-11.310418349057793,108.35742637635046L-10.363705689233752,108.95207470128757L-9.416394055271033,109.53663466057162L-8.468538197389982,110.11105212715061L-7.520192897264588,110.6752739131118L-6.571412964856257,111.2292477746067L-5.62225323524617,111.77292241668846L-4.672768565466039,112.30624749806165L-3.72301383132761,112.82917363574337L-2.7730439242510574,113.34165240963617L-1.822913748092593,113.84363636701109L-0.8726782159712402,114.33507902690187L0.07760775290493428,114.81593488440859L1.0278892364128105,115.28615941491135L1.9781113126885026,115.7457090781929L2.9282190633016283,116.19454132247023L3.8781575764292584,116.63261458833469L4.8278719500296035,117.05988831260011L5.777307295015143,117.47632293205878L6.72640873842486,117.88187988714469L7.675121426595758,118.27652162550407L8.623390528333047,118.66021160547244L9.571161238079178,119.0329142994582L10.518378779081372,119.39459519723222L11.464988406557445,119.74522080912347L12.410935410859766,120.08475866911976L13.356165120637263,120.41317733787409L14.300622905995164,120.73044640561568L15.244254181652346,121.03653649496577L16.187004410096097,121.33141926365779L17.12881910473419,121.61506740716172L18.069643833043926,121.8874546612123L19.009424219718007,122.14855580424103L19.948105949807275,122.39834665971145L20.885634771859824,122.63680409835786L21.821956501056484,122.86390604032687L22.757017022342435,123.07963145722195L23.690762293554904,123.2839603740505L24.62313834854639,123.47687387107342L25.554091300303785,123.65835408555701L26.483567344062727,123.82838421342693L27.41151276041727,123.98694851082418L28.337873918424727,124.13403229556289L29.262597278705105,124.2696219484898L30.185629396535557,124.39370491474536L31.106916924939206,124.50626970492618L32.02640661776836,124.60730589614896L32.94404533278186,124.69680413301548L33.859780034716565,124.774756128479L34.773557798352364,124.84115466461147L35.68532581157116,124.89599359327195L36.595031378409104,124.9392678366759L37.50262192210217,124.97097338786526L38.40804498812486,124.99110731107955L39.31124824722187,124.99966774202771L40.21217949843245,124.99665388806072L41.11078667210733,124.98206602824494L42.00701783291816,124.95590551333633L42.90082118285912,124.91817476565538L43.7921450642406,124.86887727886273L44.68093796267476,124.80801761763577L45.56714851005292,124.73560141724599L46.45072548751422,124.65163538303707L47.33161782840597,124.5561272898041L48.209774621235034,124.44908598107367L49.08514511261022,124.33052136828495L49.95767871017576,124.20044442987198L50.82732498553508,124.05886721024717L51.694033677165486,123.90580281868597L52.557754693322984,123.74126542811311L53.418438114937416,123.56527027379013L54.276034198497435,123.37783365190487L55.130493378925614,123.17897291806237L55.9817662724429,122.96870648567791L56.82980367942288,122.74705382427202L57.674556587235266,122.51403545766769L58.51597617307856,122.26967296208998L59.3540138068019,122.01398896416823L60.18862105371551,121.74700713884089L61.01974967739004,121.46875220716336L61.847351642444536,121.179249934019L62.67137911732249,120.8785271257334L63.491784477056335,120.5666116275923L64.30852030602,120.24353232126322L65.1215394006693,119.9093191221212L65.93079477227005,119.56400297647882L66.73623964961376,119.20761585872073L67.53782748172091,118.84019076834294L68.33551194053122,118.46176172689735L69.12924692358138,118.07236377484145L69.91898655666945,117.67203296829385L70.70468519650616,117.26080637569557L71.48629743335293,116.83872207437783L72.26377809364635,116.4058191470362L73.0370822426089,115.96213767811179L73.8061651868462,115.50771875007965L74.57098247692974,115.0426044396448L75.33148990996624,114.56683781384608L76.087643532152,114.08046292606845L76.83939964131356,113.5835248119638L77.58671478943315,113.076069485281L78.32954578516011,112.55814393360515L79.06784969630691,112.02979611400703L79.80158385233061,111.49107494860218L80.5307058467988,110.94203032002129L81.25517353984071,110.38271306679118L81.97494506058264,109.81317497862753L82.68997880956779,109.23346879163924L83.40023346116062,108.64364818344568L84.10566796593537,108.0437677682061L84.80624155304824,107.43388309156295L85.50191373259408,106.81405062549834L86.19264429794629,106.18432776310539L86.87839332808075,105.54477281327367L87.55912118988282,104.8954449952903L88.2347885404383,104.23640443335636L88.90535632930691,103.56771215102003L89.57078580077949,102.88943006552583L90.2310384961178,102.20162098208152L90.88607625577721,101.50434858804282L91.5358612216123,100.79767744701617L92.18035583906457,100.08167299288056L92.81952285933338,99.3564015237285L93.45332534152828,98.62193019572766L94.08172665480444,97.87832701690198L94.70469048047941,97.12566084083501L95.32218081413242,96.36400136029405L95.93416196768506,95.59341910077735L96.54059857146407,94.81398541398347L97.1414555762454,94.02577247120482L97.73669825528,93.22885325664468L98.32629220630078,92.42330156065965L98.91020335351101,91.6091919729267L99.48839794955356,90.78659987553672L100.06084257746153,89.95560143601465L100.62750415258952,89.11627360026667L101.18834992452574,88.26869408545537L101.74334747898484,87.41294137280369L102.29246473968145,86.54909470032797L102.8356699701837,85.67723405550097L103.37293177574787,84.79744016784525L103.90421910513253,83.90979450145836L104.42950125239325,83.0143792474696L104.9487478586574,82.11127731642941L105.46192891387852,81.20057233063254L105.96901475857095,80.28234861637497L106.46997608552391,79.35669119614583L106.96478394149536,78.42368578075457L107.45340972888529,77.48341876139492L107.93582520738876,76.53597720164532L108.41200249562765,75.58144882940744L108.88191407276256,74.61992202878281L109.3455327800829,73.6514858318893L109.80283182257702,72.67622991061701L110.25378477048044,71.69424456832515L110.69836556080354,70.70562073148037L111.13654849883791,69.71044994123785L111.56830825964131,68.70882434496454L111.99361988950139,67.70083668770728L112.41245880737782,66.6865803036047L112.82480080632308,65.66614910724557L113.23062205488141,64.63963758497208L113.62989909846611,63.607140786131595L114.02260886071541,62.568754314275196L114.40872864482569,61.524574318305525L114.78823613486368,60.4746974835737L115.16110939705595,59.41922102292703L115.52732688105678,58.358242667707586L115.88686742119353,57.29186065870257L116.23971023768989,56.22017373704813L116.58583493786708,55.143281135086056L116.92522151732209,54.06128256717599L117.25785036108424,52.9742782204617L117.58370224474848,51.88236874559487L117.9027583355868,50.785655247415164L118.21500019363634,49.684239275588546L118.52040977276543,48.57822281520413L118.81896942171635,47.467708277331255L119.11066188512568,46.35279848953655L119.3954703045214,45.23359668636279L119.67337821929735,44.110206499769696L119.94436956766455,42.98273194953854L120.20842868757951,41.85127743364026L120.46554031764934,40.71594771856886L120.71568959801394,39.57684792964038L120.95886207120463,38.434083541259405L121.19504368297997,37.287760367152025L121.42422078313777,36.13798455056865L121.64638012630424,34.98486255445523L121.86150887269933,33.82850115159597L122.06959458887894,32.66900741472608L122.27062524845343,31.506488706617958L122.46458923278276,30.341052670139604L122.65147533164789,29.172807218287808L122.83127274389878,28.00186052419583L123.00397107807865,26.828321011116973L123.16956035302445,25.652297342385758L123.32803099844385,24.473898411355535L123.47937385546824,23.293233331316213L123.62358017718222,22.11041142539043L123.76064162912894,20.92554221641146L123.89055028979199,19.738735416781264L124.01329865105303,18.550100918312292L124.12887961862597,17.359748782051863L124.2372865124667,16.1677892280912L124.3385130671594,14.974332625359429L124.43255343227852,13.779489481404386L124.51940217272698,12.583370432159958L124.59905426905024,11.386086231701942L124.67150511772643,10.187747741992588L124.73675053143239,8.988465922615726L124.79478673928575,7.788351820502295L124.84561038706273,6.587516559648114L124.88921853739217,5.386071330824128L124.92560866992513,4.184127381281373L124.95477868148068,2.981796004449298L124.9767268861674,1.7791885296312762L124.99145201548082,0.5764163116956239L124.99895321837673,-0.626409279234868L124.99923006132038,-1.8291768680953602L124.99228252831155,-3.0317750851918546L124.97811102088541,-4.234092576513084L124.9567163580894,-5.436018014041507L124.92809977643584,-6.637440106061564L124.89226292983047,-7.838247607464951L124.84920788947686,-9.038329330050704L124.79893714375672,-10.237574152821397L124.74145359808608,-11.435871032271661L124.67676057474739,-12.63310901267077L124.60486181269742,-13.829177236335866L124.5257614673513,-15.023964953897545L124.43946411034221,-16.21736153455404L124.34597472925732,-17.409256476315296L124.24529872734938,-18.599539416234748L124.13744192322453,-19.788100140628543L124.02241055050597,-20.974828595280393L123.90021125747374,-22.159614895632203L123.7708511066804,-23.342349336958684L123.6343375745429,-24.52292240452563L123.49067855091047,-25.701224783730044L123.33988233860862,-26.877147370222293L123.18195765295927,-28.05058128000847L123.01691362127704,-29.221417859532664L122.84475978234175,-30.389548695737368L122.66550608584716,-31.554865626102103L122.47916289182578,-32.7172607486588L122.28574097005031,-33.87662643198267L122.085251499411,-35.03285532515845L121.87770606726977,-36.18584036772042L121.6631166687903,-37.3354747995658L121.4414957062449,-38.48165217083992L121.21285598829769,-39.62426635179301L120.97721072926429,-40.763211542607145L120.73457354834815,-41.89838228319306L120.48495846885338,-43.0296734629545L120.22837991737421,-44.156980330521705L119.96485272296137,-45.28019850345014L119.69439211626485,-46.39922397788626L119.4170137286538,-47.5139531381971L119.13273359131291,-48.62428276656522L118.84156813431618,-49.7301100525455L118.543534185677,-50.831332602585306L118.23864897037582,-51.92784844950502L117.92693010936452,-53.0195560619403L117.60839561854802,-54.10635435374281L117.28306390774303,-55.18814269334045L116.95095377961408,-56.26482091305525L116.6120844285868,-57.33628931837845L116.2664754397385,-58.40244869720161L115.91414678766638,-59.46320032900283L115.55511883533302,-60.51844599398829L115.18941233288946,-61.568087982186356L114.81704841647597,-62.61202910249525L114.43804860700051,-63.6501726916823L114.05243480889486,-64.68242262333462L113.66022930884874,-65.70868331675959L113.26145477452154,-66.72885974583534L112.8561342532326,-67.7428574478095L112.44429117062869,-68.75058253204614L112.02594932933066,-69.75194168871926L111.60113290755723,-70.74684219745295L111.169866457728,-71.7351919359067L110.73217490504426,-72.71689938830565L110.28808354604845,-73.69187365391393L109.83761804716212,-74.66002445545222L109.38080444320259,-75.62126214745643L108.91766913587819,-76.57549772457874L108.44823889226247,-77.52264282982856L107.9725408432469,-78.46260976275447L107.49060248197337,-79.39531148756431L107.0024516622446,-80.3206616411846L106.50811659691472,-81.23857454125685L106.0076258562586,-82.14896519407175L105.5010083663206,-83.05174930243886L104.9882934072427,-83.9468432734921L104.46951061157243,-84.8341642264299L103.94468996255014,-85.71363000018975L103.413861792376,-86.58515916105573L102.87705678045711,-87.4486710101988L102.33430595163443,-88.30408559114892L101.78564067438936,-89.15132369719902L101.23109265903116,-89.99030687873876L100.67069395586392,-90.8209574505186L100.10447695333457,-91.64319849884292L99.53247437616064,-92.45695388869214L98.95471928343899,-93.26214827077206L98.37124506673531,-94.05870708849108L97.78208544815415,-94.84655658486335L97.1872744783899,-95.62562380933873L96.58684653475876,-96.39583662455719L95.98083631921209,-97.1571237130288L95.36927885633072,-97.90941458373669L94.75220949130049,-98.65263957866469L94.12966388786981,-99.38672987924723L93.50167802628806,-100.11161751274128L92.86828820122658,-100.82723535852023L92.22953101968059,-101.53351715428944L91.58544339885363,-102.23039750222115L90.936062564024,-102.9178118750102L90.28142604639302,-103.59569662184911L89.62157168091643,-104.26398897432122L88.95653760411714,-104.92262705221347L88.28636225188149,-105.57154986924556L87.61108435723752,-106.21069733871715L86.93074294811679,-106.84001027907166L86.24537734509843,-107.459430419376L85.55502715913661,-108.06890040471619L84.85973228927134,-108.6683638015083L84.15953292032255,-109.25776510272347L83.45446952056726,-109.83704973302785L82.7445828394011,-110.40616405383616L82.02991390498282,-110.96505536827789L81.31050402186345,-111.51367192607697L80.5863947685988,-112.0519629283436L79.85762799534632,-112.57987853227783L79.1242458214467,-113.09736985578498L78.38629063298944,-113.60438898200137L77.64380508036298,-114.10088896373163L76.89683207578969,-114.58682382779568L76.145414790846,-115.06214857928538L75.38959665396726,-115.52681920573076L74.62942134793737,-115.98079268117586L73.86493280736462,-116.42402697016207L73.09617521614213,-116.85648103162073L72.3231930048944,-117.27811482267336L71.54603084840954,-117.688889302339L70.76473366305683,-118.08876643514976L69.97934660419125,-118.47770919467226L69.1899150635433,-118.85568156693625L68.39648466659617,-119.22264855376929L67.59910126994797,-119.57857617603739L66.79781095866214,-119.92343147679122L65.99266004360342,-120.25718252431798L65.1836950587619,-120.57979841509771L64.37096275856297,-120.89124927666509L63.554510115165385,-121.19150627037546L62.73438431574652,-121.48054159407494L61.9106327597753,-121.7583284846749L61.0833030562723,-122.02484122063007L60.252443021058646,-122.28005512432006L59.418100673992036,-122.52394656433464L58.58032423619195,-122.75649295766162L57.73916212725223,-122.97767277177809L56.894662962442716,-123.18746552664412L56.04687554989971,-123.38585179659914L55.19584888780509,-123.5728132121606L54.34163216155423,-123.74833246172497L53.48427474091332,-123.91239329317062L52.623826177166336,-124.06498051536273L51.76033620025074,-124.2060799995599L50.893854715883876,-124.3356786807223L50.02443180267819,-124.45376455872155L49.15211770924697,-124.56032669945186L48.27696285130046,-124.65535523584234L47.39901780873201,-124.73884136877078L46.51833332269446,-124.8107773678783L45.634960292667984,-124.87115657228523L44.74894977351787,-124.91997339120778L43.86035297254453,-124.95722330447575L42.969221246523,-124.98290286295111L42.07560609873548,-124.99700968884731L41.17955917599423,-124.99954247594957L40.281132265657114,-124.99050098973558L39.380377292634094,-124.96988606739752L38.477346316386246,-124.93769961776432L37.57209152791721,-124.89394462112503L36.6646652467568,-124.83862512895278L35.75511991793672,-124.77174626352972L34.84350810896007,-124.6933142174726L33.92988250676268,-124.60333625315957L33.01429591466858,-124.50182070205751L32.09680124933774,-124.38877696395068L31.17745153770799,-124.2642155060704L30.256299913930103,-124.12814786212573L29.33339961629711,-123.98058663123557L28.408803984167452,-123.82154547676213L27.482566454881724,-123.65103912504556L26.55474056067482,-123.46908336404063L25.625379925581512,-123.27569504185466L24.694538262337787,-123.07089206518758L23.762269369276037,-122.85469339767386L22.82862712721581,-122.62711905812644L21.89366549634997,-122.38819011868333L20.957438513126103,-122.13792870285633L20.020000287122958,-121.87635798348241L19.08140499792378,-121.60350218057825L18.141706891984374,-121.31938655909741L17.200960279498787,-121.02403742659104L16.259219531259326,-120.71748213077191L15.316539075515086,-120.39974905698219L14.372973394825602,-120.07086762556496L13.428577022912647,-119.7308682891404L12.483404541507928,-119.37978252978567L11.537510577198574,-119.01764285612005L10.59094979827019,-118.64448280029475L9.643776911547342,-118.2603369148881L8.696046659231248,-117.86524076970602L7.747813815736562,-117.45923094848864L6.799133184525149,-117.04234504552258L5.850059594939098,-116.6146216621602L4.900647899031609,-116.17610040324533L3.9509529683968676,-115.72682187344572L3.0010296909987075,-115.26682767349364L2.050932967998348,-114.79616039633376L1.100717710581362,-114.31486362317928L0.15043883678405925,-113.8229819194765L-0.7998487316805165,-113.32056083077829L-1.7500900725968112,-112.80764687852691L-2.700230266421008,-112.28428755574653L-3.6502143994551233,-111.75053132264512L-4.599987567020653,-111.20642760212783L-5.549494876632362,-110.65202677522048L-6.498681451169708,-110.08738017640448L-7.44749243204948,-109.51254008886377L-8.395872982396265,-108.92755973964347L-9.343768290211306,-108.33249329472125L-10.29112357154041,-107.72739585399242L-11.237884073640618,-107.11232344616717L-12.183995078144683,-106.48733302358328L-13.129401904223082,-105.85248245693232L-14.07404991174421,-105.20783052990124L-15.01788450443332,-104.55343693372934L-15.960851133026827,-103.88936226168113L-16.90289529842556,-103.21566800343561L-17.84396255484444,-102.53241653939293L-18.7839985129592,-101.83967113489834L-19.722948843049835,-101.13749593438362L-20.660759278140496,-100.42595595542839L-21.597375617136418,-99.70511708273914L-22.53274372795539,-98.97504606204937L-23.46680955065745,-98.23581049393883L-24.399519100568632,-97.48747882757398L-25.33081847140168,-96.73012035437034L-26.260653838370498,-95.96380520157655L-27.188971461301957,-95.18860432578029L-28.115717687741707,-94.40458950633885L-29.040838956054618,-93.61183333873241L-29.964281798520275,-92.81040922784207L-30.885992844424155,-92.00039138115314L-31.805918823141106,-91.18185480188357L-32.72400656721469,-90.35487528203952L-33.640203015429904,-89.51952939539737L-34.5544552158799,-88.67589449041284L-35.466710329026306,-87.82404868305971L-36.37691563075316,-86.96407084959624L-37.28501851541409,-86.09604061926183L-38.190966498872676,-85.22003836690371L-39.094707221535806,-84.33614520553482L-39.996188451379695,-83.44444297882282L-40.89535808696919,-82.5450142535123L-41.792164160467934,-81.63794231177926L-42.686554840642835,-80.72331114351967L-43.578478435859516,-79.80120543857261L-44.467883397069485,-78.87171057887797L-45.35471832078931,-77.93491263057146L-46.238931952072406,-76.99089833601454L-47.120473187470346,-76.03975510576264L-47.99929107798699,-75.08157101047178L-48.87533483202251,-74.11643477274384L-49.74855381830991,-73.14443575891049L-50.61889756884025,-72.1656639707592L-51.486315781780014,-71.18021003719922L-52.35075832437817,-70.1881652058699L-53.21217523586366,-69.18962133469167L-54.070516730332855,-68.18467088336025L-54.92573319962699,-67.17340690478578L-55.777775216199245,-66.15592303647674L-56.62659353597147,-65.13231349186876L-57.472139101180126,-64.10267305160195L-58.314363043212126,-63.067097054744295L-59.1532166854282,-62.025681389963744L-59.98865154597707,-60.97852248664969L-60.82061934059741,-59.92571730598364L-61.649071985407915,-58.86736333196178L-62.47396159968683,-57.803558562368096L-63.29524050863868,-56.73440149970039L-64.11286124615057,-55.65999114204949L-64.92677655753462,-54.58042697393272L-65.73693940225941,-53.495808957081586L-66.54330295666878,-52.40623752118696L-67.3458206166879,-51.311813554598885L-68.14444600051678,-50.21263839498498L-68.93913295131101,-49.10881381994763L-69.72983553984925,-48.00044203759952L-70.51650806718796,-46.88762567709987L-71.29910506730224,-45.77046777915159L-72.0775813097142,-44.64907178645975L-72.85189180210608,-43.52354153415447L-73.62199179292149,-42.393981240175314L-74.38783677395138,-41.26049549562147L-75.14938248290684,-40.12318925506753L-75.90658490597649,-38.982167826845455L-76.65940028037092,-37.8375368632926L-77.40778509685205,-36.68940235096992L-78.15169610224726,-35.53787060084777L-78.89109030194925,-34.383048238462045L-79.62592496240164,-33.22504219404149L-80.35615761356799,-32.06395969260605L-81.08174605138666,-30.89990824403902L-81.80264834021007,-29.73299563313189L-82.51882281522832,-28.563329909604096L-83.23022808487721,-27.39101937809824L-83.93682303323051,-26.216172588151764L-84.63856682237623,-25.038898324145325L-85.33541889477695,-23.859305595231046L-86.02733897561373,-22.677503625237875L-86.71428707511386,-21.493601842558178L-87.39622349086237,-20.307709870015795L-88.07310881009592,-19.119937514715154L-88.74490391198135,-17.93039475787383L-89.41156996987665,-16.739191744638998L-90.07306845357458,-15.546438773888045L-90.72936113152949,-14.352246288016596L-91.38041007306771,-13.15672486271117L-92.02617765057883,-11.959985196710585L-92.66662654169097,-10.762138101556287L-93.3017197314274,-9.56329449133194L-93.93142051434647,-8.363565372392381L-94.5556924966624,-7.163061833086261L-95.174499598349,-5.961895033468762L-95.78780605522483,-4.760176195010008L-96.39557642102018,-3.5580165902955594L-96.9977755694258,-2.3555275327233023L-97.59436869612284,-1.1528203661969831L-98.18532132079483,0.049993545184065506L-98.77059928911977,1.2528028274365226L-99.35016877474462,2.4554961070056986L-99.9239962812404,3.6579620210780077L-100.49204864403771,4.8600892278931065L-101.05429303234354,6.061766417052314L-101.61069695103906,7.262882319826897L-102.16122824255758,8.463325719459723L-102.70585508874292,9.662985461463883L-103.24454601268832,10.861750463914872L-103.7772698805561,12.059509727736168L-104.3039959033766,13.256152346977034L-104.82469363882778,14.451567519082348L-105.33933299299467,15.645644555151206L-105.84788422210869,16.838272890187113L-106.35031793426664,18.02934209333558L-106.84660509112942,19.21874187810885L-107.33671700960036,20.4063621125983L-107.82062536348293,21.59209282967191L-108.29830218511782,22.77582423715651L-108.76971986699948,23.95744672800451L-109.23485116337156,25.13685089044178L-109.69366919180165,26.313927518099604L-110.14614743473491,27.488567620126442L-110.5922597410269,28.660662431279373L-111.03198032745462,29.830103421995588L-111.46528378020676,30.99678230844151L-111.89214505635287,32.16059106253931L-112.31253948529024,33.32142192196959L-112.72644277016997,34.47916740015011L-113.13383098930122,35.63372029618732L-113.53468059753375,36.784973704804024L-113.92896842761866,37.932821026237086L-114.31667169154747,39.077155976108486L-114.69776798186906,40.2178725952666L-115.07223527298478,41.35486525959742L-115.44005192242135,42.488028689804636L-115.80119667208179,43.6172579611585L-116.15564864947397,44.7424485132102L-116.50338736891699,45.86349615947455L-116.84439273272505,46.98029709707693L-117.1786450323693,48.09274791636442L-117.50612494961642,49.200745610481306L-117.82681355764552,50.30418758490694L-118.14069232214194,51.402971666955224L-118.4477431023684,52.49699611523583L-118.74794815221327,53.58615962907383L-119.04129012121668,54.67036135789055L-119.32775205557276,55.74950091054161L-119.60731739910993,56.82347836461216L-119.87996999424747,57.892194275669475L-120.14569408292952,58.95554968647096L-120.40447430753575,60.01344613612687L-120.65629571176898,61.06578566921768L-120.90114374151958,62.112470844863715L-121.13900424570664,63.15340474574756L-121.36986347709585,64.18849098708893L-121.59370809309395,65.2176337255684L-121.81052515652004,66.24073766820253L-122.02030213635305,67.25770808116724L-122.22302690845615,68.26845079856975L-122.41868775627742,69.27287223116772L-122.60727337152707,70.27087937503553L-122.78877285483084,71.26237982017494L-122.96317571636008,72.247281759073L-123.13047187643805,73.22549399520202L-123.29065166612236,74.19692595146418L-123.44370582776372,75.1614876785785L-123.5896255155413,76.11908986340961L-123.72840229597365,77.06964383723754L-123.8600281484063,78.01306158396842L-123.98449546547525,78.94925574828348L-124.10179705354662,79.8781396437283L-124.21192613313251,80.79962726073963L-124.31487633928269,81.71363327460864L-124.41064172195262,82.62007305338248L-124.49921674634712,83.51886266569977L-124.58059629324048,84.40991888856286L-124.65477565927218,85.29315921504384L-124.72175055721883,86.1685018619238L-124.78151711624179,87.03586577726553L-124.83407188211109,87.89517064791913L-124.87941181740491,88.74633690695782L-124.91753430168522,89.58928574104576L-124.94843713164917,90.42393909773568L-124.97211852125648,91.25021969269606L-124.98857710183259,92.06805101686746L-124.99781192214789,92.87735734354652L-124.99982244847256,93.67806373539776L-124.99460856460749,94.47009605139303L-124.98217057189103,95.25338095367583L-124.96250918918146,96.02784591435234L-124.93562555281557,96.79341922220705L-124.90152121654287,97.55002998934285L-124.86019815143588,98.2976081577447L-124.8116587457762,99.0360845057671L-124.7559058049164,99.76539065454278L-124.69294255111798,100.48545907431519L-124.62277262336511,101.19622309069065L-124.54540007715423,101.89761689081229L-124.46082938425981,102.58957552945422L-124.36906543247582,103.27203493503451L-124.27011352533317,103.94493191554834L-124.16397938179335,104.60820416441926L-124.05066913591776,105.26179026626814L-123.93018933651327,105.90562970259988L-123.80254694675371,106.53966285740756L-123.66774934377736,107.16383102269208L-123.52580431826074,107.77807640389832L-123.3767200739682,108.38234212526676L-123.22050522727785,108.9765722350996L-123.05716880668355,109.56071171094192L-122.88672025227312,110.13470646467619L-122.70916941518276,110.69850334753039L-122.52452655702763,111.25205015499989L-122.33280234930889,111.79529563168067L-122.13400787279677,112.32818947601561L-121.92815461689038,112.85068234495212L-121.71525447895353,113.36272585851091L-121.49531976362701,113.86427260426582L-121.2683631821177,114.35527614173407L-121.0343978514638,114.83569100667592L-120.79343729377665,115.30547271530509L-120.54549543545924,115.76457776840715L-120.29058660640148,116.21296365536755L-120.02872553915181,116.65058885810797L-119.75992736806585,117.07741285493034L-119.4842076284316,117.49339612426922L-119.20158225557171,117.89850014835127L-118.91206758392232,118.29268741676164L-118.6156803460892,118.67592142991715L-118.3124376718805,119.04816670244631L-118.0023570873169,119.40938876647472L-117.68545651361838,119.75955417481688L-117.36175426616897,120.09863050407286L-117.03126905345772,120.42658635763088L-116.6940199759977,120.74339136857438L-116.35002652522186,121.0490162024937L-115.99930858235687,121.34343256020229L-115.6418864172738,121.62661318035732L-115.27778068731652,121.89853184198363L-114.90701243610809,122.15916336690177L-114.52960309233457,122.40848362205938L-114.14557446850604,122.64646952176572L-113.7549487596965,122.87309902982942L-113.35774854226085,123.0883511615987L-112.95399677253008,123.29220598590452L-112.54371678548452,123.48464462690622L-112.1269322934052,123.66564926583912L-111.70366738450339,123.8352031426646L-111.27394652152847,123.99329055762189L-110.83779454035385,124.13989687268183L-110.39523664854185,124.27500851290226L-109.9462984238869,124.39861296768494L-109.49100581293685,124.51069879193405L-109.02938512949369,124.6112556071159L-108.56146305309275,124.70027410221988L-108.08726662746045,124.77774603462072L-107.60682325895168,124.84366423084155L-107.12016071496566,124.89802258721834L-106.62730712234098,124.94081607046482L-106.12829096573034,124.97204071813874L-105.62314108595393,124.99169363900867L-105.11188667833277,124.99977301332173L-104.59455729100114,124.99627809297208L-104.07118282319914,124.9812092015702L-103.54179352354444,124.95456773441296L-103.00641998828416,124.91635615835436L-102.46509315952622,124.86657801157715L-101.91784432345187,124.80523790326521L-101.36470510850633,124.73234151317676L-100.80570748357171,124.64789559111846L-100.24088375611902,124.55190795632036L-99.670266570341,124.44438749671198L-99.0938889052653,124.32534416809925L-98.51178407284866,124.19478899324265L-97.92398571605158,124.0527340608367L-97.33052780689371,123.8991925243904L-96.73144464449088,123.73417860100948L-96.12677085307219,123.55770757007988L-95.51654137997934,123.36979577185294L-94.90079149364654,123.17046060593246L-94.27955678156236,122.95972052966354L-93.6528731482129,122.73759505642352L-93.0207768130067,122.50410475381513L-92.38330430818101,122.25927124176216L-91.74049247669143,122.00311719050758L-91.09237847008126,121.73566631851405L-90.4389997463352,121.4569433902683L-89.78039406771417,121.16697421398747L-89.11659949857295,120.86578563922986L-88.44765440315985,120.55340555440867L-87.77359744339996,120.2298628842096L-87.09446757666032,119.89518758691248L-86.41030405349866,119.54941065161796L-85.72114641539449,119.1925640953771L-85.02703449246407,118.82468096022735L-84.32800840115847,118.4457953101332L-83.62410854194466,118.05594222783154L-82.91537559697103,117.65515781158345L-82.2018505277158,117.2434791718319L-81.48357457261993,116.82094442776507L-80.76058924470304,116.38759270378696L-80.03293632916557,115.94346412589508L-79.30065788097201,115.48859981796421L-78.56379622242163,115.02304189793907L-77.82239394070191,114.54683347393423L-77.07649388542731,114.0600186402429L-76.32613916616282,113.56264247325352L-75.5713731499321,113.05475102727614L-74.81223945871152,112.53639133027825L-74.04878196690895,112.00761137953012L-73.28104479882765,111.46846013716014L-72.5090723261164,110.91898752562194L-71.73290916520506,110.35924442307116L-70.95260017472555,109.78928265865461L-70.16819045291977,109.20915500771163L-69.37972533503286,108.6189151868866L-68.58725039069289,108.01861784915545L-67.7908114212776,107.40831857876573L-66.99045445726671,106.78807388608854L-66.1862257555821,106.15794120238671L-65.37817179691382,105.51797887449732L-64.5663392830343,104.86824615942828L-63.75077513409888,104.20880321887192L-62.9315264859342,103.5397111136346L-62.10864068731357,102.86103179798215L-61.282165297220935,102.17282811390362L-60.45214808210217,101.47516378529266L-59.618637013103935,100.76810341204686L-58.78168026330154,100.05171246408575L-57.941326204914745,99.32605727528912L-57.097623406511744,98.59120503735504L-56.250620630202626,97.84722379357763L-55.40036682882084,97.09418243254696L-54.54691114309391,96.33215068177061L-53.6903028988037,95.5611991012171L-52.83059160393506,94.78139907678185L-51.967826945815,93.99282281367836L-51.10205878824041,93.19554332975136L-50.233337168596904,92.38963444871615L-49.36171229496633,91.5751707933234L-48.487234543225306,90.75222777844864L-47.60995445413306,89.92088160410951L-46.72992273041194,89.08120924841108L-45.847190233815,88.23328846041638L-44.96180798218794,87.37719775294822L-44.07382714651995,86.5130163953197L-43.183299047986296,85.64082440599337L-42.290275154982346,84.76070254517242L-41.394807080148496,83.8727323073232L-40.496946577387845,82.97699591362836L-39.5967455388745,82.07357630437399L-38.69425599205504,81.16255713127028L-37.78953009664086,80.24402274970538L-36.88262014159415,79.31805821093431L-35.97357854210533,78.38474925420392L-35.06245783656428,77.44418229881452L-34.14931068352346,76.4964444361168L-33.23418985865474,75.54162342144824L-32.31714825169849,74.57980766600774L-31.39823886340838,73.61108622866891L-30.477514802486517,72.63554880773319L-29.555029282514578,71.65328573262546L-28.630835618878724,70.66438795552887L-27.704987225687784,69.66894704296358L-26.77753761268641,68.6670551673089L-25.84854038216199,67.65880509826741L-24.918049225847263,66.6442901942754L-23.986117921817154,65.6236043938597L-23.05280033138014,64.59684220693727L-22.11815039596572,63.56409870606536L-21.18222213400687,62.5254695176387L-20.24506963781759,61.48105081303393L-19.30674707046726,60.430939299705365L-18.367308662649847,59.375232212230046L-17.426808709549828,58.31402730330514L-16.48530156770353,57.247422834695186L-15.542841651859112,56.175517568135L-14.599483431829984,55.098410756184244L-13.655281429347271,54.01620213303683L-12.710290214909136,52.92899190528645L-11.764564404626432,51.8368807426486L-10.818158657066343,50.73996976863793L-9.87112767009296,49.6383605512053L-8.92352617770652,48.53215509333365L-7.97540894688006,47.42145582359258L-7.026830774393567,46.306365586653484L-6.077846483667435,45.18698763376809L-5.128510921593918,44.063425613206526L-4.178878955366793,42.93578356066069L-3.229005469310957,41.80416588961172L-2.27894536170992,40.668677381660636L-1.328753541632942,39.52942317682657L-0.3784849257619868,38.38650876381281L0.571805564782874,37.24003997023664L1.5220630076170925,36.090122952831926L2.472232482266458,34.93686418761899L3.4222590733405793,33.78037046004633L4.372087873707186,32.62074885510161L5.321663987665281,31.458106747396844L6.270932534118305,30.292551791226657L7.2198386497454505,29.12419191059868L8.168327492172509,27.953135289241814L9.116344243142064,26.7794903605884L10.063834111681283,25.603365797733435L11.010742337268695,24.424870503372453L11.957014192998988,23.24411359971841L12.902594988746406,22.061204418396247L13.847430074324922,20.876252490320034L14.791464842647324,19.689367535551447L15.734644732880696,18.500659453139836L16.67691523360044,17.310238310945557L17.618221885940237,16.11821433544978L18.558510286740066,14.924697901546615L19.497726091689795,13.729799522323653L20.435815018470468,12.533629838829704L21.37272284989135,11.336299609828748L22.30839543702409,10.137919701544911L23.24277870233075,8.93860107739733L24.175818642790873,7.738454787725076L25.107461333022048,6.537591959504089L26.03765292839613,5.336123786057847L26.96633966815164,4.134161516762148L27.89346787850066,2.9318164467427L28.818983975731378,1.729199906570456L29.74283446930432,0.5264232519536879L30.66496596494439,-0.6764021465744992L31.58532516772629,-1.879164913966915L32.503858885155346,-3.0817536809756705L33.42051403024127,-4.284057094464802L34.33523762456685,-5.485963827720521L35.24797680134926,-6.6873625907587915L36.158678808495864,-7.888142140631502L37.06729101165305,-9.088191291726291L37.97376089724824,-10.287398926061282L38.87803607552459,-11.485654003574448L39.780064283569374,-12.682845572405967L40.67979338833452,-13.878862779170213L41.577171389649166,-15.07359487922173L42.472146423225425,-16.266931246908893L43.364666763655705,-17.458761385816615L44.25468082740262,-18.648974938998983L45.14213717577973,-19.837461699197085L46.026984517924475,-21.02411161904315L46.90917171376309,-22.208814821250762L47.788647776965824,-23.39146160878934L48.665361877893794,-24.571942475041038L49.53926334653667,-25.75014811393982L50.41030167544152,-26.925969430093893L51.27842652263129,-28.099297548886696L52.14358771451479,-29.27002382655745L53.00573524878644,-30.43803986026248L53.86481929731581,-31.603237498111227L54.72079020902796,-32.76550884918114L55.57359851277299,-33.92474629350825L56.4231949201848,-35.080842492051744L57.2695303285301,-36.233690396632305L58.11255582354614,-37.38318325984553L58.95222268226808,-38.529214644945455L59.788482375844524,-39.671678435699626L60.62128657234221,-40.81046884621528L61.45058713953987,-41.94548043073521L62.276336147709685,-43.07660809339995L63.09848587238749,-44.20374709798057L63.9169887971309,-45.32679307757582L64.73179761626595,-46.4456420442764L65.54286523762057,-47.560190398792756L66.35014478524675,-48.670334940049344L67.15358960212936,-49.77597287473899L67.95315325288311,-50.87700182684161L68.748789526436,-51.97331984710408L69.54045243870048,-53.06482542247979L70.3280962352306,-54.15141748552757L71.11167539386673,-55.232995423771186L71.8911446273664,-56.309459089014915L72.666458886022,-57.38070880661613L73.43757336026412,-58.44664538471597L74.20444348325093,-59.50717012342266L74.96702493344515,-60.562184823951085L75.7252736371745,-61.61159179771593L76.47914577117943,-62.655293875376636L77.22859776514579,-63.693194415834235L77.97358630422322,-64.72519731518094L78.71406833152814,-65.75120701559818L79.45000105063264,-66.77112851420448L80.18134192803741,-67.7848673718525L80.90804869563063,-68.79232972187398L81.63007935313036,-69.79342227877092L82.34739217051235,-70.78805234685267L83.05994569042143,-71.7761278288203L83.76769873056782,-72.75755723429364L84.4706103861072,-73.73224968828227L85.16864003200497,-74.70011493960129L85.86174732538373,-75.66106336922694L86.54989220785549,-76.61500599859518L87.23303490783667,-77.56185449784113L87.91113594284646,-78.50152119397751L88.58415612178896,-79.43391907901217L89.25205654721816,-80.35896181800561L89.91479861758626,-81.27656375706455L90.57234402947422,-82.18663993127255L91.22465477980607,-83.0891060725585L91.8716931680443,-83.98387861749814L92.5134217983705,-84.87087471505211L93.14980358184496,-85.7500122342379L93.7808017385511,-86.62120977173423L94.40637979972102,-87.48438665941825L95.02650160984325,-88.33946297183584L95.64113132875221,-89.18635953360177L96.25023343369988,-90.02499792673066L96.85377272140859,-90.85530049789833L97.45171431010577,-91.67719036563238L98.04402364153988,-92.49059142743067L98.63066648297773,-93.29542836680761L99.21160892918301,-94.09162666026889L99.78681740437578,-94.8791125842115L100.3562586641731,-95.65781322174973L100.91989979751024,-96.42765646946788L101.47770822854304,-97.18857104409562L102.02965171853032,-97.94048648910886L102.57569836769743,-98.68333318125396L103.11581661707972,-99.41704233699407L103.6499752503466,-100.14154601887788L104.17814339560559,-100.85677714183089L104.70029052718658,-101.56266947936685L105.21638646740651,-102.25915766971944L105.72640138831282,-102.94617722189548L106.23030581340751,-103.62366452164545L106.72807061935119,-104.29155683735421L107.21966703764592,-104.94979232584986L107.70506665629783,-105.59831003812982L108.18424142145972,-106.23704992500404L108.65716363905167,-106.86595284265596L109.12380597636215,-107.48496055811835L109.58414146362772,-108.09401575466579L110.03814349559129,-108.69306203712091L110.48578583304044,-109.28204393707772L110.92704260432342,-109.86090691803676L111.36188830684488,-110.42959738045487L111.79029780853925,-110.98806266670861L112.21224634932358,-111.53625106596995L112.62770954252855,-112.07411181899398L113.03666337630791,-112.60159512281976L113.43908421502589,-113.11865213538094L113.83494880062403,-113.62523498002875L114.22423425396461,-114.12129674996518L114.60691807615328,-114.60679151258617L114.98297814983941,-115.08167431373434L115.35239274049428,-115.5459011818622L115.71514049766732,-115.99942913210329L116.07120045622,-116.4422161702521L116.4205520375375,-116.8742212966531L116.76317505071825,-117.29540450999657L117.09904969374054,-117.70572681102267L117.42815655460727,-118.10515020613273L117.75047661246776,-118.49363771090701L118.06599123871706,-118.87115335352948L118.37468219807262,-119.23766217811817L118.67653164962813,-119.5931302479625L118.97152214788498,-119.93752464866535L119.25963664375988,-120.27081349119037L119.54085848557084,-120.59296591481548L119.81517141999923,-120.90395208998994L120.0825595930293,-121.20374322109633L120.34300755086434,-121.49231154911722L120.59650024081988,-121.76963035420522L120.84302301219384,-122.0356739581571L121.082561617113,-122.2904177267917L121.31510221135649,-122.53383807223062L121.54063135515618,-122.76591245508241L121.75913601397316,-122.98661938652981L121.97060355925122,-123.19593843031926L122.17502176914675,-123.39385020465313L122.37237882923495,-123.58033638398469L122.56266333319277,-123.75537970071467L122.74586428345812,-123.91896394679014L122.92197109186547,-124.07107397520555L123.09097358025777,-124.21169570140493L123.2528619810747,-124.34081610458635L123.40762693791739,-124.45842322890728L123.55525950608883,-124.56450618459189L123.69575115311105,-124.65905514893927L123.82909375921821,-124.74206136723288L123.95527961782597,-124.81351715355135L124.0743014359767,-124.8734158914801L124.18615233476115,-124.92175203472384L124.29082584971596,-124.95852110762036L124.38831593119725,-124.98371970555482L124.47861694473035,-124.99734549527497L124.56172367133533,-124.99939721510731L124.63763130782871,-124.98987467507379L124.70633546710103,-124.96877875690951L124.76783217837044,-124.93611141398097L124.82211788741212,-124.8918756711053L124.8691894567638,-124.83607562427012L124.90904416590703,-124.76871644025432L124.94167971142437,-124.68980435614951L124.96709420713263,-124.59934667878272L124.98528618419176,-124.49735178403967L124.99625459118985,-124.38382911608917L124.99999879420382,-124.25878918650885L124.99651857683611,-124.1222435733116L124.98581414022712,-123.97420491987374L124.96788610304368,-123.81468693376407L124.94273550144322,-123.64370438547485L124.91036378901389,-123.461273107054L124.8707728366906,-123.26740999063912L124.82396493264682,-123.06213298689356L124.76994278216239,-122.84546110334401L124.7087095074671,-122.61741440262062L124.64026864756039,-122.37801400059962L124.56462415800662,-122.12728206444753L124.48178041070658,-121.86524181056892L124.39174219364475,-121.59191750245687L124.2945147106126,-121.30733444844591L124.19010358090792,-121.01151899936883L124.07851483900987,-120.7044985461169L123.95975493423036,-120.3863015171031L123.83383073034132,-120.05695737563046L123.70074950517791,-119.71649661716349L123.56051895021787,-119.3649507665045L123.41314717013711,-119.00235237487465L123.25864268234129,-118.62873501690007L123.09701441647343,-118.24413328750262L122.92827171389793,-117.84858279869688L122.75242432716065,-117.4421201762928L122.56948241942527,-117.02478305650382L122.37945656388581,-116.59661008246269L122.18235774315573,-116.15764090064259L121.97819734863303,-115.70791615718673L121.76698717984196,-115.24747749414425L121.548739443751,-114.77636754561458L121.32346675406743,-114.29462993379997L121.09118213050824,-113.8023092649659L120.85189899804776,-113.2994511253109L120.60563118614158,-112.78610207674612L120.35239292792745,-112.26230965258294L120.09219885940261,-111.72812235313219L119.82506401857785,-111.18358964121357L119.5510038446084,-110.62876193757502L119.27003417690177,-110.06369061622436L118.9821712542019,-109.48842799967265L118.68743171365111,-108.90302735408865L118.38583258982844,-108.30754288436744L118.07739131376482,-107.702029729111L117.76212571193601,-107.08654395552252L117.44005400523213,-106.46114255421509L117.11119480790444,-105.82588343393456L116.77556712648992,-105.18082541619798L116.43319035871242,-104.5260282298462L116.08408429236177,-103.86155250551388L115.72826910414987,-103.18745977001551L115.36576535854513,-102.50381244064813L114.9965940065833,-101.81067381941155L114.62077638465676,-101.1081080871477L114.23833421328166,-100.39618029759703L113.84928959584241,-99.67495637137525L113.45366501731411,-98.94450308986978L113.05148334296312,-98.20488808905549L112.64276781702556,-97.45617985323207L112.22754206136386,-96.6984477086839L111.80583007410155,-95.93176181725903L111.37765622823628,-95.15619316987359L110.94304527023115,-94.37181357993872L110.50202231858451,-93.57869567671018L110.0546128623782,-92.77691289856368L109.60084275980446,-91.9665394861954L109.14073823667134,-91.14765047574654L108.67432588488704,-90.32032169185678L108.20163266092304,-89.48462974064189L107.7226858842561,-88.64065200260184L107.23751323578932,-87.78846662545462L106.74614275625234,-86.92815251690064L106.24860284458067,-86.05978933731684L105.74492225627458,-85.18345749237959L105.23513010173653,-84.29923812562004L104.71925584458948,-83.40721311091102L104.19732929997393,-82.50746504488556L103.66938063282419,-81.6000772392886L103.13544035612544,-80.68513371326367L102.59553932915014,-79.76271918557221L102.04970875567457,-78.83291906674953L101.49798018217491,-77.8958194511967L100.94038549600486,-76.95150710920777L100.37695692355189,-76.00006947893554L99.8077270283755,-75.0415946582966L99.2327287093243,-74.07617139681176L98.65199519863536,-73.10388908738958L98.06556006001284,-72.12483775804947L97.47345718668892,-71.13910806358444L96.87572079946446,-70.14679127716765L96.27238544473134,-69.14797928190133L95.66348599247559,-68.14276456230785L95.04905763426274,-67.1312401957675L94.42913588120318,-66.11349984389861L93.80375656189973,-65.08963774388646L93.17295582037772,-64.05974869975613L92.53677011399537,-63.02392807359472L91.89523621133688,-61.982271776721944L91.24839119008743,-60.9348762608081L90.59627243489022,-59.881838508943744L89.93891763518585,-58.82325602665996L89.27636478303396,-57.75922683289955L88.60865217091755,-56.68984945094037L87.93581838952986,-55.61522289927402L87.2579023255439,-54.535446682435875L86.57494315936509,-53.450620781792125L85.8869803628668,-52.36084564628263L85.19405369710897,-51.2662221831187L84.49620321004022,-50.16685174844004L83.7934692341832,-49.06283613793114L83.08589238430356,-47.95427757739315L82.37351355506262,-46.84127871327969L81.65637391865386,-45.72394260319281L80.93451492242329,-44.60237270633919L80.20797828647427,-43.47667287395097L79.47680600125551,-42.34694733967033L78.7410403251351,-41.21330070989658L78.00072378195814,-40.07583795410186L77.25589915858829,-38.93466439510981L76.50660950243548,-37.789885699345014L75.75289811896782,-36.64160786704732L74.99480856920897,-35.489937222457485L74.23238466721973,-34.33498040397272L73.46567047756696,-33.17684435427135L72.69471031277598,-32.015636310411075L71.9195487307697,-30.851463793899853L71.14023053229398,-29.684434600739625L70.35680075832745,-28.514656791444263L69.5693046874784,-27.342238681035333L68.77778783336876,-26.167288829011174L67.98229594200293,-24.98991602929553L67.18287498912403,-23.8102293001645L66.37957117755668,-22.628337874150724L65.57243093453661,-21.444351187929474L64.7615009090282,-20.258378872186977L63.94682796902655,-19.070530741466555L63.12845919885067,-17.880916784001954L62.306441896421184,-16.689647151533464L61.48082357052699,-15.49683214910716L60.65165193807941,-14.30258222486213L59.81897492135448,-13.107007959803155L58.98284064522313,-11.910220057562157L58.14329743436986,-10.712329334147224L57.30039381049985,-9.51344670768098L56.45417848953449,-8.313683188131728L55.60470037879597,-7.113149867032984L54.75200857418057,-5.911957907197672L53.8961523573212,-4.710218532425722L53.03718119273909,-3.5080430172040296L52.17514472498525,-2.3055426764037006L51.31009277577017,-1.102828854973361L50.4420753410864,0.09998708237122861L49.57114258831699,1.3027937614595975L48.697344853337086,2.5054798089776513L47.82073263760448,3.707933862781785L46.94135660524115,4.91004458220974L46.05926758010422,6.111700658389478L45.17451654284983,7.3127908245471L44.28715462798569,8.513203866309098L43.39723312091674,9.712828631998649L42.50480345497984,10.911554042930307L41.60991720847206,12.109269103693512L40.7126261016696,13.30586291243081L39.812981993837816,14.501224671105897L38.911036880235265,15.695243695764214L38.00684288910773,16.887809426781025L37.10045227867551,18.078811439098182L36.19191743411392,19.268139452449333L35.28129086452466,20.455683341571927L34.36862519990099,21.641333146402665L33.45397318808709,22.824979082260754L32.53738769172855,24.006511550012675L31.61892168521742,25.18582114621986L30.698628251630492,26.362798673270103L29.77656057966141,27.53733514948805L28.852771960546537,28.709321819225853L27.92731578498502,29.878650162933788L27.000245540053026,31.045211907209207L26.07161480611246,32.208899034820575L25.141477253714246,33.369603794710756L24.209886640496435,34.52721871197354L23.27689680807726,35.6816365978046L22.342561678943323,36.83275055942784L21.406935253333145,37.980454009992464L20.470071606116207,39.1246406784419L19.53202488366765,40.265204619354364L18.592849300738877,41.40204022275322L17.652599137324206,42.53504222388547L16.71132873552371,43.66410571296806L15.769092496402525,44.789126144903264L14.825944876846915,45.909999348958245L13.88194038641583,47.0266215384104L12.937133584192702,48.13888932015781L11.991579075629993,49.246699704293434L11.045331509394337,50.349950113640084L10.098445574207892,51.44853839324985L9.1509759956878,52.54236281986255L8.20297753318242,53.63132211132406L7.2545049766078185,54.71531543596577L6.305613143280274,55.794242421940396L5.356356874748101,56.868003166515486L4.4067910336229446,57.93649824532426L3.456970500407641,58.99962872157234L2.5069501703254966,60.05729615519742L1.556784950146481,61.10940261198559L0.6065297550152076,62.15585067263896L-0.34376049472379794,63.19654344179558L-1.2940308767000157,64.23138455700254L-2.2442264696914127,65.26027819763804L-3.1942923567975243,66.28312909378354L-4.144173628615617,67.29984253504551L-5.093815386411977,68.31032437932552L-6.043162745295911,69.31448106153692L-6.99216083739162,70.3122196022679L-7.940754815009306,71.30344761639194L-8.888889853815112,72.28807332162161L-9.836511155999718,73.26600554700686L-10.783563953445398,74.23715374137716L-11.729993510891369,75.20142798172668L-12.67574512909722,76.1587389815394L-13.620764148004294,77.10899809905773L-14.564995949894774,78.05211734548985L-15.508385962548338,78.98800939315633L-16.45087966239618,79.91658758357734L-17.392422577671983,80.83776593549615L-18.332960291561278,81.75145915284025L-19.272438445344235,82.65758263261962L-20.210802741539574,83.556052472761L-21.147998947041593,84.44678547987554L-22.08397289625482,85.32969917696337L-23.018670494224317,86.20471181104966L-23.952037719762973,87.071742360755L-24.88402062857239,87.93071054379674L-25.814565356361694,88.78153682442394L-26.74361812195955,89.62414242078071L-27.67112523042377,90.45844931220162L-28.59703307614377,91.28438024643611L-29.521288145938723,92.10185874680145L-30.443837022151232,92.9108091192635L-31.364626385733335,93.7111564594466L-32.28360301932894,94.50282665956871L-33.20071381034958,95.28574641530324L-34.115905754043204,96.05984323256675L-35.02912595655864,96.82504543423212L-35.94032163800265,97.58128216676432L-36.84944013548929,98.32848340678214L-37.75642890618443,99.06657996754149L-38.6612355303423,99.79550350534126L-39.56380771433503,100.51518652585258L-40.46409329367508,101.22556239036781L-41.362040236030026,101.92656532197077L-42.257596644229835,102.61813041162752L-43.15071075926626,103.30019362419691L-44.04133096328429,103.97269180435958L-44.929405782565375,104.63556268246543L-45.81488389050243,105.28874488030019L-46.69771411056624,105.93217791676832L-47.57784541926321,106.56580221349296L-48.45522694908436,107.18955910033326L-49.32980799144513,107.80339082081616L-50.20153799961617,108.4072405374847L-51.07036659164469,109.00105233716104L-51.9362435532663,109.58477123612349L-52.799118840807154,110.15834318519741L-53.65894258407626,110.72171507476044L-54.51566508924754,111.27483473965995L-55.36923684173288,111.81765096404294L-56.2196085090419,112.3501134860986L-57.06673094363506,112.87217300271263L-57.91055518576324,113.38378117403158L-58.75103246629754,113.88489062793974L-59.58811420954774,114.37545496444513L-60.42175203607049,114.85542875997561L-61.2518977654643,115.32476757158545L-62.0785034191549,115.78342794107023L-62.90152122316814,116.23136739899057L-63.72090361089042,116.66854446860489L-64.53660322581888,117.09491866970994L-65.34857292429749,117.51045052238904L-66.15676577824266,117.91510155066727L-66.96113507785435,118.3088342860748L-67.76163433431643,118.69161227111594L-68.55821728248326,119.06340006264463L-69.3508378835539,119.4241632351469L-70.13945032773198,119.77386838392793L-70.92400903687505,120.11248312820537L-71.70446866712712,120.43997611410772L-72.48078411154,120.75631701757742L-73.25291050268036,121.06147654717853L-74.02080321522266,121.35542644680926L-74.78441786852834,121.63813949831821L-75.54371032921087,121.90958952402448L-76.29863671368639,122.16975138914174L-77.04915339071003,122.41860100410562L-77.79521698389752,122.65611532680403L-78.53678437423224,122.88227236471101L-79.2738127025572,123.09705117692302L-80.00625937205217,123.30043187609776L-80.7340820506956,123.49239563029597L-81.45723867371092,123.67292466472492L-82.17568744599869,123.84200226338439L-82.88938684455036,123.99961277061426L-83.59829562084985,124.14574159254448L-84.30237280325667,124.28037519844612L-85.00157769937405,124.4035011219843L-85.69586989840079,124.5151079623726L-86.38520927346663,124.61518538542859L-87.06955598395206,124.70372412453078L-87.74887047779008,124.7807159814766L-88.42311349375223,124.84615382724165L-89.0922460637184,124.90003160263961L-89.75622951492838,124.94234431888346L-90.41502547221705,124.9730880580473L-91.0685958602328,124.99225997342921L-91.71690290563726,124.99985828981478L-92.359909139289,124.99588230364151L-92.9975773984091,124.98033238306392L-93.6298708287284,124.95320996791959L-94.25675288661826,124.91451756959562L-94.87818734120212,124.86425877079631L-95.49413827644997,124.80243822521126L-96.10457009325341,124.72906165708459L-96.70944751148363,124.64413586068474L-97.30873557203032,124.54766869967558L-97.90239963882208,124.4396691063881L-98.49040540082832,124.32014708099331L-99.07271887404224,124.18911369057655L-99.64930640344488,124.04658106811236L-100.22013466495035,123.89256241134127L-100.78517066733171,123.72707198154777L-101.34438175412774,123.55012510223962L-101.89773560553037,123.3617381577291L-102.44520024025255,123.16192859161603L-102.98674401737662,122.9507149051723L-103.52233563818308,122.72811665562898L-104.05194414795949,122.4941544543654L-104.57553893778943,122.24884996500053L-105.09308974632161,121.99222590138709L-105.60456666151893,121.72430602550857L-106.10994012238706,121.44511514527868L-106.60918092068293,121.15467911224445L-107.10226020260346,120.85302481919257L-107.58914947045193,120.5401801976592L-108.0698205842861,120.21617421534356L-108.54424576354425,119.88103687342574L-109.01239758865061,119.53479920378905L-109.47424900260022,119.1774932661461L-109.92977331252257,118.80915214507057L-110.37894419122476,118.42980994693389L-110.82173567871241,118.03950179674682L-111.2581221836906,117.63826383490715L-111.68807848504242,117.22613321385383L-112.11157973328716,116.80314809462602L-112.5286014520161,116.36934764333002L-112.9391195393076,115.92477202751287L-113.3431102691194,115.46946241244272L-113.7405502926604,115.0034609572972L-114.13141663973991,114.52681081126005L-114.51568672009537,114.0395561095252L-114.89333832469761,113.5417419692106L-115.26434962703478,113.03341448518043L-115.62869918437396,112.51462072577677L-115.9863659389999,111.98540872846144L-116.33732921943248,111.4458274953684L-116.68156874162128,110.89592698876581L-117.01906461011797,110.33575812642995L-117.34979731922607,109.76537277693095L-117.67374775412844,109.18482375482964L-117.99089719199188,108.59416481578712L-118.30122730304932,107.99345065158745L-118.60472015165914,107.38273688507381L-118.90135819734182,106.76208006499749L-119.19112429579363,106.13153766078207L-119.47400169987756,105.49116805720247L-119.74997406059111,104.84103054897815L-120.01902542801156,104.18118533528292L-120.28114025221707,103.51169351417165L-120.53630338418617,102.83261707692161L-120.78450007667286,102.14401890229308L-121.02571598505901,101.44596275070755L-121.25993716818355,100.73851325834296L-121.48715008914793,100.0217359311492L-121.7073416160989,99.29569713878298L-121.92049902298709,98.56046410846152L-122.12660999030254,97.81610491873843L-122.32566260578703,97.0626884931998L-122.51764536512226,96.30028459408189L-122.70254717259479,95.52896381581176L-122.88035734173754,94.74879757847116L-123.05106559594705,93.95985812118244L-123.21466206907773,93.16221849542023L-123.37113730601196,92.35595255824691L-123.52048226320643,91.5411349654749L-123.66268830921508,90.71784116475217L-123.79774722518778,89.8861473885774L-123.92565120534537,89.04613064724138L-124.04639285743085,88.19786872169553L-124.15996520313648,87.34144015635009L-124.26636167850725,86.476924251802L-124.3655761343202,85.604401057491L-124.45760283643976,84.7239513642879L-124.54243646614925,83.83565669701484L-124.62007212045818,82.93959930689468L-124.69050531238565,82.03586216393607L-124.75373197121975,81.1245289492512L-124.80974844275275,80.20568404730648L-124.85855148949229,79.27941253810934L-124.90013829084856,78.34580018933097L-124.93450644329724,77.40493344836341L-124.96165396051845,76.45689943431621L-124.98157927351158,75.50178592994921L-124.99428123068593,74.53968137354387L-124.99975909792724,73.57067485071505L-124.9980125586402,72.5948560861617L-124.98904171376667,71.61231543535959L-124.9728470817799,70.62314387619384L-124.94942959865453,69.62743300053519L-124.9187906178125,68.62527500576036L-124.8809319100449,67.61676268621297L-124.83585566340945,66.60198942461241L-124.78356448310424,65.5810491834077L-124.72406139131705,64.55403649607575L-124.65734982705072,63.52104645836883L-124.58343364592432,62.48217471950959L-124.50231711995046,61.43751747333353L-124.41400493728821,60.387171449382215L-124.31850220197232,59.33123390394806L-124.21581443361809,58.26980261106659L-124.10594756710246,57.20297585346447L-123.98890795222087,56.13085241345945L-123.86470235332044,55.05353156381246L-123.73333794890894,53.97111305853615L-123.59482233123987,52.88369712365871L-123.44916350587367,51.79138444794223L-123.29636989121522,50.69427617356092L-123.13645031802703,49.59247388673442L-122.96941402891889,48.48607960832301L-122.79527067781392,47.37519578437967L-122.6140303293904,46.25992527666467L-122.4257034585002,45.14037135312183L-122.23030094956324,44.016637678315206L-122.02783409593864,42.888828303830735L-121.81831459927182,41.75704765864305L-121.60175456881821,40.621400539443506L-121.37816652074358,39.48199210093795L-121.14756337740043,38.33892784611045L-120.90995846658124,37.19231361645283L-120.6653655207484,36.04225558216596L-120.41379867623995,34.888860232327325L-120.15527247245325,33.732234365032646L-119.88980185100421,32.57248507750415L-119.617402154864,31.40971975617803L-119.3380891274719,30.244046066756347L-119.05187891182618,29.07557194424184L-118.75878804955003,27.90440558294094L-118.45883347993663,26.730655426447303L-118.15203253896938,25.554430157599885L-117.83840295832002,24.375838688418824L-117.51796286432447,23.194990150022562L-117.19073077693422,22.011993882520255L-116.85672560864701,20.826959424890553L-116.51596666341271,19.639996504836247L-116.16847363551868,18.45121502862587L-115.81426660845084,17.260725070916283L-115.45336605373282,16.06863686455973L-115.08579282974381,14.87506079039861L-114.71156818051155,13.680107367042003L-114.33071373448608,12.483887240636392L-113.94325150328825,11.286511174615603L-113.54920388043895,10.08809003944891L-113.14859364006352,8.88873480237216L-112.7414439355765,7.688556517114591L-112.32777829834339,6.487666313615199L-111.9076206363197,5.2861753877320385L-111.48099523267071,4.084194990947886L-111.04792674436631,2.881836420066061L-110.60844020075766,1.6792110069091803L-110.16256100212908,0.47643010800555186L-109.71031491823115,-0.7263949057176126L-109.25172808679042,-1.9291526592494195L-108.78682701199979,-3.1317317838062353L-108.31563856298614,-4.33402092714427L-107.83818997225684,-5.535908763871958L-107.35450883412696,-6.737284005754093L-106.86462310312372,-7.93803541202138L-106.36856109237121,-9.138051799666517L-105.86635147195334,-10.337222053742007L-105.35802326725796,-11.535435137647028L-104.84360585729877,-12.732580103409472L-104.32312897301662,-13.92854610195979L-103.79662269556246,-15.123222393393242L-103.26411745455799,-16.316498357226664L-102.72564402633739,-17.508263502637135L-102.18123353216788,-18.698407478697682L-101.63091743645239,-19.886820084590973L-101.0747275449093,-21.07339127981617L-100.51269600273596,-22.258011194376326L-99.94485529274976,-23.44057013895241L-99.37123823351061,-24.620958615060566L-98.79187797742554,-25.799067325189366L-98.20680800883066,-26.97478718292296L-97.61606214205813,-28.14800932303776L-97.01967451947952,-29.31862511158755L-96.41767960953494,-30.48652615595826L-95.81011220473864,-31.651604314907356L-95.19700741966972,-32.81375170857539L-94.57840068894257,-33.97286072847552L-93.95432776515757,-35.128824047459176L-93.32482471683684,-36.28153462965036L-92.68992792633738,-37.43088574036014L-92.04967408775062,-38.576770955967866L-91.40410020477952,-39.7190841737762L-90.75324358860142,-40.857719621834L-90.09714185571154,-41.99257186873271L-89.43583292574748,-43.123535833367086L-88.76935501929992,-44.25050679466554L-88.09774665570119,-45.373380401287115L-87.42104665080151,-46.49205268128184L-86.73929411472322,-47.60642005172248L-86.05252844960238,-48.716379328289946L-85.36078934730982,-49.8218277348322L-84.66411678715879,-50.92266291287902L-83.96255103359358,-52.0187829311187L-83.2561326338615,-53.11008629483873L-82.54490241567102,-54.19647195532203L-81.82890148483116,-55.27783931920432L-81.10817122287628,-56.35408825778651L-80.3827532846734,-57.42511911631046L-79.65268959601671,-58.490832723180915L-78.9180223512019,-59.55113039915257L-78.17879401059,-60.60591396646569L-77.43504729815176,-61.65508575793562L-76.68682519899833,-62.69854862599862L-75.93417095689871,-63.73620595170562L-75.17712807177777,-64.76796165366933L-74.41574029720505,-65.793720196959L-73.65005163786311,-66.81338660195064L-72.88010634700696,-67.82686645311661L-72.10594892390466,-68.8340659077703L-71.32762411126544,-69.83489170475764L-70.54517689265553,-70.82925117308781L-69.75865248989575,-71.81705224051811L-68.96809636045067,-72.79820344207745L-68.17355419479853,-73.77261392853629L-67.37507191379338,-74.74019347481698L-66.57269566600849,-75.70085248835203L-65.76647182507081,-76.65450201737525L-64.95644698698098,-77.60105375916037L-64.14266796741828,-78.54042006819945L-63.32518179903777,-79.47251396431383L-62.5040357287491,-80.39724914071189L-61.6792772149887,-81.3145399719788L-60.850953924974206,-82.22430152200572L-60.019113731951734,-83.1264495518526L-59.18380471242712,-84.0209005275521L-58.34507514338926,-84.9075716278399L-57.50297349951898,-85.78638075182562L-56.65754845038638,-86.65724652659677L-55.808848857639774,-87.52008831474922L-54.95692377218073,-88.3748262218574L-54.10182243132952,-89.22138110387043L-53.243594255978486,-90.05967457444075L-52.38228884773746,-90.88962901218254L-51.517955986066106,-91.71116756785791L-50.65064562539584,-92.52421417149448L-49.78040789224452,-93.32869353942783L-48.90729308231836,-94.1245311812729L-48.03135165760548,-94.9116534068201L-47.152634243458415,-95.6899873328616L-46.27119162567043,-96.45946088993604L-45.387074747537326,-97.22000282900487L-44.50033470691614,-97.97154272804838L-43.61102275326997,-98.71401099858576L-42.71919028470591,-99.44733889212013L-41.82488884500659,-100.17145850650314L-40.92817012064807,-100.88630279222305L-40.02908593781591,-101.59180555861163L-39.12768825940653,-102.28790147997609L-38.224029182027365,-102.97452610164414L-37.31816093298273,-103.65161584593505L-36.41013586725747,-104.31910801804553L-35.50000646449106,-104.97694081185412L-34.58782532594241,-105.62505331564574L-33.67364517145297,-106.26338551775066L-32.7575188363963,-106.89187831210178L-31.83949926862791,-107.5104735037064L-30.91963952542189,-108.11911381403716L-29.997992770406558,-108.71774288633296L-29.07461227049189,-109.30630529081847L-28.14955139278877,-109.88474652983803L-27.222863601527845,-110.45301304289897L-26.294602454966103,-111.01105221163343L-25.364821602294903,-111.55881236466936L-24.433574780536052,-112.09624278241553L-23.500915811438663,-112.62329370175692L-22.566898598366322,-113.13991632066445L-21.631577123183913,-113.6460628027116L-20.69500544313663,-114.14168628150462L-19.757237687724608,-114.62674086502346L-18.818328055576472,-115.1011816398686L-17.878330811315813,-115.5649646754218L-16.93730028242538,-116.01804702791301L-15.995290856106092,-116.46038674439696L-15.052356976136151,-116.89194286663702L-14.10855313972113,-117.3126754348995L-13.163933894347595,-117.72254549165145L-12.218553834628084,-118.12151508516958L-11.272467599146898,-118.50954727305388L-10.32572986730225,-118.88660612564763L-9.378395356144928,-119.25265672936588L-8.430518817218351,-119.60766518992628L-7.482155033390862,-119.95159863548902L-6.533358815692845,-120.28442521970003L-5.584185000146696,-120.60611412463946L-4.634688444597547,-120.91663556367597L-3.684924025544963,-121.21596078422421L-2.7349466349680003,-121.50406207040758L-1.7848111771562565,-121.7809127456239L-0.834572565533108,-122.04648717501665L0.11571428051448128,-122.3007607678473L1.0659944388133753,-122.54370997977328L2.0162129875762926,-122.77531231502768L2.966315008576032,-122.99554632850202L3.9162455903217097,-123.20439162773242L4.86594983122906,-123.4018288747875L5.815372842797046,-123.58783978805913L6.764459752776605,-123.76240714395486L7.713155708345342,-123.92551477849351L8.661405879275105,-124.07714758880084L9.609155461103136,-124.2172915345088L10.556349678297297,-124.34593363905532L11.502933787422952,-124.46306199088563L12.448853080308213,-124.56866574455569L13.394052887202713,-124.66273512173599L14.338478579940595,-124.74526141211726L15.2820755750951,-124.81623697421668L16.22478933713545,-124.87565523608589L17.16656538157655,-124.92351069591908L18.107349278129025,-124.95979892256261L19.04708665384616,-124.98451655592542L19.98572319626441,-124.99766130728996L20.923204656543497,-124.9992319595242L21.859476852601333,-124.98922836719437L22.794485672246562,-124.9676514565783L23.728177076303606,-124.93450322557987L24.66049710173913,-124.88978674354371L25.591391864777613,-124.83350615097132L26.520807564017957,-124.76566665913747L27.44869048354188,-124.68627454960762L28.374986996018446,-124.59533717365657L29.299643565804548,-124.49286295158747L30.22260675203666,-124.37886137195227L31.1438232117227,-124.25334299067315L32.06323970282155,-124.11631943006503L32.98080308732344,-123.96780337775945L33.896460334318924,-123.80780858552988L34.81015852306383,-123.63634986801816L35.72184484603998,-123.45344310136278L36.631466612003955,-123.2591052217292L37.53897124903592,-123.0533542237409L38.44430630757453,-122.83620915881409L39.34741946345153,-122.60769013339294L40.248258520913694,-122.36781830708811L41.14677141563951,-122.11661589071765L42.04290621775037,-121.85410614425004L42.936611134808686,-121.58031337465067L43.827834514814654,-121.295262933631L44.71652484918814,-120.99898121530167L45.60263077574876,-120.69149565372734L46.48610108168186,-120.37283472038803L47.36688470650049,-120.04302792154148L48.2449307449944,-119.70210579549162L49.120188450173096,-119.35009990976117L49.99260723620008,-118.98704285816795L50.86213668131359,-118.61296825780737L51.72872653074376,-118.22791074593937L52.59232669961475,-117.83190597678197L53.45288727584139,-117.42499061820826L54.31035852301146,-117.0072023483532L55.16469088326324,-116.57857985212323L56.01583498014674,-116.13916281761482L56.86374162147958,-115.68899193244008L57.70836180218913,-115.22810887995833L58.54964670714474,-114.75655633541707L59.387547713979984,-114.27437796200026L60.22201639590075,-113.78161840678607L61.053004524486916,-113.27832329661094L61.88046407247684,-112.76453923384712L62.704347216545095,-112.24031379208648L63.52460634006635,-111.70569551173426L64.34119403586556,-111.160733895517L65.15406310896067,-110.60547940389672L65.96316657928729,-110.03998345039962L66.7684576844169,-109.4642983968549L67.56988988225652,-108.87847754854754L68.36741685374142,-108.28257514928015L69.1609925055103,-107.67664637635323L69.95057097256924,-107.06074733545375L70.7361066209444,-106.4349350554609L71.51755405031659,-105.79926748316645L72.29486809664826,-105.15380347790665L73.0680038347907,-104.49860280611549L73.83691658108334,-103.83372613578798L74.60156189593411,-103.15923503086393L75.36189558638951,-102.4751919455268L76.11787370868706,-101.78166021842203L76.86945257079596,-101.07870406679048L77.6165887349433,-100.36638858052316L78.35923902012212,-99.64477971613528L79.09736050458966,-98.91394429065615L79.83091052834598,-98.17394997544594L80.55984669560128,-97.42486528992686L81.28412687722434,-96.66675959523957L82.00370921317838,-95.89970308782169L82.71855211494116,-95.12376679290624L83.4286142679071,-94.33902255794618L84.13385463377584,-93.5455430459613L84.83423245292387,-92.74340172881132L85.52970724676095,-91.93267288038965L86.22023882006783,-91.11343156975016L86.9057872633218,-90.28575365415296L87.58631295500082,-89.44971577204154L88.26177656387526,-88.60539533594746L88.93213905128022,-87.75287052532052L89.59736167337185,-86.89222027929098L90.2574059833673,-86.02352428935966L90.91223383376504,-85.14686299202042L91.56180737855196,-84.26231756130878L92.20608907538826,-83.36996990129012L92.84504168777946,-82.46990263847222L93.47862828722697,-81.5621991141558L94.10681225536247,-80.64694337671861L94.72955728606566,-79.724220173831L95.34682738756054,-78.79411494461004L95.95858688449765,-77.8567138117077L96.56480042001391,-76.9121035733381L97.165432957778,-75.96037169523655L97.760449784014,-75.00160630256536L98.34981650950769,-74.03589617175182L98.9334990715954,-73.06333072226573L99.51146373613071,-72.08400000834447L100.08367709943616,-71.09799471065038L100.65010609023187,-70.10540612787608L101.21071797154873,-69.10632616829034L101.76548034261897,-68.1008473412279L102.31436114075001,-67.08906274852325L102.85732864317629,-66.07106607589131L103.3943514688933,-65.04695158425054L103.92539858047212,-64.0168141009959L104.4504392858513,-62.98074901121994L104.96944324011275,-61.93885224887645L105.48238044723396,-60.89122028790284L105.98922126182292,-59.83795013328301L106.48993639082995,-58.77913931206707L106.9844968952426,-57.714885864340175L107.47287419175633,-56.64528833414603L107.95504005442781,-55.57044576035999L108.43096661630572,-54.49045766751968L108.90062637104123,-53.40542405661125L109.36399217447837,-52.31544539580539L109.82103724622161,-51.22062261116015L110.27173517118527,-50.12105707727131L110.7160599011186,-49.01685060788727L111.15398575611236,-47.908105446482864L111.58548742608254,-46.79492425678975L112.0105399722331,-45.67741011329191L112.4291188284979,-44.55566649168074L112.84119980295934,-43.42979725927578L113.24675907924806,-42.29990666540266L113.64577321791784,-41.166099331745976L114.0382191578017,-40.02848024265731L114.4240742173439,-38.88715473543593L114.80331609591067,-37.7422284905764L115.17592287508009,-36.5938075219806L115.54187301990754,-35.44199816714315L115.90114538017167,-34.2869070773042L116.25371919159547,-33.12864120757637L116.59957407704752,-31.96730780703648L116.9386900477189,-30.80301440880092L117.27104750427876,-29.635868820063955L117.59662723800714,-28.46597911211705L117.91541043190473,-27.293453610343413L118.22737866178122,-26.118400884185018L118.53251389731902,-24.940929737091402L118.83079850311645,-23.76114919644423L119.12221523970616,-22.579168503464096L119.40674726455205,-21.3950971030906L119.68437813302218,-20.209044633854468L119.95509179933944,-19.021120917720793L120.21887261750928,-17.831435949921904L120.47570534222314,-16.640099888774134L120.72557512974052,-15.447223045472956L120.96846753874608,-14.2529158738849L121.20436853118488,-13.057288960315317L121.43326447307305,-11.860453013270876L121.65514213528665,-10.662518853207684L121.86998869432531,-9.46359740227169L122.07779173305414,-8.263799674025243L122.2785392414209,-7.06323676316918L122.47221961715034,-5.862019835257822L122.65882166641485,-4.660260116400791L122.83833460448096,-3.458068882970283L123.0107480563333,-2.2555574512926055L123.1760520572736,-1.052837167343115L123.33423705349713,0.1499806035646992L123.48529390264446,1.3527844870892565L123.62921387433002,2.555463110176204L123.76598865064682,3.757905111369621L123.89561032664682,4.959999151121702L124.01807141079826,6.161633922107071L124.13336482541808,7.362698159523023L124.2414839070816,8.56308065139691L124.34242240700718,9.762670248881992L124.43617449141739,10.961355876547875L124.52273474187658,12.159026542668151L124.60209815560344,13.355571349495854L124.67426014576075,14.550879503532867L124.73921654171998,15.744840325786585L124.79696358930265,16.93734326202303L124.84749795099711,18.12827789299742L124.89081670615155,19.317533944683202L124.9269173511428,20.505001298481073L124.95579779952092,21.690570001414056L124.97745638212993,22.87413027631116L124.99189184720413,24.055572531970398L124.9991033604406,25.234787373307203L124.9990905050473,26.411665611481645L124.9918532817672,27.58609827401348L124.97739210887829,28.757976614866372L124.95570782216926,29.927192124521895L124.92680167489138,31.09363654002522L124.89067533768593,32.25720185500838L124.84733089848774,33.41778032969365L124.7967708624044,34.57526450086791L124.73899815157155,35.72954719183363L124.67401610498409,36.88052152233282L124.60182847830296,38.02808091844397L124.52243944363835,39.172119122448514L124.43585358930835,40.312530202672306L124.34207591957392,41.449208563292984L124.24111185434958,42.5820489541159L124.13296722889012,43.71094648032433L124.01764829345362,44.835796612186314L123.89516171293975,45.95649519473812L123.7655145665051,47.07293845742631L123.6287143471535,48.18502302371723L123.48476896130349,49.29264592066737L123.33368672833095,50.39570458846064L123.1754763800884,51.49409688990356L123.01014706040057,52.587721119881L122.83770832453546,53.67647601477801L122.65817013865265,54.76026076185055L122.4715428792268,55.83897500856469L122.27783733244823,56.91251887188666L122.07706469359945,57.980792947532294L121.8692365664081,59.04369831916972L121.6543649623765,60.10113656758086L121.43246230008691,61.1530097797733L121.20354140448461,62.19922055804496L120.96761550613586,63.239672029006876L120.72469824046381,64.27426785254768L120.47480364696,65.30291223075847L120.21794616837346,66.32550991680152L119.95414064987565,67.34196622372868L119.68340233820223,68.35218703325091L119.40574688077257,69.35607880445178L119.12119032478465,70.35354858244952L118.82974911628818,71.34450400700224L118.53144009923359,72.32885332106419L118.22628051449928,73.30650537927663L117.9142879988941,74.27736965641157L117.59548058413915,75.24135625575234L117.26987669582483,76.19837591741651L116.93749515234626,77.14834002662307L116.59835516381568,78.09116062189611L116.2524763309518,79.02675040321039L115.89987864394784,79.95502274007305L115.54058248131501,80.87589167954896L115.17460860870602,81.78927195421464L114.80197817771356,82.69507899005735L114.42271272464913,83.59322891430482L114.03683416929752,84.48363856319001L113.64436481364986,85.36622548965536L113.24532734061563,86.24090797098228L112.83974481271031,87.1076050163618L112.42764067072396,87.96623637439234L112.00903873236501,88.81672254051104L111.5839631908847,89.65898476435436L111.15243861367883,90.49294505705167L110.7144899408668,91.31852619844577L110.27014248385184,92.13565174424171L109.8194219238564,92.94424603308856L109.3623543104395,93.744234193581L108.89896605998977,94.5355421511952L108.42928395419975,95.3180966351464L107.9533351385175,96.09182518517376L107.47114712057778,96.85665615824882L106.98274776861277,97.61251873521088L106.48816530984014,98.3593429273236L105.98742832883337,99.09705958275447L105.48056576586804,99.82560039298097L104.96760691525047,100.54489789911172L104.44858142362364,101.25488549813575L103.923519288255,101.95549744908821L103.3924508553011,102.64666887913832L102.8554068180554,103.32833578959495L102.31241821517354,104.00043506183428L101.76351642887886,104.66290446314339L101.20873318314999,105.3156826524817L100.64810054188591,105.95870918616356L100.08165090705454,106.59192452345148L99.50941701681792,107.21527003207204L98.93143194364222,107.82868799364392L98.3477290923848,108.43212160902162L97.75834219836413,109.0255150035561L97.16330532541026,109.6088132322676L96.56265286389517,110.18196228493366L95.95641952874684,110.74490909108908L95.34464035744077,111.29760152494237L94.72735070797714,111.83998841019924L94.10458625683515,112.37201952480366L93.47638299691313,112.89364560558728L92.84277723544692,113.40481835283026L92.2038055919114,113.90549043473486L91.55950499590571,114.39561549180726L90.90991268501641,114.87514814115038L90.25506620266793,115.34404398066614L89.59500339595039,115.80225959316694L88.92976241343385,116.2497525503951L88.25938170296278,116.68648141695326L87.58390000943395,117.11240575413896L86.90335637255791,117.52748612368998L86.21779012460098,117.93168409143715L85.52724088811438,118.32496223086098L84.83174857364185,118.7072841265589L84.13135337741473,119.07861437761646L83.42609577902809,119.43891860088539L82.71601653910108,119.78816343416686L82.00115669692207,120.1263165393014L81.2815575680749,120.45334660516284L80.55726074205353,120.76922335055707L79.82830807985593,121.0739175270272L79.09474171156656,121.36740092156023L78.3566040339199,121.64964635920063L77.6139377078521,121.92062770556602L76.86678565603287,122.18031986926735L76.11519106038703,122.42869880423177L75.35919735959789,122.66574151192974L74.59884824659572,122.89142604350434L73.83418766603438,123.1057315018032L73.06525981174958,123.30863804331445L72.29210912420699,123.50012688000292L71.51478028793099,123.68018028105072L70.73331822892504,123.84878157449866L69.9477681120723,124.00591514879L69.15817533852773,124.15156645421592L68.36458554309314,124.28572200426294L67.56704459157899,124.40836937686161L66.76559857815417,124.51949721553657L65.9602938226832,124.61909523045848L65.15117686804685,124.70715419939629L64.33829447745335,124.78366596857161L63.521693631736404,124.8486234534135L62.70142152663921,124.90202063921441L61.87752557008557,124.94385258168734L61.05005337944264,124.97411540742337L60.219052778765786,124.99280631425056L59.384571796037655,124.99992357149321L58.5466586603893,124.9954665201323L57.70536179931585,124.97943557286638L56.86072983587451,124.95183221407339L56.01281158587751,124.91265899967325L55.16165605506803,124.8619195568912L54.30731243628906,124.79961858392176L53.4498301066415,124.72576184949405L52.58925862462757,124.64035619233731L51.725647727289804,124.54340952054784L50.859047327333215,124.43493081085667L49.98950751024383,124.31493010779856L49.11707853139077,124.18341852278151L48.24181081312446,124.04040823305837L47.36375494186136,123.8859124805992L46.482961665159,123.71994557086464L45.599481888785895,123.5425228714821L44.71336667377614,123.35366081082222L43.82466723348162,123.15337687647785L42.93343493060921,122.94168961364475L42.039721274253495,122.71861862340475L41.143577916921046,122.48418456091024L40.245056651542214,122.23840913347188L39.34420940848107,121.98131509854903L38.44108825253076,121.71292626164148L37.53574537990771,121.4332674740865L36.628233115231595,121.14236463075673L35.71860390850458,120.84024466766286L34.80691033207657,120.5269355594594L33.89320507760974,120.20246631685477L32.97754095303194,119.8668669839244L32.05997087948375,119.52016863532914L31.140547888260798,119.16240337343844L30.219325117750028,118.7936043253564L29.296355810355994,118.41380563985626L28.371693309424995,118.02304248421697L27.44539105616335,117.62135104096745L26.51750258654573,117.20876850453612L25.588081528224063,116.78533307780746L24.6571815974268,116.35108396858371L23.724856595853055,115.90606138595489L22.79116040756617,115.45030653657633L21.85614699587597,114.98386162085141L20.919870400223452,114.50676982902621L19.982384733054015,114.01907533718864L19.043744176693558,113.52082330317853L18.10400298021389,113.0120598624069L17.163215456298726,112.49283212358291L16.221435978105973,111.96318816435266L15.27871897612213,111.4231770268472L14.335118935019993,110.87284871314154L13.390690390506157,110.3122541806245L12.44548792617264,109.74144533728146L11.499566170338671,109.16047503688549L10.55297979289652,108.5693970741063L9.6057835021505,107.96826617952779L8.658032041653762,107.35713801457898L7.709780187047462,106.73606916638298L6.761082742891448,106.10511714251481L5.811994539500348,105.46434036567773L4.862570429771533,104.81379816829303L3.912865286016644,104.1535507870075L2.9629339967893453,103.4836593571131L2.0128314637143467,102.80418590688937L1.062612598313459,102.11519335185851L0.11233231883062986,101.41674548895816L-0.8379544529389672,100.70890699063747L-1.7881927948267113,99.99174339886609L-2.7383277874612273,99.26532111906641L-3.688304517446025,98.52970741396446L-4.638068080530129,97.78497039736268L-5.587563584782622,97.03117902783148L-6.536736153766032,96.2684031023247L-7.485530929707051,95.49671324971801L-8.43389307666572,94.71618092426598L-9.38176778370737,93.92687839898974L-10.329100268069087,93.1288787589818L-11.275835778324593,92.32225589464007L-12.221919597551716,91.50708449482559L-13.167297046491672,90.68344003994791L-14.111913486710613,89.85139879497414L-15.05571432375878,89.01103780236822L-15.998645010322742,88.1624348749584L-16.94065104938149,87.30566858872875L-17.88167799735259,86.44081827554793L-18.821671467242297,85.56796401581994L-19.760577131785347,84.68718663107073L-20.698340726587904,83.79856767646396L-21.63490805326246,82.90218943325067L-22.57022498255895,81.9981349011486L-23.504237457496227,81.08648779065776L-24.436891496482808,80.16733251531075L-25.368133196440265,79.24075418385273L-26.297908735915065,78.30683859236562L-27.226164378192696,77.36567221632008L-28.15284647440036,76.41734220256971L-29.07790146660891,75.46193636128314L-30.001275890929588,74.49954315780944L-30.922916380600924,73.53025170449165L-31.842769669076556,72.55415175241154L-32.76078259310036,71.57133368308098L-33.67690209578201,70.5818885000723L-34.59107522966174,69.5859078205938L-35.5032491597713,68.58348386700236L-36.4133711666863,67.57470945826898L-37.32138864957399,66.5596780013821L-38.227249129234636,65.53848348269625L-39.130900251131585,64.51122045923442L-40.03228978842051,63.47798404992838L-40.931365644964515,62.43886992681315L-41.8280758583484,61.39397430616742L-42.722368602878475,60.3433939396065L-43.61419219258123,59.28722610511932L-44.50349508418721,58.225568598066076L-45.39022588011325,57.1585197221206L-46.274333331429744,56.086178280165626L-47.155766340825494,55.00864356514925L-48.034473965559634,53.92601535088667L-48.91040542040465,52.83839388282363L-49.78351008058445,51.745879868753406L-50.6537374846973,50.64857446949349L-51.521037337633565,49.546579289516174L-52.38535951348368,48.439996367541795L-53.246654058432426,47.3289281670921L-54.10487119364918,46.21347756699821L-54.959961318161774,45.09374785188032L-55.81187501172634,43.96984270257962L-56.66056303768039,42.841866186560054L-57.505976345791275,41.70992274827141L-58.34806607508984,40.57411719948003L-59.18678355669321,39.43455470956127L-60.02208031662033,38.291340795762686L-60.85390807859047,37.144581313435374L-61.682218766816455,35.9943824462277L-62.50696450878009,34.84085069625921L-63.3280976380021,33.68409287425445L-64.14557069679392,32.52421608965501L-64.9593364390037,31.361327740700904L-65.76934783274403,30.195535504487797L-66.57555806311154,29.02694732699414L-67.37792053489355,27.85567141308767L-68.17638887525854,26.681816216505798L-68.97091693643877,25.50549042981295L-69.76145879839608,24.326802974338428L-70.54796877147648,23.145862990086066L-71.3304013990497,21.962779825634158L-72.10871146013719,20.777663028007748L-72.88285397202667,19.59062233253256L-73.65278419286948,18.40176765267979L-74.41845762426922,17.2112090698839L-75.17983001385088,16.019056823351878L-75.93685735782101,14.825421299854803L-76.6894959035083,13.63041302350885L-77.43770215189507,12.434142645536506L-78.18143286012841,11.236720934026602L-78.92064504402231,10.038258763675154L-79.65529598053914,8.83886710551632L-80.38534321026123,7.638657016652838L-81.11074453984381,6.437739629967872L-81.83145804445262,5.236226143836942L-82.54744207018928,4.034227811830664L-83.25865523649598,2.831855932415507L-83.96505643854987,1.6292218386432762L-84.66660484963624,0.4264368878480538L-85.3632599235093,-0.7763875486675423L-86.0549813967364,-1.9791400959473975L-86.74172929102279,-3.1817093856888383L-87.42346391552489,-4.383984066559613L-88.10014586914153,-5.585852814506192L-88.77173604279348,-6.787204343062659L-89.43819562168277,-7.987927413653449L-90.09948608753507,-9.187910845896093L-90.7555692208281,-10.387043527894589L-91.40640710299796,-11.585214426525976L-92.05196211863326,-12.782312597726259L-92.69219695764647,-13.978227196757047L-93.32707461743291,-15.172847488474009L-93.9565584050068,-16.36606285757815L-94.58061193912431,-17.557762818859057L-95.19919915238425,-18.74783702742346L-95.8122842933134,-19.936175288915223L-96.41983192843371,-21.122667569717386L-97.02180694430812,-22.307204007138957L-97.61817454957199,-23.48967491959239L-98.2089002769427,-24.669970816743387L-98.79394998521238,-25.847982409653905L-99.37328986121977,-27.023600620899533L-99.94688642180671,-28.19671659466989L-100.5147065157511,-29.367221706848536L-101.0767173256839,-30.535007575069212L-101.63288636998651,-31.699966068754062L-102.18318150466627,-32.8619893191242L-102.72757092521627,-34.020969729188636L-103.26602316845154,-35.176799983705024L-103.79850711432937,-36.329373059121146L-104.32499198774599,-37.478582233479194L-104.8454473603172,-38.62432109630021L-105.35984315213503,-39.76648355843957L-105.86814963350788,-40.90496386190486L-106.37033742667806,-42.039656589653084L-106.866377507519,-43.17045667534958L-107.35624120721435,-44.29725941309746L-107.83990021391298,-45.419960467130714L-108.31732657436719,-46.53845588147967L-108.78849269554667,-47.65264208959142L-109.25337134623386,-48.76241592392193L-109.7119356585986,-49.86767462549131L-110.16415912974928,-50.968315853393364L-110.61001562326635,-52.06423769427632L-111.04947937071124,-53.15533867177741L-111.4825249731171,-54.241517755919794L-111.90912740245605,-55.322674372465436L-112.32926200308519,-56.3987084122321L-112.7429044931729,-57.4695202403577L-113.15003096610066,-58.5350107055284L-113.55061789184633,-59.59508114916177L-113.9446421183425,-60.64963341453699L-114.33208087281609,-61.69856985588787L-114.71291176310305,-62.741793347442396L-115.08711277894396,-63.77920729241684L-115.45466229325486,-64.81071563195849L-115.81553906337776,-65.83622285404256L-116.16972223230884,-66.85563400231484L-116.51719132990276,-67.8688546848827L-116.85792627405685,-68.87579108305938L-117.19190737187108,-69.87634996004581L-117.51911532078664,-70.87043866956796L-117.83953120970084,-71.85796516445355L-118.15313652006118,-72.83883800515575L-118.45991312693455,-73.81296636821865L-118.75984330005527,-74.78026005468912L-119.05290970485021,-75.7406294984673L-119.33909540343966,-76.69398577460026L-119.61838385561741,-77.64024060751643L-119.89075891980552,-78.57930637919786L-120.15620485398838,-79.51109613729543L-120.41470631662148,-80.4355236031787L-120.66624836751899,-81.35250317992512L-120.91081646871642,-82.2619499602463L-121.14839648531152,-83.16377973434854L-121.37897468628098,-84.05790899773217L-121.6025377452736,-84.9442549589224L-121.8190727413813,-85.82273554713589L-122.02856715988507,-86.69326941987848L-122.23100889297899,-87.55577597048064L-122.4263862404694,-88.41017533555697L-122.61468791045135,-89.25638840240312L-122.79590301996157,-90.09433681632295L-122.9700210956067,-90.92394298787985L-123.13703207416945,-91.74513010008434L-123.29692630318941,-92.55782211550545L-123.44969454152157,-93.361943783312L-123.59532795987008,-94.15742064623886L-123.73381814129846,-94.9441790474846L-123.86515708171645,-95.7221461375278L-123.9893371903421,-96.4912498808744L-124.10635129014099,-97.25141906272943L-124.2161926182406,-98.00258329558734L-124.31885482632148,-98.74467302575275L-124.41433198098395,-99.4776195397793L-124.50261856409118,-100.20135497083257L-124.58370947308795,-100.915812304973L-124.65760002129572,-101.62092538736384L-124.7242859381834,-102.3166289283933L-124.7837633696141,-103.00285850972166L-124.83602887806813,-103.6795505902475L-124.88107944284138,-104.346642511988L-124.91891246022011,-105.00407250588347L-124.94952574363131,-105.65177969751565L-124.97291752376913,-106.28970411274472L-124.98908644869714,-106.91778668326168L-124.99803158392642,-107.53596925205926L-124.99975241246965,-108.14419457881607L-124.9942488348709,-108.74240634519595L-124.98152116921146,-109.33054916006515L-124.96157015109138,-109.90856856461816L-124.93439693358701,-110.4764110374228L-124.90000308718436,-111.03402399937472L-124.85839059968826,-111.58135581856637L-124.80956187610754,-112.11835581506782L-124.75351973851608,-112.6449742656189L-124.69026742588956,-113.16116240823426L-124.6198085939184,-113.6668724467178L-124.54214731479642,-114.16205755508868L-124.45728807698552,-114.64667188191623L-124.3652357849561,-115.12067055456758L-124.26599575890398,-115.58400968336002L-124.15957373444243,-116.03664636562696L-124.0459758622711,-116.47853868968981L-123.92520870782039,-116.90964573873816L-123.79727925087178,-117.32992759461958L-123.66219488515488,-117.73934534153507L-123.51996341791963,-118.13786106964278L-123.37059306948544,-118.52543787856754L-123.21409247276581,-118.90203988081926L-123.0504706727697,-119.26763220511396L-122.87973712607865,-119.62218099960357L-122.70190170029987,-119.96565343501128L-122.51697467349665,-120.29801770766954L-122.32496673359357,-120.61924304246638L-122.12588897775949,-120.92929969569435L-121.91975291176553,-121.2281589578049L-121.70657044932076,-121.51579315606614L-121.48635391138293,-121.79217565712644L-121.25911602544711,-122.05728086947902L-121.02486992480935,-122.31108424583239L-120.7836291478084,-122.55356228538373L-120.5354076370426,-122.78469253599377L-120.2802197385643,-123.0044535962667L-120.01808020105112,-123.21282511753147L-119.74900417495269,-123.40978780572601L-119.47300721161604,-123.59532342318346L-119.19010526238576,-123.76941479032163L-118.90031467768299,-123.9320457872329L-118.6036522060601,-124.08320135517712L-118.30013499323222,-124.22286749797648L-117.98978058108732,-124.35103128331059L-117.6726069066712,-124.46768084391462L-117.34863230115201,-124.57280537867784L-117.01787548875971,-124.66639515364393L-116.6803555857044,-124.74844150291197L-116.33609209907189,-124.81893682943924L-115.9851049256953,-124.87787460574444L-115.6274143510062,-124.92524937451213L-115.26304104786111,-124.9610567490981L-114.89200607534792,-124.98529341393547L-114.51433087756743,-124.99795712484176L-114.13003728239539,-124.99904670922666L-113.73914750021947,-124.98856206620067L-113.34168412265699,-124.96650416658427L-112.93767012124852,-124.93287505281825L-112.52712884612983,-124.88767783877442L-112.11008402468354,-124.8309167094674L-111.6865597601666,-124.76259692066697L-111.25658053031786,-124.68272479841161L-110.82017118594305,-124.5913077384225L-110.3773569494793,-124.48835420541901L-109.92816341353605,-124.37387373233462L-109.4726165394172,-124.24787691943439L-109.01074265562022,-124.11037543333349L-108.54256845631373,-123.96138200591673L-108.06812099979626,-123.80091043315981L-107.58742770693061,-123.62897557385183L-107.1005163595609,-123.44559334821965L-106.60741509890502,-123.25078073645315L-106.10815242393011,-123.04455577713382L-105.60275718970352,-122.8269375655641L-105.09125860572706,-122.59794625199864L-104.57368623424715,-122.3576030397797L-104.05006998854694,-122.10593018337292L-103.52044013121822,-121.84295098630696L-102.98482727241071,-121.56868979901571L-102.44326236806481,-121.28317201658393L-101.89577671812062,-120.9864240763948L-101.34240196471055,-120.6784734556832L-100.78317009032997,-120.35934866899098L-100.2181134159879,-120.02907926552584L-99.64726459934079,-119.68769582642679L-99.07065663280305,-119.33522996193129L-98.48832284164232,-118.97171430844877L-97.90029688205149,-118.59718252553854L-97.3066127392045,-118.2116692927937L-96.70730472529273,-117.81521030662853L-96.10240747754025,-117.407842276975L-95.491955956204,-116.98960292388279L-94.87598544255104,-116.56053097402571L-94.25453153682177,-116.12066615711782L-93.62763015617004,-115.67004920223295L-92.9953175325897,-115.20872183403416L-92.35763021081813,-114.73672676891005L-91.71460504622627,-114.25410771101998L-91.06627920268761,-113.76090934824647L-90.41269015042946,-113.25717734805784L-89.7538756638693,-112.7429583532796L-89.08987381942964,-112.21829997777536L-88.42072299333853,-111.68325080203898L-87.74646185941097,-111.13786036869423L-87.06712938681497,-110.58217917791004L-86.38276483781716,-110.01625868272235L-85.69340776551584,-109.44015128427067L-84.99909801155395,-108.85391032694658L-84.29987570381556,-108.2575900934531L-83.59578125410883,-107.65124579977928L-82.88685535582783,-107.03493359008698L-82.1731389816033,-106.40871053151352L-81.45467338093195,-105.77263460888486L-80.73150007779505,-105.12676471934992L-80.00366086825595,-104.47116066692442L-79.2711978180471,-103.80588315695417L-78.53415326013648,-103.13099379049501L-77.79256979228195,-102.4465550586073L-77.04649027457039,-101.75263033657065"/></g></svg>