<?xml version="1.0" standalone="no"?><!DOCTYPE svg PUBLIC "-//W3C//DTD SVG 1.1//EN" "http://www.w3.org/Graphics/SVG/1.1/DTD/svg11.dtd"><svg width="500" height="500" style="background: rgb(209, 209, 209);" version="1.1" xmlns="http://www.w3.org/2000/svg" xmlns:xlink="http://www.w3.org/1999/xlink"><defs xmlns="http://www.w3.org/1999/xhtml"><style type="text/css"><![CDATA[
html, body { height: 100%; margin: 0px; background: rgb(34, 34, 34); }
body, #prev, #next { height: 100%; box-sizing: border-box; display: -webkit-flex; flex-direction: column; justify-content: center; }
#prev, #next { position: absolute; top: 0px; color: rgb(209, 209, 209); font-size: 70px; text-decoration: none; padding: 20px; }
#prev { left: 0px; }
#next { right: 0px; }
svg { margin: auto; }
.fa { display: inline-block; font-style: normal; font-variant: normal; font-weight: normal; font-stretch: normal; line-height: 1; font-family: FontAwesome; font-size: inherit; text-rendering: auto; -webkit-font-smoothing: antialiased; }
.fa-twitter::before { content: ''; }
.fa-github::before { content: ''; }
.fa-th::before { content: ''; }
footer { text-align: center; margin-bottom: 25px; }
a { color: rgb(209, 209, 209); text-decoration: none; padding: 10px; }]]></style></defs><g transform="translate(250,250)"><circle cx="-0.737277336810124" cy="0.6755902076156604" fill="#000" fill-opacity="0.3" r="0.155602392154992"/><circle cx="-0.8616291604415256" cy="0.5075383629607044" fill="#000" fill-opacity="0.3" r="0.155602392154992"/><circle cx="-0.9483236552061993" cy="0.31730465640509214" fill="#000" fill-opacity="0.3" r="0.155602392154992"/><circle cx="-0.9935718556765875" cy="0.11320321376790689" fill="#000" fill-opacity="0.3" r="0.155602392154992"/><circle cx="-0.9953961983671789" cy="-0.09584575252022366" fill="#000" fill-opacity="0.3" r="0.155602392154992"/><circle cx="-0.953716950748227" cy="-0.3007057995042727" fill="#000" fill-opacity="0.3" r="0.155602392154992"/><circle cx="-0.8703556959398998" cy="-0.49242356010346694" fill="#000" fill-opacity="0.3" r="0.155602392154992"/><circle cx="-0.7489557207890021" cy="-0.6626200482157376" fill="#000" fill-opacity="0.3" r="0.155602392154992"/><circle cx="-0.5948227867513409" cy="-0.8038568606172176" fill="#000" fill-opacity="0.3" r="0.155602392154992"/><circle cx="-0.41469324265623925" cy="-0.9099612708765431" fill="#000" fill-opacity="0.3" r="0.155602392154992"/><circle cx="-0.21643961393810282" cy="-0.9762960071199334" fill="#000" fill-opacity="0.3" r="0.155602392154992"/><circle cx="-0.008726535498373576" cy="-0.9999619230641713" fill="#000" fill-opacity="0.3" r="0.155602392154992"/><circle cx="0.19936793441719694" cy="-0.9799247046208297" fill="#000" fill-opacity="0.3" r="0.155602392154992"/><circle cx="0.3987490689252454" cy="-0.9170600743851244" fill="#000" fill-opacity="0.3" r="0.155602392154992"/><circle cx="0.5807029557109393" cy="-0.8141155183563196" fill="#000" fill-opacity="0.3" r="0.155602392154992"/><circle cx="0.7372773368101239" cy="-0.6755902076156605" fill="#000" fill-opacity="0.3" r="0.155602392154992"/><circle cx="0.8616291604415254" cy="-0.5075383629607049" fill="#000" fill-opacity="0.3" r="0.155602392154992"/><circle cx="0.9483236552061989" cy="-0.31730465640509353" fill="#000" fill-opacity="0.3" r="0.155602392154992"/><circle cx="0.9935718556765873" cy="-0.11320321376790789" fill="#000" fill-opacity="0.3" r="0.155602392154992"/><circle cx="0.9953961983671789" cy="0.09584575252022311" fill="#000" fill-opacity="0.3" r="0.155602392154992"/><circle cx="0.9537169507482274" cy="0.3007057995042717" fill="#000" fill-opacity="0.3" r="0.155602392154992"/><circle cx="0.8703556959399003" cy="0.49242356010346605" fill="#000" fill-opacity="0.3" r="0.155602392154992"/><circle cx="0.7489557207890027" cy="0.6626200482157368" fill="#000" fill-opacity="0.3" r="0.155602392154992"/><circle cx="0.5948227867513418" cy="0.803856860617217" fill="#000" fill-opacity="0.3" r="0.155602392154992"/><circle cx="0.41469324265623936" cy="0.9099612708765431" fill="#000" fill-opacity="0.3" r="0.155602392154992"/><circle cx="0.21643961393810293" cy="0.9762960071199334" fill="#000" fill-opacity="0.3" r="0.155602392154992"/><circle cx="0.008726535498373699" cy="0.9999619230641713" fill="#000" fill-opacity="0.3" r="0.155602392154992"/><circle cx="-0.19936793441719858" cy="0.9799247046208294" fill="#000" fill-opacity="0.3" r="0.155602392154992"/><circle cx="-0.398749068925247" cy="0.9170600743851237" fill="#000" fill-opacity="0.3" r="0.155602392154992"/><circle cx="-0.58070295571094" cy="0.8141155183563191" fill="#000" fill-opacity="0.3" r="0.155602392154992"/><circle cx="0.34862297099063155" cy="-3.984778792366982" fill="#000" fill-opacity="0.3" r="0.622409568619968"/><circle cx="1.1694868188909469" cy="-3.8252190238521417" fill="#000" fill-opacity="0.3" r="0.622409568619968"/><circle cx="1.939238480985346" cy="-3.4984788285575843" fill="#000" fill-opacity="0.3" r="0.622409568619968"/><circle cx="2.624236115962028" cy="-3.0188383208910885" fill="#000" fill-opacity="0.3" r="0.622409568619968"/><circle cx="3.1945420401891713" cy="-2.407260092608193" fill="#000" fill-opacity="0.3" r="0.622409568619968"/><circle cx="3.625231148146599" cy="-1.6904730469628" fill="#000" fill-opacity="0.3" r="0.622409568619968"/><circle cx="3.8974802591409405" cy="-0.8998042173754613" fill="#000" fill-opacity="0.3" r="0.622409568619968"/><circle cx="3.999390780625565" cy="-0.06980962574913424" fill="#000" fill-opacity="0.3" r="0.622409568619968"/><circle cx="3.9265087337906555" cy="0.7632359815061802" fill="#000" fill-opacity="0.3" r="0.622409568619968"/><circle cx="3.682019413809762" cy="1.5629245139570938" fill="#000" fill-opacity="0.3" r="0.622409568619968"/><circle cx="3.276608177155967" cy="2.294305745404184" fill="#000" fill-opacity="0.3" r="0.622409568619968"/><circle cx="2.7279934402499935" cy="2.9254148064766827" fill="#000" fill-opacity="0.3" r="0.622409568619968"/><circle cx="2.060152299640218" cy="3.4286692028084484" fill="#000" fill-opacity="0.3" r="0.622409568619968"/><circle cx="1.3022726178286304" cy="3.782074302397266" fill="#000" fill-opacity="0.3" r="0.622409568619968"/><circle cx="0.4874773736205927" cy="3.970184606565288" fill="#000" fill-opacity="0.3" r="0.622409568619968"/><circle cx="-0.34862297099063105" cy="3.984778792366982" fill="#000" fill-opacity="0.3" r="0.622409568619968"/><circle cx="-1.169486818890943" cy="3.825219023852143" fill="#000" fill-opacity="0.3" r="0.622409568619968"/><circle cx="-1.9392384809853425" cy="3.4984788285575865" fill="#000" fill-opacity="0.3" r="0.622409568619968"/><circle cx="-2.6242361159620278" cy="3.0188383208910894" fill="#000" fill-opacity="0.3" r="0.622409568619968"/><circle cx="-3.194542040189169" cy="2.4072600926081966" fill="#000" fill-opacity="0.3" r="0.622409568619968"/><circle cx="-3.625231148146597" cy="1.6904730469628038" fill="#000" fill-opacity="0.3" r="0.622409568619968"/><circle cx="-3.8974802591409405" cy="0.8998042173754618" fill="#000" fill-opacity="0.3" r="0.622409568619968"/><circle cx="-3.999390780625565" cy="0.06980962574913828" fill="#000" fill-opacity="0.3" r="0.622409568619968"/><circle cx="-3.9265087337906572" cy="-0.7632359815061728" fill="#000" fill-opacity="0.3" r="0.622409568619968"/><circle cx="-3.682019413809762" cy="-1.5629245139570933" fill="#000" fill-opacity="0.3" r="0.622409568619968"/><circle cx="-3.2766081771559654" cy="-2.294305745404187" fill="#000" fill-opacity="0.3" r="0.622409568619968"/><circle cx="-2.727993440249994" cy="-2.9254148064766823" fill="#000" fill-opacity="0.3" r="0.622409568619968"/><circle cx="-2.0601522996402184" cy="-3.4286692028084484" fill="#000" fill-opacity="0.3" r="0.622409568619968"/><circle cx="-1.3022726178286241" cy="-3.7820743023972683" fill="#000" fill-opacity="0.3" r="0.622409568619968"/><circle cx="-0.4874773736205826" cy="-3.970184606565289" fill="#000" fill-opacity="0.3" r="0.622409568619968"/><circle cx="5.478852861078489" cy="7.1401800626211145" fill="#000" fill-opacity="0.3" r="1.400421529394928"/><circle cx="3.874599871274657" cy="8.123267559148745" fill="#000" fill-opacity="0.3" r="1.400421529394928"/><circle cx="2.101008274703155" cy="8.751329283579087" fill="#000" fill-opacity="0.3" r="1.400421529394928"/><circle cx="0.23559253477086245" cy="8.996915924780016" fill="#000" fill-opacity="0.3" r="1.400421529394928"/><circle cx="-1.6401197294293177" cy="8.849294168075593" fill="#000" fill-opacity="0.3" r="1.400421529394928"/><circle cx="-3.444150891285809" cy="8.31491579260158" fill="#000" fill-opacity="0.3" r="1.400421529394928"/><circle cx="-5.0976561323234915" cy="7.417135697598143" fill="#000" fill-opacity="0.3" r="1.400421529394928"/><circle cx="-6.528369339110582" cy="6.195191181243793" fill="#000" fill-opacity="0.3" r="1.400421529394928"/><circle cx="-7.67376147918683" cy="4.70248708244354" fill="#000" fill-opacity="0.3" r="1.400421529394928"/><circle cx="-8.483773419829603" cy="3.0042617331039425" fill="#000" fill-opacity="0.3" r="1.400421529394928"/><circle cx="-8.923003752364293" cy="1.1747357299804742" fill="#000" fill-opacity="0.3" r="1.400421529394928"/><circle cx="-8.972256003598151" cy="-0.7061318615506051" fill="#000" fill-opacity="0.3" r="1.400421529394928"/><circle cx="-8.62937761381374" cy="-2.5561381023352987" fill="#000" fill-opacity="0.3" r="1.400421529394928"/><circle cx="-7.909354013957693" cy="-4.294428842336466" fill="#000" fill-opacity="0.3" r="1.400421529394928"/><circle cx="-6.843653690400278" cy="-5.845032434971653" fill="#000" fill-opacity="0.3" r="1.400421529394928"/><circle cx="-5.47885286107849" cy="-7.140180062621113" fill="#000" fill-opacity="0.3" r="1.400421529394928"/><circle cx="-3.8745998712746657" cy="-8.12326755914874" fill="#000" fill-opacity="0.3" r="1.400421529394928"/><circle cx="-2.101008274703164" cy="-8.751329283579086" fill="#000" fill-opacity="0.3" r="1.400421529394928"/><circle cx="-0.23559253477087955" cy="-8.996915924780016" fill="#000" fill-opacity="0.3" r="1.400421529394928"/><circle cx="1.6401197294293168" cy="-8.849294168075593" fill="#000" fill-opacity="0.3" r="1.400421529394928"/><circle cx="3.444150891285793" cy="-8.314915792601587" fill="#000" fill-opacity="0.3" r="1.400421529394928"/><circle cx="5.097656132323477" cy="-7.4171356975981535" fill="#000" fill-opacity="0.3" r="1.400421529394928"/><circle cx="6.528369339110582" cy="-6.195191181243793" fill="#000" fill-opacity="0.3" r="1.400421529394928"/><circle cx="7.67376147918683" cy="-4.7024870824435405" fill="#000" fill-opacity="0.3" r="1.400421529394928"/><circle cx="8.483773419829603" cy="-3.0042617331039434" fill="#000" fill-opacity="0.3" r="1.400421529394928"/><circle cx="8.923003752364293" cy="-1.1747357299804753" fill="#000" fill-opacity="0.3" r="1.400421529394928"/><circle cx="8.972256003598151" cy="0.7061318615506041" fill="#000" fill-opacity="0.3" r="1.400421529394928"/><circle cx="8.629377613813734" cy="2.5561381023353134" fill="#000" fill-opacity="0.3" r="1.400421529394928"/><circle cx="7.909354013957686" cy="4.2944288423364805" fill="#000" fill-opacity="0.3" r="1.400421529394928"/><circle cx="6.843653690400279" cy="5.845032434971652" fill="#000" fill-opacity="0.3" r="1.400421529394928"/><circle cx="-15.75692404819533" cy="-2.7783708426708764" fill="#000" fill-opacity="0.3" r="2.489638274479872"/><circle cx="-14.834941673068606" cy="-5.993705494654575" fill="#000" fill-opacity="0.3" r="2.489638274479872"/><circle cx="-13.264601160880668" cy="-8.947086455531949" fill="#000" fill-opacity="0.3" r="2.489638274479872"/><circle cx="-11.114533927343963" cy="-11.509436805418412" fill="#000" fill-opacity="0.3" r="2.489638274479872"/><circle cx="-8.478708227731296" cy="-13.568769538502806" fill="#000" fill-opacity="0.3" r="2.489638274479872"/><circle cx="-5.4723222932107" cy="-15.035081932574535" fill="#000" fill-opacity="0.3" r="2.489638274479872"/><circle cx="-2.2267696153610568" cy="-15.844289099865124" fill="#000" fill-opacity="0.3" r="2.489638274479872"/><circle cx="1.1161035799059853" cy="-15.961024804157189" fill="#000" fill-opacity="0.3" r="2.489638274479872"/><circle cx="4.410197693071987" cy="-15.380187135013102" fill="#000" fill-opacity="0.3" r="2.489638274479872"/><circle cx="7.511545004574243" cy="-14.127161485742835" fill="#000" fill-opacity="0.3" r="2.489638274479872"/><circle cx="10.284601754984635" cy="-12.256711089903643" fill="#000" fill-opacity="0.3" r="2.489638274479872"/><circle cx="12.608172057707552" cy="-9.850583605210533" fill="#000" fill-opacity="0.3" r="2.489638274479872"/><circle cx="14.380704740786667" cy="-7.013938348625248" fill="#000" fill-opacity="0.3" r="2.489638274479872"/><circle cx="15.524731620415938" cy="-3.870750329594703" fill="#000" fill-opacity="0.3" r="2.489638274479872"/><circle cx="15.99025323230553" cy="-0.5583919472400455" fill="#000" fill-opacity="0.3" r="2.489638274479872"/><circle cx="15.75692404819533" cy="2.7783708426708746" fill="#000" fill-opacity="0.3" r="2.489638274479872"/><circle cx="14.834941673068606" cy="5.993705494654574" fill="#000" fill-opacity="0.3" r="2.489638274479872"/><circle cx="13.264601160880684" cy="8.947086455531924" fill="#000" fill-opacity="0.3" r="2.489638274479872"/><circle cx="11.114533927343965" cy="11.50943680541841" fill="#000" fill-opacity="0.3" r="2.489638274479872"/><circle cx="8.478708227731298" cy="13.568769538502805" fill="#000" fill-opacity="0.3" r="2.489638274479872"/><circle cx="5.472322293210729" cy="15.035081932574524" fill="#000" fill-opacity="0.3" r="2.489638274479872"/><circle cx="2.226769615361059" cy="15.844289099865124" fill="#000" fill-opacity="0.3" r="2.489638274479872"/><circle cx="-1.1161035799059833" cy="15.961024804157189" fill="#000" fill-opacity="0.3" r="2.489638274479872"/><circle cx="-4.410197693071957" cy="15.380187135013111" fill="#000" fill-opacity="0.3" r="2.489638274479872"/><circle cx="-7.511545004574241" cy="14.127161485742837" fill="#000" fill-opacity="0.3" r="2.489638274479872"/><circle cx="-10.284601754984635" cy="12.256711089903645" fill="#000" fill-opacity="0.3" r="2.489638274479872"/><circle cx="-12.608172057707549" cy="9.850583605210534" fill="#000" fill-opacity="0.3" r="2.489638274479872"/><circle cx="-14.380704740786665" cy="7.01393834862525" fill="#000" fill-opacity="0.3" r="2.489638274479872"/><circle cx="-15.524731620415945" cy="3.8707503295946775" fill="#000" fill-opacity="0.3" r="2.489638274479872"/><circle cx="-15.990253232305532" cy="0.5583919472399906" fill="#000" fill-opacity="0.3" r="2.489638274479872"/><circle cx="21.08478614532213" cy="-13.432490208670611" fill="#000" fill-opacity="0.3" r="3.8900598038748"/><circle cx="23.41680473120993" cy="-8.755184531486718" fill="#000" fill-opacity="0.3" r="3.8900598038748"/><circle cx="24.72539658404792" cy="-3.6952352782402693" fill="#000" fill-opacity="0.3" r="3.8900598038748"/><circle cx="24.953369960546677" cy="1.5262134883714034" fill="#000" fill-opacity="0.3" r="3.8900598038748"/><circle cx="24.090761330215585" cy="6.68095940195639" fill="#000" fill-opacity="0.3" r="3.8900598038748"/><circle cx="22.175270829455545" cy="11.543715330875845" fill="#000" fill-opacity="0.3" r="3.8900598038748"/><circle cx="19.29061458469301" cy="15.901955506944084" fill="#000" fill-opacity="0.3" r="3.8900598038748"/><circle cx="15.562865915940517" cy="19.565203921310324" fill="#000" fill-opacity="0.3" r="3.8900598038748"/><circle cx="11.154945327745224" cy="22.373359040050627" fill="#000" fill-opacity="0.3" r="3.8900598038748"/><circle cx="6.259500101361054" cy="24.203691009452687" fill="#000" fill-opacity="0.3" r="3.8900598038748"/><circle cx="1.0904846841334348" cy="24.97620553954644" fill="#000" fill-opacity="0.3" r="3.8900598038748"/><circle cx="-4.126190146516936" cy="24.657140038430786" fill="#000" fill-opacity="0.3" r="3.8900598038748"/><circle cx="-9.162530668107413" cy="23.26043919955062" fill="#000" fill-opacity="0.3" r="3.8900598038748"/><circle cx="-13.798424632801426" cy="20.847145551679226" fill="#000" fill-opacity="0.3" r="3.8900598038748"/><circle cx="-17.831261228854533" cy="17.52273160749628" fill="#000" fill-opacity="0.3" r="3.8900598038748"/><circle cx="-21.08478614532213" cy="13.432490208670615" fill="#000" fill-opacity="0.3" r="3.8900598038748"/><circle cx="-23.41680473120993" cy="8.755184531486721" fill="#000" fill-opacity="0.3" r="3.8900598038748"/><circle cx="-24.725396584047914" cy="3.6952352782403155" fill="#000" fill-opacity="0.3" r="3.8900598038748"/><circle cx="-24.953369960546677" cy="-1.5262134883713558" fill="#000" fill-opacity="0.3" r="3.8900598038748"/><circle cx="-24.090761330215585" cy="-6.680959401956386" fill="#000" fill-opacity="0.3" r="3.8900598038748"/><circle cx="-22.175270829455545" cy="-11.543715330875843" fill="#000" fill-opacity="0.3" r="3.8900598038748"/><circle cx="-19.290614584693042" cy="-15.901955506944049" fill="#000" fill-opacity="0.3" r="3.8900598038748"/><circle cx="-15.562865915940518" cy="-19.565203921310324" fill="#000" fill-opacity="0.3" r="3.8900598038748"/><circle cx="-11.154945327745228" cy="-22.373359040050623" fill="#000" fill-opacity="0.3" r="3.8900598038748"/><circle cx="-6.2595001013611" cy="-24.203691009452676" fill="#000" fill-opacity="0.3" r="3.8900598038748"/><circle cx="-1.0904846841334377" cy="-24.97620553954644" fill="#000" fill-opacity="0.3" r="3.8900598038748"/><circle cx="4.126190146516933" cy="-24.657140038430786" fill="#000" fill-opacity="0.3" r="3.8900598038748"/><circle cx="9.162530668107452" cy="-23.260439199550607" fill="#000" fill-opacity="0.3" r="3.8900598038748"/><circle cx="13.798424632801495" cy="-20.847145551679176" fill="#000" fill-opacity="0.3" r="3.8900598038748"/><circle cx="17.831261228854533" cy="-17.52273160749628" fill="#000" fill-opacity="0.3" r="3.8900598038748"/><circle cx="-9.317485623690716" cy="34.77332974640647" fill="#000" fill-opacity="0.3" r="5.601686117579712"/><circle cx="-16.343657990623637" cy="32.07623487078127" fill="#000" fill-opacity="0.3" r="5.601686117579712"/><circle cx="-22.655534077794144" cy="27.97725461245096" fill="#000" fill-opacity="0.3" r="5.601686117579712"/><circle cx="-27.97725461245093" cy="22.655534077794172" fill="#000" fill-opacity="0.3" r="5.601686117579712"/><circle cx="-32.076234870781214" cy="16.343657990623733" fill="#000" fill-opacity="0.3" r="5.601686117579712"/><circle cx="-34.77332974640645" cy="9.317485623690759" fill="#000" fill-opacity="0.3" r="5.601686117579712"/><circle cx="-35.950663251164656" cy="1.8840944247460105" fill="#000" fill-opacity="0.3" r="5.601686117579712"/><circle cx="-35.55678026142497" cy="-5.631640741448257" fill="#000" fill-opacity="0.3" r="5.601686117579712"/><circle cx="-33.60889535389929" cy="-12.90124618363074" fill="#000" fill-opacity="0.3" r="5.601686117579712"/><circle cx="-30.192140446035282" cy="-19.607005260540948" fill="#000" fill-opacity="0.3" r="5.601686117579712"/><circle cx="-25.455844122715703" cy="-25.455844122715718" fill="#000" fill-opacity="0.3" r="5.601686117579712"/><circle cx="-19.60700526054104" cy="-30.192140446035225" fill="#000" fill-opacity="0.3" r="5.601686117579712"/><circle cx="-12.901246183630843" cy="-33.60889535389925" fill="#000" fill-opacity="0.3" r="5.601686117579712"/><circle cx="-5.631640741448304" cy="-35.55678026142496" fill="#000" fill-opacity="0.3" r="5.601686117579712"/><circle cx="1.8840944247459004" cy="-35.95066325116466" fill="#000" fill-opacity="0.3" r="5.601686117579712"/><circle cx="9.317485623690713" cy="-34.77332974640647" fill="#000" fill-opacity="0.3" r="5.601686117579712"/><circle cx="16.34365799062369" cy="-32.07623487078124" fill="#000" fill-opacity="0.3" r="5.601686117579712"/><circle cx="22.655534077794087" cy="-27.977254612451" fill="#000" fill-opacity="0.3" r="5.601686117579712"/><circle cx="27.977254612450928" cy="-22.65553407779418" fill="#000" fill-opacity="0.3" r="5.601686117579712"/><circle cx="32.076234870781185" cy="-16.343657990623793" fill="#000" fill-opacity="0.3" r="5.601686117579712"/><circle cx="34.77332974640644" cy="-9.317485623690825" fill="#000" fill-opacity="0.3" r="5.601686117579712"/><circle cx="35.950663251164656" cy="-1.884094424746015" fill="#000" fill-opacity="0.3" r="5.601686117579712"/><circle cx="35.556780261424954" cy="5.631640741448316" fill="#000" fill-opacity="0.3" r="5.601686117579712"/><circle cx="33.60889535389929" cy="12.901246183630736" fill="#000" fill-opacity="0.3" r="5.601686117579712"/><circle cx="30.192140446035285" cy="19.607005260540944" fill="#000" fill-opacity="0.3" r="5.601686117579712"/><circle cx="25.45584412271571" cy="25.455844122715718" fill="#000" fill-opacity="0.3" r="5.601686117579712"/><circle cx="19.607005260541044" cy="30.192140446035218" fill="#000" fill-opacity="0.3" r="5.601686117579712"/><circle cx="12.901246183630846" cy="33.60889535389925" fill="#000" fill-opacity="0.3" r="5.601686117579712"/><circle cx="5.631640741448308" cy="35.55678026142496" fill="#000" fill-opacity="0.3" r="5.601686117579712"/><circle cx="-1.8840944247460238" cy="35.950663251164656" fill="#000" fill-opacity="0.3" r="5.601686117579712"/><circle cx="-22.62568204851663" cy="-43.46353082573288" fill="#000" fill-opacity="0.3" r="7.624517215594608"/><circle cx="-13.094680427834495" cy="-47.217892207222555" fill="#000" fill-opacity="0.3" r="7.624517215594608"/><circle cx="-2.9913784372080077" cy="-48.90860512267148" fill="#000" fill-opacity="0.3" r="7.624517215594608"/><circle cx="7.242661145350956" cy="-48.46177730473392" fill="#000" fill-opacity="0.3" r="7.624517215594608"/><circle cx="17.160161681713994" cy="-45.896937273171446" fill="#000" fill-opacity="0.3" r="7.624517215594608"/><circle cx="26.327680808994348" cy="-41.32618084483141" fill="#000" fill-opacity="0.3" r="7.624517215594608"/><circle cx="34.34455395069272" cy="-34.94927200855488" fill="#000" fill-opacity="0.3" r="7.624517215594608"/><circle cx="40.86040528129129" cy="-27.044912280290774" fill="#000" fill-opacity="0.3" r="7.624517215594608"/><circle cx="45.590460831119195" cy="-17.95856010949059" fill="#000" fill-opacity="0.3" r="7.624517215594608"/><circle cx="48.327994475324346" cy="-8.087332687173172" fill="#000" fill-opacity="0.3" r="7.624517215594608"/><circle cx="48.953362857511024" cy="2.137349980901556" fill="#000" fill-opacity="0.3" r="7.624517215594608"/><circle cx="47.43923437852728" cy="12.268620198667605" fill="#000" fill-opacity="0.3" r="7.624517215594608"/><circle cx="43.85178371849921" cy="21.863692842380658" fill="#000" fill-opacity="0.3" r="7.624517215594608"/><circle cx="38.34779968576823" cy="30.503217195243426" fill="#000" fill-opacity="0.3" r="7.624517215594608"/><circle cx="31.167832793610454" cy="37.80960458599826" fill="#000" fill-opacity="0.3" r="7.624517215594608"/><circle cx="22.625682048516634" cy="43.46353082573288" fill="#000" fill-opacity="0.3" r="7.624517215594608"/><circle cx="13.094680427834668" cy="47.217892207222505" fill="#000" fill-opacity="0.3" r="7.624517215594608"/><circle cx="2.9913784372080134" cy="48.90860512267148" fill="#000" fill-opacity="0.3" r="7.624517215594608"/><circle cx="-7.242661145350951" cy="48.46177730473392" fill="#000" fill-opacity="0.3" r="7.624517215594608"/><circle cx="-17.160161681713824" cy="45.89693727317152" fill="#000" fill-opacity="0.3" r="7.624517215594608"/><circle cx="-26.327680808994344" cy="41.32618084483142" fill="#000" fill-opacity="0.3" r="7.624517215594608"/><circle cx="-34.34455395069271" cy="34.94927200855488" fill="#000" fill-opacity="0.3" r="7.624517215594608"/><circle cx="-40.86040528129119" cy="27.044912280290927" fill="#000" fill-opacity="0.3" r="7.624517215594608"/><circle cx="-45.590460831119195" cy="17.958560109490595" fill="#000" fill-opacity="0.3" r="7.624517215594608"/><circle cx="-48.327994475324346" cy="8.087332687173177" fill="#000" fill-opacity="0.3" r="7.624517215594608"/><circle cx="-48.953362857511024" cy="-2.13734998090155" fill="#000" fill-opacity="0.3" r="7.624517215594608"/><circle cx="-47.439234378527246" cy="-12.268620198667769" fill="#000" fill-opacity="0.3" r="7.624517215594608"/><circle cx="-43.85178371849921" cy="-21.863692842380654" fill="#000" fill-opacity="0.3" r="7.624517215594608"/><circle cx="-38.34779968576823" cy="-30.503217195243423" fill="#000" fill-opacity="0.3" r="7.624517215594608"/><circle cx="-31.167832793610323" cy="-37.809604585998365" fill="#000" fill-opacity="0.3" r="7.624517215594608"/><circle cx="60.14032773029816" cy="21.88928917284273" fill="#000" fill-opacity="0.3" r="9.958553097919488"/><circle cx="54.27507815401126" cy="33.91483291092512" fill="#000" fill-opacity="0.3" r="9.958553097919488"/><circle cx="46.037747221673776" cy="44.45813570937572" fill="#000" fill-opacity="0.3" r="9.958553097919488"/><circle cx="35.78834582212786" cy="53.05840464352263" fill="#000" fill-opacity="0.3" r="9.958553097919488"/><circle cx="23.97482197861837" cy="59.339766692274395" fill="#000" fill-opacity="0.3" r="9.958553097919488"/><circle cx="11.113483370683692" cy="63.02769619278129" fill="#000" fill-opacity="0.3" r="9.958553097919488"/><circle cx="-2.233567788959986" cy="63.96101292922213" fill="#000" fill-opacity="0.3" r="9.958553097919488"/><circle cx="-15.483001318378733" cy="62.098926481663774" fill="#000" fill-opacity="0.3" r="9.958553097919488"/><circle cx="-28.05575339450082" cy="57.522818963146754" fill="#000" fill-opacity="0.3" r="9.958553097919488"/><circle cx="-39.40233442084207" cy="50.43268823083025" fill="#000" fill-opacity="0.3" r="9.958553097919488"/><circle cx="-49.02684435961459" cy="41.13840701993852" fill="#000" fill-opacity="0.3" r="9.958553097919488"/><circle cx="-56.508645942971256" cy="30.046180018297147" fill="#000" fill-opacity="0.3" r="9.958553097919488"/><circle cx="-61.52074854005239" cy="17.640790772288025" fill="#000" fill-opacity="0.3" r="9.958553097919488"/><circle cx="-63.84409921662875" cy="4.464414319624024" fill="#000" fill-opacity="0.3" r="9.958553097919488"/><circle cx="-63.377156399460524" cy="-8.907078461444033" fill="#000" fill-opacity="0.3" r="9.958553097919488"/><circle cx="-60.14032773029816" cy="-21.889289172842723" fill="#000" fill-opacity="0.3" r="9.958553097919488"/><circle cx="-54.27507815401138" cy="-33.91483291092492" fill="#000" fill-opacity="0.3" r="9.958553097919488"/><circle cx="-46.03774722167378" cy="-44.45813570937571" fill="#000" fill-opacity="0.3" r="9.958553097919488"/><circle cx="-35.788345822127866" cy="-53.05840464352262" fill="#000" fill-opacity="0.3" r="9.958553097919488"/><circle cx="-23.97482197861859" cy="-59.3397666922743" fill="#000" fill-opacity="0.3" r="9.958553097919488"/><circle cx="-11.1134833706837" cy="-63.027696192781285" fill="#000" fill-opacity="0.3" r="9.958553097919488"/><circle cx="2.233567788959978" cy="-63.96101292922213" fill="#000" fill-opacity="0.3" r="9.958553097919488"/><circle cx="15.483001318378506" cy="-62.09892648166383" fill="#000" fill-opacity="0.3" r="9.958553097919488"/><circle cx="28.05575339450081" cy="-57.52281896314676" fill="#000" fill-opacity="0.3" r="9.958553097919488"/><circle cx="39.40233442084206" cy="-50.43268823083026" fill="#000" fill-opacity="0.3" r="9.958553097919488"/><circle cx="49.026844359614586" cy="-41.138407019938526" fill="#000" fill-opacity="0.3" r="9.958553097919488"/><circle cx="56.508645942971356" cy="-30.04618001829695" fill="#000" fill-opacity="0.3" r="9.958553097919488"/><circle cx="61.52074854005238" cy="-17.64079077228803" fill="#000" fill-opacity="0.3" r="9.958553097919488"/><circle cx="63.84409921662875" cy="-4.464414319624031" fill="#000" fill-opacity="0.3" r="9.958553097919488"/><circle cx="63.37715639946049" cy="8.907078461444252" fill="#000" fill-opacity="0.3" r="9.958553097919488"/><circle cx="-74.83424213341414" cy="30.997358021572502" fill="#000" fill-opacity="0.3" r="12.603793764554352"/><circle cx="-79.6436475126803" cy="14.761077564864094" fill="#000" fill-opacity="0.3" r="12.603793764554352"/><circle cx="-80.97224332302015" cy="-2.1203328129373804" fill="#000" fill-opacity="0.3" r="12.603793764554352"/><circle cx="-78.76196355221187" cy="-18.909074472328097" fill="#000" fill-opacity="0.3" r="12.603793764554352"/><circle cx="-73.10940803233878" cy="-34.871398841471766" fill="#000" fill-opacity="0.3" r="12.603793764554352"/><circle cx="-64.26162056359027" cy="-49.309675749706095" fill="#000" fill-opacity="0.3" r="12.603793764554352"/><circle cx="-52.60529191474507" cy="-61.59288321360234" fill="#000" fill-opacity="0.3" r="12.603793764554352"/><circle cx="-38.64985958102842" cy="-71.18418612561912" fill="#000" fill-opacity="0.3" r="12.603793764554352"/><circle cx="-23.005242921018066" cy="-77.66439852432354" fill="#000" fill-opacity="0.3" r="12.603793764554352"/><circle cx="-6.355186753955693" cy="-80.75030403238334" fill="#000" fill-opacity="0.3" r="12.603793764554352"/><circle cx="10.572621569824022" cy="-80.30703377127867" fill="#000" fill-opacity="0.3" r="12.603793764554352"/><circle cx="27.038355597935116" cy="-76.35396077846657" fill="#000" fill-opacity="0.3" r="12.603793764554352"/><circle cx="42.322383741991636" cy="-69.0638533126816" fill="#000" fill-opacity="0.3" r="12.603793764554352"/><circle cx="55.75672063119396" cy="-58.755324051995416" fill="#000" fill-opacity="0.3" r="12.603793764554352"/><circle cx="66.75422127838307" cy="-45.878905190911745" fill="#000" fill-opacity="0.3" r="12.603793764554352"/><circle cx="74.83424213341412" cy="-30.99735802157251" fill="#000" fill-opacity="0.3" r="12.603793764554352"/><circle cx="79.64364751268025" cy="-14.761077564864388" fill="#000" fill-opacity="0.3" r="12.603793764554352"/><circle cx="80.97224332302015" cy="2.12033281293737" fill="#000" fill-opacity="0.3" r="12.603793764554352"/><circle cx="78.76196355221187" cy="18.909074472328086" fill="#000" fill-opacity="0.3" r="12.603793764554352"/><circle cx="73.1094080323389" cy="34.871398841471496" fill="#000" fill-opacity="0.3" r="12.603793764554352"/><circle cx="64.26162056359027" cy="49.30967574970609" fill="#000" fill-opacity="0.3" r="12.603793764554352"/><circle cx="52.605291914745074" cy="61.592883213602335" fill="#000" fill-opacity="0.3" r="12.603793764554352"/><circle cx="38.64985958102868" cy="71.18418612561898" fill="#000" fill-opacity="0.3" r="12.603793764554352"/><circle cx="23.005242921018077" cy="77.66439852432354" fill="#000" fill-opacity="0.3" r="12.603793764554352"/><circle cx="6.355186753955704" cy="80.75030403238334" fill="#000" fill-opacity="0.3" r="12.603793764554352"/><circle cx="-10.572621569824012" cy="80.30703377127867" fill="#000" fill-opacity="0.3" r="12.603793764554352"/><circle cx="-27.038355597935375" cy="76.35396077846647" fill="#000" fill-opacity="0.3" r="12.603793764554352"/><circle cx="-42.32238374199163" cy="69.06385331268162" fill="#000" fill-opacity="0.3" r="12.603793764554352"/><circle cx="-55.75672063119395" cy="58.755324051995416" fill="#000" fill-opacity="0.3" r="12.603793764554352"/><circle cx="-66.75422127838323" cy="45.878905190911524" fill="#000" fill-opacity="0.3" r="12.603793764554352"/><circle cx="42.26182617406982" cy="-90.63077870366506" fill="#000" fill-opacity="0.3" r="15.5602392154992"/><circle cx="60.1815023152048" cy="-79.86355100472929" fill="#000" fill-opacity="0.3" r="15.5602392154992"/><circle cx="75.47095802227703" cy="-65.60590289905093" fill="#000" fill-opacity="0.3" r="15.5602392154992"/><circle cx="87.46197071393951" cy="-48.480962024633826" fill="#000" fill-opacity="0.3" r="15.5602392154992"/><circle cx="95.63047559630354" cy="-29.2371704722737" fill="#000" fill-opacity="0.3" r="15.5602392154992"/><circle cx="99.61946980917453" cy="-8.715574274766082" fill="#000" fill-opacity="0.3" r="15.5602392154992"/><circle cx="99.25461516413222" cy="12.186934340514602" fill="#000" fill-opacity="0.3" r="15.5602392154992"/><circle cx="94.55185755993169" cy="32.556815445715635" fill="#000" fill-opacity="0.3" r="15.5602392154992"/><circle cx="85.71673007021137" cy="51.50380749100519" fill="#000" fill-opacity="0.3" r="15.5602392154992"/><circle cx="73.13537016191715" cy="68.19983600624974" fill="#000" fill-opacity="0.3" r="15.5602392154992"/><circle cx="57.35764363510464" cy="81.91520442889916" fill="#000" fill-opacity="0.3" r="15.5602392154992"/><circle cx="39.07311284892763" cy="92.05048534524393" fill="#000" fill-opacity="0.3" r="15.5602392154992"/><circle cx="19.08089953765463" cy="98.16271834476636" fill="#000" fill-opacity="0.3" r="15.5602392154992"/><circle cx="-1.745240643728316" cy="99.98476951563913" fill="#000" fill-opacity="0.3" r="15.5602392154992"/><circle cx="-22.495105434386232" cy="97.43700647852359" fill="#000" fill-opacity="0.3" r="15.5602392154992"/><circle cx="-42.2618261740698" cy="90.63077870366506" fill="#000" fill-opacity="0.3" r="15.5602392154992"/><circle cx="-60.181502315204796" cy="79.8635510047293" fill="#000" fill-opacity="0.3" r="15.5602392154992"/><circle cx="-75.47095802227702" cy="65.60590289905093" fill="#000" fill-opacity="0.3" r="15.5602392154992"/><circle cx="-87.46197071393951" cy="48.48096202463384" fill="#000" fill-opacity="0.3" r="15.5602392154992"/><circle cx="-95.63047559630343" cy="29.237170472274048" fill="#000" fill-opacity="0.3" r="15.5602392154992"/><circle cx="-99.61946980917453" cy="8.715574274766094" fill="#000" fill-opacity="0.3" r="15.5602392154992"/><circle cx="-99.25461516413222" cy="-12.18693434051459" fill="#000" fill-opacity="0.3" r="15.5602392154992"/><circle cx="-94.55185755993169" cy="-32.55681544571563" fill="#000" fill-opacity="0.3" r="15.5602392154992"/><circle cx="-85.71673007021138" cy="-51.50380749100518" fill="#000" fill-opacity="0.3" r="15.5602392154992"/><circle cx="-73.13537016191715" cy="-68.19983600624973" fill="#000" fill-opacity="0.3" r="15.5602392154992"/><circle cx="-57.35764363510465" cy="-81.91520442889914" fill="#000" fill-opacity="0.3" r="15.5602392154992"/><circle cx="-39.073112848927636" cy="-92.05048534524393" fill="#000" fill-opacity="0.3" r="15.5602392154992"/><circle cx="-19.080899537654645" cy="-98.16271834476636" fill="#000" fill-opacity="0.3" r="15.5602392154992"/><circle cx="1.745240643728304" cy="-99.98476951563913" fill="#000" fill-opacity="0.3" r="15.5602392154992"/><circle cx="22.495105434386566" cy="-97.4370064785235" fill="#000" fill-opacity="0.3" r="15.5602392154992"/><circle cx="36.38540174001703" cy="115.39975104053546" fill="#000" fill-opacity="0.3" r="18.827889450754032"/><circle cx="11.597336054946938" cy="120.44294000242866" fill="#000" fill-opacity="0.3" r="18.827889450754032"/><circle cx="-13.697588865916593" cy="120.2221945368671" fill="#000" fill-opacity="0.3" r="18.827889450754032"/><circle cx="-38.39386342501617" cy="114.74716227995012" fill="#000" fill-opacity="0.3" r="18.827889450754032"/><circle cx="-61.41214191824534" cy="104.25712841342452" fill="#000" fill-opacity="0.3" r="18.827889450754032"/><circle cx="-81.74641512149479" cy="89.21055775402509" fill="#000" fill-opacity="0.3" r="18.827889450754032"/><circle cx="-98.50797772111464" cy="70.2650576410237" fill="#000" fill-opacity="0.3" r="18.827889450754032"/><circle cx="-110.96426900060008" cy="48.24863733995464" fill="#000" fill-opacity="0.3" r="18.827889450754032"/><circle cx="-118.57088925912035" cy="24.123520064480985" fill="#000" fill-opacity="0.3" r="18.827889450754032"/><circle cx="-120.99539269076473" cy="-1.055910795303262" fill="#000" fill-opacity="0.3" r="18.827889450754032"/><circle cx="-118.1318168615119" cy="-26.1891932865106" fill="#000" fill-opacity="0.3" r="18.827889450754032"/><circle cx="-110.10531377606178" cy="-50.177882361404805" fill="#000" fill-opacity="0.3" r="18.827889450754032"/><circle cx="-97.2666801346833" cy="-71.97355719691231" fill="#000" fill-opacity="0.3" r="18.827889450754032"/><circle cx="-80.17702583410411" cy="-90.62364221546936" fill="#000" fill-opacity="0.3" r="18.827889450754032"/><circle cx="-59.58325077251964" cy="-105.31303920872782" fill="#000" fill-opacity="0.3" r="18.827889450754032"/><circle cx="-36.38540174001704" cy="-115.39975104053546" fill="#000" fill-opacity="0.3" r="18.827889450754032"/><circle cx="-11.597336054947379" cy="-120.44294000242861" fill="#000" fill-opacity="0.3" r="18.827889450754032"/><circle cx="13.697588865916579" cy="-120.22219453686711" fill="#000" fill-opacity="0.3" r="18.827889450754032"/><circle cx="38.39386342501616" cy="-114.74716227995012" fill="#000" fill-opacity="0.3" r="18.827889450754032"/><circle cx="61.41214191824497" cy="-104.25712841342475" fill="#000" fill-opacity="0.3" r="18.827889450754032"/><circle cx="81.74641512149478" cy="-89.2105577540251" fill="#000" fill-opacity="0.3" r="18.827889450754032"/><circle cx="98.50797772111463" cy="-70.26505764102372" fill="#000" fill-opacity="0.3" r="18.827889450754032"/><circle cx="110.9642690005999" cy="-48.24863733995505" fill="#000" fill-opacity="0.3" r="18.827889450754032"/><circle cx="118.57088925912035" cy="-24.123520064481" fill="#000" fill-opacity="0.3" r="18.827889450754032"/><circle cx="120.99539269076473" cy="1.0559107953032472" fill="#000" fill-opacity="0.3" r="18.827889450754032"/><circle cx="118.13181686151191" cy="26.18919328651059" fill="#000" fill-opacity="0.3" r="18.827889450754032"/><circle cx="110.1053137760616" cy="50.17788236140518" fill="#000" fill-opacity="0.3" r="18.827889450754032"/><circle cx="97.26668013468304" cy="71.97355719691264" fill="#000" fill-opacity="0.3" r="18.827889450754032"/><circle cx="80.17702583410446" cy="90.62364221546906" fill="#000" fill-opacity="0.3" r="18.827889450754032"/><circle cx="59.58325077251965" cy="105.31303920872779" fill="#000" fill-opacity="0.3" r="18.827889450754032"/><circle cx="-124.70765814495928" cy="-71.99999999999979" fill="#000" fill-opacity="0.3" r="22.40674447031885"/><circle cx="-107.01285486874482" cy="-96.35480731567552" fill="#000" fill-opacity="0.3" r="22.40674447031885"/><circle cx="-84.64107633011646" cy="-116.49844718999218" fill="#000" fill-opacity="0.3" r="22.40674447031885"/><circle cx="-58.570076602915464" cy="-131.55054590053442" fill="#000" fill-opacity="0.3" r="22.40674447031885"/><circle cx="-29.939283477757424" cy="-140.853254505668" fill="#000" fill-opacity="0.3" r="22.40674447031885"/><circle cx="-4.2332706699699395e-13" cy="-144" fill="#000" fill-opacity="0.3" r="22.40674447031885"/><circle cx="29.939283477757098" cy="-140.85325450566808" fill="#000" fill-opacity="0.3" r="22.40674447031885"/><circle cx="58.57007660291515" cy="-131.55054590053456" fill="#000" fill-opacity="0.3" r="22.40674447031885"/><circle cx="84.64107633011578" cy="-116.49844718999267" fill="#000" fill-opacity="0.3" r="22.40674447031885"/><circle cx="107.0128548687446" cy="-96.35480731567577" fill="#000" fill-opacity="0.3" r="22.40674447031885"/><circle cx="124.70765814495913" cy="-72.00000000000009" fill="#000" fill-opacity="0.3" r="22.40674447031885"/><circle cx="136.95213834650198" cy="-44.49844718999284" fill="#000" fill-opacity="0.3" r="22.40674447031885"/><circle cx="143.21115293303134" cy="-15.05209871054236" fill="#000" fill-opacity="0.3" r="22.40674447031885"/><circle cx="143.21115293303137" cy="15.052098710542008" fill="#000" fill-opacity="0.3" r="22.40674447031885"/><circle cx="136.95213834650224" cy="44.49844718999202" fill="#000" fill-opacity="0.3" r="22.40674447031885"/><circle cx="124.7076581449593" cy="71.99999999999977" fill="#000" fill-opacity="0.3" r="22.40674447031885"/><circle cx="107.01285486874517" cy="96.35480731567515" fill="#000" fill-opacity="0.3" r="22.40674447031885"/><circle cx="84.64107633011648" cy="116.49844718999218" fill="#000" fill-opacity="0.3" r="22.40674447031885"/><circle cx="58.57007660291548" cy="131.55054590053442" fill="#000" fill-opacity="0.3" r="22.40674447031885"/><circle cx="29.939283477757442" cy="140.853254505668" fill="#000" fill-opacity="0.3" r="22.40674447031885"/><circle cx="-7.062878884255627e-14" cy="144" fill="#000" fill-opacity="0.3" r="22.40674447031885"/><circle cx="-29.93928347775658" cy="140.8532545056682" fill="#000" fill-opacity="0.3" r="22.40674447031885"/><circle cx="-58.57007660291467" cy="131.5505459005348" fill="#000" fill-opacity="0.3" r="22.40674447031885"/><circle cx="-84.64107633011577" cy="116.49844718999269" fill="#000" fill-opacity="0.3" r="22.40674447031885"/><circle cx="-107.01285486874458" cy="96.3548073156758" fill="#000" fill-opacity="0.3" r="22.40674447031885"/><circle cx="-124.70765814495911" cy="72.0000000000001" fill="#000" fill-opacity="0.3" r="22.40674447031885"/><circle cx="-136.95213834650215" cy="44.49844718999237" fill="#000" fill-opacity="0.3" r="22.40674447031885"/><circle cx="-143.21115293303137" cy="15.052098710541868" fill="#000" fill-opacity="0.3" r="22.40674447031885"/><circle cx="-143.21115293303143" cy="-15.052098710541483" fill="#000" fill-opacity="0.3" r="22.40674447031885"/><circle cx="-136.95213834650224" cy="-44.498447189992" fill="#000" fill-opacity="0.3" r="22.40674447031885"/><circle cx="164.99402520326862" cy="-36.578294755539986" fill="#000" fill-opacity="0.3" r="26.296804274193647"/><circle cx="168.99356499784494" cy="-1.4747844992256103" fill="#000" fill-opacity="0.3" r="26.296804274193647"/><circle cx="165.60727508092037" cy="33.693180916505526" fill="#000" fill-opacity="0.3" r="26.296804274193647"/><circle cx="154.9831525710862" cy="67.38859264836604" fill="#000" fill-opacity="0.3" r="26.296804274193647"/><circle cx="137.58552260221853" cy="98.138799515148" fill="#000" fill-opacity="0.3" r="26.296804274193647"/><circle cx="114.17474508704719" cy="124.59986992091042" fill="#000" fill-opacity="0.3" r="26.296804274193647"/><circle cx="85.77398334035954" cy="145.6153281146175" fill="#000" fill-opacity="0.3" r="26.296804274193647"/><circle cx="53.624486932460975" cy="160.26669772984755" fill="#000" fill-opacity="0.3" r="26.296804274193647"/><circle cx="19.131343126776457" cy="167.91364360934327" fill="#000" fill-opacity="0.3" r="26.296804274193647"/><circle cx="-16.197932175917828" cy="168.22195752405324" fill="#000" fill-opacity="0.3" r="26.296804274193647"/><circle cx="-50.81928011622118" cy="161.17816467645065" fill="#000" fill-opacity="0.3" r="26.296804274193647"/><circle cx="-83.21958165748522" cy="147.09011261384347" fill="#000" fill-opacity="0.3" r="26.296804274193647"/><circle cx="-111.98278814845916" cy="126.57351681334178" fill="#000" fill-opacity="0.3" r="26.296804274193647"/><circle cx="-135.85180944430948" cy="100.52505096097703" fill="#000" fill-opacity="0.3" r="26.296804274193647"/><circle cx="-153.7834547781357" cy="70.0831580089046" fill="#000" fill-opacity="0.3" r="26.296804274193647"/><circle cx="-164.99402520326848" cy="36.57829475554059" fill="#000" fill-opacity="0.3" r="26.296804274193647"/><circle cx="-168.99356499784494" cy="1.4747844992262316" fill="#000" fill-opacity="0.3" r="26.296804274193647"/><circle cx="-165.60727508092037" cy="-33.693180916505504" fill="#000" fill-opacity="0.3" r="26.296804274193647"/><circle cx="-154.98315257108624" cy="-67.38859264836603" fill="#000" fill-opacity="0.3" r="26.296804274193647"/><circle cx="-137.58552260221822" cy="-98.13879951514846" fill="#000" fill-opacity="0.3" r="26.296804274193647"/><circle cx="-114.17474508704677" cy="-124.5998699209108" fill="#000" fill-opacity="0.3" r="26.296804274193647"/><circle cx="-85.77398334036008" cy="-145.61532811461723" fill="#000" fill-opacity="0.3" r="26.296804274193647"/><circle cx="-53.62448693246156" cy="-160.26669772984735" fill="#000" fill-opacity="0.3" r="26.296804274193647"/><circle cx="-19.131343126777075" cy="-167.91364360934318" fill="#000" fill-opacity="0.3" r="26.296804274193647"/><circle cx="16.19793217591721" cy="-168.2219575240533" fill="#000" fill-opacity="0.3" r="26.296804274193647"/><circle cx="50.81928011622173" cy="-161.17816467645048" fill="#000" fill-opacity="0.3" r="26.296804274193647"/><circle cx="83.21958165748572" cy="-147.09011261384316" fill="#000" fill-opacity="0.3" r="26.296804274193647"/><circle cx="111.9827881484596" cy="-126.57351681334139" fill="#000" fill-opacity="0.3" r="26.296804274193647"/><circle cx="135.8518094443091" cy="-100.52505096097752" fill="#000" fill-opacity="0.3" r="26.296804274193647"/><circle cx="153.78345477813545" cy="-70.08315800890517" fill="#000" fill-opacity="0.3" r="26.296804274193647"/><circle cx="-112.42098152480528" cy="160.5538006806422" fill="#000" fill-opacity="0.3" r="30.49806886237843"/><circle cx="-143.3453255173578" cy="133.6716785722493" fill="#000" fill-opacity="0.3" r="30.49806886237843"/><circle cx="-168.00479093761442" cy="100.94746268236996" fill="#000" fill-opacity="0.3" r="30.49806886237843"/><circle cx="-185.32164081746643" cy="63.81135827360177" fill="#000" fill-opacity="0.3" r="30.49806886237843"/><circle cx="-194.5390457216991" cy="23.88639130740907" fill="#000" fill-opacity="0.3" r="30.49806886237843"/><circle cx="-195.25416082598213" cy="-17.082525578541066" fill="#000" fill-opacity="0.3" r="30.49806886237843"/><circle cx="-187.43573216875487" cy="-57.30485412565668" fill="#000" fill-opacity="0.3" r="30.49806886237843"/><circle cx="-171.42546259932132" cy="-95.02268556828253" fill="#000" fill-opacity="0.3" r="30.49806886237843"/><circle cx="-147.9230777236628" cy="-128.58756968213999" fill="#000" fill-opacity="0.3" r="30.49806886237843"/><circle cx="-117.95574453780068" cy="-156.53255996927" fill="#000" fill-opacity="0.3" r="30.49806886237843"/><circle cx="-82.83317930117725" cy="-177.63632625918333" fill="#000" fill-opacity="0.3" r="30.49806886237843"/><circle cx="-44.09040665139749" cy="-190.9765326979061" fill="#000" fill-opacity="0.3" r="30.49806886237843"/><circle cx="-3.420671661707283" cy="-195.9701482506527" fill="#000" fill-opacity="0.3" r="30.49806886237843"/><circle cx="37.39856309380329" cy="-192.39892795574204" fill="#000" fill-opacity="0.3" r="30.49806886237843"/><circle cx="76.58330118389834" cy="-180.418951276678" fill="#000" fill-opacity="0.3" r="30.49806886237843"/><circle cx="112.4209815248047" cy="-160.55380068064264" fill="#000" fill-opacity="0.3" r="30.49806886237843"/><circle cx="143.34532551735728" cy="-133.67167857224985" fill="#000" fill-opacity="0.3" r="30.49806886237843"/><circle cx="168.00479093761405" cy="-100.9474626823706" fill="#000" fill-opacity="0.3" r="30.49806886237843"/><circle cx="185.32164081746618" cy="-63.811358273602444" fill="#000" fill-opacity="0.3" r="30.49806886237843"/><circle cx="194.53904572169918" cy="-23.886391307408406" fill="#000" fill-opacity="0.3" r="30.49806886237843"/><circle cx="195.25416082598218" cy="17.08252557854035" fill="#000" fill-opacity="0.3" r="30.49806886237843"/><circle cx="187.43573216875507" cy="57.30485412565599" fill="#000" fill-opacity="0.3" r="30.49806886237843"/><circle cx="171.42546259932166" cy="95.02268556828189" fill="#000" fill-opacity="0.3" r="30.49806886237843"/><circle cx="147.92307772366328" cy="128.58756968213945" fill="#000" fill-opacity="0.3" r="30.49806886237843"/><circle cx="117.95574453780124" cy="156.53255996926956" fill="#000" fill-opacity="0.3" r="30.49806886237843"/><circle cx="82.83317930117664" cy="177.63632625918362" fill="#000" fill-opacity="0.3" r="30.49806886237843"/><circle cx="44.09040665139683" cy="190.97653269790626" fill="#000" fill-opacity="0.3" r="30.49806886237843"/><circle cx="3.4206716617066113" cy="195.9701482506527" fill="#000" fill-opacity="0.3" r="30.49806886237843"/><circle cx="-37.39856309380395" cy="192.3989279557419" fill="#000" fill-opacity="0.3" r="30.49806886237843"/><circle cx="-76.58330118389767" cy="180.41895127667829" fill="#000" fill-opacity="0.3" r="30.49806886237843"/><circle cx="-29.36839324951169" cy="-223.07509380910733" fill="#000" fill-opacity="0.3" r="35.0105382348732"/><circle cx="17.653296538765293" cy="-224.3064000899538" fill="#000" fill-opacity="0.3" r="35.0105382348732"/><circle cx="63.90345255838302" cy="-215.7344403453433" fill="#000" fill-opacity="0.3" r="35.0105382348732"/><circle cx="107.36072105841252" cy="-197.73385034894187" fill="#000" fill-opacity="0.3" r="35.0105382348732"/><circle cx="146.12581087429083" cy="-171.09134226000737" fill="#000" fill-opacity="0.3" r="35.0105382348732"/><circle cx="178.5045015655277" cy="-136.9713215269624" fill="#000" fill-opacity="0.3" r="35.0105382348732"/><circle cx="203.0816889787186" cy="-96.8649967818665" fill="#000" fill-opacity="0.3" r="35.0105382348732"/><circle cx="218.78323208947728" cy="-52.525206867578554" fill="#000" fill-opacity="0.3" r="35.0105382348732"/><circle cx="224.92289811950042" cy="-5.889813369271024" fill="#000" fill-opacity="0.3" r="35.0105382348732"/><circle cx="221.23235420188968" cy="41.00299323573387" fill="#000" fill-opacity="0.3" r="35.0105382348732"/><circle cx="207.87289481503976" cy="86.10377228214462" fill="#000" fill-opacity="0.3" r="35.0105382348732"/><circle cx="185.42839243995374" cy="127.44140330808709" fill="#000" fill-opacity="0.3" r="35.0105382348732"/><circle cx="154.87977953109473" cy="163.20923347776466" fill="#000" fill-opacity="0.3" r="35.0105382348732"/><circle cx="117.56217706108835" cy="191.84403697967085" fill="#000" fill-opacity="0.3" r="35.0105382348732"/><circle cx="75.10654332759805" cy="212.09433549574027" fill="#000" fill-opacity="0.3" r="35.0105382348732"/><circle cx="29.36839324951251" cy="223.07509380910722" fill="#000" fill-opacity="0.3" r="35.0105382348732"/><circle cx="-17.65329653876447" cy="224.30640008995385" fill="#000" fill-opacity="0.3" r="35.0105382348732"/><circle cx="-63.90345255838222" cy="215.73444034534353" fill="#000" fill-opacity="0.3" r="35.0105382348732"/><circle cx="-107.3607210584118" cy="197.73385034894227" fill="#000" fill-opacity="0.3" r="35.0105382348732"/><circle cx="-146.12581087429143" cy="171.09134226000685" fill="#000" fill-opacity="0.3" r="35.0105382348732"/><circle cx="-178.50450156552722" cy="136.97132152696307" fill="#000" fill-opacity="0.3" r="35.0105382348732"/><circle cx="-203.08168897871823" cy="96.86499678186725" fill="#000" fill-opacity="0.3" r="35.0105382348732"/><circle cx="-218.78323208947708" cy="52.52520686757936" fill="#000" fill-opacity="0.3" r="35.0105382348732"/><circle cx="-224.9228981195004" cy="5.889813369271851" fill="#000" fill-opacity="0.3" r="35.0105382348732"/><circle cx="-221.23235420188982" cy="-41.00299323573306" fill="#000" fill-opacity="0.3" r="35.0105382348732"/><circle cx="-207.87289481503947" cy="-86.10377228214533" fill="#000" fill-opacity="0.3" r="35.0105382348732"/><circle cx="-185.42839243995329" cy="-127.44140330808771" fill="#000" fill-opacity="0.3" r="35.0105382348732"/><circle cx="-154.87977953109416" cy="-163.20923347776517" fill="#000" fill-opacity="0.3" r="35.0105382348732"/><circle cx="-117.56217706108771" cy="-191.84403697967124" fill="#000" fill-opacity="0.3" r="35.0105382348732"/><circle cx="-75.10654332759884" cy="-212.09433549573998" fill="#000" fill-opacity="0.3" r="35.0105382348732"/><circle cx="196.10737743845874" cy="164.55362807975362" fill="#000" fill-opacity="0.3" r="39.83421239167795"/><circle cx="157.60933768336875" cy="201.73075292332067" fill="#000" fill-opacity="0.3" r="39.83421239167795"/><circle cx="112.2230135780038" cy="230.09127585258676" fill="#000" fill-opacity="0.3" r="39.83421239167795"/><circle cx="61.932005273514626" cy="248.39570592665518" fill="#000" fill-opacity="0.3" r="39.83421239167795"/><circle cx="8.934271155841447" cy="255.84405171688846" fill="#000" fill-opacity="0.3" r="39.83421239167795"/><circle cx="-44.453933482733284" cy="252.11078477112542" fill="#000" fill-opacity="0.3" r="39.83421239167795"/><circle cx="-95.89928791447292" cy="237.3590667690978" fill="#000" fill-opacity="0.3" r="39.83421239167795"/><circle cx="-143.15338328851095" cy="212.23361857409083" fill="#000" fill-opacity="0.3" r="39.83421239167795"/><circle cx="-184.15098888669468" cy="177.8325428375033" fill="#000" fill-opacity="0.3" r="39.83421239167795"/><circle cx="-217.10031261604522" cy="135.6593316437002" fill="#000" fill-opacity="0.3" r="39.83421239167795"/><circle cx="-240.56131092119213" cy="87.55715669137234" fill="#000" fill-opacity="0.3" r="39.83421239167795"/><circle cx="-253.50862559784187" cy="35.628313845777654" fill="#000" fill-opacity="0.3" r="39.83421239167795"/><circle cx="-255.37639686651505" cy="-17.85765727849547" fill="#000" fill-opacity="0.3" r="39.83421239167795"/><circle cx="-246.08299416020972" cy="-70.56316308915149" fill="#000" fill-opacity="0.3" r="39.83421239167795"/><circle cx="-226.0345837718853" cy="-120.18472007318803" fill="#000" fill-opacity="0.3" r="39.83421239167795"/><circle cx="-196.10737743845937" cy="-164.5536280797529" fill="#000" fill-opacity="0.3" r="39.83421239167795"/><circle cx="-157.6093376833695" cy="-201.73075292332007" fill="#000" fill-opacity="0.3" r="39.83421239167795"/><circle cx="-112.22301357800465" cy="-230.09127585258636" fill="#000" fill-opacity="0.3" r="39.83421239167795"/><circle cx="-61.93200527351554" cy="-248.39570592665495" fill="#000" fill-opacity="0.3" r="39.83421239167795"/><circle cx="-8.93427115584057" cy="-255.8440517168885" fill="#000" fill-opacity="0.3" r="39.83421239167795"/><circle cx="44.45393348273236" cy="-252.1107847711256" fill="#000" fill-opacity="0.3" r="39.83421239167795"/><circle cx="95.89928791447205" cy="-237.35906676909815" fill="#000" fill-opacity="0.3" r="39.83421239167795"/><circle cx="143.15338328851016" cy="-212.23361857409137" fill="#000" fill-opacity="0.3" r="39.83421239167795"/><circle cx="184.15098888669405" cy="-177.83254283750398" fill="#000" fill-opacity="0.3" r="39.83421239167795"/><circle cx="217.1003126160447" cy="-135.659331643701" fill="#000" fill-opacity="0.3" r="39.83421239167795"/><circle cx="240.56131092119244" cy="-87.5571566913715" fill="#000" fill-opacity="0.3" r="39.83421239167795"/><circle cx="253.50862559784198" cy="-35.62831384577679" fill="#000" fill-opacity="0.3" r="39.83421239167795"/><circle cx="255.376396866515" cy="17.857657278496344" fill="#000" fill-opacity="0.3" r="39.83421239167795"/><circle cx="246.08299416020947" cy="70.56316308915234" fill="#000" fill-opacity="0.3" r="39.83421239167795"/><circle cx="226.03458377188574" cy="120.18472007318721" fill="#000" fill-opacity="0.3" r="39.83421239167795"/><circle cx="-288.72493603715685" cy="12.606002948583317" fill="#000" fill-opacity="0.3" r="44.969091332792686"/><circle cx="-285.03653884426" cy="-47.69875809373497" fill="#000" fill-opacity="0.3" r="44.969091332792686"/><circle cx="-268.8906771468053" cy="-105.9188545233214" fill="#000" fill-opacity="0.3" r="44.969091332792686"/><circle cx="-240.99300257741172" cy="-159.50978875518464" fill="#000" fill-opacity="0.3" r="44.969091332792686"/><circle cx="-202.56277738265825" cy="-206.12937980555714" fill="#000" fill-opacity="0.3" r="44.969091332792686"/><circle cx="-155.27958681223342" cy="-243.74012783992313" fill="#000" fill-opacity="0.3" r="44.969091332792686"/><circle cx="-101.20993318398725" cy="-270.6982626927865" fill="#000" fill-opacity="0.3" r="44.969091332792686"/><circle cx="-42.71691981645834" cy="-285.82558451159383" fill="#000" fill-opacity="0.3" r="44.969091332792686"/><circle cx="17.643027925573087" cy="-288.4609567439196" fill="#000" fill-opacity="0.3" r="44.969091332792686"/><circle cx="77.23189068661604" cy="-278.4892009772921" fill="#000" fill-opacity="0.3" r="44.969091332792686"/><circle cx="133.4453492249231" cy="-256.34613078850697" fill="#000" fill-opacity="0.3" r="44.969091332792686"/><circle cx="183.82660566027255" cy="-222.99950459905207" fill="#000" fill-opacity="0.3" r="44.969091332792686"/><circle cx="226.17375733034686" cy="-179.90672998827304" fill="#000" fill-opacity="0.3" r="44.969091332792686"/><circle cx="258.63603050298485" cy="-128.95116798873556" fill="#000" fill-opacity="0.3" r="44.969091332792686"/><circle cx="279.79466806927303" cy="-72.35982117173413" fill="#000" fill-opacity="0.3" r="44.969091332792686"/><circle cx="288.7249360371568" cy="-12.60600294858438" fill="#000" fill-opacity="0.3" r="44.969091332792686"/><circle cx="285.0365388442602" cy="47.698758093733936" fill="#000" fill-opacity="0.3" r="44.969091332792686"/><circle cx="268.8906771468057" cy="105.91885452332043" fill="#000" fill-opacity="0.3" r="44.969091332792686"/><circle cx="240.99300257741228" cy="159.5097887551838" fill="#000" fill-opacity="0.3" r="44.969091332792686"/><circle cx="202.56277738265754" cy="206.12937980555782" fill="#000" fill-opacity="0.3" r="44.969091332792686"/><circle cx="155.27958681223433" cy="243.74012783992256" fill="#000" fill-opacity="0.3" r="44.969091332792686"/><circle cx="101.20993318398824" cy="270.6982626927861" fill="#000" fill-opacity="0.3" r="44.969091332792686"/><circle cx="42.716919816459395" cy="285.82558451159366" fill="#000" fill-opacity="0.3" r="44.969091332792686"/><circle cx="-17.643027925572028" cy="288.46095674391967" fill="#000" fill-opacity="0.3" r="44.969091332792686"/><circle cx="-77.231890686615" cy="278.4892009772924" fill="#000" fill-opacity="0.3" r="44.969091332792686"/><circle cx="-133.44534922492397" cy="256.3461307885065" fill="#000" fill-opacity="0.3" r="44.969091332792686"/><circle cx="-183.82660566027334" cy="222.99950459905142" fill="#000" fill-opacity="0.3" r="44.969091332792686"/><circle cx="-226.17375733034746" cy="179.90672998827225" fill="#000" fill-opacity="0.3" r="44.969091332792686"/><circle cx="-258.6360305029853" cy="128.95116798873468" fill="#000" fill-opacity="0.3" r="44.969091332792686"/><circle cx="-279.79466806927275" cy="72.35982117173515" fill="#000" fill-opacity="0.3" r="44.969091332792686"/><circle cx="229.10259710444" cy="-229.1025971044428" fill="#000" fill-opacity="0.3" r="50.41517505821741"/><circle cx="271.72926401431647" cy="-176.46304734487012" fill="#000" fill-opacity="0.3" r="50.41517505821741"/><circle cx="302.48005818509296" cy="-116.11121565267844" fill="#000" fill-opacity="0.3" r="50.41517505821741"/><circle cx="320.0110223528245" cy="-50.68476667303563" fill="#000" fill-opacity="0.3" r="50.41517505821741"/><circle cx="323.5559692604821" cy="16.956849822711042" fill="#000" fill-opacity="0.3" r="50.41517505821741"/><circle cx="312.95996771765874" cy="83.85737061321444" fill="#000" fill-opacity="0.3" r="50.41517505821741"/><circle cx="288.6861138370321" cy="147.09292191561138" fill="#000" fill-opacity="0.3" r="50.41517505821741"/><circle cx="251.79529151205958" cy="203.8998067001461" fill="#000" fill-opacity="0.3" r="50.41517505821741"/><circle cx="203.89980670014828" cy="251.7952915120578" fill="#000" fill-opacity="0.3" r="50.41517505821741"/><circle cx="147.0929219156139" cy="288.6861138370308" fill="#000" fill-opacity="0.3" r="50.41517505821741"/><circle cx="83.85737061321942" cy="312.95996771765743" fill="#000" fill-opacity="0.3" r="50.41517505821741"/><circle cx="16.956849822716197" cy="323.5559692604818" fill="#000" fill-opacity="0.3" r="50.41517505821741"/><circle cx="-50.68476667303281" cy="320.0110223528249" fill="#000" fill-opacity="0.3" r="50.41517505821741"/><circle cx="-116.11121565267575" cy="302.4800581850939" fill="#000" fill-opacity="0.3" r="50.41517505821741"/><circle cx="-176.46304734486773" cy="271.72926401431806" fill="#000" fill-opacity="0.3" r="50.41517505821741"/><circle cx="-229.10259710443916" cy="229.10259710444365" fill="#000" fill-opacity="0.3" r="50.41517505821741"/><circle cx="-271.7292640143159" cy="176.46304734487111" fill="#000" fill-opacity="0.3" r="50.41517505821741"/><circle cx="-302.4800581850925" cy="116.11121565267953" fill="#000" fill-opacity="0.3" r="50.41517505821741"/><circle cx="-320.01102235282434" cy="50.684766673036805" fill="#000" fill-opacity="0.3" r="50.41517505821741"/><circle cx="-323.555969260482" cy="-16.95684982271215" fill="#000" fill-opacity="0.3" r="50.41517505821741"/><circle cx="-312.959967717659" cy="-83.85737061321329" fill="#000" fill-opacity="0.3" r="50.41517505821741"/><circle cx="-288.6861138370326" cy="-147.09292191561033" fill="#000" fill-opacity="0.3" r="50.41517505821741"/><circle cx="-251.79529151206034" cy="-203.89980670014515" fill="#000" fill-opacity="0.3" r="50.41517505821741"/><circle cx="-203.8998067001492" cy="-251.79529151205702" fill="#000" fill-opacity="0.3" r="50.41517505821741"/><circle cx="-147.092921915615" cy="-288.6861138370303" fill="#000" fill-opacity="0.3" r="50.41517505821741"/><circle cx="-83.85737061321834" cy="-312.9599677176577" fill="#000" fill-opacity="0.3" r="50.41517505821741"/><circle cx="-16.956849822715085" cy="-323.55596926048185" fill="#000" fill-opacity="0.3" r="50.41517505821741"/><circle cx="50.68476667303391" cy="-320.0110223528248" fill="#000" fill-opacity="0.3" r="50.41517505821741"/><circle cx="116.1112156526768" cy="-302.4800581850935" fill="#000" fill-opacity="0.3" r="50.41517505821741"/><circle cx="176.46304734486674" cy="-271.72926401431874" fill="#000" fill-opacity="0.3" r="50.41517505821741"/><circle cx="-15.746598838885959" cy="360.6564079910507" fill="#000" fill-opacity="0.3" r="56.172463567952114"/><circle cx="-90.38718146365343" cy="349.5012981764969" fill="#000" fill-opacity="0.3" r="56.172463567952114"/><circle cx="-161.07741053264144" cy="323.0713045383308" fill="#000" fill-opacity="0.3" r="56.172463567952114"/><circle cx="-224.72778382617938" cy="282.52154462372243" fill="#000" fill-opacity="0.3" r="56.172463567952114"/><circle cx="-278.5564746029661" cy="229.6242375202737" fill="#000" fill-opacity="0.3" r="56.172463567952114"/><circle cx="-320.2109107773377" cy="166.69124937784795" fill="#000" fill-opacity="0.3" r="56.172463567952114"/><circle cx="-347.8705936083128" cy="96.47305376425108" fill="#000" fill-opacity="0.3" r="56.172463567952114"/><circle cx="-360.326662230294" cy="22.038522772083265" fill="#000" fill-opacity="0.3" r="56.172463567952114"/><circle cx="-357.0347266736519" cy="-53.359197417789915" fill="#000" fill-opacity="0.3" r="56.172463567952114"/><circle cx="-338.1386603186712" cy="-126.42486463466861" fill="#000" fill-opacity="0.3" r="56.172463567952114"/><circle cx="-304.4643119384524" cy="-193.9651586132024" fill="#000" fill-opacity="0.3" r="56.172463567952114"/><circle cx="-257.4834121446601" cy="-253.0282444122456" fill="#000" fill-opacity="0.3" r="56.172463567952114"/><circle cx="-199.2492516976533" cy="-301.0327817662475" fill="#000" fill-opacity="0.3" r="56.172463567952114"/><circle cx="-132.30694284747128" cy="-335.88074204151087" fill="#000" fill-opacity="0.3" r="56.172463567952114"/><circle cx="-59.58218571570416" cy="-356.0491021549406" fill="#000" fill-opacity="0.3" r="56.172463567952114"/><circle cx="15.746598838884633" cy="-360.6564079910507" fill="#000" fill-opacity="0.3" r="56.172463567952114"/><circle cx="90.38718146365215" cy="-349.50129817649724" fill="#000" fill-opacity="0.3" r="56.172463567952114"/><circle cx="161.07741053264024" cy="-323.07130453833145" fill="#000" fill-opacity="0.3" r="56.172463567952114"/><circle cx="224.72778382618037" cy="-282.52154462372164" fill="#000" fill-opacity="0.3" r="56.172463567952114"/><circle cx="278.55647460296694" cy="-229.62423752027274" fill="#000" fill-opacity="0.3" r="56.172463567952114"/><circle cx="320.21091077733826" cy="-166.69124937784684" fill="#000" fill-opacity="0.3" r="56.172463567952114"/><circle cx="347.87059360831245" cy="-96.47305376425234" fill="#000" fill-opacity="0.3" r="56.172463567952114"/><circle cx="360.3266622302939" cy="-22.038522772084587" fill="#000" fill-opacity="0.3" r="56.172463567952114"/><circle cx="357.0347266736521" cy="53.35919741778861" fill="#000" fill-opacity="0.3" r="56.172463567952114"/><circle cx="338.13866031867167" cy="126.42486463466736" fill="#000" fill-opacity="0.3" r="56.172463567952114"/><circle cx="304.4643119384518" cy="193.9651586132034" fill="#000" fill-opacity="0.3" r="56.172463567952114"/><circle cx="257.48341214465927" cy="253.0282444122465" fill="#000" fill-opacity="0.3" r="56.172463567952114"/><circle cx="199.24925169765228" cy="301.03278176624815" fill="#000" fill-opacity="0.3" r="56.172463567952114"/><circle cx="132.3069428474725" cy="335.8807420415104" fill="#000" fill-opacity="0.3" r="56.172463567952114"/><circle cx="59.58218571570548" cy="356.0491021549404" fill="#000" fill-opacity="0.3" r="56.172463567952114"/><circle cx="-257.1150438746166" cy="-306.41777724759044" fill="#000" fill-opacity="0.3" r="62.2409568619968"/><circle cx="-187.7886251143569" cy="-353.17903714357044" fill="#000" fill-opacity="0.3" r="62.2409568619968"/><circle cx="-110.25494232679986" cy="-384.50467837532744" fill="#000" fill-opacity="0.3" r="62.2409568619968"/><circle cx="-27.902589497652684" cy="-399.0256201039295" fill="#000" fill-opacity="0.3" r="62.2409568619968"/><circle cx="55.6692403840241" cy="-396.1072274966284" fill="#000" fill-opacity="0.3" r="62.2409568619968"/><circle cx="136.80805733026597" cy="-375.8770483143639" fill="#000" fill-opacity="0.3" r="62.2409568619968"/><circle cx="211.96770569328098" cy="-339.219238462571" fill="#000" fill-opacity="0.3" r="62.2409568619968"/><circle cx="277.8633481835984" cy="-287.7359201354609" fill="#000" fill-opacity="0.3" r="62.2409568619968"/><circle cx="331.6150290220166" cy="-223.67716138829888" fill="#000" fill-opacity="0.3" r="62.2409568619968"/><circle cx="370.87354182671504" cy="-149.84263736636458" fill="#000" fill-opacity="0.3" r="62.2409568619968"/><circle cx="393.92310120488287" cy="-69.45927106677424" fill="#000" fill-opacity="0.3" r="62.2409568619968"/><circle cx="399.75633080763834" cy="13.959798680998736" fill="#000" fill-opacity="0.3" r="62.2409568619968"/><circle cx="388.1182905103989" cy="96.76875823986593" fill="#000" fill-opacity="0.3" r="62.2409568619968"/><circle cx="359.5176185196671" cy="175.34845871563033" fill="#000" fill-opacity="0.3" r="62.2409568619968"/><circle cx="315.2043014426889" cy="246.26459013026314" fill="#000" fill-opacity="0.3" r="62.2409568619968"/><circle cx="257.11504387461775" cy="306.4177772475896" fill="#000" fill-opacity="0.3" r="62.2409568619968"/><circle cx="187.7886251143582" cy="353.17903714356976" fill="#000" fill-opacity="0.3" r="62.2409568619968"/><circle cx="110.25494232680128" cy="384.50467837532705" fill="#000" fill-opacity="0.3" r="62.2409568619968"/><circle cx="27.90258949765132" cy="399.0256201039296" fill="#000" fill-opacity="0.3" r="62.2409568619968"/><circle cx="-55.66924038402546" cy="396.10722749662824" fill="#000" fill-opacity="0.3" r="62.2409568619968"/><circle cx="-136.80805733026725" cy="375.87704831436344" fill="#000" fill-opacity="0.3" r="62.2409568619968"/><circle cx="-211.96770569327975" cy="339.21923846257175" fill="#000" fill-opacity="0.3" r="62.2409568619968"/><circle cx="-277.86334818359734" cy="287.7359201354619" fill="#000" fill-opacity="0.3" r="62.2409568619968"/><circle cx="-331.61502902201573" cy="223.67716138830014" fill="#000" fill-opacity="0.3" r="62.2409568619968"/><circle cx="-370.8735418267145" cy="149.84263736636595" fill="#000" fill-opacity="0.3" r="62.2409568619968"/><circle cx="-393.9231012048831" cy="69.45927106677287" fill="#000" fill-opacity="0.3" r="62.2409568619968"/><circle cx="-399.7563308076383" cy="-13.959798681000107" fill="#000" fill-opacity="0.3" r="62.2409568619968"/><circle cx="-388.11829051039854" cy="-96.76875823986727" fill="#000" fill-opacity="0.3" r="62.2409568619968"/><circle cx="-359.51761851966774" cy="-175.34845871562902" fill="#000" fill-opacity="0.3" r="62.2409568619968"/><circle cx="-315.2043014426898" cy="-246.26459013026195" fill="#000" fill-opacity="0.3" r="62.2409568619968"/><circle cx="437.2271838658507" cy="57.56205076904066" fill="#000" fill-opacity="0.3" r="68.62065494035147"/><circle cx="415.7048975716512" cy="147.20882492209148" fill="#000" fill-opacity="0.3" r="68.62065494035147"/><circle cx="376.01431248015524" cy="230.42186703973255" fill="#000" fill-opacity="0.3" r="68.62065494035147"/><circle cx="319.8900976164214" cy="303.5643678809428" fill="#000" fill-opacity="0.3" r="68.62065494035147"/><circle cx="249.78515048385387" cy="363.4396491823071" fill="#000" fill-opacity="0.3" r="68.62065494035147"/><circle cx="168.76339367300704" cy="407.4308738374765" fill="#000" fill-opacity="0.3" r="68.62065494035147"/><circle cx="80.36586674203912" cy="433.6154142357036" fill="#000" fill-opacity="0.3" r="68.62065494035147"/><circle cx="-11.544034203770451" cy="440.8488803142208" fill="#000" fill-opacity="0.3" r="68.62065494035147"/><circle cx="-102.94940546045322" cy="428.81513489537565" fill="#000" fill-opacity="0.3" r="68.62065494035147"/><circle cx="-189.85539369245765" cy="398.0401103982888" fill="#000" fill-opacity="0.3" r="68.62065494035147"/><circle cx="-268.46379019284325" cy="349.86882306843665" fill="#000" fill-opacity="0.3" r="68.62065494035147"/><circle cx="-335.33903082961194" cy="286.406589313613" fill="#000" fill-opacity="0.3" r="68.62065494035147"/><circle cx="-387.5583466839257" cy="210.42701327448918" fill="#000" fill-opacity="0.3" r="68.62065494035147"/><circle cx="-422.83950307687263" cy="125.25076701443143" fill="#000" fill-opacity="0.3" r="68.62065494035147"/><circle cx="-439.64054417630933" cy="34.60046121598073" fill="#000" fill-opacity="0.3" r="68.62065494035147"/><circle cx="-437.22718386585086" cy="-57.56205076903906" fill="#000" fill-opacity="0.3" r="68.62065494035147"/><circle cx="-415.70489757165177" cy="-147.20882492208995" fill="#000" fill-opacity="0.3" r="68.62065494035147"/><circle cx="-376.0143124801561" cy="-230.42186703973115" fill="#000" fill-opacity="0.3" r="68.62065494035147"/><circle cx="-319.89009761642035" cy="-303.5643678809439" fill="#000" fill-opacity="0.3" r="68.62065494035147"/><circle cx="-249.78515048385265" cy="-363.43964918230796" fill="#000" fill-opacity="0.3" r="68.62065494035147"/><circle cx="-168.76339367300565" cy="-407.430873837477" fill="#000" fill-opacity="0.3" r="68.62065494035147"/><circle cx="-80.36586674204072" cy="-433.6154142357033" fill="#000" fill-opacity="0.3" r="68.62065494035147"/><circle cx="11.544034203768831" cy="-440.8488803142208" fill="#000" fill-opacity="0.3" r="68.62065494035147"/><circle cx="102.94940546045164" cy="-428.815134895376" fill="#000" fill-opacity="0.3" r="68.62065494035147"/><circle cx="189.85539369245618" cy="-398.04011039828947" fill="#000" fill-opacity="0.3" r="68.62065494035147"/><circle cx="268.4637901928445" cy="-349.86882306843574" fill="#000" fill-opacity="0.3" r="68.62065494035147"/><circle cx="335.3390308296129" cy="-286.4065893136119" fill="#000" fill-opacity="0.3" r="68.62065494035147"/><circle cx="387.55834668392646" cy="-210.42701327448788" fill="#000" fill-opacity="0.3" r="68.62065494035147"/><circle cx="422.83950307687223" cy="-125.250767014433" fill="#000" fill-opacity="0.3" r="68.62065494035147"/><circle cx="439.6405441763092" cy="-34.60046121598234" fill="#000" fill-opacity="0.3" r="68.62065494035147"/><circle cx="-396.46958943587214" cy="277.61099519390615" fill="#000" fill-opacity="0.3" r="75.31155780301613"/><circle cx="-445.52434907098143" cy="189.11386618880778" fill="#000" fill-opacity="0.3" r="75.31155780301613"/><circle cx="-475.1075567886696" cy="92.35155376224638" fill="#000" fill-opacity="0.3" r="75.31155780301613"/><circle cx="-483.92628445569335" cy="-8.446964715647125" fill="#000" fill-opacity="0.3" r="75.31155780301613"/><circle cx="-471.5951113560541" cy="-108.87631030242972" fill="#000" fill-opacity="0.3" r="75.31155780301613"/><circle cx="-438.6529689257387" cy="-204.54723868249818" fill="#000" fill-opacity="0.3" r="75.31155780301613"/><circle cx="-386.5395868628896" cy="-291.27847120559153" fill="#000" fill-opacity="0.3" r="75.31155780301613"/><circle cx="-317.532570031405" cy="-365.2794368278221" fill="#000" fill-opacity="0.3" r="75.31155780301613"/><circle cx="-234.64785619922597" cy="-423.3159382554682" fill="#000" fill-opacity="0.3" r="75.31155780301613"/><circle cx="-141.50790508580278" cy="-462.85150188610976" fill="#000" fill-opacity="0.3" r="75.31155780301613"/><circle cx="-42.18337948986754" cy="-482.1582338764047" fill="#000" fill-opacity="0.3" r="75.31155780301613"/><circle cx="58.98476220809097" cy="-480.3923373943999" fill="#000" fill-opacity="0.3" r="75.31155780301613"/><circle cx="157.57498675726399" cy="-457.6309905900693" fill="#000" fill-opacity="0.3" r="75.31155780301613"/><circle cx="249.27842825646687" cy="-414.868973539822" fill="#000" fill-opacity="0.3" r="75.31155780301613"/><circle cx="330.08720627025025" cy="-353.97519158367766" fill="#000" fill-opacity="0.3" r="75.31155780301613"/><circle cx="396.4695894358711" cy="-277.6109951939076" fill="#000" fill-opacity="0.3" r="75.31155780301613"/><circle cx="445.5243490709807" cy="-189.11386618880942" fill="#000" fill-opacity="0.3" r="75.31155780301613"/><circle cx="475.1075567886693" cy="-92.35155376224813" fill="#000" fill-opacity="0.3" r="75.31155780301613"/><circle cx="483.92628445569335" cy="8.446964715645347" fill="#000" fill-opacity="0.3" r="75.31155780301613"/><circle cx="471.5951113560537" cy="108.87631030243134" fill="#000" fill-opacity="0.3" r="75.31155780301613"/><circle cx="438.65296892573946" cy="204.54723868249656" fill="#000" fill-opacity="0.3" r="75.31155780301613"/><circle cx="386.5395868628907" cy="291.27847120559005" fill="#000" fill-opacity="0.3" r="75.31155780301613"/><circle cx="317.53257003140635" cy="365.279436827821" fill="#000" fill-opacity="0.3" r="75.31155780301613"/><circle cx="234.64785619922753" cy="423.3159382554673" fill="#000" fill-opacity="0.3" r="75.31155780301613"/><circle cx="141.50790508580448" cy="462.8515018861092" fill="#000" fill-opacity="0.3" r="75.31155780301613"/><circle cx="42.183379489865885" cy="482.1582338764049" fill="#000" fill-opacity="0.3" r="75.31155780301613"/><circle cx="-58.98476220809261" cy="480.39233739439976" fill="#000" fill-opacity="0.3" r="75.31155780301613"/><circle cx="-157.57498675726555" cy="457.6309905900688" fill="#000" fill-opacity="0.3" r="75.31155780301613"/><circle cx="-249.27842825646826" cy="414.8689735398211" fill="#000" fill-opacity="0.3" r="75.31155780301613"/><circle cx="-330.08720627024894" cy="353.9751915836789" fill="#000" fill-opacity="0.3" r="75.31155780301613"/></g></svg>