<?xml version="1.0" standalone="no"?><!DOCTYPE svg PUBLIC "-//W3C//DTD SVG 1.1//EN" "http://www.w3.org/Graphics/SVG/1.1/DTD/svg11.dtd"><svg width="500" height="500" style="background: rgb(209, 209, 209);" version="1.1" xmlns="http://www.w3.org/2000/svg" xmlns:xlink="http://www.w3.org/1999/xlink"><defs xmlns="http://www.w3.org/1999/xhtml"><style type="text/css"><![CDATA[
html, body { height: 100%; margin: 0px; background: rgb(34, 34, 34); }
body, #prev, #next { height: 100%; box-sizing: border-box; display: -webkit-flex; flex-direction: column; justify-content: center; }
#prev, #next { position: absolute; top: 0px; color: rgb(209, 209, 209); font-size: 70px; text-decoration: none; padding: 20px; }
#prev { left: 0px; }
#next { right: 0px; }
svg { margin: auto; }
.fa { display: inline-block; font-style: normal; font-variant: normal; font-weight: normal; font-stretch: normal; line-height: 1; font-family: FontAwesome; font-size: inherit; text-rendering: auto; -webkit-font-smoothing: antialiased; }
.fa-twitter::before { content: ''; }
.fa-github::before { content: ''; }
.fa-th::before { content: ''; }
footer { text-align: center; margin-bottom: 25px; }
a { color: rgb(209, 209, 209); text-decoration: none; padding: 10px; }]]></style></defs><g transform="translate(136.36363636363637,136.36363636363637)rotate(45)"><rect fill="#111" fill-opacity="0.1" x="-80" y="-80" width="160" height="160"/></g><g transform="translate(136.36363636363637,181.8181818181818)rotate(45)"><rect fill="#111" fill-opacity="0.1" x="-80" y="-80" width="160" height="160"/></g><g transform="translate(136.36363636363637,227.27272727272728)rotate(45)"><rect fill="#111" fill-opacity="0.1" x="-80" y="-80" width="160" height="160"/></g><g transform="translate(136.36363636363637,272.72727272727275)rotate(45)"><rect fill="#111" fill-opacity="0.1" x="-80" y="-80" width="160" height="160"/></g><g transform="translate(136.36363636363637,318.1818181818182)rotate(45)"><rect fill="#111" fill-opacity="0.1" x="-80" y="-80" width="160" height="160"/></g><g transform="translate(136.36363636363637,363.6363636363636)rotate(45)"><rect fill="#111" fill-opacity="0.1" x="-80" y="-80" width="160" height="160"/></g><g transform="translate(181.8181818181818,136.36363636363637)rotate(45)"><rect fill="#111" fill-opacity="0.1" x="-80" y="-80" width="160" height="160"/></g><g transform="translate(181.8181818181818,181.8181818181818)rotate(45)"><rect fill="#111" fill-opacity="0.1" x="-80" y="-80" width="160" height="160"/></g><g transform="translate(181.8181818181818,227.27272727272728)rotate(45)"><rect fill="#111" fill-opacity="0.1" x="-80" y="-80" width="160" height="160"/></g><g transform="translate(181.8181818181818,272.72727272727275)rotate(45)"><rect fill="#111" fill-opacity="0.1" x="-80" y="-80" width="160" height="160"/></g><g transform="translate(181.8181818181818,318.1818181818182)rotate(45)"><rect fill="#111" fill-opacity="0.1" x="-80" y="-80" width="160" height="160"/></g><g transform="translate(181.8181818181818,363.6363636363636)rotate(45)"><rect fill="#111" fill-opacity="0.1" x="-80" y="-80" width="160" height="160"/></g><g transform="translate(227.27272727272728,136.36363636363637)rotate(45)"><rect fill="#111" fill-opacity="0.1" x="-80" y="-80" width="160" height="160"/></g><g transform="translate(227.27272727272728,181.8181818181818)rotate(45)"><rect fill="#111" fill-opacity="0.1" x="-80" y="-80" width="160" height="160"/></g><g transform="translate(227.27272727272728,227.27272727272728)rotate(45)"><rect fill="#111" fill-opacity="0.1" x="-80" y="-80" width="160" height="160"/></g><g transform="translate(227.27272727272728,272.72727272727275)rotate(45)"><rect fill="#111" fill-opacity="0.1" x="-80" y="-80" width="160" height="160"/></g><g transform="translate(227.27272727272728,318.1818181818182)rotate(45)"><rect fill="#111" fill-opacity="0.1" x="-80" y="-80" width="160" height="160"/></g><g transform="translate(227.27272727272728,363.6363636363636)rotate(45)"><rect fill="#111" fill-opacity="0.1" x="-80" y="-80" width="160" height="160"/></g><g transform="translate(272.72727272727275,136.36363636363637)rotate(45)"><rect fill="#111" fill-opacity="0.1" x="-80" y="-80" width="160" height="160"/></g><g transform="translate(272.72727272727275,181.8181818181818)rotate(45)"><rect fill="#111" fill-opacity="0.1" x="-80" y="-80" width="160" height="160"/></g><g transform="translate(272.72727272727275,227.27272727272728)rotate(45)"><rect fill="#111" fill-opacity="0.1" x="-80" y="-80" width="160" height="160"/></g><g transform="translate(272.72727272727275,272.72727272727275)rotate(45)"><rect fill="#111" fill-opacity="0.1" x="-80" y="-80" width="160" height="160"/></g><g transform="translate(272.72727272727275,318.1818181818182)rotate(45)"><rect fill="#111" fill-opacity="0.1" x="-80" y="-80" width="160" height="160"/></g><g transform="translate(272.72727272727275,363.6363636363636)rotate(45)"><rect fill="#111" fill-opacity="0.1" x="-80" y="-80" width="160" height="160"/></g><g transform="translate(318.1818181818182,136.36363636363637)rotate(45)"><rect fill="#111" fill-opacity="0.1" x="-80" y="-80" width="160" height="160"/></g><g transform="translate(318.1818181818182,181.8181818181818)rotate(45)"><rect fill="#111" fill-opacity="0.1" x="-80" y="-80" width="160" height="160"/></g><g transform="translate(318.1818181818182,227.27272727272728)rotate(45)"><rect fill="#111" fill-opacity="0.1" x="-80" y="-80" width="160" height="160"/></g><g transform="translate(318.1818181818182,272.72727272727275)rotate(45)"><rect fill="#111" fill-opacity="0.1" x="-80" y="-80" width="160" height="160"/></g><g transform="translate(318.1818181818182,318.1818181818182)rotate(45)"><rect fill="#111" fill-opacity="0.1" x="-80" y="-80" width="160" height="160"/></g><g transform="translate(318.1818181818182,363.6363636363636)rotate(45)"><rect fill="#111" fill-opacity="0.1" x="-80" y="-80" width="160" height="160"/></g><g transform="translate(363.6363636363636,136.36363636363637)rotate(45)"><rect fill="#111" fill-opacity="0.1" x="-80" y="-80" width="160" height="160"/></g><g transform="translate(363.6363636363636,181.8181818181818)rotate(45)"><rect fill="#111" fill-opacity="0.1" x="-80" y="-80" width="160" height="160"/></g><g transform="translate(363.6363636363636,227.27272727272728)rotate(45)"><rect fill="#111" fill-opacity="0.1" x="-80" y="-80" width="160" height="160"/></g><g transform="translate(363.6363636363636,272.72727272727275)rotate(45)"><rect fill="#111" fill-opacity="0.1" x="-80" y="-80" width="160" height="160"/></g><g transform="translate(363.6363636363636,318.1818181818182)rotate(45)"><rect fill="#111" fill-opacity="0.1" x="-80" y="-80" width="160" height="160"/></g><g transform="translate(363.6363636363636,363.6363636363636)rotate(45)"><rect fill="#111" fill-opacity="0.1" x="-80" y="-80" width="160" height="160"/></g></svg>