<?xml version="1.0" standalone="no"?><!DOCTYPE svg PUBLIC "-//W3C//DTD SVG 1.1//EN" "http://www.w3.org/Graphics/SVG/1.1/DTD/svg11.dtd"><svg width="500" height="500" style="background: rgb(209, 209, 209);" version="1.1" xmlns="http://www.w3.org/2000/svg" xmlns:xlink="http://www.w3.org/1999/xlink"><defs xmlns="http://www.w3.org/1999/xhtml"><style type="text/css"><![CDATA[
html, body { height: 100%; margin: 0px; background: rgb(34, 34, 34); }
body, #prev, #next { height: 100%; box-sizing: border-box; display: -webkit-flex; flex-direction: column; justify-content: center; }
#prev, #next { position: absolute; top: 0px; color: rgb(209, 209, 209); font-size: 70px; text-decoration: none; padding: 20px; }
#prev { left: 0px; }
#next { right: 0px; }
svg { margin: auto; }
.fa { display: inline-block; font-style: normal; font-variant: normal; font-weight: normal; font-stretch: normal; line-height: 1; font-family: FontAwesome; font-size: inherit; text-rendering: auto; -webkit-font-smoothing: antialiased; }
.fa-twitter::before { content: ''; }
.fa-github::before { content: ''; }
.fa-th::before { content: ''; }
footer { text-align: center; margin-bottom: 25px; }
a { color: rgb(209, 209, 209); text-decoration: none; padding: 10px; }]]></style></defs><g transform="translate(250,250)"><path fill="#000" fill-opacity="0.05" transform="rotate(0)" d="M0,225A225,225,0,0,0,0,-225A225,225,0,0,0,0,225"/><path fill="#000" fill-opacity="0.05" transform="rotate(569.874)" d="M0,225A225,225,0,0,0,0,-225A8.05676859571342,225,0,0,0,0,225"/><path fill="#000" fill-opacity="0.05" transform="rotate(1139.748)" d="M0,225A225,225,0,0,0,0,-225A178.8694757344839,225,0,0,0,0,225"/><path fill="#000" fill-opacity="0.05" transform="rotate(1709.622)" d="M0,225A225,225,0,0,0,0,-225A69.1982088394245,225,0,0,0,0,225"/><path fill="#000" fill-opacity="0.05" transform="rotate(2279.496)" d="M0,225A225,225,0,0,0,0,-225A84.43418910416769,225,0,0,0,0,225"/><path fill="#000" fill-opacity="0.05" transform="rotate(2849.37)" d="M0,225A225,225,0,0,0,0,-225A163.93849123932182,225,0,0,0,0,225"/><path fill="#000" fill-opacity="0.05" transform="rotate(3419.244)" d="M0,225A225,225,0,0,0,0,-225A14.45376147857456,225,0,0,0,0,225"/><path fill="#000" fill-opacity="0.05" transform="rotate(3989.118)" d="M0,225A225,225,0,0,0,0,-225A223.52008071474464,225,0,0,0,0,225"/><path fill="#000" fill-opacity="0.05" transform="rotate(4558.992)" d="M0,225A225,225,0,0,0,0,-225A3.4989372827798566,225,0,0,0,0,225"/><path fill="#000" fill-opacity="0.05" transform="rotate(5128.866)" d="M0,225A225,225,0,0,0,0,-225A192.32464628377227,225,0,0,0,0,225"/><path fill="#000" fill-opacity="0.05" transform="rotate(5698.74)" d="M0,225A225,225,0,0,0,0,-225A55.0711834461684,225,0,0,0,0,225"/><path fill="#000" fill-opacity="0.05" transform="rotate(6268.614)" d="M0,225A225,225,0,0,0,0,-225A100.5099462772726,225,0,0,0,0,225"/><path fill="#000" fill-opacity="0.05" transform="rotate(6838.488)" d="M0,225A225,225,0,0,0,0,-225A147.96567077467242,225,0,0,0,0,225"/><path fill="#000" fill-opacity="0.05" transform="rotate(7408.362)" d="M0,225A225,225,0,0,0,0,-225A22.642144185137404,225,0,0,0,0,225"/><path fill="#000" fill-opacity="0.05" transform="rotate(7978.236)" d="M0,225A225,225,0,0,0,0,-225A219.13114457815215,225,0,0,0,0,225"/><path fill="#000" fill-opacity="0.05" transform="rotate(8548.11)" d="M0,225A225,225,0,0,0,0,-225A0.8098476984820075,225,0,0,0,0,225"/><path fill="#000" fill-opacity="0.05" transform="rotate(9117.984)" d="M0,225A225,225,0,0,0,0,-225A203.89301730253823,225,0,0,0,0,225"/><path fill="#000" fill-opacity="0.05" transform="rotate(9687.858)" d="M0,225A225,225,0,0,0,0,-225A42.2733542138438,225,0,0,0,0,225"/><path fill="#000" fill-opacity="0.05" transform="rotate(10257.732)" d="M0,225A225,225,0,0,0,0,-225A117.10757691118955,225,0,0,0,0,225"/><path fill="#000" fill-opacity="0.05" transform="rotate(10827.606)" d="M0,225A225,225,0,0,0,0,-225A131.3886148503008,225,0,0,0,0,225"/><path fill="#000" fill-opacity="0.05" transform="rotate(11397.48)" d="M0,225A225,225,0,0,0,0,-225A32.55039432068836,225,0,0,0,0,225"/><path fill="#000" fill-opacity="0.05" transform="rotate(11967.354)" d="M0,225A225,225,0,0,0,0,-225A211.98269544885946,225,0,0,0,0,225"/><path fill="#000" fill-opacity="0.05" transform="rotate(12537.228)" d="M0,225A225,225,0,0,0,0,-225A0.005177151985470343,225,0,0,0,0,225"/><path fill="#000" fill-opacity="0.05" transform="rotate(13107.102)" d="M0,225A225,225,0,0,0,0,-225A213.20661040699102,225,0,0,0,0,225"/><path fill="#000" fill-opacity="0.05" transform="rotate(13676.976)" d="M0,225A225,225,0,0,0,0,-225A30.97865154466665,225,0,0,0,0,225"/><path fill="#000" fill-opacity="0.05" transform="rotate(14246.85)" d="M0,225A225,225,0,0,0,0,-225A133.86410439134673,225,0,0,0,0,225"/><path fill="#000" fill-opacity="0.05" transform="rotate(14816.724)" d="M0,225A225,225,0,0,0,0,-225A114.63114804381608,225,0,0,0,0,225"/><path fill="#000" fill-opacity="0.05" transform="rotate(15386.598)" d="M0,225A225,225,0,0,0,0,-225A44.0769128206546,225,0,0,0,0,225"/><path fill="#000" fill-opacity="0.05" transform="rotate(15956.472)" d="M0,225A225,225,0,0,0,0,-225A202.31430703515593,225,0,0,0,0,225"/><path fill="#000" fill-opacity="0.05" transform="rotate(16526.346)" d="M0,225A225,225,0,0,0,0,-225A1.0893577118937976,225,0,0,0,0,225"/><path fill="#000" fill-opacity="0.05" transform="rotate(17096.22)" d="M0,225A225,225,0,0,0,0,-225A219.95959388059146,225,0,0,0,0,225"/><path fill="#000" fill-opacity="0.05" transform="rotate(17666.094)" d="M0,225A225,225,0,0,0,0,-225A21.319409638233605,225,0,0,0,0,225"/></g></svg>