<?xml version="1.0" standalone="no"?><!DOCTYPE svg PUBLIC "-//W3C//DTD SVG 1.1//EN" "http://www.w3.org/Graphics/SVG/1.1/DTD/svg11.dtd"><svg width="500" height="500" style="background: rgb(209, 209, 209);" version="1.1" xmlns="http://www.w3.org/2000/svg" xmlns:xlink="http://www.w3.org/1999/xlink"><defs xmlns="http://www.w3.org/1999/xhtml"><style type="text/css"><![CDATA[
html, body { height: 100%; margin: 0px; background: rgb(34, 34, 34); }
body, #prev, #next { height: 100%; box-sizing: border-box; display: -webkit-flex; flex-direction: column; justify-content: center; }
#prev, #next { position: absolute; top: 0px; color: rgb(209, 209, 209); font-size: 70px; text-decoration: none; padding: 20px; }
#prev { left: 0px; }
#next { right: 0px; }
svg { margin: auto; }
.fa { display: inline-block; font-style: normal; font-variant: normal; font-weight: normal; font-stretch: normal; line-height: 1; font-family: FontAwesome; font-size: inherit; text-rendering: auto; -webkit-font-smoothing: antialiased; }
.fa-twitter::before { content: ''; }
.fa-github::before { content: ''; }
.fa-th::before { content: ''; }
footer { text-align: center; margin-bottom: 25px; }
a { color: rgb(209, 209, 209); text-decoration: none; padding: 10px; }]]></style></defs><g transform="translate(0,-25)"><path fill="#111" fill-opacity="0.2" d="M0,-25l21.650635094610966,12.499999999999996l3.552713678800501e-15,25l-21.650635094610955,12.500000000000005l-21.650635094610973,-12.49999999999999l-1.7763568394002505e-14,-24.999999999999993l21.650635094610948,-12.500000000000016Z" transform="scale(1.371160768729382)"/></g><g transform="translate(43.30127018922193,-25)"><path fill="#111" fill-opacity="0.2" d="M0,-25l21.650635094610966,12.499999999999996l3.552713678800501e-15,25l-21.650635094610955,12.500000000000005l-21.650635094610973,-12.49999999999999l-1.7763568394002505e-14,-24.999999999999993l21.650635094610948,-12.500000000000016Z" transform="scale(1.6178245553621577)"/></g><g transform="translate(86.60254037844386,-25)"><path fill="#111" fill-opacity="0.2" d="M0,-25l21.650635094610966,12.499999999999996l3.552713678800501e-15,25l-21.650635094610955,12.500000000000005l-21.650635094610973,-12.49999999999999l-1.7763568394002505e-14,-24.999999999999993l21.650635094610948,-12.500000000000016Z" transform="scale(1.814395845096596)"/></g><g transform="translate(129.9038105676658,-25)"><path fill="#111" fill-opacity="0.2" d="M0,-25l21.650635094610966,12.499999999999996l3.552713678800501e-15,25l-21.650635094610955,12.500000000000005l-21.650635094610973,-12.49999999999999l-1.7763568394002505e-14,-24.999999999999993l21.650635094610948,-12.500000000000016Z" transform="scale(1.944936866220862)"/></g><g transform="translate(173.20508075688772,-25)"><path fill="#111" fill-opacity="0.2" d="M0,-25l21.650635094610966,12.499999999999996l3.552713678800501e-15,25l-21.650635094610955,12.500000000000005l-21.650635094610973,-12.49999999999999l-1.7763568394002505e-14,-24.999999999999993l21.650635094610948,-12.500000000000016Z" transform="scale(1.9988635044600889)"/></g><g transform="translate(216.50635094610965,-25)"><path fill="#111" fill-opacity="0.2" d="M0,-25l21.650635094610966,12.499999999999996l3.552713678800501e-15,25l-21.650635094610955,12.500000000000005l-21.650635094610973,-12.49999999999999l-1.7763568394002505e-14,-24.999999999999993l21.650635094610948,-12.500000000000016Z" transform="scale(1.9718034506606652)"/></g><g transform="translate(259.8076211353316,-25)"><path fill="#111" fill-opacity="0.2" d="M0,-25l21.650635094610966,12.499999999999996l3.552713678800501e-15,25l-21.650635094610955,12.500000000000005l-21.650635094610973,-12.49999999999999l-1.7763568394002505e-14,-24.999999999999993l21.650635094610948,-12.500000000000016Z" transform="scale(1.865950702534806)"/></g><g transform="translate(303.10889132455355,-25)"><path fill="#111" fill-opacity="0.2" d="M0,-25l21.650635094610966,12.499999999999996l3.552713678800501e-15,25l-21.650635094610955,12.500000000000005l-21.650635094610973,-12.49999999999999l-1.7763568394002505e-14,-24.999999999999993l21.650635094610948,-12.500000000000016Z" transform="scale(1.6898876778759726)"/></g><g transform="translate(346.4101615137755,-25)"><path fill="#111" fill-opacity="0.2" d="M0,-25l21.650635094610966,12.499999999999996l3.552713678800501e-15,25l-21.650635094610955,12.500000000000005l-21.650635094610973,-12.49999999999999l-1.7763568394002505e-14,-24.999999999999993l21.650635094610948,-12.500000000000016Z" transform="scale(1.457889362098858)"/></g><g transform="translate(389.71143170299746,-25)"><path fill="#111" fill-opacity="0.2" d="M0,-25l21.650635094610966,12.499999999999996l3.552713678800501e-15,25l-21.650635094610955,12.500000000000005l-21.650635094610973,-12.49999999999999l-1.7763568394002505e-14,-24.999999999999993l21.650635094610948,-12.500000000000016Z" transform="scale(1.1887659090126952)"/></g><g transform="translate(433.0127018922194,-25)"><path fill="#111" fill-opacity="0.2" d="M0,-25l21.650635094610966,12.499999999999996l3.552713678800501e-15,25l-21.650635094610955,12.500000000000005l-21.650635094610973,-12.49999999999999l-1.7763568394002505e-14,-24.999999999999993l21.650635094610948,-12.500000000000016Z" transform="scale(0.9043375354120248)"/></g><g transform="translate(476.31397208144136,-25)"><path fill="#111" fill-opacity="0.2" d="M0,-25l21.650635094610966,12.499999999999996l3.552713678800501e-15,25l-21.650635094610955,12.500000000000005l-21.650635094610973,-12.49999999999999l-1.7763568394002505e-14,-24.999999999999993l21.650635094610948,-12.500000000000016Z" transform="scale(0.6276653632589511)"/></g><g transform="translate(519.6152422706633,-25)"><path fill="#111" fill-opacity="0.2" d="M0,-25l21.650635094610966,12.499999999999996l3.552713678800501e-15,25l-21.650635094610955,12.500000000000005l-21.650635094610973,-12.49999999999999l-1.7763568394002505e-14,-24.999999999999993l21.650635094610948,-12.500000000000016Z" transform="scale(0.3811816507166519)"/></g><g transform="translate(-21.650635094610966,12.5)"><path fill="#111" fill-opacity="0.2" d="M0,-25l21.650635094610966,12.499999999999996l3.552713678800501e-15,25l-21.650635094610955,12.500000000000005l-21.650635094610973,-12.49999999999999l-1.7763568394002505e-14,-24.999999999999993l21.650635094610948,-12.500000000000016Z" transform="scale(0.1848710107288094)"/></g><g transform="translate(21.650635094610966,12.5)"><path fill="#111" fill-opacity="0.2" d="M0,-25l21.650635094610966,12.499999999999996l3.552713678800501e-15,25l-21.650635094610955,12.500000000000005l-21.650635094610973,-12.49999999999999l-1.7763568394002505e-14,-24.999999999999993l21.650635094610948,-12.500000000000016Z" transform="scale(0.05465008182873787)"/></g><g transform="translate(64.9519052838329,12.5)"><path fill="#111" fill-opacity="0.2" d="M0,-25l21.650635094610966,12.499999999999996l3.552713678800501e-15,25l-21.650635094610955,12.500000000000005l-21.650635094610973,-12.49999999999999l-1.7763568394002505e-14,-24.999999999999993l21.650635094610948,-12.500000000000016Z" transform="scale(0.0010770255857845967)"/></g><g transform="translate(108.25317547305482,12.5)"><path fill="#111" fill-opacity="0.2" d="M0,-25l21.650635094610966,12.499999999999996l3.552713678800501e-15,25l-21.650635094610955,12.500000000000005l-21.650635094610973,-12.49999999999999l-1.7763568394002505e-14,-24.999999999999993l21.650635094610948,-12.500000000000016Z" transform="scale(0.02849548313624639)"/></g><g transform="translate(151.55444566227675,12.5)"><path fill="#111" fill-opacity="0.2" d="M0,-25l21.650635094610966,12.499999999999996l3.552713678800501e-15,25l-21.650635094610955,12.500000000000005l-21.650635094610973,-12.49999999999999l-1.7763568394002505e-14,-24.999999999999993l21.650635094610948,-12.500000000000016Z" transform="scale(0.13468239780831592)"/></g><g transform="translate(194.85571585149867,12.5)"><path fill="#111" fill-opacity="0.2" d="M0,-25l21.650635094610966,12.499999999999996l3.552713678800501e-15,25l-21.650635094610955,12.500000000000005l-21.650635094610973,-12.49999999999999l-1.7763568394002505e-14,-24.999999999999993l21.650635094610948,-12.500000000000016Z" transform="scale(0.311028257973345)"/></g><g transform="translate(238.1569860407206,12.5)"><path fill="#111" fill-opacity="0.2" d="M0,-25l21.650635094610966,12.499999999999996l3.552713678800501e-15,25l-21.650635094610955,12.500000000000005l-21.650635094610973,-12.49999999999999l-1.7763568394002505e-14,-24.999999999999993l21.650635094610948,-12.500000000000016Z" transform="scale(0.5432351462425148)"/></g><g transform="translate(281.45825622994255,12.5)"><path fill="#111" fill-opacity="0.2" d="M0,-25l21.650635094610966,12.499999999999996l3.552713678800501e-15,25l-21.650635094610955,12.500000000000005l-21.650635094610973,-12.49999999999999l-1.7763568394002505e-14,-24.999999999999993l21.650635094610948,-12.500000000000016Z" transform="scale(0.8124759979913448)"/></g><g transform="translate(324.7595264191645,12.5)"><path fill="#111" fill-opacity="0.2" d="M0,-25l21.650635094610966,12.499999999999996l3.552713678800501e-15,25l-21.650635094610955,12.500000000000005l-21.650635094610973,-12.49999999999999l-1.7763568394002505e-14,-24.999999999999993l21.650635094610948,-12.500000000000016Z" transform="scale(1.0969210778781688)"/></g><g transform="translate(368.06079660838645,12.5)"><path fill="#111" fill-opacity="0.2" d="M0,-25l21.650635094610966,12.499999999999996l3.552713678800501e-15,25l-21.650635094610955,12.500000000000005l-21.650635094610973,-12.49999999999999l-1.7763568394002505e-14,-24.999999999999993l21.650635094610948,-12.500000000000016Z" transform="scale(1.3735079094146174)"/></g><g transform="translate(411.3620667976084,12.5)"><path fill="#111" fill-opacity="0.2" d="M0,-25l21.650635094610966,12.499999999999996l3.552713678800501e-15,25l-21.650635094610955,12.500000000000005l-21.650635094610973,-12.49999999999999l-1.7763568394002505e-14,-24.999999999999993l21.650635094610948,-12.500000000000016Z" transform="scale(1.6198111537555269)"/></g><g transform="translate(454.66333698683036,12.5)"><path fill="#111" fill-opacity="0.2" d="M0,-25l21.650635094610966,12.499999999999996l3.552713678800501e-15,25l-21.650635094610955,12.500000000000005l-21.650635094610973,-12.49999999999999l-1.7763568394002505e-14,-24.999999999999993l21.650635094610948,-12.500000000000016Z" transform="scale(1.815860830109231)"/></g><g transform="translate(497.9646071760523,12.5)"><path fill="#111" fill-opacity="0.2" d="M0,-25l21.650635094610966,12.499999999999996l3.552713678800501e-15,25l-21.650635094610955,12.500000000000005l-21.650635094610973,-12.49999999999999l-1.7763568394002505e-14,-24.999999999999993l21.650635094610948,-12.500000000000016Z" transform="scale(1.9457614585705818)"/></g><g transform="translate(541.2658773652743,12.5)"><path fill="#111" fill-opacity="0.2" d="M0,-25l21.650635094610966,12.499999999999996l3.552713678800501e-15,25l-21.650635094610955,12.500000000000005l-21.650635094610973,-12.49999999999999l-1.7763568394002505e-14,-24.999999999999993l21.650635094610948,-12.500000000000016Z" transform="scale(1.9989808471575392)"/></g><g transform="translate(0,50)"><path fill="#111" fill-opacity="0.2" d="M0,-25l21.650635094610966,12.499999999999996l3.552713678800501e-15,25l-21.650635094610955,12.500000000000005l-21.650635094610973,-12.49999999999999l-1.7763568394002505e-14,-24.999999999999993l21.650635094610948,-12.500000000000016Z" transform="scale(1.971204029696315)"/></g><g transform="translate(43.30127018922193,50)"><path fill="#111" fill-opacity="0.2" d="M0,-25l21.650635094610966,12.499999999999996l3.552713678800501e-15,25l-21.650635094610955,12.500000000000005l-21.650635094610973,-12.49999999999999l-1.7763568394002505e-14,-24.999999999999993l21.650635094610948,-12.500000000000016Z" transform="scale(1.8646831182637822)"/></g><g transform="translate(86.60254037844386,50)"><path fill="#111" fill-opacity="0.2" d="M0,-25l21.650635094610966,12.499999999999996l3.552713678800501e-15,25l-21.650635094610955,12.500000000000005l-21.650635094610973,-12.49999999999999l-1.7763568394002505e-14,-24.999999999999993l21.650635094610948,-12.500000000000016Z" transform="scale(1.6880547045577534)"/></g><g transform="translate(129.9038105676658,50)"><path fill="#111" fill-opacity="0.2" d="M0,-25l21.650635094610966,12.499999999999996l3.552713678800501e-15,25l-21.650635094610955,12.500000000000005l-21.650635094610973,-12.49999999999999l-1.7763568394002505e-14,-24.999999999999993l21.650635094610948,-12.500000000000016Z" transform="scale(1.4556396150797597)"/></g><g transform="translate(173.20508075688772,50)"><path fill="#111" fill-opacity="0.2" d="M0,-25l21.650635094610966,12.499999999999996l3.552713678800501e-15,25l-21.650635094610955,12.500000000000005l-21.650635094610973,-12.49999999999999l-1.7763568394002505e-14,-24.999999999999993l21.650635094610948,-12.500000000000016Z" transform="scale(1.1862817951663198)"/></g><g transform="translate(216.50635094610965,50)"><path fill="#111" fill-opacity="0.2" d="M0,-25l21.650635094610966,12.499999999999996l3.552713678800501e-15,25l-21.650635094610955,12.500000000000005l-21.650635094610973,-12.49999999999999l-1.7763568394002505e-14,-24.999999999999993l21.650635094610948,-12.500000000000016Z" transform="scale(0.9018204638019374)"/></g><g transform="translate(259.8076211353316,50)"><path fill="#111" fill-opacity="0.2" d="M0,-25l21.650635094610966,12.499999999999996l3.552713678800501e-15,25l-21.650635094610955,12.500000000000005l-21.650635094610973,-12.49999999999999l-1.7763568394002505e-14,-24.999999999999993l21.650635094610948,-12.500000000000016Z" transform="scale(0.6253194151258965)"/></g><g transform="translate(303.10889132455355,50)"><path fill="#111" fill-opacity="0.2" d="M0,-25l21.650635094610966,12.499999999999996l3.552713678800501e-15,25l-21.650635094610955,12.500000000000005l-21.650635094610973,-12.49999999999999l-1.7763568394002505e-14,-24.999999999999993l21.650635094610948,-12.500000000000016Z" transform="scale(0.37919703280874184)"/></g><g transform="translate(346.4101615137755,50)"><path fill="#111" fill-opacity="0.2" d="M0,-25l21.650635094610966,12.499999999999996l3.552713678800501e-15,25l-21.650635094610955,12.500000000000005l-21.650635094610973,-12.49999999999999l-1.7763568394002505e-14,-24.999999999999993l21.650635094610948,-12.500000000000016Z" transform="scale(0.1834086335594447)"/></g><g transform="translate(389.71143170299746,50)"><path fill="#111" fill-opacity="0.2" d="M0,-25l21.650635094610966,12.499999999999996l3.552713678800501e-15,25l-21.650635094610955,12.500000000000005l-21.650635094610973,-12.49999999999999l-1.7763568394002505e-14,-24.999999999999993l21.650635094610948,-12.500000000000016Z" transform="scale(0.05382851323920368)"/></g><g transform="translate(433.0127018922194,50)"><path fill="#111" fill-opacity="0.2" d="M0,-25l21.650635094610966,12.499999999999996l3.552713678800501e-15,25l-21.650635094610955,12.500000000000005l-21.650635094610973,-12.49999999999999l-1.7763568394002505e-14,-24.999999999999993l21.650635094610948,-12.500000000000016Z" transform="scale(0.0009628774024739162)"/></g><g transform="translate(476.31397208144136,50)"><path fill="#111" fill-opacity="0.2" d="M0,-25l21.650635094610966,12.499999999999996l3.552713678800501e-15,25l-21.650635094610955,12.500000000000005l-21.650635094610973,-12.49999999999999l-1.7763568394002505e-14,-24.999999999999993l21.650635094610948,-12.500000000000016Z" transform="scale(0.029098010361195414)"/></g><g transform="translate(519.6152422706633,50)"><path fill="#111" fill-opacity="0.2" d="M0,-25l21.650635094610966,12.499999999999996l3.552713678800501e-15,25l-21.650635094610955,12.500000000000005l-21.650635094610973,-12.49999999999999l-1.7763568394002505e-14,-24.999999999999993l21.650635094610948,-12.500000000000016Z" transform="scale(0.13595274823439707)"/></g><g transform="translate(-21.650635094610966,87.5)"><path fill="#111" fill-opacity="0.2" d="M0,-25l21.650635094610966,12.499999999999996l3.552713678800501e-15,25l-21.650635094610955,12.500000000000005l-21.650635094610973,-12.49999999999999l-1.7763568394002505e-14,-24.999999999999993l21.650635094610948,-12.500000000000016Z" transform="scale(0.3128634330644432)"/></g><g transform="translate(21.650635094610966,87.5)"><path fill="#111" fill-opacity="0.2" d="M0,-25l21.650635094610966,12.499999999999996l3.552713678800501e-15,25l-21.650635094610955,12.500000000000005l-21.650635094610973,-12.49999999999999l-1.7763568394002505e-14,-24.999999999999993l21.650635094610948,-12.500000000000016Z" transform="scale(0.5454863521351281)"/></g><g transform="translate(64.9519052838329,87.5)"><path fill="#111" fill-opacity="0.2" d="M0,-25l21.650635094610966,12.499999999999996l3.552713678800501e-15,25l-21.650635094610955,12.500000000000005l-21.650635094610973,-12.49999999999999l-1.7763568394002505e-14,-24.999999999999993l21.650635094610948,-12.500000000000016Z" transform="scale(0.8149607095281087)"/></g><g transform="translate(108.25317547305482,87.5)"><path fill="#111" fill-opacity="0.2" d="M0,-25l21.650635094610966,12.499999999999996l3.552713678800501e-15,25l-21.650635094610955,12.500000000000005l-21.650635094610973,-12.49999999999999l-1.7763568394002505e-14,-24.999999999999993l21.650635094610948,-12.500000000000016Z" transform="scale(1.0994378375354703)"/></g><g transform="translate(151.55444566227675,87.5)"><path fill="#111" fill-opacity="0.2" d="M0,-25l21.650635094610966,12.499999999999996l3.552713678800501e-15,25l-21.650635094610955,12.500000000000005l-21.650635094610973,-12.49999999999999l-1.7763568394002505e-14,-24.999999999999993l21.650635094610948,-12.500000000000016Z" transform="scale(1.3758526612444806)"/></g><g transform="translate(194.85571585149867,87.5)"><path fill="#111" fill-opacity="0.2" d="M0,-25l21.650635094610966,12.499999999999996l3.552713678800501e-15,25l-21.650635094610955,12.500000000000005l-21.650635094610973,-12.49999999999999l-1.7763568394002505e-14,-24.999999999999993l21.650635094610948,-12.500000000000016Z" transform="scale(1.6217937880047102)"/></g><g transform="translate(238.1569860407206,87.5)"><path fill="#111" fill-opacity="0.2" d="M0,-25l21.650635094610966,12.499999999999996l3.552713678800501e-15,25l-21.650635094610955,12.500000000000005l-21.650635094610973,-12.49999999999999l-1.7763568394002505e-14,-24.999999999999993l21.650635094610948,-12.500000000000016Z" transform="scale(1.8173205970970785)"/></g><g transform="translate(281.45825622994255,87.5)"><path fill="#111" fill-opacity="0.2" d="M0,-25l21.650635094610966,12.499999999999996l3.552713678800501e-15,25l-21.650635094610955,12.500000000000005l-21.650635094610973,-12.49999999999999l-1.7763568394002505e-14,-24.999999999999993l21.650635094610948,-12.500000000000016Z" transform="scale(1.946580002086295)"/></g><g transform="translate(324.7595264191645,87.5)"><path fill="#111" fill-opacity="0.2" d="M0,-25l21.650635094610966,12.499999999999996l3.552713678800501e-15,25l-21.650635094610955,12.500000000000005l-21.650635094610973,-12.49999999999999l-1.7763568394002505e-14,-24.999999999999993l21.650635094610948,-12.500000000000016Z" transform="scale(1.999091800644195)"/></g><g transform="translate(368.06079660838645,87.5)"><path fill="#111" fill-opacity="0.2" d="M0,-25l21.650635094610966,12.499999999999996l3.552713678800501e-15,25l-21.650635094610955,12.500000000000005l-21.650635094610973,-12.49999999999999l-1.7763568394002505e-14,-24.999999999999993l21.650635094610948,-12.500000000000016Z" transform="scale(1.9705983971741659)"/></g><g transform="translate(411.3620667976084,87.5)"><path fill="#111" fill-opacity="0.2" d="M0,-25l21.650635094610966,12.499999999999996l3.552713678800501e-15,25l-21.650635094610955,12.500000000000005l-21.650635094610973,-12.49999999999999l-1.7763568394002505e-14,-24.999999999999993l21.650635094610948,-12.500000000000016Z" transform="scale(1.863410003713847)"/></g><g transform="translate(454.66333698683036,87.5)"><path fill="#111" fill-opacity="0.2" d="M0,-25l21.650635094610966,12.499999999999996l3.552713678800501e-15,25l-21.650635094610955,12.500000000000005l-21.650635094610973,-12.49999999999999l-1.7763568394002505e-14,-24.999999999999993l21.650635094610948,-12.500000000000016Z" transform="scale(1.6862173306280954)"/></g><g transform="translate(497.9646071760523,87.5)"><path fill="#111" fill-opacity="0.2" d="M0,-25l21.650635094610966,12.499999999999996l3.552713678800501e-15,25l-21.650635094610955,12.500000000000005l-21.650635094610973,-12.49999999999999l-1.7763568394002505e-14,-24.999999999999993l21.650635094610948,-12.500000000000016Z" transform="scale(1.4533869539131554)"/></g><g transform="translate(541.2658773652743,87.5)"><path fill="#111" fill-opacity="0.2" d="M0,-25l21.650635094610966,12.499999999999996l3.552713678800501e-15,25l-21.650635094610955,12.500000000000005l-21.650635094610973,-12.49999999999999l-1.7763568394002505e-14,-24.999999999999993l21.650635094610948,-12.500000000000016Z" transform="scale(1.1837964899120614)"/></g><g transform="translate(0,125)"><path fill="#111" fill-opacity="0.2" d="M0,-25l21.650635094610966,12.499999999999996l3.552713678800501e-15,25l-21.650635094610955,12.500000000000005l-21.650635094610973,-12.49999999999999l-1.7763568394002505e-14,-24.999999999999993l21.650635094610948,-12.500000000000016Z" transform="scale(0.8993040201215587)"/></g><g transform="translate(43.30127018922193,125)"><path fill="#111" fill-opacity="0.2" d="M0,-25l21.650635094610966,12.499999999999996l3.552713678800501e-15,25l-21.650635094610955,12.500000000000005l-21.650635094610973,-12.49999999999999l-1.7763568394002505e-14,-24.999999999999993l21.650635094610948,-12.500000000000016Z" transform="scale(0.6229758633483322)"/></g><g transform="translate(86.60254037844386,125)"><path fill="#111" fill-opacity="0.2" d="M0,-25l21.650635094610966,12.499999999999996l3.552713678800501e-15,25l-21.650635094610955,12.500000000000005l-21.650635094610973,-12.49999999999999l-1.7763568394002505e-14,-24.999999999999993l21.650635094610948,-12.500000000000016Z" transform="scale(0.3772163853883792)"/></g><g transform="translate(129.9038105676658,125)"><path fill="#111" fill-opacity="0.2" d="M0,-25l21.650635094610966,12.499999999999996l3.552713678800501e-15,25l-21.650635094610955,12.500000000000005l-21.650635094610973,-12.49999999999999l-1.7763568394002505e-14,-24.999999999999993l21.650635094610948,-12.500000000000016Z" transform="scale(0.181951479087186)"/></g><g transform="translate(173.20508075688772,125)"><path fill="#111" fill-opacity="0.2" d="M0,-25l21.650635094610966,12.499999999999996l3.552713678800501e-15,25l-21.650635094610955,12.500000000000005l-21.650635094610973,-12.49999999999999l-1.7763568394002505e-14,-24.999999999999993l21.650635094610948,-12.500000000000016Z" transform="scale(0.05301299610610655)"/></g><g transform="translate(216.50635094610965,125)"><path fill="#111" fill-opacity="0.2" d="M0,-25l21.650635094610966,12.499999999999996l3.552713678800501e-15,25l-21.650635094610955,12.500000000000005l-21.650635094610973,-12.49999999999999l-1.7763568394002505e-14,-24.999999999999993l21.650635094610948,-12.500000000000016Z" transform="scale(0.0008551187898805379)"/></g><g transform="translate(259.8076211353316,125)"><path fill="#111" fill-opacity="0.2" d="M0,-25l21.650635094610966,12.499999999999996l3.552713678800501e-15,25l-21.650635094610955,12.500000000000005l-21.650635094610973,-12.49999999999999l-1.7763568394002505e-14,-24.999999999999993l21.650635094610948,-12.500000000000016Z" transform="scale(0.029706747212175255)"/></g><g transform="translate(303.10889132455355,125)"><path fill="#111" fill-opacity="0.2" d="M0,-25l21.650635094610966,12.499999999999996l3.552713678800501e-15,25l-21.650635094610955,12.500000000000005l-21.650635094610973,-12.49999999999999l-1.7763568394002505e-14,-24.999999999999993l21.650635094610948,-12.500000000000016Z" transform="scale(0.13722862487256116)"/></g><g transform="translate(346.4101615137755,125)"><path fill="#111" fill-opacity="0.2" d="M0,-25l21.650635094610966,12.499999999999996l3.552713678800501e-15,25l-21.650635094610955,12.500000000000005l-21.650635094610973,-12.49999999999999l-1.7763568394002505e-14,-24.999999999999993l21.650635094610948,-12.500000000000016Z" transform="scale(0.31470300289482345)"/></g><g transform="translate(389.71143170299746,125)"><path fill="#111" fill-opacity="0.2" d="M0,-25l21.650635094610966,12.499999999999996l3.552713678800501e-15,25l-21.650635094610955,12.500000000000005l-21.650635094610973,-12.49999999999999l-1.7763568394002505e-14,-24.999999999999993l21.650635094610948,-12.500000000000016Z" transform="scale(0.5477404649738754)"/></g><g transform="translate(433.0127018922194,125)"><path fill="#111" fill-opacity="0.2" d="M0,-25l21.650635094610966,12.499999999999996l3.552713678800501e-15,25l-21.650635094610955,12.500000000000005l-21.650635094610973,-12.49999999999999l-1.7763568394002505e-14,-24.999999999999993l21.650635094610948,-12.500000000000016Z" transform="scale(0.817446604526022)"/></g><g transform="translate(476.31397208144136,125)"><path fill="#111" fill-opacity="0.2" d="M0,-25l21.650635094610966,12.499999999999996l3.552713678800501e-15,25l-21.650635094610955,12.500000000000005l-21.650635094610973,-12.49999999999999l-1.7763568394002505e-14,-24.999999999999993l21.650635094610948,-12.500000000000016Z" transform="scale(1.1019539612153049)"/></g><g transform="translate(519.6152422706633,125)"><path fill="#111" fill-opacity="0.2" d="M0,-25l21.650635094610966,12.499999999999996l3.552713678800501e-15,25l-21.650635094610955,12.500000000000005l-21.650635094610973,-12.49999999999999l-1.7763568394002505e-14,-24.999999999999993l21.650635094610948,-12.500000000000016Z" transform="scale(1.3781950092225677)"/></g><g transform="translate(-21.650635094610966,162.5)"><path fill="#111" fill-opacity="0.2" d="M0,-25l21.650635094610966,12.499999999999996l3.552713678800501e-15,25l-21.650635094610955,12.500000000000005l-21.650635094610973,-12.49999999999999l-1.7763568394002505e-14,-24.999999999999993l21.650635094610948,-12.500000000000016Z" transform="scale(1.6237724454293185)"/></g><g transform="translate(21.650635094610966,162.5)"><path fill="#111" fill-opacity="0.2" d="M0,-25l21.650635094610966,12.499999999999996l3.552713678800501e-15,25l-21.650635094610955,12.500000000000005l-21.650635094610973,-12.49999999999999l-1.7763568394002505e-14,-24.999999999999993l21.650635094610948,-12.500000000000016Z" transform="scale(1.8187751367238643)"/></g><g transform="translate(64.9519052838329,162.5)"><path fill="#111" fill-opacity="0.2" d="M0,-25l21.650635094610966,12.499999999999996l3.552713678800501e-15,25l-21.650635094610955,12.500000000000005l-21.650635094610973,-12.49999999999999l-1.7763568394002505e-14,-24.999999999999993l21.650635094610948,-12.500000000000016Z" transform="scale(1.9473924915328187)"/></g><g transform="translate(108.25317547305482,162.5)"><path fill="#111" fill-opacity="0.2" d="M0,-25l21.650635094610966,12.499999999999996l3.552713678800501e-15,25l-21.650635094610955,12.500000000000005l-21.650635094610973,-12.49999999999999l-1.7763568394002505e-14,-24.999999999999993l21.650635094610948,-12.500000000000016Z" transform="scale(1.9991963642104276)"/></g><g transform="translate(151.55444566227675,162.5)"><path fill="#111" fill-opacity="0.2" d="M0,-25l21.650635094610966,12.499999999999996l3.552713678800501e-15,25l-21.650635094610955,12.500000000000005l-21.650635094610973,-12.49999999999999l-1.7763568394002505e-14,-24.999999999999993l21.650635094610948,-12.500000000000016Z" transform="scale(1.9699865569676847)"/></g><g transform="translate(194.85571585149867,162.5)"><path fill="#111" fill-opacity="0.2" d="M0,-25l21.650635094610966,12.499999999999996l3.552713678800501e-15,25l-21.650635094610955,12.500000000000005l-21.650635094610973,-12.49999999999999l-1.7763568394002505e-14,-24.999999999999993l21.650635094610948,-12.500000000000016Z" transform="scale(1.862131367027495)"/></g><g transform="translate(238.1569860407206,162.5)"><path fill="#111" fill-opacity="0.2" d="M0,-25l21.650635094610966,12.499999999999996l3.552713678800501e-15,25l-21.650635094610955,12.500000000000005l-21.650635094610973,-12.49999999999999l-1.7763568394002505e-14,-24.999999999999993l21.650635094610948,-12.500000000000016Z" transform="scale(1.6843755678383416)"/></g><g transform="translate(281.45825622994255,162.5)"><path fill="#111" fill-opacity="0.2" d="M0,-25l21.650635094610966,12.499999999999996l3.552713678800501e-15,25l-21.650635094610955,12.500000000000005l-21.650635094610973,-12.49999999999999l-1.7763568394002505e-14,-24.999999999999993l21.650635094610948,-12.500000000000016Z" transform="scale(1.4511313930064529)"/></g><g transform="translate(324.7595264191645,162.5)"><path fill="#111" fill-opacity="0.2" d="M0,-25l21.650635094610966,12.499999999999996l3.552713678800501e-15,25l-21.650635094610955,12.500000000000005l-21.650635094610973,-12.49999999999999l-1.7763568394002505e-14,-24.999999999999993l21.650635094610948,-12.500000000000016Z" transform="scale(1.1813100091452584)"/></g><g transform="translate(368.06079660838645,162.5)"><path fill="#111" fill-opacity="0.2" d="M0,-25l21.650635094610966,12.499999999999996l3.552713678800501e-15,25l-21.650635094610955,12.500000000000005l-21.650635094610973,-12.49999999999999l-1.7763568394002505e-14,-24.999999999999993l21.650635094610948,-12.500000000000016Z" transform="scale(0.8967882204653809)"/></g><g transform="translate(411.3620667976084,162.5)"><path fill="#111" fill-opacity="0.2" d="M0,-25l21.650635094610966,12.499999999999996l3.552713678800501e-15,25l-21.650635094610955,12.500000000000005l-21.650635094610973,-12.49999999999999l-1.7763568394002505e-14,-24.999999999999993l21.650635094610948,-12.500000000000016Z" transform="scale(0.6206347229149732)"/></g><g transform="translate(454.66333698683036,162.5)"><path fill="#111" fill-opacity="0.2" d="M0,-25l21.650635094610966,12.499999999999996l3.552713678800501e-15,25l-21.650635094610955,12.500000000000005l-21.650635094610973,-12.49999999999999l-1.7763568394002505e-14,-24.999999999999993l21.650635094610948,-12.500000000000016Z" transform="scale(0.375239721123265)"/></g><g transform="translate(497.9646071760523,162.5)"><path fill="#111" fill-opacity="0.2" d="M0,-25l21.650635094610966,12.499999999999996l3.552713678800501e-15,25l-21.650635094610955,12.500000000000005l-21.650635094610973,-12.49999999999999l-1.7763568394002505e-14,-24.999999999999993l21.650635094610948,-12.500000000000016Z" transform="scale(0.18049955663158435)"/></g><g transform="translate(541.2658773652743,162.5)"><path fill="#111" fill-opacity="0.2" d="M0,-25l21.650635094610966,12.499999999999996l3.552713678800501e-15,25l-21.650635094610955,12.500000000000005l-21.650635094610973,-12.49999999999999l-1.7763568394002505e-14,-24.999999999999993l21.650635094610948,-12.500000000000016Z" transform="scale(0.05220353564527214)"/></g><g transform="translate(0,200)"><path fill="#111" fill-opacity="0.2" d="M0,-25l21.650635094610966,12.499999999999996l3.552713678800501e-15,25l-21.650635094610955,12.500000000000005l-21.650635094610973,-12.49999999999999l-1.7763568394002505e-14,-24.999999999999993l21.650635094610948,-12.500000000000016Z" transform="scale(0.0007537504371993853)"/></g><g transform="translate(43.30127018922193,200)"><path fill="#111" fill-opacity="0.2" d="M0,-25l21.650635094610966,12.499999999999996l3.552713678800501e-15,25l-21.650635094610955,12.500000000000005l-21.650635094610973,-12.49999999999999l-1.7763568394002505e-14,-24.999999999999993l21.650635094610948,-12.500000000000016Z" transform="scale(0.03032168979587002)"/></g><g transform="translate(86.60254037844386,200)"><path fill="#111" fill-opacity="0.2" d="M0,-25l21.650635094610966,12.499999999999996l3.552713678800501e-15,25l-21.650635094610955,12.500000000000005l-21.650635094610973,-12.49999999999999l-1.7763568394002505e-14,-24.999999999999993l21.650635094610948,-12.500000000000016Z" transform="scale(0.13851001956264697)"/></g><g transform="translate(129.9038105676658,200)"><path fill="#111" fill-opacity="0.2" d="M0,-25l21.650635094610966,12.499999999999996l3.552713678800501e-15,25l-21.650635094610955,12.500000000000005l-21.650635094610973,-12.49999999999999l-1.7763568394002505e-14,-24.999999999999993l21.650635094610948,-12.500000000000016Z" transform="scale(0.31654695569910063)"/></g><g transform="translate(173.20508075688772,200)"><path fill="#111" fill-opacity="0.2" d="M0,-25l21.650635094610966,12.499999999999996l3.552713678800501e-15,25l-21.650635094610955,12.500000000000005l-21.650635094610973,-12.49999999999999l-1.7763568394002505e-14,-24.999999999999993l21.650635094610948,-12.500000000000016Z" transform="scale(0.5499974703420429)"/></g><g transform="translate(216.50635094610965,200)"><path fill="#111" fill-opacity="0.2" d="M0,-25l21.650635094610966,12.499999999999996l3.552713678800501e-15,25l-21.650635094610955,12.500000000000005l-21.650635094610973,-12.49999999999999l-1.7763568394002505e-14,-24.999999999999993l21.650635094610948,-12.500000000000016Z" transform="scale(0.8199336670859986)"/></g><g transform="translate(259.8076211353316,200)"><path fill="#111" fill-opacity="0.2" d="M0,-25l21.650635094610966,12.499999999999996l3.552713678800501e-15,25l-21.650635094610955,12.500000000000005l-21.650635094610973,-12.49999999999999l-1.7763568394002505e-14,-24.999999999999993l21.650635094610948,-12.500000000000016Z" transform="scale(1.1044694328252311)"/></g><g transform="translate(303.10889132455355,200)"><path fill="#111" fill-opacity="0.2" d="M0,-25l21.650635094610966,12.499999999999996l3.552713678800501e-15,25l-21.650635094610955,12.500000000000005l-21.650635094610973,-12.49999999999999l-1.7763568394002505e-14,-24.999999999999993l21.650635094610948,-12.500000000000016Z" transform="scale(1.380534938367859)"/></g><g transform="translate(346.4101615137755,200)"><path fill="#111" fill-opacity="0.2" d="M0,-25l21.650635094610966,12.499999999999996l3.552713678800501e-15,25l-21.650635094610955,12.500000000000005l-21.650635094610973,-12.49999999999999l-1.7763568394002505e-14,-24.999999999999993l21.650635094610948,-12.500000000000016Z" transform="scale(1.6257471133743961)"/></g><g transform="translate(389.71143170299746,200)"><path fill="#111" fill-opacity="0.2" d="M0,-25l21.650635094610966,12.499999999999996l3.552713678800501e-15,25l-21.650635094610955,12.500000000000005l-21.650635094610973,-12.49999999999999l-1.7763568394002505e-14,-24.999999999999993l21.650635094610948,-12.500000000000016Z" transform="scale(1.8202244396867473)"/></g><g transform="translate(433.0127018922194,200)"><path fill="#111" fill-opacity="0.2" d="M0,-25l21.650635094610966,12.499999999999996l3.552713678800501e-15,25l-21.650635094610955,12.500000000000005l-21.650635094610973,-12.49999999999999l-1.7763568394002505e-14,-24.999999999999993l21.650635094610948,-12.500000000000016Z" transform="scale(1.9481989217136932)"/></g><g transform="translate(476.31397208144136,200)"><path fill="#111" fill-opacity="0.2" d="M0,-25l21.650635094610966,12.499999999999996l3.552713678800501e-15,25l-21.650635094610955,12.500000000000005l-21.650635094610973,-12.49999999999999l-1.7763568394002505e-14,-24.999999999999993l21.650635094610948,-12.500000000000016Z" transform="scale(1.999294537187476)"/></g><g transform="translate(519.6152422706633,200)"><path fill="#111" fill-opacity="0.2" d="M0,-25l21.650635094610966,12.499999999999996l3.552713678800501e-15,25l-21.650635094610955,12.500000000000005l-21.650635094610973,-12.49999999999999l-1.7763568394002505e-14,-24.999999999999993l21.650635094610948,-12.500000000000016Z" transform="scale(1.9693685129900282)"/></g><g transform="translate(-21.650635094610966,237.5)"><path fill="#111" fill-opacity="0.2" d="M0,-25l21.650635094610966,12.499999999999996l3.552713678800501e-15,25l-21.650635094610955,12.500000000000005l-21.650635094610973,-12.49999999999999l-1.7763568394002505e-14,-24.999999999999993l21.650635094610948,-12.500000000000016Z" transform="scale(1.8608472163825396)"/></g><g transform="translate(21.650635094610966,237.5)"><path fill="#111" fill-opacity="0.2" d="M0,-25l21.650635094610966,12.499999999999996l3.552713678800501e-15,25l-21.650635094610955,12.500000000000005l-21.650635094610973,-12.49999999999999l-1.7763568394002505e-14,-24.999999999999993l21.650635094610948,-12.500000000000016Z" transform="scale(1.682529427967908)"/></g><g transform="translate(64.9519052838329,237.5)"><path fill="#111" fill-opacity="0.2" d="M0,-25l21.650635094610966,12.499999999999996l3.552713678800501e-15,25l-21.650635094610955,12.500000000000005l-21.650635094610973,-12.49999999999999l-1.7763568394002505e-14,-24.999999999999993l21.650635094610948,-12.500000000000016Z" transform="scale(1.4488729467856079)"/></g><g transform="translate(108.25317547305482,237.5)"><path fill="#111" fill-opacity="0.2" d="M0,-25l21.650635094610966,12.499999999999996l3.552713678800501e-15,25l-21.650635094610955,12.500000000000005l-21.650635094610973,-12.49999999999999l-1.7763568394002505e-14,-24.999999999999993l21.650635094610948,-12.500000000000016Z" transform="scale(1.1788223687687684)"/></g><g transform="translate(151.55444566227675,237.5)"><path fill="#111" fill-opacity="0.2" d="M0,-25l21.650635094610966,12.499999999999996l3.552713678800501e-15,25l-21.650635094610955,12.500000000000005l-21.650635094610973,-12.49999999999999l-1.7763568394002505e-14,-24.999999999999993l21.650635094610948,-12.500000000000016Z" transform="scale(0.8942730809237694)"/></g><g transform="translate(194.85571585149867,237.5)"><path fill="#111" fill-opacity="0.2" d="M0,-25l21.650635094610966,12.499999999999996l3.552713678800501e-15,25l-21.650635094610955,12.500000000000005l-21.650635094610973,-12.49999999999999l-1.7763568394002505e-14,-24.999999999999993l21.650635094610948,-12.500000000000016Z" transform="scale(0.6182960087991394)"/></g><g transform="translate(238.1569860407206,237.5)"><path fill="#111" fill-opacity="0.2" d="M0,-25l21.650635094610966,12.499999999999996l3.552713678800501e-15,25l-21.650635094610955,12.500000000000005l-21.650635094610973,-12.49999999999999l-1.7763568394002505e-14,-24.999999999999993l21.650635094610948,-12.500000000000016Z" transform="scale(0.3732670526555859)"/></g><g transform="translate(281.45825622994255,237.5)"><path fill="#111" fill-opacity="0.2" d="M0,-25l21.650635094610966,12.499999999999996l3.552713678800501e-15,25l-21.650635094610955,12.500000000000005l-21.650635094610973,-12.49999999999999l-1.7763568394002505e-14,-24.999999999999993l21.650635094610948,-12.500000000000016Z" transform="scale(0.17905287547875437)"/></g><g transform="translate(324.7595264191645,237.5)"><path fill="#111" fill-opacity="0.2" d="M0,-25l21.650635094610966,12.499999999999996l3.552713678800501e-15,25l-21.650635094610955,12.500000000000005l-21.650635094610973,-12.49999999999999l-1.7763568394002505e-14,-24.999999999999993l21.650635094610948,-12.500000000000016Z" transform="scale(0.05140013703378987)"/></g><g transform="translate(368.06079660838645,237.5)"><path fill="#111" fill-opacity="0.2" d="M0,-25l21.650635094610966,12.499999999999996l3.552713678800501e-15,25l-21.650635094610955,12.500000000000005l-21.650635094610973,-12.49999999999999l-1.7763568394002505e-14,-24.999999999999993l21.650635094610948,-12.500000000000016Z" transform="scale(0.0006587729927548525)"/></g><g transform="translate(411.3620667976084,237.5)"><path fill="#111" fill-opacity="0.2" d="M0,-25l21.650635094610966,12.499999999999996l3.552713678800501e-15,25l-21.650635094610955,12.500000000000005l-21.650635094610973,-12.49999999999999l-1.7763568394002505e-14,-24.999999999999993l21.650635094610948,-12.500000000000016Z" transform="scale(0.03094283417927368)"/></g><g transform="translate(454.66333698683036,237.5)"><path fill="#111" fill-opacity="0.2" d="M0,-25l21.650635094610966,12.499999999999996l3.552713678800501e-15,25l-21.650635094610955,12.500000000000005l-21.650635094610973,-12.49999999999999l-1.7763568394002505e-14,-24.999999999999993l21.650635094610948,-12.500000000000016Z" transform="scale(0.13979692410920486)"/></g><g transform="translate(497.9646071760523,237.5)"><path fill="#111" fill-opacity="0.2" d="M0,-25l21.650635094610966,12.499999999999996l3.552713678800501e-15,25l-21.650635094610955,12.500000000000005l-21.650635094610973,-12.49999999999999l-1.7763568394002505e-14,-24.999999999999993l21.650635094610948,-12.500000000000016Z" transform="scale(0.31839527968383685)"/></g><g transform="translate(541.2658773652743,237.5)"><path fill="#111" fill-opacity="0.2" d="M0,-25l21.650635094610966,12.499999999999996l3.552713678800501e-15,25l-21.650635094610955,12.500000000000005l-21.650635094610973,-12.49999999999999l-1.7763568394002505e-14,-24.999999999999993l21.650635094610948,-12.500000000000016Z" transform="scale(0.5522573538044611)"/></g><g transform="translate(0,275)"><path fill="#111" fill-opacity="0.2" d="M0,-25l21.650635094610966,12.499999999999996l3.552713678800501e-15,25l-21.650635094610955,12.500000000000005l-21.650635094610973,-12.49999999999999l-1.7763568394002505e-14,-24.999999999999993l21.650635094610948,-12.500000000000016Z" transform="scale(0.822421881301439)"/></g><g transform="translate(43.30127018922193,275)"><path fill="#111" fill-opacity="0.2" d="M0,-25l21.650635094610966,12.499999999999996l3.552713678800501e-15,25l-21.650635094610955,12.500000000000005l-21.650635094610973,-12.49999999999999l-1.7763568394002505e-14,-24.999999999999993l21.650635094610948,-12.500000000000016Z" transform="scale(1.1069842362769742)"/></g><g transform="translate(86.60254037844386,275)"><path fill="#111" fill-opacity="0.2" d="M0,-25l21.650635094610966,12.499999999999996l3.552713678800501e-15,25l-21.650635094610955,12.500000000000005l-21.650635094610973,-12.49999999999999l-1.7763568394002505e-14,-24.999999999999993l21.650635094610948,-12.500000000000016Z" transform="scale(1.3828724337148015)"/></g><g transform="translate(129.9038105676658,275)"><path fill="#111" fill-opacity="0.2" d="M0,-25l21.650635094610966,12.499999999999996l3.552713678800501e-15,25l-21.650635094610955,12.500000000000005l-21.650635094610973,-12.49999999999999l-1.7763568394002505e-14,-24.999999999999993l21.650635094610948,-12.500000000000016Z" transform="scale(1.627717779210501)"/></g><g transform="translate(173.20508075688772,275)"><path fill="#111" fill-opacity="0.2" d="M0,-25l21.650635094610966,12.499999999999996l3.552713678800501e-15,25l-21.650635094610955,12.500000000000005l-21.650635094610973,-12.49999999999999l-1.7763568394002505e-14,-24.999999999999993l21.650635094610948,-12.500000000000016Z" transform="scale(1.821668496716382)"/></g><g transform="translate(216.50635094610965,275)"><path fill="#111" fill-opacity="0.2" d="M0,-25l21.650635094610966,12.499999999999996l3.552713678800501e-15,25l-21.650635094610955,12.500000000000005l-21.650635094610973,-12.49999999999999l-1.7763568394002505e-14,-24.999999999999993l21.650635094610948,-12.500000000000016Z" transform="scale(1.9489992874712028)"/></g><g transform="translate(259.8076211353316,275)"><path fill="#111" fill-opacity="0.2" d="M0,-25l21.650635094610966,12.499999999999996l3.552713678800501e-15,25l-21.650635094610955,12.500000000000005l-21.650635094610973,-12.49999999999999l-1.7763568394002505e-14,-24.999999999999993l21.650635094610948,-12.500000000000016Z" transform="scale(1.9993863189474539)"/></g><g transform="translate(303.10889132455355,275)"><path fill="#111" fill-opacity="0.2" d="M0,-25l21.650635094610966,12.499999999999996l3.552713678800501e-15,25l-21.650635094610955,12.500000000000005l-21.650635094610973,-12.49999999999999l-1.7763568394002505e-14,-24.999999999999993l21.650635094610948,-12.500000000000016Z" transform="scale(1.9687442691940455)"/></g><g transform="translate(346.4101615137755,275)"><path fill="#111" fill-opacity="0.2" d="M0,-25l21.650635094610966,12.499999999999996l3.552713678800501e-15,25l-21.650635094610955,12.500000000000005l-21.650635094610973,-12.49999999999999l-1.7763568394002505e-14,-24.999999999999993l21.650635094610948,-12.500000000000016Z" transform="scale(1.8595575599920604)"/></g><g transform="translate(389.71143170299746,275)"><path fill="#111" fill-opacity="0.2" d="M0,-25l21.650635094610966,12.499999999999996l3.552713678800501e-15,25l-21.650635094610955,12.500000000000005l-21.650635094610973,-12.49999999999999l-1.7763568394002505e-14,-24.999999999999993l21.650635094610948,-12.500000000000016Z" transform="scale(1.6806789228241996)"/></g><g transform="translate(433.0127018922194,275)"><path fill="#111" fill-opacity="0.2" d="M0,-25l21.650635094610966,12.499999999999996l3.552713678800501e-15,25l-21.650635094610955,12.500000000000005l-21.650635094610973,-12.49999999999999l-1.7763568394002505e-14,-24.999999999999993l21.650635094610948,-12.500000000000016Z" transform="scale(1.446611629695031)"/></g><g transform="translate(476.31397208144136,275)"><path fill="#111" fill-opacity="0.2" d="M0,-25l21.650635094610966,12.499999999999996l3.552713678800501e-15,25l-21.650635094610955,12.500000000000005l-21.650635094610973,-12.49999999999999l-1.7763568394002505e-14,-24.999999999999993l21.650635094610948,-12.500000000000016Z" transform="scale(1.1763335846928582)"/></g><g transform="translate(519.6152422706633,275)"><path fill="#111" fill-opacity="0.2" d="M0,-25l21.650635094610966,12.499999999999996l3.552713678800501e-15,25l-21.650635094610955,12.500000000000005l-21.650635094610973,-12.49999999999999l-1.7763568394002505e-14,-24.999999999999993l21.650635094610948,-12.500000000000016Z" transform="scale(0.8917586175828968)"/></g><g transform="translate(-21.650635094610966,312.5)"><path fill="#111" fill-opacity="0.2" d="M0,-25l21.650635094610966,12.499999999999996l3.552713678800501e-15,25l-21.650635094610955,12.500000000000005l-21.650635094610973,-12.49999999999999l-1.7763568394002505e-14,-24.999999999999993l21.650635094610948,-12.500000000000016Z" transform="scale(0.615959735958586)"/></g><g transform="translate(21.650635094610966,312.5)"><path fill="#111" fill-opacity="0.2" d="M0,-25l21.650635094610966,12.499999999999996l3.552713678800501e-15,25l-21.650635094610955,12.500000000000005l-21.650635094610973,-12.49999999999999l-1.7763568394002505e-14,-24.999999999999993l21.650635094610948,-12.500000000000016Z" transform="scale(0.37129839260201714)"/></g><g transform="translate(64.9519052838329,312.5)"><path fill="#111" fill-opacity="0.2" d="M0,-25l21.650635094610966,12.499999999999996l3.552713678800501e-15,25l-21.650635094610955,12.500000000000005l-21.650635094610973,-12.49999999999999l-1.7763568394002505e-14,-24.999999999999993l21.650635094610948,-12.500000000000016Z" transform="scale(0.17761144488127278)"/></g><g transform="translate(108.25317547305482,312.5)"><path fill="#111" fill-opacity="0.2" d="M0,-25l21.650635094610966,12.499999999999996l3.552713678800501e-15,25l-21.650635094610955,12.500000000000005l-21.650635094610973,-12.49999999999999l-1.7763568394002505e-14,-24.999999999999993l21.650635094610948,-12.500000000000016Z" transform="scale(0.050602805409977525)"/></g><g transform="translate(151.55444566227675,312.5)"><path fill="#111" fill-opacity="0.2" d="M0,-25l21.650635094610966,12.499999999999996l3.552713678800501e-15,25l-21.650635094610955,12.500000000000005l-21.650635094610973,-12.49999999999999l-1.7763568394002505e-14,-24.999999999999993l21.650635094610948,-12.500000000000016Z" transform="scale(0.0005701870639969187)"/></g><g transform="translate(194.85571585149867,312.5)"><path fill="#111" fill-opacity="0.2" d="M0,-25l21.650635094610966,12.499999999999996l3.552713678800501e-15,25l-21.650635094610955,12.500000000000005l-21.650635094610973,-12.49999999999999l-1.7763568394002505e-14,-24.999999999999993l21.650635094610948,-12.500000000000016Z" transform="scale(0.03157017638971682)"/></g><g transform="translate(238.1569860407206,312.5)"><path fill="#111" fill-opacity="0.2" d="M0,-25l21.650635094610966,12.499999999999996l3.552713678800501e-15,25l-21.650635094610955,12.500000000000005l-21.650635094610973,-12.49999999999999l-1.7763568394002505e-14,-24.999999999999993l21.650635094610948,-12.500000000000016Z" transform="scale(0.14108933028153126)"/></g><g transform="translate(281.45825622994255,312.5)"><path fill="#111" fill-opacity="0.2" d="M0,-25l21.650635094610966,12.499999999999996l3.552713678800501e-15,25l-21.650635094610955,12.500000000000005l-21.650635094610973,-12.49999999999999l-1.7763568394002505e-14,-24.999999999999993l21.650635094610948,-12.500000000000016Z" transform="scale(0.32024796302767355)"/></g><g transform="translate(324.7595264191645,312.5)"><path fill="#111" fill-opacity="0.2" d="M0,-25l21.650635094610966,12.499999999999996l3.552713678800501e-15,25l-21.650635094610955,12.500000000000005l-21.650635094610973,-12.49999999999999l-1.7763568394002505e-14,-24.999999999999993l21.650635094610948,-12.500000000000016Z" transform="scale(0.5545201009075025)"/></g><g transform="translate(368.06079660838645,312.5)"><path fill="#111" fill-opacity="0.2" d="M0,-25l21.650635094610966,12.499999999999996l3.552713678800501e-15,25l-21.650635094610955,12.500000000000005l-21.650635094610973,-12.49999999999999l-1.7763568394002505e-14,-24.999999999999993l21.650635094610948,-12.500000000000016Z" transform="scale(0.8249112312584066)"/></g><g transform="translate(411.3620667976084,312.5)"><path fill="#111" fill-opacity="0.2" d="M0,-25l21.650635094610966,12.499999999999996l3.552713678800501e-15,25l-21.650635094610955,12.500000000000005l-21.650635094610973,-12.49999999999999l-1.7763568394002505e-14,-24.999999999999993l21.650635094610948,-12.500000000000016Z" transform="scale(1.1094983554865396)"/></g><g transform="translate(454.66333698683036,312.5)"><path fill="#111" fill-opacity="0.2" d="M0,-25l21.650635094610966,12.499999999999996l3.552713678800501e-15,25l-21.650635094610955,12.500000000000005l-21.650635094610973,-12.49999999999999l-1.7763568394002505e-14,-24.999999999999993l21.650635094610948,-12.500000000000016Z" transform="scale(1.385207480313409)"/></g><g transform="translate(497.9646071760523,312.5)"><path fill="#111" fill-opacity="0.2" d="M0,-25l21.650635094610966,12.499999999999996l3.552713678800501e-15,25l-21.650635094610955,12.500000000000005l-21.650635094610973,-12.49999999999999l-1.7763568394002505e-14,-24.999999999999993l21.650635094610948,-12.500000000000016Z" transform="scale(1.629684430333795)"/></g><g transform="translate(541.2658773652743,312.5)"><path fill="#111" fill-opacity="0.2" d="M0,-25l21.650635094610966,12.499999999999996l3.552713678800501e-15,25l-21.650635094610955,12.500000000000005l-21.650635094610973,-12.49999999999999l-1.7763568394002505e-14,-24.999999999999993l21.650635094610948,-12.500000000000016Z" transform="scale(1.8231072985769596)"/></g><g transform="translate(0,350)"><path fill="#111" fill-opacity="0.2" d="M0,-25l21.650635094610966,12.499999999999996l3.552713678800501e-15,25l-21.650635094610955,12.500000000000005l-21.650635094610973,-12.49999999999999l-1.7763568394002505e-14,-24.999999999999993l21.650635094610948,-12.500000000000016Z" transform="scale(1.9497935836864335)"/></g><g transform="translate(43.30127018922193,350)"><path fill="#111" fill-opacity="0.2" d="M0,-25l21.650635094610966,12.499999999999996l3.552713678800501e-15,25l-21.650635094610955,12.500000000000005l-21.650635094610973,-12.49999999999999l-1.7763568394002505e-14,-24.999999999999993l21.650635094610948,-12.500000000000016Z" transform="scale(1.999471708903349)"/></g><g transform="translate(86.60254037844386,350)"><path fill="#111" fill-opacity="0.2" d="M0,-25l21.650635094610966,12.499999999999996l3.552713678800501e-15,25l-21.650635094610955,12.500000000000005l-21.650635094610973,-12.49999999999999l-1.7763568394002505e-14,-24.999999999999993l21.650635094610948,-12.500000000000016Z" transform="scale(1.9681138295722236)"/></g><g transform="translate(129.9038105676658,350)"><path fill="#111" fill-opacity="0.2" d="M0,-25l21.650635094610966,12.499999999999996l3.552713678800501e-15,25l-21.650635094610955,12.500000000000005l-21.650635094610973,-12.49999999999999l-1.7763568394002505e-14,-24.999999999999993l21.650635094610948,-12.500000000000016Z" transform="scale(1.8582624061043467)"/></g><g transform="translate(173.20508075688772,350)"><path fill="#111" fill-opacity="0.2" d="M0,-25l21.650635094610966,12.499999999999996l3.552713678800501e-15,25l-21.650635094610955,12.500000000000005l-21.650635094610973,-12.49999999999999l-1.7763568394002505e-14,-24.999999999999993l21.650635094610948,-12.500000000000016Z" transform="scale(1.6788240642425616)"/></g><g transform="translate(216.50635094610965,350)"><path fill="#111" fill-opacity="0.2" d="M0,-25l21.650635094610966,12.499999999999996l3.552713678800501e-15,25l-21.650635094610955,12.500000000000005l-21.650635094610973,-12.49999999999999l-1.7763568394002505e-14,-24.999999999999993l21.650635094610948,-12.500000000000016Z" transform="scale(1.444347456197487)"/></g><g transform="translate(259.8076211353316,350)"><path fill="#111" fill-opacity="0.2" d="M0,-25l21.650635094610966,12.499999999999996l3.552713678800501e-15,25l-21.650635094610955,12.500000000000005l-21.650635094610973,-12.49999999999999l-1.7763568394002505e-14,-24.999999999999993l21.650635094610948,-12.500000000000016Z" transform="scale(1.173843672835137)"/></g><g transform="translate(303.10889132455355,350)"><path fill="#111" fill-opacity="0.2" d="M0,-25l21.650635094610966,12.499999999999996l3.552713678800501e-15,25l-21.650635094610955,12.500000000000005l-21.650635094610973,-12.49999999999999l-1.7763568394002505e-14,-24.999999999999993l21.650635094610948,-12.500000000000016Z" transform="scale(0.8892448465245607)"/></g><g transform="translate(346.4101615137755,350)"><path fill="#111" fill-opacity="0.2" d="M0,-25l21.650635094610966,12.499999999999996l3.552713678800501e-15,25l-21.650635094610955,12.500000000000005l-21.650635094610973,-12.49999999999999l-1.7763568394002505e-14,-24.999999999999993l21.650635094610948,-12.500000000000016Z" transform="scale(0.6136259193355075)"/></g><g transform="translate(389.71143170299746,350)"><path fill="#111" fill-opacity="0.2" d="M0,-25l21.650635094610966,12.499999999999996l3.552713678800501e-15,25l-21.650635094610955,12.500000000000005l-21.650635094610973,-12.49999999999999l-1.7763568394002505e-14,-24.999999999999993l21.650635094610948,-12.500000000000016Z" transform="scale(0.3693337535535528)"/></g><g transform="translate(433.0127018922194,350)"><path fill="#111" fill-opacity="0.2" d="M0,-25l21.650635094610966,12.499999999999996l3.552713678800501e-15,25l-21.650635094610955,12.500000000000005l-21.650635094610973,-12.49999999999999l-1.7763568394002505e-14,-24.999999999999993l21.650635094610948,-12.500000000000016Z" transform="scale(0.17617527405813505)"/></g><g transform="translate(476.31397208144136,350)"><path fill="#111" fill-opacity="0.2" d="M0,-25l21.650635094610966,12.499999999999996l3.552713678800501e-15,25l-21.650635094610955,12.500000000000005l-21.650635094610973,-12.49999999999999l-1.7763568394002505e-14,-24.999999999999993l21.650635094610948,-12.500000000000016Z" transform="scale(0.04981154587335879)"/></g><g transform="translate(519.6152422706633,350)"><path fill="#111" fill-opacity="0.2" d="M0,-25l21.650635094610966,12.499999999999996l3.552713678800501e-15,25l-21.650635094610955,12.500000000000005l-21.650635094610973,-12.49999999999999l-1.7763568394002505e-14,-24.999999999999993l21.650635094610948,-12.500000000000016Z" transform="scale(0.0004879932174970403)"/></g><g transform="translate(-21.650635094610966,387.5)"><path fill="#111" fill-opacity="0.2" d="M0,-25l21.650635094610966,12.499999999999996l3.552713678800501e-15,25l-21.650635094610955,12.500000000000005l-21.650635094610973,-12.49999999999999l-1.7763568394002505e-14,-24.999999999999993l21.650635094610948,-12.500000000000016Z" transform="scale(0.03220371241488318)"/></g><g transform="translate(21.650635094610966,387.5)"><path fill="#111" fill-opacity="0.2" d="M0,-25l21.650635094610966,12.499999999999996l3.552713678800501e-15,25l-21.650635094610955,12.500000000000005l-21.650635094610973,-12.49999999999999l-1.7763568394002505e-14,-24.999999999999993l21.650635094610948,-12.500000000000016Z" transform="scale(0.14238722981376095)"/></g><g transform="translate(64.9519052838329,387.5)"><path fill="#111" fill-opacity="0.2" d="M0,-25l21.650635094610966,12.499999999999996l3.552713678800501e-15,25l-21.650635094610955,12.500000000000005l-21.650635094610973,-12.49999999999999l-1.7763568394002505e-14,-24.999999999999993l21.650635094610948,-12.500000000000016Z" transform="scale(0.32210499388132907)"/></g><g transform="translate(108.25317547305482,387.5)"><path fill="#111" fill-opacity="0.2" d="M0,-25l21.650635094610966,12.499999999999996l3.552713678800501e-15,25l-21.650635094610955,12.500000000000005l-21.650635094610973,-12.49999999999999l-1.7763568394002505e-14,-24.999999999999993l21.650635094610948,-12.500000000000016Z" transform="scale(0.5567856971792752)"/></g><g transform="translate(151.55444566227675,387.5)"><path fill="#111" fill-opacity="0.2" d="M0,-25l21.650635094610966,12.499999999999996l3.552713678800501e-15,25l-21.650635094610955,12.500000000000005l-21.650635094610973,-12.49999999999999l-1.7763568394002505e-14,-24.999999999999993l21.650635094610948,-12.500000000000016Z" transform="scale(0.8274017010357007)"/></g><g transform="translate(194.85571585149867,387.5)"><path fill="#111" fill-opacity="0.2" d="M0,-25l21.650635094610966,12.499999999999996l3.552713678800501e-15,25l-21.650635094610955,12.500000000000005l-21.650635094610973,-12.49999999999999l-1.7763568394002505e-14,-24.999999999999993l21.650635094610948,-12.500000000000016Z" transform="scale(1.112011774374281)"/></g><g transform="translate(238.1569860407206,387.5)"><path fill="#111" fill-opacity="0.2" d="M0,-25l21.650635094610966,12.499999999999996l3.552713678800501e-15,25l-21.650635094610955,12.500000000000005l-21.650635094610973,-12.49999999999999l-1.7763568394002505e-14,-24.999999999999993l21.650635094610948,-12.500000000000016Z" transform="scale(1.3875400632293622)"/></g><g transform="translate(281.45825622994255,387.5)"><path fill="#111" fill-opacity="0.2" d="M0,-25l21.650635094610966,12.499999999999996l3.552713678800501e-15,25l-21.650635094610955,12.500000000000005l-21.650635094610973,-12.49999999999999l-1.7763568394002505e-14,-24.999999999999993l21.650635094610948,-12.500000000000016Z" transform="scale(1.6316470541660928)"/></g><g transform="translate(324.7595264191645,387.5)"><path fill="#111" fill-opacity="0.2" d="M0,-25l21.650635094610966,12.499999999999996l3.552713678800501e-15,25l-21.650635094610955,12.500000000000005l-21.650635094610973,-12.49999999999999l-1.7763568394002505e-14,-24.999999999999993l21.650635094610948,-12.500000000000016Z" transform="scale(1.824540836066309)"/></g><g transform="translate(368.06079660838645,387.5)"><path fill="#111" fill-opacity="0.2" d="M0,-25l21.650635094610966,12.499999999999996l3.552713678800501e-15,25l-21.650635094610955,12.500000000000005l-21.650635094610973,-12.49999999999999l-1.7763568394002505e-14,-24.999999999999993l21.650635094610948,-12.500000000000016Z" transform="scale(1.9505818052792738)"/></g><g transform="translate(411.3620667976084,387.5)"><path fill="#111" fill-opacity="0.2" d="M0,-25l21.650635094610966,12.499999999999996l3.552713678800501e-15,25l-21.650635094610955,12.500000000000005l-21.650635094610973,-12.49999999999999l-1.7763568394002505e-14,-24.999999999999993l21.650635094610948,-12.500000000000016Z" transform="scale(1.9995507065090308)"/></g><g transform="translate(454.66333698683036,387.5)"><path fill="#111" fill-opacity="0.2" d="M0,-25l21.650635094610966,12.499999999999996l3.552713678800501e-15,25l-21.650635094610955,12.500000000000005l-21.650635094610973,-12.49999999999999l-1.7763568394002505e-14,-24.999999999999993l21.650635094610948,-12.500000000000016Z" transform="scale(1.9674771981566872)"/></g><g transform="translate(497.9646071760523,387.5)"><path fill="#111" fill-opacity="0.2" d="M0,-25l21.650635094610966,12.499999999999996l3.552713678800501e-15,25l-21.650635094610955,12.500000000000005l-21.650635094610973,-12.49999999999999l-1.7763568394002505e-14,-24.999999999999993l21.650635094610948,-12.500000000000016Z" transform="scale(1.8569617630028628)"/></g><g transform="translate(541.2658773652743,387.5)"><path fill="#111" fill-opacity="0.2" d="M0,-25l21.650635094610966,12.499999999999996l3.552713678800501e-15,25l-21.650635094610955,12.500000000000005l-21.650635094610973,-12.49999999999999l-1.7763568394002505e-14,-24.999999999999993l21.650635094610948,-12.500000000000016Z" transform="scale(1.6769648640861456)"/></g><g transform="translate(0,425)"><path fill="#111" fill-opacity="0.2" d="M0,-25l21.650635094610966,12.499999999999996l3.552713678800501e-15,25l-21.650635094610955,12.500000000000005l-21.650635094610973,-12.49999999999999l-1.7763568394002505e-14,-24.999999999999993l21.650635094610948,-12.500000000000016Z" transform="scale(1.4420804407740349)"/></g><g transform="translate(43.30127018922193,425)"><path fill="#111" fill-opacity="0.2" d="M0,-25l21.650635094610966,12.499999999999996l3.552713678800501e-15,25l-21.650635094610955,12.500000000000005l-21.650635094610973,-12.49999999999999l-1.7763568394002505e-14,-24.999999999999993l21.650635094610948,-12.500000000000016Z" transform="scale(1.1713526491203783)"/></g><g transform="translate(86.60254037844386,425)"><path fill="#111" fill-opacity="0.2" d="M0,-25l21.650635094610966,12.499999999999996l3.552713678800501e-15,25l-21.650635094610955,12.500000000000005l-21.650635094610973,-12.49999999999999l-1.7763568394002505e-14,-24.999999999999993l21.650635094610948,-12.500000000000016Z" transform="scale(0.8867317838261879)"/></g><g transform="translate(129.9038105676658,425)"><path fill="#111" fill-opacity="0.2" d="M0,-25l21.650635094610966,12.499999999999996l3.552713678800501e-15,25l-21.650635094610955,12.500000000000005l-21.650635094610973,-12.49999999999999l-1.7763568394002505e-14,-24.999999999999993l21.650635094610948,-12.500000000000016Z" transform="scale(0.6112945738563361)"/></g><g transform="translate(173.20508075688772,425)"><path fill="#111" fill-opacity="0.2" d="M0,-25l21.650635094610966,12.499999999999996l3.552713678800501e-15,25l-21.650635094610955,12.500000000000005l-21.650635094610973,-12.49999999999999l-1.7763568394002505e-14,-24.999999999999993l21.650635094610948,-12.500000000000016Z" transform="scale(0.36737314807550303)"/></g><g transform="translate(216.50635094610965,425)"><path fill="#111" fill-opacity="0.2" d="M0,-25l21.650635094610966,12.499999999999996l3.552713678800501e-15,25l-21.650635094610955,12.500000000000005l-21.650635094610973,-12.49999999999999l-1.7763568394002505e-14,-24.999999999999993l21.650635094610948,-12.500000000000016Z" transform="scale(0.17474437219471262)"/></g><g transform="translate(259.8076211353316,425)"><path fill="#111" fill-opacity="0.2" d="M0,-25l21.650635094610966,12.499999999999996l3.552713678800501e-15,25l-21.650635094610955,12.500000000000005l-21.650635094610973,-12.49999999999999l-1.7763568394002505e-14,-24.999999999999993l21.650635094610948,-12.500000000000016Z" transform="scale(0.049026363484606206)"/></g><g transform="translate(303.10889132455355,425)"><path fill="#111" fill-opacity="0.2" d="M0,-25l21.650635094610966,12.499999999999996l3.552713678800501e-15,25l-21.650635094610955,12.500000000000005l-21.650635094610973,-12.49999999999999l-1.7763568394002505e-14,-24.999999999999993l21.650635094610948,-12.500000000000016Z" transform="scale(0.0004121919789453754)"/></g><g transform="translate(346.4101615137755,425)"><path fill="#111" fill-opacity="0.2" d="M0,-25l21.650635094610966,12.499999999999996l3.552713678800501e-15,25l-21.650635094610955,12.500000000000005l-21.650635094610973,-12.49999999999999l-1.7763568394002505e-14,-24.999999999999993l21.650635094610948,-12.500000000000016Z" transform="scale(0.03284343820285529)"/></g><g transform="translate(389.71143170299746,425)"><path fill="#111" fill-opacity="0.2" d="M0,-25l21.650635094610966,12.499999999999996l3.552713678800501e-15,25l-21.650635094610955,12.500000000000005l-21.650635094610973,-12.49999999999999l-1.7763568394002505e-14,-24.999999999999993l21.650635094610948,-12.500000000000016Z" transform="scale(0.14369061440486575)"/></g><g transform="translate(433.0127018922194,425)"><path fill="#111" fill-opacity="0.2" d="M0,-25l21.650635094610966,12.499999999999996l3.552713678800501e-15,25l-21.650635094610955,12.500000000000005l-21.650635094610973,-12.49999999999999l-1.7763568394002505e-14,-24.999999999999993l21.650635094610948,-12.500000000000016Z" transform="scale(0.3239663603677584)"/></g><g transform="translate(476.31397208144136,425)"><path fill="#111" fill-opacity="0.2" d="M0,-25l21.650635094610966,12.499999999999996l3.552713678800501e-15,25l-21.650635094610955,12.500000000000005l-21.650635094610973,-12.49999999999999l-1.7763568394002505e-14,-24.999999999999993l21.650635094610948,-12.500000000000016Z" transform="scale(0.5590541281296266)"/></g><g transform="translate(519.6152422706633,425)"><path fill="#111" fill-opacity="0.2" d="M0,-25l21.650635094610966,12.499999999999996l3.552713678800501e-15,25l-21.650635094610955,12.500000000000005l-21.650635094610973,-12.49999999999999l-1.7763568394002505e-14,-24.999999999999993l21.650635094610948,-12.500000000000016Z" transform="scale(0.82989327470493)"/></g><g transform="translate(-21.650635094610966,462.5)"><path fill="#111" fill-opacity="0.2" d="M0,-25l21.650635094610966,12.499999999999996l3.552713678800501e-15,25l-21.650635094610955,12.500000000000005l-21.650635094610973,-12.49999999999999l-1.7763568394002505e-14,-24.999999999999993l21.650635094610948,-12.500000000000016Z" transform="scale(1.1145244768650806)"/></g><g transform="translate(21.650635094610966,462.5)"><path fill="#111" fill-opacity="0.2" d="M0,-25l21.650635094610966,12.499999999999996l3.552713678800501e-15,25l-21.650635094610955,12.500000000000005l-21.650635094610973,-12.49999999999999l-1.7763568394002505e-14,-24.999999999999993l21.650635094610948,-12.500000000000016Z" transform="scale(1.3898701675440734)"/></g><g transform="translate(64.9519052838329,462.5)"><path fill="#111" fill-opacity="0.2" d="M0,-25l21.650635094610966,12.499999999999996l3.552713678800501e-15,25l-21.650635094610955,12.500000000000005l-21.650635094610973,-12.49999999999999l-1.7763568394002505e-14,-24.999999999999993l21.650635094610948,-12.500000000000016Z" transform="scale(1.6336056381550068)"/></g><g transform="translate(108.25317547305482,462.5)"><path fill="#111" fill-opacity="0.2" d="M0,-25l21.650635094610966,12.499999999999996l3.552713678800501e-15,25l-21.650635094610955,12.500000000000005l-21.650635094610973,-12.49999999999999l-1.7763568394002505e-14,-24.999999999999993l21.650635094610948,-12.500000000000016Z" transform="scale(1.8259691000158966)"/></g><g transform="translate(151.55444566227675,462.5)"><path fill="#111" fill-opacity="0.2" d="M0,-25l21.650635094610966,12.499999999999996l3.552713678800501e-15,25l-21.650635094610955,12.500000000000005l-21.650635094610973,-12.49999999999999l-1.7763568394002505e-14,-24.999999999999993l21.650635094610948,-12.500000000000016Z" transform="scale(1.9513639472084803)"/></g><g transform="translate(194.85571585149867,462.5)"><path fill="#111" fill-opacity="0.2" d="M0,-25l21.650635094610966,12.499999999999996l3.552713678800501e-15,25l-21.650635094610955,12.500000000000005l-21.650635094610973,-12.49999999999999l-1.7763568394002505e-14,-24.999999999999993l21.650635094610948,-12.500000000000016Z" transform="scale(1.9996233112592519)"/></g><g transform="translate(238.1569860407206,462.5)"><path fill="#111" fill-opacity="0.2" d="M0,-25l21.650635094610966,12.499999999999996l3.552713678800501e-15,25l-21.650635094610955,12.500000000000005l-21.650635094610973,-12.49999999999999l-1.7763568394002505e-14,-24.999999999999993l21.650635094610948,-12.500000000000016Z" transform="scale(1.9668343790191618)"/></g><g transform="translate(281.45825622994255,462.5)"><path fill="#111" fill-opacity="0.2" d="M0,-25l21.650635094610966,12.499999999999996l3.552713678800501e-15,25l-21.650635094610955,12.500000000000005l-21.650635094610973,-12.49999999999999l-1.7763568394002505e-14,-24.999999999999993l21.650635094610948,-12.500000000000016Z" transform="scale(1.8556556390061543)"/></g><g transform="translate(324.7595264191645,462.5)"><path fill="#111" fill-opacity="0.2" d="M0,-25l21.650635094610966,12.499999999999996l3.552713678800501e-15,25l-21.650635094610955,12.500000000000005l-21.650635094610973,-12.49999999999999l-1.7763568394002505e-14,-24.999999999999993l21.650635094610948,-12.500000000000016Z" transform="scale(1.6751013342459133)"/></g><g transform="translate(368.06079660838645,462.5)"><path fill="#111" fill-opacity="0.2" d="M0,-25l21.650635094610966,12.499999999999996l3.552713678800501e-15,25l-21.650635094610955,12.500000000000005l-21.650635094610973,-12.49999999999999l-1.7763568394002505e-14,-24.999999999999993l21.650635094610948,-12.500000000000016Z" transform="scale(1.4398105979238656)"/></g><g transform="translate(411.3620667976084,462.5)"><path fill="#111" fill-opacity="0.2" d="M0,-25l21.650635094610966,12.499999999999996l3.552713678800501e-15,25l-21.650635094610955,12.500000000000005l-21.650635094610973,-12.49999999999999l-1.7763568394002505e-14,-24.999999999999993l21.650635094610948,-12.500000000000016Z" transform="scale(1.168860529480523)"/></g><g transform="translate(454.66333698683036,462.5)"><path fill="#111" fill-opacity="0.2" d="M0,-25l21.650635094610966,12.499999999999996l3.552713678800501e-15,25l-21.650635094610955,12.500000000000005l-21.650635094610973,-12.49999999999999l-1.7763568394002505e-14,-24.999999999999993l21.650635094610948,-12.500000000000016Z" transform="scale(0.8842194455606183)"/></g><g transform="translate(497.9646071760523,462.5)"><path fill="#111" fill-opacity="0.2" d="M0,-25l21.650635094610966,12.499999999999996l3.552713678800501e-15,25l-21.650635094610955,12.500000000000005l-21.650635094610973,-12.49999999999999l-1.7763568394002505e-14,-24.999999999999993l21.650635094610948,-12.500000000000016Z" transform="scale(0.6089657144317391)"/></g><g transform="translate(541.2658773652743,462.5)"><path fill="#111" fill-opacity="0.2" d="M0,-25l21.650635094610966,12.499999999999996l3.552713678800501e-15,25l-21.650635094610955,12.500000000000005l-21.650635094610973,-12.49999999999999l-1.7763568394002505e-14,-24.999999999999993l21.650635094610948,-12.500000000000016Z" transform="scale(0.3654165887073799)"/></g><g transform="translate(0,500)"><path fill="#111" fill-opacity="0.2" d="M0,-25l21.650635094610966,12.499999999999996l3.552713678800501e-15,25l-21.650635094610955,12.500000000000005l-21.650635094610973,-12.49999999999999l-1.7763568394002505e-14,-24.999999999999993l21.650635094610948,-12.500000000000016Z" transform="scale(0.17331874844264994)"/></g><g transform="translate(43.30127018922193,500)"><path fill="#111" fill-opacity="0.2" d="M0,-25l21.650635094610966,12.499999999999996l3.552713678800501e-15,25l-21.650635094610955,12.500000000000005l-21.650635094610973,-12.49999999999999l-1.7763568394002505e-14,-24.999999999999993l21.650635094610948,-12.500000000000016Z" transform="scale(0.04824726326554263)"/></g><g transform="translate(86.60254037844386,500)"><path fill="#111" fill-opacity="0.2" d="M0,-25l21.650635094610966,12.499999999999996l3.552713678800501e-15,25l-21.650635094610955,12.500000000000005l-21.650635094610973,-12.49999999999999l-1.7763568394002505e-14,-24.999999999999993l21.650635094610948,-12.500000000000016Z" transform="scale(0.00034278383314523264)"/></g><g transform="translate(129.9038105676658,500)"><path fill="#111" fill-opacity="0.2" d="M0,-25l21.650635094610966,12.499999999999996l3.552713678800501e-15,25l-21.650635094610955,12.500000000000005l-21.650635094610973,-12.49999999999999l-1.7763568394002505e-14,-24.999999999999993l21.650635094610948,-12.500000000000016Z" transform="scale(0.033489349662113144)"/></g><g transform="translate(173.20508075688772,500)"><path fill="#111" fill-opacity="0.2" d="M0,-25l21.650635094610966,12.499999999999996l3.552713678800501e-15,25l-21.650635094610955,12.500000000000005l-21.650635094610973,-12.49999999999999l-1.7763568394002505e-14,-24.999999999999993l21.650635094610948,-12.500000000000016Z" transform="scale(0.14499947571876548)"/></g><g transform="translate(216.50635094610965,500)"><path fill="#111" fill-opacity="0.2" d="M0,-25l21.650635094610966,12.499999999999996l3.552713678800501e-15,25l-21.650635094610955,12.500000000000005l-21.650635094610973,-12.49999999999999l-1.7763568394002505e-14,-24.999999999999993l21.650635094610948,-12.500000000000016Z" transform="scale(0.32583205058215536)"/></g><g transform="translate(259.8076211353316,500)"><path fill="#111" fill-opacity="0.2" d="M0,-25l21.650635094610966,12.499999999999996l3.552713678800501e-15,25l-21.650635094610955,12.500000000000005l-21.650635094610973,-12.49999999999999l-1.7763568394002505e-14,-24.999999999999993l21.650635094610948,-12.500000000000016Z" transform="scale(0.5613253792502743)"/></g><g transform="translate(303.10889132455355,500)"><path fill="#111" fill-opacity="0.2" d="M0,-25l21.650635094610966,12.499999999999996l3.552713678800501e-15,25l-21.650635094610955,12.500000000000005l-21.650635094610973,-12.49999999999999l-1.7763568394002505e-14,-24.999999999999993l21.650635094610948,-12.500000000000016Z" transform="scale(0.832385936330693)"/></g><g transform="translate(346.4101615137755,500)"><path fill="#111" fill-opacity="0.2" d="M0,-25l21.650635094610966,12.499999999999996l3.552713678800501e-15,25l-21.650635094610955,12.500000000000005l-21.650635094610973,-12.49999999999999l-1.7763568394002505e-14,-24.999999999999993l21.650635094610948,-12.500000000000016Z" transform="scale(1.1170364468883458)"/></g><g transform="translate(389.71143170299746,500)"><path fill="#111" fill-opacity="0.2" d="M0,-25l21.650635094610966,12.499999999999996l3.552713678800501e-15,25l-21.650635094610955,12.500000000000005l-21.650635094610973,-12.49999999999999l-1.7763568394002505e-14,-24.999999999999993l21.650635094610948,-12.500000000000016Z" transform="scale(1.3921977783548534)"/></g><g transform="translate(433.0127018922194,500)"><path fill="#111" fill-opacity="0.2" d="M0,-25l21.650635094610966,12.499999999999996l3.552713678800501e-15,25l-21.650635094610955,12.500000000000005l-21.650635094610973,-12.49999999999999l-1.7763568394002505e-14,-24.999999999999993l21.650635094610948,-12.500000000000016Z" transform="scale(1.6355601697739428)"/></g><g transform="translate(476.31397208144136,500)"><path fill="#111" fill-opacity="0.2" d="M0,-25l21.650635094610966,12.499999999999996l3.552713678800501e-15,25l-21.650635094610955,12.500000000000005l-21.650635094610973,-12.49999999999999l-1.7763568394002505e-14,-24.999999999999993l21.650635094610948,-12.500000000000016Z" transform="scale(1.8273920812909497)"/></g><g transform="translate(519.6152422706633,500)"><path fill="#111" fill-opacity="0.2" d="M0,-25l21.650635094610966,12.499999999999996l3.552713678800501e-15,25l-21.650635094610955,12.500000000000005l-21.650635094610973,-12.49999999999999l-1.7763568394002505e-14,-24.999999999999993l21.650635094610948,-12.500000000000016Z" transform="scale(1.9521400044716808)"/></g><g transform="translate(-21.650635094610966,537.5)"><path fill="#111" fill-opacity="0.2" d="M0,-25l21.650635094610966,12.499999999999996l3.552713678800501e-15,25l-21.650635094610955,12.500000000000005l-21.650635094610973,-12.49999999999999l-1.7763568394002505e-14,-24.999999999999993l21.650635094610948,-12.500000000000016Z" transform="scale(1.9996895226896516)"/></g><g transform="translate(21.650635094610966,537.5)"><path fill="#111" fill-opacity="0.2" d="M0,-25l21.650635094610966,12.499999999999996l3.552713678800501e-15,25l-21.650635094610955,12.500000000000005l-21.650635094610973,-12.49999999999999l-1.7763568394002505e-14,-24.999999999999993l21.650635094610948,-12.500000000000016Z" transform="scale(1.966185376270937)"/></g><g transform="translate(64.9519052838329,537.5)"><path fill="#111" fill-opacity="0.2" d="M0,-25l21.650635094610966,12.499999999999996l3.552713678800501e-15,25l-21.650635094610955,12.500000000000005l-21.650635094610973,-12.49999999999999l-1.7763568394002505e-14,-24.999999999999993l21.650635094610948,-12.500000000000016Z" transform="scale(1.8543440424678517)"/></g><g transform="translate(108.25317547305482,537.5)"><path fill="#111" fill-opacity="0.2" d="M0,-25l21.650635094610966,12.499999999999996l3.552713678800501e-15,25l-21.650635094610955,12.500000000000005l-21.650635094610973,-12.49999999999999l-1.7763568394002505e-14,-24.999999999999993l21.650635094610948,-12.500000000000016Z" transform="scale(1.6732334866404757)"/></g><g transform="translate(151.55444566227675,537.5)"><path fill="#111" fill-opacity="0.2" d="M0,-25l21.650635094610966,12.499999999999996l3.552713678800501e-15,25l-21.650635094610955,12.500000000000005l-21.650635094610973,-12.49999999999999l-1.7763568394002505e-14,-24.999999999999993l21.650635094610948,-12.500000000000016Z" transform="scale(1.4375379421643049)"/></g><g transform="translate(194.85571585149867,537.5)"><path fill="#111" fill-opacity="0.2" d="M0,-25l21.650635094610966,12.499999999999996l3.552713678800501e-15,25l-21.650635094610955,12.500000000000005l-21.650635094610973,-12.49999999999999l-1.7763568394002505e-14,-24.999999999999993l21.650635094610948,-12.500000000000016Z" transform="scale(1.166367329854465)"/></g><g transform="translate(238.1569860407206,537.5)"><path fill="#111" fill-opacity="0.2" d="M0,-25l21.650635094610966,12.499999999999996l3.552713678800501e-15,25l-21.650635094610955,12.500000000000005l-21.650635094610973,-12.49999999999999l-1.7763568394002505e-14,-24.999999999999993l21.650635094610948,-12.500000000000016Z" transform="scale(0.8817078477961007)"/></g><g transform="translate(281.45825622994255,537.5)"><path fill="#111" fill-opacity="0.2" d="M0,-25l21.650635094610966,12.499999999999996l3.552713678800501e-15,25l-21.650635094610955,12.500000000000005l-21.650635094610973,-12.49999999999999l-1.7763568394002505e-14,-24.999999999999993l21.650635094610948,-12.500000000000016Z" transform="scale(0.6066393559564832)"/></g><g transform="translate(324.7595264191645,537.5)"><path fill="#111" fill-opacity="0.2" d="M0,-25l21.650635094610966,12.499999999999996l3.552713678800501e-15,25l-21.650635094610955,12.500000000000005l-21.650635094610973,-12.49999999999999l-1.7763568394002505e-14,-24.999999999999993l21.650635094610948,-12.500000000000016Z" transform="scale(0.3634640879627853)"/></g><g transform="translate(368.06079660838645,537.5)"><path fill="#111" fill-opacity="0.2" d="M0,-25l21.650635094610966,12.499999999999996l3.552713678800501e-15,25l-21.650635094610955,12.500000000000005l-21.650635094610973,-12.49999999999999l-1.7763568394002505e-14,-24.999999999999993l21.650635094610948,-12.500000000000016Z" transform="scale(0.1718984119198661)"/></g><g transform="translate(411.3620667976084,537.5)"><path fill="#111" fill-opacity="0.2" d="M0,-25l21.650635094610966,12.499999999999996l3.552713678800501e-15,25l-21.650635094610955,12.500000000000005l-21.650635094610973,-12.49999999999999l-1.7763568394002505e-14,-24.999999999999993l21.650635094610948,-12.500000000000016Z" transform="scale(0.04747425019907303)"/></g><g transform="translate(454.66333698683036,537.5)"><path fill="#111" fill-opacity="0.2" d="M0,-25l21.650635094610966,12.499999999999996l3.552713678800501e-15,25l-21.650635094610955,12.500000000000005l-21.650635094610973,-12.49999999999999l-1.7763568394002505e-14,-24.999999999999993l21.650635094610948,-12.500000000000016Z" transform="scale(0.00027976922401318216)"/></g><g transform="translate(497.9646071760523,537.5)"><path fill="#111" fill-opacity="0.2" d="M0,-25l21.650635094610966,12.499999999999996l3.552713678800501e-15,25l-21.650635094610955,12.500000000000005l-21.650635094610973,-12.49999999999999l-1.7763568394002505e-14,-24.999999999999993l21.650635094610948,-12.500000000000016Z" transform="scale(0.03414144266158925)"/></g><g transform="translate(541.2658773652743,537.5)"><path fill="#111" fill-opacity="0.2" d="M0,-25l21.650635094610966,12.499999999999996l3.552713678800501e-15,25l-21.650635094610955,12.500000000000005l-21.650635094610973,-12.49999999999999l-1.7763568394002505e-14,-24.999999999999993l21.650635094610948,-12.500000000000016Z" transform="scale(0.1463138053843308)"/></g></svg>