<?xml version="1.0" standalone="no"?><!DOCTYPE svg PUBLIC "-//W3C//DTD SVG 1.1//EN" "http://www.w3.org/Graphics/SVG/1.1/DTD/svg11.dtd"><svg width="500" height="500" style="background: rgb(30, 30, 30);" version="1.1" xmlns="http://www.w3.org/2000/svg" xmlns:xlink="http://www.w3.org/1999/xlink"><defs xmlns="http://www.w3.org/1999/xhtml"><style type="text/css"><![CDATA[
html, body { height: 100%; margin: 0px; background: rgb(34, 34, 34); }
body, #prev, #next { height: 100%; display: -webkit-flex; flex-direction: column; justify-content: center; }
#prev, #next { position: absolute; top: 0px; color: rgb(209, 209, 209); font-size: 70px; text-decoration: none; padding: 20px; }
#prev { left: 0px; }
#next { right: 0px; }
svg { margin: auto; }]]></style></defs>
    <defs>
        <linearGradient id="snow" x1="0" x2="0" y1="0" y2="1">
          <stop offset="0%" stop-color="#d1d1d1"/>
          <stop offset="100%" stop-color="#111111"/>
        </linearGradient>
    <linearGradient id="g0"><stop offset="0%" stop-color="#666"/><stop offset="4.824631019286817%" stop-color="#111"/></linearGradient><linearGradient id="g1"><stop offset="0%" stop-color="#666"/><stop offset="12.048873061850651%" stop-color="#111"/></linearGradient><linearGradient id="g2"><stop offset="0%" stop-color="#666"/><stop offset="18.866432047426677%" stop-color="#111"/></linearGradient><linearGradient id="g3"><stop offset="69.19768573272037%" stop-color="#111"/><stop offset="100%" stop-color="#666"/></linearGradient><linearGradient id="g4"><stop offset="73.29346069016488%" stop-color="#111"/><stop offset="100%" stop-color="#666"/></linearGradient><linearGradient id="g5"><stop offset="80.91783435780552%" stop-color="#111"/><stop offset="100%" stop-color="#666"/></linearGradient><linearGradient id="g6"><stop offset="87.85090772759168%" stop-color="#111"/><stop offset="100%" stop-color="#666"/></linearGradient><linearGradient id="g7"><stop offset="94.43573047521525%" stop-color="#111"/><stop offset="100%" stop-color="#666"/></linearGradient></defs>
<circle class="moon" fill="#d1d1d1" cx="320" cy="90" r="45"/><rect class="snow" fill="url(#snow)" x="-20" y="225" width="520" height="100" transform="rotate(5,250,250)"/><rect class="snow" fill="url(#snow)" x="0" y="225" width="520" height="100" transform="rotate(-5,250,250)"/><rect class="snow" fill="url(#snow)" x="0" y="250" width="500" height="500"/><g transform="translate(360.2052584940568,325.25393338524736)"><path class="shadow" fill="rgba(16,16,16,.8)" transform="scale(1,-1)skewX(-9.698241140938919)" d="M-11.51302264817059,0C-11.51302264817059,5 11.51302264817059,5 11.51302264817059,0L15.90688520623371,-500L-0.1938313925638795,-500Z"/><path class="tree" d="M-11.51302264817059,0C-11.51302264817059,5 11.51302264817059,5 11.51302264817059,0L15.90688520623371,-500L-0.1938313925638795,-500Z" fill="url(#g0)"/></g><g transform="translate(420.4072755154221,336.0497767745983)"><path class="shadow" fill="rgba(16,16,16,.8)" transform="scale(1,-1)skewX(-22.199245749113103)" d="M-13.852355721406639,0C-13.852355721406639,5 13.852355721406639,5 13.852355721406639,0L14.479037060169503,-500L-8.694525780389085,-500Z"/><path class="tree" d="M-13.852355721406639,0C-13.852355721406639,5 13.852355721406639,5 13.852355721406639,0L14.479037060169503,-500L-8.694525780389085,-500Z" fill="url(#g1)"/></g><g transform="translate(477.220267061889,335.4233580559958)"><path class="shadow" fill="rgba(16,16,16,.8)" transform="scale(1,-1)skewX(-32.64396616177733)" d="M-13.500196915119886,0C-13.500196915119886,5 13.500196915119886,5 13.500196915119886,0L16.89129506703466,-500L-4.631931651383638,-500Z"/><path class="tree" d="M-13.500196915119886,0C-13.500196915119886,5 13.500196915119886,5 13.500196915119886,0L16.89129506703466,-500L-4.631931651383638,-500Z" fill="url(#g2)"/></g><g transform="translate(11.976857327203717,331.29256898071617)"><path class="shadow" fill="rgba(16,16,16,.8)" transform="scale(1,-1)skewX(51.92632199127027)" d="M-11.821282370015979,0C-11.821282370015979,5 11.821282370015979,5 11.821282370015979,0L15.450820635538548,-500L-1.653626200510189,-500Z"/><path class="tree" d="M-11.821282370015979,0C-11.821282370015979,5 11.821282370015979,5 11.821282370015979,0L15.450820635538548,-500L-1.653626200510189,-500Z" fill="url(#g3)"/></g><g transform="translate(52.934606901648756,334.0438380918931)"><path class="shadow" fill="rgba(16,16,16,.8)" transform="scale(1,-1)skewX(47.57899274119953)" d="M-11.588231884874403,0C-11.588231884874403,5 11.588231884874403,5 11.588231884874403,0L17.717252556234598,-500L-0.6407984402030706,-500Z"/><path class="tree" d="M-11.588231884874403,0C-11.588231884874403,5 11.588231884874403,5 11.588231884874403,0L17.717252556234598,-500L-0.6407984402030706,-500Z" fill="url(#g4)"/></g><g transform="translate(129.17834357805515,332.11956589482725)"><path class="shadow" fill="rgba(16,16,16,.8)" transform="scale(1,-1)skewX(38.242699368730364)" d="M-13.673504184931517,0C-13.673504184931517,5 13.673504184931517,5 13.673504184931517,0L20.14244289509952,-500L-4.885023217881098,-500Z"/><path class="tree" d="M-13.673504184931517,0C-13.673504184931517,5 13.673504184931517,5 13.673504184931517,0L20.14244289509952,-500L-4.885023217881098,-500Z" fill="url(#g5)"/></g><g transform="translate(198.5090772759167,338.079227656126)"><path class="shadow" fill="rgba(16,16,16,.8)" transform="scale(1,-1)skewX(26.092207089406337)" d="M-10.59673854894936,0C-10.59673854894936,5 10.59673854894936,5 10.59673854894936,0L20.114393503637984,-500L2.5806337555404752,-500Z"/><path class="tree" d="M-10.59673854894936,0C-10.59673854894936,5 10.59673854894936,5 10.59673854894936,0L20.114393503637984,-500L2.5806337555404752,-500Z" fill="url(#g6)"/></g><g transform="translate(264.35730475215246,329.5715351437684)"><path class="shadow" fill="rgba(16,16,16,.8)" transform="scale(1,-1)skewX(13.075643316095281)" d="M-13.826596565544605,0C-13.826596565544605,5 13.826596565544605,5 13.826596565544605,0L13.392166412435472,-500L-6.871712910709903,-500Z"/><path class="tree" d="M-13.826596565544605,0C-13.826596565544605,5 13.826596565544605,5 13.826596565544605,0L13.392166412435472,-500L-6.871712910709903,-500Z" fill="url(#g7)"/></g></svg>