<?xml version="1.0" standalone="no"?><!DOCTYPE svg PUBLIC "-//W3C//DTD SVG 1.1//EN" "http://www.w3.org/Graphics/SVG/1.1/DTD/svg11.dtd"><svg width="500" height="500" style="background: rgb(209, 209, 209);" version="1.1" xmlns="http://www.w3.org/2000/svg" xmlns:xlink="http://www.w3.org/1999/xlink"><defs xmlns="http://www.w3.org/1999/xhtml"><style type="text/css"><![CDATA[
html, body { height: 100%; margin: 0px; background: rgb(34, 34, 34); }
body, #prev, #next { height: 100%; display: -webkit-flex; flex-direction: column; justify-content: center; }
#prev, #next { position: absolute; top: 0px; color: rgb(209, 209, 209); font-size: 70px; text-decoration: none; padding: 20px; }
#prev { left: 0px; }
#next { right: 0px; }
svg { margin: auto; }]]></style></defs><g transform="translate(250,250)"><path fill="none" stroke="#111" stroke-width="4" stroke-opacity="0.6" d="M0,0L62.5,0"/><path fill="none" stroke="#111" stroke-width="4" stroke-opacity="0.6" d="M31.29036489714579,1.96862289574921L61.88421521311034,3.893424808386087"/><path fill="none" stroke="#111" stroke-width="4" stroke-opacity="0.6" d="M61.71887968547381,7.796907709056039L60.05674591357314,7.586931382757542"/><path fill="none" stroke="#111" stroke-width="4" stroke-opacity="0.6" d="M90.4532711457134,17.254884295087134L57.07654998062247,10.887934216241673"/><path fill="none" stroke="#111" stroke-width="4" stroke-opacity="0.6" d="M116.71937508974685,29.968441932438918L53.03959089092653,13.618252312547533"/><path fill="none" stroke="#111" stroke-width="4" stroke-opacity="0.6" d="M139.8276160316009,45.432746525959224L48.07547378155537,15.620668337356022"/><path fill="none" stroke="#111" stroke-width="4" stroke-opacity="0.6" d="M159.19649940305078,63.03035301621751L42.34290391016951,16.76474163186666"/><path fill="none" stroke="#111" stroke-width="4" stroke-opacity="0.6" d="M174.3722872008589,82.05336999000845L36.024128316993774,16.951668047784093"/><path fill="none" stroke="#111" stroke-width="4" stroke-opacity="0.6" d="M185.04416320495656,101.7288895830431L29.31855748377536,16.11801337228666"/><path fill="none" stroke="#111" stroke-width="4" stroke-opacity="0.6" d="M191.05435374463767,121.24677976617313L22.435792799435696,14.238187066223938"/><path fill="none" stroke="#111" stroke-width="4" stroke-opacity="0.6" d="M192.40284874647836,139.78885212369948L15.588306652056692,11.325567722308053"/><path fill="none" stroke="#111" stroke-width="4" stroke-opacity="0.6" d="M189.24655913590917,156.55836924495875L8.984034227529468,7.4322394780916285"/><path fill="none" stroke="#111" stroke-width="4" stroke-opacity="0.6" d="M181.89294380084806,170.80884359614467L2.819139172165142,2.6473478952616487"/><path fill="none" stroke="#111" stroke-width="4" stroke-opacity="0.6" d="M170.7883352717145,181.8711046535036L-2.7287909390585594,-2.9058672049556864"/><path fill="none" stroke="#111" stroke-width="4" stroke-opacity="0.6" d="M156.50138108092162,189.17767227915718L-7.506878674590098,-9.074257517297536"/><path fill="none" stroke="#111" stroke-width="4" stroke-opacity="0.6" d="M139.70219077856473,192.28356963783114L-11.392203522180218,-15.680022962256869"/><path fill="none" stroke="#111" stroke-width="4" stroke-opacity="0.6" d="M121.13793066605653,190.88283500806943L-14.295976034659967,-22.52685364277857"/><path fill="none" stroke="#111" stroke-width="4" stroke-opacity="0.6" d="M101.60573407453754,184.8201441666196L-16.166492082546675,-29.406739930375238"/><path fill="none" stroke="#111" stroke-width="4" stroke-opacity="0.6" d="M81.92389000181613,174.09712821969111L-16.99076323941147,-36.107209828252266"/><path fill="none" stroke="#111" stroke-width="4" stroke-opacity="0.6" d="M62.90233376344913,158.87315967985927L-16.794766298226182,-42.418737560965496"/><path fill="none" stroke="#111" stroke-width="4" stroke-opacity="0.6" d="M45.31348785403911,139.46057558036696L-15.642303906963209,-48.14206121795281"/><path fill="none" stroke="#111" stroke-width="4" stroke-opacity="0.6" d="M29.864488584654517,116.31450353121754L-13.632517582526487,-53.095150449250724"/><path fill="none" stroke="#111" stroke-width="4" stroke-opacity="0.6" d="M17.17178471011708,90.01764786578599L-10.896142166672844,-57.1195775636073"/><path fill="none" stroke="#111" stroke-width="4" stroke-opacity="0.6" d="M7.73900993634783,61.260571622690755L-7.5906354309742685,-60.08606647433481"/><path fill="none" stroke="#111" stroke-width="4" stroke-opacity="0.6" d="M1.9389148935383602,30.818169723783715L-3.894356437190426,-61.89902302891859"/><path fill="none" stroke="#111" stroke-width="4" stroke-opacity="0.6" d="M-2.9197803248103026e-17,-0.47683631343227567L-3.827014286042717e-15,-62.4998863134617"/><path fill="none" stroke="#111" stroke-width="4" stroke-opacity="0.6" d="M1.9983237361705533,-31.762446237123303L3.8924790154221234,-61.86918226443158"/><path fill="none" stroke="#111" stroke-width="4" stroke-opacity="0.6" d="M7.854777116853949,-62.17696321687188L7.583199733517934,-60.02720686821804"/><path fill="none" stroke="#111" stroke-width="4" stroke-opacity="0.6" d="M17.337921107319133,-90.88856535942396L10.8796866558409,-57.033314754905305"/><path fill="none" stroke="#111" stroke-width="4" stroke-opacity="0.6" d="M30.072286255953863,-117.12382202678168L13.603937499785753,-52.983838376202925"/><path fill="none" stroke="#111" stroke-width="4" stroke-opacity="0.6" d="M45.55183991494567,-140.19414779427103L15.59897594023812,-48.00871144806378"/><path fill="none" stroke="#111" stroke-width="4" stroke-opacity="0.6" d="M63.158142966501295,-159.5192599742765L16.734655975893006,-42.26691621719219"/><path fill="none" stroke="#111" stroke-width="4" stroke-opacity="0.6" d="M82.1825514705659,-174.64681182101205L16.91251118651004,-35.9409157510651"/><path fill="none" stroke="#111" stroke-width="4" stroke-opacity="0.6" d="M101.85167500497896,-185.2675090583224L16.06947602519002,-29.230268377165622"/><path fill="none" stroke="#111" stroke-width="4" stroke-opacity="0.6" d="M121.35518777423636,-191.22517743134662L14.180346299701514,-22.34465033536903"/><path fill="none" stroke="#111" stroke-width="4" stroke-opacity="0.6" d="M139.87500492129212,-192.52142789948292L11.258890720369047,-15.496533632076627"/><path fill="none" stroke="#111" stroke-width="4" stroke-opacity="0.6" d="M156.61478785446653,-189.31475751950288L7.357573243334679,-8.893778254121377"/><path fill="none" stroke="#111" stroke-width="4" stroke-opacity="0.6" d="M170.82873052325846,-181.9141212272606L2.565895220494566,-2.7324008834330455"/><path fill="none" stroke="#111" stroke-width="4" stroke-opacity="0.6" d="M181.84860386467727,-170.76720562457646L-2.992584666290785,2.8102240555980305"/><path fill="none" stroke="#111" stroke-width="4" stroke-opacity="0.6" d="M189.10809719985528,-156.44382356967643L-9.164447795196008,7.581490561294969"/><path fill="none" stroke="#111" stroke-width="4" stroke-opacity="0.6" d="M192.16359100747508,-139.6150212011592L-15.77168222901602,11.458797877566527"/><path fill="none" stroke="#111" stroke-width="4" stroke-opacity="0.6" d="M190.7106218456217,-121.02864086987621L-22.61783253412114,14.35371299477515"/><path fill="none" stroke="#111" stroke-width="4" stroke-opacity="0.6" d="M184.59545275828597,-101.4822089274984L-29.49481539616016,16.214911979605986"/><path fill="none" stroke="#111" stroke-width="4" stroke-opacity="0.6" d="M173.8213358785285,-81.79411197703315L-36.190159982592576,17.029796619165076"/><path fill="none" stroke="#111" stroke-width="4" stroke-opacity="0.6" d="M158.54924198100215,-62.774085673926294L-42.49441689369964,16.824729865742757"/><path fill="none" stroke="#111" stroke-width="4" stroke-opacity="0.6" d="M139.09302777585063,-45.1940643330446L-48.208473515013125,15.66388257035018"/><path fill="none" stroke="#111" stroke-width="4" stroke-opacity="0.6" d="M115.90920882410371,-29.76042659077973L-53.15051684905157,13.646733257826046"/><path fill="none" stroke="#111" stroke-width="4" stroke-opacity="0.6" d="M89.58169710442601,-17.088622654722695L-57.162397347326774,10.904310477274116"/><path fill="none" stroke="#111" stroke-width="4" stroke-opacity="0.6" d="M60.802040695833405,-7.681084009359627L-60.11516844383575,7.594311864692885"/><path fill="none" stroke="#111" stroke-width="4" stroke-opacity="0.6" d="M30.345862434868707,-1.9091998376148007L-61.913605657985954,3.895273898445886"/><path fill="none" stroke="#111" stroke-width="4" stroke-opacity="0.6" d="M-0.9536708921487174,1.1679100055099273e-16L-62.49954525426039,7.653986804379514e-15"/><path fill="none" stroke="#111" stroke-width="4" stroke-opacity="0.6" d="M-32.23441202629898,-2.0280173067516456L-61.85392423757174,-3.891519061739286"/><path fill="none" stroke="#111" stroke-width="4" stroke-opacity="0.6" d="M-62.634820550391254,-7.912617949214453L-59.997449445731654,-7.579440496831079"/><path fill="none" stroke="#111" stroke-width="4" stroke-opacity="0.6" d="M-91.32352892333091,-17.420894844727748L-56.9898720437442,-10.871399515474897"/><path fill="none" stroke="#111" stroke-width="4" stroke-opacity="0.6" d="M-117.52784287095625,-30.176021177416782L-52.92789310790588,-13.589573196317993"/><path fill="none" stroke="#111" stroke-width="4" stroke-opacity="0.6" d="M-140.56016953494574,-45.670767587740364L-47.9417744603574,-15.577226794525824"/><path fill="none" stroke="#111" stroke-width="4" stroke-opacity="0.6" d="M-159.84144021934358,-63.285703149404696L-42.190774758474404,-16.704509439755928"/><path fill="none" stroke="#111" stroke-width="4" stroke-opacity="0.6" d="M-174.92070108143847,-82.3114339735301L-35.85757243319099,-16.873292798040744"/><path fill="none" stroke="#111" stroke-width="4" stroke-opacity="0.6" d="M-185.49018091419185,-101.97408989365556L-29.141872931739073,-16.02088021783412"/><path fill="none" stroke="#111" stroke-width="4" stroke-opacity="0.6" d="M-191.39530544674486,-121.46315429586083L-22.25342658215214,-14.122453945515657"/><path fill="none" stroke="#111" stroke-width="4" stroke-opacity="0.6" d="M-192.6393066654576,-139.96064885792137L-15.404704236184097,-11.192172758932072"/><path fill="none" stroke="#111" stroke-width="4" stroke-opacity="0.6" d="M-189.38226718183486,-156.6706367041958L-8.80348992542166,-7.28288024195266"/><path fill="none" stroke="#111" stroke-width="4" stroke-opacity="0.6" d="M-181.9346368556985,-170.8479959807076L-2.6456526543106453,-2.4844332110796525"/><path fill="none" stroke="#111" stroke-width="4" stroke-opacity="0.6" d="M-170.74545473159955,-181.82544151622653L2.8916469486288685,3.079291240694965"/><path fill="none" stroke="#111" stroke-width="4" stroke-opacity="0.6" d="M-156.3856969206154,-189.03783415111553L7.656074866770471,9.254604733115414"/><path fill="none" stroke="#111" stroke-width="4" stroke-opacity="0.6" d="M-139.52734370860304,-192.0429132918885L11.525350546198837,15.863284118880639"/><path fill="none" stroke="#111" stroke-width="4" stroke-opacity="0.6" d="M-120.91891077522472,-190.53771488380076L14.411397736524169,22.70872914248504"/><path fill="none" stroke="#111" stroke-width="4" stroke-opacity="0.6" d="M-101.35831459130621,-184.370089797376L16.26327288731453,29.58278356071438"/><path fill="none" stroke="#111" stroke-width="4" stroke-opacity="0.6" d="M-81.66403638778772,-173.54491118069512L17.06876804504265,36.27297847824468"/><path fill="none" stroke="#111" stroke-width="4" stroke-opacity="0.6" d="M-62.645609214211575,-158.22474748488204L16.854632225409823,42.56994163305285"/><path fill="none" stroke="#111" stroke-width="4" stroke-opacity="0.6" d="M-45.07447639743494,-138.72497395517996L15.68540424901439,48.27471043113033"/><path fill="none" stroke="#111" stroke-width="4" stroke-opacity="0.6" d="M-29.656256329388707,-115.50349244285526L13.66089928672991,53.205689888907806"/><path fill="none" stroke="#111" stroke-width="4" stroke-opacity="0.6" d="M-17.005398431445006,-89.14542044760879L10.912439118329456,57.20500917600383"/><path fill="none" stroke="#111" stroke-width="4" stroke-opacity="0.6" d="M-7.623130138824139,-60.34328857302284L7.597960670538649,60.144051716203926"/><path fill="none" stroke="#111" stroke-width="4" stroke-opacity="0.6" d="M-1.8794778360809596,-29.873444748639816L3.896177188814753,61.927963047261315"/><path fill="none" stroke="#111" stroke-width="4" stroke-opacity="0.6" d="M2.6277895458552956e-16,1.43050200143958L1.1480875787557717e-14,62.49897682363682"/><path fill="none" stroke="#111" stroke-width="4" stroke-opacity="0.6" d="M-2.0577034994681727,32.70626054767572L-3.890544950829832,61.838441188039035"/><path fill="none" stroke="#111" stroke-width="4" stroke-opacity="0.6" d="M-7.970429995714339,63.09245002036092L-7.575653686372939,59.96747375437057"/><path fill="none" stroke="#111" stroke-width="4" stroke-opacity="0.6" d="M-17.503805205456935,91.75816025504989L-10.863072825291981,56.94622200518246"/><path fill="none" stroke="#111" stroke-width="4" stroke-opacity="0.6" d="M-30.279646319443433,117.93143615245546L-13.575159454401177,52.87175528956248"/><path fill="none" stroke="#111" stroke-width="4" stroke-opacity="0.6" d="M-45.789529111687955,140.9256799220491L-15.55542097934183,47.87466306195094"/><path fill="none" stroke="#111" stroke-width="4" stroke-opacity="0.6" d="M-63.41303310086759,160.1630389661704L-16.67430213312752,42.11447981101638"/><path fill="none" stroke="#111" stroke-width="4" stroke-opacity="0.6" d="M-82.44001703003067,175.19395398573758L-16.834013025051497,35.77409866657183"/><path fill="none" stroke="#111" stroke-width="4" stroke-opacity="0.6" d="M-102.09613380373133,185.71217796249127L-15.97222612700905,29.053371469075646"/><path fill="none" stroke="#111" stroke-width="4" stroke-opacity="0.6" d="M-121.57067893826806,191.5647371719118L-14.064510214277004,22.16212187165421"/><path fill="none" stroke="#111" stroke-width="4" stroke-opacity="0.6" d="M-140.04578362201732,192.75648461556273L-11.125414080715107,15.312818798451701"/><path fill="none" stroke="#111" stroke-width="4" stroke-opacity="0.6" d="M-156.72591559097012,189.449087877307L-7.208160745676477,8.71316956989656"/><path fill="none" stroke="#111" stroke-width="4" stroke-opacity="0.6" d="M-170.86663989840517,181.95449061152652L-2.40296216337306,2.5588948003851857"/><path fill="none" stroke="#111" stroke-width="4" stroke-opacity="0.6" d="M-181.801617692415,170.7230826719131L3.1659866127323313,-2.97305932193706"/><path fill="none" stroke="#111" stroke-width="4" stroke-opacity="0.6" d="M-188.96688338855256,156.32700134520172L9.34472800306769,-7.730631319681293"/><path fill="none" stroke="#111" stroke-width="4" stroke-opacity="0.6" d="M-191.92153693009334,139.43915861986434L15.954828298605857,-11.591861285960578"/><path fill="none" stroke="#111" stroke-width="4" stroke-opacity="0.6" d="M-190.36411475163663,120.8087407812974L22.799543137191094,-14.469030050051735"/><path fill="none" stroke="#111" stroke-width="4" stroke-opacity="0.6" d="M-184.14405610375286,101.23405151668483L29.670644104012464,-16.31157462973687"/><path fill="none" stroke="#111" stroke-width="4" stroke-opacity="0.6" d="M-173.2678551318157,81.53366370729145L36.35566501391724,-17.107677375267382"/><path fill="none" stroke="#111" stroke-width="4" stroke-opacity="0.6" d="M-157.89967737199984,62.516904851698484L42.64531150426846,-16.884473268443564"/><path fill="none" stroke="#111" stroke-width="4" stroke-opacity="0.6" d="M-138.35641545732324,44.95472448226728L48.34077172533662,-15.706868864660652"/><path fill="none" stroke="#111" stroke-width="4" stroke-opacity="0.6" d="M-115.09735586345597,29.551978179450064L53.260669368101546,-13.67501561770266"/><path fill="none" stroke="#111" stroke-width="4" stroke-opacity="0.6" d="M-88.70881948249497,16.92211234305108L57.24741289461799,-10.920528060267117"/><path fill="none" stroke="#111" stroke-width="4" stroke-opacity="0.6" d="M-59.88431692318632,7.56514853557591L60.172716186362806,-7.60158183523731"/><path fill="none" stroke="#111" stroke-width="4" stroke-opacity="0.6" d="M-29.400918383738485,1.8497489970646175L61.942095144512884,-3.8970663050109353"/></g></svg>