<?xml version="1.0" standalone="no"?><!DOCTYPE svg PUBLIC "-//W3C//DTD SVG 1.1//EN" "http://www.w3.org/Graphics/SVG/1.1/DTD/svg11.dtd"><svg width="500" height="500" style="background: rgb(209, 209, 209);" version="1.1" xmlns="http://www.w3.org/2000/svg" xmlns:xlink="http://www.w3.org/1999/xlink"><defs xmlns="http://www.w3.org/1999/xhtml"><style type="text/css"><![CDATA[
html, body { height: 100%; margin: 0px; background: rgb(34, 34, 34); }
body, #prev, #next { height: 100%; box-sizing: border-box; display: -webkit-flex; flex-direction: column; justify-content: center; }
#prev, #next { position: absolute; top: 0px; color: rgb(209, 209, 209); font-size: 70px; text-decoration: none; padding: 20px; }
#prev { left: 0px; }
#next { right: 0px; }
svg { margin: auto; }
.fa { display: inline-block; font-style: normal; font-variant: normal; font-weight: normal; font-stretch: normal; line-height: 1; font-family: FontAwesome; font-size: inherit; text-rendering: auto; -webkit-font-smoothing: antialiased; }
.fa-twitter::before { content: ''; }
.fa-github::before { content: ''; }
.fa-th::before { content: ''; }
footer { text-align: center; margin-bottom: 25px; }
a { color: rgb(209, 209, 209); text-decoration: none; padding: 10px; }]]></style></defs><path fill="#111" d="M-6,2,L12,0L-6,-2Z" transform="translate(12.357414448669202,12.357414448669202)rotate(-294.0185699979503)"/><path fill="#111" d="M-6,2,L12,0L-6,-2Z" transform="translate(12.357414448669202,31.368821292775664)rotate(-286.14382992088855)"/><path fill="#111" d="M-6,2,L12,0L-6,-2Z" transform="translate(12.357414448669202,50.38022813688213)rotate(-277.2987697049228)"/><path fill="#111" d="M-6,2,L12,0L-6,-2Z" transform="translate(12.357414448669202,69.3916349809886)rotate(-267.7259505714644)"/><path fill="#111" d="M-6,2,L12,0L-6,-2Z" transform="translate(12.357414448669202,88.40304182509506)rotate(-257.55385187724596)"/><path fill="#111" d="M-6,2,L12,0L-6,-2Z" transform="translate(12.357414448669202,107.41444866920152)rotate(-246.9223460369366)"/><path fill="#111" d="M-6,2,L12,0L-6,-2Z" transform="translate(12.357414448669202,126.425855513308)rotate(-235.98061303665938)"/><path fill="#111" d="M-6,2,L12,0L-6,-2Z" transform="translate(12.357414448669202,145.43726235741445)rotate(-224.88430503182676)"/><path fill="#111" d="M-6,2,L12,0L-6,-2Z" transform="translate(12.357414448669202,164.44866920152091)rotate(-213.79207976219976)"/><path fill="#111" d="M-6,2,L12,0L-6,-2Z" transform="translate(12.357414448669202,183.46007604562737)rotate(-202.8616342313479)"/><path fill="#111" d="M-6,2,L12,0L-6,-2Z" transform="translate(12.357414448669202,202.47148288973384)rotate(-192.24538281195777)"/><path fill="#111" d="M-6,2,L12,0L-6,-2Z" transform="translate(12.357414448669202,221.4828897338403)rotate(-182.0859366527111)"/><path fill="#111" d="M-6,2,L12,0L-6,-2Z" transform="translate(12.357414448669202,240.49429657794678)rotate(-172.51155397672298)"/><path fill="#111" d="M-6,2,L12,0L-6,-2Z" transform="translate(12.357414448669202,259.5057034220532)rotate(-163.631743575806)"/><path fill="#111" d="M-6,2,L12,0L-6,-2Z" transform="translate(12.357414448669202,278.5171102661597)rotate(-155.5332165190923)"/><path fill="#111" d="M-6,2,L12,0L-6,-2Z" transform="translate(12.357414448669202,297.52851711026614)rotate(-148.27639380882164)"/><path fill="#111" d="M-6,2,L12,0L-6,-2Z" transform="translate(12.357414448669202,316.5399239543726)rotate(-141.89269043037498)"/><path fill="#111" d="M-6,2,L12,0L-6,-2Z" transform="translate(12.357414448669202,335.5513307984791)rotate(-136.3828089578998)"/><path fill="#111" d="M-6,2,L12,0L-6,-2Z" transform="translate(12.357414448669202,354.56273764258555)rotate(-131.71628859115268)"/><path fill="#111" d="M-6,2,L12,0L-6,-2Z" transform="translate(12.357414448669202,373.57414448669203)rotate(-127.8325682134488)"/><path fill="#111" d="M-6,2,L12,0L-6,-2Z" transform="translate(12.357414448669202,392.58555133079847)rotate(-124.64383477488535)"/><path fill="#111" d="M-6,2,L12,0L-6,-2Z" transform="translate(12.357414448669202,411.59695817490496)rotate(-122.03994101927289)"/><path fill="#111" d="M-6,2,L12,0L-6,-2Z" transform="translate(12.357414448669202,430.6083650190114)rotate(-119.89568928748506)"/><path fill="#111" d="M-6,2,L12,0L-6,-2Z" transform="translate(12.357414448669202,449.6197718631179)rotate(-117.84506505442653)"/><path fill="#111" d="M-6,2,L12,0L-6,-2Z" transform="translate(12.357414448669202,468.63117870722436)rotate(-116.1655427509189)"/><path fill="#111" d="M-6,2,L12,0L-6,-2Z" transform="translate(12.357414448669202,487.6425855513308)rotate(-114.35105062588592)"/><path fill="#111" d="M-6,2,L12,0L-6,-2Z" transform="translate(31.368821292775664,12.357414448669202)rotate(-287.26428048748795)"/><path fill="#111" d="M-6,2,L12,0L-6,-2Z" transform="translate(31.368821292775664,31.368821292775664)rotate(-280.5221591234833)"/><path fill="#111" d="M-6,2,L12,0L-6,-2Z" transform="translate(31.368821292775664,50.38022813688213)rotate(-272.9251397681046)"/><path fill="#111" d="M-6,2,L12,0L-6,-2Z" transform="translate(31.368821292775664,69.3916349809886)rotate(-264.5014826445017)"/><path fill="#111" d="M-6,2,L12,0L-6,-2Z" transform="translate(31.368821292775664,88.40304182509506)rotate(-255.51189785257628)"/><path fill="#111" d="M-6,2,L12,0L-6,-2Z" transform="translate(31.368821292775664,107.41444866920152)rotate(-246.0752362795373)"/><path fill="#111" d="M-6,2,L12,0L-6,-2Z" transform="translate(31.368821292775664,126.425855513308)rotate(-236.3191020286474)"/><path fill="#111" d="M-6,2,L12,0L-6,-2Z" transform="translate(31.368821292775664,145.43726235741445)rotate(-226.3773939347711)"/><path fill="#111" d="M-6,2,L12,0L-6,-2Z" transform="translate(31.368821292775664,164.44866920152091)rotate(-216.38719495489568)"/><path fill="#111" d="M-6,2,L12,0L-6,-2Z" transform="translate(31.368821292775664,183.46007604562737)rotate(-206.48514516722204)"/><path fill="#111" d="M-6,2,L12,0L-6,-2Z" transform="translate(31.368821292775664,202.47148288973384)rotate(-196.80344687278216)"/><path fill="#111" d="M-6,2,L12,0L-6,-2Z" transform="translate(31.368821292775664,221.4828897338403)rotate(-187.465663053907)"/><path fill="#111" d="M-6,2,L12,0L-6,-2Z" transform="translate(31.368821292775664,240.49429657794678)rotate(-178.58248320422499)"/><path fill="#111" d="M-6,2,L12,0L-6,-2Z" transform="translate(31.368821292775664,259.5057034220532)rotate(-170.2476433052393)"/><path fill="#111" d="M-6,2,L12,0L-6,-2Z" transform="translate(31.368821292775664,278.5171102661597)rotate(-162.5341994848889)"/><path fill="#111" d="M-6,2,L12,0L-6,-2Z" transform="translate(31.368821292775664,297.52851711026614)rotate(-155.49136765386453)"/><path fill="#111" d="M-6,2,L12,0L-6,-2Z" transform="translate(31.368821292775664,316.5399239543726)rotate(-149.14215417581045)"/><path fill="#111" d="M-6,2,L12,0L-6,-2Z" transform="translate(31.368821292775664,335.5513307984791)rotate(-143.48201538790593)"/><path fill="#111" d="M-6,2,L12,0L-6,-2Z" transform="translate(31.368821292775664,354.56273764258555)rotate(-138.47879654868285)"/><path fill="#111" d="M-6,2,L12,0L-6,-2Z" transform="translate(31.368821292775664,373.57414448669203)rotate(-134.0742135502968)"/><path fill="#111" d="M-6,2,L12,0L-6,-2Z" transform="translate(31.368821292775664,392.58555133079847)rotate(-130.18715349283292)"/><path fill="#111" d="M-6,2,L12,0L-6,-2Z" transform="translate(31.368821292775664,411.59695817490496)rotate(-126.71908297858775)"/><path fill="#111" d="M-6,2,L12,0L-6,-2Z" transform="translate(31.368821292775664,430.6083650190114)rotate(-123.56186574463239)"/><path fill="#111" d="M-6,2,L12,0L-6,-2Z" transform="translate(31.368821292775664,449.6197718631179)rotate(-120.4338314407459)"/><path fill="#111" d="M-6,2,L12,0L-6,-2Z" transform="translate(31.368821292775664,468.63117870722436)rotate(-117.45786714752424)"/><path fill="#111" d="M-6,2,L12,0L-6,-2Z" transform="translate(31.368821292775664,487.6425855513308)rotate(-114.32619997635778)"/><path fill="#111" d="M-6,2,L12,0L-6,-2Z" transform="translate(50.38022813688213,12.357414448669202)rotate(-279.70108092868844)"/><path fill="#111" d="M-6,2,L12,0L-6,-2Z" transform="translate(50.38022813688213,31.368821292775664)rotate(-274.27133706741955)"/><path fill="#111" d="M-6,2,L12,0L-6,-2Z" transform="translate(50.38022813688213,50.38022813688213)rotate(-267.95103006614096)"/><path fill="#111" d="M-6,2,L12,0L-6,-2Z" transform="translate(50.38022813688213,69.3916349809886)rotate(-260.9178255624907)"/><path fill="#111" d="M-6,2,L12,0L-6,-2Z" transform="translate(50.38022813688213,88.40304182509506)rotate(-253.17576306525555)"/><path fill="#111" d="M-6,2,L12,0L-6,-2Z" transform="translate(50.38022813688213,107.41444866920152)rotate(-244.99188857218292)"/><path fill="#111" d="M-6,2,L12,0L-6,-2Z" transform="translate(50.38022813688213,126.425855513308)rotate(-236.47204755666817)"/><path fill="#111" d="M-6,2,L12,0L-6,-2Z" transform="translate(50.38022813688213,145.43726235741445)rotate(-227.72823606873374)"/><path fill="#111" d="M-6,2,L12,0L-6,-2Z" transform="translate(50.38022813688213,164.44866920152091)rotate(-218.8758537779448)"/><path fill="#111" d="M-6,2,L12,0L-6,-2Z" transform="translate(50.38022813688213,183.46007604562737)rotate(-210.03042643065606)"/><path fill="#111" d="M-6,2,L12,0L-6,-2Z" transform="translate(50.38022813688213,202.47148288973384)rotate(-201.30395054805706)"/><path fill="#111" d="M-6,2,L12,0L-6,-2Z" transform="translate(50.38022813688213,221.4828897338403)rotate(-192.80102599793784)"/><path fill="#111" d="M-6,2,L12,0L-6,-2Z" transform="translate(50.38022813688213,240.49429657794678)rotate(-184.61495487955057)"/><path fill="#111" d="M-6,2,L12,0L-6,-2Z" transform="translate(50.38022813688213,259.5057034220532)rotate(-176.8239979673927)"/><path fill="#111" d="M-6,2,L12,0L-6,-2Z" transform="translate(50.38022813688213,278.5171102661597)rotate(-169.48799276619357)"/><path fill="#111" d="M-6,2,L12,0L-6,-2Z" transform="translate(50.38022813688213,297.52851711026614)rotate(-162.6455500358345)"/><path fill="#111" d="M-6,2,L12,0L-6,-2Z" transform="translate(50.38022813688213,316.5399239543726)rotate(-156.31205845138973)"/><path fill="#111" d="M-6,2,L12,0L-6,-2Z" transform="translate(50.38022813688213,335.5513307984791)rotate(-150.47873986992462)"/><path fill="#111" d="M-6,2,L12,0L-6,-2Z" transform="translate(50.38022813688213,354.56273764258555)rotate(-145.11301048214276)"/><path fill="#111" d="M-6,2,L12,0L-6,-2Z" transform="translate(50.38022813688213,373.57414448669203)rotate(-140.1604159334235)"/><path fill="#111" d="M-6,2,L12,0L-6,-2Z" transform="translate(50.38022813688213,392.58555133079847)rotate(-135.5484213052486)"/><path fill="#111" d="M-6,2,L12,0L-6,-2Z" transform="translate(50.38022813688213,411.59695817490496)rotate(-131.19234965446338)"/><path fill="#111" d="M-6,2,L12,0L-6,-2Z" transform="translate(50.38022813688213,430.6083650190114)rotate(-127.00377561427561)"/><path fill="#111" d="M-6,2,L12,0L-6,-2Z" transform="translate(50.38022813688213,449.6197718631179)rotate(-122.76269748589526)"/><path fill="#111" d="M-6,2,L12,0L-6,-2Z" transform="translate(50.38022813688213,468.63117870722436)rotate(-118.51616708757905)"/><path fill="#111" d="M-6,2,L12,0L-6,-2Z" transform="translate(50.38022813688213,487.6425855513308)rotate(-114.09976308867451)"/><path fill="#111" d="M-6,2,L12,0L-6,-2Z" transform="translate(69.3916349809886,12.357414448669202)rotate(-271.3476082722407)"/><path fill="#111" d="M-6,2,L12,0L-6,-2Z" transform="translate(69.3916349809886,31.368821292775664)rotate(-267.3858715265554)"/><path fill="#111" d="M-6,2,L12,0L-6,-2Z" transform="translate(69.3916349809886,50.38022813688213)rotate(-262.5179212828766)"/><path fill="#111" d="M-6,2,L12,0L-6,-2Z" transform="translate(69.3916349809886,69.3916349809886)rotate(-256.85781324418576)"/><path fill="#111" d="M-6,2,L12,0L-6,-2Z" transform="translate(69.3916349809886,88.40304182509506)rotate(-250.59039156661092)"/><path fill="#111" d="M-6,2,L12,0L-6,-2Z" transform="translate(69.3916349809886,107.41444866920152)rotate(-243.70442388816954)"/><path fill="#111" d="M-6,2,L12,0L-6,-2Z" transform="translate(69.3916349809886,126.425855513308)rotate(-236.4590904180988)"/><path fill="#111" d="M-6,2,L12,0L-6,-2Z" transform="translate(69.3916349809886,145.43726235741445)rotate(-228.94443493176726)"/><path fill="#111" d="M-6,2,L12,0L-6,-2Z" transform="translate(69.3916349809886,164.44866920152091)rotate(-221.2541617358018)"/><path fill="#111" d="M-6,2,L12,0L-6,-2Z" transform="translate(69.3916349809886,183.46007604562737)rotate(-213.482719578806)"/><path fill="#111" d="M-6,2,L12,0L-6,-2Z" transform="translate(69.3916349809886,202.47148288973384)rotate(-205.7220004224942)"/><path fill="#111" d="M-6,2,L12,0L-6,-2Z" transform="translate(69.3916349809886,221.4828897338403)rotate(-198.05782308476066)"/><path fill="#111" d="M-6,2,L12,0L-6,-2Z" transform="translate(69.3916349809886,240.49429657794678)rotate(-190.56638461875477)"/><path fill="#111" d="M-6,2,L12,0L-6,-2Z" transform="translate(69.3916349809886,259.5057034220532)rotate(-183.3108751445678)"/><path fill="#111" d="M-6,2,L12,0L-6,-2Z" transform="translate(69.3916349809886,278.5171102661597)rotate(-176.33846470268418)"/><path fill="#111" d="M-6,2,L12,0L-6,-2Z" transform="translate(69.3916349809886,297.52851711026614)rotate(-169.67788355089306)"/><path fill="#111" d="M-6,2,L12,0L-6,-2Z" transform="translate(69.3916349809886,316.5399239543726)rotate(-163.33783017889996)"/><path fill="#111" d="M-6,2,L12,0L-6,-2Z" transform="translate(69.3916349809886,335.5513307984791)rotate(-157.30645416741743)"/><path fill="#111" d="M-6,2,L12,0L-6,-2Z" transform="translate(69.3916349809886,354.56273764258555)rotate(-151.55217387106327)"/><path fill="#111" d="M-6,2,L12,0L-6,-2Z" transform="translate(69.3916349809886,373.57414448669203)rotate(-146.02610175693206)"/><path fill="#111" d="M-6,2,L12,0L-6,-2Z" transform="translate(69.3916349809886,392.58555133079847)rotate(-140.666363083253)"/><path fill="#111" d="M-6,2,L12,0L-6,-2Z" transform="translate(69.3916349809886,411.59695817490496)rotate(-135.40460645508762)"/><path fill="#111" d="M-6,2,L12,0L-6,-2Z" transform="translate(69.3916349809886,430.6083650190114)rotate(-130.07985908627788)"/><path fill="#111" d="M-6,2,L12,0L-6,-2Z" transform="translate(69.3916349809886,449.6197718631179)rotate(-124.8050596424132)"/><path fill="#111" d="M-6,2,L12,0L-6,-2Z" transform="translate(69.3916349809886,468.63117870722436)rotate(-119.32598606567058)"/><path fill="#111" d="M-6,2,L12,0L-6,-2Z" transform="translate(69.3916349809886,487.6425855513308)rotate(-113.6693290753894)"/><path fill="#111" d="M-6,2,L12,0L-6,-2Z" transform="translate(88.40304182509506,12.357414448669202)rotate(-262.22882035565067)"/><path fill="#111" d="M-6,2,L12,0L-6,-2Z" transform="translate(88.40304182509506,31.368821292775664)rotate(-259.87594558740193)"/><path fill="#111" d="M-6,2,L12,0L-6,-2Z" transform="translate(88.40304182509506,50.38022813688213)rotate(-256.5905668007093)"/><path fill="#111" d="M-6,2,L12,0L-6,-2Z" transform="translate(88.40304182509506,69.3916349809886)rotate(-252.46987591530254)"/><path fill="#111" d="M-6,2,L12,0L-6,-2Z" transform="translate(88.40304182509506,88.40304182509506)rotate(-247.623296968289)"/><path fill="#111" d="M-6,2,L12,0L-6,-2Z" transform="translate(88.40304182509506,107.41444866920152)rotate(-242.23458925781725)"/><path fill="#111" d="M-6,2,L12,0L-6,-2Z" transform="translate(88.40304182509506,126.425855513308)rotate(-236.28831939249181)"/><path fill="#111" d="M-6,2,L12,0L-6,-2Z" transform="translate(88.40304182509506,145.43726235741445)rotate(-230.02095572609642)"/><path fill="#111" d="M-6,2,L12,0L-6,-2Z" transform="translate(88.40304182509506,164.44866920152091)rotate(-223.5045928509029)"/><path fill="#111" d="M-6,2,L12,0L-6,-2Z" transform="translate(88.40304182509506,183.46007604562737)rotate(-216.81273776731723)"/><path fill="#111" d="M-6,2,L12,0L-6,-2Z" transform="translate(88.40304182509506,202.47148288973384)rotate(-210.0173790813036)"/><path fill="#111" d="M-6,2,L12,0L-6,-2Z" transform="translate(88.40304182509506,221.4828897338403)rotate(-203.18584057306273)"/><path fill="#111" d="M-6,2,L12,0L-6,-2Z" transform="translate(88.40304182509506,240.49429657794678)rotate(-196.3776064257191)"/><path fill="#111" d="M-6,2,L12,0L-6,-2Z" transform="translate(88.40304182509506,259.5057034220532)rotate(-189.6413183014091)"/><path fill="#111" d="M-6,2,L12,0L-6,-2Z" transform="translate(88.40304182509506,278.5171102661597)rotate(-183.01215735079543)"/><path fill="#111" d="M-6,2,L12,0L-6,-2Z" transform="translate(88.40304182509506,297.52851711026614)rotate(-176.50983714066467)"/><path fill="#111" d="M-6,2,L12,0L-6,-2Z" transform="translate(88.40304182509506,316.5399239543726)rotate(-170.1374463829013)"/><path fill="#111" d="M-6,2,L12,0L-6,-2Z" transform="translate(88.40304182509506,335.5513307984791)rotate(-163.88139324676368)"/><path fill="#111" d="M-6,2,L12,0L-6,-2Z" transform="translate(88.40304182509506,354.56273764258555)rotate(-157.71271593502235)"/><path fill="#111" d="M-6,2,L12,0L-6,-2Z" transform="translate(88.40304182509506,373.57414448669203)rotate(-151.5900371031522)"/><path fill="#111" d="M-6,2,L12,0L-6,-2Z" transform="translate(88.40304182509506,392.58555133079847)rotate(-145.46445259940865)"/><path fill="#111" d="M-6,2,L12,0L-6,-2Z" transform="translate(88.40304182509506,411.59695817490496)rotate(-139.28665790224545)"/><path fill="#111" d="M-6,2,L12,0L-6,-2Z" transform="translate(88.40304182509506,430.6083650190114)rotate(-132.96666724702285)"/><path fill="#111" d="M-6,2,L12,0L-6,-2Z" transform="translate(88.40304182509506,449.6197718631179)rotate(-126.52402660870217)"/><path fill="#111" d="M-6,2,L12,0L-6,-2Z" transform="translate(88.40304182509506,468.63117870722436)rotate(-119.86195642072585)"/><path fill="#111" d="M-6,2,L12,0L-6,-2Z" transform="translate(88.40304182509506,487.6425855513308)rotate(-113.02087260202381)"/><path fill="#111" d="M-6,2,L12,0L-6,-2Z" transform="translate(107.41444866920152,12.357414448669202)rotate(-252.37967122568614)"/><path fill="#111" d="M-6,2,L12,0L-6,-2Z" transform="translate(107.41444866920152,31.368821292775664)rotate(-251.7573206518078)"/><path fill="#111" d="M-6,2,L12,0L-6,-2Z" transform="translate(107.41444866920152,50.38022813688213)rotate(-250.16794693667052)"/><path fill="#111" d="M-6,2,L12,0L-6,-2Z" transform="translate(107.41444866920152,69.3916349809886)rotate(-247.68886120627664)"/><path fill="#111" d="M-6,2,L12,0L-6,-2Z" transform="translate(107.41444866920152,88.40304182509506)rotate(-244.41296560786006)"/><path fill="#111" d="M-6,2,L12,0L-6,-2Z" transform="translate(107.41444866920152,107.41444866920152)rotate(-240.4441057848045)"/><path fill="#111" d="M-6,2,L12,0L-6,-2Z" transform="translate(107.41444866920152,126.425855513308)rotate(-235.95631945022677)"/><path fill="#111" d="M-6,2,L12,0L-6,-2Z" transform="translate(107.41444866920152,145.43726235741445)rotate(-230.94013827291639)"/><path fill="#111" d="M-6,2,L12,0L-6,-2Z" transform="translate(107.41444866920152,164.44866920152091)rotate(-225.5959753072453)"/><path fill="#111" d="M-6,2,L12,0L-6,-2Z" transform="translate(107.41444866920152,183.46007604562737)rotate(-219.9766340218604)"/><path fill="#111" d="M-6,2,L12,0L-6,-2Z" transform="translate(107.41444866920152,202.47148288973384)rotate(-214.13450780516132)"/><path fill="#111" d="M-6,2,L12,0L-6,-2Z" transform="translate(107.41444866920152,221.4828897338403)rotate(-208.1188242101841)"/><path fill="#111" d="M-6,2,L12,0L-6,-2Z" transform="translate(107.41444866920152,240.49429657794678)rotate(-201.97286730435172)"/><path fill="#111" d="M-6,2,L12,0L-6,-2Z" transform="translate(107.41444866920152,259.5057034220532)rotate(-195.73138278226452)"/><path fill="#111" d="M-6,2,L12,0L-6,-2Z" transform="translate(107.41444866920152,278.5171102661597)rotate(-189.41838344442942)"/><path fill="#111" d="M-6,2,L12,0L-6,-2Z" transform="translate(107.41444866920152,297.52851711026614)rotate(-183.04558558954713)"/><path fill="#111" d="M-6,2,L12,0L-6,-2Z" transform="translate(107.41444866920152,316.5399239543726)rotate(-176.61171981270402)"/><path fill="#111" d="M-6,2,L12,0L-6,-2Z" transform="translate(107.41444866920152,335.5513307984791)rotate(-170.1029726465385)"/><path fill="#111" d="M-6,2,L12,0L-6,-2Z" transform="translate(107.41444866920152,354.56273764258555)rotate(-163.49482842717717)"/><path fill="#111" d="M-6,2,L12,0L-6,-2Z" transform="translate(107.41444866920152,373.57414448669203)rotate(-156.7555937114567)"/><path fill="#111" d="M-6,2,L12,0L-6,-2Z" transform="translate(107.41444866920152,392.58555133079847)rotate(-149.85189951667735)"/><path fill="#111" d="M-6,2,L12,0L-6,-2Z" transform="translate(107.41444866920152,411.59695817490496)rotate(-142.75648959885245)"/><path fill="#111" d="M-6,2,L12,0L-6,-2Z" transform="translate(107.41444866920152,430.6083650190114)rotate(-135.42916573510402)"/><path fill="#111" d="M-6,2,L12,0L-6,-2Z" transform="translate(107.41444866920152,449.6197718631179)rotate(-127.87254659728166)"/><path fill="#111" d="M-6,2,L12,0L-6,-2Z" transform="translate(107.41444866920152,468.63117870722436)rotate(-120.08773058886909)"/><path fill="#111" d="M-6,2,L12,0L-6,-2Z" transform="translate(107.41444866920152,487.6425855513308)rotate(-112.12849620271814)"/><path fill="#111" d="M-6,2,L12,0L-6,-2Z" transform="translate(126.425855513308,12.357414448669202)rotate(-241.84723565610437)"/><path fill="#111" d="M-6,2,L12,0L-6,-2Z" transform="translate(126.425855513308,31.368821292775664)rotate(-243.05430459150028)"/><path fill="#111" d="M-6,2,L12,0L-6,-2Z" transform="translate(126.425855513308,50.38022813688213)rotate(-243.25366476099393)"/><path fill="#111" d="M-6,2,L12,0L-6,-2Z" transform="translate(126.425855513308,69.3916349809886)rotate(-242.50022880632807)"/><path fill="#111" d="M-6,2,L12,0L-6,-2Z" transform="translate(126.425855513308,88.40304182509506)rotate(-240.86748768673758)"/><path fill="#111" d="M-6,2,L12,0L-6,-2Z" transform="translate(126.425855513308,107.41444866920152)rotate(-238.4437300691292)"/><path fill="#111" d="M-6,2,L12,0L-6,-2Z" transform="translate(126.425855513308,126.425855513308)rotate(-235.32637025195473)"/><path fill="#111" d="M-6,2,L12,0L-6,-2Z" transform="translate(126.425855513308,145.43726235741445)rotate(-231.67209881980608)"/><path fill="#111" d="M-6,2,L12,0L-6,-2Z" transform="translate(126.425855513308,164.44866920152091)rotate(-227.4838664714713)"/><path fill="#111" d="M-6,2,L12,0L-6,-2Z" transform="translate(126.425855513308,183.46007604562737)rotate(-222.91636320320544)"/><path fill="#111" d="M-6,2,L12,0L-6,-2Z" transform="translate(126.425855513308,202.47148288973384)rotate(-218.00281110588338)"/><path fill="#111" d="M-6,2,L12,0L-6,-2Z" transform="translate(126.425855513308,221.4828897338403)rotate(-212.77486388105396)"/><path fill="#111" d="M-6,2,L12,0L-6,-2Z" transform="translate(126.425855513308,240.49429657794678)rotate(-207.26025149925263)"/><path fill="#111" d="M-6,2,L12,0L-6,-2Z" transform="translate(126.425855513308,259.5057034220532)rotate(-201.48062107759813)"/><path fill="#111" d="M-6,2,L12,0L-6,-2Z" transform="translate(126.425855513308,278.5171102661597)rotate(-195.4497960964441)"/><path fill="#111" d="M-6,2,L12,0L-6,-2Z" transform="translate(126.425855513308,297.52851711026614)rotate(-189.17268906566767)"/><path fill="#111" d="M-6,2,L12,0L-6,-2Z" transform="translate(126.425855513308,316.5399239543726)rotate(-182.64511574199634)"/><path fill="#111" d="M-6,2,L12,0L-6,-2Z" transform="translate(126.425855513308,335.5513307984791)rotate(-175.8547719895856)"/><path fill="#111" d="M-6,2,L12,0L-6,-2Z" transform="translate(126.425855513308,354.56273764258555)rotate(-168.78364736687763)"/><path fill="#111" d="M-6,2,L12,0L-6,-2Z" transform="translate(126.425855513308,373.57414448669203)rotate(-161.41216251358293)"/><path fill="#111" d="M-6,2,L12,0L-6,-2Z" transform="translate(126.425855513308,392.58555133079847)rotate(-153.72533040244483)"/><path fill="#111" d="M-6,2,L12,0L-6,-2Z" transform="translate(126.425855513308,411.59695817490496)rotate(-145.72125451125885)"/><path fill="#111" d="M-6,2,L12,0L-6,-2Z" transform="translate(126.425855513308,430.6083650190114)rotate(-137.4005463581904)"/><path fill="#111" d="M-6,2,L12,0L-6,-2Z" transform="translate(126.425855513308,449.6197718631179)rotate(-128.79373168930817)"/><path fill="#111" d="M-6,2,L12,0L-6,-2Z" transform="translate(126.425855513308,468.63117870722436)rotate(-119.95611761426613)"/><path fill="#111" d="M-6,2,L12,0L-6,-2Z" transform="translate(126.425855513308,487.6425855513308)rotate(-110.95438745247756)"/><path fill="#111" d="M-6,2,L12,0L-6,-2Z" transform="translate(145.43726235741445,12.357414448669202)rotate(-230.69144648014785)"/><path fill="#111" d="M-6,2,L12,0L-6,-2Z" transform="translate(145.43726235741445,31.368821292775664)rotate(-233.801273981856)"/><path fill="#111" d="M-6,2,L12,0L-6,-2Z" transform="translate(145.43726235741445,50.38022813688213)rotate(-235.85828648415304)"/><path fill="#111" d="M-6,2,L12,0L-6,-2Z" transform="translate(145.43726235741445,69.3916349809886)rotate(-236.89295337878372)"/><path fill="#111" d="M-6,2,L12,0L-6,-2Z" transform="translate(145.43726235741445,88.40304182509506)rotate(-236.95696639353)"/><path fill="#111" d="M-6,2,L12,0L-6,-2Z" transform="translate(145.43726235741445,107.41444866920152)rotate(-236.12029303234905)"/><path fill="#111" d="M-6,2,L12,0L-6,-2Z" transform="translate(145.43726235741445,126.425855513308)rotate(-234.46640365881132)"/><path fill="#111" d="M-6,2,L12,0L-6,-2Z" transform="translate(145.43726235741445,145.43726235741445)rotate(-232.08549417984892)"/><path fill="#111" d="M-6,2,L12,0L-6,-2Z" transform="translate(145.43726235741445,164.44866920152091)rotate(-229.11146325827033)"/><path fill="#111" d="M-6,2,L12,0L-6,-2Z" transform="translate(145.43726235741445,183.46007604562737)rotate(-225.5605880573328)"/><path fill="#111" d="M-6,2,L12,0L-6,-2Z" transform="translate(145.43726235741445,202.47148288973384)rotate(-221.53763796509037)"/><path fill="#111" d="M-6,2,L12,0L-6,-2Z" transform="translate(145.43726235741445,221.4828897338403)rotate(-217.0573514553)"/><path fill="#111" d="M-6,2,L12,0L-6,-2Z" transform="translate(145.43726235741445,240.49429657794678)rotate(-212.13269830696166)"/><path fill="#111" d="M-6,2,L12,0L-6,-2Z" transform="translate(145.43726235741445,259.5057034220532)rotate(-206.77318591062755)"/><path fill="#111" d="M-6,2,L12,0L-6,-2Z" transform="translate(145.43726235741445,278.5171102661597)rotate(-200.98360444723852)"/><path fill="#111" d="M-6,2,L12,0L-6,-2Z" transform="translate(145.43726235741445,297.52851711026614)rotate(-194.76345061303604)"/><path fill="#111" d="M-6,2,L12,0L-6,-2Z" transform="translate(145.43726235741445,316.5399239543726)rotate(-188.10728260100151)"/><path fill="#111" d="M-6,2,L12,0L-6,-2Z" transform="translate(145.43726235741445,335.5513307984791)rotate(-181.0062720861812)"/><path fill="#111" d="M-6,2,L12,0L-6,-2Z" transform="translate(145.43726235741445,354.56273764258555)rotate(-173.45123199916046)"/><path fill="#111" d="M-6,2,L12,0L-6,-2Z" transform="translate(145.43726235741445,373.57414448669203)rotate(-165.43741190885538)"/><path fill="#111" d="M-6,2,L12,0L-6,-2Z" transform="translate(145.43726235741445,392.58555133079847)rotate(-156.9713658726969)"/><path fill="#111" d="M-6,2,L12,0L-6,-2Z" transform="translate(145.43726235741445,411.59695817490496)rotate(-148.07683949064543)"/><path fill="#111" d="M-6,2,L12,0L-6,-2Z" transform="translate(145.43726235741445,430.6083650190114)rotate(-138.80590089377569)"/><path fill="#111" d="M-6,2,L12,0L-6,-2Z" transform="translate(145.43726235741445,449.6197718631179)rotate(-129.2214766051404)"/><path fill="#111" d="M-6,2,L12,0L-6,-2Z" transform="translate(145.43726235741445,468.63117870722436)rotate(-119.40952455226076)"/><path fill="#111" d="M-6,2,L12,0L-6,-2Z" transform="translate(145.43726235741445,487.6425855513308)rotate(-109.44909293484464)"/><path fill="#111" d="M-6,2,L12,0L-6,-2Z" transform="translate(164.44866920152091,12.357414448669202)rotate(-218.98461558679162)"/><path fill="#111" d="M-6,2,L12,0L-6,-2Z" transform="translate(164.44866920152091,31.368821292775664)rotate(-224.0429279009217)"/><path fill="#111" d="M-6,2,L12,0L-6,-2Z" transform="translate(164.44866920152091,50.38022813688213)rotate(-228.00036252779398)"/><path fill="#111" d="M-6,2,L12,0L-6,-2Z" transform="translate(164.44866920152091,69.3916349809886)rotate(-230.8613501977524)"/><path fill="#111" d="M-6,2,L12,0L-6,-2Z" transform="translate(164.44866920152091,88.40304182509506)rotate(-232.65387384138376)"/><path fill="#111" d="M-6,2,L12,0L-6,-2Z" transform="translate(164.44866920152091,107.41444866920152)rotate(-233.42732601924996)"/><path fill="#111" d="M-6,2,L12,0L-6,-2Z" transform="translate(164.44866920152091,126.425855513308)rotate(-233.24860645336054)"/><path fill="#111" d="M-6,2,L12,0L-6,-2Z" transform="translate(164.44866920152091,145.43726235741445)rotate(-232.1962881161609)"/><path fill="#111" d="M-6,2,L12,0L-6,-2Z" transform="translate(164.44866920152091,164.44866920152091)rotate(-230.35268940593718)"/><path fill="#111" d="M-6,2,L12,0L-6,-2Z" transform="translate(164.44866920152091,183.46007604562737)rotate(-227.82631163001705)"/><path fill="#111" d="M-6,2,L12,0L-6,-2Z" transform="translate(164.44866920152091,202.47148288973384)rotate(-224.64192652607719)"/><path fill="#111" d="M-6,2,L12,0L-6,-2Z" transform="translate(164.44866920152091,221.4828897338403)rotate(-220.85670309961725)"/><path fill="#111" d="M-6,2,L12,0L-6,-2Z" transform="translate(164.44866920152091,240.49429657794678)rotate(-216.4698092878412)"/><path fill="#111" d="M-6,2,L12,0L-6,-2Z" transform="translate(164.44866920152091,259.5057034220532)rotate(-211.47975158329024)"/><path fill="#111" d="M-6,2,L12,0L-6,-2Z" transform="translate(164.44866920152091,278.5171102661597)rotate(-205.88364035468265)"/><path fill="#111" d="M-6,2,L12,0L-6,-2Z" transform="translate(164.44866920152091,297.52851711026614)rotate(-199.6771613903784)"/><path fill="#111" d="M-6,2,L12,0L-6,-2Z" transform="translate(164.44866920152091,316.5399239543726)rotate(-192.8555109839709)"/><path fill="#111" d="M-6,2,L12,0L-6,-2Z" transform="translate(164.44866920152091,335.5513307984791)rotate(-185.41556496450983)"/><path fill="#111" d="M-6,2,L12,0L-6,-2Z" transform="translate(164.44866920152091,354.56273764258555)rotate(-177.35956515685197)"/><path fill="#111" d="M-6,2,L12,0L-6,-2Z" transform="translate(164.44866920152091,373.57414448669203)rotate(-168.70061984063457)"/><path fill="#111" d="M-6,2,L12,0L-6,-2Z" transform="translate(164.44866920152091,392.58555133079847)rotate(-159.47032785936057)"/><path fill="#111" d="M-6,2,L12,0L-6,-2Z" transform="translate(164.44866920152091,411.59695817490496)rotate(-149.72816339889414)"/><path fill="#111" d="M-6,2,L12,0L-6,-2Z" transform="translate(164.44866920152091,430.6083650190114)rotate(-139.56342669155038)"/><path fill="#111" d="M-6,2,L12,0L-6,-2Z" transform="translate(164.44866920152091,449.6197718631179)rotate(-129.08148934885853)"/><path fill="#111" d="M-6,2,L12,0L-6,-2Z" transform="translate(164.44866920152091,468.63117870722436)rotate(-118.38082252723937)"/><path fill="#111" d="M-6,2,L12,0L-6,-2Z" transform="translate(164.44866920152091,487.6425855513308)rotate(-107.55223107196106)"/><path fill="#111" d="M-6,2,L12,0L-6,-2Z" transform="translate(183.46007604562737,12.357414448669202)rotate(-206.80991707403928)"/><path fill="#111" d="M-6,2,L12,0L-6,-2Z" transform="translate(183.46007604562737,31.368821292775664)rotate(-213.8334583318403)"/><path fill="#111" d="M-6,2,L12,0L-6,-2Z" transform="translate(183.46007604562737,50.38022813688213)rotate(-219.70632090866744)"/><path fill="#111" d="M-6,2,L12,0L-6,-2Z" transform="translate(183.46007604562737,69.3916349809886)rotate(-224.40573003112382)"/><path fill="#111" d="M-6,2,L12,0L-6,-2Z" transform="translate(183.46007604562737,88.40304182509506)rotate(-227.9345087725498)"/><path fill="#111" d="M-6,2,L12,0L-6,-2Z" transform="translate(183.46007604562737,107.41444866920152)rotate(-230.31971217741687)"/><path fill="#111" d="M-6,2,L12,0L-6,-2Z" transform="translate(183.46007604562737,126.425855513308)rotate(-231.60956931448973)"/><path fill="#111" d="M-6,2,L12,0L-6,-2Z" transform="translate(183.46007604562737,145.43726235741445)rotate(-231.8685681211171)"/><path fill="#111" d="M-6,2,L12,0L-6,-2Z" transform="translate(183.46007604562737,164.44866920152091)rotate(-231.17052702022576)"/><path fill="#111" d="M-6,2,L12,0L-6,-2Z" transform="translate(183.46007604562737,183.46007604562737)rotate(-229.5895055811711)"/><path fill="#111" d="M-6,2,L12,0L-6,-2Z" transform="translate(183.46007604562737,202.47148288973384)rotate(-227.20883129186063)"/><path fill="#111" d="M-6,2,L12,0L-6,-2Z" transform="translate(183.46007604562737,221.4828897338403)rotate(-224.0530696252404)"/><path fill="#111" d="M-6,2,L12,0L-6,-2Z" transform="translate(183.46007604562737,240.49429657794678)rotate(-220.1406730113996)"/><path fill="#111" d="M-6,2,L12,0L-6,-2Z" transform="translate(183.46007604562737,259.5057034220532)rotate(-215.4604863233998)"/><path fill="#111" d="M-6,2,L12,0L-6,-2Z" transform="translate(183.46007604562737,278.5171102661597)rotate(-210.00351352239576)"/><path fill="#111" d="M-6,2,L12,0L-6,-2Z" transform="translate(183.46007604562737,297.52851711026614)rotate(-203.76347575488936)"/><path fill="#111" d="M-6,2,L12,0L-6,-2Z" transform="translate(183.46007604562737,316.5399239543726)rotate(-196.73836787757654)"/><path fill="#111" d="M-6,2,L12,0L-6,-2Z" transform="translate(183.46007604562737,335.5513307984791)rotate(-188.93328846743196)"/><path fill="#111" d="M-6,2,L12,0L-6,-2Z" transform="translate(183.46007604562737,354.56273764258555)rotate(-180.36483150376674)"/><path fill="#111" d="M-6,2,L12,0L-6,-2Z" transform="translate(183.46007604562737,373.57414448669203)rotate(-171.06734103807537)"/><path fill="#111" d="M-6,2,L12,0L-6,-2Z" transform="translate(183.46007604562737,392.58555133079847)rotate(-161.10134329657856)"/><path fill="#111" d="M-6,2,L12,0L-6,-2Z" transform="translate(183.46007604562737,411.59695817490496)rotate(-150.5641306401053)"/><path fill="#111" d="M-6,2,L12,0L-6,-2Z" transform="translate(183.46007604562737,430.6083650190114)rotate(-139.5861680773583)"/><path fill="#111" d="M-6,2,L12,0L-6,-2Z" transform="translate(183.46007604562737,449.6197718631179)rotate(-128.29287131278005)"/><path fill="#111" d="M-6,2,L12,0L-6,-2Z" transform="translate(183.46007604562737,468.63117870722436)rotate(-116.79477733579161)"/><path fill="#111" d="M-6,2,L12,0L-6,-2Z" transform="translate(183.46007604562737,487.6425855513308)rotate(-105.19378601211415)"/><path fill="#111" d="M-6,2,L12,0L-6,-2Z" transform="translate(202.47148288973384,12.357414448669202)rotate(-194.25901911168788)"/><path fill="#111" d="M-6,2,L12,0L-6,-2Z" transform="translate(202.47148288973384,31.368821292775664)rotate(-203.23483017377478)"/><path fill="#111" d="M-6,2,L12,0L-6,-2Z" transform="translate(202.47148288973384,50.38022813688213)rotate(-211.0094324394171)"/><path fill="#111" d="M-6,2,L12,0L-6,-2Z" transform="translate(202.47148288973384,69.3916349809886)rotate(-217.53208931860587)"/><path fill="#111" d="M-6,2,L12,0L-6,-2Z" transform="translate(202.47148288973384,88.40304182509506)rotate(-222.77945426648517)"/><path fill="#111" d="M-6,2,L12,0L-6,-2Z" transform="translate(202.47148288973384,107.41444866920152)rotate(-226.75495703340087)"/><path fill="#111" d="M-6,2,L12,0L-6,-2Z" transform="translate(202.47148288973384,126.425855513308)rotate(-229.48656705908647)"/><path fill="#111" d="M-6,2,L12,0L-6,-2Z" transform="translate(202.47148288973384,145.43726235741445)rotate(-231.0227751877506)"/><path fill="#111" d="M-6,2,L12,0L-6,-2Z" transform="translate(202.47148288973384,164.44866920152091)rotate(-231.42664404613316)"/><path fill="#111" d="M-6,2,L12,0L-6,-2Z" transform="translate(202.47148288973384,183.46007604562737)rotate(-230.7677857622699)"/><path fill="#111" d="M-6,2,L12,0L-6,-2Z" transform="translate(202.47148288973384,202.47148288973384)rotate(-229.11213320873972)"/><path fill="#111" d="M-6,2,L12,0L-6,-2Z" transform="translate(202.47148288973384,221.4828897338403)rotate(-226.52029115791802)"/><path fill="#111" d="M-6,2,L12,0L-6,-2Z" transform="translate(202.47148288973384,240.49429657794678)rotate(-223.00796818541636)"/><path fill="#111" d="M-6,2,L12,0L-6,-2Z" transform="translate(202.47148288973384,259.5057034220532)rotate(-218.56934109240544)"/><path fill="#111" d="M-6,2,L12,0L-6,-2Z" transform="translate(202.47148288973384,278.5171102661597)rotate(-213.19112518093172)"/><path fill="#111" d="M-6,2,L12,0L-6,-2Z" transform="translate(202.47148288973384,297.52851711026614)rotate(-206.86719100669686)"/><path fill="#111" d="M-6,2,L12,0L-6,-2Z" transform="translate(202.47148288973384,316.5399239543726)rotate(-199.60078567332243)"/><path fill="#111" d="M-6,2,L12,0L-6,-2Z" transform="translate(202.47148288973384,335.5513307984791)rotate(-191.408069772078)"/><path fill="#111" d="M-6,2,L12,0L-6,-2Z" transform="translate(202.47148288973384,354.56273764258555)rotate(-182.32326285504095)"/><path fill="#111" d="M-6,2,L12,0L-6,-2Z" transform="translate(202.47148288973384,373.57414448669203)rotate(-172.4057035048313)"/><path fill="#111" d="M-6,2,L12,0L-6,-2Z" transform="translate(202.47148288973384,392.58555133079847)rotate(-161.7491431845639)"/><path fill="#111" d="M-6,2,L12,0L-6,-2Z" transform="translate(202.47148288973384,411.59695817490496)rotate(-150.4902205420213)"/><path fill="#111" d="M-6,2,L12,0L-6,-2Z" transform="translate(202.47148288973384,430.6083650190114)rotate(-138.78444896838013)"/><path fill="#111" d="M-6,2,L12,0L-6,-2Z" transform="translate(202.47148288973384,449.6197718631179)rotate(-126.77040455614241)"/><path fill="#111" d="M-6,2,L12,0L-6,-2Z" transform="translate(202.47148288973384,468.63117870722436)rotate(-114.57020461386598)"/><path fill="#111" d="M-6,2,L12,0L-6,-2Z" transform="translate(202.47148288973384,487.6425855513308)rotate(-102.29614489799266)"/><path fill="#111" d="M-6,2,L12,0L-6,-2Z" transform="translate(221.4828897338403,12.357414448669202)rotate(-181.42905953993164)"/><path fill="#111" d="M-6,2,L12,0L-6,-2Z" transform="translate(221.4828897338403,31.368821292775664)rotate(-192.31437224819564)"/><path fill="#111" d="M-6,2,L12,0L-6,-2Z" transform="translate(221.4828897338403,50.38022813688213)rotate(-201.9480555396746)"/><path fill="#111" d="M-6,2,L12,0L-6,-2Z" transform="translate(221.4828897338403,69.3916349809886)rotate(-210.25104989092412)"/><path fill="#111" d="M-6,2,L12,0L-6,-2Z" transform="translate(221.4828897338403,88.40304182509506)rotate(-217.17325619638032)"/><path fill="#111" d="M-6,2,L12,0L-6,-2Z" transform="translate(221.4828897338403,107.41444866920152)rotate(-222.6936522614761)"/><path fill="#111" d="M-6,2,L12,0L-6,-2Z" transform="translate(221.4828897338403,126.425855513308)rotate(-226.8188570633586)"/><path fill="#111" d="M-6,2,L12,0L-6,-2Z" transform="translate(221.4828897338403,145.43726235741445)rotate(-229.57999017819242)"/><path fill="#111" d="M-6,2,L12,0L-6,-2Z" transform="translate(221.4828897338403,164.44866920152091)rotate(-231.0276829854308)"/><path fill="#111" d="M-6,2,L12,0L-6,-2Z" transform="translate(221.4828897338403,183.46007604562737)rotate(-231.22510664119605)"/><path fill="#111" d="M-6,2,L12,0L-6,-2Z" transform="translate(221.4828897338403,202.47148288973384)rotate(-230.23888936503843)"/><path fill="#111" d="M-6,2,L12,0L-6,-2Z" transform="translate(221.4828897338403,221.4828897338403)rotate(-228.12780230685138)"/><path fill="#111" d="M-6,2,L12,0L-6,-2Z" transform="translate(221.4828897338403,240.49429657794678)rotate(-224.93363915161783)"/><path fill="#111" d="M-6,2,L12,0L-6,-2Z" transform="translate(221.4828897338403,259.5057034220532)rotate(-220.659953445557)"/><path fill="#111" d="M-6,2,L12,0L-6,-2Z" transform="translate(221.4828897338403,278.5171102661597)rotate(-215.29484356881702)"/><path fill="#111" d="M-6,2,L12,0L-6,-2Z" transform="translate(221.4828897338403,297.52851711026614)rotate(-208.83473974221772)"/><path fill="#111" d="M-6,2,L12,0L-6,-2Z" transform="translate(221.4828897338403,316.5399239543726)rotate(-201.2909186594796)"/><path fill="#111" d="M-6,2,L12,0L-6,-2Z" transform="translate(221.4828897338403,335.5513307984791)rotate(-192.6937953211896)"/><path fill="#111" d="M-6,2,L12,0L-6,-2Z" transform="translate(221.4828897338403,354.56273764258555)rotate(-183.09887290302862)"/><path fill="#111" d="M-6,2,L12,0L-6,-2Z" transform="translate(221.4828897338403,373.57414448669203)rotate(-172.59466146872816)"/><path fill="#111" d="M-6,2,L12,0L-6,-2Z" transform="translate(221.4828897338403,392.58555133079847)rotate(-161.31183060188573)"/><path fill="#111" d="M-6,2,L12,0L-6,-2Z" transform="translate(221.4828897338403,411.59695817490496)rotate(-149.4141832436762)"/><path fill="#111" d="M-6,2,L12,0L-6,-2Z" transform="translate(221.4828897338403,430.6083650190114)rotate(-137.06917223732523)"/><path fill="#111" d="M-6,2,L12,0L-6,-2Z" transform="translate(221.4828897338403,449.6197718631179)rotate(-124.42772410026006)"/><path fill="#111" d="M-6,2,L12,0L-6,-2Z" transform="translate(221.4828897338403,468.63117870722436)rotate(-111.62302971475341)"/><path fill="#111" d="M-6,2,L12,0L-6,-2Z" transform="translate(221.4828897338403,487.6425855513308)rotate(-98.77706096701255)"/><path fill="#111" d="M-6,2,L12,0L-6,-2Z" transform="translate(240.49429657794678,12.357414448669202)rotate(-168.4191691189237)"/><path fill="#111" d="M-6,2,L12,0L-6,-2Z" transform="translate(240.49429657794678,31.368821292775664)rotate(-181.14188948396244)"/><path fill="#111" d="M-6,2,L12,0L-6,-2Z" transform="translate(240.49429657794678,50.38022813688213)rotate(-192.56337715529503)"/><path fill="#111" d="M-6,2,L12,0L-6,-2Z" transform="translate(240.49429657794678,69.3916349809886)rotate(-202.57627108851173)"/><path fill="#111" d="M-6,2,L12,0L-6,-2Z" transform="translate(240.49429657794678,88.40304182509506)rotate(-211.1035516990235)"/><path fill="#111" d="M-6,2,L12,0L-6,-2Z" transform="translate(240.49429657794678,107.41444866920152)rotate(-218.09936836257248)"/><path fill="#111" d="M-6,2,L12,0L-6,-2Z" transform="translate(240.49429657794678,126.425855513308)rotate(-223.54838673465414)"/><path fill="#111" d="M-6,2,L12,0L-6,-2Z" transform="translate(240.49429657794678,145.43726235741445)rotate(-227.4635094178766)"/><path fill="#111" d="M-6,2,L12,0L-6,-2Z" transform="translate(240.49429657794678,164.44866920152091)rotate(-229.88183276377163)"/><path fill="#111" d="M-6,2,L12,0L-6,-2Z" transform="translate(240.49429657794678,183.46007604562737)rotate(-230.8587110234196)"/><path fill="#111" d="M-6,2,L12,0L-6,-2Z" transform="translate(240.49429657794678,202.47148288973384)rotate(-230.45980665947124)"/><path fill="#111" d="M-6,2,L12,0L-6,-2Z" transform="translate(240.49429657794678,221.4828897338403)rotate(-228.7510124007476)"/><path fill="#111" d="M-6,2,L12,0L-6,-2Z" transform="translate(240.49429657794678,240.49429657794678)rotate(-225.78613655955579)"/><path fill="#111" d="M-6,2,L12,0L-6,-2Z" transform="translate(240.49429657794678,259.5057034220532)rotate(-221.59349858346394)"/><path fill="#111" d="M-6,2,L12,0L-6,-2Z" transform="translate(240.49429657794678,278.5171102661597)rotate(-216.1716780075745)"/><path fill="#111" d="M-6,2,L12,0L-6,-2Z" transform="translate(240.49429657794678,297.52851711026614)rotate(-209.5227363117744)"/><path fill="#111" d="M-6,2,L12,0L-6,-2Z" transform="translate(240.49429657794678,316.5399239543726)rotate(-201.66911323523638)"/><path fill="#111" d="M-6,2,L12,0L-6,-2Z" transform="translate(240.49429657794678,335.5513307984791)rotate(-192.659058202315)"/><path fill="#111" d="M-6,2,L12,0L-6,-2Z" transform="translate(240.49429657794678,354.56273764258555)rotate(-182.57343722437375)"/><path fill="#111" d="M-6,2,L12,0L-6,-2Z" transform="translate(240.49429657794678,373.57414448669203)rotate(-171.53425040836746)"/><path fill="#111" d="M-6,2,L12,0L-6,-2Z" transform="translate(240.49429657794678,392.58555133079847)rotate(-159.70192837629284)"/><path fill="#111" d="M-6,2,L12,0L-6,-2Z" transform="translate(240.49429657794678,411.59695817490496)rotate(-147.2505230626395)"/><path fill="#111" d="M-6,2,L12,0L-6,-2Z" transform="translate(240.49429657794678,430.6083650190114)rotate(-134.35618149153905)"/><path fill="#111" d="M-6,2,L12,0L-6,-2Z" transform="translate(240.49429657794678,449.6197718631179)rotate(-121.18157321058987)"/><path fill="#111" d="M-6,2,L12,0L-6,-2Z" transform="translate(240.49429657794678,468.63117870722436)rotate(-107.87045257285938)"/><path fill="#111" d="M-6,2,L12,0L-6,-2Z" transform="translate(240.49429657794678,487.6425855513308)rotate(-94.5537450631993)"/><path fill="#111" d="M-6,2,L12,0L-6,-2Z" transform="translate(259.5057034220532,12.357414448669202)rotate(-155.32675564799484)"/><path fill="#111" d="M-6,2,L12,0L-6,-2Z" transform="translate(259.5057034220532,31.368821292775664)rotate(-169.78651567603146)"/><path fill="#111" d="M-6,2,L12,0L-6,-2Z" transform="translate(259.5057034220532,50.38022813688213)rotate(-182.89687540278697)"/><path fill="#111" d="M-6,2,L12,0L-6,-2Z" transform="translate(259.5057034220532,69.3916349809886)rotate(-194.52256616505665)"/><path fill="#111" d="M-6,2,L12,0L-6,-2Z" transform="translate(259.5057034220532,88.40304182509506)rotate(-204.55988585777376)"/><path fill="#111" d="M-6,2,L12,0L-6,-2Z" transform="translate(259.5057034220532,107.41444866920152)rotate(-212.93822081364837)"/><path fill="#111" d="M-6,2,L12,0L-6,-2Z" transform="translate(259.5057034220532,126.425855513308)rotate(-219.62016100062854)"/><path fill="#111" d="M-6,2,L12,0L-6,-2Z" transform="translate(259.5057034220532,145.43726235741445)rotate(-224.60006810406983)"/><path fill="#111" d="M-6,2,L12,0L-6,-2Z" transform="translate(259.5057034220532,164.44866920152091)rotate(-227.9009653640761)"/><path fill="#111" d="M-6,2,L12,0L-6,-2Z" transform="translate(259.5057034220532,183.46007604562737)rotate(-229.5696265124186)"/><path fill="#111" d="M-6,2,L12,0L-6,-2Z" transform="translate(259.5057034220532,202.47148288973384)rotate(-229.66974879774506)"/><path fill="#111" d="M-6,2,L12,0L-6,-2Z" transform="translate(259.5057034220532,221.4828897338403)rotate(-228.27310190248335)"/><path fill="#111" d="M-6,2,L12,0L-6,-2Z" transform="translate(259.5057034220532,240.49429657794678)rotate(-225.4485505398901)"/><path fill="#111" d="M-6,2,L12,0L-6,-2Z" transform="translate(259.5057034220532,259.5057034220532)rotate(-221.24885367512402)"/><path fill="#111" d="M-6,2,L12,0L-6,-2Z" transform="translate(259.5057034220532,278.5171102661597)rotate(-215.6978223268792)"/><path fill="#111" d="M-6,2,L12,0L-6,-2Z" transform="translate(259.5057034220532,297.52851711026614)rotate(-208.80895283885062)"/><path fill="#111" d="M-6,2,L12,0L-6,-2Z" transform="translate(259.5057034220532,316.5399239543726)rotate(-200.61937205177122)"/><path fill="#111" d="M-6,2,L12,0L-6,-2Z" transform="translate(259.5057034220532,335.5513307984791)rotate(-191.199167972982)"/><path fill="#111" d="M-6,2,L12,0L-6,-2Z" transform="translate(259.5057034220532,354.56273764258555)rotate(-180.65901665174403)"/><path fill="#111" d="M-6,2,L12,0L-6,-2Z" transform="translate(259.5057034220532,373.57414448669203)rotate(-169.15106134415348)"/><path fill="#111" d="M-6,2,L12,0L-6,-2Z" transform="translate(259.5057034220532,392.58555133079847)rotate(-156.84696167471256)"/><path fill="#111" d="M-6,2,L12,0L-6,-2Z" transform="translate(259.5057034220532,411.59695817490496)rotate(-143.9262388263891)"/><path fill="#111" d="M-6,2,L12,0L-6,-2Z" transform="translate(259.5057034220532,430.6083650190114)rotate(-130.57190106106773)"/><path fill="#111" d="M-6,2,L12,0L-6,-2Z" transform="translate(259.5057034220532,449.6197718631179)rotate(-116.95735976427389)"/><path fill="#111" d="M-6,2,L12,0L-6,-2Z" transform="translate(259.5057034220532,468.63117870722436)rotate(-103.23643795636161)"/><path fill="#111" d="M-6,2,L12,0L-6,-2Z" transform="translate(259.5057034220532,487.6425855513308)rotate(-89.54830826825152)"/><path fill="#111" d="M-6,2,L12,0L-6,-2Z" transform="translate(278.5171102661597,12.357414448669202)rotate(-142.2437718916069)"/><path fill="#111" d="M-6,2,L12,0L-6,-2Z" transform="translate(278.5171102661597,31.368821292775664)rotate(-158.31353583881588)"/><path fill="#111" d="M-6,2,L12,0L-6,-2Z" transform="translate(278.5171102661597,50.38022813688213)rotate(-172.9877390900055)"/><path fill="#111" d="M-6,2,L12,0L-6,-2Z" transform="translate(278.5171102661597,69.3916349809886)rotate(-186.10396430310627)"/><path fill="#111" d="M-6,2,L12,0L-6,-2Z" transform="translate(278.5171102661597,88.40304182509506)rotate(-197.53246414806318)"/><path fill="#111" d="M-6,2,L12,0L-6,-2Z" transform="translate(278.5171102661597,107.41444866920152)rotate(-207.17836350523834)"/><path fill="#111" d="M-6,2,L12,0L-6,-2Z" transform="translate(278.5171102661597,126.425855513308)rotate(-214.9825299478993)"/><path fill="#111" d="M-6,2,L12,0L-6,-2Z" transform="translate(278.5171102661597,145.43726235741445)rotate(-220.920978021359)"/><path fill="#111" d="M-6,2,L12,0L-6,-2Z" transform="translate(278.5171102661597,164.44866920152091)rotate(-225.0026821809997)"/><path fill="#111" d="M-6,2,L12,0L-6,-2Z" transform="translate(278.5171102661597,183.46007604562737)rotate(-227.26568177144742)"/><path fill="#111" d="M-6,2,L12,0L-6,-2Z" transform="translate(278.5171102661597,202.47148288973384)rotate(-227.77136911955978)"/><path fill="#111" d="M-6,2,L12,0L-6,-2Z" transform="translate(278.5171102661597,221.4828897338403)rotate(-226.59685867467223)"/><path fill="#111" d="M-6,2,L12,0L-6,-2Z" transform="translate(278.5171102661597,240.49429657794678)rotate(-223.82534116068584)"/><path fill="#111" d="M-6,2,L12,0L-6,-2Z" transform="translate(278.5171102661597,259.5057034220532)rotate(-219.53433190609798)"/><path fill="#111" d="M-6,2,L12,0L-6,-2Z" transform="translate(278.5171102661597,278.5171102661597)rotate(-213.78190463659655)"/><path fill="#111" d="M-6,2,L12,0L-6,-2Z" transform="translate(278.5171102661597,297.52851711026614)rotate(-206.60613462726133)"/><path fill="#111" d="M-6,2,L12,0L-6,-2Z" transform="translate(278.5171102661597,316.5399239543726)rotate(-198.06372666177057)"/><path fill="#111" d="M-6,2,L12,0L-6,-2Z" transform="translate(278.5171102661597,335.5513307984791)rotate(-188.25111184084477)"/><path fill="#111" d="M-6,2,L12,0L-6,-2Z" transform="translate(278.5171102661597,354.56273764258555)rotate(-177.30779737446596)"/><path fill="#111" d="M-6,2,L12,0L-6,-2Z" transform="translate(278.5171102661597,373.57414448669203)rotate(-165.39766828459753)"/><path fill="#111" d="M-6,2,L12,0L-6,-2Z" transform="translate(278.5171102661597,392.58555133079847)rotate(-152.6964924596287)"/><path fill="#111" d="M-6,2,L12,0L-6,-2Z" transform="translate(278.5171102661597,411.59695817490496)rotate(-139.38807900628638)"/><path fill="#111" d="M-6,2,L12,0L-6,-2Z" transform="translate(278.5171102661597,430.6083650190114)rotate(-125.66049011785354)"/><path fill="#111" d="M-6,2,L12,0L-6,-2Z" transform="translate(278.5171102661597,449.6197718631179)rotate(-111.6962519298586)"/><path fill="#111" d="M-6,2,L12,0L-6,-2Z" transform="translate(278.5171102661597,468.63117870722436)rotate(-97.65877163997783)"/><path fill="#111" d="M-6,2,L12,0L-6,-2Z" transform="translate(278.5171102661597,487.6425855513308)rotate(-83.69479848753559)"/><path fill="#111" d="M-6,2,L12,0L-6,-2Z" transform="translate(297.52851711026614,12.357414448669202)rotate(-129.2532003823282)"/><path fill="#111" d="M-6,2,L12,0L-6,-2Z" transform="translate(297.52851711026614,31.368821292775664)rotate(-146.78141721625764)"/><path fill="#111" d="M-6,2,L12,0L-6,-2Z" transform="translate(297.52851711026614,50.38022813688213)rotate(-162.87048921302556)"/><path fill="#111" d="M-6,2,L12,0L-6,-2Z" transform="translate(297.52851711026614,69.3916349809886)rotate(-177.33196942559718)"/><path fill="#111" d="M-6,2,L12,0L-6,-2Z" transform="translate(297.52851711026614,88.40304182509506)rotate(-190.01109795933948)"/><path fill="#111" d="M-6,2,L12,0L-6,-2Z" transform="translate(297.52851711026614,107.41444866920152)rotate(-200.78967295721793)"/><path fill="#111" d="M-6,2,L12,0L-6,-2Z" transform="translate(297.52851711026614,126.425855513308)rotate(-209.58766632244865)"/><path fill="#111" d="M-6,2,L12,0L-6,-2Z" transform="translate(297.52851711026614,145.43726235741445)rotate(-216.36345554467113)"/><path fill="#111" d="M-6,2,L12,0L-6,-2Z" transform="translate(297.52851711026614,164.44866920152091)rotate(-221.1125523914617)"/><path fill="#111" d="M-6,2,L12,0L-6,-2Z" transform="translate(297.52851711026614,183.46007604562737)rotate(-223.86471779313197)"/><path fill="#111" d="M-6,2,L12,0L-6,-2Z" transform="translate(297.52851711026614,202.47148288973384)rotate(-224.67935998524783)"/><path fill="#111" d="M-6,2,L12,0L-6,-2Z" transform="translate(297.52851711026614,221.4828897338403)rotate(-223.6391198801707)"/><path fill="#111" d="M-6,2,L12,0L-6,-2Z" transform="translate(297.52851711026614,240.49429657794678)rotate(-220.8415537161575)"/><path fill="#111" d="M-6,2,L12,0L-6,-2Z" transform="translate(297.52851711026614,259.5057034220532)rotate(-216.38882828015912)"/><path fill="#111" d="M-6,2,L12,0L-6,-2Z" transform="translate(297.52851711026614,278.5171102661597)rotate(-210.37534843791667)"/><path fill="#111" d="M-6,2,L12,0L-6,-2Z" transform="translate(297.52851711026614,297.52851711026614)rotate(-202.8773762551668)"/><path fill="#111" d="M-6,2,L12,0L-6,-2Z" transform="translate(297.52851711026614,316.5399239543726)rotate(-193.97969776263102)"/><path fill="#111" d="M-6,2,L12,0L-6,-2Z" transform="translate(297.52851711026614,335.5513307984791)rotate(-183.80727671143353)"/><path fill="#111" d="M-6,2,L12,0L-6,-2Z" transform="translate(297.52851711026614,354.56273764258555)rotate(-172.51189008859302)"/><path fill="#111" d="M-6,2,L12,0L-6,-2Z" transform="translate(297.52851711026614,373.57414448669203)rotate(-160.26038204605248)"/><path fill="#111" d="M-6,2,L12,0L-6,-2Z" transform="translate(297.52851711026614,392.58555133079847)rotate(-147.2313372146689)"/><path fill="#111" d="M-6,2,L12,0L-6,-2Z" transform="translate(297.52851711026614,411.59695817490496)rotate(-133.6116389867368)"/><path fill="#111" d="M-6,2,L12,0L-6,-2Z" transform="translate(297.52851711026614,430.6083650190114)rotate(-119.59276697636446)"/><path fill="#111" d="M-6,2,L12,0L-6,-2Z" transform="translate(297.52851711026614,449.6197718631179)rotate(-105.36407151402237)"/><path fill="#111" d="M-6,2,L12,0L-6,-2Z" transform="translate(297.52851711026614,468.63117870722436)rotate(-91.09794315720279)"/><path fill="#111" d="M-6,2,L12,0L-6,-2Z" transform="translate(297.52851711026614,487.6425855513308)rotate(-76.94809395489922)"/><path fill="#111" d="M-6,2,L12,0L-6,-2Z" transform="translate(316.5399239543726,12.357414448669202)rotate(-116.42599871912846)"/><path fill="#111" d="M-6,2,L12,0L-6,-2Z" transform="translate(316.5399239543726,31.368821292775664)rotate(-135.23929846649528)"/><path fill="#111" d="M-6,2,L12,0L-6,-2Z" transform="translate(316.5399239543726,50.38022813688213)rotate(-152.57305789276143)"/><path fill="#111" d="M-6,2,L12,0L-6,-2Z" transform="translate(316.5399239543726,69.3916349809886)rotate(-168.2142772586457)"/><path fill="#111" d="M-6,2,L12,0L-6,-2Z" transform="translate(316.5399239543726,88.40304182509506)rotate(-181.984610686642)"/><path fill="#111" d="M-6,2,L12,0L-6,-2Z" transform="translate(316.5399239543726,107.41444866920152)rotate(-193.74389688992846)"/><path fill="#111" d="M-6,2,L12,0L-6,-2Z" transform="translate(316.5399239543726,126.425855513308)rotate(-203.39251259896295)"/><path fill="#111" d="M-6,2,L12,0L-6,-2Z" transform="translate(316.5399239543726,145.43726235741445)rotate(-210.87242581314587)"/><path fill="#111" d="M-6,2,L12,0L-6,-2Z" transform="translate(316.5399239543726,164.44866920152091)rotate(-216.1668354467759)"/><path fill="#111" d="M-6,2,L12,0L-6,-2Z" transform="translate(316.5399239543726,183.46007604562737)rotate(-219.29829255074577)"/><path fill="#111" d="M-6,2,L12,0L-6,-2Z" transform="translate(316.5399239543726,202.47148288973384)rotate(-220.32520607399573)"/><path fill="#111" d="M-6,2,L12,0L-6,-2Z" transform="translate(316.5399239543726,221.4828897338403)rotate(-219.33664308171234)"/><path fill="#111" d="M-6,2,L12,0L-6,-2Z" transform="translate(316.5399239543726,240.49429657794678)rotate(-216.44533947057164)"/><path fill="#111" d="M-6,2,L12,0L-6,-2Z" transform="translate(316.5399239543726,259.5057034220532)rotate(-211.7788425150326)"/><path fill="#111" d="M-6,2,L12,0L-6,-2Z" transform="translate(316.5399239543726,278.5171102661597)rotate(-205.46871104274368)"/><path fill="#111" d="M-6,2,L12,0L-6,-2Z" transform="translate(316.5399239543726,297.52851711026614)rotate(-197.6382661161231)"/><path fill="#111" d="M-6,2,L12,0L-6,-2Z" transform="translate(316.5399239543726,316.5399239543726)rotate(-188.40689128040438)"/><path fill="#111" d="M-6,2,L12,0L-6,-2Z" transform="translate(316.5399239543726,335.5513307984791)rotate(-177.91230397826706)"/><path fill="#111" d="M-6,2,L12,0L-6,-2Z" transform="translate(316.5399239543726,354.56273764258555)rotate(-166.3100972316642)"/><path fill="#111" d="M-6,2,L12,0L-6,-2Z" transform="translate(316.5399239543726,373.57414448669203)rotate(-153.77044951854973)"/><path fill="#111" d="M-6,2,L12,0L-6,-2Z" transform="translate(316.5399239543726,392.58555133079847)rotate(-140.47482401645948)"/><path fill="#111" d="M-6,2,L12,0L-6,-2Z" transform="translate(316.5399239543726,411.59695817490496)rotate(-126.61252430433919)"/><path fill="#111" d="M-6,2,L12,0L-6,-2Z" transform="translate(316.5399239543726,430.6083650190114)rotate(-112.37717975409467)"/><path fill="#111" d="M-6,2,L12,0L-6,-2Z" transform="translate(316.5399239543726,449.6197718631179)rotate(-97.96226345827334)"/><path fill="#111" d="M-6,2,L12,0L-6,-2Z" transform="translate(316.5399239543726,468.63117870722436)rotate(-83.54813591950337)"/><path fill="#111" d="M-6,2,L12,0L-6,-2Z" transform="translate(316.5399239543726,487.6425855513308)rotate(-69.29493674831757)"/><path fill="#111" d="M-6,2,L12,0L-6,-2Z" transform="translate(335.5513307984791,12.357414448669202)rotate(-103.81875994212575)"/><path fill="#111" d="M-6,2,L12,0L-6,-2Z" transform="translate(335.5513307984791,31.368821292775664)rotate(-123.72519740966793)"/><path fill="#111" d="M-6,2,L12,0L-6,-2Z" transform="translate(335.5513307984791,50.38022813688213)rotate(-142.115590993368)"/><path fill="#111" d="M-6,2,L12,0L-6,-2Z" transform="translate(335.5513307984791,69.3916349809886)rotate(-158.75422278722337)"/><path fill="#111" d="M-6,2,L12,0L-6,-2Z" transform="translate(335.5513307984791,88.40304182509506)rotate(-173.4409824791163)"/><path fill="#111" d="M-6,2,L12,0L-6,-2Z" transform="translate(335.5513307984791,107.41444866920152)rotate(-186.01555122973826)"/><path fill="#111" d="M-6,2,L12,0L-6,-2Z" transform="translate(335.5513307984791,126.425855513308)rotate(-196.36048773604261)"/><path fill="#111" d="M-6,2,L12,0L-6,-2Z" transform="translate(335.5513307984791,145.43726235741445)rotate(-204.40309927574287)"/><path fill="#111" d="M-6,2,L12,0L-6,-2Z" transform="translate(335.5513307984791,164.44866920152091)rotate(-210.11599001730886)"/><path fill="#111" d="M-6,2,L12,0L-6,-2Z" transform="translate(335.5513307984791,183.46007604562737)rotate(-213.51618753822362)"/><path fill="#111" d="M-6,2,L12,0L-6,-2Z" transform="translate(335.5513307984791,202.47148288973384)rotate(-214.66275632292758)"/><path fill="#111" d="M-6,2,L12,0L-6,-2Z" transform="translate(335.5513307984791,221.4828897338403)rotate(-213.6528140109339)"/><path fill="#111" d="M-6,2,L12,0L-6,-2Z" transform="translate(335.5513307984791,240.49429657794678)rotate(-210.61587233500407)"/><path fill="#111" d="M-6,2,L12,0L-6,-2Z" transform="translate(335.5513307984791,259.5057034220532)rotate(-205.70643002906843)"/><path fill="#111" d="M-6,2,L12,0L-6,-2Z" transform="translate(335.5513307984791,278.5171102661597)rotate(-199.09471902978112)"/><path fill="#111" d="M-6,2,L12,0L-6,-2Z" transform="translate(335.5513307984791,297.52851711026614)rotate(-190.95091806151206)"/><path fill="#111" d="M-6,2,L12,0L-6,-2Z" transform="translate(335.5513307984791,316.5399239543726)rotate(-181.4200833268305)"/><path fill="#111" d="M-6,2,L12,0L-6,-2Z" transform="translate(335.5513307984791,335.5513307984791)rotate(-170.64420207157622)"/><path fill="#111" d="M-6,2,L12,0L-6,-2Z" transform="translate(335.5513307984791,354.56273764258555)rotate(-158.78184578443665)"/><path fill="#111" d="M-6,2,L12,0L-6,-2Z" transform="translate(335.5513307984791,373.57414448669203)rotate(-146.00599347737005)"/><path fill="#111" d="M-6,2,L12,0L-6,-2Z" transform="translate(335.5513307984791,392.58555133079847)rotate(-132.50069572934797)"/><path fill="#111" d="M-6,2,L12,0L-6,-2Z" transform="translate(335.5513307984791,411.59695817490496)rotate(-118.45759841072373)"/><path fill="#111" d="M-6,2,L12,0L-6,-2Z" transform="translate(335.5513307984791,430.6083650190114)rotate(-104.07239095486591)"/><path fill="#111" d="M-6,2,L12,0L-6,-2Z" transform="translate(335.5513307984791,449.6197718631179)rotate(-89.541059039138)"/><path fill="#111" d="M-6,2,L12,0L-6,-2Z" transform="translate(335.5513307984791,468.63117870722436)rotate(-75.05059268719788)"/><path fill="#111" d="M-6,2,L12,0L-6,-2Z" transform="translate(335.5513307984791,487.6425855513308)rotate(-60.76528322134163)"/><path fill="#111" d="M-6,2,L12,0L-6,-2Z" transform="translate(354.56273764258555,12.357414448669202)rotate(-91.4723539425629)"/><path fill="#111" d="M-6,2,L12,0L-6,-2Z" transform="translate(354.56273764258555,31.368821292775664)rotate(-112.26520901286038)"/><path fill="#111" d="M-6,2,L12,0L-6,-2Z" transform="translate(354.56273764258555,50.38022813688213)rotate(-131.51025185774765)"/><path fill="#111" d="M-6,2,L12,0L-6,-2Z" transform="translate(354.56273764258555,69.3916349809886)rotate(-148.95124134644772)"/><path fill="#111" d="M-6,2,L12,0L-6,-2Z" transform="translate(354.56273764258555,88.40304182509506)rotate(-164.3685227416954)"/><path fill="#111" d="M-6,2,L12,0L-6,-2Z" transform="translate(354.56273764258555,107.41444866920152)rotate(-177.58386054485533)"/><path fill="#111" d="M-6,2,L12,0L-6,-2Z" transform="translate(354.56273764258555,126.425855513308)rotate(-188.4642545587756)"/><path fill="#111" d="M-6,2,L12,0L-6,-2Z" transform="translate(354.56273764258555,145.43726235741445)rotate(-196.92462754185053)"/><path fill="#111" d="M-6,2,L12,0L-6,-2Z" transform="translate(354.56273764258555,164.44866920152091)rotate(-202.92928236078956)"/><path fill="#111" d="M-6,2,L12,0L-6,-2Z" transform="translate(354.56273764258555,183.46007604562737)rotate(-206.4920352539895)"/><path fill="#111" d="M-6,2,L12,0L-6,-2Z" transform="translate(354.56273764258555,202.47148288973384)rotate(-207.67493969216594)"/><path fill="#111" d="M-6,2,L12,0L-6,-2Z" transform="translate(354.56273764258555,221.4828897338403)rotate(-206.58552236804135)"/><path fill="#111" d="M-6,2,L12,0L-6,-2Z" transform="translate(354.56273764258555,240.49429657794678)rotate(-203.37245906238914)"/><path fill="#111" d="M-6,2,L12,0L-6,-2Z" transform="translate(354.56273764258555,259.5057034220532)rotate(-198.21953176547046)"/><path fill="#111" d="M-6,2,L12,0L-6,-2Z" transform="translate(354.56273764258555,278.5171102661597)rotate(-191.33215389308066)"/><path fill="#111" d="M-6,2,L12,0L-6,-2Z" transform="translate(354.56273764258555,297.52851711026614)rotate(-182.90858832769362)"/><path fill="#111" d="M-6,2,L12,0L-6,-2Z" transform="translate(354.56273764258555,316.5399239543726)rotate(-173.11602182658072)"/><path fill="#111" d="M-6,2,L12,0L-6,-2Z" transform="translate(354.56273764258555,335.5513307984791)rotate(-162.1026602565305)"/><path fill="#111" d="M-6,2,L12,0L-6,-2Z" transform="translate(354.56273764258555,354.56273764258555)rotate(-150.02949251376018)"/><path fill="#111" d="M-6,2,L12,0L-6,-2Z" transform="translate(354.56273764258555,373.57414448669203)rotate(-137.0716892169681)"/><path fill="#111" d="M-6,2,L12,0L-6,-2Z" transform="translate(354.56273764258555,392.58555133079847)rotate(-123.41524055178134)"/><path fill="#111" d="M-6,2,L12,0L-6,-2Z" transform="translate(354.56273764258555,411.59695817490496)rotate(-109.25345701656282)"/><path fill="#111" d="M-6,2,L12,0L-6,-2Z" transform="translate(354.56273764258555,430.6083650190114)rotate(-94.78339837147075)"/><path fill="#111" d="M-6,2,L12,0L-6,-2Z" transform="translate(354.56273764258555,449.6197718631179)rotate(-80.2022328135993)"/><path fill="#111" d="M-6,2,L12,0L-6,-2Z" transform="translate(354.56273764258555,468.63117870722436)rotate(-65.69741231797455)"/><path fill="#111" d="M-6,2,L12,0L-6,-2Z" transform="translate(354.56273764258555,487.6425855513308)rotate(-51.424228271074824)"/><path fill="#111" d="M-6,2,L12,0L-6,-2Z" transform="translate(373.57414448669203,12.357414448669202)rotate(-79.41182765925012)"/><path fill="#111" d="M-6,2,L12,0L-6,-2Z" transform="translate(373.57414448669203,31.368821292775664)rotate(-100.8739769864695)"/><path fill="#111" d="M-6,2,L12,0L-6,-2Z" transform="translate(373.57414448669203,50.38022813688213)rotate(-120.76231520357734)"/><path fill="#111" d="M-6,2,L12,0L-6,-2Z" transform="translate(373.57414448669203,69.3916349809886)rotate(-138.80263810713106)"/><path fill="#111" d="M-6,2,L12,0L-6,-2Z" transform="translate(373.57414448669203,88.40304182509506)rotate(-154.7583709099065)"/><path fill="#111" d="M-6,2,L12,0L-6,-2Z" transform="translate(373.57414448669203,107.41444866920152)rotate(-168.43604823875816)"/><path fill="#111" d="M-6,2,L12,0L-6,-2Z" transform="translate(373.57414448669203,126.425855513308)rotate(-179.68985994954232)"/><path fill="#111" d="M-6,2,L12,0L-6,-2Z" transform="translate(373.57414448669203,145.43726235741445)rotate(-188.42515661734896)"/><path fill="#111" d="M-6,2,L12,0L-6,-2Z" transform="translate(373.57414448669203,164.44866920152091)rotate(-194.60081814040467)"/><path fill="#111" d="M-6,2,L12,0L-6,-2Z" transform="translate(373.57414448669203,183.46007604562737)rotate(-198.23039764649906)"/><path fill="#111" d="M-6,2,L12,0L-6,-2Z" transform="translate(373.57414448669203,202.47148288973384)rotate(-199.3819608116339)"/><path fill="#111" d="M-6,2,L12,0L-6,-2Z" transform="translate(373.57414448669203,221.4828897338403)rotate(-198.17654779183002)"/><path fill="#111" d="M-6,2,L12,0L-6,-2Z" transform="translate(373.57414448669203,240.49429657794678)rotate(-194.78487608536594)"/><path fill="#111" d="M-6,2,L12,0L-6,-2Z" transform="translate(373.57414448669203,259.5057034220532)rotate(-189.41504568421382)"/><path fill="#111" d="M-6,2,L12,0L-6,-2Z" transform="translate(373.57414448669203,278.5171102661597)rotate(-182.28949480231572)"/><path fill="#111" d="M-6,2,L12,0L-6,-2Z" transform="translate(373.57414448669203,297.52851711026614)rotate(-173.6250627767084)"/><path fill="#111" d="M-6,2,L12,0L-6,-2Z" transform="translate(373.57414448669203,316.5399239543726)rotate(-163.61135802118758)"/><path fill="#111" d="M-6,2,L12,0L-6,-2Z" transform="translate(373.57414448669203,335.5513307984791)rotate(-152.40677880562612)"/><path fill="#111" d="M-6,2,L12,0L-6,-2Z" transform="translate(373.57414448669203,354.56273764258555)rotate(-140.1742577743454)"/><path fill="#111" d="M-6,2,L12,0L-6,-2Z" transform="translate(373.57414448669203,373.57414448669203)rotate(-127.09053267804218)"/><path fill="#111" d="M-6,2,L12,0L-6,-2Z" transform="translate(373.57414448669203,392.58555133079847)rotate(-113.34287242765814)"/><path fill="#111" d="M-6,2,L12,0L-6,-2Z" transform="translate(373.57414448669203,411.59695817490496)rotate(-99.125563939537)"/><path fill="#111" d="M-6,2,L12,0L-6,-2Z" transform="translate(373.57414448669203,430.6083650190114)rotate(-84.63618309731294)"/><path fill="#111" d="M-6,2,L12,0L-6,-2Z" transform="translate(373.57414448669203,449.6197718631179)rotate(-70.06618716412055)"/><path fill="#111" d="M-6,2,L12,0L-6,-2Z" transform="translate(373.57414448669203,468.63117870722436)rotate(-55.58656120436665)"/><path fill="#111" d="M-6,2,L12,0L-6,-2Z" transform="translate(373.57414448669203,487.6425855513308)rotate(-41.34146788298064)"/><path fill="#111" d="M-6,2,L12,0L-6,-2Z" transform="translate(392.58555133079847,12.357414448669202)rotate(-67.64785401999035)"/><path fill="#111" d="M-6,2,L12,0L-6,-2Z" transform="translate(392.58555133079847,31.368821292775664)rotate(-89.55673448137404)"/><path fill="#111" d="M-6,2,L12,0L-6,-2Z" transform="translate(392.58555133079847,50.38022813688213)rotate(-109.87285224619394)"/><path fill="#111" d="M-6,2,L12,0L-6,-2Z" transform="translate(392.58555133079847,69.3916349809886)rotate(-128.30697264496868)"/><path fill="#111" d="M-6,2,L12,0L-6,-2Z" transform="translate(392.58555133079847,88.40304182509506)rotate(-144.6086378563201)"/><path fill="#111" d="M-6,2,L12,0L-6,-2Z" transform="translate(392.58555133079847,107.41444866920152)rotate(-158.57229457498872)"/><path fill="#111" d="M-6,2,L12,0L-6,-2Z" transform="translate(392.58555133079847,126.425855513308)rotate(-170.0425716821106)"/><path fill="#111" d="M-6,2,L12,0L-6,-2Z" transform="translate(392.58555133079847,145.43726235741445)rotate(-178.91860716859435)"/><path fill="#111" d="M-6,2,L12,0L-6,-2Z" transform="translate(392.58555133079847,164.44866920152091)rotate(-185.15733318864392)"/><path fill="#111" d="M-6,2,L12,0L-6,-2Z" transform="translate(392.58555133079847,183.46007604562737)rotate(-188.77563691705208)"/><path fill="#111" d="M-6,2,L12,0L-6,-2Z" transform="translate(392.58555133079847,202.47148288973384)rotate(-189.85132279615144)"/><path fill="#111" d="M-6,2,L12,0L-6,-2Z" transform="translate(392.58555133079847,221.4828897338403)rotate(-188.52175037545157)"/><path fill="#111" d="M-6,2,L12,0L-6,-2Z" transform="translate(392.58555133079847,240.49429657794678)rotate(-184.97203184674225)"/><path fill="#111" d="M-6,2,L12,0L-6,-2Z" transform="translate(392.58555133079847,259.5057034220532)rotate(-179.41858944401957)"/><path fill="#111" d="M-6,2,L12,0L-6,-2Z" transform="translate(392.58555133079847,278.5171102661597)rotate(-172.09450483576737)"/><path fill="#111" d="M-6,2,L12,0L-6,-2Z" transform="translate(392.58555133079847,297.52851711026614)rotate(-163.231876119909)"/><path fill="#111" d="M-6,2,L12,0L-6,-2Z" transform="translate(392.58555133079847,316.5399239543726)rotate(-153.04052416398252)"/><path fill="#111" d="M-6,2,L12,0L-6,-2Z" transform="translate(392.58555133079847,335.5513307984791)rotate(-141.69291671255445)"/><path fill="#111" d="M-6,2,L12,0L-6,-2Z" transform="translate(392.58555133079847,354.56273764258555)rotate(-129.35404774659577)"/><path fill="#111" d="M-6,2,L12,0L-6,-2Z" transform="translate(392.58555133079847,373.57414448669203)rotate(-116.20158725785576)"/><path fill="#111" d="M-6,2,L12,0L-6,-2Z" transform="translate(392.58555133079847,392.58555133079847)rotate(-102.4234142271149)"/><path fill="#111" d="M-6,2,L12,0L-6,-2Z" transform="translate(392.58555133079847,411.59695817490496)rotate(-88.21387734523927)"/><path fill="#111" d="M-6,2,L12,0L-6,-2Z" transform="translate(392.58555133079847,430.6083650190114)rotate(-73.76298967145216)"/><path fill="#111" d="M-6,2,L12,0L-6,-2Z" transform="translate(392.58555133079847,449.6197718631179)rotate(-59.241381854204334)"/><path fill="#111" d="M-6,2,L12,0L-6,-2Z" transform="translate(392.58555133079847,468.63117870722436)rotate(-44.80170768830676)"/><path fill="#111" d="M-6,2,L12,0L-6,-2Z" transform="translate(392.58555133079847,487.6425855513308)rotate(-30.579750715253216)"/><path fill="#111" d="M-6,2,L12,0L-6,-2Z" transform="translate(411.59695817490496,12.357414448669202)rotate(-56.18003220858932)"/><path fill="#111" d="M-6,2,L12,0L-6,-2Z" transform="translate(411.59695817490496,31.368821292775664)rotate(-78.31322190619258)"/><path fill="#111" d="M-6,2,L12,0L-6,-2Z" transform="translate(411.59695817490496,50.38022813688213)rotate(-98.84332055239467)"/><path fill="#111" d="M-6,2,L12,0L-6,-2Z" transform="translate(411.59695817490496,69.3916349809886)rotate(-117.46937762828871)"/><path fill="#111" d="M-6,2,L12,0L-6,-2Z" transform="translate(411.59695817490496,88.40304182509506)rotate(-133.93051254052057)"/><path fill="#111" d="M-6,2,L12,0L-6,-2Z" transform="translate(411.59695817490496,107.41444866920152)rotate(-148.01269276823032)"/><path fill="#111" d="M-6,2,L12,0L-6,-2Z" transform="translate(411.59695817490496,126.425855513308)rotate(-159.554747803079)"/><path fill="#111" d="M-6,2,L12,0L-6,-2Z" transform="translate(411.59695817490496,145.43726235741445)rotate(-168.45238773662896)"/><path fill="#111" d="M-6,2,L12,0L-6,-2Z" transform="translate(411.59695817490496,164.44866920152091)rotate(-174.66872103865379)"/><path fill="#111" d="M-6,2,L12,0L-6,-2Z" transform="translate(411.59695817490496,183.46007604562737)rotate(-178.2232035758695)"/><path fill="#111" d="M-6,2,L12,0L-6,-2Z" transform="translate(411.59695817490496,202.47148288973384)rotate(-179.20686028843676)"/><path fill="#111" d="M-6,2,L12,0L-6,-2Z" transform="translate(411.59695817490496,221.4828897338403)rotate(-177.76271620746186)"/><path fill="#111" d="M-6,2,L12,0L-6,-2Z" transform="translate(411.59695817490496,240.49429657794678)rotate(-174.07809955714092)"/><path fill="#111" d="M-6,2,L12,0L-6,-2Z" transform="translate(411.59695817490496,259.5057034220532)rotate(-168.3741102527487)"/><path fill="#111" d="M-6,2,L12,0L-6,-2Z" transform="translate(411.59695817490496,278.5171102661597)rotate(-160.89199608565198)"/><path fill="#111" d="M-6,2,L12,0L-6,-2Z" transform="translate(411.59695817490496,297.52851711026614)rotate(-151.87612085554113)"/><path fill="#111" d="M-6,2,L12,0L-6,-2Z" transform="translate(411.59695817490496,316.5399239543726)rotate(-141.55332242650874)"/><path fill="#111" d="M-6,2,L12,0L-6,-2Z" transform="translate(411.59695817490496,335.5513307984791)rotate(-130.11225845073716)"/><path fill="#111" d="M-6,2,L12,0L-6,-2Z" transform="translate(411.59695817490496,354.56273764258555)rotate(-117.7210040893977)"/><path fill="#111" d="M-6,2,L12,0L-6,-2Z" transform="translate(411.59695817490496,373.57414448669203)rotate(-104.55752145867409)"/><path fill="#111" d="M-6,2,L12,0L-6,-2Z" transform="translate(411.59695817490496,392.58555133079847)rotate(-90.80940719063648)"/><path fill="#111" d="M-6,2,L12,0L-6,-2Z" transform="translate(411.59695817490496,411.59695817490496)rotate(-76.66249410188355)"/><path fill="#111" d="M-6,2,L12,0L-6,-2Z" transform="translate(411.59695817490496,430.6083650190114)rotate(-62.28395824921209)"/><path fill="#111" d="M-6,2,L12,0L-6,-2Z" transform="translate(411.59695817490496,449.6197718631179)rotate(-47.823900295745084)"/><path fill="#111" d="M-6,2,L12,0L-6,-2Z" transform="translate(411.59695817490496,468.63117870722436)rotate(-33.42034155886197)"/><path fill="#111" d="M-6,2,L12,0L-6,-2Z" transform="translate(411.59695817490496,487.6425855513308)rotate(-19.201945131805978)"/><path fill="#111" d="M-6,2,L12,0L-6,-2Z" transform="translate(430.6083650190114,12.357414448669202)rotate(-45.00235487496188)"/><path fill="#111" d="M-6,2,L12,0L-6,-2Z" transform="translate(430.6083650190114,31.368821292775664)rotate(-67.14380282864292)"/><path fill="#111" d="M-6,2,L12,0L-6,-2Z" transform="translate(430.6083650190114,50.38022813688213)rotate(-87.68238498176021)"/><path fill="#111" d="M-6,2,L12,0L-6,-2Z" transform="translate(430.6083650190114,69.3916349809886)rotate(-106.27029753090733)"/><path fill="#111" d="M-6,2,L12,0L-6,-2Z" transform="translate(430.6083650190114,88.40304182509506)rotate(-122.76059592471653)"/><path fill="#111" d="M-6,2,L12,0L-6,-2Z" transform="translate(430.6083650190114,107.41444866920152)rotate(-136.8263646004256)"/><path fill="#111" d="M-6,2,L12,0L-6,-2Z" transform="translate(430.6083650190114,126.425855513308)rotate(-148.31725079076125)"/><path fill="#111" d="M-6,2,L12,0L-6,-2Z" transform="translate(430.6083650190114,145.43726235741445)rotate(-157.14204908683712)"/><path fill="#111" d="M-6,2,L12,0L-6,-2Z" transform="translate(430.6083650190114,164.44866920152091)rotate(-163.2703832652526)"/><path fill="#111" d="M-6,2,L12,0L-6,-2Z" transform="translate(430.6083650190114,183.46007604562737)rotate(-166.73246024435784)"/><path fill="#111" d="M-6,2,L12,0L-6,-2Z" transform="translate(430.6083650190114,202.47148288973384)rotate(-167.61668715577034)"/><path fill="#111" d="M-6,2,L12,0L-6,-2Z" transform="translate(430.6083650190114,221.4828897338403)rotate(-166.06493878390071)"/><path fill="#111" d="M-6,2,L12,0L-6,-2Z" transform="translate(430.6083650190114,240.49429657794678)rotate(-162.26525764846056)"/><path fill="#111" d="M-6,2,L12,0L-6,-2Z" transform="translate(430.6083650190114,259.5057034220532)rotate(-156.44176278270916)"/><path fill="#111" d="M-6,2,L12,0L-6,-2Z" transform="translate(430.6083650190114,278.5171102661597)rotate(-148.84153579352585)"/><path fill="#111" d="M-6,2,L12,0L-6,-2Z" transform="translate(430.6083650190114,297.52851711026614)rotate(-139.71824407828447)"/><path fill="#111" d="M-6,2,L12,0L-6,-2Z" transform="translate(430.6083650190114,316.5399239543726)rotate(-129.31225111795035)"/><path fill="#111" d="M-6,2,L12,0L-6,-2Z" transform="translate(430.6083650190114,335.5513307984791)rotate(-117.82814020286801)"/><path fill="#111" d="M-6,2,L12,0L-6,-2Z" transform="translate(430.6083650190114,354.56273764258555)rotate(-105.43882144923514)"/><path fill="#111" d="M-6,2,L12,0L-6,-2Z" transform="translate(430.6083650190114,373.57414448669203)rotate(-92.32177522628203)"/><path fill="#111" d="M-6,2,L12,0L-6,-2Z" transform="translate(430.6083650190114,392.58555133079847)rotate(-78.65620397520541)"/><path fill="#111" d="M-6,2,L12,0L-6,-2Z" transform="translate(430.6083650190114,411.59695817490496)rotate(-64.60365442977424)"/><path fill="#111" d="M-6,2,L12,0L-6,-2Z" transform="translate(430.6083650190114,430.6083650190114)rotate(-50.30881746924361)"/><path fill="#111" d="M-6,2,L12,0L-6,-2Z" transform="translate(430.6083650190114,449.6197718631179)rotate(-35.90546097540555)"/><path fill="#111" d="M-6,2,L12,0L-6,-2Z" transform="translate(430.6083650190114,468.63117870722436)rotate(-21.520594996142105)"/><path fill="#111" d="M-6,2,L12,0L-6,-2Z" transform="translate(430.6083650190114,487.6425855513308)rotate(-7.277046197022291)"/><path fill="#111" d="M-6,2,L12,0L-6,-2Z" transform="translate(449.6197718631179,12.357414448669202)rotate(-34.08510138158562)"/><path fill="#111" d="M-6,2,L12,0L-6,-2Z" transform="translate(449.6197718631179,31.368821292775664)rotate(-56.10667616550002)"/><path fill="#111" d="M-6,2,L12,0L-6,-2Z" transform="translate(449.6197718631179,50.38022813688213)rotate(-76.5062754516662)"/><path fill="#111" d="M-6,2,L12,0L-6,-2Z" transform="translate(449.6197718631179,69.3916349809886)rotate(-94.97877426614026)"/><path fill="#111" d="M-6,2,L12,0L-6,-2Z" transform="translate(449.6197718631179,88.40304182509506)rotate(-111.2632187871025)"/><path fill="#111" d="M-6,2,L12,0L-6,-2Z" transform="translate(449.6197718631179,107.41444866920152)rotate(-125.14918775903777)"/><path fill="#111" d="M-6,2,L12,0L-6,-2Z" transform="translate(449.6197718631179,126.425855513308)rotate(-136.4818710074782)"/><path fill="#111" d="M-6,2,L12,0L-6,-2Z" transform="translate(449.6197718631179,145.43726235741445)rotate(-145.16566203216752)"/><path fill="#111" d="M-6,2,L12,0L-6,-2Z" transform="translate(449.6197718631179,164.44866920152091)rotate(-151.16606161041236)"/><path fill="#111" d="M-6,2,L12,0L-6,-2Z" transform="translate(449.6197718631179,183.46007604562737)rotate(-154.5096880518518)"/><path fill="#111" d="M-6,2,L12,0L-6,-2Z" transform="translate(449.6197718631179,202.47148288973384)rotate(-155.28218721089826)"/><path fill="#111" d="M-6,2,L12,0L-6,-2Z" transform="translate(449.6197718631179,221.4828897338403)rotate(-153.62383158367766)"/><path fill="#111" d="M-6,2,L12,0L-6,-2Z" transform="translate(449.6197718631179,240.49429657794678)rotate(-149.72259279242914)"/><path fill="#111" d="M-6,2,L12,0L-6,-2Z" transform="translate(449.6197718631179,259.5057034220532)rotate(-143.8044654920116)"/><path fill="#111" d="M-6,2,L12,0L-6,-2Z" transform="translate(449.6197718631179,278.5171102661597)rotate(-136.12081322040655)"/><path fill="#111" d="M-6,2,L12,0L-6,-2Z" transform="translate(449.6197718631179,297.52851711026614)rotate(-126.93249795790679)"/><path fill="#111" d="M-6,2,L12,0L-6,-2Z" transform="translate(449.6197718631179,316.5399239543726)rotate(-116.49054515803212)"/><path fill="#111" d="M-6,2,L12,0L-6,-2Z" transform="translate(449.6197718631179,335.5513307984791)rotate(-105.01336411309903)"/><path fill="#111" d="M-6,2,L12,0L-6,-2Z" transform="translate(449.6197718631179,354.56273764258555)rotate(-92.67982546181393)"/><path fill="#111" d="M-6,2,L12,0L-6,-2Z" transform="translate(449.6197718631179,373.57414448669203)rotate(-79.65987022249092)"/><path fill="#111" d="M-6,2,L12,0L-6,-2Z" transform="translate(449.6197718631179,392.58555133079847)rotate(-66.107647838189)"/><path fill="#111" d="M-6,2,L12,0L-6,-2Z" transform="translate(449.6197718631179,411.59695817490496)rotate(-52.160053725375505)"/><path fill="#111" d="M-6,2,L12,0L-6,-2Z" transform="translate(449.6197718631179,430.6083650190114)rotate(-37.943548655645785)"/><path fill="#111" d="M-6,2,L12,0L-6,-2Z" transform="translate(449.6197718631179,449.6197718631179)rotate(-23.579271239551748)"/><path fill="#111" d="M-6,2,L12,0L-6,-2Z" transform="translate(449.6197718631179,468.63117870722436)rotate(-9.186398361091841)"/><path fill="#111" d="M-6,2,L12,0L-6,-2Z" transform="translate(449.6197718631179,487.6425855513308)rotate(5.115977071187037)"/><path fill="#111" d="M-6,2,L12,0L-6,-2Z" transform="translate(468.63117870722436,12.357414448669202)rotate(-23.786157192633755)"/><path fill="#111" d="M-6,2,L12,0L-6,-2Z" transform="translate(468.63117870722436,31.368821292775664)rotate(-45.3842794507761)"/><path fill="#111" d="M-6,2,L12,0L-6,-2Z" transform="translate(468.63117870722436,50.38022813688213)rotate(-65.40563914651992)"/><path fill="#111" d="M-6,2,L12,0L-6,-2Z" transform="translate(468.63117870722436,69.3916349809886)rotate(-83.54284187552823)"/><path fill="#111" d="M-6,2,L12,0L-6,-2Z" transform="translate(468.63117870722436,88.40304182509506)rotate(-99.53210986693563)"/><path fill="#111" d="M-6,2,L12,0L-6,-2Z" transform="translate(468.63117870722436,107.41444866920152)rotate(-113.15974990756067)"/><path fill="#111" d="M-6,2,L12,0L-6,-2Z" transform="translate(468.63117870722436,126.425855513308)rotate(-124.26736683132107)"/><path fill="#111" d="M-6,2,L12,0L-6,-2Z" transform="translate(468.63117870722436,145.43726235741445)rotate(-132.75562167187513)"/><path fill="#111" d="M-6,2,L12,0L-6,-2Z" transform="translate(468.63117870722436,164.44866920152091)rotate(-138.58633348432886)"/><path fill="#111" d="M-6,2,L12,0L-6,-2Z" transform="translate(468.63117870722436,183.46007604562737)rotate(-141.78272250522448)"/><path fill="#111" d="M-6,2,L12,0L-6,-2Z" transform="translate(468.63117870722436,202.47148288973384)rotate(-142.42758973895494)"/><path fill="#111" d="M-6,2,L12,0L-6,-2Z" transform="translate(468.63117870722436,221.4828897338403)rotate(-140.65922423323696)"/><path fill="#111" d="M-6,2,L12,0L-6,-2Z" transform="translate(468.63117870722436,240.49429657794678)rotate(-136.66482423631155)"/><path fill="#111" d="M-6,2,L12,0L-6,-2Z" transform="translate(468.63117870722436,259.5057034220532)rotate(-130.67121211414488)"/><path fill="#111" d="M-6,2,L12,0L-6,-2Z" transform="translate(468.63117870722436,278.5171102661597)rotate(-122.93261534704581)"/><path fill="#111" d="M-6,2,L12,0L-6,-2Z" transform="translate(468.63117870722436,297.52851711026614)rotate(-113.71527712183291)"/><path fill="#111" d="M-6,2,L12,0L-6,-2Z" transform="translate(468.63117870722436,316.5399239543726)rotate(-103.27864998793994)"/><path fill="#111" d="M-6,2,L12,0L-6,-2Z" transform="translate(468.63117870722436,335.5513307984791)rotate(-91.85294545936638)"/><path fill="#111" d="M-6,2,L12,0L-6,-2Z" transform="translate(468.63117870722436,354.56273764258555)rotate(-79.62031051576761)"/><path fill="#111" d="M-6,2,L12,0L-6,-2Z" transform="translate(468.63117870722436,373.57414448669203)rotate(-66.72659851483)"/><path fill="#111" d="M-6,2,L12,0L-6,-2Z" transform="translate(468.63117870722436,392.58555133079847)rotate(-53.298078572409565)"/><path fill="#111" d="M-6,2,L12,0L-6,-2Z" transform="translate(468.63117870722436,411.59695817490496)rotate(-39.45038260707217)"/><path fill="#111" d="M-6,2,L12,0L-6,-2Z" transform="translate(468.63117870722436,430.6083650190114)rotate(-25.2951013793497)"/><path fill="#111" d="M-6,2,L12,0L-6,-2Z" transform="translate(468.63117870722436,449.6197718631179)rotate(-10.94394114264663)"/><path fill="#111" d="M-6,2,L12,0L-6,-2Z" transform="translate(468.63117870722436,468.63117870722436)rotate(3.4890151871554687)"/><path fill="#111" d="M-6,2,L12,0L-6,-2Z" transform="translate(468.63117870722436,487.6425855513308)rotate(17.8861509935576)"/><path fill="#111" d="M-6,2,L12,0L-6,-2Z" transform="translate(487.6425855513308,12.357414448669202)rotate(-13.8753911065391)"/><path fill="#111" d="M-6,2,L12,0L-6,-2Z" transform="translate(487.6425855513308,31.368821292775664)rotate(-34.94202149895101)"/><path fill="#111" d="M-6,2,L12,0L-6,-2Z" transform="translate(487.6425855513308,50.38022813688213)rotate(-54.483283890986804)"/><path fill="#111" d="M-6,2,L12,0L-6,-2Z" transform="translate(487.6425855513308,69.3916349809886)rotate(-72.19084859259883)"/><path fill="#111" d="M-6,2,L12,0L-6,-2Z" transform="translate(487.6425855513308,88.40304182509506)rotate(-87.79932242102207)"/><path fill="#111" d="M-6,2,L12,0L-6,-2Z" transform="translate(487.6425855513308,107.41444866920152)rotate(-101.09279918206099)"/><path fill="#111" d="M-6,2,L12,0L-6,-2Z" transform="translate(487.6425855513308,126.425855513308)rotate(-111.91018474089027)"/><path fill="#111" d="M-6,2,L12,0L-6,-2Z" transform="translate(487.6425855513308,145.43726235741445)rotate(-120.14909776228596)"/><path fill="#111" d="M-6,2,L12,0L-6,-2Z" transform="translate(487.6425855513308,164.44866920152091)rotate(-125.76814706192845)"/><path fill="#111" d="M-6,2,L12,0L-6,-2Z" transform="translate(487.6425855513308,183.46007604562737)rotate(-128.7873851277059)"/><path fill="#111" d="M-6,2,L12,0L-6,-2Z" transform="translate(487.6425855513308,202.47148288973384)rotate(-129.28673474278295)"/><path fill="#111" d="M-6,2,L12,0L-6,-2Z" transform="translate(487.6425855513308,221.4828897338403)rotate(-127.40218177059904)"/><path fill="#111" d="M-6,2,L12,0L-6,-2Z" transform="translate(487.6425855513308,240.49429657794678)rotate(-123.3195220459053)"/><path fill="#111" d="M-6,2,L12,0L-6,-2Z" transform="translate(487.6425855513308,259.5057034220532)rotate(-117.26544395546199)"/><path fill="#111" d="M-6,2,L12,0L-6,-2Z" transform="translate(487.6425855513308,278.5171102661597)rotate(-109.4957206870738)"/><path fill="#111" d="M-6,2,L12,0L-6,-2Z" transform="translate(487.6425855513308,297.52851711026614)rotate(-100.28027727626237)"/><path fill="#111" d="M-6,2,L12,0L-6,-2Z" transform="translate(487.6425855513308,316.5399239543726)rotate(-89.88488748604519)"/><path fill="#111" d="M-6,2,L12,0L-6,-2Z" transform="translate(487.6425855513308,335.5513307984791)rotate(-78.5471200990577)"/><path fill="#111" d="M-6,2,L12,0L-6,-2Z" transform="translate(487.6425855513308,354.56273764258555)rotate(-66.43749805706503)"/><path fill="#111" d="M-6,2,L12,0L-6,-2Z" transform="translate(487.6425855513308,373.57414448669203)rotate(-53.67402193033762)"/><path fill="#111" d="M-6,2,L12,0L-6,-2Z" transform="translate(487.6425855513308,392.58555133079847)rotate(-40.359988970051255)"/><path fill="#111" d="M-6,2,L12,0L-6,-2Z" transform="translate(487.6425855513308,411.59695817490496)rotate(-26.593746504664438)"/><path fill="#111" d="M-6,2,L12,0L-6,-2Z" transform="translate(487.6425855513308,430.6083650190114)rotate(-12.474399888464465)"/><path fill="#111" d="M-6,2,L12,0L-6,-2Z" transform="translate(487.6425855513308,449.6197718631179)rotate(1.894276762002691)"/><path fill="#111" d="M-6,2,L12,0L-6,-2Z" transform="translate(487.6425855513308,468.63117870722436)rotate(16.401518804029802)"/><path fill="#111" d="M-6,2,L12,0L-6,-2Z" transform="translate(487.6425855513308,487.6425855513308)rotate(30.929299525422223)"/></svg>