<?xml version="1.0" standalone="no"?><!DOCTYPE svg PUBLIC "-//W3C//DTD SVG 1.1//EN" "http://www.w3.org/Graphics/SVG/1.1/DTD/svg11.dtd"><svg width="500" height="500" style="background: rgb(17, 17, 17);" version="1.1" xmlns="http://www.w3.org/2000/svg" xmlns:xlink="http://www.w3.org/1999/xlink"><defs xmlns="http://www.w3.org/1999/xhtml"><style type="text/css"><![CDATA[
html, body { height: 100%; margin: 0px; background: rgb(34, 34, 34); }
body, #prev, #next { height: 100%; box-sizing: border-box; display: -webkit-flex; flex-direction: column; justify-content: center; }
#prev, #next { position: absolute; top: 0px; color: rgb(209, 209, 209); font-size: 70px; text-decoration: none; padding: 20px; }
#prev { left: 0px; }
#next { right: 0px; }
svg { margin: auto; }
.fa { display: inline-block; font-style: normal; font-variant: normal; font-weight: normal; font-stretch: normal; line-height: 1; font-family: FontAwesome; font-size: inherit; text-rendering: auto; -webkit-font-smoothing: antialiased; }
.fa-twitter::before { content: ''; }
.fa-github::before { content: ''; }
.fa-th::before { content: ''; }
footer { text-align: center; margin-bottom: 25px; }
a { color: rgb(209, 209, 209); text-decoration: none; padding: 10px; }]]></style></defs><g transform="translate(0,0)"><path fill="none" stroke="#fff" stroke-opacity="0.7" d="M-375,-4.242127789677887L-354.1666666666667,-3.5459425803407902C-333.3333333333333,-2.849757371003694,-291.66666666666663,-1.4573869523295013,-250,-0.055053883454711294C-208.33333333333331,1.3472791854200787,-166.66666666666666,2.7595749044954663,-125,3.5326041882801977C-83.33333333333333,4.305633472064929,-41.666666666666664,4.439396320559004,0,3.8724022607491877C41.666666666666664,3.3054082009393717,83.33333333333333,2.0376572328256644,125,0.65193155318337C166.66666666666666,-0.7337941264589243,208.33333333333331,-2.2374945176298056,250,-3.167922017842843C291.66666666666663,-4.098349518055881,333.3333333333333,-4.455504127311075,375,-4.075202695285247C416.66666666666663,-3.6949012632594185,458.3333333333333,-2.5771437899525687,500,-1.2357608084425102C541.6666666666666,0.10562217306754818,583.3333333333333,1.6706306627808152,625,2.7398338666793167C666.6666666666666,3.8090370705778183,708.3333333333333,4.382434988661554,729.1666666666666,4.669133947703423L750,4.955832906745291"/></g><g transform="translate(0,15.625)"><path fill="none" stroke="#fff" stroke-opacity="0.7" d="M-375,-2.8100077560618937L-354.1666666666667,-2.0147061633973475C-333.3333333333333,-1.2194045707328014,-291.66666666666663,0.3711986145962911,-250,1.661189878668906C-208.33333333333331,2.951181142741521,-166.66666666666666,3.9405604855576586,-125,4.174512504603046C-83.33333333333333,4.408464523648432,-41.666666666666664,3.886989218923067,0,2.8498075855559106C41.666666666666664,1.8126259521887542,83.33333333333333,0.25973799017980626,125,-1.0949972850902963C166.66666666666666,-2.449732560360399,208.33333333333331,-3.606315148891656,250,-4.0330667016631905C291.66666666666663,-4.459818254434725,333.3333333333333,-4.156738771446538,375,-3.263153192166974C416.66666666666663,-2.3695676128874097,458.3333333333333,-0.8854759373164693,500,0.5068883134055971C541.6666666666666,1.8992525641276636,583.3333333333333,3.1998893900008563,625,3.8108990412682866C666.6666666666666,4.421908692535717,708.3333333333333,4.343291169197385,729.1666666666666,4.303982407528219L750,4.264673645859053"/></g><g transform="translate(0,31.25)"><path fill="none" stroke="#fff" stroke-opacity="0.7" d="M-375,-0.8981173042200007L-354.1666666666667,-0.13948620529454225C-333.3333333333333,0.6191448936309161,-291.66666666666663,2.136407091481833,-250,3.0938081735238634C-208.33333333333331,4.051209255565894,-166.66666666666666,4.448749221799039,-125,4.103679866420664C-83.33333333333333,3.7586105110422885,-41.666666666666664,2.6709318340523933,0,1.3406472152196254C41.666666666666664,0.010362596386857437,83.33333333333333,-1.562527964288783,125,-2.654970302942936C166.66666666666666,-3.7474126415970885,208.33333333333331,-4.3594067582297535,250,-4.2096203686026294C291.66666666666663,-4.059833978975505,333.3333333333333,-3.1482670830885926,375,-1.893964881028042C416.66666666666663,-0.6396626789674917,458.3333333333333,0.9573748292666961,500,2.1629931836971736C541.6666666666666,3.368611538127651,583.3333333333333,4.182810738754418,625,4.231305290485345C666.6666666666666,4.279799842216273,708.3333333333333,3.5625897450513615,729.1666666666666,3.203984696468906L750,2.84537964788645"/></g><g transform="translate(0,46.875)"><path fill="none" stroke="#fff" stroke-opacity="0.7" d="M-375,1.1671144021903217L-354.1666666666667,1.759549115917685C-333.3333333333333,2.3519838296450484,-291.66666666666663,3.5368532570997755,-250,3.9982010077479018C-208.33333333333331,4.4595487583960285,-166.66666666666666,4.1973748322375535,-125,3.332199978589026C-83.33333333333333,2.4670251249404984,-41.666666666666664,0.9988493438019173,0,-0.3974103436570686C41.666666666666664,-1.7936700311160545,83.33333333333333,-3.118013624895445,125,-3.7616434286965537C166.66666666666666,-4.405273232497662,208.33333333333331,-4.3681892463204886,250,-3.6674388930998982C291.66666666666663,-2.9666885398793075,333.3333333333333,-1.6022718196152994,375,-0.2014079524481932C416.66666666666663,1.1994559147189128,458.3333333333333,2.636766928789117,500,3.44979653084402C541.6666666666666,4.2628261328989225,583.3333333333333,4.451574322938525,625,3.929273993230059C666.6666666666666,3.406973663521593,708.3333333333333,2.173624814065059,729.1666666666666,1.5569503893367922L750,0.9402759646085252"/></g><g transform="translate(0,62.5)"><path fill="none" stroke="#fff" stroke-opacity="0.7" d="M-375,3.033077276104229L-354.1666666666667,3.358165474437822C-333.3333333333333,3.683253672771415,-291.66666666666663,4.333430069438601,-250,4.219955665795968C-208.33333333333331,4.106481262153335,-166.66666666666666,3.2293560582008816,-125,1.9917924876604884C-83.33333333333333,0.7542289171200955,-41.666666666666664,-0.8437730200082368,0,-2.067615518008368C41.666666666666664,-3.2914580160084994,83.33333333333333,-4.14114107488043,125,-4.226067351717827C166.66666666666666,-4.3109936285552255,208.33333333333331,-3.6311631233580903,250,-2.499092351766043C291.66666666666663,-1.3670215801739958,333.3333333333333,0.21728945781296405,375,1.5255366312445768C416.66666666666663,2.833783804676189,458.3333333333333,3.865967113552455,500,4.1475942708615605C541.6666666666666,4.429221428170666,583.3333333333333,3.9602924339126115,625,2.956372865459397C666.6666666666666,1.9524532970061825,708.3333333333333,0.41354315435780764,729.1666666666666,-0.3559119169663798L750,-1.1253669882905672"/></g><g transform="translate(0,78.125)"><path fill="none" stroke="#fff" stroke-opacity="0.7" d="M-375,4.381183660074717L-354.1666666666667,4.38342097633144C-333.3333333333333,4.385658292588164,-291.66666666666663,4.390132925101612,-250,3.72121057066503C-208.33333333333331,3.0522882162284475,-166.66666666666666,1.7099688748418358,-125,0.31131365252921717C-83.33333333333333,-1.0873415697834015,-41.666666666666664,-2.542332673022027,0,-3.3848036020454915C41.666666666666664,-4.227274531068957,83.33333333333333,-4.457225285877261,125,-3.968948034721147C166.66666666666666,-3.4806707835650323,208.33333333333331,-2.274165526444499,250,-0.9040599480158231C291.66666666666663,0.46604563041285285,333.3333333333333,1.9997515301496716,375,2.992016685609187C416.66666666666663,3.984281841068703,458.3333333333333,4.4351062522509155,500,4.137246976877009C541.6666666666666,3.8393877015031013,583.3333333333333,2.7928447395730744,625,1.4787114774960883C666.6666666666666,0.16457821541910223,708.3333333333333,-1.4171453468048432,729.1666666666666,-2.208007127916816L750,-2.9988689090287886"/></g><g transform="translate(0,93.75)"><path fill="none" stroke="#fff" stroke-opacity="0.7" d="M-375,4.981262814446261L-354.1666666666667,4.660267257454071C-333.3333333333333,4.33927170046188,-291.66666666666663,3.697280586477499,-250,2.5871196306896405C-208.33333333333331,1.4769586749017813,-166.66666666666666,-0.10137212268955542,-125,-1.422317733854333C-83.33333333333333,-2.743263345019111,-41.666666666666664,-3.806823769757329,0,-4.124082733246927C41.666666666666664,-4.441341696736525,83.33333333333333,-4.0122991989775025,125,-3.0341850868742566C166.66666666666666,-2.05607097477101,208.33333333333331,-0.5288852483235403,250,0.8453283355091615C291.66666666666663,2.2195419193418635,333.3333333333333,3.4407833605597973,375,3.9476507846568087C416.66666666666663,4.454518208753821,458.3333333333333,4.24701161572991,500,3.4205213079153283C541.6666666666666,2.5940310001007463,583.3333333333333,1.1485569774954918,625,-0.25141968478129456C666.6666666666666,-1.6513963470580808,708.3333333333333,-3.005875649006399,729.1666666666666,-3.6831152999805585L750,-4.360354950954718"/></g><g transform="translate(0,109.375)"><path fill="none" stroke="#fff" stroke-opacity="0.7" d="M-375,4.7308594252645095L-354.1666666666667,4.141436599134131C-333.3333333333333,3.5520137730037535,-291.66666666666663,2.3731681207429984,-250,1.0113133735451898C-208.33333333333331,-0.3505413736526184,-166.66666666666666,-1.8954052157874797,-125,-2.9131078068823113C-83.33333333333333,-3.930810397977144,-41.666666666666664,-4.421351738031946,0,-4.159231104147175C41.666666666666664,-3.897110470262403,83.33333333333333,-2.882327862438056,125,-1.581376505536103C166.66666666666666,-0.2804251486341499,208.33333333333331,1.30669495734541,250,2.4503883593734592C291.66666666666663,3.594081761401509,333.3333333333333,4.294348459478048,375,4.229277467219959C416.66666666666663,4.164206474961871,458.3333333333333,3.3337977923691553,500,2.1197883760167606C541.6666666666666,0.9057789596643655,583.3333333333333,-0.6918311904477088,625,-1.938624372191288C666.6666666666666,-3.185417553934867,708.3333333333333,-4.081393767309951,729.1666666666666,-4.529381873997493L750,-4.977369980685035"/></g><g transform="translate(0,125)"><path fill="none" stroke="#fff" stroke-opacity="0.7" d="M-375,3.6727264488135702L-354.1666666666667,2.9155122450988333C-333.3333333333333,2.1582980413840973,-291.66666666666663,0.6438696339546248,-250,-0.737160819883965C-208.33333333333331,-2.118191273722555,-166.66666666666666,-3.365823773970262,-125,-3.906524537139248C-83.33333333333333,-4.447225300308234,-41.666666666666664,-4.280994326398499,0,-3.484247610809641C41.666666666666664,-2.6875008952207833,83.33333333333333,-1.2602384379528027,125,0.1414305004672367C166.66666666666666,1.543099438887276,208.33333333333331,2.9191748584593746,250,3.637078061854707C291.66666666666663,4.354981265250039,333.3333333333333,4.414712252468604,375,3.7888128264178085C416.66666666666663,3.162913400367013,458.3333333333333,1.8513835610468568,500,0.457130551377945C541.6666666666666,-0.9371224582909667,583.3333333333333,-2.4140986383086336,625,-3.2948354444332524C666.6666666666666,-4.17557225055787,708.3333333333333,-4.460069682789441,729.1666666666666,-4.602318398905226L750,-4.7445671150210105"/></g><g transform="translate(0,140.625)"><path fill="none" stroke="#fff" stroke-opacity="0.7" d="M-375,1.987525628661705L-354.1666666666667,1.1918040233299734C-333.3333333333333,0.39608241799824184,-291.66666666666663,-1.195360792665221,-250,-2.3597748785528063C-208.33333333333331,-3.5241889644403916,-166.66666666666666,-4.261573925552099,-125,-4.232955595577366C-83.33333333333333,-4.204337265602632,-41.666666666666664,-3.4097156445414574,0,-2.214376459302984C41.666666666666664,-1.0190372740645115,83.33333333333333,0.5770194753512599,125,1.8400901815343071C166.66666666666666,3.103160887717354,208.33333333333331,4.033245550667678,250,4.202786395479604C291.66666666666663,4.372327240291531,333.3333333333333,3.7813242669650613,375,2.701460179563448C416.66666666666663,1.6215960921618349,458.3333333333333,0.052870890685077665,500,-1.2835760670214218C541.6666666666666,-2.6200230247279213,583.3333333333333,-3.724191738664163,625,-4.088498397101114C666.6666666666666,-4.452805055538065,708.3333333333333,-4.0772496584757265,729.1666666666666,-3.889471959944557L750,-3.7016942614133876"/></g><g transform="translate(0,156.25)"><path fill="none" stroke="#fff" stroke-opacity="0.7" d="M-375,-0.037018027836664816L-354.1666666666667,-0.7353884462965061C-333.3333333333333,-1.4337588647563475,-291.66666666666663,-2.8304997016760303,-250,-3.579489629217989C-208.33333333333331,-4.328479556759947,-166.66666666666666,-4.429718574924182,-125,-3.83666734050442C-83.33333333333333,-3.2436161060846582,-41.666666666666664,-1.9562746190809004,0,-0.566430792629054C41.666666666666664,0.8234130338227925,83.33333333333333,2.3157591997227276,125,3.224579613760028C166.66666666666666,4.133400027797329,208.33333333333331,4.4586946899719955,250,4.050926394168931C291.66666666666663,3.6431580983658667,333.3333333333333,2.5023268445850713,375,1.1528701295831367C416.66666666666663,-0.19658658541879837,458.3333333333333,-1.754668761641873,500,-2.80512961540839C541.6666666666666,-3.8555904691749077,583.3333333333333,-4.3984300004848675,625,-4.184106128511461C666.6666666666666,-3.969782256538055,708.3333333333333,-2.9982949812812825,729.1666666666666,-2.512551343652896L750,-2.0268077060245098"/></g><g transform="translate(0,171.875)"><path fill="none" stroke="#fff" stroke-opacity="0.7" d="M-375,-2.055241362030307L-354.1666666666667,-2.5370233897285996C-333.3333333333333,-3.018805417426892,-291.66666666666663,-3.9823694728234775,-250,-4.188055448802656C-208.33333333333331,-4.393741424781835,-166.66666666666666,-3.8415493213436074,-125,-2.7853205751563483C-83.33333333333333,-1.7290918289690895,-41.666666666666664,-0.16882644003279912,0,1.1782251901247598C41.666666666666664,2.5252768202823184,83.33333333333333,3.659114691661146,125,4.058516149269018C166.66666666666666,4.45791760687689,208.33333333333331,4.122882650713807,250,3.2074260775815073C291.66666666666663,2.2919695044492077,333.3333333333333,0.7960913143476908,375,-0.592556738031235C416.66666666666663,-1.9812047904101608,458.3333333333333,-3.2626227050664953,500,-3.8477456214134658C541.6666666666666,-4.432868537760436,583.3333333333333,-4.321696455798043,625,-3.5653349252562356C666.6666666666666,-2.8089733947144273,708.3333333333333,-1.4074224155932054,729.1666666666666,-0.7066469260325943L750,-0.00587143647198311"/></g><g transform="translate(0,187.5)"><path fill="none" stroke="#fff" stroke-opacity="0.7" d="M-375,-3.722560323917752L-354.1666666666667,-3.9054962644392828C-333.3333333333333,-4.088432204960814,-291.66666666666663,-4.4543040860038765,-250,-4.0815680412598425C-208.33333333333331,-3.7088319965158094,-166.66666666666666,-2.59748802598468,-125,-1.2584183903069612C-83.33333333333333,0.08065124537075741,-41.666666666666664,1.6474465461950658,0,2.7217153252003947C41.666666666666664,3.795984104205724,83.33333333333333,4.377726361392074,125,4.199516522551815C166.66666666666666,4.021306683711558,208.33333333333331,3.083144748844691,250,1.8163015961318005C291.66666666666663,0.54945844341891,333.3333333333333,-1.0460659271400052,375,-2.236812641467825C416.66666666666663,-3.427559355795645,458.3333333333333,-4.213528413892369,500,-4.233411652091943C541.6666666666666,-4.253294890291517,583.3333333333333,-3.507092308593941,625,-2.3378315131608316C666.6666666666666,-1.1685707177277216,708.3333333333333,0.4237482914409215,729.1666666666666,1.2199077960252431L750,2.016067300609565"/></g><g transform="translate(0,203.125)"><path fill="none" stroke="#fff" stroke-opacity="0.7" d="M-375,-4.754302989040761L-354.1666666666667,-4.607159030840624C-333.3333333333333,-4.460015072640486,-291.66666666666663,-4.165727156240211,-250,-3.27820867599793C-208.33333333333331,-2.390690195755648,-166.66666666666666,-0.9099411516713588,-125,0.4833415351014331C-83.33333333333333,1.8766242218742248,-41.666666666666664,3.1824405513355196,0,3.8005097678722306C41.666666666666664,4.418578984408942,83.33333333333333,4.348901088021069,125,3.623506847010076C166.66666666666666,2.8981126059990836,208.33333333333331,1.5170020203649708,250,0.11506844166484276C291.66666666666663,-1.2868651370352853,333.3333333333333,-2.7096217088014285,375,-3.4991633582817405C416.66666666666663,-4.2887050077620525,458.3333333333333,-4.445031734956533,500,-3.896280503842699C541.6666666666666,-3.347529272728865,583.3333333333333,-2.0937000833067163,625,-0.7111753227888343C666.6666666666666,0.6713494377290476,708.3333333333333,2.182569769342663,729.1666666666666,2.9381799351494706L750,3.6937901009562784"/></g><g transform="translate(0,218.75)"><path fill="none" stroke="#fff" stroke-opacity="0.7" d="M-375,-4.974313398797536L-354.1666666666667,-4.522212361630516C-333.3333333333333,-4.070111324463497,-291.66666666666663,-3.1659092501294586,-250,-1.9151399846238744C-208.33333333333331,-0.6643707191182904,-166.66666666666666,0.9329657375588392,-125,2.1425774995202818C-83.33333333333333,3.3521892614817244,-41.666666666666664,4.174076328727479,0,4.230419111607877C41.666666666666664,4.286761894488274,83.33333333333333,3.5775603930033135,125,2.428832902060484C166.66666666666666,1.2801054111176549,208.33333333333331,-0.3081480692830427,250,-1.6058110765045064C291.66666666666663,-2.9034740837259703,333.3333333333333,-3.9105466177682002,375,-4.164079756908453C416.66666666666663,-4.417612896048707,458.3333333333333,-3.917606640286984,500,-2.893912712448454C541.6666666666666,-1.8702187846099236,583.3333333333333,-0.32283718469458633,625,1.0369043338744088C666.6666666666666,2.396645852443404,708.3333333333333,3.5687472896660566,729.1666666666666,4.154798008277383L750,4.74084872688871"/></g><g transform="translate(0,234.375)"><path fill="none" stroke="#fff" stroke-opacity="0.7" d="M-375,-4.345027782741055L-354.1666666666667,-3.6651597395576876C-333.3333333333333,-2.9852916963743206,-291.66666666666663,-1.625555610007586,-250,-0.22508731628320866C-208.33333333333331,1.1753809774411688,-166.66666666666666,2.616581478523189,-125,3.435997639833766C-83.33333333333333,4.255413801144343,-41.666666666666664,4.453045622683477,0,3.9380422118025478C41.666666666666664,3.4230388009216193,83.33333333333333,2.195400157620628,125,0.8194689354522056C166.66666666666666,-0.5564622867162171,208.33333333333331,-2.080686087752071,250,-3.052520300978275C291.66666666666663,-4.024354514204479,333.3333333333333,-4.443799139621033,375,-4.118036450107945C416.66666666666663,-3.792273760594857,458.3333333333333,-2.7213037561521274,500,-1.3974488783064674C541.6666666666666,-0.07359400046080711,583.3333333333333,1.503145750787784,625,2.6079467475442857C666.6666666666666,3.7127477443007875,708.3333333333333,4.3456099865652,729.1666666666666,4.662041107697406L750,4.978472228829612"/></g><g transform="translate(0,250)"><path fill="none" stroke="#fff" stroke-opacity="0.7" d="M-375,-2.9738880589755157L-354.1666666666667,-2.1823311859704586C-333.3333333333333,-1.3907743129654015,-291.66666666666663,0.19233943304471257,-250,1.5033959349046317C-208.33333333333331,2.814452436764551,-166.66666666666666,3.853451694474275,-125,4.14276814505993C-83.33333333333333,4.432084595645584,-41.666666666666664,3.9717182391071697,0,2.9732984280012804C41.666666666666664,1.9748786168953911,83.33333333333333,0.4384053512220274,125,-0.9298081516935163C166.66666666666666,-2.2980216546090597,208.33333333333331,-3.4979753947667835,250,-3.97805340475128C291.66666666666663,-4.458131414735776,333.3333333333333,-4.218333694547046,375,-3.368894703213925C416.66666666666663,-2.5194557118808043,458.3333333333333,-1.0603754494032924,500,0.3376102520043881C541.6666666666666,1.7355959534120688,583.3333333333333,3.0724870937499182,625,3.7337178984993145C666.6666666666666,4.39494870324871,708.3333333333333,4.380519172409652,729.1666666666666,4.373304406990124L750,4.366089641570595"/></g><g transform="translate(0,265.625)"><path fill="none" stroke="#fff" stroke-opacity="0.7" d="M-375,-1.0949975951154842L-354.1666666666667,-0.3268994096548268C-333.3333333333333,0.44119877580583045,-291.66666666666663,1.9773951467271451,-250,2.975194878053706C-208.33333333333331,3.972994609380267,-166.66666666666666,4.432397701112075,-125,4.14221761130297C-83.33333333333333,3.8520375214938642,-41.666666666666664,2.8122742501438465,0,1.5009045755355181C41.666666666666664,0.18953490092719016,83.33333333333333,-1.3934411769394477,125,-2.520333205203206C166.66666666666666,-3.647225233466964,208.33333333333331,-4.318033212127843,250,-4.224388260190182C291.66666666666663,-4.13074330825252,333.3333333333333,-3.2726454257163193,375,-2.0445602305229023C416.66666666666663,-0.8164750353294848,458.3333333333333,0.7815974725211486,500,2.015027046114543C541.6666666666666,3.2484566197079374,583.3333333333333,4.117243259044092,625,4.222007749327609C666.6666666666666,4.326772239611127,708.3333333333333,3.667514580842006,729.1666666666666,3.3378857514574456L750,3.008256922072886"/></g><g transform="translate(0,281.25)"><path fill="none" stroke="#fff" stroke-opacity="0.7" d="M-375,0.9708487420981364L-354.1666666666667,1.5843459729220546C-333.3333333333333,2.1978432037459728,-291.66666666666663,3.4248376653938095,-250,3.9390199596117954C-208.33333333333331,4.453202253829781,-166.66666666666666,4.254572380617917,-125,3.4344400346774C-83.33333333333333,2.614307688736883,-41.666666666666664,1.172672870067713,0,-0.22774821940768974C41.666666666666664,-1.6281693088830924,83.33333333333333,-2.987376669164728,125,-3.6805458108840754C166.66666666666666,-4.373714952603423,208.33333333333331,-4.400845875760483,250,-3.749466557540286C291.66666666666663,-3.098087239320089,333.3333333333333,-1.7681976797226358,375,-0.3711450427449099C416.66666666666663,1.025907594232816,458.3333333333333,2.490123308590814,500,3.3484055127270778C541.6666666666666,4.206687716863342,583.3333333333333,4.4590364107778715,625,3.9894474817609717C666.6666666666666,3.5198585527440716,708.3333333333333,2.3283320007957413,729.1666666666666,1.7325687248215762L750,1.136805448847411"/></g><g transform="translate(0,296.875)"><path fill="none" stroke="#fff" stroke-opacity="0.7" d="M-375,2.8709359257913807L-354.1666666666667,3.2250859348631535C-333.3333333333333,3.5792359439349264,-291.66666666666663,4.287535962078472,-250,4.230311220099004C-208.33333333333331,4.173086478119535,-166.66666666666666,3.3503369760170516,-125,2.1402787627562017C-83.33333333333333,0.9302205494953515,-41.666666666666664,-0.6671463749238655,0,-1.9175161186634337C41.666666666666664,-3.1678858624030024,83.33333333333333,-4.071258425462922,125,-4.212355523662559C166.66666666666666,-4.353452621862196,208.33333333333331,-3.7322742552015518,250,-2.6343746864791178C291.66666666666663,-1.5364751177566844,333.3333333333333,0.038145653027537696,375,1.365638088411909C416.66666666666663,2.6931305237962806,458.3333333333333,3.7734946237808016,500,4.110089502779744C541.6666666666666,4.446684381778687,583.3333333333333,4.039510039792052,625,3.075743582940754C666.6666666666666,2.1119771260894553,708.3333333333333,0.5916185543734926,729.1666666666666,-0.1685607314844887L750,-0.92874001734247"/></g><g transform="translate(0,312.5)"><path fill="none" stroke="#fff" stroke-opacity="0.7" d="M-375,4.280850039020562L-354.1666666666667,4.315186552679368C-333.3333333333333,4.349523066338174,-291.66666666666663,4.418196093655785,-250,3.799334658045758C-208.33333333333331,3.1804732224357304,-166.66666666666666,1.8740773238980637,-125,0.4806941446138431C-83.33333333333333,-0.9126890346703777,-41.666666666666664,-2.393059494701152,0,-3.2798943485414123C41.666666666666664,-4.166729202381672,83.33333333333333,-4.46002845003142,125,-4.024963103655453C166.66666666666666,-3.5898977572794877,208.33333333333331,-2.4264678168778095,250,-1.0694993433370388C291.66666666666663,0.2874691302037323,333.3333333333333,1.8379761368835965,375,2.8692571809965273C416.66666666666663,3.900538225109458,458.3333333333333,4.412593306655455,500,4.170031885379323C541.6666666666666,3.9274704641031897,583.3333333333333,2.930292540004927,625,1.636898505431701C666.6666666666666,0.3435044708584749,708.3333333333333,-1.2461056741897147,729.1666666666666,-2.0409107467138097L750,-2.8357158192379046"/></g><g transform="translate(0,328.125)"><path fill="none" stroke="#fff" stroke-opacity="0.7" d="M-375,4.959867517123867L-354.1666666666667,4.668528044960928C-333.3333333333333,4.377188572797988,-291.66666666666663,3.7945096284721096,-250,2.719673630998238C-208.33333333333331,1.6448376335243668,-166.66666666666666,0.07784458290250307,-125,-1.260962428775833C-83.33333333333333,-2.599769440454169,-41.666666666666664,-3.7103904131889776,0,-4.082275446759583C41.666666666666664,-4.454160480330188,83.33333333333333,-4.087309574736591,125,-3.1503632453703525C166.66666666666666,-2.213416916004114,208.33333333333331,-0.7063751628652343,250,0.6779783951679076C291.66666666666663,2.0623319532010496,333.3333333333333,3.3239973161284535,375,3.882989825846355C416.66666666666663,4.441982335564257,458.3333333333333,4.298301992072657,500,3.5179983179667165C541.6666666666666,2.7376946438607765,583.3333333333333,1.3207676391404963,625,-0.0814246193710475C666.6666666666666,-1.4836168778825913,708.3333333333333,-2.871074390185399,729.1666666666666,-3.5648031463368026L750,-4.2585319024882065"/></g><g transform="translate(0,343.75)"><path fill="none" stroke="#fff" stroke-opacity="0.7" d="M-375,4.792055406268857L-354.1666666666667,4.224782181238439C-333.3333333333333,3.6575089562080203,-291.66666666666663,2.5229625061471843,-250,1.1756655029268326C-208.33333333333331,-0.17163150029351892,-166.66666666666666,-1.7316790566733857,-125,-2.7873269018088997C-83.33333333333333,-3.8429747469444133,-41.666666666666664,-4.394222880835574,0,-4.187663807438125C41.666666666666664,-3.9811047340406756,83.33333333333333,-3.0167384533546158,125,-1.7378819209098457C166.66666666666666,-0.4590253884650751,208.33333333333331,1.1343213957384057,250,2.309700589049842C291.66666666666663,3.4850797823612787,333.3333333333333,4.242491384780671,375,4.233755029167106C416.66666666666663,4.225018673553541,458.3333333333333,3.450134359907021,500,2.265314620429799C541.6666666666666,1.0804948809525767,583.3333333333333,-0.5142602843553468,625,-1.7858456032970458C666.6666666666666,-3.057430922238745,708.3333333333333,-4.00584639481422,729.1666666666666,-4.480054131101957L750,-4.954261867389694"/></g><g transform="translate(0,359.375)"><path fill="none" stroke="#fff" stroke-opacity="0.7" d="M-375,3.806065330791655L-354.1666666666667,3.0597125027921273C-333.3333333333333,2.3133596747925993,-291.66666666666663,0.8206540187935438,-250,-0.5690714412185399C-208.33333333333331,-1.9587969012306237,-166.66666666666666,-3.2455421652557357,-125,-3.83779340248644C-83.33333333333333,-4.430044639717145,-41.666666666666664,-4.327801850153442,0,-3.5780658083993746C41.666666666666664,-2.8283297666453078,83.33333333333333,-1.4311004727008763,125,-0.02868101116582278C166.66666666666666,1.3737384503692305,208.33333333333331,2.7813480794949057,250,3.547072975464327C291.66666666666663,4.312797871433748,333.3333333333333,4.436638034246915,375,3.8616644266177014C416.66666666666663,3.2866908189884874,458.3333333333333,2.012903440916892,500,0.6258594129166963C541.6666666666666,-0.7611846150834994,583.3333333333333,-2.2614852930122957,625,-3.1853578587213587C666.6666666666666,-4.109230424430422,708.3333333333333,-4.456674877919751,729.1666666666666,-4.630397104664414L750,-4.80411933140908"/></g><g transform="translate(0,375)"><path fill="none" stroke="#fff" stroke-opacity="0.7" d="M-375,2.170241619941104L-354.1666666666667,1.3722387334856272C-333.3333333333333,0.5742358470301507,-291.66666666666663,-1.0217699258808026,-250,-2.2166472146287592C-208.33333333333331,-3.4115245033767163,-166.66666666666666,-4.205273307961677,-125,-4.233009133196013C-83.33333333333333,-4.260744958430351,-41.666666666666664,-3.522467804314064,0,-2.3575619762246434C41.666666666666664,-1.192656148135223,83.33333333333333,0.3988783539273322,125,1.6854167892335667C166.66666666666666,2.9719552245398013,208.33333333333331,3.9534975930897156,250,4.178831131368189C291.66666666666663,4.404164669646662,333.3333333333333,3.873289377653695,375,2.8302474029900324C416.66666666666663,1.7872054283263696,458.3333333333333,0.23199677099201121,500,-1.1204527353425318C541.6666666666666,-2.4729022416770747,583.3333333333333,-3.6225925970118023,625,-4.0410137960337C666.6666666666666,-4.459434995055598,708.3333333333333,-4.146587037764666,729.1666666666666,-3.9901630591192L750,-3.8337390804737344"/></g><g transform="translate(0,390.625)"><path fill="none" stroke="#fff" stroke-opacity="0.7" d="M-375,0.16387881452605305L-354.1666666666667,-0.549526044324294C-333.3333333333333,-1.262930903174641,-291.66666666666663,-2.689740620875335,-250,-3.4857607724356523C-208.33333333333331,-4.281780923995971,-166.66666666666666,-4.447011509415912,-125,-3.9054964095778715C-83.33333333333333,-3.3639813097398323,-41.666666666666664,-2.1157205246438116,0,-0.7345366588736768C41.666666666666664,0.6466472068964582,83.33333333333333,2.1607541533407075,125,3.111752708509618C166.66666666666666,4.062751263678528,208.33333333333331,4.4506414275721005,250,4.097110986272029C291.66666666666663,3.743580544971957,333.3333333333333,2.6486294984782424,375,1.3156043180513124C416.66666666666663,-0.017420862375617574,458.3333333333333,-1.5885201767357626,500,-2.6754628929656175C541.6666666666666,-3.762405609195472,583.3333333333333,-4.365191727295037,625,-4.206721858719248C666.6666666666666,-4.048251990143458,708.3333333333333,-3.128526134892315,729.1666666666666,-2.6686632072667438L750,-2.208800279641172"/></g><g transform="translate(0,406.25)"><path fill="none" stroke="#fff" stroke-opacity="0.7" d="M-375,-1.8704640586357568L-354.1666666666667,-2.377466760779673C-333.3333333333333,-2.88446946292359,-291.66666666666663,-3.898474867211423,-250,-4.159728320407102C-208.33333333333331,-4.42098177360278,-166.66666666666666,-3.9294832757063043,-125,-2.911173552869957C-83.33333333333333,-1.8928638300336105,-41.666666666666664,-0.347742882257392,0,1.0139007536111357C41.666666666666664,2.3755443894796633,83.33333333333333,3.5537107134405006,125,4.00679938306504C166.66666666666666,4.459888052689579,208.33333333333331,4.1878990679778205,250,3.315865138031026C291.66666666666663,2.4438312080842306,333.3333333333333,0.971752332902399,375,-0.42366022301315875C416.66666666666663,-1.8190727789287164,458.3333333333333,-3.1378190155780006,500,-3.7736743288282653C541.6666666666666,-4.40952964207853,583.3333333333333,-4.362494031929776,625,-3.65418965990947C666.6666666666666,-2.945885287889164,708.3333333333333,-1.5763121539973068,729.1666666666666,-0.8915255870513783L750,-0.20673902010544973"/></g><g transform="translate(0,421.875)"><path fill="none" stroke="#fff" stroke-opacity="0.7" d="M-375,-3.585450758579799L-354.1666666666667,-3.799487522147106C-333.3333333333333,-4.013524285714413,-291.66666666666663,-4.441597812849029,-250,-4.123479111260147C-208.33333333333331,-3.8053604096712665,-166.66666666666666,-2.74104947935889,-125,-1.4198076008269527C-83.33333333333333,-0.09856572229501492,-41.666666666666664,1.479607104456484,0,2.58922847002832C41.666666666666664,3.6988498356001562,83.33333333333333,4.339919739992331,125,4.217739826378427C166.66666666666666,4.095559912764523,208.33333333333331,3.2101301811445424,250,1.968480637459982C291.66666666666663,0.7268310937754214,333.3333333333333,-0.8710382619737191,375,-2.090590571425599C416.66666666666663,-3.3101428808774784,458.3333333333333,-4.151378144032098,500,-4.227582450194868C541.6666666666666,-4.303786756357638,583.3333333333333,-3.6149601055285614,625,-2.4777545207503353C666.6666666666666,-1.340548935972109,708.3333333333333,0.24503558275526616,729.1666666666666,1.0378278421189537L750,1.8306201014826415"/></g><g transform="translate(0,437.5)"><path fill="none" stroke="#fff" stroke-opacity="0.7" d="M-375,-4.6882707460792465L-354.1666666666667,-4.572797719064242C-333.3333333333333,-4.457324692049238,-291.66666666666663,-4.22637863801923,-250,-3.383202202016173C-208.33333333333331,-2.5400257660131165,-166.66666666666666,-1.0846189480370114,-125,0.3139710936647386C-83.33333333333333,1.7125611353664885,-41.666666666666664,3.0543344007938833,0,3.722480813782173C41.666666666666664,4.390627226770462,83.33333333333333,4.3851467873196475,125,3.708558840808096C166.66666666666666,3.0319708942965446,208.33333333333331,1.6842754407242573,250,0.285004972490406C291.66666666666663,-1.1142654957434452,333.3333333333333,-2.5651109786388604,375,-3.4005811531671917C416.66666666666663,-4.236051327695523,458.3333333333333,-4.456146193856771,500,-3.9596886491863486C541.6666666666666,-3.463231104515927,583.3333333333333,-2.250221149013835,625,-0.8782766621833755C666.6666666666666,0.49366782464708403,708.3333333333333,2.024546842805911,729.1666666666666,2.7899863518853243L750,3.5554258609647382"/></g><g transform="translate(0,453.125)"><path fill="none" stroke="#fff" stroke-opacity="0.7" d="M-375,-4.990632581194453L-354.1666666666667,-4.565365204718354C-333.3333333333333,-4.140097828242254,-291.66666666666663,-3.2895630752900553,-250,-2.0652897571041855C-208.33333333333331,-0.8410164389183159,-166.66666666666666,0.7569954445012244,-125,1.9941435151511617C-83.33333333333333,3.231291585801099,-41.666666666666664,4.107575843681433,0,4.220170436040526C41.666666666666664,4.332765028399619,83.33333333333333,3.681669955237471,125,2.5661921203473366C166.66666666666666,1.4507142854572013,208.33333333333331,-0.12914631116092057,250,-1.4471313961918935C291.66666666666663,-2.7651164812228664,333.3333333333333,-3.82122605466669,375,-4.129968980860657C416.66666666666663,-4.438711907054624,458.3333333333333,-4.000088185998733,500,-3.0157321308539147C541.6666666666666,-2.0313760757090957,583.3333333333333,-0.5012876864753492,625,0.8711549324986401C666.6666666666666,2.243597551472629,708.3333333333333,3.458394400186861,729.1666666666666,4.065792824543976L750,4.673191248901093"/></g><g transform="translate(0,468.75)"><path fill="none" stroke="#fff" stroke-opacity="0.7" d="M-375,-4.440912113146536L-354.1666666666667,-3.7784589793492107C-333.3333333333333,-3.1160058455518858,-291.66666666666663,-1.791099577957236,-250,-0.39475731376479317C-208.33333333333331,1.0015849504276497,-166.66666666666666,2.469363211217886,-125,3.3338431866237714C-83.33333333333333,4.198323162029657,-41.666666666666664,4.459504852051191,0,3.997323636036014C41.666666666666664,3.5351424200208363,83.33333333333333,2.3495982979689463,125,0.9856831690791785C166.66666666666666,-0.37823195981058955,208.33333333333331,-1.9205180955382355,250,-2.9321898578182233C291.66666666666663,-3.943861620098211,333.3333333333333,-4.424919008930541,375,-4.154221051923896C416.66666666666663,-3.883523094917252,458.3333333333333,-2.8610697920716337,500,-1.5568805690626768C541.6666666666666,-0.2526913460537199,583.3333333333333,1.3332337971185755,625,2.471848729072165C666.6666666666666,3.610463661025754,708.3333333333333,4.3017683817606365,729.1666666666666,4.647420742128078L750,4.99307310249552"/></g><g transform="translate(0,484.375)"><path fill="none" stroke="#fff" stroke-opacity="0.7" d="M-375,-3.1329665984835344L-354.1666666666667,-2.34643252580236C-333.3333333333333,-1.5598984531211866,-291.66666666666663,0.013169692241160824,-250,1.3431745455064947C-208.33333333333331,2.6731793987718286,-166.66666666666666,3.7601209599401493,-125,4.104334699686294C-83.33333333333333,4.4485484394324395,-41.666666666666664,4.0500343577564095,0,3.091988459083752C41.666666666666664,2.133942560411094,83.33333333333333,0.6163648447418082,125,-0.7631177113650393C166.66666666666666,-2.1426002674718867,208.33333333333331,-3.3839876640162956,250,-3.916616977282448C291.66666666666663,-4.449246290548601,333.3333333333333,-4.273117520536497,375,-3.4691966566909804C416.66666666666663,-2.665275792845465,458.3333333333333,-1.2335628351665382,500,0.16778707104209212C541.6666666666666,1.5691369772507224,583.3333333333333,2.940123831989056,625,3.650508139448789C666.6666666666666,4.360892446908522,708.3333333333333,4.410674207089654,729.1666666666666,4.43556508718022L750,4.460455967270787"/></g></svg>