<?xml version="1.0" standalone="no"?><!DOCTYPE svg PUBLIC "-//W3C//DTD SVG 1.1//EN" "http://www.w3.org/Graphics/SVG/1.1/DTD/svg11.dtd"><svg width="500" height="500" style="background: rgb(17, 17, 17);" version="1.1" xmlns="http://www.w3.org/2000/svg" xmlns:xlink="http://www.w3.org/1999/xlink"><defs xmlns="http://www.w3.org/1999/xhtml"><style type="text/css"><![CDATA[
html, body { height: 100%; margin: 0px; background: rgb(34, 34, 34); }
body, #prev, #next { height: 100%; display: -webkit-flex; flex-direction: column; justify-content: center; }
#prev, #next { position: absolute; top: 0px; color: rgb(209, 209, 209); font-size: 70px; text-decoration: none; padding: 20px; }
#prev { left: 0px; }
#next { right: 0px; }
svg { margin: auto; }]]></style></defs><text fill="#d1d1d1" dy=".35em" text-anchor="middle" font-size="10.673718799371272" transform="translate(461.8619995117187,127.18020854901171)">❅</text><text fill="#d1d1d1" dy=".35em" text-anchor="middle" font-size="14.335359904216602" transform="translate(218.22714233398438,449.7018769315106)">❆</text><text fill="#d1d1d1" dy=".35em" text-anchor="middle" font-size="13.725209479453042" transform="translate(151.19322204589844,376.7184807933592)">❅</text><text fill="#d1d1d1" dy=".35em" text-anchor="middle" font-size="12.984336749650538" transform="translate(47.76957702636719,337.08651004872803)">❆</text><text fill="#d1d1d1" dy=".35em" text-anchor="middle" font-size="10.80719031044282" transform="translate(494.1822204589844,407.5709772012571)">❆</text><text fill="#d1d1d1" dy=".35em" text-anchor="middle" font-size="13.635872605955228" transform="translate(47.49536895751953,351.3336103353643)">❄</text><text fill="#d1d1d1" dy=".35em" text-anchor="middle" font-size="13.171409586211666" transform="translate(331.595947265625,276.56712694691106)">❄</text><text fill="#d1d1d1" dy=".35em" text-anchor="middle" font-size="14.196874494664371" transform="translate(193.29600524902344,454.18327891246173)">❅</text><text fill="#d1d1d1" dy=".35em" text-anchor="middle" font-size="14.538709208136424" transform="translate(419.37237548828125,278.031338387018)">❆</text><text fill="#d1d1d1" dy=".35em" text-anchor="middle" font-size="13.323645715136081" transform="translate(294.370849609375,145.90527539948818)">❄</text><text fill="#d1d1d1" dy=".35em" text-anchor="middle" font-size="13.591271146433428" transform="translate(242.86082458496094,267.9666653929726)">❅</text><text fill="#d1d1d1" dy=".35em" text-anchor="middle" font-size="14.828267329139635" transform="translate(100.9729995727539,486.85589017252636)">❆</text><text fill="#d1d1d1" dy=".35em" text-anchor="middle" font-size="14.17086737579666" transform="translate(383.6557922363281,219.95777696633468)">❄</text><text fill="#d1d1d1" dy=".35em" text-anchor="middle" font-size="11.266822593752295" transform="translate(220.94778442382812,75.90852250492291)">❅</text><text fill="#d1d1d1" dy=".35em" text-anchor="middle" font-size="13.101619852241129" transform="translate(221.9315185546875,295.5059992706889)">❄</text><text fill="#d1d1d1" dy=".35em" text-anchor="middle" font-size="12.937273231800646" transform="translate(40.55056381225586,184.2188287322066)">❄</text><text fill="#d1d1d1" dy=".35em" text-anchor="middle" font-size="14.072134853340685" transform="translate(421.22265625,438.79949474236656)">❅</text><text fill="#d1d1d1" dy=".35em" text-anchor="middle" font-size="14.412300295662135" transform="translate(225.10264587402344,197.80659945585242)">❄</text><text fill="#d1d1d1" dy=".35em" text-anchor="middle" font-size="10.528972375905141" transform="translate(185.12953186035156,451.7625272193061)">❆</text><text fill="#d1d1d1" dy=".35em" text-anchor="middle" font-size="11.840525303268805" transform="translate(219.84268188476562,229.70523130442365)">❆</text><text fill="#d1d1d1" dy=".35em" text-anchor="middle" font-size="13.067194487666711" transform="translate(371.2380065917969,194.43066422520903)">❆</text><text fill="#d1d1d1" dy=".35em" text-anchor="middle" font-size="12.241766111692414" transform="translate(32.743412017822266,501.6432374276254)">❄</text><text fill="#d1d1d1" dy=".35em" text-anchor="middle" font-size="12.646694197319448" transform="translate(478.18048095703125,463.5737900581056)">❄</text><text fill="#d1d1d1" dy=".35em" text-anchor="middle" font-size="14.016283247619867" transform="translate(157.2765350341797,110.75051178529652)">❅</text><text fill="#d1d1d1" dy=".35em" text-anchor="middle" font-size="14.77127389749512" transform="translate(454.500244140625,403.0839428637349)">❅</text><text fill="#d1d1d1" dy=".35em" text-anchor="middle" font-size="12.295179617358372" transform="translate(332.93707275390625,231.74741665017444)">❄</text><text fill="#d1d1d1" dy=".35em" text-anchor="middle" font-size="12.213995783822611" transform="translate(71.58064270019531,401.0131918095385)">❆</text><text fill="#d1d1d1" dy=".35em" text-anchor="middle" font-size="14.961897002067417" transform="translate(274.0912170410156,163.58462446629014)">❆</text><text fill="#d1d1d1" dy=".35em" text-anchor="middle" font-size="12.346240694168955" transform="translate(95.88320922851562,475.47562664177786)">❅</text><text fill="#d1d1d1" dy=".35em" text-anchor="middle" font-size="12.99271637108177" transform="translate(198.8154754638672,448.5041947156976)">❄</text><text fill="#d1d1d1" dy=".35em" text-anchor="middle" font-size="14.148052349919453" transform="translate(20.948408126831055,212.39267620387284)">❆</text><text fill="#d1d1d1" dy=".35em" text-anchor="middle" font-size="12.286736525129527" transform="translate(96.52999114990234,99.75894485448543)">❆</text><text fill="#d1d1d1" dy=".35em" text-anchor="middle" font-size="13.325639382237568" transform="translate(164.48873901367188,180.1012285356793)">❄</text><text fill="#d1d1d1" dy=".35em" text-anchor="middle" font-size="10.025281488196924" transform="translate(497.2822265625,249.40633418032385)">❅</text><text fill="#d1d1d1" dy=".35em" text-anchor="middle" font-size="11.87100286828354" transform="translate(390.2858581542969,30.665510255702728)">❄</text><text fill="#d1d1d1" dy=".35em" text-anchor="middle" font-size="11.917703326325864" transform="translate(85.21251678466797,18.618566953989102)">❆</text><text fill="#d1d1d1" dy=".35em" text-anchor="middle" font-size="14.968694390263408" transform="translate(58.468536376953125,97.57608147809768)">❆</text><text fill="#d1d1d1" dy=".35em" text-anchor="middle" font-size="10.078691968228668" transform="translate(58.97458267211914,38.68946855951912)">❄</text><text fill="#d1d1d1" dy=".35em" text-anchor="middle" font-size="14.004718653159216" transform="translate(413.58367919921875,458.70989909614434)">❅</text><text fill="#d1d1d1" dy=".35em" text-anchor="middle" font-size="14.986519638914615" transform="translate(450.38250732421875,17.533143392692445)">❄</text><text fill="#d1d1d1" dy=".35em" text-anchor="middle" font-size="12.524398086825386" transform="translate(148.8138427734375,94.00102174698682)">❆</text><text fill="#d1d1d1" dy=".35em" text-anchor="middle" font-size="14.714669118402526" transform="translate(53.38582992553711,177.09042306980677)">❄</text><text fill="#d1d1d1" dy=".35em" text-anchor="middle" font-size="14.31638236506842" transform="translate(200.054931640625,74.26745973133964)">❄</text><text fill="#d1d1d1" dy=".35em" text-anchor="middle" font-size="13.7861026043538" transform="translate(9.298630714416504,205.9928178786519)">❄</text><text fill="#d1d1d1" dy=".35em" text-anchor="middle" font-size="10.529770465800539" transform="translate(90.31986236572266,111.6891560851449)">❅</text><text fill="#d1d1d1" dy=".35em" text-anchor="middle" font-size="11.648373812204227" transform="translate(334.5965881347656,288.52162758061286)">❆</text><text fill="#d1d1d1" dy=".35em" text-anchor="middle" font-size="12.248594431439415" transform="translate(186.4756622314453,112.45521198499796)">❆</text><text fill="#d1d1d1" dy=".35em" text-anchor="middle" font-size="11.139069739729166" transform="translate(14.95534610748291,199.55875518152274)">❅</text><text fill="#d1d1d1" dy=".35em" text-anchor="middle" font-size="13.408382344059646" transform="translate(99.13555145263672,30.0292681956543)">❆</text><text fill="#d1d1d1" dy=".35em" text-anchor="middle" font-size="11.954670251579955" transform="translate(243.8350067138672,199.37836947227433)">❆</text><text fill="#d1d1d1" dy=".35em" text-anchor="middle" font-size="11.84817154193297" transform="translate(161.7543487548828,448.60678861713393)">❆</text><text fill="#d1d1d1" dy=".35em" text-anchor="middle" font-size="12.146075746277347" transform="translate(138.99440002441406,10.682218605467106)">❄</text><text fill="#d1d1d1" dy=".35em" text-anchor="middle" font-size="13.339444065932184" transform="translate(314.28680419921875,458.1686784325148)">❆</text><text fill="#d1d1d1" dy=".35em" text-anchor="middle" font-size="10.945283303735778" transform="translate(353.00787353515625,10.493792147867717)">❄</text><text fill="#d1d1d1" dy=".35em" text-anchor="middle" font-size="13.23596402304247" transform="translate(388.14669799804693,157.5952545131025)">❆</text><text fill="#d1d1d1" dy=".35em" text-anchor="middle" font-size="12.451163502410054" transform="translate(353.44470214843756,18.203275577661156)">❆</text><text fill="#d1d1d1" dy=".35em" text-anchor="middle" font-size="13.74790818314068" transform="translate(246.83909606933594,104.23166294229544)">❆</text><text fill="#d1d1d1" dy=".35em" text-anchor="middle" font-size="14.677512190537527" transform="translate(136.64773559570312,201.0552092303643)">❄</text><text fill="#d1d1d1" dy=".35em" text-anchor="middle" font-size="11.97585440822877" transform="translate(91.73710632324219,279.57808943591687)">❆</text><text fill="#d1d1d1" dy=".35em" text-anchor="middle" font-size="14.295889731729403" transform="translate(121.37921142578125,219.98483419277062)">❆</text><text fill="#d1d1d1" dy=".35em" text-anchor="middle" font-size="14.212585446657613" transform="translate(371.3773803710937,70.07748263376432)">❄</text><text fill="#d1d1d1" dy=".35em" text-anchor="middle" font-size="12.29501863825135" transform="translate(275.6909484863281,40.60600141013676)">❆</text><text fill="#d1d1d1" dy=".35em" text-anchor="middle" font-size="13.33528324496001" transform="translate(72.65503692626953,157.56609177519042)">❅</text><text fill="#d1d1d1" dy=".35em" text-anchor="middle" font-size="10.93545914394781" transform="translate(268.0858154296875,52.244761469012786)">❄</text><text fill="#d1d1d1" dy=".35em" text-anchor="middle" font-size="11.115179784828797" transform="translate(1.852402925491333,207.37744391669898)">❅</text><text fill="#d1d1d1" dy=".35em" text-anchor="middle" font-size="12.239540353184566" transform="translate(183.02793884277344,348.8335478419382)">❄</text><text fill="#d1d1d1" dy=".35em" text-anchor="middle" font-size="14.871397364186123" transform="translate(215.74742126464844,33.25488434008429)">❄</text><text fill="#d1d1d1" dy=".35em" text-anchor="middle" font-size="11.874990205978975" transform="translate(296.80657958984375,98.00408130349214)">❅</text><text fill="#d1d1d1" dy=".35em" text-anchor="middle" font-size="13.718811162980273" transform="translate(108.59078216552734,96.59535865506645)">❆</text><text fill="#d1d1d1" dy=".35em" text-anchor="middle" font-size="10.836668546544388" transform="translate(374.74652099609375,251.56167697728665)">❆</text><text fill="#d1d1d1" dy=".35em" text-anchor="middle" font-size="12.974607369396836" transform="translate(79.47238159179688,82.56401446516708)">❆</text><text fill="#d1d1d1" dy=".35em" text-anchor="middle" font-size="12.429816777585074" transform="translate(78.10618591308594,135.37867737086722)">❄</text><text fill="#d1d1d1" dy=".35em" text-anchor="middle" font-size="10.69522664649412" transform="translate(448.42047119140625,12.946901560928183)">❅</text><text fill="#d1d1d1" dy=".35em" text-anchor="middle" font-size="14.101589396595955" transform="translate(303.4887390136719,14.218159479096329)">❅</text><text fill="#d1d1d1" dy=".35em" text-anchor="middle" font-size="10.631646476686" transform="translate(35.28816223144531,453.263825866743)">❄</text><text fill="#d1d1d1" dy=".35em" text-anchor="middle" font-size="14.854251381475478" transform="translate(371.5428161621094,-2.1800452388121387)">❆</text><text fill="#d1d1d1" dy=".35em" text-anchor="middle" font-size="13.763216320658103" transform="translate(20.048444747924805,318.7866003705325)">❆</text><text fill="#d1d1d1" dy=".35em" text-anchor="middle" font-size="12.846177525352687" transform="translate(192.58041381835938,20.82261548976124)">❄</text><text fill="#d1d1d1" dy=".35em" text-anchor="middle" font-size="10.338243099395186" transform="translate(191.81546020507812,391.19276219709633)">❆</text><text fill="#d1d1d1" dy=".35em" text-anchor="middle" font-size="12.6556904357858" transform="translate(62.86494445800781,176.6768555507271)">❆</text><text fill="#d1d1d1" dy=".35em" text-anchor="middle" font-size="11.275411683600396" transform="translate(180.4850616455078,319.64947117321674)">❅</text><text fill="#d1d1d1" dy=".35em" text-anchor="middle" font-size="10.29265166260302" transform="translate(448.17962646484375,483.01745751983367)">❆</text><text fill="#d1d1d1" dy=".35em" text-anchor="middle" font-size="13.539331606589258" transform="translate(438.71636962890625,80.55322119261466)">❄</text><text fill="#d1d1d1" dy=".35em" text-anchor="middle" font-size="14.427176292520016" transform="translate(43.23006057739258,251.10936169349264)">❄</text><text fill="#d1d1d1" dy=".35em" text-anchor="middle" font-size="14.309411698486656" transform="translate(403.33251953125,14.403980193888355)">❆</text><text fill="#d1d1d1" dy=".35em" text-anchor="middle" font-size="10.273651018505916" transform="translate(405.9430236816406,413.39896284069096)">❅</text><text fill="#d1d1d1" dy=".35em" text-anchor="middle" font-size="12.122234115377069" transform="translate(152.70323181152344,478.47304610909094)">❆</text><text fill="#d1d1d1" dy=".35em" text-anchor="middle" font-size="14.78587968274951" transform="translate(140.6776885986328,504.05145307711524)">❆</text><text fill="#d1d1d1" dy=".35em" text-anchor="middle" font-size="13.1450447475072" transform="translate(319.3537292480469,7.650180098073488)">❅</text><text fill="#d1d1d1" dy=".35em" text-anchor="middle" font-size="11.335416449001059" transform="translate(424.4567565917969,132.86642298006407)">❅</text><text fill="#d1d1d1" dy=".35em" text-anchor="middle" font-size="12.983235052088276" transform="translate(1.6626513004302979,403.3955008786999)">❆</text><text fill="#d1d1d1" dy=".35em" text-anchor="middle" font-size="13.221245593158528" transform="translate(406.75933837890625,64.06976012761984)">❄</text><text fill="#d1d1d1" dy=".35em" text-anchor="middle" font-size="14.67131272656843" transform="translate(129.84596252441406,369.84620767736834)">❅</text><text fill="#d1d1d1" dy=".35em" text-anchor="middle" font-size="12.747501368867233" transform="translate(340.38360595703125,316.0148074679927)">❅</text><text fill="#d1d1d1" dy=".35em" text-anchor="middle" font-size="10.742523727240041" transform="translate(430.4101257324219,177.6206261977144)">❅</text><text fill="#d1d1d1" dy=".35em" text-anchor="middle" font-size="13.409308483824134" transform="translate(118.43568420410158,11.097423695343217)">❅</text><text fill="#d1d1d1" dy=".35em" text-anchor="middle" font-size="14.769895443459973" transform="translate(400.83782958984375,425.2988174091046)">❆</text><text fill="#d1d1d1" dy=".35em" text-anchor="middle" font-size="12.783088585129008" transform="translate(148.1663360595703,32.45556928378852)">❄</text><text fill="#d1d1d1" dy=".35em" text-anchor="middle" font-size="11.04191790916957" transform="translate(438.0994873046875,483.3964122569863)">❅</text><text fill="#d1d1d1" dy=".35em" text-anchor="middle" font-size="11.16614649654366" transform="translate(12.164246559143066,19.77630689922946)">❆</text><path fill="#d1d1d1" d="M0,496L0.8333333333333333,496.33333333333326C1.6666666666666665,496.66666666666663,3.333333333333333,497.3333333333333,5,497.33333333333326C6.666666666666666,497.3333333333333,8.333333333333332,496.66666666666663,10,496.33333333887634C11.666666666666666,496.0000000110861,13.333333333333332,496.0000000221723,15,496.66666668883886C16.666666666666664,497.3333333555056,18.333333333333332,498.66666667775286,20,499.3333333388765C21.666666666666664,500,23.33333333333333,500,24.999999999999996,498.99999999999994C26.666666666666664,498,28.333333333333332,496,29.999999999999996,495.33333333333326C31.666666666666664,494.66666666666663,33.33333333333333,495.33333333333326,35,495.33333333333326C36.666666666666664,495.33333333333326,38.33333333333333,494.66666666666663,40,495.00000000076454C41.666666666666664,495.33333333486263,43.33333333333333,496.66666666972503,45,497.6666666697251C46.666666666666664,498.6666666697252,48.33333333333333,499.33333333486263,49.99999999999999,498.6666666730855C51.66666666666666,498.00000001130843,53.33333333333333,496.00000002261686,55,495.33333335595C56.666666666666664,494.6666666892835,58.33333333333333,495.33333334464163,60,496.00000000565416C61.666666666666664,496.66666666666663,63.33333333333333,497.3333333333333,65,497.66666666666663C66.66666666666666,498,68.33333333333333,498,70,497.40698737152513C71.66666666666666,496.8139747430503,73.33333333333333,495.6279494861005,75,495.2946161527672C76.66666666666666,494.9612828194339,78.33333333333333,495.4806414097168,80,496.40698737152513C81.66666666666666,497.33333333333326,83.33333333333333,498.66666666666663,85,499.3333333333333C86.66666666666666,500,88.33333333333333,500,90,499.8085819094289C91.66666666666666,499.61716381885776,93.33333333333333,499.23432763771564,95,498.5676609710488C96.66666666666666,497.9009943043822,98.33333333333331,496.950497152191,99.99999999999999,496.4786925018516C101.66666666666666,496.0068878515121,103.33333333333333,496.0137757030244,104.99999999999999,496.01377570302435C106.66666666666666,496.0137757030244,108.33333333333333,496.0068878515121,110,496.0034439257561C111.66666666666666,495.99999999999994,113.33333333333331,495.99999999999994,114.99999999999999,495.9999999999999C116.66666666666666,495.99999999999994,118.33333333333333,495.99999999999994,119.99999999999999,496.33333333333326C121.66666666666666,496.66666666666663,123.33333333333333,497.3333333333333,125,497.33333333333326C126.66666666666666,497.3333333333333,128.33333333333331,496.66666666666663,130,496.66666666666663C131.66666666666666,496.66666666666663,133.33333333333331,497.3333333333333,135,496.80858191437324C136.66666666666666,496.28383049541327,138.33333333333331,494.56766099082665,140,493.2433222657097C141.66666666666666,491.918983540593,143.33333333333331,490.986475594946,145,491.84456035278254C146.66666666666666,492.70264511061896,148.33333333333331,495.3513225719386,150,496.67566129705557C151.66666666666666,498.00000002217234,153.33333333333331,498.0000000110862,154.99999999999997,497.66666667220983C156.66666666666666,497.3333333333333,158.33333333333331,496.66666666666663,160,496.47245965774476C161.66666666666666,496.2782526488229,163.33333333333331,496.55650529764574,165,496.40070588519427C166.66666666666666,496.24490647274285,168.33333333333331,495.6550549990171,169.99999999999997,495.2548019248714C171.66666666666666,494.8545488507258,173.33333333333331,494.6438941761602,175,495.133026921945C176.66666666666666,495.62215966772965,178.33333333333331,496.8110798338649,180,497.7388732502657C181.66666666666666,498.66666666666663,183.33333333333331,499.3333333333333,184.99999999999997,499.66666666666663C186.66666666666666,500,188.33333333333331,500,190,499.6666666716112C191.66666666666666,499.33333334322225,193.33333333333331,498.66666668644444,195,497.50795855074136C196.66666666666666,496.3492504150385,198.33333333333331,494.69850080041033,199.99999999999997,495.03183412879923C201.66666666666663,495.3651674571882,203.33333333333331,497.682583728594,205,498.2468317812294C206.66666666666666,498.811079833865,208.33333333333331,497.62215966772976,210,496.95549300106313C211.66666666666666,496.28882633439633,213.33333333333331,496.14441316719825,214.99999999999997,496.73887325026567C216.66666666666663,497.33333333333326,218.33333333333331,498.66666666666663,220,498.3333333333333C221.66666666666666,498,223.33333333333331,496,225,495.33333333333326C226.66666666666666,494.66666666666663,228.33333333333331,495.33333333333326,229.99999999999997,494.99999999999994C231.66666666666663,494.66666666666663,233.33333333333331,493.3333333333333,235,493.33333333333326C236.66666666666666,493.3333333333333,238.33333333333331,494.66666666666663,240,495.66666666666663C241.66666666666666,496.66666666666663,243.33333333333331,497.3333333333333,244.99999999999997,496.66666667308573C246.66666666666663,496.0000000128383,248.33333333333331,494.0000000256766,250,492.95208402603055C251.66666666666666,491.90416802638435,253.33333333333331,491.808336014254,255,492.47500267450147C256.66666666666663,493.14166933474905,258.3333333333333,494.57083466737447,260,495.9520840003539C261.66666666666663,497.33333333333326,263.3333333333333,498.66666666666663,265,498.3333333333333C266.66666666666663,498,268.3333333333333,496,270,495.3423279415498C271.66666666666663,494.68465588309965,273.3333333333333,495.3693117661993,275,495.3693117661993C276.66666666666663,495.3693117661993,278.3333333333333,494.68465588309965,280,494.3423279492933C281.66666666666663,494.000000015487,283.3333333333333,494.00000003097387,285,493.2410121838591C286.66666666666663,492.48202433674413,288.3333333333333,490.96404862702764,290,491.83562412154043C291.66666666666663,492.70719961605323,293.3333333333333,495.96832631479526,295,497.06064749524353C296.66666666666663,498.1529686756916,298.3333333333333,497.0764843378457,300,497.1121206641122C301.66666666666663,497.1477569903786,303.3333333333333,498.29551398075733,305,498.2955139807573C306.66666666666663,498.29551398075733,308.3333333333333,497.1477569903786,310,496.90721182852263C311.66666666666663,496.66666666666663,313.3333333333333,497.3333333333333,315,496.99999999999994C316.66666666666663,496.66666666666663,318.3333333333333,495.3333333333333,320,495.3333333333333C321.66666666666663,495.3333333333333,323.3333333333333,496.66666666666663,325,497.66666666666663C326.66666666666663,498.66666666666663,328.3333333333333,499.3333333333333,330,499C331.66666666666663,498.66666666666663,333.3333333333333,497.33333333333326,335,496.83786012991317C336.66666666666663,496.342386926493,338.3333333333333,496.6847738529861,340,496.22712361272056C341.66666666666663,495.76947337245525,343.3333333333333,494.5117859654313,345,495.0072591688513C346.66666666666663,495.5027323722715,348.3333333333333,497.7513661861357,350,498.20901642640115C351.66666666666663,498.66666666666663,353.3333333333333,497.33333333333326,355,496.99999999999994C356.66666666666663,496.66666666666663,358.3333333333333,497.3333333333333,360,497.33333333333326C361.66666666666663,497.3333333333333,363.3333333333333,496.66666666666663,365,496.66666666666663C366.66666666666663,496.66666666666663,368.3333333333333,497.3333333333333,370,497.3407896461176C371.66666666666663,497.3482459589019,373.3333333333333,496.6964919178039,375,496.36315858447057C376.66666666666663,496.0298252511373,378.3333333333333,496.01491262556857,380,496.5423412553448C381.66666666666663,497.06976988512116,383.33333333333326,498.13953977024244,384.99999999999994,498.4728731250987C386.66666666666663,498.806206479955,388.3333333333333,498.4031033045464,389.99999999999994,497.8873315890777C391.66666666666663,497.3715598736088,393.3333333333333,496.74311961807996,395,496.40978627871056C396.66666666666663,496.07645293934115,398.33333333333326,496.0382265161313,399.99999999999994,495.35244662237267C401.66666666666663,494.66666672861425,403.3333333333333,493.3333333643072,404.99999999999994,493.66666668215356C406.66666666666663,494,408.3333333333333,496,410,496.67551393704736C411.66666666666663,497.35102787409477,413.33333333333326,496.70205574818965,414.99999999999994,496.70205574818965C416.66666666666663,496.70205574818965,418.3333333333333,497.35102787409477,419.99999999999994,496.67551396061265C421.66666666666663,496.0000000471307,423.3333333333333,494.0000000942614,425,494.0000000942614C426.66666666666663,494.0000000942614,428.33333333333326,496.0000000471307,429.99999999999994,497.00000002356535C431.66666666666663,498,433.3333333333333,498,434.99999999999994,497.36943662513295C436.66666666666663,496.7388732502657,438.3333333333333,495.47774650053157,440,494.14441317214266C441.66666666666663,492.81107984375376,443.33333333333326,491.40553993671017,444.99999999999994,491.70276999425755C446.66666666666663,492.0000000518048,448.3333333333333,494.00000007394294,449.99999999999994,495.3333334023318C451.66666666666663,496.66666673072075,453.3333333333333,497.33333336536043,455,497.6666666826802C456.66666666666663,498,458.33333333333326,498,459.99999999999994,498.3333333333333C461.66666666666663,498.66666666666663,463.3333333333333,499.3333333333333,464.99999999999994,499.51086724659865C466.66666666666663,499.68840115986393,468.3333333333333,499.3768023197279,470,499.3768023197279C471.66666666666663,499.3768023197279,473.33333333333326,499.68840115986393,474.99999999999994,499.844200579932C476.66666666666663,500,478.3333333333333,500,479.99999999999994,499.2049088654148C481.66666666666663,498.40981773082973,483.3333333333333,496.8196354616592,485,496.486302128326C486.66666666666663,496.1529687949926,488.33333333333326,497.07648439749636,490.83333333333326,496.8715755534345C493.33333333333326,496.6666667093728,496.66666666666663,495.33333341874555,498.3333333333333,494.6666667734319L500,494.00000012811836L500,500L498.33333333333326,499.99999999999994C496.66666666666663,500,493.33333333333326,500,490.83333333333326,499.99999999999994C488.33333333333326,500,486.66666666666663,500,485,499.99999999999994C483.3333333333333,500,481.66666666666663,500,480,499.99999999999994C478.3333333333333,500,476.66666666666663,500,474.99999999999994,499.99999999999994C473.33333333333326,500,471.66666666666663,500,470,499.99999999999994C468.3333333333333,500,466.66666666666663,500,465,499.99999999999994C463.3333333333333,500,461.66666666666663,500,459.99999999999994,499.99999999999994C458.33333333333326,500,456.66666666666663,500,455,499.99999999999994C453.3333333333333,500,451.66666666666663,500,450,499.99999999999994C448.3333333333333,500,446.66666666666663,500,444.99999999999994,499.99999999999994C443.33333333333326,500,441.66666666666663,500,440,499.99999999999994C438.3333333333333,500,436.66666666666663,500,435,499.99999999999994C433.3333333333333,500,431.66666666666663,500,429.99999999999994,499.99999999999994C428.33333333333326,500,426.66666666666663,500,425,499.99999999999994C423.3333333333333,500,421.66666666666663,500,420,499.99999999999994C418.3333333333333,500,416.66666666666663,500,414.99999999999994,499.99999999999994C413.33333333333326,500,411.66666666666663,500,410,499.99999999999994C408.3333333333333,500,406.66666666666663,500,405,499.99999999999994C403.3333333333333,500,401.66666666666663,500,399.99999999999994,499.99999999999994C398.33333333333326,500,396.66666666666663,500,395,499.99999999999994C393.3333333333333,500,391.66666666666663,500,390,499.99999999999994C388.3333333333333,500,386.66666666666663,500,384.99999999999994,499.99999999999994C383.33333333333326,500,381.66666666666663,500,380,499.99999999999994C378.3333333333333,500,376.66666666666663,500,375,499.99999999999994C373.3333333333333,500,371.66666666666663,500,369.99999999999994,499.99999999999994C368.3333333333333,500,366.66666666666663,500,365,499.99999999999994C363.3333333333333,500,361.66666666666663,500,360,499.99999999999994C358.3333333333333,500,356.66666666666663,500,354.99999999999994,499.99999999999994C353.3333333333333,500,351.66666666666663,500,350,499.99999999999994C348.3333333333333,500,346.66666666666663,500,345,499.99999999999994C343.3333333333333,500,341.66666666666663,500,339.99999999999994,499.99999999999994C338.3333333333333,500,336.66666666666663,500,335,499.99999999999994C333.3333333333333,500,331.66666666666663,500,330,499.99999999999994C328.3333333333333,500,326.66666666666663,500,324.99999999999994,499.99999999999994C323.3333333333333,500,321.66666666666663,500,320,499.99999999999994C318.3333333333333,500,316.66666666666663,500,315,499.99999999999994C313.3333333333333,500,311.66666666666663,500,309.99999999999994,499.99999999999994C308.3333333333333,500,306.66666666666663,500,305,499.99999999999994C303.3333333333333,500,301.66666666666663,500,300,499.99999999999994C298.3333333333333,500,296.66666666666663,500,295,499.99999999999994C293.3333333333333,500,291.66666666666663,500,290,499.99999999999994C288.3333333333333,500,286.66666666666663,500,285,499.99999999999994C283.3333333333333,500,281.66666666666663,500,280,499.99999999999994C278.3333333333333,500,276.66666666666663,500,275,499.99999999999994C273.3333333333333,500,271.66666666666663,500,270,499.99999999999994C268.3333333333333,500,266.66666666666663,500,265,499.99999999999994C263.3333333333333,500,261.66666666666663,500,260,499.99999999999994C258.3333333333333,500,256.66666666666663,500,254.99999999999997,499.99999999999994C253.33333333333331,500,251.66666666666666,500,250,499.99999999999994C248.33333333333331,500,246.66666666666663,500,244.99999999999997,499.99999999999994C243.33333333333331,500,241.66666666666666,500,239.99999999999997,499.99999999999994C238.33333333333331,500,236.66666666666666,500,235,499.99999999999994C233.33333333333331,500,231.66666666666663,500,229.99999999999997,499.99999999999994C228.33333333333331,500,226.66666666666666,500,224.99999999999997,499.99999999999994C223.33333333333331,500,221.66666666666666,500,220,499.99999999999994C218.33333333333331,500,216.66666666666663,500,214.99999999999997,499.99999999999994C213.33333333333331,500,211.66666666666666,500,209.99999999999997,499.99999999999994C208.33333333333331,500,206.66666666666666,500,205,499.99999999999994C203.33333333333331,500,201.66666666666663,500,199.99999999999997,499.99999999999994C198.33333333333331,500,196.66666666666666,500,194.99999999999997,499.99999999999994C193.33333333333331,500,191.66666666666666,500,190,499.99999999999994C188.33333333333331,500,186.66666666666666,500,185,499.99999999999994C183.33333333333331,500,181.66666666666666,500,180,499.99999999999994C178.33333333333331,500,176.66666666666666,500,175,499.99999999999994C173.33333333333331,500,171.66666666666666,500,170,499.99999999999994C168.33333333333331,500,166.66666666666666,500,165,499.99999999999994C163.33333333333331,500,161.66666666666666,500,160,499.99999999999994C158.33333333333331,500,156.66666666666666,500,155,499.99999999999994C153.33333333333331,500,151.66666666666666,500,150,499.99999999999994C148.33333333333331,500,146.66666666666666,500,145,499.99999999999994C143.33333333333331,500,141.66666666666666,500,140,499.99999999999994C138.33333333333331,500,136.66666666666666,500,135,499.99999999999994C133.33333333333331,500,131.66666666666666,500,130,499.99999999999994C128.33333333333331,500,126.66666666666666,500,125,499.99999999999994C123.33333333333333,500,121.66666666666666,500,120,499.99999999999994C118.33333333333333,500,116.66666666666666,500,114.99999999999999,499.99999999999994C113.33333333333331,500,111.66666666666666,500,110,499.99999999999994C108.33333333333333,500,106.66666666666666,500,105,499.99999999999994C103.33333333333333,500,101.66666666666666,500,99.99999999999999,499.99999999999994C98.33333333333331,500,96.66666666666666,500,95,499.99999999999994C93.33333333333333,500,91.66666666666666,500,90,499.99999999999994C88.33333333333333,500,86.66666666666666,500,84.99999999999999,499.99999999999994C83.33333333333333,500,81.66666666666666,500,80,499.99999999999994C78.33333333333333,500,76.66666666666666,500,75,499.99999999999994C73.33333333333333,500,71.66666666666666,500,70,499.99999999999994C68.33333333333333,500,66.66666666666666,500,65,499.99999999999994C63.33333333333333,500,61.666666666666664,500,59.99999999999999,499.99999999999994C58.33333333333333,500,56.666666666666664,500,55,499.99999999999994C53.33333333333333,500,51.66666666666666,500,49.99999999999999,499.99999999999994C48.33333333333333,500,46.666666666666664,500,44.99999999999999,499.99999999999994C43.33333333333333,500,41.666666666666664,500,40,499.99999999999994C38.33333333333333,500,36.666666666666664,500,35,499.99999999999994C33.33333333333333,500,31.666666666666664,500,30,499.99999999999994C28.333333333333332,500,26.666666666666664,500,24.999999999999996,499.99999999999994C23.33333333333333,500,21.666666666666664,500,20,499.99999999999994C18.333333333333332,500,16.666666666666664,500,14.999999999999998,499.99999999999994C13.333333333333332,500,11.666666666666666,500,10,499.99999999999994C8.333333333333332,500,6.666666666666666,500,5,499.99999999999994C3.333333333333333,500,1.6666666666666665,500,0.8333333333333333,499.99999999999994L0,500Z"/></svg>