<?xml version="1.0" standalone="no"?><!DOCTYPE svg PUBLIC "-//W3C//DTD SVG 1.1//EN" "http://www.w3.org/Graphics/SVG/1.1/DTD/svg11.dtd"><svg width="500" height="500" style="background: rgb(17, 17, 17);" version="1.1" xmlns="http://www.w3.org/2000/svg" xmlns:xlink="http://www.w3.org/1999/xlink"><defs xmlns="http://www.w3.org/1999/xhtml"><style type="text/css"><![CDATA[
html, body { height: 100%; margin: 0px; background: rgb(34, 34, 34); }
body, #prev, #next { height: 100%; display: -webkit-flex; flex-direction: column; justify-content: center; }
#prev, #next { position: absolute; top: 0px; color: rgb(209, 209, 209); font-size: 70px; text-decoration: none; padding: 20px; }
#prev { left: 0px; }
#next { right: 0px; }
svg { margin: auto; }]]></style></defs><path fill="#D1D1D1" fill-opacity="0.14234999999999998" d="M0,27L9.25925925925926,26.666666666666664C18.51851851851852,26.333333333333332,37.03703703703704,25.666666666666664,55.55555555555556,25.999999999999996C74.07407407407408,26.33333333333333,92.5925925925926,27.666666666666664,111.11111111111111,26.833333333333332C129.62962962962962,26,148.14814814814815,23,166.66666666666666,22.33333333333333C185.1851851851852,21.666666666666664,203.7037037037037,23.33333333333333,222.22222222222223,23.666666666666664C240.74074074074073,23.999999999999996,259.25925925925924,23,277.77777777777777,23.5C296.2962962962963,24,314.8148148148148,25.999999999999996,333.33333333333337,26.166666666666664C351.85185185185185,26.33333333333333,370.3703703703703,24.666666666666664,388.88888888888886,23.833333333333332C407.4074074074074,23,425.9259259259259,23,444.4444444444444,24.83333333333333C462.96296296296293,26.666666666666664,481.48148148148147,30.33333333333333,490.7407407407407,32.166666666666664L500,34L500,0L490.7407407407407,0C481.48148148148147,0,462.96296296296293,0,444.44444444444446,0C425.9259259259259,0,407.4074074074074,0,388.88888888888886,0C370.3703703703703,0,351.85185185185185,0,333.33333333333337,0C314.8148148148148,0,296.2962962962963,0,277.7777777777777,0C259.25925925925924,0,240.74074074074073,0,222.22222222222223,0C203.7037037037037,0,185.1851851851852,0,166.66666666666669,0C148.14814814814815,0,129.62962962962962,0,111.11111111111111,0C92.5925925925926,0,74.07407407407408,0,55.55555555555556,0C37.03703703703704,0,18.51851851851852,0,9.25925925925926,0L0,0Z"/><path fill="#D1D1D1" fill-opacity="0.12735" d="M0,82L9.25925925925926,80.33333333333333C18.51851851851852,78.66666666666666,37.03703703703704,75.33333333333333,55.55555555555556,72.5C74.07407407407408,69.66666666666666,92.5925925925926,67.33333333333333,111.11111111111111,68.16666666666666C129.62962962962962,69,148.14814814814815,73,166.66666666666666,75.49999999999999C185.1851851851852,78,203.7037037037037,79,222.22222222222223,78.66666666666666C240.74074074074073,78.33333333333333,259.25925925925924,76.66666666666666,277.77777777777777,76.33333333333333C296.2962962962963,76,314.8148148148148,77,333.33333333333337,76.16666666666667C351.85185185185185,75.33333333333333,370.3703703703703,72.66666666666666,388.88888888888886,71.83333333333333C407.4074074074074,71,425.9259259259259,72,444.4444444444444,74.33333333333333C462.96296296296293,76.66666666666666,481.48148148148147,80.33333333333333,490.7407407407407,82.16666666666667L500,84L500,0L490.7407407407407,0C481.48148148148147,0,462.96296296296293,0,444.44444444444446,0C425.9259259259259,0,407.4074074074074,0,388.88888888888886,0C370.3703703703703,0,351.85185185185185,0,333.33333333333337,0C314.8148148148148,0,296.2962962962963,0,277.7777777777777,0C259.25925925925924,0,240.74074074074073,0,222.22222222222223,0C203.7037037037037,0,185.1851851851852,0,166.66666666666669,0C148.14814814814815,0,129.62962962962962,0,111.11111111111111,0C92.5925925925926,0,74.07407407407408,0,55.55555555555556,0C37.03703703703704,0,18.51851851851852,0,9.25925925925926,0L0,0Z"/><path fill="#D1D1D1" fill-opacity="0.11234999999999999" d="M0,126L9.25925925925926,127.33333333333333C18.51851851851852,128.66666666666666,37.03703703703704,131.33333333333331,55.55555555555556,130.33333333333331C74.07407407407408,129.33333333333331,92.5925925925926,124.66666666666666,111.11111111111111,124C129.62962962962962,123.33333333333333,148.14814814814815,126.66666666666666,166.66666666666666,126.16666666666666C185.1851851851852,125.66666666666666,203.7037037037037,121.33333333333333,222.22222222222223,121.16666666666666C240.74074074074073,121,259.25925925925924,125,277.77777777777777,126.5C296.2962962962963,128,314.8148148148148,127,333.33333333333337,127.83333333333333C351.85185185185185,128.66666666666666,370.3703703703703,131.33333333333331,388.88888888888886,130.66666666666666C407.4074074074074,130,425.9259259259259,126,444.4444444444444,123.33333333333331C462.96296296296293,120.66666666666666,481.48148148148147,119.33333333333331,490.7407407407407,118.66666666666666L500,118L500,0L490.7407407407407,0C481.48148148148147,0,462.96296296296293,0,444.44444444444446,0C425.9259259259259,0,407.4074074074074,0,388.88888888888886,0C370.3703703703703,0,351.85185185185185,0,333.33333333333337,0C314.8148148148148,0,296.2962962962963,0,277.7777777777777,0C259.25925925925924,0,240.74074074074073,0,222.22222222222223,0C203.7037037037037,0,185.1851851851852,0,166.66666666666669,0C148.14814814814815,0,129.62962962962962,0,111.11111111111111,0C92.5925925925926,0,74.07407407407408,0,55.55555555555556,0C37.03703703703704,0,18.51851851851852,0,9.25925925925926,0L0,0Z"/><path fill="#D1D1D1" fill-opacity="0.09735" d="M0,173L9.25925925925926,173.5C18.51851851851852,174,37.03703703703704,175,55.55555555555556,174.5C74.07407407407408,174,92.5925925925926,172,111.11111111111111,172.33333333333331C129.62962962962962,172.66666666666666,148.14814814814815,175.33333333333331,166.66666666666666,176.5C185.1851851851852,177.66666666666666,203.7037037037037,177.33333333333331,222.22222222222223,177.16666666666666C240.74074074074073,177,259.25925925925924,177,277.77777777777777,177.5C296.2962962962963,178,314.8148148148148,179,333.33333333333337,179.5C351.85185185185185,180,370.3703703703703,180,388.88888888888886,178.16666666666666C407.4074074074074,176.33333333333331,425.9259259259259,172.66666666666666,444.4444444444444,172C462.96296296296293,171.33333333333331,481.48148148148147,173.66666666666666,490.7407407407407,174.83333333333334L500,176L500,0L490.7407407407407,0C481.48148148148147,0,462.96296296296293,0,444.44444444444446,0C425.9259259259259,0,407.4074074074074,0,388.88888888888886,0C370.3703703703703,0,351.85185185185185,0,333.33333333333337,0C314.8148148148148,0,296.2962962962963,0,277.7777777777777,0C259.25925925925924,0,240.74074074074073,0,222.22222222222223,0C203.7037037037037,0,185.1851851851852,0,166.66666666666669,0C148.14814814814815,0,129.62962962962962,0,111.11111111111111,0C92.5925925925926,0,74.07407407407408,0,55.55555555555556,0C37.03703703703704,0,18.51851851851852,0,9.25925925925926,0L0,0Z"/><path fill="#D1D1D1" fill-opacity="0.08234999999999999" d="M0,224L9.25925925925926,224.66666666666663C18.51851851851852,225.33333333333331,37.03703703703704,226.66666666666666,55.55555555555556,227.66666666666663C74.07407407407408,228.66666666666666,92.5925925925926,229.33333333333331,111.11111111111111,227.99999999999997C129.62962962962962,226.66666666666663,148.14814814814815,223.33333333333331,166.66666666666666,220.66666666666666C185.1851851851852,218,203.7037037037037,216,222.22222222222223,216.66666666666663C240.74074074074073,217.33333333333331,259.25925925925924,220.66666666666663,277.77777777777777,222.83333333333331C296.2962962962963,224.99999999999997,314.8148148148148,225.99999999999997,333.33333333333337,227.99999999999994C351.85185185185185,229.99999999999997,370.3703703703703,232.99999999999997,388.88888888888886,232.3333333333333C407.4074074074074,231.66666666666663,425.9259259259259,227.33333333333331,444.4444444444444,226.33333333333331C462.96296296296293,225.33333333333331,481.48148148148147,227.66666666666663,490.7407407407407,228.83333333333331L500,230L500,0L490.7407407407407,0C481.48148148148147,0,462.96296296296293,0,444.44444444444446,0C425.9259259259259,0,407.4074074074074,0,388.88888888888886,0C370.3703703703703,0,351.85185185185185,0,333.33333333333337,0C314.8148148148148,0,296.2962962962963,0,277.7777777777777,0C259.25925925925924,0,240.74074074074073,0,222.22222222222223,0C203.7037037037037,0,185.1851851851852,0,166.66666666666669,0C148.14814814814815,0,129.62962962962962,0,111.11111111111111,0C92.5925925925926,0,74.07407407407408,0,55.55555555555556,0C37.03703703703704,0,18.51851851851852,0,9.25925925925926,0L0,0Z"/><path fill="#D1D1D1" fill-opacity="0.06735" d="M0,270L9.25925925925926,271.3333333333333C18.51851851851852,272.66666666666663,37.03703703703704,275.3333333333333,55.55555555555556,278C74.07407407407408,280.66666666666663,92.5925925925926,283.3333333333333,111.11111111111111,283.6666666666667C129.62962962962962,284,148.14814814814815,282,166.66666666666666,280.66666666666663C185.1851851851852,279.3333333333333,203.7037037037037,278.66666666666663,222.22222222222223,276.8333333333333C240.74074074074073,275,259.25925925925924,272,277.77777777777777,271.99999999999994C296.2962962962963,272,314.8148148148148,275,333.33333333333337,275.8333333333333C351.85185185185185,276.66666666666663,370.3703703703703,275.3333333333333,388.88888888888886,273C407.4074074074074,270.66666666666663,425.9259259259259,267.3333333333333,444.4444444444444,268.16666666666663C462.96296296296293,269,481.48148148148147,274,490.7407407407407,276.5L500,279L500,0L490.7407407407407,0C481.48148148148147,0,462.96296296296293,0,444.44444444444446,0C425.9259259259259,0,407.4074074074074,0,388.88888888888886,0C370.3703703703703,0,351.85185185185185,0,333.33333333333337,0C314.8148148148148,0,296.2962962962963,0,277.7777777777777,0C259.25925925925924,0,240.74074074074073,0,222.22222222222223,0C203.7037037037037,0,185.1851851851852,0,166.66666666666669,0C148.14814814814815,0,129.62962962962962,0,111.11111111111111,0C92.5925925925926,0,74.07407407407408,0,55.55555555555556,0C37.03703703703704,0,18.51851851851852,0,9.25925925925926,0L0,0Z"/><path fill="#D1D1D1" fill-opacity="0.052349999999999994" d="M0,327L9.25925925925926,328.8333333333333C18.51851851851852,330.66666666666663,37.03703703703704,334.3333333333333,55.55555555555556,333C74.07407407407408,331.66666666666663,92.5925925925926,325.3333333333333,111.11111111111111,323.6666666666667C129.62962962962962,322,148.14814814814815,325,166.66666666666666,324.8333333333333C185.1851851851852,324.66666666666663,203.7037037037037,321.3333333333333,222.22222222222223,320C240.74074074074073,318.66666666666663,259.25925925925924,319.3333333333333,277.77777777777777,320.66666666666663C296.2962962962963,322,314.8148148148148,324,333.33333333333337,324.99999999999994C351.85185185185185,326,370.3703703703703,326,388.88888888888886,326.3333333333333C407.4074074074074,326.66666666666663,425.9259259259259,327.3333333333333,444.4444444444444,327.3333333333333C462.96296296296293,327.3333333333333,481.48148148148147,326.66666666666663,490.7407407407407,326.3333333333333L500,326L500,0L490.7407407407407,0C481.48148148148147,0,462.96296296296293,0,444.44444444444446,0C425.9259259259259,0,407.4074074074074,0,388.88888888888886,0C370.3703703703703,0,351.85185185185185,0,333.33333333333337,0C314.8148148148148,0,296.2962962962963,0,277.7777777777777,0C259.25925925925924,0,240.74074074074073,0,222.22222222222223,0C203.7037037037037,0,185.1851851851852,0,166.66666666666669,0C148.14814814814815,0,129.62962962962962,0,111.11111111111111,0C92.5925925925926,0,74.07407407407408,0,55.55555555555556,0C37.03703703703704,0,18.51851851851852,0,9.25925925925926,0L0,0Z"/><path fill="#D1D1D1" fill-opacity="0.03735" d="M0,368L9.25925925925926,369.66666666666663C18.51851851851852,371.3333333333333,37.03703703703704,374.66666666666663,55.55555555555556,376.16666666666663C74.07407407407408,377.66666666666663,92.5925925925926,377.3333333333333,111.11111111111111,376.66666666666663C129.62962962962962,376,148.14814814814815,375,166.66666666666666,374.99999999999994C185.1851851851852,375,203.7037037037037,376,222.22222222222223,375.66666666666663C240.74074074074073,375.3333333333333,259.25925925925924,373.66666666666663,277.77777777777777,375.5C296.2962962962963,377.3333333333333,314.8148148148148,382.66666666666663,333.33333333333337,382.49999999999994C351.85185185185185,382.33333333333326,370.3703703703703,376.66666666666663,388.88888888888886,375C407.4074074074074,373.3333333333333,425.9259259259259,375.66666666666663,444.4444444444444,376C462.96296296296293,376.3333333333333,481.48148148148147,374.66666666666663,490.7407407407407,373.8333333333333L500,373L500,0L490.7407407407407,0C481.48148148148147,0,462.96296296296293,0,444.44444444444446,0C425.9259259259259,0,407.4074074074074,0,388.88888888888886,0C370.3703703703703,0,351.85185185185185,0,333.33333333333337,0C314.8148148148148,0,296.2962962962963,0,277.7777777777777,0C259.25925925925924,0,240.74074074074073,0,222.22222222222223,0C203.7037037037037,0,185.1851851851852,0,166.66666666666669,0C148.14814814814815,0,129.62962962962962,0,111.11111111111111,0C92.5925925925926,0,74.07407407407408,0,55.55555555555556,0C37.03703703703704,0,18.51851851851852,0,9.25925925925926,0L0,0Z"/><path fill="#D1D1D1" fill-opacity="0.022350000000000002" d="M0,428L9.25925925925926,427.99999999999994C18.51851851851852,428,37.03703703703704,428,55.55555555555556,428.83333333333326C74.07407407407408,429.66666666666663,92.5925925925926,431.33333333333326,111.11111111111111,430.49999999999994C129.62962962962962,429.66666666666663,148.14814814814815,426.3333333333333,166.66666666666666,425.99999999999994C185.1851851851852,425.66666666666663,203.7037037037037,428.3333333333333,222.22222222222223,428.3333333333333C240.74074074074073,428.3333333333333,259.25925925925924,425.66666666666663,277.77777777777777,425.16666666666663C296.2962962962963,424.66666666666663,314.8148148148148,426.3333333333333,333.33333333333337,426.5C351.85185185185185,426.66666666666663,370.3703703703703,425.33333333333326,388.88888888888886,423.66666666666663C407.4074074074074,421.99999999999994,425.9259259259259,419.99999999999994,444.4444444444444,419.33333333333326C462.96296296296293,418.66666666666663,481.48148148148147,419.3333333333333,490.7407407407407,419.66666666666663L500,420L500,0L490.7407407407407,0C481.48148148148147,0,462.96296296296293,0,444.44444444444446,0C425.9259259259259,0,407.4074074074074,0,388.88888888888886,0C370.3703703703703,0,351.85185185185185,0,333.33333333333337,0C314.8148148148148,0,296.2962962962963,0,277.7777777777777,0C259.25925925925924,0,240.74074074074073,0,222.22222222222223,0C203.7037037037037,0,185.1851851851852,0,166.66666666666669,0C148.14814814814815,0,129.62962962962962,0,111.11111111111111,0C92.5925925925926,0,74.07407407407408,0,55.55555555555556,0C37.03703703703704,0,18.51851851851852,0,9.25925925925926,0L0,0Z"/><path fill="#D1D1D1" fill-opacity="0.007350000000000006" d="M0,475L9.25925925925926,475.6666666666666C18.51851851851852,476.33333333333326,37.03703703703704,477.66666666666663,55.55555555555556,477.16666666666663C74.07407407407408,476.66666666666663,92.5925925925926,474.33333333333326,111.11111111111111,473.49999999999994C129.62962962962962,472.66666666666663,148.14814814814815,473.3333333333333,166.66666666666666,474.99999999999994C185.1851851851852,476.66666666666663,203.7037037037037,479.3333333333333,222.22222222222223,480.16666666666663C240.74074074074073,481,259.25925925925924,480,277.77777777777777,478.83333333333326C296.2962962962963,477.66666666666663,314.8148148148148,476.33333333333326,333.33333333333337,474.33333333333326C351.85185185185185,472.33333333333326,370.3703703703703,469.66666666666663,388.88888888888886,469.5C407.4074074074074,469.3333333333333,425.9259259259259,471.66666666666663,444.4444444444444,473.66666666666663C462.96296296296293,475.66666666666663,481.48148148148147,477.3333333333333,490.7407407407407,478.16666666666663L500,479L500,0L490.7407407407407,0C481.48148148148147,0,462.96296296296293,0,444.44444444444446,0C425.9259259259259,0,407.4074074074074,0,388.88888888888886,0C370.3703703703703,0,351.85185185185185,0,333.33333333333337,0C314.8148148148148,0,296.2962962962963,0,277.7777777777777,0C259.25925925925924,0,240.74074074074073,0,222.22222222222223,0C203.7037037037037,0,185.1851851851852,0,166.66666666666669,0C148.14814814814815,0,129.62962962962962,0,111.11111111111111,0C92.5925925925926,0,74.07407407407408,0,55.55555555555556,0C37.03703703703704,0,18.51851851851852,0,9.25925925925926,0L0,0Z"/></svg>