<?xml version="1.0" standalone="no"?><!DOCTYPE svg PUBLIC "-//W3C//DTD SVG 1.1//EN" "http://www.w3.org/Graphics/SVG/1.1/DTD/svg11.dtd"><svg width="500" height="500" style="background: rgb(17, 17, 17);" version="1.1" xmlns="http://www.w3.org/2000/svg" xmlns:xlink="http://www.w3.org/1999/xlink"><defs xmlns="http://www.w3.org/1999/xhtml"><style type="text/css"><![CDATA[
html, body { height: 100%; margin: 0px; background: rgb(34, 34, 34); }
body, #prev, #next { height: 100%; display: -webkit-flex; flex-direction: column; justify-content: center; }
#prev, #next { position: absolute; top: 0px; color: rgb(209, 209, 209); font-size: 70px; text-decoration: none; padding: 20px; }
#prev { left: 0px; }
#next { right: 0px; }
svg { margin: auto; }]]></style></defs><text fill="#d1d1d1" font-size="14" dy=".35em" text-anchor="middle" transform="translate(376.1258239746094,452.91009521484375)scale(0.016849133500000002,0.016849133500000002)">★</text><text fill="#d1d1d1" font-size="14" dy=".35em" text-anchor="middle" transform="translate(15.048019409179688,46.606971740722656)scale(0.0071744535,0.0071744535)">✦</text><text fill="#d1d1d1" font-size="14" dy=".35em" text-anchor="middle" transform="translate(32.24580383300781,167.79417419433594)scale(0.0021653735,0.0021653735)">★</text><text fill="#d1d1d1" font-size="14" dy=".35em" text-anchor="middle" transform="translate(95.48507690429688,287.0417175292969)scale(0.00028589350000000007,0.00028589350000000007)">✸</text><text fill="#d1d1d1" font-size="14" dy=".35em" text-anchor="middle" transform="translate(121.52845001220703,133.19512939453125)scale(1.35e-8,1.35e-8)">✸</text><text fill="#d1d1d1" font-size="14" dy=".35em" text-anchor="middle" transform="translate(478.56414794921875,347.4200744628906)scale(0.0002282665000001849,0.0002282665000001849)">✶</text><text fill="#d1d1d1" font-size="14" dy=".35em" text-anchor="middle" transform="translate(34.31739044189453,171.71926879882812)scale(0.0019349465000004784,0.0019349465000004784)">✸</text><text fill="#d1d1d1" font-size="14" dy=".35em" text-anchor="middle" transform="translate(253.7977752685547,85.60731506347656)scale(0.0066560265000004115,0.0066560265000004115)">★</text><text fill="#d1d1d1" font-size="14" dy=".35em" text-anchor="middle" transform="translate(272.5793762207031,293.7581787109375)scale(0.015927506500000188,0.015927506500000188)">✦</text><text fill="#d1d1d1" font-size="14" dy=".35em" text-anchor="middle" transform="translate(353.3974914550781,142.327880859375)scale(0.03128538649999957,0.03128538649999957)">★</text><text fill="#d1d1d1" font-size="14" dy=".35em" text-anchor="middle" transform="translate(328.02545166015625,416.0442810058594)scale(0.05426566650000009,0.05426566650000009)">✹</text><text fill="#d1d1d1" font-size="14" dy=".35em" text-anchor="middle" transform="translate(363.20733642578125,460.1644592285156)scale(0.08640434649999928,0.08640434649999928)">✶</text><text fill="#d1d1d1" font-size="14" dy=".35em" text-anchor="middle" transform="translate(92.19227600097656,142.61158752441406)scale(0.12923742649999959,0.12923742649999959)">✸</text><text fill="#d1d1d1" font-size="14" dy=".35em" text-anchor="middle" transform="translate(413.4327392578125,132.63194274902344)scale(0.18430090649999986,0.18430090649999986)">✹</text><text fill="#d1d1d1" font-size="14" dy=".35em" text-anchor="middle" transform="translate(152.20010375976562,165.5037078857422)scale(0.25313078649999987,0.25313078649999987)">✸</text><text fill="#d1d1d1" font-size="14" dy=".35em" text-anchor="middle" transform="translate(165.94342041015625,255.53958129882812)scale(0.3372630664999998,0.3372630664999998)">★</text><text fill="#d1d1d1" font-size="14" dy=".35em" text-anchor="middle" transform="translate(9.324625015258789,432.628662109375)scale(0.4382337464999999,0.4382337464999999)">★</text><text fill="#d1d1d1" font-size="14" dy=".35em" text-anchor="middle" transform="translate(355.87738037109375,489.92303466796875)scale(0.5534718265,0.5534718265)">✦</text><text fill="#d1d1d1" font-size="14" dy=".35em" text-anchor="middle" transform="translate(436.0721435546875,364.65911865234375)scale(0.6557673065,0.6557673065)">★</text><text fill="#d1d1d1" font-size="14" dy=".35em" text-anchor="middle" transform="translate(454.01080322265625,226.580322265625)scale(0.7411091864999999,0.7411091864999999)">✸</text><text fill="#d1d1d1" font-size="14" dy=".35em" text-anchor="middle" transform="translate(381.9785461425781,360.6733093261719)scale(0.8110334665,0.8110334665)">✶</text><text fill="#d1d1d1" font-size="14" dy=".35em" text-anchor="middle" transform="translate(165.9019775390625,112.9067611694336)scale(0.8670761465,0.8670761465)">✶</text><text fill="#d1d1d1" font-size="14" dy=".35em" text-anchor="middle" transform="translate(63.947505950927734,442.83966064453125)scale(0.9107732265,0.9107732265)">✦</text><text fill="#d1d1d1" font-size="14" dy=".35em" text-anchor="middle" transform="translate(404.2659912109375,143.2098846435547)scale(0.9436607065,0.9436607065)">✸</text><text fill="#d1d1d1" font-size="14" dy=".35em" text-anchor="middle" transform="translate(374.5753173828125,107.86054992675781)scale(0.9672745865,0.9672745865)">✸</text><text fill="#d1d1d1" font-size="14" dy=".35em" text-anchor="middle" transform="translate(470.84375,197.69140625)scale(0.9831508664999999,0.9831508664999999)">✹</text><text fill="#d1d1d1" font-size="14" dy=".35em" text-anchor="middle" transform="translate(433.70599365234375,65.47586822509766)scale(0.9928255465,0.9928255465)">✸</text><text fill="#d1d1d1" font-size="14" dy=".35em" text-anchor="middle" transform="translate(54.08352279663086,169.99119567871094)scale(0.9978346265,0.9978346265)">✸</text><text fill="#d1d1d1" font-size="14" dy=".35em" text-anchor="middle" transform="translate(252.20533752441406,87.44182586669922)scale(0.9997141065,0.9997141065)">★</text><text fill="#d1d1d1" font-size="14" dy=".35em" text-anchor="middle" transform="translate(370.40771484375,473.3992004394531)scale(0.9999999865,0.9999999865)">✸</text><text fill="#d1d1d1" font-size="14" dy=".35em" text-anchor="middle" transform="translate(473.8897399902344,424.9691467285156)scale(0.9997717334999998,0.9997717334999998)">✸</text><text fill="#d1d1d1" font-size="14" dy=".35em" text-anchor="middle" transform="translate(15.837121963500977,398.2450866699219)scale(0.9980650534999995,0.9980650534999995)">✸</text><text fill="#d1d1d1" font-size="14" dy=".35em" text-anchor="middle" transform="translate(28.143054962158203,262.2245178222656)scale(0.9933439734999996,0.9933439734999996)">★</text><text fill="#d1d1d1" font-size="14" dy=".35em" text-anchor="middle" transform="translate(95.75390625,192.79103088378906)scale(0.9840724934999998,0.9840724934999998)">✸</text><text fill="#d1d1d1" font-size="14" dy=".35em" text-anchor="middle" transform="translate(326.66229248046875,114.78988647460938)scale(0.9687146135000004,0.9687146135000004)">✹</text><text fill="#d1d1d1" font-size="14" dy=".35em" text-anchor="middle" transform="translate(43.511497497558594,98.22085571289062)scale(0.9457343334999999,0.9457343334999999)">✹</text><text fill="#d1d1d1" font-size="14" dy=".35em" text-anchor="middle" transform="translate(301.2769775390625,125.53368377685547)scale(0.9135956535000007,0.9135956535000007)">✦</text><text fill="#d1d1d1" font-size="14" dy=".35em" text-anchor="middle" transform="translate(328.4236145019531,300.193359375)scale(0.8707625735000004,0.8707625735000004)">✹</text><text fill="#d1d1d1" font-size="14" dy=".35em" text-anchor="middle" transform="translate(393.2200012207031,374.3749084472656)scale(0.8156990935000001,0.8156990935000001)">✹</text><text fill="#d1d1d1" font-size="14" dy=".35em" text-anchor="middle" transform="translate(52.86365509033203,450.21575927734375)scale(0.7468692135000001,0.7468692135000001)">✦</text><text fill="#d1d1d1" font-size="14" dy=".35em" text-anchor="middle" transform="translate(212.50271606445312,165.91268920898438)scale(0.6627369335000002,0.6627369335000002)">✶</text><text fill="#d1d1d1" font-size="14" dy=".35em" text-anchor="middle" transform="translate(211.0032196044922,122.49453735351562)scale(0.5617662535000001,0.5617662535000001)">✹</text><text fill="#d1d1d1" font-size="14" dy=".35em" text-anchor="middle" transform="translate(317.3129577636719,176.1630096435547)scale(0.4465281734999999,0.4465281734999999)">✶</text><text fill="#d1d1d1" font-size="14" dy=".35em" text-anchor="middle" transform="translate(109.85086059570312,302.03765869140625)scale(0.34423269349999996,0.34423269349999996)">✸</text><text fill="#d1d1d1" font-size="14" dy=".35em" text-anchor="middle" transform="translate(69.96321105957031,491.583740234375)scale(0.25889081350000004,0.25889081350000004)">✦</text><text fill="#d1d1d1" font-size="14" dy=".35em" text-anchor="middle" transform="translate(108.73490142822266,35.836421966552734)scale(0.1889665335,0.1889665335)">★</text><text fill="#d1d1d1" font-size="14" dy=".35em" text-anchor="middle" transform="translate(348.1371154785156,15.597084999084473)scale(0.1329238535,0.1329238535)">✦</text><text fill="#d1d1d1" font-size="14" dy=".35em" text-anchor="middle" transform="translate(55.052001953125,361.40045166015625)scale(0.08922677349999998,0.08922677349999998)">✸</text><text fill="#d1d1d1" font-size="14" dy=".35em" text-anchor="middle" transform="translate(318.88140869140625,461.6384582519531)scale(0.0563392935,0.0563392935)">✸</text><text fill="#d1d1d1" font-size="14" dy=".35em" text-anchor="middle" transform="translate(486.32977294921875,302.5419006347656)scale(0.03272541350000001,0.03272541350000001)">✹</text></svg>