<?xml version="1.0" standalone="no"?><!DOCTYPE svg PUBLIC "-//W3C//DTD SVG 1.1//EN" "http://www.w3.org/Graphics/SVG/1.1/DTD/svg11.dtd"><svg width="500" height="500" style="background: rgb(209, 209, 209);" version="1.1" xmlns="http://www.w3.org/2000/svg" xmlns:xlink="http://www.w3.org/1999/xlink"><defs xmlns="http://www.w3.org/1999/xhtml"><style type="text/css"><![CDATA[
html, body { height: 100%; margin: 0px; background: rgb(34, 34, 34); }
body, #prev, #next { height: 100%; display: -webkit-flex; flex-direction: column; justify-content: center; }
#prev, #next { position: absolute; top: 0px; color: rgb(209, 209, 209); font-size: 70px; text-decoration: none; padding: 20px; }
#prev { left: 0px; }
#next { right: 0px; }
svg { margin: auto; }]]></style></defs><circle fill="#000" fill-opacity="0.1" cx="42.65326850799509" cy="128.07817764517293" r="35.416307677994"/><circle fill="#000" fill-opacity="0.1" cx="401.7866052230667" cy="300.32554614117913" r="41.36158620205002"/><circle fill="#000" fill-opacity="0.1" cx="390.48304744924127" cy="427.3036097766165" r="49.54691382344526"/><circle fill="#000" fill-opacity="0.1" cx="307.9408193377956" cy="426.1282668962968" r="21.00007486097588"/><circle fill="#000" fill-opacity="0.1" cx="431.44797676082436" cy="306.8213357091634" r="46.840455546454656"/><circle fill="#000" fill-opacity="0.1" cx="129.30293355663153" cy="240.96314664549638" r="39.77650186033888"/><circle fill="#000" fill-opacity="0.1" cx="460.3245228878173" cy="194.18051672888657" r="13.79728577824624"/><circle fill="#000" fill-opacity="0.1" cx="423.57710682823773" cy="431.6211865521591" r="49.51707681380454"/><circle fill="#000" fill-opacity="0.1" cx="108.11544865544485" cy="415.7261163470008" r="38.92647814269346"/><circle fill="#000" fill-opacity="0.1" cx="350.71895993871385" cy="417.48806451613393" r="33.63736037565614"/><circle fill="#000" fill-opacity="0.1" cx="185.52935308031738" cy="88.06548186391592" r="28.195843088719993"/><circle fill="#000" fill-opacity="0.1" cx="173.58964748679333" cy="230.9539636239922" r="7.017169630073999"/><circle fill="#000" fill-opacity="0.1" cx="333.1314137261931" cy="142.10049741127625" r="9.169287834117906"/><circle fill="#000" fill-opacity="0.1" cx="363.9987667584792" cy="337.91791840828955" r="5.099954659957438"/><circle fill="#000" fill-opacity="0.1" cx="306.13123429109885" cy="249.8869499764863" r="46.52364769268418"/><circle fill="#000" fill-opacity="0.1" cx="80.23888052802961" cy="229.7510203824219" r="47.27312663193659"/><circle fill="#000" fill-opacity="0.1" cx="434.67192073539184" cy="226.54875923576816" r="11.616615342885137"/><circle fill="#000" fill-opacity="0.1" cx="287.3872846871775" cy="309.2197006593653" r="36.432306607395844"/><circle fill="#000" fill-opacity="0.1" cx="485.86685595512745" cy="183.68257960600218" r="10.03986255419861"/><circle fill="#000" fill-opacity="0.1" cx="137.94038879597758" cy="423.11055320447844" r="35.81965392609477"/><circle fill="#000" fill-opacity="0.1" cx="223.15848116127142" cy="415.4230706997896" r="7.578478780981594"/><circle fill="#000" fill-opacity="0.1" cx="322.9034118049732" cy="186.9658461415778" r="5.588152907712943"/><circle fill="#000" fill-opacity="0.1" cx="334.76150198616057" cy="147.5245746798587" r="6.996949248990293"/><circle fill="#000" fill-opacity="0.1" cx="313.97657689873495" cy="458.03879710026285" r="37.17185465735975"/><circle fill="#000" fill-opacity="0.1" cx="357.29555567555366" cy="78.09293805945735" r="11.236879840851795"/><circle fill="#000" fill-opacity="0.1" cx="285.2072458810424" cy="408.89677322198554" r="21.811890899201458"/><circle fill="#000" fill-opacity="0.1" cx="395.22803764977544" cy="166.34960575226626" r="33.385949663770106"/><circle fill="#000" fill-opacity="0.1" cx="397.85157420643964" cy="238.5963110738177" r="25.538384715093578"/><circle fill="#000" fill-opacity="0.1" cx="249.4692247478096" cy="133.71623756686273" r="28.984187830847127"/><circle fill="#000" fill-opacity="0.1" cx="353.63206517956877" cy="427.7010890713519" r="0.4775140678050539"/><circle fill="#000" fill-opacity="0.1" cx="83.9618350679488" cy="301.70259469802284" r="25.67846767001374"/><circle fill="#000" fill-opacity="0.1" cx="377.93457138724625" cy="112.26785513572395" r="18.86846639858559"/><circle fill="#000" fill-opacity="0.1" cx="458.52126289343204" cy="217.09162665689718" r="22.630769497893713"/><circle fill="#000" fill-opacity="0.1" cx="303.3518461857687" cy="472.1449003415975" r="38.443812817126116"/><circle fill="#000" fill-opacity="0.1" cx="301.86480436260877" cy="167.53759704036" r="46.044344683753145"/><circle fill="#000" fill-opacity="0.1" cx="238.4862969218285" cy="101.92213769304801" r="23.60219774055077"/><circle fill="#000" fill-opacity="0.1" cx="432.170122358948" cy="79.5440773172304" r="33.00968737797812"/><circle fill="#000" fill-opacity="0.1" cx="405.6458572568372" cy="357.38529370725155" r="47.62706162305549"/><circle fill="#000" fill-opacity="0.1" cx="275.3584480041143" cy="489.66965660476427" r="39.84392281325235"/><circle fill="#000" fill-opacity="0.1" cx="326.32256304135916" cy="166.61479736730254" r="6.7506802325940924"/><circle fill="#000" fill-opacity="0.1" cx="299.07220551487256" cy="296.1025861421967" r="37.59639090699906"/><circle fill="#000" fill-opacity="0.1" cx="68.75093238899886" cy="221.9068209697257" r="42.753294697888116"/><circle fill="#000" fill-opacity="0.1" cx="65.89830751599425" cy="446.26146978680373" r="22.856577034732258"/><circle fill="#000" fill-opacity="0.1" cx="66.02862042253066" cy="315.75209132958815" r="24.01041796981555"/><circle fill="#000" fill-opacity="0.1" cx="403.1355495222396" cy="228.3598662403029" r="27.137429949924034"/><circle fill="#000" fill-opacity="0.1" cx="59.154143105340616" cy="95.16459786919998" r="34.47028477094774"/><circle fill="#000" fill-opacity="0.1" cx="112.88044253177941" cy="318.770074788481" r="33.99215289205313"/><circle fill="#000" fill-opacity="0.1" cx="91.51486667618155" cy="30.894152701832354" r="19.40901047959924"/><circle fill="#000" fill-opacity="0.1" cx="54.41999184050782" cy="312.7540670854971" r="22.512471944062106"/><circle fill="#000" fill-opacity="0.1" cx="14.902574580437417" cy="160.39407203490074" r="5.452244446991646"/><circle fill="#000" fill-opacity="0.1" cx="282.26278714546464" cy="247.43422690444459" r="47.77668688368927"/><circle fill="#000" fill-opacity="0.1" cx="478.1527594199064" cy="208.1128458820517" r="22.57531369498706"/><circle fill="#000" fill-opacity="0.1" cx="369.4366399292968" cy="424.4599647327469" r="48.786712018317054"/><circle fill="#000" fill-opacity="0.1" cx="351.20654350879767" cy="448.70312381311913" r="31.629622167462394"/><circle fill="#000" fill-opacity="0.1" cx="52.18045465555042" cy="302.87937303539366" r="3.4805826582945882"/><circle fill="#000" fill-opacity="0.1" cx="338.34120109690355" cy="128.193831744202" r="7.623830894744198"/><circle fill="#000" fill-opacity="0.1" cx="51.63860929374882" cy="254.09315056894457" r="38.14175852135851"/><circle fill="#000" fill-opacity="0.1" cx="243.08933697827766" cy="115.32059218588245" r="26.16092778309498"/><circle fill="#000" fill-opacity="0.1" cx="103.0712365410809" cy="146.86651979136133" r="39.56199382317685"/><circle fill="#000" fill-opacity="0.1" cx="428.29397960480395" cy="312.47163780643973" r="44.22778791153885"/><circle fill="#000" fill-opacity="0.1" cx="96.41952539010929" cy="289.34631361994394" r="26.69862960464402"/><circle fill="#000" fill-opacity="0.1" cx="326.6690423357119" cy="207.32618958148615" r="5.052089063216277"/><circle fill="#000" fill-opacity="0.1" cx="95.21990198642015" cy="350.26869268901646" r="29.997391590755434"/><circle fill="#000" fill-opacity="0.1" cx="352.15028207223514" cy="97.58593689677657" r="11.51704079208707"/><circle fill="#000" fill-opacity="0.1" cx="456.0293631648283" cy="369.68847901462476" r="19.041856824689923"/><circle fill="#000" fill-opacity="0.1" cx="418.24380656979287" cy="254.65891861342533" r="17.82521232990496"/><circle fill="#000" fill-opacity="0.1" cx="492.13502422504735" cy="182.10205316657851" r="14.82302028806929"/><circle fill="#000" fill-opacity="0.1" cx="36.308151888421506" cy="352.8538232281844" r="24.761230287096836"/><circle fill="#000" fill-opacity="0.1" cx="434.843613445472" cy="243.1395564219884" r="19.1934670760201"/><circle fill="#000" fill-opacity="0.1" cx="252.5406399467271" cy="247.1676724430995" r="49.10096141155472"/><circle fill="#000" fill-opacity="0.1" cx="205.13222103112372" cy="234.60869505971934" r="4.4348465492215166"/><circle fill="#000" fill-opacity="0.1" cx="334.0911788050087" cy="171.97707240087485" r="4.874803484179215"/><circle fill="#000" fill-opacity="0.1" cx="478.1087748951121" cy="199.01970901972993" r="24.8828166423384"/><circle fill="#000" fill-opacity="0.1" cx="499.89870507624255" cy="1.5875727092369636" r="8.918575909383293"/><circle fill="#000" fill-opacity="0.1" cx="186.7832088310633" cy="231.16243420623135" r="5.644766790354692"/><circle fill="#000" fill-opacity="0.1" cx="284.90922395232013" cy="2.4230585977952375" r="42.515866045688156"/><circle fill="#000" fill-opacity="0.1" cx="477.82684345213005" cy="394.492437602178" r="19.207126566332462"/><circle fill="#000" fill-opacity="0.1" cx="157.18980894502678" cy="238.08096579185985" r="40.3401944378169"/><circle fill="#000" fill-opacity="0.1" cx="484.15040853247046" cy="10.464642034843564" r="40.61652093250304"/><circle fill="#000" fill-opacity="0.1" cx="260.9015110324791" cy="22.21675546421247" r="43.41063003989838"/><circle fill="#000" fill-opacity="0.1" cx="410.1841159621936" cy="252.22006778390133" r="24.389777429905074"/><circle fill="#000" fill-opacity="0.1" cx="23.032740685632774" cy="372.2927154774131" r="24.19669362416583"/><circle fill="#000" fill-opacity="0.1" cx="229.7256990295888" cy="241.85159716998558" r="0.7185296918069136"/><circle fill="#000" fill-opacity="0.1" cx="340.5577712588828" cy="113.36791455533532" r="8.977454256334134"/><circle fill="#000" fill-opacity="0.1" cx="419.3608665937217" cy="209.29437326214014" r="11.892487823650905"/><circle fill="#000" fill-opacity="0.1" cx="8.826066217705334" cy="164.38721727795442" r="7.131575026510523"/><circle fill="#000" fill-opacity="0.1" cx="362.83634688092724" cy="60.36270580620338" r="11.890620776841667"/><circle fill="#000" fill-opacity="0.1" cx="246.69523039367473" cy="35.1865534803749" r="42.81337179796331"/><circle fill="#000" fill-opacity="0.1" cx="347.1946618752554" cy="292.0888902870938" r="14.880489570740611"/><circle fill="#000" fill-opacity="0.1" cx="459.0299157663744" cy="18.550580568308376" r="9.190288389384948"/><circle fill="#000" fill-opacity="0.1" cx="453.44351557324364" cy="193.00817720038495" r="11.5361005540828"/><circle fill="#000" fill-opacity="0.1" cx="325.1944209724494" cy="417.3600899957198" r="0.6522779934621352"/><circle fill="#000" fill-opacity="0.1" cx="46.337625363701356" cy="332.6741076176732" r="23.134661080821466"/><circle fill="#000" fill-opacity="0.1" cx="93.30418009972544" cy="78.36810109320966" r="8.033511515256762"/><circle fill="#000" fill-opacity="0.1" cx="209.15457398311992" cy="117.74966723772278" r="46.66635102650308"/><circle fill="#000" fill-opacity="0.1" cx="231.6308328735635" cy="88.19484837874333" r="45.467030640982856"/><circle fill="#000" fill-opacity="0.1" cx="454.5783643050441" cy="327.31708190205273" r="46.60432383210349"/><circle fill="#000" fill-opacity="0.1" cx="449.8645841246471" cy="31.856292186304927" r="26.66840790659189"/><circle fill="#000" fill-opacity="0.1" cx="234.37366309139702" cy="437.8890639792092" r="10.975381641454323"/><circle fill="#000" fill-opacity="0.1" cx="69.79301979893398" cy="106.23069240375233" r="5.369506343353381"/></svg>