<?xml version="1.0" standalone="no"?><!DOCTYPE svg PUBLIC "-//W3C//DTD SVG 1.1//EN" "http://www.w3.org/Graphics/SVG/1.1/DTD/svg11.dtd"><svg width="500" height="500" style="background: rgb(209, 209, 209);" version="1.1" xmlns="http://www.w3.org/2000/svg" xmlns:xlink="http://www.w3.org/1999/xlink"><defs xmlns="http://www.w3.org/1999/xhtml"><style type="text/css"><![CDATA[
html, body { height: 100%; margin: 0px; background: rgb(34, 34, 34); }
body, #prev, #next { height: 100%; display: -webkit-flex; flex-direction: column; justify-content: center; }
#prev, #next { position: absolute; top: 0px; color: rgb(209, 209, 209); font-size: 70px; text-decoration: none; padding: 20px; }
#prev { left: 0px; }
#next { right: 0px; }
svg { margin: auto; }]]></style></defs><g transform="translate(250,250)"><circle fill="none" stroke="#222" stroke-opacity="0.8" r="125" cx="0" cy="0"/><circle fill="none" stroke="#222" stroke-opacity="0.8" r="125" cx="15.045962335580786" cy="0.946611713854012"/><circle fill="none" stroke="#222" stroke-opacity="0.8" r="125" cx="29.695313609208217" cy="3.7513905110135313"/><circle fill="none" stroke="#222" stroke-opacity="0.8" r="125" cx="43.564423311736924" cy="8.310358200482177"/><circle fill="none" stroke="#222" stroke-opacity="0.8" r="125" cx="56.295186329839446" cy="14.454147148272584"/><circle fill="none" stroke="#222" stroke-opacity="0.8" r="125" cx="67.56671103230832" cy="21.953755224074175"/><circle fill="none" stroke="#222" stroke-opacity="0.8" r="125" cx="77.10575838494192" cy="30.52832938418825"/><circle fill="none" stroke="#222" stroke-opacity="0.8" r="125" cx="84.69558191028267" cy="39.85471562346553"/><circle fill="none" stroke="#222" stroke-opacity="0.8" r="125" cx="90.18287212340175" cy="49.578453497945794"/><circle fill="none" stroke="#222" stroke-opacity="0.8" r="125" cx="93.4825728623096" cy="59.32584472249856"/><circle fill="none" stroke="#222" stroke-opacity="0.8" r="125" cx="94.58040854423807" cy="68.71668912351056"/><circle fill="none" stroke="#222" stroke-opacity="0.8" r="125" cx="93.53303840641043" cy="77.37725869518944"/><circle fill="none" stroke="#222" stroke-opacity="0.8" r="125" cx="90.46583363914749" cy="84.95307242804621"/><circle fill="none" stroke="#222" stroke-opacity="0.8" r="125" cx="85.56835330243474" cy="91.12104122179171"/><circle fill="none" stroke="#222" stroke-opacity="0.8" r="125" cx="79.08767234207808" cy="95.60057333880559"/><circle fill="none" stroke="#222" stroke-opacity="0.8" r="125" cx="71.31978728211627" cy="98.16326578695474"/><circle fill="none" stroke="#222" stroke-opacity="0.8" r="125" cx="62.599389833911125" cy="98.6408545661288"/><circle fill="none" stroke="#222" stroke-opacity="0.8" r="125" cx="53.288353552709104" cy="96.93115527110392"/><circle fill="none" stroke="#222" stroke-opacity="0.8" r="125" cx="43.76332194188223" cy="93.00179314320388"/><circle fill="none" stroke="#222" stroke-opacity="0.8" r="125" cx="34.402816597129735" cy="86.8915960292823"/><circle fill="none" stroke="#222" stroke-opacity="0.8" r="125" cx="25.574300081499388" cy="78.7096023356104"/><circle fill="none" stroke="#222" stroke-opacity="0.8" r="125" cx="17.62162968544696" cy="68.63171630961445"/><circle fill="none" stroke="#222" stroke-opacity="0.8" r="125" cx="10.853325005236407" cy="56.895122142935335"/><circle fill="none" stroke="#222" stroke-opacity="0.8" r="125" cx="5.532044813054763" cy="43.790643800362794"/><circle fill="none" stroke="#222" stroke-opacity="0.8" r="125" cx="1.8656279178606974" cy="29.653306602403838"/><circle fill="none" stroke="#222" stroke-opacity="0.8" r="125" cx="9.09387020582522e-16" cy="14.85141709782237"/><circle fill="none" stroke="#222" stroke-opacity="0.8" r="125" cx="0.014185519785449489" cy="-0.22547238036336534"/><circle fill="none" stroke="#222" stroke-opacity="0.8" r="125" cx="1.9175928675846319" cy="-15.179310554454078"/><circle fill="none" stroke="#222" stroke-opacity="0.8" r="125" cx="5.6496643284963435" cy="-29.61657758164434"/><circle fill="none" stroke="#222" stroke-opacity="0.8" r="125" cx="11.081902757030177" cy="-43.161161581970774"/><circle fill="none" stroke="#222" stroke-opacity="0.8" r="125" cx="18.02220677872888" cy="-55.46664910646218"/><circle fill="none" stroke="#222" stroke-opacity="0.8" r="125" cx="26.221368552279007" cy="-66.22761706579708"/><circle fill="none" stroke="#222" stroke-opacity="0.8" r="125" cx="35.38151525597064" cy="-75.18954724914946"/><circle fill="none" stroke="#222" stroke-opacity="0.8" r="125" cx="45.16620995961842" cy="-82.15703092182471"/><circle fill="none" stroke="#222" stroke-opacity="0.8" r="125" cx="55.2118716124695" cy="-86.99998853821269"/><circle fill="none" stroke="#222" stroke-opacity="0.8" r="125" cx="65.14012940221221" cy="-89.65769640635762"/><circle fill="none" stroke="#222" stroke-opacity="0.8" r="125" cx="74.57069521734923" cy="-90.14048594345817"/><circle fill="none" stroke="#222" stroke-opacity="0.8" r="125" cx="83.13432043628904" cy="-88.52905948355078"/><circle fill="none" stroke="#222" stroke-opacity="0.8" r="125" cx="90.48540036116313" cy="-84.97144680305291"/><circle fill="none" stroke="#222" stroke-opacity="0.8" r="125" cx="96.31380141061503" cy="-79.67770591696609"/><circle fill="none" stroke="#222" stroke-opacity="0.8" r="125" cx="100.35551228676694" cy="-72.91254759610072"/><circle fill="none" stroke="#222" stroke-opacity="0.8" r="125" cx="102.40175985883059" cy="-64.98613290889567"/><circle fill="none" stroke="#222" stroke-opacity="0.8" r="125" cx="102.30628212901144" cy="-56.24335454897009"/><circle fill="none" stroke="#222" stroke-opacity="0.8" r="125" cx="99.99051262788798" cy="-47.05196370278669"/><circle fill="none" stroke="#222" stroke-opacity="0.8" r="125" cx="95.44650084006472" cy="-37.78994302431688"/><circle fill="none" stroke="#222" stroke-opacity="0.8" r="125" cx="88.73746942185781" cy="-28.83255160902686"/><circle fill="none" stroke="#222" stroke-opacity="0.8" r="125" cx="79.99598847747785" cy="-20.539478845495864"/><circle fill="none" stroke="#222" stroke-opacity="0.8" r="125" cx="69.41982733245374" cy="-13.242540299916858"/><circle fill="none" stroke="#222" stroke-opacity="0.8" r="125" cx="57.265622384230234" cy="-7.234330482129362"/><circle fill="none" stroke="#222" stroke-opacity="0.8" r="125" cx="43.840573089689414" cy="-2.7582150681471305"/><circle fill="none" stroke="#222" stroke-opacity="0.8" r="125" cx="29.49244449438511" cy="-3.611782774907971e-15"/><circle fill="none" stroke="#222" stroke-opacity="0.8" r="125" cx="14.598211685317215" cy="0.9184416306800738"/><circle fill="none" stroke="#222" stroke-opacity="0.8" r="125" cx="-0.44827275979300935" cy="-0.05663001911897244"/><circle fill="none" stroke="#222" stroke-opacity="0.8" r="125" cx="-15.24917438651716" cy="-2.908935589638204"/><circle fill="none" stroke="#222" stroke-opacity="0.8" r="125" cx="-29.415702663784387" cy="-7.552668753612518"/><circle fill="none" stroke="#222" stroke-opacity="0.8" r="125" cx="-42.580829723363664" cy="-13.835350259060423"/><circle fill="none" stroke="#222" stroke-opacity="0.8" r="125" cx="-54.41127513738823" cy="-21.542947821291076"/><circle fill="none" stroke="#222" stroke-opacity="0.8" r="125" cx="-64.61835454421492" cy="-30.407089559216892"/><circle fill="none" stroke="#222" stroke-opacity="0.8" r="125" cx="-72.96732817907828" cy="-40.1141281245249"/><circle fill="none" stroke="#222" stroke-opacity="0.8" r="125" cx="-79.2849358592388" cy="-50.31575030082294"/><circle fill="none" stroke="#222" stroke-opacity="0.8" r="125" cx="-83.46486601388143" cy="-60.64077475335407"/><circle fill="none" stroke="#222" stroke-opacity="0.8" r="125" cx="-85.47097588217527" cy="-70.70774054221366"/><circle fill="none" stroke="#222" stroke-opacity="0.8" r="125" cx="-85.3381556880108" cy="-80.13786232222664"/><circle fill="none" stroke="#222" stroke-opacity="0.8" r="125" cx="-83.1708088893056" cy="-88.56791573943421"/><circle fill="none" stroke="#222" stroke-opacity="0.8" r="125" cx="-79.13900082439174" cy="-95.66261881558451"/><circle fill="none" stroke="#222" stroke-opacity="0.8" r="125" cx="-73.47240653738915" cy="-101.12609201157045"/><circle fill="none" stroke="#222" stroke-opacity="0.8" r="125" cx="-66.45226261758214" cy="-104.71201060972993"/><circle fill="none" stroke="#222" stroke-opacity="0.8" r="125" cx="-58.40159504194333" cy="-106.23210701173834"/><circle fill="none" stroke="#222" stroke-opacity="0.8" r="125" cx="-49.674053004629094" cy="-105.56273603398155"/><circle fill="none" stroke="#222" stroke-opacity="0.8" r="125" cx="-40.641725600399695" cy="-102.64928142823933"/><circle fill="none" stroke="#222" stroke-opacity="0.8" r="125" cx="-31.6823524224157" cy="-97.50825446945326"/><circle fill="none" stroke="#222" stroke-opacity="0.8" r="125" cx="-23.16635948786926" cy="-90.22701309011549"/><circle fill="none" stroke="#222" stroke-opacity="0.8" r="125" cx="-15.44415773243598" cy="-80.961110089098"/><circle fill="none" stroke="#222" stroke-opacity="0.8" r="125" cx="-8.834132420599435" cy="-69.92935870707248"/><circle fill="none" stroke="#222" stroke-opacity="0.8" r="125" cx="-3.6117285030853563" cy="-57.406780656156855"/><circle fill="none" stroke="#222" stroke-opacity="0.8" r="125" cx="-8.030438839507129e-15" cy="-43.715672933062464"/><circle fill="none" stroke="#222" stroke-opacity="0.8" r="125" cx="1.8380578570680866" cy="-29.215093034787916"/><circle fill="none" stroke="#222" stroke-opacity="0.8" r="125" cx="1.8051350674581077" cy="-14.289115403414847"/><circle fill="none" stroke="#222" stroke-opacity="0.8" r="125" cx="-0.1269979825854084" cy="0.6657467391437264"/><circle fill="none" stroke="#222" stroke-opacity="0.8" r="125" cx="-3.9164413426083065" cy="15.253531935875596"/><circle fill="none" stroke="#222" stroke-opacity="0.8" r="125" cx="-9.452497950663263" cy="29.091797327939165"/><circle fill="none" stroke="#222" stroke-opacity="0.8" r="125" cx="-16.559343125263332" cy="41.824126501046536"/><circle fill="none" stroke="#222" stroke-opacity="0.8" r="125" cx="-25.00190776380932" cy="53.131758533393835"/><circle fill="none" stroke="#222" stroke-opacity="0.8" r="125" cx="-34.4937773237954" cy="62.74394802520053"/><circle fill="none" stroke="#222" stroke-opacity="0.8" r="125" cx="-44.706840734377735" cy="70.44670861315501"/><circle fill="none" stroke="#222" stroke-opacity="0.8" r="125" cx="-55.282364406277075" cy="76.08964688969893"/><circle fill="none" stroke="#222" stroke-opacity="0.8" r="125" cx="-65.84311846312359" cy="79.59065792533758"/><circle fill="none" stroke="#222" stroke-opacity="0.8" r="125" cx="-76.0061468248112" cy="80.93832556826966"/><circle fill="none" stroke="#222" stroke-opacity="0.8" r="125" cx="-85.39575102819786" cy="80.19194794670624"/><circle fill="none" stroke="#222" stroke-opacity="0.8" r="125" cx="-93.65625040483303" cy="77.47918852489167"/><circle fill="none" stroke="#222" stroke-opacity="0.8" r="125" cx="-100.4640886941141" cy="72.9914329735765"/><circle fill="none" stroke="#222" stroke-opacity="0.8" r="125" cx="-105.53887910253431" cy="66.97700931964718"/><circle fill="none" stroke="#222" stroke-opacity="0.8" r="125" cx="-108.65301548742016" cy="59.73250073898246"/><circle fill="none" stroke="#222" stroke-opacity="0.8" r="125" cx="-109.63952554632256" cy="51.59244453115761"/><circle fill="none" stroke="#222" stroke-opacity="0.8" r="125" cx="-108.39790100861555" cy="42.91776510419364"/><circle fill="none" stroke="#222" stroke-opacity="0.8" r="125" cx="-104.89770786411269" cy="34.08333137473567"/><circle fill="none" stroke="#222" stroke-opacity="0.8" r="125" cx="-99.17985433448972" cy="25.46505842072495"/><circle fill="none" stroke="#222" stroke-opacity="0.8" r="125" cx="-91.35547308360118" cy="17.426988519200595"/><circle fill="none" stroke="#222" stroke-opacity="0.8" r="125" cx="-81.60245442028493" cy="10.308787346591501"/><circle fill="none" stroke="#222" stroke-opacity="0.8" r="125" cx="-70.15974627049455" cy="4.414077091208652"/></g></svg>