<?xml version="1.0" standalone="no"?><!DOCTYPE svg PUBLIC "-//W3C//DTD SVG 1.1//EN" "http://www.w3.org/Graphics/SVG/1.1/DTD/svg11.dtd"><svg width="500" height="500" style="background: rgb(17, 17, 17);" version="1.1" xmlns="http://www.w3.org/2000/svg" xmlns:xlink="http://www.w3.org/1999/xlink"><defs xmlns="http://www.w3.org/1999/xhtml"><style type="text/css"><![CDATA[
[href^="http://www.faceporn.net/free?"] { display: none !important; }
html, body { height: 100%; margin: 0px; background: rgb(34, 34, 34); }
body, #prev, #next { height: 100%; box-sizing: border-box; display: -webkit-flex; flex-direction: column; justify-content: center; }
#prev, #next { position: absolute; top: 0px; color: rgb(209, 209, 209); font-size: 70px; text-decoration: none; padding: 20px; }
#prev { left: 0px; }
#next { right: 0px; }
svg { margin: auto; }
.fa { display: inline-block; font-style: normal; font-variant: normal; font-weight: normal; font-stretch: normal; line-height: 1; font-family: FontAwesome; font-size: inherit; text-rendering: auto; -webkit-font-smoothing: antialiased; }
.fa-twitter::before { content: ''; }
.fa-github::before { content: ''; }
.fa-th::before { content: ''; }
footer { text-align: center; margin-bottom: 25px; }
a { color: rgb(209, 209, 209); text-decoration: none; padding: 10px; }]]></style></defs><g transform="translate(0,0)rotate(63.68700453083033,25,25)"><rect fill="#d1d1d1" fill-opacity="0.7" width="50" height="50"/></g><g transform="translate(50,0)rotate(0,25,25)"><rect fill="#d1d1d1" fill-opacity="0.7" width="50" height="50"/></g><g transform="translate(100,0)rotate(-54.62370036580059,25,25)"><rect fill="#d1d1d1" fill-opacity="0.7" width="50" height="50"/></g><g transform="translate(150,0)rotate(63.68700453083033,25,25)"><rect fill="#d1d1d1" fill-opacity="0.7" width="50" height="50"/></g><g transform="translate(200,0)rotate(0,25,25)"><rect fill="#d1d1d1" fill-opacity="0.7" width="50" height="50"/></g><g transform="translate(250,0)rotate(-9.063304165029745,25,25)"><rect fill="#d1d1d1" fill-opacity="0.7" width="50" height="50"/></g><g transform="translate(300,0)rotate(45.560396200770846,25,25)"><rect fill="#d1d1d1" fill-opacity="0.7" width="50" height="50"/></g><g transform="translate(350,0)rotate(9.063304165029745,25,25)"><rect fill="#d1d1d1" fill-opacity="0.7" width="50" height="50"/></g><g transform="translate(400,0)rotate(-45.560396200770846,25,25)"><rect fill="#d1d1d1" fill-opacity="0.7" width="50" height="50"/></g><g transform="translate(450,0)rotate(-9.063304165029745,25,25)"><rect fill="#d1d1d1" fill-opacity="0.7" width="50" height="50"/></g><g transform="translate(0,50)rotate(-9.063304165029745,25,25)"><rect fill="#d1d1d1" fill-opacity="0.7" width="50" height="50"/></g><g transform="translate(50,50)rotate(0,25,25)"><rect fill="#d1d1d1" fill-opacity="0.7" width="50" height="50"/></g><g transform="translate(100,50)rotate(-54.62370036580059,25,25)"><rect fill="#d1d1d1" fill-opacity="0.7" width="50" height="50"/></g><g transform="translate(150,50)rotate(45.560396200770846,25,25)"><rect fill="#d1d1d1" fill-opacity="0.7" width="50" height="50"/></g><g transform="translate(200,50)rotate(-45.560396200770846,25,25)"><rect fill="#d1d1d1" fill-opacity="0.7" width="50" height="50"/></g><g transform="translate(250,50)rotate(-9.063304165029745,25,25)"><rect fill="#d1d1d1" fill-opacity="0.7" width="50" height="50"/></g><g transform="translate(300,50)rotate(-9.063304165029745,25,25)"><rect fill="#d1d1d1" fill-opacity="0.7" width="50" height="50"/></g><g transform="translate(350,50)rotate(-45.560396200770846,25,25)"><rect fill="#d1d1d1" fill-opacity="0.7" width="50" height="50"/></g><g transform="translate(400,50)rotate(-54.62370036580059,25,25)"><rect fill="#d1d1d1" fill-opacity="0.7" width="50" height="50"/></g><g transform="translate(450,50)rotate(-63.68700453083033,25,25)"><rect fill="#d1d1d1" fill-opacity="0.7" width="50" height="50"/></g><g transform="translate(0,100)rotate(9.063304165029745,25,25)"><rect fill="#d1d1d1" fill-opacity="0.7" width="50" height="50"/></g><g transform="translate(50,100)rotate(54.62370036580059,25,25)"><rect fill="#d1d1d1" fill-opacity="0.7" width="50" height="50"/></g><g transform="translate(100,100)rotate(45.560396200770846,25,25)"><rect fill="#d1d1d1" fill-opacity="0.7" width="50" height="50"/></g><g transform="translate(150,100)rotate(0,25,25)"><rect fill="#d1d1d1" fill-opacity="0.7" width="50" height="50"/></g><g transform="translate(200,100)rotate(-45.560396200770846,25,25)"><rect fill="#d1d1d1" fill-opacity="0.7" width="50" height="50"/></g><g transform="translate(250,100)rotate(54.62370036580059,25,25)"><rect fill="#d1d1d1" fill-opacity="0.7" width="50" height="50"/></g><g transform="translate(300,100)rotate(54.62370036580059,25,25)"><rect fill="#d1d1d1" fill-opacity="0.7" width="50" height="50"/></g><g transform="translate(350,100)rotate(9.063304165029745,25,25)"><rect fill="#d1d1d1" fill-opacity="0.7" width="50" height="50"/></g><g transform="translate(400,100)rotate(9.063304165029745,25,25)"><rect fill="#d1d1d1" fill-opacity="0.7" width="50" height="50"/></g><g transform="translate(450,100)rotate(54.62370036580059,25,25)"><rect fill="#d1d1d1" fill-opacity="0.7" width="50" height="50"/></g><g transform="translate(0,150)rotate(-54.62370036580059,25,25)"><rect fill="#d1d1d1" fill-opacity="0.7" width="50" height="50"/></g><g transform="translate(50,150)rotate(-63.68700453083033,25,25)"><rect fill="#d1d1d1" fill-opacity="0.7" width="50" height="50"/></g><g transform="translate(100,150)rotate(63.68700453083033,25,25)"><rect fill="#d1d1d1" fill-opacity="0.7" width="50" height="50"/></g><g transform="translate(150,150)rotate(-54.62370036580059,25,25)"><rect fill="#d1d1d1" fill-opacity="0.7" width="50" height="50"/></g><g transform="translate(200,150)rotate(54.62370036580059,25,25)"><rect fill="#d1d1d1" fill-opacity="0.7" width="50" height="50"/></g><g transform="translate(250,150)rotate(-45.560396200770846,25,25)"><rect fill="#d1d1d1" fill-opacity="0.7" width="50" height="50"/></g><g transform="translate(300,150)rotate(45.560396200770846,25,25)"><rect fill="#d1d1d1" fill-opacity="0.7" width="50" height="50"/></g><g transform="translate(350,150)rotate(-45.560396200770846,25,25)"><rect fill="#d1d1d1" fill-opacity="0.7" width="50" height="50"/></g><g transform="translate(400,150)rotate(54.62370036580059,25,25)"><rect fill="#d1d1d1" fill-opacity="0.7" width="50" height="50"/></g><g transform="translate(450,150)rotate(54.62370036580059,25,25)"><rect fill="#d1d1d1" fill-opacity="0.7" width="50" height="50"/></g><g transform="translate(0,200)rotate(0,25,25)"><rect fill="#d1d1d1" fill-opacity="0.7" width="50" height="50"/></g><g transform="translate(50,200)rotate(45.560396200770846,25,25)"><rect fill="#d1d1d1" fill-opacity="0.7" width="50" height="50"/></g><g transform="translate(100,200)rotate(-9.063304165029745,25,25)"><rect fill="#d1d1d1" fill-opacity="0.7" width="50" height="50"/></g><g transform="translate(150,200)rotate(-54.62370036580059,25,25)"><rect fill="#d1d1d1" fill-opacity="0.7" width="50" height="50"/></g><g transform="translate(200,200)rotate(9.063304165029745,25,25)"><rect fill="#d1d1d1" fill-opacity="0.7" width="50" height="50"/></g><g transform="translate(250,200)rotate(-9.063304165029745,25,25)"><rect fill="#d1d1d1" fill-opacity="0.7" width="50" height="50"/></g><g transform="translate(300,200)rotate(-45.560396200770846,25,25)"><rect fill="#d1d1d1" fill-opacity="0.7" width="50" height="50"/></g><g transform="translate(350,200)rotate(-63.68700453083033,25,25)"><rect fill="#d1d1d1" fill-opacity="0.7" width="50" height="50"/></g><g transform="translate(400,200)rotate(9.063304165029745,25,25)"><rect fill="#d1d1d1" fill-opacity="0.7" width="50" height="50"/></g><g transform="translate(450,200)rotate(54.62370036580059,25,25)"><rect fill="#d1d1d1" fill-opacity="0.7" width="50" height="50"/></g><g transform="translate(0,250)rotate(-54.62370036580059,25,25)"><rect fill="#d1d1d1" fill-opacity="0.7" width="50" height="50"/></g><g transform="translate(50,250)rotate(63.68700453083033,25,25)"><rect fill="#d1d1d1" fill-opacity="0.7" width="50" height="50"/></g><g transform="translate(100,250)rotate(-54.62370036580059,25,25)"><rect fill="#d1d1d1" fill-opacity="0.7" width="50" height="50"/></g><g transform="translate(150,250)rotate(45.560396200770846,25,25)"><rect fill="#d1d1d1" fill-opacity="0.7" width="50" height="50"/></g><g transform="translate(200,250)rotate(45.560396200770846,25,25)"><rect fill="#d1d1d1" fill-opacity="0.7" width="50" height="50"/></g><g transform="translate(250,250)rotate(-45.560396200770846,25,25)"><rect fill="#d1d1d1" fill-opacity="0.7" width="50" height="50"/></g><g transform="translate(300,250)rotate(-54.62370036580059,25,25)"><rect fill="#d1d1d1" fill-opacity="0.7" width="50" height="50"/></g><g transform="translate(350,250)rotate(63.68700453083033,25,25)"><rect fill="#d1d1d1" fill-opacity="0.7" width="50" height="50"/></g><g transform="translate(400,250)rotate(0,25,25)"><rect fill="#d1d1d1" fill-opacity="0.7" width="50" height="50"/></g><g transform="translate(450,250)rotate(-63.68700453083033,25,25)"><rect fill="#d1d1d1" fill-opacity="0.7" width="50" height="50"/></g><g transform="translate(0,300)rotate(-54.62370036580059,25,25)"><rect fill="#d1d1d1" fill-opacity="0.7" width="50" height="50"/></g><g transform="translate(50,300)rotate(-45.560396200770846,25,25)"><rect fill="#d1d1d1" fill-opacity="0.7" width="50" height="50"/></g><g transform="translate(100,300)rotate(-63.68700453083033,25,25)"><rect fill="#d1d1d1" fill-opacity="0.7" width="50" height="50"/></g><g transform="translate(150,300)rotate(-9.063304165029745,25,25)"><rect fill="#d1d1d1" fill-opacity="0.7" width="50" height="50"/></g><g transform="translate(200,300)rotate(0,25,25)"><rect fill="#d1d1d1" fill-opacity="0.7" width="50" height="50"/></g><g transform="translate(250,300)rotate(-54.62370036580059,25,25)"><rect fill="#d1d1d1" fill-opacity="0.7" width="50" height="50"/></g><g transform="translate(300,300)rotate(45.560396200770846,25,25)"><rect fill="#d1d1d1" fill-opacity="0.7" width="50" height="50"/></g><g transform="translate(350,300)rotate(0,25,25)"><rect fill="#d1d1d1" fill-opacity="0.7" width="50" height="50"/></g><g transform="translate(400,300)rotate(45.560396200770846,25,25)"><rect fill="#d1d1d1" fill-opacity="0.7" width="50" height="50"/></g><g transform="translate(450,300)rotate(63.68700453083033,25,25)"><rect fill="#d1d1d1" fill-opacity="0.7" width="50" height="50"/></g><g transform="translate(0,350)rotate(9.063304165029745,25,25)"><rect fill="#d1d1d1" fill-opacity="0.7" width="50" height="50"/></g><g transform="translate(50,350)rotate(-9.063304165029745,25,25)"><rect fill="#d1d1d1" fill-opacity="0.7" width="50" height="50"/></g><g transform="translate(100,350)rotate(45.560396200770846,25,25)"><rect fill="#d1d1d1" fill-opacity="0.7" width="50" height="50"/></g><g transform="translate(150,350)rotate(0,25,25)"><rect fill="#d1d1d1" fill-opacity="0.7" width="50" height="50"/></g><g transform="translate(200,350)rotate(63.68700453083033,25,25)"><rect fill="#d1d1d1" fill-opacity="0.7" width="50" height="50"/></g><g transform="translate(250,350)rotate(-45.560396200770846,25,25)"><rect fill="#d1d1d1" fill-opacity="0.7" width="50" height="50"/></g><g transform="translate(300,350)rotate(0,25,25)"><rect fill="#d1d1d1" fill-opacity="0.7" width="50" height="50"/></g><g transform="translate(350,350)rotate(0,25,25)"><rect fill="#d1d1d1" fill-opacity="0.7" width="50" height="50"/></g><g transform="translate(400,350)rotate(-63.68700453083033,25,25)"><rect fill="#d1d1d1" fill-opacity="0.7" width="50" height="50"/></g><g transform="translate(450,350)rotate(63.68700453083033,25,25)"><rect fill="#d1d1d1" fill-opacity="0.7" width="50" height="50"/></g><g transform="translate(0,400)rotate(63.68700453083033,25,25)"><rect fill="#d1d1d1" fill-opacity="0.7" width="50" height="50"/></g><g transform="translate(50,400)rotate(63.68700453083033,25,25)"><rect fill="#d1d1d1" fill-opacity="0.7" width="50" height="50"/></g><g transform="translate(100,400)rotate(-9.063304165029745,25,25)"><rect fill="#d1d1d1" fill-opacity="0.7" width="50" height="50"/></g><g transform="translate(150,400)rotate(54.62370036580059,25,25)"><rect fill="#d1d1d1" fill-opacity="0.7" width="50" height="50"/></g><g transform="translate(200,400)rotate(63.68700453083033,25,25)"><rect fill="#d1d1d1" fill-opacity="0.7" width="50" height="50"/></g><g transform="translate(250,400)rotate(-45.560396200770846,25,25)"><rect fill="#d1d1d1" fill-opacity="0.7" width="50" height="50"/></g><g transform="translate(300,400)rotate(0,25,25)"><rect fill="#d1d1d1" fill-opacity="0.7" width="50" height="50"/></g><g transform="translate(350,400)rotate(-9.063304165029745,25,25)"><rect fill="#d1d1d1" fill-opacity="0.7" width="50" height="50"/></g><g transform="translate(400,400)rotate(0,25,25)"><rect fill="#d1d1d1" fill-opacity="0.7" width="50" height="50"/></g><g transform="translate(450,400)rotate(9.063304165029745,25,25)"><rect fill="#d1d1d1" fill-opacity="0.7" width="50" height="50"/></g><g transform="translate(0,450)rotate(-9.063304165029745,25,25)"><rect fill="#d1d1d1" fill-opacity="0.7" width="50" height="50"/></g><g transform="translate(50,450)rotate(54.62370036580059,25,25)"><rect fill="#d1d1d1" fill-opacity="0.7" width="50" height="50"/></g><g transform="translate(100,450)rotate(-54.62370036580059,25,25)"><rect fill="#d1d1d1" fill-opacity="0.7" width="50" height="50"/></g><g transform="translate(150,450)rotate(-45.560396200770846,25,25)"><rect fill="#d1d1d1" fill-opacity="0.7" width="50" height="50"/></g><g transform="translate(200,450)rotate(-54.62370036580059,25,25)"><rect fill="#d1d1d1" fill-opacity="0.7" width="50" height="50"/></g><g transform="translate(250,450)rotate(-9.063304165029745,25,25)"><rect fill="#d1d1d1" fill-opacity="0.7" width="50" height="50"/></g><g transform="translate(300,450)rotate(-9.063304165029745,25,25)"><rect fill="#d1d1d1" fill-opacity="0.7" width="50" height="50"/></g><g transform="translate(350,450)rotate(-9.063304165029745,25,25)"><rect fill="#d1d1d1" fill-opacity="0.7" width="50" height="50"/></g><g transform="translate(400,450)rotate(9.063304165029745,25,25)"><rect fill="#d1d1d1" fill-opacity="0.7" width="50" height="50"/></g><g transform="translate(450,450)rotate(63.68700453083033,25,25)"><rect fill="#d1d1d1" fill-opacity="0.7" width="50" height="50"/></g></svg>