<?xml version="1.0" standalone="no"?><!DOCTYPE svg PUBLIC "-//W3C//DTD SVG 1.1//EN" "http://www.w3.org/Graphics/SVG/1.1/DTD/svg11.dtd"><svg width="500" height="500" style="background: rgb(209, 209, 209);" version="1.1" xmlns="http://www.w3.org/2000/svg" xmlns:xlink="http://www.w3.org/1999/xlink"><defs xmlns="http://www.w3.org/1999/xhtml"><style type="text/css"><![CDATA[
html, body { height: 100%; margin: 0px; background: rgb(34, 34, 34); }
body, #prev, #next { height: 100%; display: -webkit-flex; flex-direction: column; justify-content: center; }
#prev, #next { position: absolute; top: 0px; color: rgb(209, 209, 209); font-size: 70px; text-decoration: none; padding: 20px; }
#prev { left: 0px; }
#next { right: 0px; }
svg { margin: auto; }]]></style></defs><g transform="translate(250,250)"><path fill="none" stroke="#111" stroke-width="250" stroke-opacity="0.02" d="M0,0L62.5,0"/><path fill="none" stroke="#111" stroke-width="250" stroke-opacity="0.02" d="M32.82349285038948,2.065079130784806L61.83455887142413,3.890300696171866"/><path fill="none" stroke="#111" stroke-width="250" stroke-opacity="0.02" d="M64.69095751177711,8.172368453546396L59.86093456998854,7.562194657429802"/><path fill="none" stroke="#111" stroke-width="250" stroke-opacity="0.02" d="M94.68115644051576,18.061396548880538L56.64637775218644,10.805874474956402"/><path fill="none" stroke="#111" stroke-width="250" stroke-opacity="0.02" d="M121.94112428238213,31.30915924989307L52.30018281523938,13.428404586207595"/><path fill="none" stroke="#111" stroke-width="250" stroke-opacity="0.02" d="M145.7170806863928,47.34634959256865L46.96961349535756,15.261352549088594"/><path fill="none" stroke="#111" stroke-width="250" stroke-opacity="0.02" d="M165.38161183339847,65.4792122649551L40.8344156887807,16.16748889407737"/><path fill="none" stroke="#111" stroke-width="250" stroke-opacity="0.02" d="M180.45609912963712,84.9161945773045L34.10012460255931,16.046300622851536"/><path fill="none" stroke="#111" stroke-width="250" stroke-opacity="0.02" d="M190.62755312009102,104.79838416389445L26.990418826109075,14.838108314284788"/><path fill="none" stroke="#111" stroke-width="250" stroke-opacity="0.02" d="M195.75922208955149,124.23258001026005L19.73880984935228,12.526629640953455"/><path fill="none" stroke="#111" stroke-width="250" stroke-opacity="0.02" d="M195.89458004694765,142.3257434098579L12.579980580388241,9.13989089313362"/><path fill="none" stroke="#111" stroke-width="250" stroke-opacity="0.02" d="M191.25454893652312,158.21952287480553L5.741099589206435,4.7494506291845875"/><path fill="none" stroke="#111" stroke-width="250" stroke-opacity="0.02" d="M182.228065529567,171.12354384646937L-0.5665613737094471,-0.5320365432949942"/><path fill="none" stroke="#111" stroke-width="250" stroke-opacity="0.02" d="M169.35635485791272,180.34620039534119L-6.155390594581026,-6.554825218181303"/><path fill="none" stroke="#111" stroke-width="250" stroke-opacity="0.02" d="M153.311509749646,185.3217802151203L-10.868287863896455,-13.137503231927624"/><path fill="none" stroke="#111" stroke-width="250" stroke-opacity="0.02" d="M134.87019103124803,185.63289254590316L-14.584346267868776,-20.073630524985813"/><path fill="none" stroke="#111" stroke-width="250" stroke-opacity="0.02" d="M114.88344713989497,181.02734597651119L-17.223150684192547,-27.13934283253402"/><path fill="none" stroke="#111" stroke-width="250" stroke-opacity="0.02" d="M94.24379828173304,171.4288326725914L-18.747531741435925,-34.101633640859404"/><path fill="none" stroke="#111" stroke-width="250" stroke-opacity="0.02" d="M73.85083334253225,156.94100953068576L-19.164672471384314,-40.727002104819654"/><path fill="none" stroke="#111" stroke-width="250" stroke-opacity="0.02" d="M54.57662361038328,137.84481622331077L-18.525527233339826,-46.79014068642078"/><path fill="none" stroke="#111" stroke-width="250" stroke-opacity="0.02" d="M37.232263895797736,114.58912564386124L-16.922576360768346,-52.08233467212784"/><path fill="none" stroke="#111" stroke-width="250" stroke-opacity="0.02" d="M22.536808587858815,87.77507422048502L-14.48600295825136,-56.4192565181423"/><path fill="none" stroke="#111" stroke-width="250" stroke-opacity="0.02" d="M11.089779195721746,58.13465841798299L-11.378437978755814,-59.64786075094829"/><path fill="none" stroke="#111" stroke-width="250" stroke-opacity="0.02" d="M3.3482844355553274,26.504400454908367L-7.7884738799912645,-61.652119054110564"/><path fill="none" stroke="#111" stroke-width="250" stroke-opacity="0.02" d="M-0.39038094049221506,-6.20492736484381L-3.9231937455651913,-62.35737892005767"/><path fill="none" stroke="#111" stroke-width="250" stroke-opacity="0.02" d="M-2.3905951332547284e-15,-39.04138131776695L-3.780067136885386e-15,-61.73318118362317"/><path fill="none" stroke="#111" stroke-width="250" stroke-opacity="0.02" d="M4.469865872948442,-71.04648356364211L3.7619466619725186,-59.794429918951565"/><path fill="none" stroke="#111" stroke-width="250" stroke-opacity="0.02" d="M12.795917242592036,-101.29011477762282L7.150352773862856,-56.600870374053066"/><path fill="none" stroke="#111" stroke-width="250" stroke-opacity="0.02" d="M24.5898197028801,-128.9043491089714L9.968154239163313,-52.254894486545645"/><path fill="none" stroke="#111" stroke-width="250" stroke-opacity="0.02" d="M39.31323943391907,-153.11495838940303L12.04129730822383,-46.8977566552909"/><path fill="none" stroke="#111" stroke-width="250" stroke-opacity="0.02" d="M56.29864099320069,-173.2694005501138L13.225642583872778,-40.704342448949276"/><path fill="none" stroke="#111" stroke-width="250" stroke-opacity="0.02" d="M74.77505877404528,-188.86024002471555L13.412729444493564,-33.87668754535147"/><path fill="none" stroke="#111" stroke-width="250" stroke-opacity="0.02" d="M93.89786506593292,-199.5431204936262L12.53418140629182,-26.636491350345782"/><path fill="none" stroke="#111" stroke-width="250" stroke-opacity="0.02" d="M112.78140611316742,-205.14861613871503L10.564584386179034,-19.216907658790642"/><path fill="none" stroke="#111" stroke-width="250" stroke-opacity="0.02" d="M130.53326872194006,-205.6875188433098L7.522727627651417,-11.85392196039876"/><path fill="none" stroke="#111" stroke-width="250" stroke-opacity="0.02" d="M146.2888779292197,-201.34936674779252L3.471159028270892,-4.777640529592344"/><path fill="none" stroke="#111" stroke-width="250" stroke-opacity="0.02" d="M159.24511336769095,-192.4942748789758L-1.4859295850444467,1.796180315649052"/><path fill="none" stroke="#111" stroke-width="250" stroke-opacity="0.02" d="M168.6916687279362,-179.6383815591521L-7.206408460934238,7.67404556809641"/><path fill="none" stroke="#111" stroke-width="250" stroke-opacity="0.02" d="M174.0389637435083,-163.4334654028587L-13.51536818398046,12.691775513894708"/><path fill="none" stroke="#111" stroke-width="250" stroke-opacity="0.02" d="M174.8415481928084,-144.64150781030506L-20.211536164938288,16.72043685426157"/><path fill="none" stroke="#111" stroke-width="250" stroke-opacity="0.02" d="M170.81610760669355,-124.1051666446029L-27.074709666397627,19.670928006035716"/><path fill="none" stroke="#111" stroke-width="250" stroke-opacity="0.02" d="M161.85338425791724,-102.71528102290262L-33.873925135776894,21.497046574729815"/><path fill="none" stroke="#111" stroke-width="250" stroke-opacity="0.02" d="M148.02355687908022,-81.37663902839545L-40.376055676569734,22.19692444538851"/><path fill="none" stroke="#111" stroke-width="250" stroke-opacity="0.02" d="M129.5748697183166,-60.973305432170825L-46.35451219752493,21.81277771317288"/><path fill="none" stroke="#111" stroke-width="250" stroke-opacity="0.02" d="M106.92555665098168,-42.33482273441114L-51.59771975448432,20.428982440895833"/><path fill="none" stroke="#111" stroke-width="250" stroke-opacity="0.02" d="M80.64935947506146,-26.204565382015442L-55.917048993620575,18.168550573247742"/><path fill="none" stroke="#111" stroke-width="250" stroke-opacity="0.02" d="M51.455181645911324,-13.211445161464475L-59.15390310091391,15.18814086173587"/><path fill="none" stroke="#111" stroke-width="250" stroke-opacity="0.02" d="M20.161640396776704,-3.846038599147147L-61.18569248633567,11.671795071576428"/><path fill="none" stroke="#111" stroke-width="250" stroke-opacity="0.02" d="M-12.33252693749995,1.5579604626842583L-61.93047137950628,7.823637956247539"/><path fill="none" stroke="#111" stroke-width="250" stroke-opacity="0.02" d="M-45.08108981823336,2.8362617653460593L-61.350061000824304,3.8598186738579887"/><path fill="none" stroke="#111" stroke-width="250" stroke-opacity="0.02" d="M-77.12475732955606,9.44505871986572e-15L-59.451541089601434,7.280713949975775e-15"/><path fill="none" stroke="#111" stroke-width="250" stroke-opacity="0.02" d="M-107.52612130300676,-6.7649701428542475L-56.287053159234866,-3.541281220201755"/><path fill="none" stroke="#111" stroke-width="250" stroke-opacity="0.02" d="M-135.40379473388606,-17.105477227976245L-51.95192258048142,-6.563054088672553"/><path fill="none" stroke="#111" stroke-width="250" stroke-opacity="0.02" d="M-159.964460804321,-30.514852890816293L-46.581170058022565,-8.885833419845838"/><path fill="none" stroke="#111" stroke-width="250" stroke-opacity="0.02" d="M-180.53162669924794,-46.352643402563984L-40.34454386336997,-10.35871824305497"/><path fill="none" stroke="#111" stroke-width="250" stroke-opacity="0.02" d="M-196.5700008412216,-63.869464961831824L-33.440260020201755,-10.86539912771335"/><path fill="none" stroke="#111" stroke-width="250" stroke-opacity="0.02" d="M-207.70457747310775,-82.23605977709957L-26.08768639564088,-10.328845728765494"/><path fill="none" stroke="#111" stroke-width="250" stroke-opacity="0.02" d="M-213.73371243447727,-100.57545076255575L-18.51924648950172,-8.71449591292488"/><path fill="none" stroke="#111" stroke-width="250" stroke-opacity="0.02" d="M-214.63570094905626,-117.99697512339986L-10.97184812714151,-6.031824551048577"/><path fill="none" stroke="#111" stroke-width="250" stroke-opacity="0.02" d="M-210.56861368529488,-133.63090570180688L-3.678160138418166,-2.3342314032978217"/><path fill="none" stroke="#111" stroke-width="250" stroke-opacity="0.02" d="M-201.86340198982884,-146.66234639345248L3.141934230194722,2.2827488384322483"/><path fill="none" stroke="#111" stroke-width="250" stroke-opacity="0.02" d="M-189.010537396724,-156.3631150814912L9.289385184867928,7.684847758773575"/><path fill="none" stroke="#111" stroke-width="250" stroke-opacity="0.02" d="M-172.64069467279992,-162.120403345512L14.59322248122425,13.703948071170599"/><path fill="none" stroke="#111" stroke-width="250" stroke-opacity="0.02" d="M-153.5002125399139,-163.46112382187562L18.91672708033523,20.144268313500014"/><path fill="none" stroke="#111" stroke-width="250" stroke-opacity="0.02" d="M-132.4222633167861,-160.07101892125806L22.162296385494248,26.789614338295983"/><path fill="none" stroke="#111" stroke-width="250" stroke-opacity="0.02" d="M-110.2948245941926,-151.807802492986L24.2748205368227,33.411424109565104"/><path fill="none" stroke="#111" stroke-width="250" stroke-opacity="0.02" d="M-88.02666657894046,-138.70783148193954L25.243443591346036,39.7773022173029"/><path fill="none" stroke="#111" stroke-width="250" stroke-opacity="0.02" d="M-66.51264335840273,-120.98604912774843L25.101644530767654,45.65972189711608"/><path fill="none" stroke="#111" stroke-width="250" stroke-opacity="0.02" d="M-46.59960222894268,-99.02919556260083L23.925636606548398,50.844565900565236"/><path fill="none" stroke="#111" stroke-width="250" stroke-opacity="0.02" d="M-29.05420142129589,-73.38253615732356L21.83114714812825,55.13918354607174"/><path fill="none" stroke="#111" stroke-width="250" stroke-opacity="0.02" d="M-14.533853946316068,-44.73060302228653L18.968701219459604,58.37965946472694"/><path fill="none" stroke="#111" stroke-width="250" stroke-opacity="0.02" d="M-3.561896623347279,-13.872671423780629L15.517589094866347,60.4370192529683"/><path fill="none" stroke="#111" stroke-width="250" stroke-opacity="0.02" d="M3.4920768699502482,18.30610803163829L11.678747297780117,61.22213733239281"/><path fill="none" stroke="#111" stroke-width="250" stroke-opacity="0.02" d="M6.4259758121891695,50.86683629121517L7.666824022987952,60.68916128055344"/><path fill="none" stroke="#111" stroke-width="250" stroke-opacity="0.02" d="M5.212545825725057,82.85104337769003L3.7017305913694165,58.83732288442938"/><path fill="none" stroke="#111" stroke-width="250" stroke-opacity="0.02" d="M2.0815743619920492e-14,113.31563045722366L1.0233956993503223e-14,55.711067063736266"/><path fill="none" stroke="#111" stroke-width="250" stroke-opacity="0.02" d="M-8.894074208031391,141.36726134422196L-3.233719104071525,51.398493312129226"/><path fill="none" stroke="#111" stroke-width="250" stroke-opacity="0.02" d="M-20.9952995557119,166.1949090066049L-5.814709855703255,46.028168009896426"/><path fill="none" stroke="#111" stroke-width="250" stroke-opacity="0.02" d="M-35.69110645073154,187.09933222778784L-7.585470224031454,39.76442746344066"/><path fill="none" stroke="#111" stroke-width="250" stroke-opacity="0.02" d="M-52.2546368384125,203.51837346336157L-8.421954855891874,32.80134849952669"/><path fill="none" stroke="#111" stroke-width="250" stroke-opacity="0.02" d="M-69.87304708967403,215.04712672016117L-8.238538311599493,25.355613731997384"/><path fill="none" stroke="#111" stroke-width="250" stroke-opacity="0.02" d="M-87.67913572345707,221.45221801737264L-6.9915107088367385,17.658540324204992"/><path fill="none" stroke="#111" stroke-width="250" stroke-opacity="0.02" d="M-104.78509571964864,222.67966333888566L-4.680972357437314,9.947572615113"/><path fill="none" stroke="#111" stroke-width="250" stroke-opacity="0.02" d="M-120.31711050802687,218.85601154647046L-1.3510545859076062,2.45755916847405"/><path fill="none" stroke="#111" stroke-width="250" stroke-opacity="0.02" d="M-133.44948050754186,210.2827333236872L2.9115426630342465,-4.58785712048364"/><path fill="none" stroke="#111" stroke-width="250" stroke-opacity="0.02" d="M-143.43698455789416,197.4240722723885L7.980642152739479,-10.98441157278077"/><path fill="none" stroke="#111" stroke-width="250" stroke-opacity="0.02" d="M-149.64424707267435,180.8888211442545L13.695193584905223,-16.554645242812203"/><path fill="none" stroke="#111" stroke-width="250" stroke-opacity="0.02" d="M-151.5709947373617,161.4067155257287L19.865217433738888,-21.15430795146638"/><path fill="none" stroke="#111" stroke-width="250" stroke-opacity="0.02" d="M-148.8722418044757,139.80034043557868L26.278864315501654,-24.67749617415288"/><path fill="none" stroke="#111" stroke-width="250" stroke-opacity="0.02" d="M-141.3726346332139,116.95361456027464L32.71032354019495,-27.06033300848635"/><path fill="none" stroke="#111" stroke-width="250" stroke-opacity="0.02" d="M-129.07440683769613,93.77804584465225L38.928282274679475,-28.283052614751924"/><path fill="none" stroke="#111" stroke-width="250" stroke-opacity="0.02" d="M-112.1586379008682,71.17803599815754L44.70461581707085,-28.37041188681055"/><path fill="none" stroke="#111" stroke-width="250" stroke-opacity="0.02" d="M-90.97976124872773,50.01654700187568L49.822980632822755,-27.390415389004655"/><path fill="none" stroke="#111" stroke-width="250" stroke-opacity="0.02" d="M-66.05352298998713,31.08242856732025L54.08698536862737,-25.451403392925727"/><path fill="none" stroke="#111" stroke-width="250" stroke-opacity="0.02" d="M-38.0388401590606,15.060642241151651L57.327630906850096,-22.697614754039854"/><path fill="none" stroke="#111" stroke-width="250" stroke-opacity="0.02" d="M-7.714237991420099,2.5065078648405654L59.40973805195409,-19.303394041117475"/><path fill="none" stroke="#111" stroke-width="250" stroke-opacity="0.02" d="M24.050249213748526,-6.175054454058869L60.237119610817686,-15.466263590309005"/><path fill="none" stroke="#111" stroke-width="250" stroke-opacity="0.02" d="M56.32465748106787,-10.744503050980017L59.75630099812082,-11.399124062235073"/><path fill="none" stroke="#111" stroke-width="250" stroke-opacity="0.02" d="M88.15296493460555,-11.136309268370326L57.95864827535875,-7.321880012202694"/><path fill="none" stroke="#111" stroke-width="250" stroke-opacity="0.02" d="M118.58798128855616,-7.460923383051542L54.880822646657776,-3.4528086954210337"/></g></svg>