<?xml version="1.0" standalone="no"?><!DOCTYPE svg PUBLIC "-//W3C//DTD SVG 1.1//EN" "http://www.w3.org/Graphics/SVG/1.1/DTD/svg11.dtd"><svg width="500" height="500" style="background: rgb(17, 17, 17);" version="1.1" xmlns="http://www.w3.org/2000/svg" xmlns:xlink="http://www.w3.org/1999/xlink"><defs xmlns="http://www.w3.org/1999/xhtml"><style type="text/css"><![CDATA[
html, body { height: 100%; margin: 0px; background: rgb(34, 34, 34); }
body, #prev, #next { height: 100%; box-sizing: border-box; display: -webkit-flex; flex-direction: column; justify-content: center; }
#prev, #next { position: absolute; top: 0px; color: rgb(209, 209, 209); font-size: 70px; text-decoration: none; padding: 20px; }
#prev { left: 0px; }
#next { right: 0px; }
svg { margin: auto; }
.fa { display: inline-block; font-style: normal; font-variant: normal; font-weight: normal; font-stretch: normal; line-height: 1; font-family: FontAwesome; font-size: inherit; text-rendering: auto; -webkit-font-smoothing: antialiased; }
.fa-twitter::before { content: ''; }
.fa-github::before { content: ''; }
.fa-th::before { content: ''; }
footer { text-align: center; margin-bottom: 25px; }
a { color: rgb(209, 209, 209); text-decoration: none; padding: 10px; }]]></style></defs><g transform="translate(0,0)"><path fill="#fff" fill-opacity="0.05" d="M-332.75,-134.2842720951557L-291.0833333333333,-84.28427209515569C-249.41666666666666,-34.28427209515569,-166.08333333333331,65.7157279048443,-82.75,65.7157279048443C0.5833333333333357,65.7157279048443,83.91666666666667,-34.28427209515569,167.25,-34.2842720951557C250.58333333333331,-34.28427209515569,333.91666666666663,65.7157279048443,417.24999999999994,65.7157279048443C500.58333333333326,65.7157279048443,583.9166666666666,-34.28427209515569,667.25,-34.2842720951557C750.5833333333333,-34.28427209515569,833.9166666666666,65.7157279048443,917.25,65.7157279048443C1000.5833333333333,65.7157279048443,1083.9166666666665,-34.28427209515569,1167.25,-34.2842720951557C1250.5833333333333,-34.28427209515569,1333.9166666666665,65.7157279048443,1375.5833333333333,115.71572790484429L1417.25,165.7157279048443L1417.25,500L1375.5833333333333,499.99999999999994C1333.9166666666665,500,1250.5833333333333,500,1167.25,499.99999999999994C1083.9166666666665,500,1000.5833333333333,500,917.25,499.99999999999994C833.9166666666666,500,750.5833333333333,500,667.2499999999999,499.99999999999994C583.9166666666666,500,500.58333333333326,500,417.24999999999994,499.99999999999994C333.91666666666663,500,250.58333333333331,500,167.25,499.99999999999994C83.91666666666667,500,0.5833333333333357,500,-82.75,499.99999999999994C-166.08333333333331,500,-249.41666666666666,500,-291.0833333333333,499.99999999999994L-332.75,500Z"/></g><g transform="translate(0,31.25)"><path fill="#fff" fill-opacity="0.05" d="M-415.5,-151.9177179223295L-373.8333333333333,-101.9177179223295C-332.1666666666667,-51.917717922329494,-248.83333333333331,48.0822820776705,-165.49999999999997,48.082282077670506C-82.16666666666666,48.0822820776705,1.1666666666666643,-51.917717922329494,84.5,-51.9177179223295C167.83333333333331,-51.917717922329494,251.16666666666666,48.0822820776705,334.5,48.082282077670506C417.8333333333333,48.0822820776705,501.16666666666663,-51.917717922329494,584.5,-51.9177179223295C667.8333333333333,-51.917717922329494,751.1666666666665,48.0822820776705,834.4999999999999,48.082282077670506C917.8333333333333,48.0822820776705,1001.1666666666666,-51.917717922329494,1084.5,-51.9177179223295C1167.8333333333333,-51.917717922329494,1251.1666666666665,48.0822820776705,1292.8333333333333,98.0822820776705L1334.5,148.0822820776705L1334.5,500L1292.8333333333333,499.99999999999994C1251.1666666666665,500,1167.8333333333333,500,1084.5,499.99999999999994C1001.1666666666666,500,917.8333333333333,500,834.4999999999999,499.99999999999994C751.1666666666665,500,667.8333333333333,500,584.5,499.99999999999994C501.16666666666663,500,417.8333333333333,500,334.49999999999994,499.99999999999994C251.16666666666666,500,167.83333333333331,500,84.5,499.99999999999994C1.1666666666666643,500,-82.16666666666666,500,-165.5,499.99999999999994C-248.83333333333331,500,-332.1666666666667,500,-373.8333333333333,499.99999999999994L-415.5,500Z"/></g><g transform="translate(0,62.5)"><path fill="#fff" fill-opacity="0.05" d="M-498.25,-167.78802273572288L-456.58333333333326,-117.78802273572288C-414.91666666666663,-67.78802273572288,-331.5833333333333,32.21197726427712,-248.25,32.211977264277124C-164.91666666666666,32.21197726427712,-81.58333333333333,-67.78802273572288,1.749999999999993,-67.78802273572288C85.08333333333333,-67.78802273572288,168.41666666666666,32.21197726427712,251.74999999999997,32.211977264277124C335.0833333333333,32.21197726427712,418.41666666666663,-67.78802273572288,501.75,-67.78802273572288C585.0833333333333,-67.78802273572288,668.4166666666666,32.21197726427712,751.75,32.211977264277124C835.0833333333333,32.21197726427712,918.4166666666665,-67.78802273572288,1001.7499999999999,-67.78802273572288C1085.0833333333333,-67.78802273572288,1168.4166666666665,32.21197726427712,1210.0833333333333,82.21197726427712L1251.75,132.21197726427712L1251.75,500L1210.0833333333333,499.99999999999994C1168.4166666666665,500,1085.0833333333333,500,1001.7499999999999,499.99999999999994C918.4166666666665,500,835.0833333333333,500,751.75,499.99999999999994C668.4166666666666,500,585.0833333333333,500,501.74999999999994,499.99999999999994C418.41666666666663,500,335.0833333333333,500,251.74999999999997,499.99999999999994C168.41666666666666,500,85.08333333333333,500,1.749999999999993,499.99999999999994C-81.58333333333333,500,-164.91666666666666,500,-248.25,499.99999999999994C-331.5833333333333,500,-414.91666666666663,500,-456.58333333333326,499.99999999999994L-498.25,500Z"/></g><g transform="translate(0,93.75)"><path fill="#fff" fill-opacity="0.05" d="M-581,-167.30410147956243L-539.3333333333333,-117.30410147956243C-497.66666666666663,-67.30410147956243,-414.3333333333333,32.69589852043757,-331,32.69589852043757C-247.66666666666666,32.69589852043757,-164.33333333333331,-67.30410147956243,-81,-67.30410147956243C2.3333333333333286,-67.30410147956243,85.66666666666666,32.69589852043757,169,32.69589852043757C252.33333333333331,32.69589852043757,335.66666666666663,-67.30410147956243,419,-67.30410147956243C502.3333333333333,-67.30410147956243,585.6666666666666,32.69589852043757,669,32.69589852043757C752.3333333333333,32.69589852043757,835.6666666666666,-67.30410147956243,919,-67.30410147956243C1002.3333333333333,-67.30410147956243,1085.6666666666665,32.69589852043757,1127.3333333333333,82.69589852043757L1169,132.69589852043757L1169,500L1127.3333333333333,499.99999999999994C1085.6666666666665,500,1002.3333333333333,500,919,499.99999999999994C835.6666666666666,500,752.3333333333333,500,669,499.99999999999994C585.6666666666666,500,502.3333333333333,500,419,499.99999999999994C335.66666666666663,500,252.33333333333331,500,169,499.99999999999994C85.66666666666666,500,2.3333333333333286,500,-81,499.99999999999994C-164.33333333333331,500,-247.66666666666666,500,-331,499.99999999999994C-414.3333333333333,500,-497.66666666666663,500,-539.3333333333334,499.99999999999994L-581,500Z"/></g><g transform="translate(0,125)"><path fill="#fff" fill-opacity="0.05" d="M-663.75,-150.91086912504485L-622.0833333333334,-100.91086912504485C-580.4166666666666,-50.910869125044854,-497.0833333333333,49.089130874955146,-413.75,49.089130874955146C-330.41666666666663,49.089130874955146,-247.08333333333331,-50.910869125044854,-163.75,-50.910869125044854C-80.41666666666666,-50.910869125044854,2.9166666666666714,49.089130874955146,86.25,49.089130874955146C169.58333333333331,49.089130874955146,252.91666666666666,-50.910869125044854,336.25,-50.910869125044854C419.5833333333333,-50.910869125044854,502.91666666666663,49.089130874955146,586.25,49.089130874955146C669.5833333333333,49.089130874955146,752.9166666666666,-50.910869125044854,836.25,-50.910869125044854C919.5833333333333,-50.910869125044854,1002.9166666666666,49.089130874955146,1044.5833333333333,99.08913087495515L1086.25,149.08913087495515L1086.25,500L1044.5833333333333,499.99999999999994C1002.9166666666666,500,919.5833333333333,500,836.25,499.99999999999994C752.9166666666666,500,669.5833333333333,500,586.2499999999999,499.99999999999994C502.91666666666663,500,419.5833333333333,500,336.25,499.99999999999994C252.91666666666666,500,169.58333333333331,500,86.25,499.99999999999994C2.9166666666666714,500,-80.41666666666666,500,-163.75,499.99999999999994C-247.08333333333331,500,-330.41666666666663,500,-413.75,499.99999999999994C-497.0833333333333,500,-580.4166666666666,500,-622.0833333333333,499.99999999999994L-663.75,500Z"/></g><g transform="translate(0,156.25)"><path fill="#fff" fill-opacity="0.05" d="M-746.5,-133.68018789764923L-704.8333333333333,-83.68018789764923C-663.1666666666666,-33.68018789764923,-579.8333333333333,66.31981210235077,-496.49999999999994,66.31981210235077C-413.16666666666663,66.31981210235077,-329.8333333333333,-33.68018789764923,-246.49999999999997,-33.68018789764923C-163.16666666666666,-33.68018789764923,-79.83333333333333,66.31981210235077,3.500000000000007,66.31981210235077C86.83333333333333,66.31981210235077,170.16666666666666,-33.68018789764923,253.5,-33.68018789764923C336.8333333333333,-33.68018789764923,420.16666666666663,66.31981210235077,503.49999999999994,66.31981210235077C586.8333333333333,66.31981210235077,670.1666666666666,-33.68018789764923,753.5,-33.68018789764923C836.8333333333333,-33.68018789764923,920.1666666666666,66.31981210235077,961.8333333333334,116.31981210235077L1003.5,166.31981210235077L1003.5,500L961.8333333333334,499.99999999999994C920.1666666666666,500,836.8333333333333,500,753.4999999999999,499.99999999999994C670.1666666666666,500,586.8333333333333,500,503.49999999999994,499.99999999999994C420.16666666666663,500,336.8333333333333,500,253.5,499.99999999999994C170.16666666666666,500,86.83333333333333,500,3.500000000000007,499.99999999999994C-79.83333333333333,500,-163.16666666666666,500,-246.49999999999997,499.99999999999994C-329.8333333333333,500,-413.16666666666663,500,-496.5,499.99999999999994C-579.8333333333333,500,-663.1666666666666,500,-704.8333333333333,499.99999999999994L-746.5,500Z"/></g><g transform="translate(0,187.5)"><path fill="#fff" fill-opacity="0.05" d="M-329.25,-131.45386665448535L-287.5833333333333,-81.45386665448535C-245.91666666666666,-31.453866654485353,-162.58333333333331,68.54613334551465,-79.25,68.54613334551465C4.083333333333336,68.54613334551465,87.41666666666666,-31.453866654485353,170.75,-31.453866654485353C254.08333333333331,-31.453866654485353,337.4166666666667,68.54613334551465,420.75,68.54613334551465C504.0833333333333,68.54613334551465,587.4166666666666,-31.453866654485353,670.75,-31.453866654485353C754.0833333333333,-31.453866654485353,837.4166666666665,68.54613334551465,920.7499999999999,68.54613334551465C1004.0833333333333,68.54613334551465,1087.4166666666665,-31.453866654485353,1170.75,-31.453866654485353C1254.0833333333333,-31.453866654485353,1337.4166666666665,68.54613334551465,1379.0833333333333,118.54613334551465L1420.75,168.54613334551465L1420.75,500L1379.0833333333333,499.99999999999994C1337.4166666666665,500,1254.0833333333333,500,1170.75,499.99999999999994C1087.4166666666665,500,1004.0833333333333,500,920.7499999999999,499.99999999999994C837.4166666666665,500,754.0833333333333,500,670.75,499.99999999999994C587.4166666666666,500,504.0833333333333,500,420.74999999999994,499.99999999999994C337.4166666666667,500,254.08333333333331,500,170.74999999999997,499.99999999999994C87.41666666666666,500,4.083333333333336,500,-79.25,499.99999999999994C-162.58333333333331,500,-245.91666666666666,500,-287.58333333333337,499.99999999999994L-329.25,500Z"/></g><g transform="translate(0,218.75)"><path fill="#fff" fill-opacity="0.05" d="M-412,-146.27877487931164L-370.33333333333326,-96.27877487931164C-328.66666666666663,-46.27877487931164,-245.33333333333331,53.72122512068836,-162,53.72122512068836C-78.66666666666667,53.72122512068836,4.666666666666664,-46.27877487931164,88,-46.27877487931164C171.33333333333331,-46.27877487931164,254.66666666666666,53.72122512068836,338,53.72122512068836C421.3333333333333,53.72122512068836,504.66666666666663,-46.27877487931164,588,-46.27877487931164C671.3333333333333,-46.27877487931164,754.6666666666666,53.72122512068836,838,53.72122512068836C921.3333333333333,53.72122512068836,1004.6666666666665,-46.27877487931164,1088,-46.27877487931164C1171.3333333333333,-46.27877487931164,1254.6666666666665,53.72122512068836,1296.3333333333333,103.72122512068836L1338,153.72122512068836L1338,500L1296.3333333333333,499.99999999999994C1254.6666666666665,500,1171.3333333333333,500,1088,499.99999999999994C1004.6666666666665,500,921.3333333333333,500,838,499.99999999999994C754.6666666666666,500,671.3333333333333,500,588,499.99999999999994C504.66666666666663,500,421.3333333333333,500,338,499.99999999999994C254.66666666666666,500,171.33333333333331,500,88,499.99999999999994C4.666666666666664,500,-78.66666666666667,500,-162,499.99999999999994C-245.33333333333331,500,-328.66666666666663,500,-370.33333333333326,499.99999999999994L-412,500Z"/></g><g transform="translate(0,250)"><path fill="#fff" fill-opacity="0.05" d="M-494.75,-164.5249603187899L-453.0833333333333,-114.52496031878991C-411.41666666666663,-64.52496031878991,-328.0833333333333,35.475039681210085,-244.75,35.47503968121009C-161.41666666666666,35.475039681210085,-78.08333333333333,-64.52496031878991,5.25,-64.52496031878991C88.58333333333333,-64.52496031878991,171.91666666666666,35.475039681210085,255.25,35.47503968121009C338.5833333333333,35.475039681210085,421.91666666666663,-64.52496031878991,505.25,-64.52496031878991C588.5833333333333,-64.52496031878991,671.9166666666666,35.475039681210085,755.25,35.47503968121009C838.5833333333333,35.475039681210085,921.9166666666666,-64.52496031878991,1005.25,-64.52496031878991C1088.5833333333333,-64.52496031878991,1171.9166666666665,35.475039681210085,1213.5833333333333,85.47503968121009L1255.25,135.4750396812101L1255.25,500L1213.5833333333333,499.99999999999994C1171.9166666666665,500,1088.5833333333333,500,1005.25,499.99999999999994C921.9166666666666,500,838.5833333333333,500,755.25,499.99999999999994C671.9166666666666,500,588.5833333333333,500,505.25,499.99999999999994C421.91666666666663,500,338.5833333333333,500,255.25,499.99999999999994C171.91666666666666,500,88.58333333333333,500,5.25,499.99999999999994C-78.08333333333333,500,-161.41666666666666,500,-244.75,499.99999999999994C-328.0833333333333,500,-411.41666666666663,500,-453.0833333333333,499.99999999999994L-494.75,500Z"/></g><g transform="translate(0,281.25)"><path fill="#fff" fill-opacity="0.05" d="M-577.5,-169.41696422645919L-535.8333333333334,-119.41696422645917C-494.16666666666663,-69.41696422645919,-410.8333333333333,30.583035773540814,-327.5,30.583035773540814C-244.16666666666666,30.583035773540814,-160.83333333333331,-69.41696422645919,-77.5,-69.41696422645919C5.833333333333336,-69.41696422645919,89.16666666666667,30.583035773540814,172.5,30.583035773540814C255.83333333333331,30.583035773540814,339.16666666666663,-69.41696422645919,422.49999999999994,-69.41696422645919C505.83333333333326,-69.41696422645919,589.1666666666666,30.583035773540814,672.5,30.583035773540814C755.8333333333333,30.583035773540814,839.1666666666666,-69.41696422645919,922.5,-69.41696422645919C1005.8333333333333,-69.41696422645919,1089.1666666666665,30.583035773540814,1130.8333333333333,80.58303577354081L1172.5,130.58303577354081L1172.5,500L1130.8333333333333,499.99999999999994C1089.1666666666665,500,1005.8333333333333,500,922.5,499.99999999999994C839.1666666666666,500,755.8333333333333,500,672.4999999999999,499.99999999999994C589.1666666666666,500,505.83333333333326,500,422.49999999999994,499.99999999999994C339.16666666666663,500,255.83333333333331,500,172.5,499.99999999999994C89.16666666666667,500,5.833333333333336,500,-77.5,499.99999999999994C-160.83333333333331,500,-244.16666666666666,500,-327.5,499.99999999999994C-410.8333333333333,500,-494.16666666666663,500,-535.8333333333333,499.99999999999994L-577.5,500Z"/></g><g transform="translate(0,312.5)"><path fill="#fff" fill-opacity="0.05" d="M-660.25,-156.45710077024023L-618.5833333333333,-106.45710077024023C-576.9166666666666,-56.45710077024023,-493.5833333333333,43.54289922975977,-410.24999999999994,43.54289922975977C-326.9166666666667,43.54289922975977,-243.58333333333331,-56.45710077024023,-160.24999999999997,-56.45710077024023C-76.91666666666666,-56.45710077024023,6.416666666666664,43.54289922975977,89.75,43.54289922975977C173.08333333333331,43.54289922975977,256.4166666666667,-56.45710077024023,339.75,-56.45710077024023C423.0833333333333,-56.45710077024023,506.41666666666663,43.54289922975977,589.75,43.54289922975977C673.0833333333333,43.54289922975977,756.4166666666665,-56.45710077024023,839.7499999999999,-56.45710077024023C923.0833333333333,-56.45710077024023,1006.4166666666666,43.54289922975977,1048.0833333333333,93.54289922975977L1089.75,143.54289922975977L1089.75,500L1048.0833333333333,499.99999999999994C1006.4166666666666,500,923.0833333333333,500,839.7499999999999,499.99999999999994C756.4166666666665,500,673.0833333333333,500,589.75,499.99999999999994C506.41666666666663,500,423.0833333333333,500,339.74999999999994,499.99999999999994C256.4166666666667,500,173.08333333333331,500,89.75,499.99999999999994C6.416666666666664,500,-76.91666666666666,500,-160.25,499.99999999999994C-243.58333333333331,500,-326.9166666666667,500,-410.25,499.99999999999994C-493.5833333333333,500,-576.9166666666666,500,-618.5833333333333,499.99999999999994L-660.25,500Z"/></g><g transform="translate(0,343.75)"><path fill="#fff" fill-opacity="0.05" d="M-743,-137.5606086443083L-701.3333333333333,-87.5606086443083C-659.6666666666666,-37.5606086443083,-576.3333333333333,62.4393913556917,-492.99999999999994,62.4393913556917C-409.66666666666663,62.4393913556917,-326.3333333333333,-37.5606086443083,-243,-37.5606086443083C-159.66666666666666,-37.5606086443083,-76.33333333333333,62.4393913556917,6.999999999999993,62.4393913556917C90.33333333333333,62.4393913556917,173.66666666666666,-37.5606086443083,257,-37.5606086443083C340.3333333333333,-37.5606086443083,423.66666666666663,62.4393913556917,507,62.4393913556917C590.3333333333333,62.4393913556917,673.6666666666666,-37.5606086443083,757,-37.5606086443083C840.3333333333333,-37.5606086443083,923.6666666666665,62.4393913556917,965.3333333333333,112.4393913556917L1007,162.4393913556917L1007,500L965.3333333333331,499.99999999999994C923.6666666666665,500,840.3333333333333,500,757,499.99999999999994C673.6666666666666,500,590.3333333333333,500,506.99999999999994,499.99999999999994C423.66666666666663,500,340.3333333333333,500,257,499.99999999999994C173.66666666666666,500,90.33333333333333,500,6.999999999999993,499.99999999999994C-76.33333333333333,500,-159.66666666666666,500,-243,499.99999999999994C-326.3333333333333,500,-409.66666666666663,500,-492.99999999999994,499.99999999999994C-576.3333333333333,500,-659.6666666666666,500,-701.3333333333334,499.99999999999994L-743,500Z"/></g><g transform="translate(0,375)"><path fill="#fff" fill-opacity="0.05" d="M-325.75,-130.1008355636069L-284.0833333333333,-80.10083556360689C-242.41666666666666,-30.100835563606893,-159.08333333333331,69.89916443639311,-75.75,69.89916443639311C7.583333333333329,69.89916443639311,90.91666666666666,-30.100835563606893,174.25,-30.100835563606893C257.5833333333333,-30.100835563606893,340.91666666666663,69.89916443639311,424.25,69.89916443639311C507.5833333333333,69.89916443639311,590.9166666666666,-30.100835563606893,674.25,-30.100835563606893C757.5833333333333,-30.100835563606893,840.9166666666666,69.89916443639311,924.25,69.89916443639311C1007.5833333333333,69.89916443639311,1090.9166666666665,-30.100835563606893,1174.25,-30.100835563606893C1257.5833333333333,-30.100835563606893,1340.9166666666665,69.89916443639311,1382.5833333333333,119.89916443639311L1424.25,169.8991644363931L1424.25,500L1382.5833333333333,499.99999999999994C1340.9166666666665,500,1257.5833333333333,500,1174.25,499.99999999999994C1090.9166666666665,500,1007.5833333333333,500,924.25,499.99999999999994C840.9166666666666,500,757.5833333333333,500,674.25,499.99999999999994C590.9166666666666,500,507.5833333333333,500,424.25,499.99999999999994C340.91666666666663,500,257.5833333333333,500,174.25,499.99999999999994C90.91666666666666,500,7.583333333333329,500,-75.75,499.99999999999994C-159.08333333333331,500,-242.41666666666666,500,-284.0833333333333,499.99999999999994L-325.75,500Z"/></g><g transform="translate(0,406.25)"><path fill="#fff" fill-opacity="0.05" d="M-408.5,-140.93626249602676L-366.8333333333333,-90.93626249602676C-325.16666666666663,-40.93626249602676,-241.83333333333331,59.06373750397324,-158.5,59.06373750397324C-75.16666666666666,59.06373750397324,8.166666666666671,-40.93626249602676,91.5,-40.93626249602676C174.83333333333331,-40.93626249602676,258.16666666666663,59.06373750397324,341.5,59.06373750397324C424.8333333333333,59.06373750397324,508.16666666666663,-40.93626249602676,591.5,-40.93626249602676C674.8333333333333,-40.93626249602676,758.1666666666666,59.06373750397324,841.5,59.06373750397324C924.8333333333333,59.06373750397324,1008.1666666666666,-40.93626249602676,1091.5,-40.93626249602676C1174.8333333333333,-40.93626249602676,1258.1666666666665,59.06373750397324,1299.8333333333333,109.06373750397324L1341.5,159.06373750397324L1341.5,500L1299.8333333333333,499.99999999999994C1258.1666666666665,500,1174.8333333333333,500,1091.5,499.99999999999994C1008.1666666666666,500,924.8333333333333,500,841.5,499.99999999999994C758.1666666666666,500,674.8333333333333,500,591.4999999999999,499.99999999999994C508.16666666666663,500,424.8333333333333,500,341.5,499.99999999999994C258.16666666666663,500,174.83333333333331,500,91.5,499.99999999999994C8.166666666666671,500,-75.16666666666666,500,-158.5,499.99999999999994C-241.83333333333331,500,-325.16666666666663,500,-366.8333333333333,499.99999999999994L-408.5,500Z"/></g><g transform="translate(0,437.5)"><path fill="#fff" fill-opacity="0.05" d="M-491.25,-160.10484789003254L-449.5833333333333,-110.10484789003254C-407.91666666666663,-60.104847890032545,-324.5833333333333,39.89515210996745,-241.24999999999997,39.895152109967455C-157.91666666666666,39.89515210996745,-74.58333333333333,-60.104847890032545,8.750000000000007,-60.10484789003254C92.08333333333333,-60.104847890032545,175.41666666666666,39.89515210996745,258.75,39.895152109967455C342.0833333333333,39.89515210996745,425.41666666666663,-60.104847890032545,508.74999999999994,-60.10484789003254C592.0833333333333,-60.104847890032545,675.4166666666666,39.89515210996745,758.75,39.895152109967455C842.0833333333333,39.89515210996745,925.4166666666666,-60.104847890032545,1008.75,-60.10484789003254C1092.0833333333333,-60.104847890032545,1175.4166666666665,39.89515210996745,1217.0833333333333,89.89515210996746L1258.75,139.89515210996746L1258.75,500L1217.0833333333333,499.99999999999994C1175.4166666666665,500,1092.0833333333333,500,1008.75,499.99999999999994C925.4166666666666,500,842.0833333333333,500,758.7499999999999,499.99999999999994C675.4166666666666,500,592.0833333333333,500,508.74999999999994,499.99999999999994C425.41666666666663,500,342.0833333333333,500,258.74999999999994,499.99999999999994C175.41666666666666,500,92.08333333333333,500,8.750000000000007,499.99999999999994C-74.58333333333333,500,-157.91666666666666,500,-241.24999999999997,499.99999999999994C-324.5833333333333,500,-407.91666666666663,500,-449.5833333333333,499.99999999999994L-491.25,500Z"/></g></svg>