<?xml version="1.0" standalone="no"?><!DOCTYPE svg PUBLIC "-//W3C//DTD SVG 1.1//EN" "http://www.w3.org/Graphics/SVG/1.1/DTD/svg11.dtd"><svg width="500" height="500" style="background: rgb(17, 17, 17);" version="1.1" xmlns="http://www.w3.org/2000/svg" xmlns:xlink="http://www.w3.org/1999/xlink"><defs xmlns="http://www.w3.org/1999/xhtml"><style type="text/css"><![CDATA[
html, body { height: 100%; margin: 0px; background: rgb(34, 34, 34); }
body, #prev, #next { height: 100%; box-sizing: border-box; display: -webkit-flex; flex-direction: column; justify-content: center; }
#prev, #next { position: absolute; top: 0px; color: rgb(209, 209, 209); font-size: 70px; text-decoration: none; padding: 20px; }
#prev { left: 0px; }
#next { right: 0px; }
svg { margin: auto; }
.fa { display: inline-block; font-style: normal; font-variant: normal; font-weight: normal; font-stretch: normal; line-height: 1; font-family: FontAwesome; font-size: inherit; text-rendering: auto; -webkit-font-smoothing: antialiased; }
.fa-twitter::before { content: ''; }
.fa-github::before { content: ''; }
.fa-th::before { content: ''; }
footer { text-align: center; margin-bottom: 25px; }
a { color: rgb(209, 209, 209); text-decoration: none; padding: 10px; }]]></style></defs><g transform="translate(250,250)"><circle fill="#d1d1d1" fill-opacity="0.5" r="14" cx="0" cy="0"/><circle fill="#d1d1d1" fill-opacity="0.5" r="14.439533636705194" cx="18.821662663702867" cy="12.558103905862675"/><circle fill="#d1d1d1" fill-opacity="0.5" r="14.877332634950129" cx="37.47626291714493" cy="25.06664671286085"/><circle fill="#d1d1d1" fill-opacity="0.5" r="15.311669202100074" cx="55.79822120784584" cy="37.47626291714492"/><circle fill="#d1d1d1" fill-opacity="0.5" r="15.740829210153983" cx="73.6249105369356" cy="49.73797743297096"/><circle fill="#d1d1d1" fill-opacity="0.5" r="16.163118960624633" cx="90.79809994790935" cy="61.803398874989476"/><circle fill="#d1d1d1" fill-opacity="0.5" r="16.576871868792747" cx="107.16535899579931" cy="73.62491053693559"/><circle fill="#d1d1d1" fill-opacity="0.5" r="16.980455040955512" cx="122.5814107305953" cy="85.15585831301453"/><circle fill="#d1d1d1" fill-opacity="0.5" r="17.372275718712007" cx="136.90942118573776" cy="96.35073482034306"/><circle fill="#d1d1d1" fill-opacity="0.5" r="17.750787564852978" cx="150.02221392609192" cy="107.16535899579934"/><circle fill="#d1d1d1" fill-opacity="0.5" r="18.114496766047314" cx="161.80339887498948" cy="117.55705045849463"/><circle fill="#d1d1d1" fill-opacity="0.5" r="18.461967928240828" cx="172.1484054007887" cy="127.48479794973792"/><circle fill="#d1d1d1" fill-opacity="0.5" r="18.79182974150082" cx="180.9654104932039" cy="136.90942118573773"/><circle fill="#d1d1d1" fill-opacity="0.5" r="19.102780391949878" cx="188.1761537908451" cy="145.79372548428228"/><circle fill="#d1d1d1" fill-opacity="0.5" r="19.393592699430524" cx="193.71663222572622" cy="154.10264855515786"/><circle fill="#d1d1d1" fill-opacity="0.5" r="19.663118960624633" cx="197.53766811902756" cy="161.80339887498948"/><circle fill="#d1d1d1" fill-opacity="0.5" r="19.910295478514108" cx="199.6053456856543" cy="168.86558510040302"/><circle fill="#d1d1d1" fill-opacity="0.5" r="20.134146760307043" cx="199.90131207314633" cy="175.2613360087727"/><circle fill="#d1d1d1" fill-opacity="0.5" r="20.33378936726214" cx="198.42294026289557" cy="180.9654104932039"/><circle fill="#d1d1d1" fill-opacity="0.5" r="20.50843540121776" cx="195.1833523877495" cy="185.95529717765027"/><circle fill="#d1d1d1" fill-opacity="0.5" r="20.657395614066075" cx="190.21130325903073" cy="190.2113032590307"/><circle fill="#d1d1d1" fill-opacity="0.5" r="20.780082127900418" cx="183.55092513679625" cy="193.71663222572622"/><circle fill="#d1d1d1" fill-opacity="0.5" r="20.876010755100822" cx="175.26133600877273" cy="196.4574501457377"/><circle fill="#d1d1d1" fill-opacity="0.5" r="20.944802909201346" cx="165.41611485491234" cy="198.42294026289557"/><circle fill="#d1d1d1" fill-opacity="0.5" r="20.986187098997902" cx="154.10264855515788" cy="199.6053456856543"/><circle fill="#d1d1d1" fill-opacity="0.5" r="21" cx="141.4213562373095" cy="200"/><circle fill="#d1d1d1" fill-opacity="0.5" r="20.986187098997902" cx="127.48479794973797" cy="199.6053456856543"/><circle fill="#d1d1d1" fill-opacity="0.5" r="20.944802909201346" cx="112.41667557042616" cy="198.42294026289557"/><circle fill="#d1d1d1" fill-opacity="0.5" r="20.876010755100822" cx="96.35073482034304" cy="196.45745014573774"/><circle fill="#d1d1d1" fill-opacity="0.5" r="20.780082127900418" cx="79.42957812695622" cy="193.71663222572624"/><circle fill="#d1d1d1" fill-opacity="0.5" r="20.657395614066075" cx="61.803398874989504" cy="190.21130325903073"/><circle fill="#d1d1d1" fill-opacity="0.5" r="20.50843540121776" cx="43.62864827930855" cy="185.9552971776503"/><circle fill="#d1d1d1" fill-opacity="0.5" r="20.33378936726214" cx="25.06664671286082" cy="180.9654104932039"/><circle fill="#d1d1d1" fill-opacity="0.5" r="20.134146760307043" cx="6.282151815625648" cy="175.2613360087727"/><circle fill="#d1d1d1" fill-opacity="0.5" r="19.910295478514108" cx="-12.55810390586258" cy="168.86558510040302"/><circle fill="#d1d1d1" fill-opacity="0.5" r="19.663118960624633" cx="-31.286893008046146" cy="161.80339887498948"/><circle fill="#d1d1d1" fill-opacity="0.5" r="19.393592699430524" cx="-49.737977432971" cy="154.10264855515786"/><circle fill="#d1d1d1" fill-opacity="0.5" r="19.102780391949878" cx="-67.74758404905829" cy="145.79372548428228"/><circle fill="#d1d1d1" fill-opacity="0.5" r="18.79182974150082" cx="-85.15585831301445" cy="136.90942118573776"/><circle fill="#d1d1d1" fill-opacity="0.5" r="18.461967928240824" cx="-101.80828315007433" cy="127.48479794973791"/><circle fill="#d1d1d1" fill-opacity="0.5" r="18.114496766047314" cx="-117.5570504584946" cy="117.55705045849464"/><circle fill="#d1d1d1" fill-opacity="0.5" r="17.750787564852978" cx="-132.2623730647304" cy="107.16535899579934"/><circle fill="#d1d1d1" fill-opacity="0.5" r="17.37227571871201" cx="-145.79372548428228" cy="96.35073482034312"/><circle fill="#d1d1d1" fill-opacity="0.5" r="16.98045504095551" cx="-158.03100247513808" cy="85.1558583130145"/><circle fill="#d1d1d1" fill-opacity="0.5" r="16.57687186879275" cx="-168.86558510040294" cy="73.62491053693563"/><circle fill="#d1d1d1" fill-opacity="0.5" r="16.163118960624633" cx="-178.20130483767355" cy="61.803398874989504"/><circle fill="#d1d1d1" fill-opacity="0.5" r="15.740829210153983" cx="-185.9552971776503" cy="49.737977432970965"/><circle fill="#d1d1d1" fill-opacity="0.5" r="15.31166920210007" cx="-192.05873713538858" cy="37.476262917144915"/><circle fill="#d1d1d1" fill-opacity="0.5" r="14.877332634950132" cx="-196.4574501457377" cy="25.06664671286091"/><circle fill="#d1d1d1" fill-opacity="0.5" r="14.43953363670519" cx="-199.112392920616" cy="12.558103905862627"/><circle fill="#d1d1d1" fill-opacity="0.5" r="14" cx="-200" cy="2.4492935982947064e-14"/><circle fill="#d1d1d1" fill-opacity="0.5" r="13.560466363294807" cx="-199.112392920616" cy="-12.55810390586267"/><circle fill="#d1d1d1" fill-opacity="0.5" r="13.122667365049873" cx="-196.45745014573774" cy="-25.06664671286077"/><circle fill="#d1d1d1" fill-opacity="0.5" r="12.688330797899926" cx="-192.0587371353886" cy="-37.47626291714495"/><circle fill="#d1d1d1" fill-opacity="0.5" r="12.259170789846017" cx="-185.95529717765032" cy="-49.737977432970915"/><circle fill="#d1d1d1" fill-opacity="0.5" r="11.836881039375369" cx="-178.2013048376736" cy="-61.803398874989455"/><circle fill="#d1d1d1" fill-opacity="0.5" r="11.423128131207255" cx="-168.865585100403" cy="-73.62491053693559"/><circle fill="#d1d1d1" fill-opacity="0.5" r="11.019544959044492" cx="-158.03100247513814" cy="-85.15585831301453"/><circle fill="#d1d1d1" fill-opacity="0.5" r="10.627724281287994" cx="-145.79372548428242" cy="-96.35073482034299"/><circle fill="#d1d1d1" fill-opacity="0.5" r="10.249212435147022" cx="-132.26237306473033" cy="-107.16535899579935"/><circle fill="#d1d1d1" fill-opacity="0.5" r="9.88550323395269" cx="-117.55705045849467" cy="-117.5570504584946"/><circle fill="#d1d1d1" fill-opacity="0.5" r="9.538032071759172" cx="-101.80828315007425" cy="-127.48479794973792"/><circle fill="#d1d1d1" fill-opacity="0.5" r="9.208170258499182" cx="-85.1558583130146" cy="-136.90942118573767"/><circle fill="#d1d1d1" fill-opacity="0.5" r="8.897219608050118" cx="-67.74758404905829" cy="-145.7937254842823"/><circle fill="#d1d1d1" fill-opacity="0.5" r="8.606407300569476" cx="-49.7379774329709" cy="-154.10264855515786"/><circle fill="#d1d1d1" fill-opacity="0.5" r="8.336881039375367" cx="-31.286893008046224" cy="-161.80339887498945"/><circle fill="#d1d1d1" fill-opacity="0.5" r="8.089704521485892" cx="-12.558103905862653" cy="-168.86558510040305"/><circle fill="#d1d1d1" fill-opacity="0.5" r="7.865853239692954" cx="6.282151815625574" cy="-175.26133600877273"/><circle fill="#d1d1d1" fill-opacity="0.5" r="7.666210632737864" cx="25.066646712860656" cy="-180.96541049320388"/><circle fill="#d1d1d1" fill-opacity="0.5" r="7.491564598782242" cx="43.628648279308216" cy="-185.95529717765024"/><circle fill="#d1d1d1" fill-opacity="0.5" r="7.3426043859339245" cx="61.80339887498943" cy="-190.2113032590307"/><circle fill="#d1d1d1" fill-opacity="0.5" r="7.2199178720995825" cx="79.42957812695597" cy="-193.7166322257262"/><circle fill="#d1d1d1" fill-opacity="0.5" r="7.123989244899178" cx="96.35073482034313" cy="-196.45745014573774"/><circle fill="#d1d1d1" fill-opacity="0.5" r="7.055197090798654" cx="112.41667557042625" cy="-198.42294026289557"/><circle fill="#d1d1d1" fill-opacity="0.5" r="7.013812901002099" cx="127.484797949738" cy="-199.6053456856543"/><circle fill="#d1d1d1" fill-opacity="0.5" r="7" cx="141.4213562373096" cy="-200"/><circle fill="#d1d1d1" fill-opacity="0.5" r="7.013812901002099" cx="154.10264855515774" cy="-199.6053456856543"/><circle fill="#d1d1d1" fill-opacity="0.5" r="7.055197090798654" cx="165.4161148549123" cy="-198.42294026289557"/><circle fill="#d1d1d1" fill-opacity="0.5" r="7.12398924489918" cx="175.2613360087728" cy="-196.4574501457377"/><circle fill="#d1d1d1" fill-opacity="0.5" r="7.219917872099581" cx="183.55092513679608" cy="-193.71663222572627"/><circle fill="#d1d1d1" fill-opacity="0.5" r="7.3426043859339245" cx="190.2113032590307" cy="-190.21130325903073"/><circle fill="#d1d1d1" fill-opacity="0.5" r="7.49156459878224" cx="195.18335238774952" cy="-185.95529717765024"/><circle fill="#d1d1d1" fill-opacity="0.5" r="7.666210632737863" cx="198.42294026289557" cy="-180.9654104932039"/><circle fill="#d1d1d1" fill-opacity="0.5" r="7.865853239692956" cx="199.90131207314633" cy="-175.26133600877267"/><circle fill="#d1d1d1" fill-opacity="0.5" r="8.089704521485892" cx="199.6053456856543" cy="-168.8655851004031"/><circle fill="#d1d1d1" fill-opacity="0.5" r="8.336881039375367" cx="197.5376681190276" cy="-161.8033988749895"/><circle fill="#d1d1d1" fill-opacity="0.5" r="8.606407300569476" cx="193.71663222572622" cy="-154.1026485551578"/><circle fill="#d1d1d1" fill-opacity="0.5" r="8.897219608050115" cx="188.17615379084523" cy="-145.79372548428242"/><circle fill="#d1d1d1" fill-opacity="0.5" r="9.208170258499177" cx="180.965410493204" cy="-136.90942118573778"/><circle fill="#d1d1d1" fill-opacity="0.5" r="9.538032071759172" cx="172.1484054007887" cy="-127.48479794973792"/><circle fill="#d1d1d1" fill-opacity="0.5" r="9.885503233952686" cx="161.8033988749895" cy="-117.55705045849467"/><circle fill="#d1d1d1" fill-opacity="0.5" r="10.249212435147026" cx="150.02221392609178" cy="-107.16535899579927"/><circle fill="#d1d1d1" fill-opacity="0.5" r="10.627724281287993" cx="136.90942118573767" cy="-96.35073482034306"/><circle fill="#d1d1d1" fill-opacity="0.5" r="11.01954495904449" cx="122.58141073059532" cy="-85.1558583130146"/><circle fill="#d1d1d1" fill-opacity="0.5" r="11.423128131207255" cx="107.16535899579944" cy="-73.62491053693557"/><circle fill="#d1d1d1" fill-opacity="0.5" r="11.836881039375372" cx="90.79809994790926" cy="-61.803398874989355"/><circle fill="#d1d1d1" fill-opacity="0.5" r="12.259170789846014" cx="73.62491053693591" cy="-49.73797743297107"/><circle fill="#d1d1d1" fill-opacity="0.5" r="12.688330797899928" cx="55.798221207845955" cy="-37.476262917144936"/><circle fill="#d1d1d1" fill-opacity="0.5" r="13.122667365049873" cx="37.47626291714479" cy="-25.066646712860756"/><circle fill="#d1d1d1" fill-opacity="0.5" r="13.560466363294807" cx="18.821662663702828" cy="-12.558103905862653"/><circle fill="#d1d1d1" fill-opacity="0.5" r="13.999999999999998" cx="7.347880794884119e-14" cy="-4.898587196589413e-14"/><circle fill="#d1d1d1" fill-opacity="0.5" r="14.439533636705189" cx="-18.821662663702686" cy="12.558103905862556"/><circle fill="#d1d1d1" fill-opacity="0.5" r="14.877332634950129" cx="-37.47626291714499" cy="25.066646712860834"/><circle fill="#d1d1d1" fill-opacity="0.5" r="15.311669202100077" cx="-55.79822120784581" cy="37.476262917145014"/><circle fill="#d1d1d1" fill-opacity="0.5" r="15.74082921015398" cx="-73.62491053693545" cy="49.7379774329708"/><circle fill="#d1d1d1" fill-opacity="0.5" r="16.16311896062463" cx="-90.79809994790912" cy="61.80339887498943"/><circle fill="#d1d1d1" fill-opacity="0.5" r="16.57687186879275" cx="-107.16535899579931" cy="73.62491053693564"/><circle fill="#d1d1d1" fill-opacity="0.5" r="16.98045504095551" cx="-122.58141073059521" cy="85.1558583130145"/><circle fill="#d1d1d1" fill-opacity="0.5" r="17.372275718712004" cx="-136.90942118573756" cy="96.35073482034298"/><circle fill="#d1d1d1" fill-opacity="0.5" r="17.750787564852978" cx="-150.02221392609192" cy="107.16535899579934"/><circle fill="#d1d1d1" fill-opacity="0.5" r="18.11449676604731" cx="-161.80339887498945" cy="117.55705045849459"/><circle fill="#d1d1d1" fill-opacity="0.5" r="18.46196792824083" cx="-172.14840540078882" cy="127.484797949738"/><circle fill="#d1d1d1" fill-opacity="0.5" r="18.79182974150082" cx="-180.96541049320393" cy="136.90942118573773"/><circle fill="#d1d1d1" fill-opacity="0.5" r="19.102780391949878" cx="-188.17615379084506" cy="145.79372548428222"/><circle fill="#d1d1d1" fill-opacity="0.5" r="19.393592699430524" cx="-193.7166322257262" cy="154.10264855515786"/><circle fill="#d1d1d1" fill-opacity="0.5" r="19.663118960624637" cx="-197.53766811902756" cy="161.80339887498957"/><circle fill="#d1d1d1" fill-opacity="0.5" r="19.910295478514104" cx="-199.6053456856543" cy="168.86558510040294"/><circle fill="#d1d1d1" fill-opacity="0.5" r="20.134146760307043" cx="-199.90131207314633" cy="175.2613360087727"/><circle fill="#d1d1d1" fill-opacity="0.5" r="20.33378936726214" cx="-198.42294026289557" cy="180.96541049320393"/><circle fill="#d1d1d1" fill-opacity="0.5" r="20.50843540121776" cx="-195.1833523877495" cy="185.95529717765027"/><circle fill="#d1d1d1" fill-opacity="0.5" r="20.657395614066075" cx="-190.21130325903076" cy="190.2113032590307"/><circle fill="#d1d1d1" fill-opacity="0.5" r="20.780082127900418" cx="-183.5509251367963" cy="193.7166322257262"/><circle fill="#d1d1d1" fill-opacity="0.5" r="20.876010755100822" cx="-175.2613360087727" cy="196.4574501457377"/><circle fill="#d1d1d1" fill-opacity="0.5" r="20.944802909201346" cx="-165.4161148549124" cy="198.42294026289557"/><circle fill="#d1d1d1" fill-opacity="0.5" r="20.986187098997902" cx="-154.10264855515797" cy="199.6053456856543"/><circle fill="#d1d1d1" fill-opacity="0.5" r="21" cx="-141.42135623730968" cy="200"/><circle fill="#d1d1d1" fill-opacity="0.5" r="20.986187098997902" cx="-127.48479794973795" cy="199.6053456856543"/><circle fill="#d1d1d1" fill-opacity="0.5" r="20.944802909201346" cx="-112.41667557042622" cy="198.42294026289557"/><circle fill="#d1d1d1" fill-opacity="0.5" r="20.876010755100822" cx="-96.35073482034295" cy="196.4574501457377"/><circle fill="#d1d1d1" fill-opacity="0.5" r="20.780082127900418" cx="-79.42957812695612" cy="193.71663222572622"/><circle fill="#d1d1d1" fill-opacity="0.5" r="20.657395614066075" cx="-61.80339887498958" cy="190.21130325903073"/><circle fill="#d1d1d1" fill-opacity="0.5" r="20.508435401217763" cx="-43.628648279308706" cy="185.95529717765032"/><circle fill="#d1d1d1" fill-opacity="0.5" r="20.333789367262135" cx="-25.066646712860802" cy="180.96541049320385"/><circle fill="#d1d1d1" fill-opacity="0.5" r="20.134146760307043" cx="-6.282151815625365" cy="175.26133600877267"/><circle fill="#d1d1d1" fill-opacity="0.5" r="19.910295478514108" cx="12.558103905862506" cy="168.86558510040302"/><circle fill="#d1d1d1" fill-opacity="0.5" r="19.663118960624633" cx="31.286893008046253" cy="161.8033988749895"/><circle fill="#d1d1d1" fill-opacity="0.5" r="19.393592699430528" cx="49.73797743297059" cy="154.10264855515794"/><circle fill="#d1d1d1" fill-opacity="0.5" r="19.102780391949878" cx="67.74758404905849" cy="145.7937254842822"/><circle fill="#d1d1d1" fill-opacity="0.5" r="18.791829741500827" cx="85.155858313014" cy="136.90942118573795"/><circle fill="#d1d1d1" fill-opacity="0.5" r="18.461967928240828" cx="101.80828315007426" cy="127.48479794973795"/><circle fill="#d1d1d1" fill-opacity="0.5" r="18.114496766047314" cx="117.55705045849454" cy="117.55705045849467"/><circle fill="#d1d1d1" fill-opacity="0.5" r="17.75078756485298" cx="132.2623730647302" cy="107.16535899579944"/><circle fill="#d1d1d1" fill-opacity="0.5" r="17.37227571871201" cx="145.79372548428208" cy="96.35073482034325"/><circle fill="#d1d1d1" fill-opacity="0.5" r="16.98045504095551" cx="158.03100247513805" cy="85.15585831301446"/><circle fill="#d1d1d1" fill-opacity="0.5" r="16.576871868792747" cx="168.8655851004031" cy="73.6249105369356"/><circle fill="#d1d1d1" fill-opacity="0.5" r="16.163118960624637" cx="178.20130483767343" cy="61.803398874989554"/><circle fill="#d1d1d1" fill-opacity="0.5" r="15.740829210153976" cx="185.9552971776504" cy="49.73797743297075"/><circle fill="#d1d1d1" fill-opacity="0.5" r="15.31166920210008" cx="192.05873713538847" cy="37.476262917145135"/><circle fill="#d1d1d1" fill-opacity="0.5" r="14.877332634950127" cx="196.45745014573777" cy="25.06664671286078"/><circle fill="#d1d1d1" fill-opacity="0.5" r="14.439533636705194" cx="199.112392920616" cy="12.558103905862678"/><circle fill="#d1d1d1" fill-opacity="0.5" r="13.999999999999991" cx="200" cy="-2.817925599312089e-13"/><circle fill="#d1d1d1" fill-opacity="0.5" r="13.560466363294811" cx="199.11239292061603" cy="-12.55810390586253"/><circle fill="#d1d1d1" fill-opacity="0.5" r="13.122667365049878" cx="196.4574501457378" cy="-25.066646712860635"/><circle fill="#d1d1d1" fill-opacity="0.5" r="12.688330797899924" cx="192.05873713538855" cy="-37.47626291714499"/><circle fill="#d1d1d1" fill-opacity="0.5" r="12.259170789846015" cx="185.95529717765035" cy="-49.73797743297095"/><circle fill="#d1d1d1" fill-opacity="0.5" r="11.83688103937537" cx="178.20130483767355" cy="-61.80339887498941"/><circle fill="#d1d1d1" fill-opacity="0.5" r="11.423128131207248" cx="168.86558510040285" cy="-73.62491053693579"/><circle fill="#d1d1d1" fill-opacity="0.5" r="11.019544959044499" cx="158.03100247513817" cy="-85.15585831301433"/><circle fill="#d1d1d1" fill-opacity="0.5" r="10.627724281288003" cx="145.79372548428273" cy="-96.3507348203428"/><circle fill="#d1d1d1" fill-opacity="0.5" r="10.249212435147024" cx="132.26237306473038" cy="-107.16535899579931"/><circle fill="#d1d1d1" fill-opacity="0.5" r="9.88550323395269" cx="117.55705045849471" cy="-117.55705045849456"/><circle fill="#d1d1d1" fill-opacity="0.5" r="9.538032071759165" cx="101.80828315007415" cy="-127.48479794973811"/><circle fill="#d1d1d1" fill-opacity="0.5" r="9.208170258499177" cx="85.15585831301419" cy="-136.90942118573784"/><circle fill="#d1d1d1" fill-opacity="0.5" r="8.897219608050127" cx="67.74758404905869" cy="-145.7937254842821"/><circle fill="#d1d1d1" fill-opacity="0.5" r="8.606407300569476" cx="49.7379774329708" cy="-154.10264855515786"/><circle fill="#d1d1d1" fill-opacity="0.5" r="8.336881039375369" cx="31.28689300804647" cy="-161.80339887498945"/><circle fill="#d1d1d1" fill-opacity="0.5" r="8.089704521485892" cx="12.558103905862373" cy="-168.8655851004031"/><circle fill="#d1d1d1" fill-opacity="0.5" r="7.865853239692953" cx="-6.282151815625856" cy="-175.2613360087728"/><circle fill="#d1d1d1" fill-opacity="0.5" r="7.666210632737868" cx="-25.066646712860585" cy="-180.9654104932038"/><circle fill="#d1d1d1" fill-opacity="0.5" r="7.49156459878224" cx="-43.62864827930849" cy="-185.95529717765027"/><circle fill="#d1d1d1" fill-opacity="0.5" r="7.342604385933926" cx="-61.80339887498902" cy="-190.21130325903067"/><circle fill="#d1d1d1" fill-opacity="0.5" r="7.2199178720995825" cx="-79.42957812695592" cy="-193.7166322257262"/><circle fill="#d1d1d1" fill-opacity="0.5" r="7.123989244899178" cx="-96.35073482034306" cy="-196.45745014573777"/><circle fill="#d1d1d1" fill-opacity="0.5" r="7.055197090798654" cx="-112.41667557042634" cy="-198.42294026289557"/><circle fill="#d1d1d1" fill-opacity="0.5" r="7.013812901002101" cx="-127.48479794973724" cy="-199.6053456856543"/><circle fill="#d1d1d1" fill-opacity="0.5" r="7" cx="-141.42135623730954" cy="-200"/><circle fill="#d1d1d1" fill-opacity="0.5" r="7.013812901002099" cx="-154.10264855515757" cy="-199.6053456856543"/><circle fill="#d1d1d1" fill-opacity="0.5" r="7.055197090798655" cx="-165.41611485491268" cy="-198.42294026289557"/><circle fill="#d1d1d1" fill-opacity="0.5" r="7.12398924489918" cx="-175.26133600877276" cy="-196.4574501457377"/><circle fill="#d1d1d1" fill-opacity="0.5" r="7.219917872099586" cx="-183.55092513679637" cy="-193.71663222572616"/><circle fill="#d1d1d1" fill-opacity="0.5" r="7.3426043859339245" cx="-190.21130325903067" cy="-190.21130325903076"/><circle fill="#d1d1d1" fill-opacity="0.5" r="7.4915645987822375" cx="-195.18335238774952" cy="-185.95529717765032"/><circle fill="#d1d1d1" fill-opacity="0.5" r="7.666210632737866" cx="-198.42294026289562" cy="-180.96541049320385"/><circle fill="#d1d1d1" fill-opacity="0.5" r="7.865853239692956" cx="-199.9013120731463" cy="-175.2613360087727"/><circle fill="#d1d1d1" fill-opacity="0.5" r="8.089704521485892" cx="-199.6053456856543" cy="-168.86558510040302"/><circle fill="#d1d1d1" fill-opacity="0.5" r="8.336881039375367" cx="-197.5376681190276" cy="-161.80339887498954"/><circle fill="#d1d1d1" fill-opacity="0.5" r="8.60640730056947" cx="-193.71663222572624" cy="-154.10264855515797"/><circle fill="#d1d1d1" fill-opacity="0.5" r="8.897219608050115" cx="-188.17615379084526" cy="-145.79372548428248"/><circle fill="#d1d1d1" fill-opacity="0.5" r="9.20817025849918" cx="-180.96541049320402" cy="-136.9094211857377"/><circle fill="#d1d1d1" fill-opacity="0.5" r="9.538032071759172" cx="-172.14840540078876" cy="-127.48479794973795"/><circle fill="#d1d1d1" fill-opacity="0.5" r="9.885503233952695" cx="-161.80339887498937" cy="-117.5570504584944"/><circle fill="#d1d1d1" fill-opacity="0.5" r="10.249212435147019" cx="-150.02221392609206" cy="-107.16535899579947"/><circle fill="#d1d1d1" fill-opacity="0.5" r="10.627724281287986" cx="-136.90942118573827" cy="-96.35073482034326"/><circle fill="#d1d1d1" fill-opacity="0.5" r="11.019544959044493" cx="-122.5814107305951" cy="-85.15585831301449"/><circle fill="#d1d1d1" fill-opacity="0.5" r="11.423128131207253" cx="-107.16535899579951" cy="-73.62491053693562"/><circle fill="#d1d1d1" fill-opacity="0.5" r="11.836881039375378" cx="-90.7980999479087" cy="-61.803398874989234"/><circle fill="#d1d1d1" fill-opacity="0.5" r="12.259170789846022" cx="-73.62491053693533" cy="-49.73797743297077"/><circle fill="#d1d1d1" fill-opacity="0.5" r="12.68833079789992" cx="-55.79822120784602" cy="-37.47626291714516"/><circle fill="#d1d1d1" fill-opacity="0.5" r="13.122667365049871" cx="-37.47626291714486" cy="-25.066646712860802"/><circle fill="#d1d1d1" fill-opacity="0.5" r="13.560466363294806" cx="-18.821662663702547" cy="-12.558103905862703"/></g></svg>