<?xml version="1.0" standalone="no"?><!DOCTYPE svg PUBLIC "-//W3C//DTD SVG 1.1//EN" "http://www.w3.org/Graphics/SVG/1.1/DTD/svg11.dtd"><svg width="500" height="500" style="background: rgb(136, 136, 136);" version="1.1" xmlns="http://www.w3.org/2000/svg" xmlns:xlink="http://www.w3.org/1999/xlink"><defs xmlns="http://www.w3.org/1999/xhtml"><style type="text/css"><![CDATA[
html, body { height: 100%; margin: 0px; background: rgb(34, 34, 34); }
body, #prev, #next { height: 100%; box-sizing: border-box; display: -webkit-flex; flex-direction: column; justify-content: center; }
#prev, #next { position: absolute; top: 0px; color: rgb(209, 209, 209); font-size: 70px; text-decoration: none; padding: 20px; }
#prev { left: 0px; }
#next { right: 0px; }
svg { margin: auto; }
.fa { display: inline-block; font-style: normal; font-variant: normal; font-weight: normal; font-stretch: normal; line-height: 1; font-family: FontAwesome; font-size: inherit; text-rendering: auto; -webkit-font-smoothing: antialiased; }
.fa-twitter::before { content: ''; }
.fa-github::before { content: ''; }
.fa-th::before { content: ''; }
footer { text-align: center; margin-bottom: 25px; }
a { color: rgb(209, 209, 209); text-decoration: none; padding: 10px; }]]></style></defs><g transform="rotate(-25,250,250)"><linearGradient id="gradient0" x1="0%" x2="100%" y1="5%" y2="0%"><stop offset="0.9" stop-color="#d1d1d1"/><stop offset="1" stop-color="#444"/></linearGradient><linearGradient id="gradient1" x1="0%" x2="100%" y1="5%" y2="0%"><stop offset="0.9" stop-color="#333"/><stop offset="1" stop-color="#111"/></linearGradient><linearGradient id="gradient2" x1="0%" x2="100%" y1="5%" y2="0%"><stop offset="0.9" stop-color="#333"/><stop offset="1" stop-color="#444"/></linearGradient><linearGradient id="gradient3" x1="0%" x2="100%" y1="5%" y2="0%"><stop offset="0.9" stop-color="#d1d1d1"/><stop offset="1" stop-color="#eee"/></linearGradient><g transform="translate(6.28777941994894,-83)"><path fill="url(#gradient3)" transform="translate(500)scale(-1 1)" d="M-300,0 L180,0 Q220,0 250,12.5 L250,12.5 Q220,25 180,25 L-300,25 Z"/><path fill="url(#gradient1)" transform="" d="M-300,0 L180,0 Q220,0 250,12.5 L250,12.5 Q220,25 180,25 L-300,25 Z"/></g><g transform="translate(118.06219967348915,-63)"><path fill="url(#gradient2)" transform="translate(500)scale(-1 1)" d="M-300,0 L180,0 Q220,0 250,12.5 L250,12.5 Q220,25 180,25 L-300,25 Z"/><path fill="url(#gradient0)" transform="" d="M-300,0 L180,0 Q220,0 250,12.5 L250,12.5 Q220,25 180,25 L-300,25 Z"/></g><g transform="translate(188.59409691026738,-43)"><path fill="url(#gradient3)" transform="translate(500)scale(-1 1)" d="M-300,0 L180,0 Q220,0 250,12.5 L250,12.5 Q220,25 180,25 L-300,25 Z"/><path fill="url(#gradient1)" transform="" d="M-300,0 L180,0 Q220,0 250,12.5 L250,12.5 Q220,25 180,25 L-300,25 Z"/></g><g transform="translate(193.24465021005312,-23)"><path fill="url(#gradient2)" transform="translate(500)scale(-1 1)" d="M-300,0 L180,0 Q220,0 250,12.5 L250,12.5 Q220,25 180,25 L-300,25 Z"/><path fill="url(#gradient0)" transform="" d="M-300,0 L180,0 Q220,0 250,12.5 L250,12.5 Q220,25 180,25 L-300,25 Z"/></g><g transform="translate(130.3892875079726,-3)"><path fill="url(#gradient3)" transform="translate(500)scale(-1 1)" d="M-300,0 L180,0 Q220,0 250,12.5 L250,12.5 Q220,25 180,25 L-300,25 Z"/><path fill="url(#gradient1)" transform="" d="M-300,0 L180,0 Q220,0 250,12.5 L250,12.5 Q220,25 180,25 L-300,25 Z"/></g><g transform="translate(21.985195356001313,17)"><path fill="url(#gradient2)" transform="translate(500)scale(-1 1)" d="M-300,0 L180,0 Q220,0 250,12.5 L250,12.5 Q220,25 180,25 L-300,25 Z"/><path fill="url(#gradient0)" transform="" d="M-300,0 L180,0 Q220,0 250,12.5 L250,12.5 Q220,25 180,25 L-300,25 Z"/></g><g transform="translate(-94.09895805186316,37)"><path fill="url(#gradient3)" transform="translate(500)scale(-1 1)" d="M-300,0 L180,0 Q220,0 250,12.5 L250,12.5 Q220,25 180,25 L-300,25 Z"/><path fill="url(#gradient1)" transform="" d="M-300,0 L180,0 Q220,0 250,12.5 L250,12.5 Q220,25 180,25 L-300,25 Z"/></g><g transform="translate(-177.31163816818986,57)"><path fill="url(#gradient2)" transform="translate(500)scale(-1 1)" d="M-300,0 L180,0 Q220,0 250,12.5 L250,12.5 Q220,25 180,25 L-300,25 Z"/><path fill="url(#gradient0)" transform="" d="M-300,0 L180,0 Q220,0 250,12.5 L250,12.5 Q220,25 180,25 L-300,25 Z"/></g><g transform="translate(-198.58426178450787,77)"><path fill="url(#gradient3)" transform="translate(500)scale(-1 1)" d="M-300,0 L180,0 Q220,0 250,12.5 L250,12.5 Q220,25 180,25 L-300,25 Z"/><path fill="url(#gradient1)" transform="" d="M-300,0 L180,0 Q220,0 250,12.5 L250,12.5 Q220,25 180,25 L-300,25 Z"/></g><g transform="translate(-150.48568945441298,97)"><path fill="url(#gradient2)" transform="translate(500)scale(-1 1)" d="M-300,0 L180,0 Q220,0 250,12.5 L250,12.5 Q220,25 180,25 L-300,25 Z"/><path fill="url(#gradient0)" transform="" d="M-300,0 L180,0 Q220,0 250,12.5 L250,12.5 Q220,25 180,25 L-300,25 Z"/></g><g transform="translate(-49.818136297421454,117)"><path fill="url(#gradient3)" transform="translate(500)scale(-1 1)" d="M-300,0 L180,0 Q220,0 250,12.5 L250,12.5 Q220,25 180,25 L-300,25 Z"/><path fill="url(#gradient1)" transform="" d="M-300,0 L180,0 Q220,0 250,12.5 L250,12.5 Q220,25 180,25 L-300,25 Z"/></g><g transform="translate(68.25232514504006,137)"><path fill="url(#gradient2)" transform="translate(500)scale(-1 1)" d="M-300,0 L180,0 Q220,0 250,12.5 L250,12.5 Q220,25 180,25 L-300,25 Z"/><path fill="url(#gradient0)" transform="" d="M-300,0 L180,0 Q220,0 250,12.5 L250,12.5 Q220,25 180,25 L-300,25 Z"/></g><g transform="translate(162.4802857826148,157)"><path fill="url(#gradient3)" transform="translate(500)scale(-1 1)" d="M-300,0 L180,0 Q220,0 250,12.5 L250,12.5 Q220,25 180,25 L-300,25 Z"/><path fill="url(#gradient1)" transform="" d="M-300,0 L180,0 Q220,0 250,12.5 L250,12.5 Q220,25 180,25 L-300,25 Z"/></g><g transform="translate(199.94920800914963,177)"><path fill="url(#gradient2)" transform="translate(500)scale(-1 1)" d="M-300,0 L180,0 Q220,0 250,12.5 L250,12.5 Q220,25 180,25 L-300,25 Z"/><path fill="url(#gradient0)" transform="" d="M-300,0 L180,0 Q220,0 250,12.5 L250,12.5 Q220,25 180,25 L-300,25 Z"/></g><g transform="translate(167.57011930325464,197)"><path fill="url(#gradient3)" transform="translate(500)scale(-1 1)" d="M-300,0 L180,0 Q220,0 250,12.5 L250,12.5 Q220,25 180,25 L-300,25 Z"/><path fill="url(#gradient1)" transform="" d="M-300,0 L180,0 Q220,0 250,12.5 L250,12.5 Q220,25 180,25 L-300,25 Z"/></g><g transform="translate(76.65396690212977,217)"><path fill="url(#gradient2)" transform="translate(500)scale(-1 1)" d="M-300,0 L180,0 Q220,0 250,12.5 L250,12.5 Q220,25 180,25 L-300,25 Z"/><path fill="url(#gradient0)" transform="" d="M-300,0 L180,0 Q220,0 250,12.5 L250,12.5 Q220,25 180,25 L-300,25 Z"/></g><g transform="translate(-41.03962148638398,237)"><path fill="url(#gradient3)" transform="translate(500)scale(-1 1)" d="M-300,0 L180,0 Q220,0 250,12.5 L250,12.5 Q220,25 180,25 L-300,25 Z"/><path fill="url(#gradient1)" transform="" d="M-300,0 L180,0 Q220,0 250,12.5 L250,12.5 Q220,25 180,25 L-300,25 Z"/></g><g transform="translate(-144.39688937237952,257)"><path fill="url(#gradient2)" transform="translate(500)scale(-1 1)" d="M-300,0 L180,0 Q220,0 250,12.5 L250,12.5 Q220,25 180,25 L-300,25 Z"/><path fill="url(#gradient0)" transform="" d="M-300,0 L180,0 Q220,0 250,12.5 L250,12.5 Q220,25 180,25 L-300,25 Z"/></g><g transform="translate(-197.3121694760117,277)"><path fill="url(#gradient3)" transform="translate(500)scale(-1 1)" d="M-300,0 L180,0 Q220,0 250,12.5 L250,12.5 Q220,25 180,25 L-300,25 Z"/><path fill="url(#gradient1)" transform="" d="M-300,0 L180,0 Q220,0 250,12.5 L250,12.5 Q220,25 180,25 L-300,25 Z"/></g><g transform="translate(-181.30063207491415,297)"><path fill="url(#gradient2)" transform="translate(500)scale(-1 1)" d="M-300,0 L180,0 Q220,0 250,12.5 L250,12.5 Q220,25 180,25 L-300,25 Z"/><path fill="url(#gradient0)" transform="" d="M-300,0 L180,0 Q220,0 250,12.5 L250,12.5 Q220,25 180,25 L-300,25 Z"/></g><g transform="translate(-101.95556783811325,317)"><path fill="url(#gradient3)" transform="translate(500)scale(-1 1)" d="M-300,0 L180,0 Q220,0 250,12.5 L250,12.5 Q220,25 180,25 L-300,25 Z"/><path fill="url(#gradient1)" transform="" d="M-300,0 L180,0 Q220,0 250,12.5 L250,12.5 Q220,25 180,25 L-300,25 Z"/></g><g transform="translate(13.005509524645053,337)"><path fill="url(#gradient2)" transform="translate(500)scale(-1 1)" d="M-300,0 L180,0 Q220,0 250,12.5 L250,12.5 Q220,25 180,25 L-300,25 Z"/><path fill="url(#gradient0)" transform="" d="M-300,0 L180,0 Q220,0 250,12.5 L250,12.5 Q220,25 180,25 L-300,25 Z"/></g><g transform="translate(123.42338823958644,357)"><path fill="url(#gradient3)" transform="translate(500)scale(-1 1)" d="M-300,0 L180,0 Q220,0 250,12.5 L250,12.5 Q220,25 180,25 L-300,25 Z"/><path fill="url(#gradient1)" transform="" d="M-300,0 L180,0 Q220,0 250,12.5 L250,12.5 Q220,25 180,25 L-300,25 Z"/></g><g transform="translate(190.7259265292644,377)"><path fill="url(#gradient2)" transform="translate(500)scale(-1 1)" d="M-300,0 L180,0 Q220,0 250,12.5 L250,12.5 Q220,25 180,25 L-300,25 Z"/><path fill="url(#gradient0)" transform="" d="M-300,0 L180,0 Q220,0 250,12.5 L250,12.5 Q220,25 180,25 L-300,25 Z"/></g><g transform="translate(191.4024114629115,397)"><path fill="url(#gradient3)" transform="translate(500)scale(-1 1)" d="M-300,0 L180,0 Q220,0 250,12.5 L250,12.5 Q220,25 180,25 L-300,25 Z"/><path fill="url(#gradient1)" transform="" d="M-300,0 L180,0 Q220,0 250,12.5 L250,12.5 Q220,25 180,25 L-300,25 Z"/></g><g transform="translate(125.21652739060991,417)"><path fill="url(#gradient2)" transform="translate(500)scale(-1 1)" d="M-300,0 L180,0 Q220,0 250,12.5 L250,12.5 Q220,25 180,25 L-300,25 Z"/><path fill="url(#gradient0)" transform="" d="M-300,0 L180,0 Q220,0 250,12.5 L250,12.5 Q220,25 180,25 L-300,25 Z"/></g><g transform="translate(15.288907798655515,437)"><path fill="url(#gradient3)" transform="translate(500)scale(-1 1)" d="M-300,0 L180,0 Q220,0 250,12.5 L250,12.5 Q220,25 180,25 L-300,25 Z"/><path fill="url(#gradient1)" transform="" d="M-300,0 L180,0 Q220,0 250,12.5 L250,12.5 Q220,25 180,25 L-300,25 Z"/></g><g transform="translate(-99.97956715200847,457)"><path fill="url(#gradient2)" transform="translate(500)scale(-1 1)" d="M-300,0 L180,0 Q220,0 250,12.5 L250,12.5 Q220,25 180,25 L-300,25 Z"/><path fill="url(#gradient0)" transform="" d="M-300,0 L180,0 Q220,0 250,12.5 L250,12.5 Q220,25 180,25 L-300,25 Z"/></g><g transform="translate(-180.3223028662675,477)"><path fill="url(#gradient3)" transform="translate(500)scale(-1 1)" d="M-300,0 L180,0 Q220,0 250,12.5 L250,12.5 Q220,25 180,25 L-300,25 Z"/><path fill="url(#gradient1)" transform="" d="M-300,0 L180,0 Q220,0 250,12.5 L250,12.5 Q220,25 180,25 L-300,25 Z"/></g><g transform="translate(-197.67327028411276,497)"><path fill="url(#gradient2)" transform="translate(500)scale(-1 1)" d="M-300,0 L180,0 Q220,0 250,12.5 L250,12.5 Q220,25 180,25 L-300,25 Z"/><path fill="url(#gradient0)" transform="" d="M-300,0 L180,0 Q220,0 250,12.5 L250,12.5 Q220,25 180,25 L-300,25 Z"/></g><g transform="translate(-145.97127729602266,517)"><path fill="url(#gradient3)" transform="translate(500)scale(-1 1)" d="M-300,0 L180,0 Q220,0 250,12.5 L250,12.5 Q220,25 180,25 L-300,25 Z"/><path fill="url(#gradient1)" transform="" d="M-300,0 L180,0 Q220,0 250,12.5 L250,12.5 Q220,25 180,25 L-300,25 Z"/></g><g transform="translate(-43.27731752841643,537)"><path fill="url(#gradient2)" transform="translate(500)scale(-1 1)" d="M-300,0 L180,0 Q220,0 250,12.5 L250,12.5 Q220,25 180,25 L-300,25 Z"/><path fill="url(#gradient0)" transform="" d="M-300,0 L180,0 Q220,0 250,12.5 L250,12.5 Q220,25 180,25 L-300,25 Z"/></g><g transform="translate(74.53465434811108,557)"><path fill="url(#gradient3)" transform="translate(500)scale(-1 1)" d="M-300,0 L180,0 Q220,0 250,12.5 L250,12.5 Q220,25 180,25 L-300,25 Z"/><path fill="url(#gradient1)" transform="" d="M-300,0 L180,0 Q220,0 250,12.5 L250,12.5 Q220,25 180,25 L-300,25 Z"/></g></g></svg>