<?xml version="1.0" standalone="no"?><!DOCTYPE svg PUBLIC "-//W3C//DTD SVG 1.1//EN" "http://www.w3.org/Graphics/SVG/1.1/DTD/svg11.dtd"><svg width="500" height="500" style="background: rgb(17, 17, 17);" version="1.1" xmlns="http://www.w3.org/2000/svg" xmlns:xlink="http://www.w3.org/1999/xlink"><defs xmlns="http://www.w3.org/1999/xhtml"><style type="text/css"><![CDATA[
html, body { height: 100%; margin: 0px; background: rgb(34, 34, 34); }
body, #prev, #next { height: 100%; box-sizing: border-box; display: -webkit-flex; flex-direction: column; justify-content: center; }
#prev, #next { position: absolute; top: 0px; color: rgb(209, 209, 209); font-size: 70px; text-decoration: none; padding: 20px; }
#prev { left: 0px; }
#next { right: 0px; }
svg { margin: auto; }
.fa { display: inline-block; font-style: normal; font-variant: normal; font-weight: normal; font-stretch: normal; line-height: 1; font-family: FontAwesome; font-size: inherit; text-rendering: auto; -webkit-font-smoothing: antialiased; }
.fa-twitter::before { content: ''; }
.fa-github::before { content: ''; }
.fa-th::before { content: ''; }
footer { text-align: center; margin-bottom: 25px; }
a { color: rgb(209, 209, 209); text-decoration: none; padding: 10px; }]]></style></defs><g transform="translate(250,23.80952380952381)scale(0.12435979742985365,1)"><path fill="none" stroke="#d1d1d1" stroke-width="3" d="M-150,0L150,0"/><ellipse cx="-150" cy="0" rx="10" ry="7" fill="#bbb"/><ellipse cx="150" cy="0" rx="10" ry="7" fill="#bbb"/></g><g transform="translate(250,47.61904761904762)scale(0.3285510962722743,1)"><path fill="none" stroke="#d1d1d1" stroke-width="3" d="M-150,0L150,0"/><ellipse cx="-150" cy="0" rx="10" ry="7" fill="#bbb"/><ellipse cx="150" cy="0" rx="10" ry="7" fill="#bbb"/></g><g transform="translate(250,71.42857142857143)scale(0.5747190662367996,1)"><path fill="none" stroke="#d1d1d1" stroke-width="3" d="M-150,0L150,0"/><ellipse cx="-150" cy="0" rx="10" ry="7" fill="#bbb"/><ellipse cx="150" cy="0" rx="10" ry="7" fill="#bbb"/></g><g transform="translate(250,95.23809523809524)scale(0.8025932028680198,1)"><path fill="none" stroke="#d1d1d1" stroke-width="3" d="M-150,0L150,0"/><ellipse cx="-150" cy="0" rx="10" ry="7" fill="#bbb"/><ellipse cx="150" cy="0" rx="10" ry="7" fill="#bbb"/></g><g transform="translate(250,119.04761904761905)scale(0.9563819701302605,1)"><path fill="none" stroke="#d1d1d1" stroke-width="3" d="M-150,0L150,0"/><ellipse cx="-150" cy="0" rx="10" ry="7" fill="#bbb"/><ellipse cx="150" cy="0" rx="10" ry="7" fill="#bbb"/></g><g transform="translate(250,142.85714285714286)scale(0.9984325142269594,1)"><path fill="none" stroke="#d1d1d1" stroke-width="3" d="M-150,0L150,0"/><ellipse cx="-150" cy="0" rx="10" ry="7" fill="#bbb"/><ellipse cx="150" cy="0" rx="10" ry="7" fill="#bbb"/></g><g transform="translate(250,166.66666666666666)scale(0.9184493953992489,1)"><path fill="none" stroke="#d1d1d1" stroke-width="3" d="M-150,0L150,0"/><ellipse cx="-150" cy="0" rx="10" ry="7" fill="#bbb"/><ellipse cx="150" cy="0" rx="10" ry="7" fill="#bbb"/></g><g transform="translate(250,190.47619047619048)scale(0.7360152706449413,1)"><path fill="none" stroke="#d1d1d1" stroke-width="3" d="M-150,0L150,0"/><ellipse cx="-150" cy="0" rx="10" ry="7" fill="#bbb"/><ellipse cx="150" cy="0" rx="10" ry="7" fill="#bbb"/></g><g transform="translate(250,214.28571428571428)scale(0.4957963763164257,1)"><path fill="none" stroke="#d1d1d1" stroke-width="3" d="M-150,0L150,0"/><ellipse cx="-150" cy="0" rx="10" ry="7" fill="#bbb"/><ellipse cx="150" cy="0" rx="10" ry="7" fill="#bbb"/></g><g transform="translate(250,238.0952380952381)scale(0.2566066756721503,1)"><path fill="none" stroke="#d1d1d1" stroke-width="3" d="M-150,0L150,0"/><ellipse cx="-150" cy="0" rx="10" ry="7" fill="#bbb"/><ellipse cx="150" cy="0" rx="10" ry="7" fill="#bbb"/></g><g transform="translate(250,261.9047619047619)scale(0.07700814946227674,1)"><path fill="none" stroke="#d1d1d1" stroke-width="3" d="M-150,0L150,0"/><ellipse cx="-150" cy="0" rx="10" ry="7" fill="#bbb"/><ellipse cx="150" cy="0" rx="10" ry="7" fill="#bbb"/></g><g transform="translate(250,285.7142857142857)scale(0.0009727806205602763,1)"><path fill="none" stroke="#d1d1d1" stroke-width="3" d="M-150,0L150,0"/><ellipse cx="-150" cy="0" rx="10" ry="7" fill="#bbb"/><ellipse cx="150" cy="0" rx="10" ry="7" fill="#bbb"/></g><g transform="translate(250,309.5238095238095)scale(0.047116679265647776,1)"><path fill="none" stroke="#d1d1d1" stroke-width="3" d="M-150,0L150,0"/><ellipse cx="-150" cy="0" rx="10" ry="7" fill="#bbb"/><ellipse cx="150" cy="0" rx="10" ry="7" fill="#bbb"/></g><g transform="translate(250,333.3333333333333)scale(0.2041422096844953,1)"><path fill="none" stroke="#d1d1d1" stroke-width="3" d="M-150,0L150,0"/><ellipse cx="-150" cy="0" rx="10" ry="7" fill="#bbb"/><ellipse cx="150" cy="0" rx="10" ry="7" fill="#bbb"/></g><g transform="translate(250,357.14285714285717)scale(0.43360404557374166,1)"><path fill="none" stroke="#d1d1d1" stroke-width="3" d="M-150,0L150,0"/><ellipse cx="-150" cy="0" rx="10" ry="7" fill="#bbb"/><ellipse cx="150" cy="0" rx="10" ry="7" fill="#bbb"/></g><g transform="translate(250,380.95238095238096)scale(0.6793219267464001,1)"><path fill="none" stroke="#d1d1d1" stroke-width="3" d="M-150,0L150,0"/><ellipse cx="-150" cy="0" rx="10" ry="7" fill="#bbb"/><ellipse cx="150" cy="0" rx="10" ry="7" fill="#bbb"/></g><g transform="translate(250,404.76190476190476)scale(0.8811355461807056,1)"><path fill="none" stroke="#d1d1d1" stroke-width="3" d="M-150,0L150,0"/><ellipse cx="-150" cy="0" rx="10" ry="7" fill="#bbb"/><ellipse cx="150" cy="0" rx="10" ry="7" fill="#bbb"/></g><g transform="translate(250,428.57142857142856)scale(0.9896338913431,1)"><path fill="none" stroke="#d1d1d1" stroke-width="3" d="M-150,0L150,0"/><ellipse cx="-150" cy="0" rx="10" ry="7" fill="#bbb"/><ellipse cx="150" cy="0" rx="10" ry="7" fill="#bbb"/></g><g transform="translate(250,452.3809523809524)scale(0.9782527833257546,1)"><path fill="none" stroke="#d1d1d1" stroke-width="3" d="M-150,0L150,0"/><ellipse cx="-150" cy="0" rx="10" ry="7" fill="#bbb"/><ellipse cx="150" cy="0" rx="10" ry="7" fill="#bbb"/></g><g transform="translate(250,476.1904761904762)scale(0.849778714301334,1)"><path fill="none" stroke="#d1d1d1" stroke-width="3" d="M-150,0L150,0"/><ellipse cx="-150" cy="0" rx="10" ry="7" fill="#bbb"/><ellipse cx="150" cy="0" rx="10" ry="7" fill="#bbb"/></g></svg>