<?xml version="1.0" standalone="no"?><!DOCTYPE svg PUBLIC "-//W3C//DTD SVG 1.1//EN" "http://www.w3.org/Graphics/SVG/1.1/DTD/svg11.dtd"><svg width="500" height="500" style="background: rgb(17, 17, 17);" version="1.1" xmlns="http://www.w3.org/2000/svg" xmlns:xlink="http://www.w3.org/1999/xlink"><defs xmlns="http://www.w3.org/1999/xhtml"><style type="text/css"><![CDATA[
html, body { height: 100%; margin: 0px; background: rgb(34, 34, 34); }
body, #prev, #next { height: 100%; box-sizing: border-box; display: -webkit-flex; flex-direction: column; justify-content: center; }
#prev, #next { position: absolute; top: 0px; color: rgb(209, 209, 209); font-size: 70px; text-decoration: none; padding: 20px; }
#prev { left: 0px; }
#next { right: 0px; }
svg { margin: auto; }
.fa { display: inline-block; font-style: normal; font-variant: normal; font-weight: normal; font-stretch: normal; line-height: 1; font-family: FontAwesome; font-size: inherit; text-rendering: auto; -webkit-font-smoothing: antialiased; }
.fa-twitter::before { content: ''; }
.fa-github::before { content: ''; }
.fa-th::before { content: ''; }
footer { text-align: center; margin-bottom: 25px; }
a { color: rgb(209, 209, 209); text-decoration: none; padding: 10px; }]]></style></defs><g transform="translate(12.5,12.5)"><path fill="#d1d1d1" transform="rotate(59.12086733582119)" d="M0,10A-10,10,0,0,1,0,-10A-10,10,0,0,0,0,10"/></g><g transform="translate(37.5,12.5)"><path fill="#d1d1d1" transform="rotate(64.4939186999964)" d="M0,10A-10,10,0,0,1,0,-10A-10,10,0,0,0,0,10"/></g><g transform="translate(62.5,12.5)"><path fill="#d1d1d1" transform="rotate(70.3931579686429)" d="M0,10A-10,10,0,0,1,0,-10A-10,10,0,0,0,0,10"/></g><g transform="translate(87.5,12.5)"><path fill="#d1d1d1" transform="rotate(76.7574632818981)" d="M0,10A-10,10,0,0,1,0,-10A-10,10,0,0,0,0,10"/></g><g transform="translate(112.5,12.5)"><path fill="#d1d1d1" transform="rotate(83.47124694950489)" d="M0,10A-10,10,0,0,1,0,-10A-10,10,0,0,0,0,10"/></g><g transform="translate(137.5,12.5)"><path fill="#d1d1d1" transform="rotate(90.36916832822371)" d="M0,10A-10,10,0,0,1,0,-10A-10,10,0,0,0,0,10"/></g><g transform="translate(162.5,12.5)"><path fill="#d1d1d1" transform="rotate(97.2564559770447)" d="M0,10A-10,10,0,0,1,0,-10A-10,10,0,0,0,0,10"/></g><g transform="translate(187.5,12.5)"><path fill="#d1d1d1" transform="rotate(103.94010005042018)" d="M0,10A-10,10,0,0,1,0,-10A-10,10,0,0,0,0,10"/></g><g transform="translate(212.5,12.5)"><path fill="#d1d1d1" transform="rotate(110.25936225865053)" d="M0,10A-10,10,0,0,1,0,-10A-10,10,0,0,0,0,10"/></g><g transform="translate(237.5,12.5)"><path fill="#d1d1d1" transform="rotate(116.10450329056982)" d="M0,10A-10,10,0,0,1,0,-10A-10,10,0,0,0,0,10"/></g><g transform="translate(262.5,12.5)"><path fill="#d1d1d1" transform="rotate(121.41991048111142)" d="M0,10A-10,10,0,0,1,0,-10A-10,10,0,0,0,0,10"/></g><g transform="translate(287.5,12.5)"><path fill="#d1d1d1" transform="rotate(126.19543320241695)" d="M0,10A-10,10,0,0,1,0,-10A-10,10,0,0,0,0,10"/></g><g transform="translate(312.5,12.5)"><path fill="#d1d1d1" transform="rotate(130.4527096367515)" d="M0,10A-10,10,0,0,1,0,-10A-10,10,0,0,0,0,10"/></g><g transform="translate(337.5,12.5)"><path fill="#d1d1d1" transform="rotate(134.2319046537472)" d="M0,10A-10,10,0,0,1,0,-10A-10,10,0,0,0,0,10"/></g><g transform="translate(362.5,12.5)"><path fill="#d1d1d1" transform="rotate(137.58147259420866)" d="M0,10A-10,10,0,0,1,0,-10A-10,10,0,0,0,0,10"/></g><g transform="translate(387.5,12.5)"><path fill="#d1d1d1" transform="rotate(140.5513858940655)" d="M0,10A-10,10,0,0,1,0,-10A-10,10,0,0,0,0,10"/></g><g transform="translate(412.5,12.5)"><path fill="#d1d1d1" transform="rotate(143.1892195271886)" d="M0,10A-10,10,0,0,1,0,-10A-10,10,0,0,0,0,10"/></g><g transform="translate(437.5,12.5)"><path fill="#d1d1d1" transform="rotate(145.538225853316)" d="M0,10A-10,10,0,0,1,0,-10A-10,10,0,0,0,0,10"/></g><g transform="translate(462.5,12.5)"><path fill="#d1d1d1" transform="rotate(147.63664802425444)" d="M0,10A-10,10,0,0,1,0,-10A-10,10,0,0,0,0,10"/></g><g transform="translate(487.5,12.5)"><path fill="#d1d1d1" transform="rotate(149.5177323568308)" d="M0,10A-10,10,0,0,1,0,-10A-10,10,0,0,0,0,10"/></g><g transform="translate(12.5,37.5)"><path fill="#d1d1d1" transform="rotate(55.7755434262979)" d="M0,10A-10,10,0,0,1,0,-10A-10,10,0,0,0,0,10"/></g><g transform="translate(37.5,37.5)"><path fill="#d1d1d1" transform="rotate(61.510744577886726)" d="M0,10A-10,10,0,0,1,0,-10A-10,10,0,0,0,0,10"/></g><g transform="translate(62.5,37.5)"><path fill="#d1d1d1" transform="rotate(67.94209283221473)" d="M0,10A-10,10,0,0,1,0,-10A-10,10,0,0,0,0,10"/></g><g transform="translate(87.5,37.5)"><path fill="#d1d1d1" transform="rotate(75.01376049146536)" d="M0,10A-10,10,0,0,1,0,-10A-10,10,0,0,0,0,10"/></g><g transform="translate(112.5,37.5)"><path fill="#d1d1d1" transform="rotate(82.58287619277411)" d="M0,10A-10,10,0,0,1,0,-10A-10,10,0,0,0,0,10"/></g><g transform="translate(137.5,37.5)"><path fill="#d1d1d1" transform="rotate(90.41993116236381)" d="M0,10A-10,10,0,0,1,0,-10A-10,10,0,0,0,0,10"/></g><g transform="translate(162.5,37.5)"><path fill="#d1d1d1" transform="rotate(98.24140112069426)" d="M0,10A-10,10,0,0,1,0,-10A-10,10,0,0,0,0,10"/></g><g transform="translate(187.5,37.5)"><path fill="#d1d1d1" transform="rotate(105.76704903547531)" d="M0,10A-10,10,0,0,1,0,-10A-10,10,0,0,0,0,10"/></g><g transform="translate(212.5,37.5)"><path fill="#d1d1d1" transform="rotate(112.77563459513229)" d="M0,10A-10,10,0,0,1,0,-10A-10,10,0,0,0,0,10"/></g><g transform="translate(237.5,37.5)"><path fill="#d1d1d1" transform="rotate(119.1340512715403)" d="M0,10A-10,10,0,0,1,0,-10A-10,10,0,0,0,0,10"/></g><g transform="translate(262.5,37.5)"><path fill="#d1d1d1" transform="rotate(124.79474503893397)" d="M0,10A-10,10,0,0,1,0,-10A-10,10,0,0,0,0,10"/></g><g transform="translate(287.5,37.5)"><path fill="#d1d1d1" transform="rotate(129.77374821632398)" d="M0,10A-10,10,0,0,1,0,-10A-10,10,0,0,0,0,10"/></g><g transform="translate(312.5,37.5)"><path fill="#d1d1d1" transform="rotate(134.124685384136)" d="M0,10A-10,10,0,0,1,0,-10A-10,10,0,0,0,0,10"/></g><g transform="translate(337.5,37.5)"><path fill="#d1d1d1" transform="rotate(137.9178105646021)" d="M0,10A-10,10,0,0,1,0,-10A-10,10,0,0,0,0,10"/></g><g transform="translate(362.5,37.5)"><path fill="#d1d1d1" transform="rotate(141.22642139729166)" d="M0,10A-10,10,0,0,1,0,-10A-10,10,0,0,0,0,10"/></g><g transform="translate(387.5,37.5)"><path fill="#d1d1d1" transform="rotate(144.11947542492913)" d="M0,10A-10,10,0,0,1,0,-10A-10,10,0,0,0,0,10"/></g><g transform="translate(412.5,37.5)"><path fill="#d1d1d1" transform="rotate(146.65834817864405)" d="M0,10A-10,10,0,0,1,0,-10A-10,10,0,0,0,0,10"/></g><g transform="translate(437.5,37.5)"><path fill="#d1d1d1" transform="rotate(148.8959797534123)" d="M0,10A-10,10,0,0,1,0,-10A-10,10,0,0,0,0,10"/></g><g transform="translate(462.5,37.5)"><path fill="#d1d1d1" transform="rotate(150.87723241396253)" d="M0,10A-10,10,0,0,1,0,-10A-10,10,0,0,0,0,10"/></g><g transform="translate(487.5,37.5)"><path fill="#d1d1d1" transform="rotate(152.63976585221457)" d="M0,10A-10,10,0,0,1,0,-10A-10,10,0,0,0,0,10"/></g><g transform="translate(12.5,62.5)"><path fill="#d1d1d1" transform="rotate(51.73805465412548)" d="M0,10A-10,10,0,0,1,0,-10A-10,10,0,0,0,0,10"/></g><g transform="translate(37.5,62.5)"><path fill="#d1d1d1" transform="rotate(57.820252789654546)" d="M0,10A-10,10,0,0,1,0,-10A-10,10,0,0,0,0,10"/></g><g transform="translate(62.5,62.5)"><path fill="#d1d1d1" transform="rotate(64.83559996004371)" d="M0,10A-10,10,0,0,1,0,-10A-10,10,0,0,0,0,10"/></g><g transform="translate(87.5,62.5)"><path fill="#d1d1d1" transform="rotate(72.75716739971682)" d="M0,10A-10,10,0,0,1,0,-10A-10,10,0,0,0,0,10"/></g><g transform="translate(112.5,62.5)"><path fill="#d1d1d1" transform="rotate(81.41675797486732)" d="M0,10A-10,10,0,0,1,0,-10A-10,10,0,0,0,0,10"/></g><g transform="translate(137.5,62.5)"><path fill="#d1d1d1" transform="rotate(90.48687966762232)" d="M0,10A-10,10,0,0,1,0,-10A-10,10,0,0,0,0,10"/></g><g transform="translate(162.5,62.5)"><path fill="#d1d1d1" transform="rotate(99.53286539555963)" d="M0,10A-10,10,0,0,1,0,-10A-10,10,0,0,0,0,10"/></g><g transform="translate(187.5,62.5)"><path fill="#d1d1d1" transform="rotate(108.12672959217505)" d="M0,10A-10,10,0,0,1,0,-10A-10,10,0,0,0,0,10"/></g><g transform="translate(212.5,62.5)"><path fill="#d1d1d1" transform="rotate(115.95687917776586)" d="M0,10A-10,10,0,0,1,0,-10A-10,10,0,0,0,0,10"/></g><g transform="translate(237.5,62.5)"><path fill="#d1d1d1" transform="rotate(122.87199054332874)" d="M0,10A-10,10,0,0,1,0,-10A-10,10,0,0,0,0,10"/></g><g transform="translate(262.5,62.5)"><path fill="#d1d1d1" transform="rotate(128.85735980024018)" d="M0,10A-10,10,0,0,1,0,-10A-10,10,0,0,0,0,10"/></g><g transform="translate(287.5,62.5)"><path fill="#d1d1d1" transform="rotate(133.98267967237115)" d="M0,10A-10,10,0,0,1,0,-10A-10,10,0,0,0,0,10"/></g><g transform="translate(312.5,62.5)"><path fill="#d1d1d1" transform="rotate(138.3548052691015)" d="M0,10A-10,10,0,0,1,0,-10A-10,10,0,0,0,0,10"/></g><g transform="translate(337.5,62.5)"><path fill="#d1d1d1" transform="rotate(142.08739477735958)" d="M0,10A-10,10,0,0,1,0,-10A-10,10,0,0,0,0,10"/></g><g transform="translate(362.5,62.5)"><path fill="#d1d1d1" transform="rotate(145.2856001234125)" d="M0,10A-10,10,0,0,1,0,-10A-10,10,0,0,0,0,10"/></g><g transform="translate(387.5,62.5)"><path fill="#d1d1d1" transform="rotate(148.0403091160027)" d="M0,10A-10,10,0,0,1,0,-10A-10,10,0,0,0,0,10"/></g><g transform="translate(412.5,62.5)"><path fill="#d1d1d1" transform="rotate(150.42735888496418)" d="M0,10A-10,10,0,0,1,0,-10A-10,10,0,0,0,0,10"/></g><g transform="translate(437.5,62.5)"><path fill="#d1d1d1" transform="rotate(152.50890895661922)" d="M0,10A-10,10,0,0,1,0,-10A-10,10,0,0,0,0,10"/></g><g transform="translate(462.5,62.5)"><path fill="#d1d1d1" transform="rotate(154.3355073681439)" d="M0,10A-10,10,0,0,1,0,-10A-10,10,0,0,0,0,10"/></g><g transform="translate(487.5,62.5)"><path fill="#d1d1d1" transform="rotate(155.94817730446917)" d="M0,10A-10,10,0,0,1,0,-10A-10,10,0,0,0,0,10"/></g><g transform="translate(12.5,87.5)"><path fill="#d1d1d1" transform="rotate(46.82424262366732)" d="M0,10A-10,10,0,0,1,0,-10A-10,10,0,0,0,0,10"/></g><g transform="translate(37.5,87.5)"><path fill="#d1d1d1" transform="rotate(53.181792076426376)" d="M0,10A-10,10,0,0,1,0,-10A-10,10,0,0,0,0,10"/></g><g transform="translate(62.5,87.5)"><path fill="#d1d1d1" transform="rotate(60.79847334288081)" d="M0,10A-10,10,0,0,1,0,-10A-10,10,0,0,0,0,10"/></g><g transform="translate(87.5,87.5)"><path fill="#d1d1d1" transform="rotate(69.73379567609214)" d="M0,10A-10,10,0,0,1,0,-10A-10,10,0,0,0,0,10"/></g><g transform="translate(112.5,87.5)"><path fill="#d1d1d1" transform="rotate(79.82013821674)" d="M0,10A-10,10,0,0,1,0,-10A-10,10,0,0,0,0,10"/></g><g transform="translate(137.5,87.5)"><path fill="#d1d1d1" transform="rotate(90.57922290306311)" d="M0,10A-10,10,0,0,1,0,-10A-10,10,0,0,0,0,10"/></g><g transform="translate(162.5,87.5)"><path fill="#d1d1d1" transform="rotate(101.29808429207868)" d="M0,10A-10,10,0,0,1,0,-10A-10,10,0,0,0,0,10"/></g><g transform="translate(187.5,87.5)"><path fill="#d1d1d1" transform="rotate(111.27893378665824)" d="M0,10A-10,10,0,0,1,0,-10A-10,10,0,0,0,0,10"/></g><g transform="translate(212.5,87.5)"><path fill="#d1d1d1" transform="rotate(120.07665363376148)" d="M0,10A-10,10,0,0,1,0,-10A-10,10,0,0,0,0,10"/></g><g transform="translate(237.5,87.5)"><path fill="#d1d1d1" transform="rotate(127.55346864549179)" d="M0,10A-10,10,0,0,1,0,-10A-10,10,0,0,0,0,10"/></g><g transform="translate(262.5,87.5)"><path fill="#d1d1d1" transform="rotate(133.78568321175104)" d="M0,10A-10,10,0,0,1,0,-10A-10,10,0,0,0,0,10"/></g><g transform="translate(287.5,87.5)"><path fill="#d1d1d1" transform="rotate(138.94550952895736)" d="M0,10A-10,10,0,0,1,0,-10A-10,10,0,0,0,0,10"/></g><g transform="translate(312.5,87.5)"><path fill="#d1d1d1" transform="rotate(143.2227861193521)" d="M0,10A-10,10,0,0,1,0,-10A-10,10,0,0,0,0,10"/></g><g transform="translate(337.5,87.5)"><path fill="#d1d1d1" transform="rotate(146.7888573671266)" d="M0,10A-10,10,0,0,1,0,-10A-10,10,0,0,0,0,10"/></g><g transform="translate(362.5,87.5)"><path fill="#d1d1d1" transform="rotate(149.78571341312647)" d="M0,10A-10,10,0,0,1,0,-10A-10,10,0,0,0,0,10"/></g><g transform="translate(387.5,87.5)"><path fill="#d1d1d1" transform="rotate(152.32650691915677)" d="M0,10A-10,10,0,0,1,0,-10A-10,10,0,0,0,0,10"/></g><g transform="translate(412.5,87.5)"><path fill="#d1d1d1" transform="rotate(154.499935349539)" d="M0,10A-10,10,0,0,1,0,-10A-10,10,0,0,0,0,10"/></g><g transform="translate(437.5,87.5)"><path fill="#d1d1d1" transform="rotate(156.37520990127302)" d="M0,10A-10,10,0,0,1,0,-10A-10,10,0,0,0,0,10"/></g><g transform="translate(462.5,87.5)"><path fill="#d1d1d1" transform="rotate(158.00643987557774)" d="M0,10A-10,10,0,0,1,0,-10A-10,10,0,0,0,0,10"/></g><g transform="translate(487.5,87.5)"><path fill="#d1d1d1" transform="rotate(159.43615778008322)" d="M0,10A-10,10,0,0,1,0,-10A-10,10,0,0,0,0,10"/></g><g transform="translate(12.5,112.5)"><path fill="#d1d1d1" transform="rotate(40.81520969566034)" d="M0,10A-10,10,0,0,1,0,-10A-10,10,0,0,0,0,10"/></g><g transform="translate(37.5,112.5)"><path fill="#d1d1d1" transform="rotate(47.267740186923675)" d="M0,10A-10,10,0,0,1,0,-10A-10,10,0,0,0,0,10"/></g><g transform="translate(62.5,112.5)"><path fill="#d1d1d1" transform="rotate(55.40428889605805)" d="M0,10A-10,10,0,0,1,0,-10A-10,10,0,0,0,0,10"/></g><g transform="translate(87.5,112.5)"><path fill="#d1d1d1" transform="rotate(65.50266044030884)" d="M0,10A-10,10,0,0,1,0,-10A-10,10,0,0,0,0,10"/></g><g transform="translate(112.5,112.5)"><path fill="#d1d1d1" transform="rotate(77.50533141052497)" d="M0,10A-10,10,0,0,1,0,-10A-10,10,0,0,0,0,10"/></g><g transform="translate(137.5,112.5)"><path fill="#d1d1d1" transform="rotate(90.7147906929559)" d="M0,10A-10,10,0,0,1,0,-10A-10,10,0,0,0,0,10"/></g><g transform="translate(162.5,112.5)"><path fill="#d1d1d1" transform="rotate(103.85000901609187)" d="M0,10A-10,10,0,0,1,0,-10A-10,10,0,0,0,0,10"/></g><g transform="translate(187.5,112.5)"><path fill="#d1d1d1" transform="rotate(115.66998085361114)" d="M0,10A-10,10,0,0,1,0,-10A-10,10,0,0,0,0,10"/></g><g transform="translate(212.5,112.5)"><path fill="#d1d1d1" transform="rotate(125.55322225892046)" d="M0,10A-10,10,0,0,1,0,-10A-10,10,0,0,0,0,10"/></g><g transform="translate(237.5,112.5)"><path fill="#d1d1d1" transform="rotate(133.49409321017538)" d="M0,10A-10,10,0,0,1,0,-10A-10,10,0,0,0,0,10"/></g><g transform="translate(262.5,112.5)"><path fill="#d1d1d1" transform="rotate(139.78809997373304)" d="M0,10A-10,10,0,0,1,0,-10A-10,10,0,0,0,0,10"/></g><g transform="translate(287.5,112.5)"><path fill="#d1d1d1" transform="rotate(144.7871370520098)" d="M0,10A-10,10,0,0,1,0,-10A-10,10,0,0,0,0,10"/></g><g transform="translate(312.5,112.5)"><path fill="#d1d1d1" transform="rotate(148.79679872096352)" d="M0,10A-10,10,0,0,1,0,-10A-10,10,0,0,0,0,10"/></g><g transform="translate(337.5,112.5)"><path fill="#d1d1d1" transform="rotate(152.0546417971018)" d="M0,10A-10,10,0,0,1,0,-10A-10,10,0,0,0,0,10"/></g><g transform="translate(362.5,112.5)"><path fill="#d1d1d1" transform="rotate(154.7378065556802)" d="M0,10A-10,10,0,0,1,0,-10A-10,10,0,0,0,0,10"/></g><g transform="translate(387.5,112.5)"><path fill="#d1d1d1" transform="rotate(156.97684218718683)" d="M0,10A-10,10,0,0,1,0,-10A-10,10,0,0,0,0,10"/></g><g transform="translate(412.5,112.5)"><path fill="#d1d1d1" transform="rotate(158.86817392923737)" d="M0,10A-10,10,0,0,1,0,-10A-10,10,0,0,0,0,10"/></g><g transform="translate(437.5,112.5)"><path fill="#d1d1d1" transform="rotate(160.4836486530589)" d="M0,10A-10,10,0,0,1,0,-10A-10,10,0,0,0,0,10"/></g><g transform="translate(462.5,112.5)"><path fill="#d1d1d1" transform="rotate(161.8774266037583)" d="M0,10A-10,10,0,0,1,0,-10A-10,10,0,0,0,0,10"/></g><g transform="translate(487.5,112.5)"><path fill="#d1d1d1" transform="rotate(163.0908559581141)" d="M0,10A-10,10,0,0,1,0,-10A-10,10,0,0,0,0,10"/></g><g transform="translate(12.5,137.5)"><path fill="#d1d1d1" transform="rotate(33.4840470833401)" d="M0,10A-10,10,0,0,1,0,-10A-10,10,0,0,0,0,10"/></g><g transform="translate(37.5,137.5)"><path fill="#d1d1d1" transform="rotate(39.66178304674804)" d="M0,10A-10,10,0,0,1,0,-10A-10,10,0,0,0,0,10"/></g><g transform="translate(62.5,137.5)"><path fill="#d1d1d1" transform="rotate(47.99588241961794)" d="M0,10A-10,10,0,0,1,0,-10A-10,10,0,0,0,0,10"/></g><g transform="translate(87.5,137.5)"><path fill="#d1d1d1" transform="rotate(59.25046509969158)" d="M0,10A-10,10,0,0,1,0,-10A-10,10,0,0,0,0,10"/></g><g transform="translate(112.5,137.5)"><path fill="#d1d1d1" transform="rotate(73.86384962313166)" d="M0,10A10,10,0,0,0,0,-10A-9.971237762503774,10,0,0,1,0,10"/></g><g transform="translate(137.5,137.5)"><path fill="#d1d1d1" transform="rotate(90.93320211505237)" d="M0,10A10,10,0,0,0,0,-10A-9.808047102499083,10,0,0,1,0,10"/></g><g transform="translate(162.5,137.5)"><path fill="#d1d1d1" transform="rotate(107.84318953818328)" d="M0,10A10,10,0,0,0,0,-10A-9.988565370753932,10,0,0,1,0,10"/></g><g transform="translate(187.5,137.5)"><path fill="#d1d1d1" transform="rotate(122.10844670346735)" d="M0,10A-10,10,0,0,1,0,-10A-10,10,0,0,0,0,10"/></g><g transform="translate(212.5,137.5)"><path fill="#d1d1d1" transform="rotate(133.0182865422686)" d="M0,10A-10,10,0,0,1,0,-10A-10,10,0,0,0,0,10"/></g><g transform="translate(237.5,137.5)"><path fill="#d1d1d1" transform="rotate(141.08657682918155)" d="M0,10A-10,10,0,0,1,0,-10A-10,10,0,0,0,0,10"/></g><g transform="translate(262.5,137.5)"><path fill="#d1d1d1" transform="rotate(147.07568711416064)" d="M0,10A-10,10,0,0,1,0,-10A-10,10,0,0,0,0,10"/></g><g transform="translate(287.5,137.5)"><path fill="#d1d1d1" transform="rotate(151.60613886420106)" d="M0,10A-10,10,0,0,1,0,-10A-10,10,0,0,0,0,10"/></g><g transform="translate(312.5,137.5)"><path fill="#d1d1d1" transform="rotate(155.1124580687116)" d="M0,10A-10,10,0,0,1,0,-10A-10,10,0,0,0,0,10"/></g><g transform="translate(337.5,137.5)"><path fill="#d1d1d1" transform="rotate(157.88740163304118)" d="M0,10A-10,10,0,0,1,0,-10A-10,10,0,0,0,0,10"/></g><g transform="translate(362.5,137.5)"><path fill="#d1d1d1" transform="rotate(160.12842950936843)" d="M0,10A-10,10,0,0,1,0,-10A-10,10,0,0,0,0,10"/></g><g transform="translate(387.5,137.5)"><path fill="#d1d1d1" transform="rotate(161.97085970325338)" d="M0,10A-10,10,0,0,1,0,-10A-10,10,0,0,0,0,10"/></g><g transform="translate(412.5,137.5)"><path fill="#d1d1d1" transform="rotate(163.50937724828776)" d="M0,10A-10,10,0,0,1,0,-10A-10,10,0,0,0,0,10"/></g><g transform="translate(437.5,137.5)"><path fill="#d1d1d1" transform="rotate(164.81168802887075)" d="M0,10A-10,10,0,0,1,0,-10A-10,10,0,0,0,0,10"/></g><g transform="translate(462.5,137.5)"><path fill="#d1d1d1" transform="rotate(165.92722641099522)" d="M0,10A-10,10,0,0,1,0,-10A-10,10,0,0,0,0,10"/></g><g transform="translate(487.5,137.5)"><path fill="#d1d1d1" transform="rotate(166.89279251428943)" d="M0,10A-10,10,0,0,1,0,-10A-10,10,0,0,0,0,10"/></g><g transform="translate(12.5,162.5)"><path fill="#d1d1d1" transform="rotate(24.670750299193315)" d="M0,10A-10,10,0,0,1,0,-10A-10,10,0,0,0,0,10"/></g><g transform="translate(37.5,162.5)"><path fill="#d1d1d1" transform="rotate(29.92962057027745)" d="M0,10A-10,10,0,0,1,0,-10A-10,10,0,0,0,0,10"/></g><g transform="translate(62.5,162.5)"><path fill="#d1d1d1" transform="rotate(37.63543359438677)" d="M0,10A-10,10,0,0,1,0,-10A-10,10,0,0,0,0,10"/></g><g transform="translate(87.5,162.5)"><path fill="#d1d1d1" transform="rotate(49.411403907368)" d="M0,10A10,10,0,0,0,0,-10A-9.009930480430253,10,0,0,1,0,10"/></g><g transform="translate(112.5,162.5)"><path fill="#d1d1d1" transform="rotate(67.38093152162668)" d="M0,10A10,10,0,0,0,0,-10A-6.00843245611812,10,0,0,1,0,10"/></g><g transform="translate(137.5,162.5)"><path fill="#d1d1d1" transform="rotate(91.34378434570868)" d="M0,10A10,10,0,0,0,0,-10A-4.5708791433634195,10,0,0,1,0,10"/></g><g transform="translate(162.5,162.5)"><path fill="#d1d1d1" transform="rotate(114.8708297917306)" d="M0,10A10,10,0,0,0,0,-10A-6.3127401467815245,10,0,0,1,0,10"/></g><g transform="translate(187.5,162.5)"><path fill="#d1d1d1" transform="rotate(132.10330095344287)" d="M0,10A10,10,0,0,0,0,-10A-9.266634197715556,10,0,0,1,0,10"/></g><g transform="translate(212.5,162.5)"><path fill="#d1d1d1" transform="rotate(143.3445472503488)" d="M0,10A-10,10,0,0,1,0,-10A-10,10,0,0,0,0,10"/></g><g transform="translate(237.5,162.5)"><path fill="#d1d1d1" transform="rotate(150.72620396238065)" d="M0,10A-10,10,0,0,1,0,-10A-10,10,0,0,0,0,10"/></g><g transform="translate(262.5,162.5)"><path fill="#d1d1d1" transform="rotate(155.78938025179514)" d="M0,10A-10,10,0,0,1,0,-10A-10,10,0,0,0,0,10"/></g><g transform="translate(287.5,162.5)"><path fill="#d1d1d1" transform="rotate(159.42585453883063)" d="M0,10A-10,10,0,0,1,0,-10A-10,10,0,0,0,0,10"/></g><g transform="translate(312.5,162.5)"><path fill="#d1d1d1" transform="rotate(162.1440347791032)" d="M0,10A-10,10,0,0,1,0,-10A-10,10,0,0,0,0,10"/></g><g transform="translate(337.5,162.5)"><path fill="#d1d1d1" transform="rotate(164.2440460112254)" d="M0,10A-10,10,0,0,1,0,-10A-10,10,0,0,0,0,10"/></g><g transform="translate(362.5,162.5)"><path fill="#d1d1d1" transform="rotate(165.91109010312528)" d="M0,10A-10,10,0,0,1,0,-10A-10,10,0,0,0,0,10"/></g><g transform="translate(387.5,162.5)"><path fill="#d1d1d1" transform="rotate(167.26442542219348)" d="M0,10A-10,10,0,0,1,0,-10A-10,10,0,0,0,0,10"/></g><g transform="translate(412.5,162.5)"><path fill="#d1d1d1" transform="rotate(168.38382386314393)" d="M0,10A-10,10,0,0,1,0,-10A-10,10,0,0,0,0,10"/></g><g transform="translate(437.5,162.5)"><path fill="#d1d1d1" transform="rotate(169.32444523801857)" d="M0,10A-10,10,0,0,1,0,-10A-10,10,0,0,0,0,10"/></g><g transform="translate(462.5,162.5)"><path fill="#d1d1d1" transform="rotate(170.12554515477947)" d="M0,10A-10,10,0,0,1,0,-10A-10,10,0,0,0,0,10"/></g><g transform="translate(487.5,162.5)"><path fill="#d1d1d1" transform="rotate(170.81576867206147)" d="M0,10A-10,10,0,0,1,0,-10A-10,10,0,0,0,0,10"/></g><g transform="translate(12.5,187.5)"><path fill="#d1d1d1" transform="rotate(14.422515672824886)" d="M0,10A-10,10,0,0,1,0,-10A-10,10,0,0,0,0,10"/></g><g transform="translate(37.5,187.5)"><path fill="#d1d1d1" transform="rotate(17.866071666703476)" d="M0,10A-10,10,0,0,1,0,-10A-10,10,0,0,0,0,10"/></g><g transform="translate(62.5,187.5)"><path fill="#d1d1d1" transform="rotate(23.351145289079767)" d="M0,10A10,10,0,0,0,0,-10A-9.68174985350737,10,0,0,1,0,10"/></g><g transform="translate(87.5,187.5)"><path fill="#d1d1d1" transform="rotate(33.164626597878026)" d="M0,10A10,10,0,0,0,0,-10A-4.98765512361593,10,0,0,1,0,10"/></g><g transform="translate(112.5,187.5)"><path fill="#d1d1d1" transform="rotate(53.34477253857261)" d="M0,10A10,10,0,0,0,0,-10A1.4311356637414256,10,0,0,0,0,10"/></g><g transform="translate(137.5,187.5)"><path fill="#d1d1d1" transform="rotate(92.39911532136284)" d="M0,10A10,10,0,0,0,0,-10A4.121748283758551,10,0,0,0,0,10"/></g><g transform="translate(162.5,187.5)"><path fill="#d1d1d1" transform="rotate(129.6232628748464)" d="M0,10A10,10,0,0,0,0,-10A0.8423671251955533,10,0,0,0,0,10"/></g><g transform="translate(187.5,187.5)"><path fill="#d1d1d1" transform="rotate(148.21876824517113)" d="M0,10A10,10,0,0,0,0,-10A-5.6721404160037,10,0,0,1,0,10"/></g><g transform="translate(212.5,187.5)"><path fill="#d1d1d1" transform="rotate(157.38076452296062)" d="M0,10A10,10,0,0,0,0,-10A-9.864776220804911,10,0,0,1,0,10"/></g><g transform="translate(237.5,187.5)"><path fill="#d1d1d1" transform="rotate(162.57501027742512)" d="M0,10A-10,10,0,0,1,0,-10A-10,10,0,0,0,0,10"/></g><g transform="translate(262.5,187.5)"><path fill="#d1d1d1" transform="rotate(165.86941858085314)" d="M0,10A-10,10,0,0,1,0,-10A-10,10,0,0,0,0,10"/></g><g transform="translate(287.5,187.5)"><path fill="#d1d1d1" transform="rotate(168.13137362322476)" d="M0,10A-10,10,0,0,1,0,-10A-10,10,0,0,0,0,10"/></g><g transform="translate(312.5,187.5)"><path fill="#d1d1d1" transform="rotate(169.77576690601654)" d="M0,10A-10,10,0,0,1,0,-10A-10,10,0,0,0,0,10"/></g><g transform="translate(337.5,187.5)"><path fill="#d1d1d1" transform="rotate(171.02324128055284)" d="M0,10A-10,10,0,0,1,0,-10A-10,10,0,0,0,0,10"/></g><g transform="translate(362.5,187.5)"><path fill="#d1d1d1" transform="rotate(172.00117528171322)" d="M0,10A-10,10,0,0,1,0,-10A-10,10,0,0,0,0,10"/></g><g transform="translate(387.5,187.5)"><path fill="#d1d1d1" transform="rotate(172.78798537539103)" d="M0,10A-10,10,0,0,1,0,-10A-10,10,0,0,0,0,10"/></g><g transform="translate(412.5,187.5)"><path fill="#d1d1d1" transform="rotate(173.43448582273143)" d="M0,10A-10,10,0,0,1,0,-10A-10,10,0,0,0,0,10"/></g><g transform="translate(437.5,187.5)"><path fill="#d1d1d1" transform="rotate(173.97500705430727)" d="M0,10A-10,10,0,0,1,0,-10A-10,10,0,0,0,0,10"/></g><g transform="translate(462.5,187.5)"><path fill="#d1d1d1" transform="rotate(174.43355775918118)" d="M0,10A-10,10,0,0,1,0,-10A-10,10,0,0,0,0,10"/></g><g transform="translate(487.5,187.5)"><path fill="#d1d1d1" transform="rotate(174.82742258496165)" d="M0,10A-10,10,0,0,1,0,-10A-10,10,0,0,0,0,10"/></g><g transform="translate(12.5,212.5)"><path fill="#d1d1d1" transform="rotate(3.1492562397777135)" d="M0,10A-10,10,0,0,1,0,-10A-10,10,0,0,0,0,10"/></g><g transform="translate(37.5,212.5)"><path fill="#d1d1d1" transform="rotate(3.944937109452013)" d="M0,10A-10,10,0,0,1,0,-10A-10,10,0,0,0,0,10"/></g><g transform="translate(62.5,212.5)"><path fill="#d1d1d1" transform="rotate(5.277094229031093)" d="M0,10A10,10,0,0,0,0,-10A-8.87790492595924,10,0,0,1,0,10"/></g><g transform="translate(87.5,212.5)"><path fill="#d1d1d1" transform="rotate(7.9589573828246785)" d="M0,10A10,10,0,0,0,0,-10A-1.9697766682563742,10,0,0,1,0,10"/></g><g transform="translate(112.5,212.5)"><path fill="#d1d1d1" transform="rotate(16.03953607765723)" d="M0,10A10,10,0,0,0,0,-10A6.320954075059662,10,0,0,0,0,10"/></g><g transform="translate(137.5,212.5)"><path fill="#d1d1d1" transform="rotate(101.08024875673811)" d="M0,10A10,10,0,0,0,0,-10A9.690100801721757,10,0,0,0,0,10"/></g><g transform="translate(162.5,212.5)"><path fill="#d1d1d1" transform="rotate(165.51187720809128)" d="M0,10A10,10,0,0,0,0,-10A5.577647558224959,10,0,0,0,0,10"/></g><g transform="translate(187.5,212.5)"><path fill="#d1d1d1" transform="rotate(172.44934781629468)" d="M0,10A10,10,0,0,0,0,-10A-2.891486917251182,10,0,0,1,0,10"/></g><g transform="translate(212.5,212.5)"><path fill="#d1d1d1" transform="rotate(174.9061585366056)" d="M0,10A10,10,0,0,0,0,-10A-9.276497474679084,10,0,0,1,0,10"/></g><g transform="translate(237.5,212.5)"><path fill="#d1d1d1" transform="rotate(176.15849817528832)" d="M0,10A-10,10,0,0,1,0,-10A-10,10,0,0,0,0,10"/></g><g transform="translate(262.5,212.5)"><path fill="#d1d1d1" transform="rotate(176.91704818576196)" d="M0,10A-10,10,0,0,1,0,-10A-10,10,0,0,0,0,10"/></g><g transform="translate(287.5,212.5)"><path fill="#d1d1d1" transform="rotate(177.42559637877213)" d="M0,10A-10,10,0,0,1,0,-10A-10,10,0,0,0,0,10"/></g><g transform="translate(312.5,212.5)"><path fill="#d1d1d1" transform="rotate(177.79019748497473)" d="M0,10A-10,10,0,0,1,0,-10A-10,10,0,0,0,0,10"/></g><g transform="translate(337.5,212.5)"><path fill="#d1d1d1" transform="rotate(178.06437112074113)" d="M0,10A-10,10,0,0,1,0,-10A-10,10,0,0,0,0,10"/></g><g transform="translate(362.5,212.5)"><path fill="#d1d1d1" transform="rotate(178.27803809982805)" d="M0,10A-10,10,0,0,1,0,-10A-10,10,0,0,0,0,10"/></g><g transform="translate(387.5,212.5)"><path fill="#d1d1d1" transform="rotate(178.44923309609595)" d="M0,10A-10,10,0,0,1,0,-10A-10,10,0,0,0,0,10"/></g><g transform="translate(412.5,212.5)"><path fill="#d1d1d1" transform="rotate(178.58947259635133)" d="M0,10A-10,10,0,0,1,0,-10A-10,10,0,0,0,0,10"/></g><g transform="translate(437.5,212.5)"><path fill="#d1d1d1" transform="rotate(178.70645520573487)" d="M0,10A-10,10,0,0,1,0,-10A-10,10,0,0,0,0,10"/></g><g transform="translate(462.5,212.5)"><path fill="#d1d1d1" transform="rotate(178.8055224521162)" d="M0,10A-10,10,0,0,1,0,-10A-10,10,0,0,0,0,10"/></g><g transform="translate(487.5,212.5)"><path fill="#d1d1d1" transform="rotate(178.89049662415962)" d="M0,10A-10,10,0,0,1,0,-10A-10,10,0,0,0,0,10"/></g><g transform="translate(12.5,237.5)"><path fill="#d1d1d1" transform="rotate(351.6298606541276)" d="M0,10A-10,10,0,0,1,0,-10A-10,10,0,0,0,0,10"/></g><g transform="translate(37.5,237.5)"><path fill="#d1d1d1" transform="rotate(349.55118910835364)" d="M0,10A-10,10,0,0,1,0,-10A-10,10,0,0,0,0,10"/></g><g transform="translate(62.5,237.5)"><path fill="#d1d1d1" transform="rotate(346.1257175293047)" d="M0,10A10,10,0,0,0,0,-10A-9.171757163744399,10,0,0,1,0,10"/></g><g transform="translate(87.5,237.5)"><path fill="#d1d1d1" transform="rotate(339.5002652173876)" d="M0,10A10,10,0,0,0,0,-10A-2.9521837206015027,10,0,0,1,0,10"/></g><g transform="translate(112.5,237.5)"><path fill="#d1d1d1" transform="rotate(322.4466101157777)" d="M0,10A10,10,0,0,0,0,-10A4.759703943034771,10,0,0,0,0,10"/></g><g transform="translate(137.5,237.5)"><path fill="#d1d1d1" transform="rotate(265.8116330703309)" d="M0,10A10,10,0,0,0,0,-10A7.919489147545202,10,0,0,0,0,10"/></g><g transform="translate(162.5,237.5)"><path fill="#d1d1d1" transform="rotate(214.64450011195754)" d="M0,10A10,10,0,0,0,0,-10A4.064109428394265,10,0,0,0,0,10"/></g><g transform="translate(187.5,237.5)"><path fill="#d1d1d1" transform="rotate(199.51783477580182)" d="M0,10A10,10,0,0,0,0,-10A-3.800371477155837,10,0,0,1,0,10"/></g><g transform="translate(212.5,237.5)"><path fill="#d1d1d1" transform="rotate(193.40767753286934)" d="M0,10A10,10,0,0,0,0,-10A-9.502908271668105,10,0,0,1,0,10"/></g><g transform="translate(237.5,237.5)"><path fill="#d1d1d1" transform="rotate(190.17983342870076)" d="M0,10A-10,10,0,0,1,0,-10A-10,10,0,0,0,0,10"/></g><g transform="translate(262.5,237.5)"><path fill="#d1d1d1" transform="rotate(188.19599433304637)" d="M0,10A-10,10,0,0,1,0,-10A-10,10,0,0,0,0,10"/></g><g transform="translate(287.5,237.5)"><path fill="#d1d1d1" transform="rotate(186.85616313089446)" d="M0,10A-10,10,0,0,1,0,-10A-10,10,0,0,0,0,10"/></g><g transform="translate(312.5,237.5)"><path fill="#d1d1d1" transform="rotate(185.89150739647195)" d="M0,10A-10,10,0,0,1,0,-10A-10,10,0,0,0,0,10"/></g><g transform="translate(337.5,237.5)"><path fill="#d1d1d1" transform="rotate(185.16417625395772)" d="M0,10A-10,10,0,0,1,0,-10A-10,10,0,0,0,0,10"/></g><g transform="translate(362.5,237.5)"><path fill="#d1d1d1" transform="rotate(184.596351752665)" d="M0,10A-10,10,0,0,1,0,-10A-10,10,0,0,0,0,10"/></g><g transform="translate(387.5,237.5)"><path fill="#d1d1d1" transform="rotate(184.14083107083513)" d="M0,10A-10,10,0,0,1,0,-10A-10,10,0,0,0,0,10"/></g><g transform="translate(412.5,237.5)"><path fill="#d1d1d1" transform="rotate(183.7673393192892)" d="M0,10A-10,10,0,0,1,0,-10A-10,10,0,0,0,0,10"/></g><g transform="translate(437.5,237.5)"><path fill="#d1d1d1" transform="rotate(183.4555741492245)" d="M0,10A-10,10,0,0,1,0,-10A-10,10,0,0,0,0,10"/></g><g transform="translate(462.5,237.5)"><path fill="#d1d1d1" transform="rotate(183.19141597497614)" d="M0,10A-10,10,0,0,1,0,-10A-10,10,0,0,0,0,10"/></g><g transform="translate(487.5,237.5)"><path fill="#d1d1d1" transform="rotate(182.96474288498376)" d="M0,10A-10,10,0,0,1,0,-10A-10,10,0,0,0,0,10"/></g><g transform="translate(12.5,262.5)"><path fill="#d1d1d1" transform="rotate(340.746221004683)" d="M0,10A-10,10,0,0,1,0,-10A-10,10,0,0,0,0,10"/></g><g transform="translate(37.5,262.5)"><path fill="#d1d1d1" transform="rotate(336.35661354020897)" d="M0,10A-10,10,0,0,1,0,-10A-10,10,0,0,0,0,10"/></g><g transform="translate(62.5,262.5)"><path fill="#d1d1d1" transform="rotate(329.6142875412526)" d="M0,10A10,10,0,0,0,0,-10A-9.977379797119024,10,0,0,1,0,10"/></g><g transform="translate(87.5,262.5)"><path fill="#d1d1d1" transform="rotate(318.40872591308766)" d="M0,10A10,10,0,0,0,0,-10A-6.974302712172112,10,0,0,1,0,10"/></g><g transform="translate(112.5,262.5)"><path fill="#d1d1d1" transform="rotate(298.71887993956796)" d="M0,10A10,10,0,0,0,0,-10A-2.009943921322666,10,0,0,1,0,10"/></g><g transform="translate(137.5,262.5)"><path fill="#d1d1d1" transform="rotate(268.23310447667023)" d="M0,10A10,10,0,0,0,0,-10A0.1500812048936625,10,0,0,0,0,10"/></g><g transform="translate(162.5,262.5)"><path fill="#d1d1d1" transform="rotate(238.63317167440073)" d="M0,10A10,10,0,0,0,0,-10A-2.478088274463424,10,0,0,1,0,10"/></g><g transform="translate(187.5,262.5)"><path fill="#d1d1d1" transform="rotate(220.08026949688565)" d="M0,10A10,10,0,0,0,0,-10A-7.475718990295556,10,0,0,1,0,10"/></g><g transform="translate(212.5,262.5)"><path fill="#d1d1d1" transform="rotate(209.50507465743613)" d="M0,10A-10,10,0,0,1,0,-10A-10,10,0,0,0,0,10"/></g><g transform="translate(237.5,262.5)"><path fill="#d1d1d1" transform="rotate(203.08746592556878)" d="M0,10A-10,10,0,0,1,0,-10A-10,10,0,0,0,0,10"/></g><g transform="translate(262.5,262.5)"><path fill="#d1d1d1" transform="rotate(198.87665218798185)" d="M0,10A-10,10,0,0,1,0,-10A-10,10,0,0,0,0,10"/></g><g transform="translate(287.5,262.5)"><path fill="#d1d1d1" transform="rotate(195.93066492918547)" d="M0,10A-10,10,0,0,1,0,-10A-10,10,0,0,0,0,10"/></g><g transform="translate(312.5,262.5)"><path fill="#d1d1d1" transform="rotate(193.7645575450486)" d="M0,10A-10,10,0,0,1,0,-10A-10,10,0,0,0,0,10"/></g><g transform="translate(337.5,262.5)"><path fill="#d1d1d1" transform="rotate(192.1092034860524)" d="M0,10A-10,10,0,0,1,0,-10A-10,10,0,0,0,0,10"/></g><g transform="translate(362.5,262.5)"><path fill="#d1d1d1" transform="rotate(190.805017607425)" d="M0,10A-10,10,0,0,1,0,-10A-10,10,0,0,0,0,10"/></g><g transform="translate(387.5,262.5)"><path fill="#d1d1d1" transform="rotate(189.75198262592767)" d="M0,10A-10,10,0,0,1,0,-10A-10,10,0,0,0,0,10"/></g><g transform="translate(412.5,262.5)"><path fill="#d1d1d1" transform="rotate(188.884468875095)" d="M0,10A-10,10,0,0,1,0,-10A-10,10,0,0,0,0,10"/></g><g transform="translate(437.5,262.5)"><path fill="#d1d1d1" transform="rotate(188.15772996074995)" d="M0,10A-10,10,0,0,1,0,-10A-10,10,0,0,0,0,10"/></g><g transform="translate(462.5,262.5)"><path fill="#d1d1d1" transform="rotate(187.5402578059557)" d="M0,10A-10,10,0,0,1,0,-10A-10,10,0,0,0,0,10"/></g><g transform="translate(487.5,262.5)"><path fill="#d1d1d1" transform="rotate(187.0092488290966)" d="M0,10A-10,10,0,0,1,0,-10A-10,10,0,0,0,0,10"/></g><g transform="translate(12.5,287.5)"><path fill="#d1d1d1" transform="rotate(331.1256981109849)" d="M0,10A-10,10,0,0,1,0,-10A-10,10,0,0,0,0,10"/></g><g transform="translate(37.5,287.5)"><path fill="#d1d1d1" transform="rotate(325.3490293264488)" d="M0,10A-10,10,0,0,1,0,-10A-10,10,0,0,0,0,10"/></g><g transform="translate(62.5,287.5)"><path fill="#d1d1d1" transform="rotate(317.20882656576686)" d="M0,10A-10,10,0,0,1,0,-10A-10,10,0,0,0,0,10"/></g><g transform="translate(87.5,287.5)"><path fill="#d1d1d1" transform="rotate(305.5133208481229)" d="M0,10A10,10,0,0,0,0,-10A-9.921363381719111,10,0,0,1,0,10"/></g><g transform="translate(112.5,287.5)"><path fill="#d1d1d1" transform="rotate(289.1394480187862)" d="M0,10A10,10,0,0,0,0,-10A-8.562152710549164,10,0,0,1,0,10"/></g><g transform="translate(137.5,287.5)"><path fill="#d1d1d1" transform="rotate(268.8806211024133)" d="M0,10A10,10,0,0,0,0,-10A-7.737377692216554,10,0,0,1,0,10"/></g><g transform="translate(162.5,287.5)"><path fill="#d1d1d1" transform="rotate(248.88688184998125)" d="M0,10A10,10,0,0,0,0,-10A-8.72802709387747,10,0,0,1,0,10"/></g><g transform="translate(187.5,287.5)"><path fill="#d1d1d1" transform="rotate(233.03039784505)" d="M0,10A10,10,0,0,0,0,-10A-9.976364364053044,10,0,0,1,0,10"/></g><g transform="translate(212.5,287.5)"><path fill="#d1d1d1" transform="rotate(221.77773542882377)" d="M0,10A-10,10,0,0,1,0,-10A-10,10,0,0,0,0,10"/></g><g transform="translate(237.5,287.5)"><path fill="#d1d1d1" transform="rotate(213.94016584000587)" d="M0,10A-10,10,0,0,1,0,-10A-10,10,0,0,0,0,10"/></g><g transform="translate(262.5,287.5)"><path fill="#d1d1d1" transform="rotate(208.36069760381088)" d="M0,10A-10,10,0,0,1,0,-10A-10,10,0,0,0,0,10"/></g><g transform="translate(287.5,287.5)"><path fill="#d1d1d1" transform="rotate(204.25801133486522)" d="M0,10A-10,10,0,0,1,0,-10A-10,10,0,0,0,0,10"/></g><g transform="translate(312.5,287.5)"><path fill="#d1d1d1" transform="rotate(201.14374697328276)" d="M0,10A-10,10,0,0,1,0,-10A-10,10,0,0,0,0,10"/></g><g transform="translate(337.5,287.5)"><path fill="#d1d1d1" transform="rotate(198.71237859548788)" d="M0,10A-10,10,0,0,1,0,-10A-10,10,0,0,0,0,10"/></g><g transform="translate(362.5,287.5)"><path fill="#d1d1d1" transform="rotate(196.76797043893257)" d="M0,10A-10,10,0,0,1,0,-10A-10,10,0,0,0,0,10"/></g><g transform="translate(387.5,287.5)"><path fill="#d1d1d1" transform="rotate(195.180943993488)" d="M0,10A-10,10,0,0,1,0,-10A-10,10,0,0,0,0,10"/></g><g transform="translate(412.5,287.5)"><path fill="#d1d1d1" transform="rotate(193.86294960043153)" d="M0,10A-10,10,0,0,1,0,-10A-10,10,0,0,0,0,10"/></g><g transform="translate(437.5,287.5)"><path fill="#d1d1d1" transform="rotate(192.7520244710683)" d="M0,10A-10,10,0,0,1,0,-10A-10,10,0,0,0,0,10"/></g><g transform="translate(462.5,287.5)"><path fill="#d1d1d1" transform="rotate(191.80359419162141)" d="M0,10A-10,10,0,0,1,0,-10A-10,10,0,0,0,0,10"/></g><g transform="translate(487.5,287.5)"><path fill="#d1d1d1" transform="rotate(190.98485933897516)" d="M0,10A-10,10,0,0,1,0,-10A-10,10,0,0,0,0,10"/></g><g transform="translate(12.5,312.5)"><path fill="#d1d1d1" transform="rotate(322.99833623340976)" d="M0,10A-10,10,0,0,1,0,-10A-10,10,0,0,0,0,10"/></g><g transform="translate(37.5,312.5)"><path fill="#d1d1d1" transform="rotate(316.6335682008803)" d="M0,10A-10,10,0,0,1,0,-10A-10,10,0,0,0,0,10"/></g><g transform="translate(62.5,312.5)"><path fill="#d1d1d1" transform="rotate(308.32494755347926)" d="M0,10A-10,10,0,0,1,0,-10A-10,10,0,0,0,0,10"/></g><g transform="translate(87.5,312.5)"><path fill="#d1d1d1" transform="rotate(297.57388518060304)" d="M0,10A-10,10,0,0,1,0,-10A-10,10,0,0,0,0,10"/></g><g transform="translate(112.5,312.5)"><path fill="#d1d1d1" transform="rotate(284.24930010258464)" d="M0,10A-10,10,0,0,1,0,-10A-10,10,0,0,0,0,10"/></g><g transform="translate(137.5,312.5)"><path fill="#d1d1d1" transform="rotate(269.1808488781306)" d="M0,10A-10,10,0,0,1,0,-10A-10,10,0,0,0,0,10"/></g><g transform="translate(162.5,312.5)"><path fill="#d1d1d1" transform="rotate(254.22234193226302)" d="M0,10A-10,10,0,0,1,0,-10A-10,10,0,0,0,0,10"/></g><g transform="translate(187.5,312.5)"><path fill="#d1d1d1" transform="rotate(241.1539011037963)" d="M0,10A-10,10,0,0,1,0,-10A-10,10,0,0,0,0,10"/></g><g transform="translate(212.5,312.5)"><path fill="#d1d1d1" transform="rotate(230.680625279246)" d="M0,10A-10,10,0,0,1,0,-10A-10,10,0,0,0,0,10"/></g><g transform="translate(237.5,312.5)"><path fill="#d1d1d1" transform="rotate(222.60482968328392)" d="M0,10A-10,10,0,0,1,0,-10A-10,10,0,0,0,0,10"/></g><g transform="translate(262.5,312.5)"><path fill="#d1d1d1" transform="rotate(216.41628139739186)" d="M0,10A-10,10,0,0,1,0,-10A-10,10,0,0,0,0,10"/></g><g transform="translate(287.5,312.5)"><path fill="#d1d1d1" transform="rotate(211.62619512815564)" d="M0,10A-10,10,0,0,1,0,-10A-10,10,0,0,0,0,10"/></g><g transform="translate(312.5,312.5)"><path fill="#d1d1d1" transform="rotate(207.8574803079836)" d="M0,10A-10,10,0,0,1,0,-10A-10,10,0,0,0,0,10"/></g><g transform="translate(337.5,312.5)"><path fill="#d1d1d1" transform="rotate(204.8391749021871)" d="M0,10A-10,10,0,0,1,0,-10A-10,10,0,0,0,0,10"/></g><g transform="translate(362.5,312.5)"><path fill="#d1d1d1" transform="rotate(202.3801438345813)" d="M0,10A-10,10,0,0,1,0,-10A-10,10,0,0,0,0,10"/></g><g transform="translate(387.5,312.5)"><path fill="#d1d1d1" transform="rotate(200.34511807694386)" d="M0,10A-10,10,0,0,1,0,-10A-10,10,0,0,0,0,10"/></g><g transform="translate(412.5,312.5)"><path fill="#d1d1d1" transform="rotate(198.63717010951527)" d="M0,10A-10,10,0,0,1,0,-10A-10,10,0,0,0,0,10"/></g><g transform="translate(437.5,312.5)"><path fill="#d1d1d1" transform="rotate(197.1857334446116)" d="M0,10A-10,10,0,0,1,0,-10A-10,10,0,0,0,0,10"/></g><g transform="translate(462.5,312.5)"><path fill="#d1d1d1" transform="rotate(195.93856487120695)" d="M0,10A-10,10,0,0,1,0,-10A-10,10,0,0,0,0,10"/></g><g transform="translate(487.5,312.5)"><path fill="#d1d1d1" transform="rotate(194.8563462203476)" d="M0,10A-10,10,0,0,1,0,-10A-10,10,0,0,0,0,10"/></g><g transform="translate(12.5,337.5)"><path fill="#d1d1d1" transform="rotate(316.29599348783)" d="M0,10A-10,10,0,0,1,0,-10A-10,10,0,0,0,0,10"/></g><g transform="translate(37.5,337.5)"><path fill="#d1d1d1" transform="rotate(309.8544623803972)" d="M0,10A-10,10,0,0,1,0,-10A-10,10,0,0,0,0,10"/></g><g transform="translate(62.5,337.5)"><path fill="#d1d1d1" transform="rotate(301.93391615865386)" d="M0,10A-10,10,0,0,1,0,-10A-10,10,0,0,0,0,10"/></g><g transform="translate(87.5,337.5)"><path fill="#d1d1d1" transform="rotate(292.37957596503713)" d="M0,10A-10,10,0,0,1,0,-10A-10,10,0,0,0,0,10"/></g><g transform="translate(112.5,337.5)"><path fill="#d1d1d1" transform="rotate(281.32314363841715)" d="M0,10A-10,10,0,0,1,0,-10A-10,10,0,0,0,0,10"/></g><g transform="translate(137.5,337.5)"><path fill="#d1d1d1" transform="rotate(269.35409373604296)" d="M0,10A-10,10,0,0,1,0,-10A-10,10,0,0,0,0,10"/></g><g transform="translate(162.5,337.5)"><path fill="#d1d1d1" transform="rotate(257.4403512271565)" d="M0,10A-10,10,0,0,1,0,-10A-10,10,0,0,0,0,10"/></g><g transform="translate(187.5,337.5)"><path fill="#d1d1d1" transform="rotate(246.5246633736861)" d="M0,10A-10,10,0,0,1,0,-10A-10,10,0,0,0,0,10"/></g><g transform="translate(212.5,337.5)"><path fill="#d1d1d1" transform="rotate(237.14505521959074)" d="M0,10A-10,10,0,0,1,0,-10A-10,10,0,0,0,0,10"/></g><g transform="translate(237.5,337.5)"><path fill="#d1d1d1" transform="rotate(229.3926042182315)" d="M0,10A-10,10,0,0,1,0,-10A-10,10,0,0,0,0,10"/></g><g transform="translate(262.5,337.5)"><path fill="#d1d1d1" transform="rotate(223.09417540978825)" d="M0,10A-10,10,0,0,1,0,-10A-10,10,0,0,0,0,10"/></g><g transform="translate(287.5,337.5)"><path fill="#d1d1d1" transform="rotate(217.9910342151199)" d="M0,10A-10,10,0,0,1,0,-10A-10,10,0,0,0,0,10"/></g><g transform="translate(312.5,337.5)"><path fill="#d1d1d1" transform="rotate(213.83396954162185)" d="M0,10A-10,10,0,0,1,0,-10A-10,10,0,0,0,0,10"/></g><g transform="translate(337.5,337.5)"><path fill="#d1d1d1" transform="rotate(210.41581208948583)" d="M0,10A-10,10,0,0,1,0,-10A-10,10,0,0,0,0,10"/></g><g transform="translate(362.5,337.5)"><path fill="#d1d1d1" transform="rotate(207.57454700485593)" d="M0,10A-10,10,0,0,1,0,-10A-10,10,0,0,0,0,10"/></g><g transform="translate(387.5,337.5)"><path fill="#d1d1d1" transform="rotate(205.18650043651616)" d="M0,10A-10,10,0,0,1,0,-10A-10,10,0,0,0,0,10"/></g><g transform="translate(412.5,337.5)"><path fill="#d1d1d1" transform="rotate(203.15786197070872)" d="M0,10A-10,10,0,0,1,0,-10A-10,10,0,0,0,0,10"/></g><g transform="translate(437.5,337.5)"><path fill="#d1d1d1" transform="rotate(201.41728177690436)" d="M0,10A-10,10,0,0,1,0,-10A-10,10,0,0,0,0,10"/></g><g transform="translate(462.5,337.5)"><path fill="#d1d1d1" transform="rotate(199.9100988178125)" d="M0,10A-10,10,0,0,1,0,-10A-10,10,0,0,0,0,10"/></g><g transform="translate(487.5,337.5)"><path fill="#d1d1d1" transform="rotate(198.59404153369715)" d="M0,10A-10,10,0,0,1,0,-10A-10,10,0,0,0,0,10"/></g><g transform="translate(12.5,362.5)"><path fill="#d1d1d1" transform="rotate(310.81472195728986)" d="M0,10A-10,10,0,0,1,0,-10A-10,10,0,0,0,0,10"/></g><g transform="translate(37.5,362.5)"><path fill="#d1d1d1" transform="rotate(304.56836395123497)" d="M0,10A-10,10,0,0,1,0,-10A-10,10,0,0,0,0,10"/></g><g transform="translate(62.5,362.5)"><path fill="#d1d1d1" transform="rotate(297.2236921009288)" d="M0,10A-10,10,0,0,1,0,-10A-10,10,0,0,0,0,10"/></g><g transform="translate(87.5,362.5)"><path fill="#d1d1d1" transform="rotate(288.7711955086869)" d="M0,10A-10,10,0,0,1,0,-10A-10,10,0,0,0,0,10"/></g><g transform="translate(112.5,362.5)"><path fill="#d1d1d1" transform="rotate(279.3850418132047)" d="M0,10A-10,10,0,0,1,0,-10A-10,10,0,0,0,0,10"/></g><g transform="translate(137.5,362.5)"><path fill="#d1d1d1" transform="rotate(269.4668528299675)" d="M0,10A-10,10,0,0,1,0,-10A-10,10,0,0,0,0,10"/></g><g transform="translate(162.5,362.5)"><path fill="#d1d1d1" transform="rotate(259.58019919427534)" d="M0,10A-10,10,0,0,1,0,-10A-10,10,0,0,0,0,10"/></g><g transform="translate(187.5,362.5)"><path fill="#d1d1d1" transform="rotate(250.2783727584374)" d="M0,10A-10,10,0,0,1,0,-10A-10,10,0,0,0,0,10"/></g><g transform="translate(212.5,362.5)"><path fill="#d1d1d1" transform="rotate(241.93953275032098)" d="M0,10A-10,10,0,0,1,0,-10A-10,10,0,0,0,0,10"/></g><g transform="translate(237.5,362.5)"><path fill="#d1d1d1" transform="rotate(234.71486374564924)" d="M0,10A-10,10,0,0,1,0,-10A-10,10,0,0,0,0,10"/></g><g transform="translate(262.5,362.5)"><path fill="#d1d1d1" transform="rotate(228.58009476397274)" d="M0,10A-10,10,0,0,1,0,-10A-10,10,0,0,0,0,10"/></g><g transform="translate(287.5,362.5)"><path fill="#d1d1d1" transform="rotate(223.4175325731068)" d="M0,10A-10,10,0,0,1,0,-10A-10,10,0,0,0,0,10"/></g><g transform="translate(312.5,362.5)"><path fill="#d1d1d1" transform="rotate(219.07929794822044)" d="M0,10A-10,10,0,0,1,0,-10A-10,10,0,0,0,0,10"/></g><g transform="translate(337.5,362.5)"><path fill="#d1d1d1" transform="rotate(215.42196878078477)" d="M0,10A-10,10,0,0,1,0,-10A-10,10,0,0,0,0,10"/></g><g transform="translate(362.5,362.5)"><path fill="#d1d1d1" transform="rotate(212.32066992914383)" d="M0,10A-10,10,0,0,1,0,-10A-10,10,0,0,0,0,10"/></g><g transform="translate(387.5,362.5)"><path fill="#d1d1d1" transform="rotate(209.67217002996344)" d="M0,10A-10,10,0,0,1,0,-10A-10,10,0,0,0,0,10"/></g><g transform="translate(412.5,362.5)"><path fill="#d1d1d1" transform="rotate(207.3932356228108)" d="M0,10A-10,10,0,0,1,0,-10A-10,10,0,0,0,0,10"/></g><g transform="translate(437.5,362.5)"><path fill="#d1d1d1" transform="rotate(205.4174659593437)" d="M0,10A-10,10,0,0,1,0,-10A-10,10,0,0,0,0,10"/></g><g transform="translate(462.5,362.5)"><path fill="#d1d1d1" transform="rotate(203.692024273967)" d="M0,10A-10,10,0,0,1,0,-10A-10,10,0,0,0,0,10"/></g><g transform="translate(487.5,362.5)"><path fill="#d1d1d1" transform="rotate(202.1747810557467)" d="M0,10A-10,10,0,0,1,0,-10A-10,10,0,0,0,0,10"/></g><g transform="translate(12.5,387.5)"><path fill="#d1d1d1" transform="rotate(306.325529227237)" d="M0,10A-10,10,0,0,1,0,-10A-10,10,0,0,0,0,10"/></g><g transform="translate(37.5,387.5)"><path fill="#d1d1d1" transform="rotate(300.3968636869217)" d="M0,10A-10,10,0,0,1,0,-10A-10,10,0,0,0,0,10"/></g><g transform="translate(62.5,387.5)"><path fill="#d1d1d1" transform="rotate(293.65277571381796)" d="M0,10A-10,10,0,0,1,0,-10A-10,10,0,0,0,0,10"/></g><g transform="translate(87.5,387.5)"><path fill="#d1d1d1" transform="rotate(286.1378163139001)" d="M0,10A-10,10,0,0,1,0,-10A-10,10,0,0,0,0,10"/></g><g transform="translate(112.5,387.5)"><path fill="#d1d1d1" transform="rotate(278.0097290991189)" d="M0,10A-10,10,0,0,1,0,-10A-10,10,0,0,0,0,10"/></g><g transform="translate(137.5,387.5)"><path fill="#d1d1d1" transform="rotate(269.5460942546471)" d="M0,10A-10,10,0,0,1,0,-10A-10,10,0,0,0,0,10"/></g><g transform="translate(162.5,387.5)"><path fill="#d1d1d1" transform="rotate(261.102079976424)" d="M0,10A-10,10,0,0,1,0,-10A-10,10,0,0,0,0,10"/></g><g transform="translate(187.5,387.5)"><path fill="#d1d1d1" transform="rotate(253.02807593427187)" d="M0,10A-10,10,0,0,1,0,-10A-10,10,0,0,0,0,10"/></g><g transform="translate(212.5,387.5)"><path fill="#d1d1d1" transform="rotate(245.58996802050208)" d="M0,10A-10,10,0,0,1,0,-10A-10,10,0,0,0,0,10"/></g><g transform="translate(237.5,387.5)"><path fill="#d1d1d1" transform="rotate(238.9323998501229)" d="M0,10A-10,10,0,0,1,0,-10A-10,10,0,0,0,0,10"/></g><g transform="translate(262.5,387.5)"><path fill="#d1d1d1" transform="rotate(233.08964526043786)" d="M0,10A-10,10,0,0,1,0,-10A-10,10,0,0,0,0,10"/></g><g transform="translate(287.5,387.5)"><path fill="#d1d1d1" transform="rotate(228.02101276069178)" d="M0,10A-10,10,0,0,1,0,-10A-10,10,0,0,0,0,10"/></g><g transform="translate(312.5,387.5)"><path fill="#d1d1d1" transform="rotate(223.64709709755024)" d="M0,10A-10,10,0,0,1,0,-10A-10,10,0,0,0,0,10"/></g><g transform="translate(337.5,387.5)"><path fill="#d1d1d1" transform="rotate(219.87581884939692)" d="M0,10A-10,10,0,0,1,0,-10A-10,10,0,0,0,0,10"/></g><g transform="translate(362.5,387.5)"><path fill="#d1d1d1" transform="rotate(216.61736057849893)" d="M0,10A-10,10,0,0,1,0,-10A-10,10,0,0,0,0,10"/></g><g transform="translate(387.5,387.5)"><path fill="#d1d1d1" transform="rotate(213.79107839416466)" d="M0,10A-10,10,0,0,1,0,-10A-10,10,0,0,0,0,10"/></g><g transform="translate(412.5,387.5)"><path fill="#d1d1d1" transform="rotate(211.3276920124494)" d="M0,10A-10,10,0,0,1,0,-10A-10,10,0,0,0,0,10"/></g><g transform="translate(437.5,387.5)"><path fill="#d1d1d1" transform="rotate(209.1690913318889)" d="M0,10A-10,10,0,0,1,0,-10A-10,10,0,0,0,0,10"/></g><g transform="translate(462.5,387.5)"><path fill="#d1d1d1" transform="rotate(207.26713413798672)" d="M0,10A-10,10,0,0,1,0,-10A-10,10,0,0,0,0,10"/></g><g transform="translate(487.5,387.5)"><path fill="#d1d1d1" transform="rotate(205.58215089762678)" d="M0,10A-10,10,0,0,1,0,-10A-10,10,0,0,0,0,10"/></g><g transform="translate(12.5,412.5)"><path fill="#d1d1d1" transform="rotate(302.6239142531143)" d="M0,10A-10,10,0,0,1,0,-10A-10,10,0,0,0,0,10"/></g><g transform="translate(37.5,412.5)"><path fill="#d1d1d1" transform="rotate(297.0539696208697)" d="M0,10A-10,10,0,0,1,0,-10A-10,10,0,0,0,0,10"/></g><g transform="translate(62.5,412.5)"><path fill="#d1d1d1" transform="rotate(290.87235405486035)" d="M0,10A-10,10,0,0,1,0,-10A-10,10,0,0,0,0,10"/></g><g transform="translate(87.5,412.5)"><path fill="#d1d1d1" transform="rotate(284.139069772597)" d="M0,10A-10,10,0,0,1,0,-10A-10,10,0,0,0,0,10"/></g><g transform="translate(112.5,412.5)"><path fill="#d1d1d1" transform="rotate(276.984234744144)" d="M0,10A-10,10,0,0,1,0,-10A-10,10,0,0,0,0,10"/></g><g transform="translate(137.5,412.5)"><path fill="#d1d1d1" transform="rotate(269.60482875325744)" d="M0,10A-10,10,0,0,1,0,-10A-10,10,0,0,0,0,10"/></g><g transform="translate(162.5,412.5)"><path fill="#d1d1d1" transform="rotate(262.23843807604715)" d="M0,10A-10,10,0,0,1,0,-10A-10,10,0,0,0,0,10"/></g><g transform="translate(187.5,412.5)"><path fill="#d1d1d1" transform="rotate(255.12019818590778)" d="M0,10A-10,10,0,0,1,0,-10A-10,10,0,0,0,0,10"/></g><g transform="translate(212.5,412.5)"><path fill="#d1d1d1" transform="rotate(248.44080619701123)" d="M0,10A-10,10,0,0,1,0,-10A-10,10,0,0,0,0,10"/></g><g transform="translate(237.5,412.5)"><path fill="#d1d1d1" transform="rotate(242.32268376046486)" d="M0,10A-10,10,0,0,1,0,-10A-10,10,0,0,0,0,10"/></g><g transform="translate(262.5,412.5)"><path fill="#d1d1d1" transform="rotate(236.81895695873885)" d="M0,10A-10,10,0,0,1,0,-10A-10,10,0,0,0,0,10"/></g><g transform="translate(287.5,412.5)"><path fill="#d1d1d1" transform="rotate(231.9279884235872)" d="M0,10A-10,10,0,0,1,0,-10A-10,10,0,0,0,0,10"/></g><g transform="translate(312.5,412.5)"><path fill="#d1d1d1" transform="rotate(227.61285733861388)" d="M0,10A-10,10,0,0,1,0,-10A-10,10,0,0,0,0,10"/></g><g transform="translate(337.5,412.5)"><path fill="#d1d1d1" transform="rotate(223.81850326518784)" d="M0,10A-10,10,0,0,1,0,-10A-10,10,0,0,0,0,10"/></g><g transform="translate(362.5,412.5)"><path fill="#d1d1d1" transform="rotate(220.48383032734975)" d="M0,10A-10,10,0,0,1,0,-10A-10,10,0,0,0,0,10"/></g><g transform="translate(387.5,412.5)"><path fill="#d1d1d1" transform="rotate(217.54897747963614)" d="M0,10A-10,10,0,0,1,0,-10A-10,10,0,0,0,0,10"/></g><g transform="translate(412.5,412.5)"><path fill="#d1d1d1" transform="rotate(214.95903035216938)" d="M0,10A-10,10,0,0,1,0,-10A-10,10,0,0,0,0,10"/></g><g transform="translate(437.5,412.5)"><path fill="#d1d1d1" transform="rotate(212.66548328824732)" d="M0,10A-10,10,0,0,1,0,-10A-10,10,0,0,0,0,10"/></g><g transform="translate(462.5,412.5)"><path fill="#d1d1d1" transform="rotate(210.62643444800688)" d="M0,10A-10,10,0,0,1,0,-10A-10,10,0,0,0,0,10"/></g><g transform="translate(487.5,412.5)"><path fill="#d1d1d1" transform="rotate(208.80614848684786)" d="M0,10A-10,10,0,0,1,0,-10A-10,10,0,0,0,0,10"/></g><g transform="translate(12.5,437.5)"><path fill="#d1d1d1" transform="rotate(299.54339873329974)" d="M0,10A-10,10,0,0,1,0,-10A-10,10,0,0,0,0,10"/></g><g transform="translate(37.5,437.5)"><path fill="#d1d1d1" transform="rotate(294.33234553879527)" d="M0,10A-10,10,0,0,1,0,-10A-10,10,0,0,0,0,10"/></g><g transform="translate(62.5,437.5)"><path fill="#d1d1d1" transform="rotate(288.6557680260345)" d="M0,10A-10,10,0,0,1,0,-10A-10,10,0,0,0,0,10"/></g><g transform="translate(87.5,437.5)"><path fill="#d1d1d1" transform="rotate(282.57372893169304)" d="M0,10A-10,10,0,0,1,0,-10A-10,10,0,0,0,0,10"/></g><g transform="translate(112.5,437.5)"><path fill="#d1d1d1" transform="rotate(276.1906188239103)" d="M0,10A-10,10,0,0,1,0,-10A-10,10,0,0,0,0,10"/></g><g transform="translate(137.5,437.5)"><path fill="#d1d1d1" transform="rotate(269.650104696933)" d="M0,10A-10,10,0,0,1,0,-10A-10,10,0,0,0,0,10"/></g><g transform="translate(162.5,437.5)"><path fill="#d1d1d1" transform="rotate(263.11865759692637)" d="M0,10A-10,10,0,0,1,0,-10A-10,10,0,0,0,0,10"/></g><g transform="translate(187.5,437.5)"><path fill="#d1d1d1" transform="rotate(256.7613916254416)" d="M0,10A-10,10,0,0,1,0,-10A-10,10,0,0,0,0,10"/></g><g transform="translate(212.5,437.5)"><path fill="#d1d1d1" transform="rotate(250.7183808148354)" d="M0,10A-10,10,0,0,1,0,-10A-10,10,0,0,0,0,10"/></g><g transform="translate(237.5,437.5)"><path fill="#d1d1d1" transform="rotate(245.08933009034175)" d="M0,10A-10,10,0,0,1,0,-10A-10,10,0,0,0,0,10"/></g><g transform="translate(262.5,437.5)"><path fill="#d1d1d1" transform="rotate(239.92971999893024)" d="M0,10A-10,10,0,0,1,0,-10A-10,10,0,0,0,0,10"/></g><g transform="translate(287.5,437.5)"><path fill="#d1d1d1" transform="rotate(235.2562575128124)" d="M0,10A-10,10,0,0,1,0,-10A-10,10,0,0,0,0,10"/></g><g transform="translate(312.5,437.5)"><path fill="#d1d1d1" transform="rotate(231.05697330423294)" d="M0,10A-10,10,0,0,1,0,-10A-10,10,0,0,0,0,10"/></g><g transform="translate(337.5,437.5)"><path fill="#d1d1d1" transform="rotate(227.30181071104263)" d="M0,10A-10,10,0,0,1,0,-10A-10,10,0,0,0,0,10"/></g><g transform="translate(362.5,437.5)"><path fill="#d1d1d1" transform="rotate(223.95136502710156)" d="M0,10A-10,10,0,0,1,0,-10A-10,10,0,0,0,0,10"/></g><g transform="translate(387.5,437.5)"><path fill="#d1d1d1" transform="rotate(220.96307235221173)" d="M0,10A-10,10,0,0,1,0,-10A-10,10,0,0,0,0,10"/></g><g transform="translate(412.5,437.5)"><path fill="#d1d1d1" transform="rotate(218.2950855315758)" d="M0,10A-10,10,0,0,1,0,-10A-10,10,0,0,0,0,10"/></g><g transform="translate(437.5,437.5)"><path fill="#d1d1d1" transform="rotate(215.90841120149133)" d="M0,10A-10,10,0,0,1,0,-10A-10,10,0,0,0,0,10"/></g><g transform="translate(462.5,437.5)"><path fill="#d1d1d1" transform="rotate(213.76788442800176)" d="M0,10A-10,10,0,0,1,0,-10A-10,10,0,0,0,0,10"/></g><g transform="translate(487.5,437.5)"><path fill="#d1d1d1" transform="rotate(211.84243397956487)" d="M0,10A-10,10,0,0,1,0,-10A-10,10,0,0,0,0,10"/></g><g transform="translate(12.5,462.5)"><path fill="#d1d1d1" transform="rotate(296.9537945835789)" d="M0,10A-10,10,0,0,1,0,-10A-10,10,0,0,0,0,10"/></g><g transform="translate(37.5,462.5)"><path fill="#d1d1d1" transform="rotate(292.0829961329478)" d="M0,10A-10,10,0,0,1,0,-10A-10,10,0,0,0,0,10"/></g><g transform="translate(62.5,462.5)"><path fill="#d1d1d1" transform="rotate(286.8523157875674)" d="M0,10A-10,10,0,0,1,0,-10A-10,10,0,0,0,0,10"/></g><g transform="translate(87.5,462.5)"><path fill="#d1d1d1" transform="rotate(281.31635339500343)" d="M0,10A-10,10,0,0,1,0,-10A-10,10,0,0,0,0,10"/></g><g transform="translate(112.5,462.5)"><path fill="#d1d1d1" transform="rotate(275.55844774926675)" d="M0,10A-10,10,0,0,1,0,-10A-10,10,0,0,0,0,10"/></g><g transform="translate(137.5,462.5)"><path fill="#d1d1d1" transform="rotate(269.68607241657037)" d="M0,10A-10,10,0,0,1,0,-10A-10,10,0,0,0,0,10"/></g><g transform="translate(162.5,462.5)"><path fill="#d1d1d1" transform="rotate(263.8202621760896)" d="M0,10A-10,10,0,0,1,0,-10A-10,10,0,0,0,0,10"/></g><g transform="translate(187.5,462.5)"><path fill="#d1d1d1" transform="rotate(258.0812531260976)" d="M0,10A-10,10,0,0,1,0,-10A-10,10,0,0,0,0,10"/></g><g transform="translate(212.5,462.5)"><path fill="#d1d1d1" transform="rotate(252.57435397354743)" d="M0,10A-10,10,0,0,1,0,-10A-10,10,0,0,0,0,10"/></g><g transform="translate(237.5,462.5)"><path fill="#d1d1d1" transform="rotate(247.37994901863698)" d="M0,10A-10,10,0,0,1,0,-10A-10,10,0,0,0,0,10"/></g><g transform="translate(262.5,462.5)"><path fill="#d1d1d1" transform="rotate(242.54955287766643)" d="M0,10A-10,10,0,0,1,0,-10A-10,10,0,0,0,0,10"/></g><g transform="translate(287.5,462.5)"><path fill="#d1d1d1" transform="rotate(238.10739368016718)" d="M0,10A-10,10,0,0,1,0,-10A-10,10,0,0,0,0,10"/></g><g transform="translate(312.5,462.5)"><path fill="#d1d1d1" transform="rotate(234.05548495688672)" d="M0,10A-10,10,0,0,1,0,-10A-10,10,0,0,0,0,10"/></g><g transform="translate(337.5,462.5)"><path fill="#d1d1d1" transform="rotate(230.37994034404963)" d="M0,10A-10,10,0,0,1,0,-10A-10,10,0,0,0,0,10"/></g><g transform="translate(362.5,462.5)"><path fill="#d1d1d1" transform="rotate(227.05691429329406)" d="M0,10A-10,10,0,0,1,0,-10A-10,10,0,0,0,0,10"/></g><g transform="translate(387.5,462.5)"><path fill="#d1d1d1" transform="rotate(224.05736858388175)" d="M0,10A-10,10,0,0,1,0,-10A-10,10,0,0,0,0,10"/></g><g transform="translate(412.5,462.5)"><path fill="#d1d1d1" transform="rotate(221.35048527243512)" d="M0,10A-10,10,0,0,1,0,-10A-10,10,0,0,0,0,10"/></g><g transform="translate(437.5,462.5)"><path fill="#d1d1d1" transform="rotate(218.9058842684122)" d="M0,10A-10,10,0,0,1,0,-10A-10,10,0,0,0,0,10"/></g><g transform="translate(462.5,462.5)"><path fill="#d1d1d1" transform="rotate(216.6949236647812)" d="M0,10A-10,10,0,0,1,0,-10A-10,10,0,0,0,0,10"/></g><g transform="translate(487.5,462.5)"><path fill="#d1d1d1" transform="rotate(214.69135918612116)" d="M0,10A-10,10,0,0,1,0,-10A-10,10,0,0,0,0,10"/></g><g transform="translate(12.5,487.5)"><path fill="#d1d1d1" transform="rotate(294.7548544967678)" d="M0,10A-10,10,0,0,1,0,-10A-10,10,0,0,0,0,10"/></g><g transform="translate(37.5,487.5)"><path fill="#d1d1d1" transform="rotate(290.1982440394784)" d="M0,10A-10,10,0,0,1,0,-10A-10,10,0,0,0,0,10"/></g><g transform="translate(62.5,487.5)"><path fill="#d1d1d1" transform="rotate(285.3591018318304)" d="M0,10A-10,10,0,0,1,0,-10A-10,10,0,0,0,0,10"/></g><g transform="translate(87.5,487.5)"><path fill="#d1d1d1" transform="rotate(280.2851232658302)" d="M0,10A-10,10,0,0,1,0,-10A-10,10,0,0,0,0,10"/></g><g transform="translate(112.5,487.5)"><path fill="#d1d1d1" transform="rotate(275.0431223860944)" d="M0,10A-10,10,0,0,1,0,-10A-10,10,0,0,0,0,10"/></g><g transform="translate(137.5,487.5)"><path fill="#d1d1d1" transform="rotate(269.71533482299986)" d="M0,10A-10,10,0,0,1,0,-10A-10,10,0,0,0,0,10"/></g><g transform="translate(162.5,487.5)"><path fill="#d1d1d1" transform="rotate(264.39245143038505)" d="M0,10A-10,10,0,0,1,0,-10A-10,10,0,0,0,0,10"/></g><g transform="translate(187.5,487.5)"><path fill="#d1d1d1" transform="rotate(259.16466891721893)" d="M0,10A-10,10,0,0,1,0,-10A-10,10,0,0,0,0,10"/></g><g transform="translate(212.5,487.5)"><path fill="#d1d1d1" transform="rotate(254.1128599358119)" d="M0,10A-10,10,0,0,1,0,-10A-10,10,0,0,0,0,10"/></g><g transform="translate(237.5,487.5)"><path fill="#d1d1d1" transform="rotate(249.30191406331102)" d="M0,10A-10,10,0,0,1,0,-10A-10,10,0,0,0,0,10"/></g><g transform="translate(262.5,487.5)"><path fill="#d1d1d1" transform="rotate(244.77741566621052)" d="M0,10A-10,10,0,0,1,0,-10A-10,10,0,0,0,0,10"/></g><g transform="translate(287.5,487.5)"><path fill="#d1d1d1" transform="rotate(240.56564418254897)" d="M0,10A-10,10,0,0,1,0,-10A-10,10,0,0,0,0,10"/></g><g transform="translate(312.5,487.5)"><path fill="#d1d1d1" transform="rotate(236.6760083792643)" d="M0,10A-10,10,0,0,1,0,-10A-10,10,0,0,0,0,10"/></g><g transform="translate(337.5,487.5)"><path fill="#d1d1d1" transform="rotate(233.10472515773145)" d="M0,10A-10,10,0,0,1,0,-10A-10,10,0,0,0,0,10"/></g><g transform="translate(362.5,487.5)"><path fill="#d1d1d1" transform="rotate(229.83872029904944)" d="M0,10A-10,10,0,0,1,0,-10A-10,10,0,0,0,0,10"/></g><g transform="translate(387.5,487.5)"><path fill="#d1d1d1" transform="rotate(226.85910079546974)" d="M0,10A-10,10,0,0,1,0,-10A-10,10,0,0,0,0,10"/></g><g transform="translate(412.5,487.5)"><path fill="#d1d1d1" transform="rotate(224.14390991499724)" d="M0,10A-10,10,0,0,1,0,-10A-10,10,0,0,0,0,10"/></g><g transform="translate(437.5,487.5)"><path fill="#d1d1d1" transform="rotate(221.6701277775575)" d="M0,10A-10,10,0,0,1,0,-10A-10,10,0,0,0,0,10"/></g><g transform="translate(462.5,487.5)"><path fill="#d1d1d1" transform="rotate(219.41501369856945)" d="M0,10A-10,10,0,0,1,0,-10A-10,10,0,0,0,0,10"/></g><g transform="translate(487.5,487.5)"><path fill="#d1d1d1" transform="rotate(217.35693390612175)" d="M0,10A-10,10,0,0,1,0,-10A-10,10,0,0,0,0,10"/></g></svg>