<?xml version="1.0" standalone="no"?><!DOCTYPE svg PUBLIC "-//W3C//DTD SVG 1.1//EN" "http://www.w3.org/Graphics/SVG/1.1/DTD/svg11.dtd"><svg width="500" height="500" style="background: rgb(17, 17, 17);" version="1.1" xmlns="http://www.w3.org/2000/svg" xmlns:xlink="http://www.w3.org/1999/xlink"><defs xmlns="http://www.w3.org/1999/xhtml"><style type="text/css"><![CDATA[
html, body { height: 100%; margin: 0px; background: rgb(34, 34, 34); }
body, #prev, #next { height: 100%; display: -webkit-flex; flex-direction: column; justify-content: center; }
#prev, #next { position: absolute; top: 0px; color: rgb(209, 209, 209); font-size: 70px; text-decoration: none; padding: 20px; }
#prev { left: 0px; }
#next { right: 0px; }
svg { margin: auto; }]]></style></defs><g transform="translate(425,250)rotate(0)"><path fill="#d1d1d1" d="M0,25A25,25,0,0,0,0,-25A24.999684173324145,25,0,0,0,0,25"/></g><g transform="translate(411.67891818947516,316.9696006638907)rotate(22.5)"><path fill="#d1d1d1" d="M0,25A25,25,0,0,0,0,-25A23.048607311095562,25,0,0,0,0,25"/></g><g transform="translate(373.7436867076458,373.7436867076458)rotate(45)"><path fill="#d1d1d1" d="M0,25A25,25,0,0,0,0,-25A17.588588921898246,25,0,0,0,0,25"/></g><g transform="translate(316.9696006638907,411.67891818947516)rotate(67.5)"><path fill="#d1d1d1" d="M0,25A25,25,0,0,0,0,-25A9.450867310297534,25,0,0,0,0,25"/></g><g transform="translate(250,425)rotate(90)"><path fill="#d1d1d1" d="M0,25A25,25,0,0,0,0,-25A-0.12566317697046997,25,0,0,1,0,25"/></g><g transform="translate(183.03039933610933,411.67891818947516)rotate(112.5)"><path fill="#d1d1d1" d="M0,25A25,25,0,0,0,0,-25A-9.683062584684256,25,0,0,1,0,25"/></g><g transform="translate(126.2563132923542,373.7436867076458)rotate(135)"><path fill="#d1d1d1" d="M0,25A25,25,0,0,0,0,-25A-17.76630349106078,25,0,0,1,0,25"/></g><g transform="translate(88.32108181052483,316.96960066389073)rotate(157.5)"><path fill="#d1d1d1" d="M0,25A25,25,0,0,0,0,-25A-23.144785742865487,25,0,0,1,0,25"/></g><g transform="translate(75.00000000000001,250)rotate(180)"><path fill="#d1d1d1" d="M0,25A-25,25,0,0,1,0,-25A-24.999684173324145,25,0,0,0,0,25"/></g><g transform="translate(88.32108181052482,183.03039933610933)rotate(202.49999999999997)"><path fill="#d1d1d1" d="M0,25A-25,25,0,0,1,0,-25A-23.048607311095562,25,0,0,0,0,25"/></g><g transform="translate(126.25631329235415,126.2563132923542)rotate(225)"><path fill="#d1d1d1" d="M0,25A-25,25,0,0,1,0,-25A-17.588588921898243,25,0,0,0,0,25"/></g><g transform="translate(183.03039933610935,88.32108181052482)rotate(247.5)"><path fill="#d1d1d1" d="M0,25A-25,25,0,0,1,0,-25A-9.450867310297522,25,0,0,0,0,25"/></g><g transform="translate(249.99999999999997,75.00000000000001)rotate(270)"><path fill="#d1d1d1" d="M0,25A-25,25,0,0,1,0,-25A0.12566317697047247,25,0,0,1,0,25"/></g><g transform="translate(316.96960066389056,88.32108181052479)rotate(292.49999999999994)"><path fill="#d1d1d1" d="M0,25A-25,25,0,0,1,0,-25A9.683062584684247,25,0,0,1,0,25"/></g><g transform="translate(373.7436867076458,126.25631329235415)rotate(315)"><path fill="#d1d1d1" d="M0,25A-25,25,0,0,1,0,-25A17.766303491060775,25,0,0,1,0,25"/></g><g transform="translate(411.6789181894752,183.03039933610933)rotate(337.50000000000006)"><path fill="#d1d1d1" d="M0,25A-25,25,0,0,1,0,-25A23.14478574286549,25,0,0,1,0,25"/></g></svg>