<?xml version="1.0" standalone="no"?><!DOCTYPE svg PUBLIC "-//W3C//DTD SVG 1.1//EN" "http://www.w3.org/Graphics/SVG/1.1/DTD/svg11.dtd"><svg width="500" height="500" style="background: rgb(34, 34, 34);" version="1.1" xmlns="http://www.w3.org/2000/svg" xmlns:xlink="http://www.w3.org/1999/xlink"><defs xmlns="http://www.w3.org/1999/xhtml"><style type="text/css"><![CDATA[
html, body { height: 100%; margin: 0px; background: rgb(34, 34, 34); }
body, #prev, #next { height: 100%; display: -webkit-flex; flex-direction: column; justify-content: center; }
#prev, #next { position: absolute; top: 0px; color: rgb(209, 209, 209); font-size: 70px; text-decoration: none; padding: 20px; }
#prev { left: 0px; }
#next { right: 0px; }
svg { margin: auto; }]]></style></defs><g transform="translate(0,-50)"><rect x="-50" y="0" rx="50" ry="50" width="100" height="100" fill="#fff" fill-opacity="0.2"/><rect x="0" y="0" rx="50" ry="50" width="100" height="100" fill="#fff" fill-opacity="0.2"/><rect x="50" y="0" rx="50" ry="50" width="100" height="100" fill="#fff" fill-opacity="0.2"/><rect x="100" y="0" rx="49.99634785925928" ry="49.99634785925928" width="100" height="100" fill="#fff" fill-opacity="0.20000730428148145"/><rect x="150" y="0" rx="49.839128599999995" ry="49.839128599999995" width="100" height="100" fill="#fff" fill-opacity="0.20032174280000004"/><rect x="200" y="0" rx="49.18590934074072" ry="49.18590934074072" width="100" height="100" fill="#fff" fill-opacity="0.20162818131851856"/><rect x="250" y="0" rx="47.681134525925906" ry="47.681134525925906" width="100" height="100" fill="#fff" fill-opacity="0.2046377309481482"/><rect x="300" y="0" rx="44.9692486" ry="44.9692486" width="100" height="100" fill="#fff" fill-opacity="0.21006150280000002"/><rect x="350" y="0" rx="40.6946960074074" ry="40.6946960074074" width="100" height="100" fill="#fff" fill-opacity="0.21861060798518522"/><rect x="400" y="0" rx="34.50192119259259" ry="34.50192119259259" width="100" height="100" fill="#fff" fill-opacity="0.23099615761481485"/><rect x="450" y="0" rx="26.035368599999977" ry="26.035368599999977" width="100" height="100" fill="#fff" fill-opacity="0.24792926280000005"/></g><g transform="translate(0,0)"><rect x="-50" y="0" rx="50" ry="50" width="100" height="100" fill="#fff" fill-opacity="0.2"/><rect x="0" y="0" rx="50" ry="50" width="100" height="100" fill="#fff" fill-opacity="0.2"/><rect x="50" y="0" rx="49.9946" ry="49.9946" width="100" height="100" fill="#fff" fill-opacity="0.2000108"/><rect x="100" y="0" rx="49.81934074074073" ry="49.81934074074073" width="100" height="100" fill="#fff" fill-opacity="0.20036131851851857"/><rect x="150" y="0" rx="49.12852592592591" ry="49.12852592592591" width="100" height="100" fill="#fff" fill-opacity="0.2017429481481482"/><rect x="200" y="0" rx="47.56660000000004" ry="47.56660000000004" width="100" height="100" fill="#fff" fill-opacity="0.20486679999999996"/><rect x="250" y="0" rx="44.77800740740739" ry="44.77800740740739" width="100" height="100" fill="#fff" fill-opacity="0.21044398518518526"/><rect x="300" y="0" rx="40.4071925925926" ry="40.4071925925926" width="100" height="100" fill="#fff" fill-opacity="0.2191856148148148"/><rect x="350" y="0" rx="34.098599999999976" ry="34.098599999999976" width="100" height="100" fill="#fff" fill-opacity="0.23180280000000003"/><rect x="400" y="0" rx="25.49667407407408" ry="25.49667407407408" width="100" height="100" fill="#fff" fill-opacity="0.24900665185185183"/><rect x="450" y="0" rx="16.652525925925925" ry="16.652525925925925" width="100" height="100" fill="#fff" fill-opacity="0.26669494814814815"/></g><g transform="translate(0,50)"><rect x="-50" y="0" rx="50" ry="50" width="100" height="100" fill="#fff" fill-opacity="0.2"/><rect x="0" y="0" rx="49.99576454074073" ry="49.99576454074073" width="100" height="100" fill="#fff" fill-opacity="0.20000847091851853"/><rect x="50" y="0" rx="49.83210972592591" ry="49.83210972592591" width="100" height="100" fill="#fff" fill-opacity="0.2003357805481482"/><rect x="100" y="0" rx="49.16534380000002" ry="49.16534380000002" width="100" height="100" fill="#fff" fill-opacity="0.20166931239999997"/><rect x="150" y="0" rx="47.63991120740742" ry="47.63991120740742" width="100" height="100" fill="#fff" fill-opacity="0.20472017758518518"/><rect x="200" y="0" rx="44.90025639259259" ry="44.90025639259259" width="100" height="100" fill="#fff" fill-opacity="0.21019948721481485"/><rect x="250" y="0" rx="40.59082379999999" ry="40.59082379999999" width="100" height="100" fill="#fff" fill-opacity="0.21881835240000003"/><rect x="300" y="0" rx="34.356057874074075" ry="34.356057874074075" width="100" height="100" fill="#fff" fill-opacity="0.23128788425185187"/><rect x="350" y="0" rx="25.840403059259252" ry="25.840403059259252" width="100" height="100" fill="#fff" fill-opacity="0.2483191938814815"/><rect x="400" y="0" rx="16.9209038" ry="16.9209038" width="100" height="100" fill="#fff" fill-opacity="0.2661581924"/><rect x="450" y="0" rx="10.323471207407408" ry="10.323471207407408" width="100" height="100" fill="#fff" fill-opacity="0.2793530575851852"/></g><g transform="translate(0,100)"><rect x="-50" y="0" rx="49.99591579259257" ry="49.99591579259257" width="100" height="100" fill="#fff" fill-opacity="0.2000081684148149"/><rect x="0" y="0" rx="49.83388320000002" ry="49.83388320000002" width="100" height="100" fill="#fff" fill-opacity="0.20033223359999996"/><rect x="50" y="0" rx="49.170517274074086" ry="49.170517274074086" width="100" height="100" fill="#fff" fill-opacity="0.20165896545185186"/><rect x="100" y="0" rx="47.650262459259274" ry="47.650262459259274" width="100" height="100" fill="#fff" fill-opacity="0.20469947508148145"/><rect x="150" y="0" rx="44.917563199999975" ry="44.917563199999975" width="100" height="100" fill="#fff" fill-opacity="0.21016487360000008"/><rect x="200" y="0" rx="40.61686394074076" ry="40.61686394074076" width="100" height="100" fill="#fff" fill-opacity="0.2187662721185185"/><rect x="250" y="0" rx="34.392609125925944" ry="34.392609125925944" width="100" height="100" fill="#fff" fill-opacity="0.23121478174814813"/><rect x="300" y="0" rx="25.88924320000001" ry="25.88924320000001" width="100" height="100" fill="#fff" fill-opacity="0.2482215136"/><rect x="350" y="0" rx="16.959477274074075" ry="16.959477274074075" width="100" height="100" fill="#fff" fill-opacity="0.26608104545185185"/><rect x="400" y="0" rx="10.351222459259258" ry="10.351222459259258" width="100" height="100" fill="#fff" fill-opacity="0.27929755508148146"/><rect x="450" y="0" rx="5.7305231999999995" ry="5.7305231999999995" width="100" height="100" fill="#fff" fill-opacity="0.28853895360000004"/></g><g transform="translate(0,150)"><rect x="-50" y="0" rx="49.83210972592591" ry="49.83210972592591" width="100" height="100" fill="#fff" fill-opacity="0.2003357805481482"/><rect x="0" y="0" rx="49.16534380000002" ry="49.16534380000002" width="100" height="100" fill="#fff" fill-opacity="0.20166931239999997"/><rect x="50" y="0" rx="47.63991120740742" ry="47.63991120740742" width="100" height="100" fill="#fff" fill-opacity="0.20472017758518518"/><rect x="100" y="0" rx="44.90025639259259" ry="44.90025639259259" width="100" height="100" fill="#fff" fill-opacity="0.21019948721481485"/><rect x="150" y="0" rx="40.59082379999999" ry="40.59082379999999" width="100" height="100" fill="#fff" fill-opacity="0.21881835240000003"/><rect x="200" y="0" rx="34.356057874074075" ry="34.356057874074075" width="100" height="100" fill="#fff" fill-opacity="0.23128788425185187"/><rect x="250" y="0" rx="25.840403059259252" ry="25.840403059259252" width="100" height="100" fill="#fff" fill-opacity="0.2483191938814815"/><rect x="300" y="0" rx="16.9209038" ry="16.9209038" width="100" height="100" fill="#fff" fill-opacity="0.2661581924"/><rect x="350" y="0" rx="10.323471207407408" ry="10.323471207407408" width="100" height="100" fill="#fff" fill-opacity="0.2793530575851852"/><rect x="400" y="0" rx="5.711816392592591" ry="5.711816392592591" width="100" height="100" fill="#fff" fill-opacity="0.28857636721481483"/><rect x="450" y="0" rx="2.7303838" ry="2.7303838" width="100" height="100" fill="#fff" fill-opacity="0.29453923239999996"/></g><g transform="translate(0,200)"><rect x="-50" y="0" rx="49.170517274074086" ry="49.170517274074086" width="100" height="100" fill="#fff" fill-opacity="0.20165896545185186"/><rect x="0" y="0" rx="47.650262459259274" ry="47.650262459259274" width="100" height="100" fill="#fff" fill-opacity="0.20469947508148145"/><rect x="50" y="0" rx="44.917563199999975" ry="44.917563199999975" width="100" height="100" fill="#fff" fill-opacity="0.21016487360000008"/><rect x="100" y="0" rx="40.61686394074076" ry="40.61686394074076" width="100" height="100" fill="#fff" fill-opacity="0.2187662721185185"/><rect x="150" y="0" rx="34.392609125925944" ry="34.392609125925944" width="100" height="100" fill="#fff" fill-opacity="0.23121478174814813"/><rect x="200" y="0" rx="25.88924320000001" ry="25.88924320000001" width="100" height="100" fill="#fff" fill-opacity="0.2482215136"/><rect x="250" y="0" rx="16.959477274074075" ry="16.959477274074075" width="100" height="100" fill="#fff" fill-opacity="0.26608104545185185"/><rect x="300" y="0" rx="10.351222459259258" ry="10.351222459259258" width="100" height="100" fill="#fff" fill-opacity="0.27929755508148146"/><rect x="350" y="0" rx="5.7305231999999995" ry="5.7305231999999995" width="100" height="100" fill="#fff" fill-opacity="0.28853895360000004"/><rect x="400" y="0" rx="2.741823940740741" ry="2.741823940740741" width="100" height="100" fill="#fff" fill-opacity="0.2945163521185185"/><rect x="450" y="0" rx="1.0295691259259259" ry="1.0295691259259259" width="100" height="100" fill="#fff" fill-opacity="0.29794086174814816"/></g><g transform="translate(0,250)"><rect x="-50" y="0" rx="47.63991120740742" ry="47.63991120740742" width="100" height="100" fill="#fff" fill-opacity="0.20472017758518518"/><rect x="0" y="0" rx="44.90025639259259" ry="44.90025639259259" width="100" height="100" fill="#fff" fill-opacity="0.21019948721481485"/><rect x="50" y="0" rx="40.59082379999999" ry="40.59082379999999" width="100" height="100" fill="#fff" fill-opacity="0.21881835240000003"/><rect x="100" y="0" rx="34.356057874074075" ry="34.356057874074075" width="100" height="100" fill="#fff" fill-opacity="0.23128788425185187"/><rect x="150" y="0" rx="25.840403059259252" ry="25.840403059259252" width="100" height="100" fill="#fff" fill-opacity="0.2483191938814815"/><rect x="200" y="0" rx="16.9209038" ry="16.9209038" width="100" height="100" fill="#fff" fill-opacity="0.2661581924"/><rect x="250" y="0" rx="10.323471207407408" ry="10.323471207407408" width="100" height="100" fill="#fff" fill-opacity="0.2793530575851852"/><rect x="300" y="0" rx="5.711816392592591" ry="5.711816392592591" width="100" height="100" fill="#fff" fill-opacity="0.28857636721481483"/><rect x="350" y="0" rx="2.7303838" ry="2.7303838" width="100" height="100" fill="#fff" fill-opacity="0.29453923239999996"/><rect x="400" y="0" rx="1.0236178740740742" ry="1.0236178740740742" width="100" height="100" fill="#fff" fill-opacity="0.2979527642518518"/><rect x="450" y="0" rx="0.23596305925925928" ry="0.23596305925925928" width="100" height="100" fill="#fff" fill-opacity="0.29952807388148145"/></g><g transform="translate(0,300)"><rect x="-50" y="0" rx="44.90025639259259" ry="44.90025639259259" width="100" height="100" fill="#fff" fill-opacity="0.21019948721481485"/><rect x="0" y="0" rx="40.59082379999999" ry="40.59082379999999" width="100" height="100" fill="#fff" fill-opacity="0.21881835240000003"/><rect x="50" y="0" rx="34.356057874074075" ry="34.356057874074075" width="100" height="100" fill="#fff" fill-opacity="0.23128788425185187"/><rect x="100" y="0" rx="25.840403059259252" ry="25.840403059259252" width="100" height="100" fill="#fff" fill-opacity="0.2483191938814815"/><rect x="150" y="0" rx="16.9209038" ry="16.9209038" width="100" height="100" fill="#fff" fill-opacity="0.2661581924"/><rect x="200" y="0" rx="10.323471207407408" ry="10.323471207407408" width="100" height="100" fill="#fff" fill-opacity="0.2793530575851852"/><rect x="250" y="0" rx="5.711816392592591" ry="5.711816392592591" width="100" height="100" fill="#fff" fill-opacity="0.28857636721481483"/><rect x="300" y="0" rx="2.7303838" ry="2.7303838" width="100" height="100" fill="#fff" fill-opacity="0.29453923239999996"/><rect x="350" y="0" rx="1.0236178740740742" ry="1.0236178740740742" width="100" height="100" fill="#fff" fill-opacity="0.2979527642518518"/><rect x="400" y="0" rx="0.23596305925925928" ry="0.23596305925925928" width="100" height="100" fill="#fff" fill-opacity="0.29952807388148145"/><rect x="450" y="0" rx="0.011863799999999999" ry="0.011863799999999999" width="100" height="100" fill="#fff" fill-opacity="0.29997627239999997"/></g><g transform="translate(0,350)"><rect x="-50" y="0" rx="40.59082379999999" ry="40.59082379999999" width="100" height="100" fill="#fff" fill-opacity="0.21881835240000003"/><rect x="0" y="0" rx="34.356057874074075" ry="34.356057874074075" width="100" height="100" fill="#fff" fill-opacity="0.23128788425185187"/><rect x="50" y="0" rx="25.840403059259252" ry="25.840403059259252" width="100" height="100" fill="#fff" fill-opacity="0.2483191938814815"/><rect x="100" y="0" rx="16.9209038" ry="16.9209038" width="100" height="100" fill="#fff" fill-opacity="0.2661581924"/><rect x="150" y="0" rx="10.323471207407408" ry="10.323471207407408" width="100" height="100" fill="#fff" fill-opacity="0.2793530575851852"/><rect x="200" y="0" rx="5.711816392592591" ry="5.711816392592591" width="100" height="100" fill="#fff" fill-opacity="0.28857636721481483"/><rect x="250" y="0" rx="2.7303838" ry="2.7303838" width="100" height="100" fill="#fff" fill-opacity="0.29453923239999996"/><rect x="300" y="0" rx="1.0236178740740742" ry="1.0236178740740742" width="100" height="100" fill="#fff" fill-opacity="0.2979527642518518"/><rect x="350" y="0" rx="0.23596305925925928" ry="0.23596305925925928" width="100" height="100" fill="#fff" fill-opacity="0.29952807388148145"/><rect x="400" y="0" rx="0.011863799999999999" ry="0.011863799999999999" width="100" height="100" fill="#fff" fill-opacity="0.29997627239999997"/><rect x="450" y="0" rx="0.004235459259271934" ry="0.004235459259271934" width="100" height="100" fill="#fff" fill-opacity="0.29999152908148147"/></g><g transform="translate(0,400)"><rect x="-50" y="0" rx="34.28278425925926" ry="34.28278425925926" width="100" height="100" fill="#fff" fill-opacity="0.23143443148148146"/><rect x="0" y="0" rx="25.742524999999983" ry="25.742524999999983" width="100" height="100" fill="#fff" fill-opacity="0.24851495"/><rect x="50" y="0" rx="16.843932407407408" ry="16.843932407407408" width="100" height="100" fill="#fff" fill-opacity="0.2663121351851852"/><rect x="100" y="0" rx="10.26811759259259" ry="10.26811759259259" width="100" height="100" fill="#fff" fill-opacity="0.27946376481481483"/><rect x="150" y="0" rx="5.674525" ry="5.674525" width="100" height="100" fill="#fff" fill-opacity="0.28865095"/><rect x="200" y="0" rx="2.707599074074074" ry="2.707599074074074" width="100" height="100" fill="#fff" fill-opacity="0.2945848018518518"/><rect x="250" y="0" rx="1.0117842592592592" ry="1.0117842592592592" width="100" height="100" fill="#fff" fill-opacity="0.29797643148148145"/><rect x="300" y="0" rx="0.23152499999999995" ry="0.23152499999999995" width="100" height="100" fill="#fff" fill-opacity="0.29953694999999997"/><rect x="350" y="0" rx="0.01126574074074074" ry="0.01126574074074074" width="100" height="100" fill="#fff" fill-opacity="0.29997746851851853"/><rect x="400" y="0" rx="0.004549074074100545" ry="0.004549074074100545" width="100" height="100" fill="#fff" fill-opacity="0.2999909018518518"/><rect x="450" y="0" rx="0.1714749999999876" ry="0.1714749999999876" width="100" height="100" fill="#fff" fill-opacity="0.29965705000000004"/></g><g transform="translate(0,450)"><rect x="-50" y="0" rx="25.791497007407415" ry="25.791497007407415" width="100" height="100" fill="#fff" fill-opacity="0.24841700598518518"/><rect x="0" y="0" rx="16.882388859259258" ry="16.882388859259258" width="100" height="100" fill="#fff" fill-opacity="0.2662352222814815"/><rect x="50" y="0" rx="10.2957696" ry="10.2957696" width="100" height="100" fill="#fff" fill-opacity="0.2794084608"/><rect x="100" y="0" rx="5.6931503407407416" ry="5.6931503407407416" width="100" height="100" fill="#fff" fill-opacity="0.28861369931851855"/><rect x="150" y="0" rx="2.718975525925926" ry="2.718975525925926" width="100" height="100" fill="#fff" fill-opacity="0.29456204894814814"/><rect x="200" y="0" rx="1.0176895999999997" ry="1.0176895999999997" width="100" height="100" fill="#fff" fill-opacity="0.29796462079999997"/><rect x="250" y="0" rx="0.2337370074074074" ry="0.2337370074074074" width="100" height="100" fill="#fff" fill-opacity="0.29953252598518515"/><rect x="300" y="0" rx="0.011562192592592595" ry="0.011562192592592595" width="100" height="100" fill="#fff" fill-opacity="0.2999768756148148"/><rect x="350" y="0" rx="0.004390399999998351" ry="0.004390399999998351" width="100" height="100" fill="#fff" fill-opacity="0.2999912192"/><rect x="400" y="0" rx="0.16967632592590487" ry="0.16967632592590487" width="100" height="100" fill="#fff" fill-opacity="0.2996606473481482"/><rect x="450" y="0" rx="0.8398511407407216" ry="0.8398511407407216" width="100" height="100" fill="#fff" fill-opacity="0.2983202977185186"/></g></svg>